<svg xmlns="http://www.w3.org/2000/svg" width="292.519" height="51.595" viewBox="0 0 292.519 51.595"><defs><style>.a{fill:#231f20;}.b{fill:#900000;}</style></defs><title>health-wordmark-black-large</title><path class="a" d="M2.7,4.243a10.547,10.547,0,0,0,.356-2.033c0-.356-0.229-0.686-1.907-0.737-0.33,0-.33-0.1-0.33-0.356,0-.229.1-0.3,0.2-0.3,0.254,0,2.313.1,3.176,0.1,1.525,0,3-.1,3.457-0.1,0.152,0,.178.2,0.178,0.381a0.341,0.341,0,0,1-.28.356,3.453,3.453,0,0,0-1.627.3C5.7,2.083,5.493,2.54,5.061,4.4,3.815,9.784,3.154,12.58,3.154,14.207c0,3.507,3.051,3.813,4.194,3.813,2.516,0,5.312-1.4,6.558-6.075,1.7-6.4,1.907-7.853,1.907-8.947,0-1.042-.636-1.143-1.322-1.321A6.9,6.9,0,0,0,13.3,1.5a0.383,0.383,0,0,1-.153-0.3A0.373,0.373,0,0,1,13.474.813c0.28,0,1.983.1,2.465,0.1,0.839,0,3.152-.1,3.634-0.1,0.1,0,.178.127,0.178,0.33a0.355,0.355,0,0,1-.229.28l-0.89.127c-0.509.076-1.322,0.381-1.805,1.957C15.99,6.226,15,12.3,13.651,15.02,12.2,17.944,9.941,19.138,6.56,19.138c-3.227,0-5.82-1.6-5.82-4.906C0.74,12.275,1.731,9.022,2.7,4.243Z" transform="translate(-0.74 -0.203)"/><path class="a" d="M24.225,18.935c-0.152,0-.178-0.051-0.178-0.2,0-.94,3.355-8.133,3.355-9.455a0.669,0.669,0,0,0-.661-0.737c-1.677,0-2.922,2.822-5.362,6.99-0.127.229-.432,0.991-1.373,3.177a0.275,0.275,0,0,1-.279.229h-1.5a0.167,0.167,0,0,1-.2-0.2c0-.406,3.456-9.2,3.456-9.937a0.245,0.245,0,0,0-.2-0.3c-1.958,0-3.051,2.541-3.051,3.075a0.238,0.238,0,0,1-.229.127,0.212,0.212,0,0,1-.229-0.229c0-.61.838-3.711,3.584-3.711h1.88a0.21,0.21,0,0,1,.254.229c0,0.3-1.88,4.905-1.88,5.718,0,0.127,0,.179.076,0.179,0.152,0,.177-0.127.686-1.043,2.745-4.956,3.508-5.286,4.956-5.286,0.712,0,2.034.1,2.034,1.271,0,2.084-3.1,7.93-3.1,8.922a0.3,0.3,0,0,0,.254.2c1.2,0,2.567-2.669,2.847-2.669a0.335,0.335,0,0,1,.254.229c0,0.33-1.983,3.431-4.067,3.431H24.225Z" transform="translate(-0.74 -0.203)"/><path class="a" d="M32,10.852a0.3,0.3,0,0,1-.178-0.28c0-.255,2.237-3.025,4.143-3.025a0.733,0.733,0,0,1,.788.737c0,1.067-3.228,8.566-3.228,9,0,0.177.051,0.3,0.178,0.3,0.61,0,2.364-1.83,2.49-1.83a0.223,0.223,0,0,1,.28.254c0,0.127-2.694,3.356-4.473,3.228a0.792,0.792,0,0,1-.737-1.017c0-.711,3.355-8.667,3.355-8.794,0-.076,0-0.381-0.2-0.381-0.661,0-1.6,1.118-2.211,1.678A0.485,0.485,0,0,1,32,10.852ZM36.628,1.4a1.2,1.2,0,0,1,1.221,1.22,1.22,1.22,0,1,1-2.44,0A1.2,1.2,0,0,1,36.628,1.4Z" transform="translate(-0.74 -0.203)"/><path class="a" d="M43.161,7.649a2.009,2.009,0,0,0,.355-0.05A2.506,2.506,0,0,1,44,7.548a0.3,0.3,0,0,1,.28.28c0,1.194-2.872,4.143-2.872,7.447,0,1.067.406,2.439,1.728,2.439,2.745,0,4.8-4.8,4.8-7.116,0-1.017-1.219-1.017-1.219-1.932a1.214,1.214,0,0,1,1.143-1.322c1.093,0,1.3.737,1.3,1.729,0,2.389-2.619,10.166-7.194,10.166-0.559,0-2.338-.3-2.338-2.745,0-2.923,3.355-6.863,3.355-7.143,0-.126,0-0.177-0.457-0.177H39.832c-0.661,0-1.043,1.042-1.221,1.627a0.251,0.251,0,0,1-.3.229,0.307,0.307,0,0,1-.28-0.2c0-.3.839-3.177,1.246-3.177h3.889Z" transform="translate(-0.74 -0.203)"/><path class="a" d="M58.487,9.5c0,1.221-1.068,3.2-5.846,4.118a13.652,13.652,0,0,0-.306,2.084c0,1.068.382,2.135,1.627,2.135,1.4,0,2.592-1.931,2.771-1.931a0.3,0.3,0,0,1,.3.331c0,0.2-1.983,3-4.143,3-1.932,0-2.44-1.55-2.44-3.2,0-4.8,3.126-8.286,5.922-8.286C57.572,7.751,58.487,8.26,58.487,9.5Zm-1.729-.025a0.948,0.948,0,0,0-.813-1.067c-1.372,0-2.49,1.88-3.227,4.575C55.895,12.605,56.758,10.395,56.758,9.479Z" transform="translate(-0.74 -0.203)"/><path class="a" d="M59.808,18.935a0.169,0.169,0,0,1-.177-0.153c0-.483,3.457-10.014,3.457-10.167,0-.177-0.127-0.3-0.508-0.3-1.474,0-2.542,3.508-2.821,3.508-0.2,0-.28-0.051-0.28-0.178A3.786,3.786,0,0,1,63.24,7.649h1.3c0.28,0,.432.1,0.432,0.2,0,0.2-2.059,6.049-2.059,6.278a0.173,0.173,0,0,0,.127.178c0.177,0,.432-0.584,1.143-1.829,2.009-3.457,3.152-4.931,4.651-4.931a1.283,1.283,0,0,1,1.348,1.3,1.324,1.324,0,0,1-1.322,1.3c-1.246,0-1.169-.813-1.779-0.813a2.879,2.879,0,0,0-1.093,1.118c-2.771,4.448-3.126,4.982-4.474,8.236a0.316,0.316,0,0,1-.3.254h-1.4Z" transform="translate(-0.74 -0.203)"/><path class="a" d="M69.187,16.723c1.3,0,1.093,1.678,2.39,1.678a1.668,1.668,0,0,0,1.4-1.627,10.355,10.355,0,0,0-1.169-3.2,6.728,6.728,0,0,1-.992-2.821c0-1.957,1.855-3.1,3.686-3.1,1.194,0,2.466.382,2.466,1.55a1.066,1.066,0,0,1-1.093.966c-1.169,0-1.068-1.779-2.262-1.779a1.236,1.236,0,0,0-1.322,1.246,8.657,8.657,0,0,0,1.118,2.847,7.881,7.881,0,0,1,1.144,3.355c0,1.958-2.567,3.406-4.321,3.406a1.722,1.722,0,0,1-1.957-1.575A1.009,1.009,0,0,1,69.187,16.723Z" transform="translate(-0.74 -0.203)"/><path class="a" d="M77.956,10.852a0.3,0.3,0,0,1-.178-0.28c0-.255,2.237-3.025,4.143-3.025a0.733,0.733,0,0,1,.788.737c0,1.067-3.228,8.566-3.228,9,0,0.177.051,0.3,0.178,0.3,0.61,0,2.364-1.83,2.49-1.83a0.223,0.223,0,0,1,.28.254c0,0.127-2.694,3.356-4.473,3.228a0.792,0.792,0,0,1-.737-1.017c0-.711,3.355-8.667,3.355-8.794,0-.076,0-0.381-0.2-0.381-0.661,0-1.6,1.118-2.211,1.678A0.485,0.485,0,0,1,77.956,10.852ZM82.581,1.4A1.2,1.2,0,0,1,83.8,2.617a1.22,1.22,0,1,1-2.44,0A1.2,1.2,0,0,1,82.581,1.4Z" transform="translate(-0.74 -0.203)"/><path class="a" d="M84.945,9.352c-0.229,0-.3-0.05-0.3-0.177a1.188,1.188,0,0,1,.61-0.89h2.034a0.422,0.422,0,0,0,.28-0.051,20.661,20.661,0,0,0,.89-2.617,0.287,0.287,0,0,1,.3-0.178h1.169a0.186,0.186,0,0,1,.229.23c0,0.126-.687,2.134-0.687,2.414a0.216,0.216,0,0,0,.255.2h2.185c0.178,0,.255.051,0.255,0.3a1.151,1.151,0,0,1-.508.838c-0.432,0-.838-0.025-1.22-0.05-0.381,0-.762-0.026-1.143-0.026a1.12,1.12,0,0,0-.508.916c-0.2.711-2.185,7.421-2.185,7.5a0.36,0.36,0,0,0,.355.432c1.017,0,3.356-2.415,3.482-2.415a0.2,0.2,0,0,1,.23.2c0,0.381-2.644,3.253-5.262,3.253a0.807,0.807,0,0,1-.838-0.941c0-.355,2.567-8.463,2.567-8.768,0-.127-0.127-0.178-0.381-0.178H84.945Z" transform="translate(-0.74 -0.203)"/><path class="a" d="M99.915,8.209a0.435,0.435,0,0,1,.432-0.457,1.133,1.133,0,0,1,1.221.787c0,1.042-3.1,9.15-5.973,13.4-1.55,2.287-2.821,3.863-5.642,3.863-0.89,0-1.5-.255-1.5-1.118a1.119,1.119,0,0,1,1.068-.966c1.017,0,.915.966,2.49,0.966,0.864,0,3.508-2.339,3.508-7.371,0-1.627-.56-7.93-1.83-7.88-1.372.051-1.118,2.9-1.524,2.9-0.356,0-.356-0.178-0.356-0.56,0-.966,1.042-4.016,2.846-4.016,2.262,0,2.567,8.159,2.567,8.794a4.694,4.694,0,0,0,0,1.246A10.085,10.085,0,0,0,98.391,15.2,33.66,33.66,0,0,0,99.915,8.209Z" transform="translate(-0.74 -0.203)"/><path class="a" d="M112.09,19.239c-2.211,0-2.9-2.389-2.9-3.863,0-3.508,2.236-7.727,5.236-7.727,2.033,0,3.075,1.525,3.075,3.864C117.5,14.893,115.344,19.239,112.09,19.239ZM114.505,8.31c-1.653,0-3.66,5.211-3.66,7.575,0,0.94-.05,2.694,1.373,2.694,1.322,0,3.634-4.981,3.634-7.574C115.852,9.123,115.547,8.31,114.505,8.31Z" transform="translate(-0.74 -0.203)"/><path class="a" d="M119.232,9.251c-0.153,0-.229-0.051-0.229-0.1a0.859,0.859,0,0,1,.255-0.661c2.541-.2,2.617-0.2,2.77-0.636a32.057,32.057,0,0,1,1.246-3.838A6.423,6.423,0,0,1,128.992.2c0.737,0,2.161.381,2.161,1.322a1.113,1.113,0,0,1-1.144,1.3c-1.677,0-1.042-1.779-2.338-1.779-0.535,0-2.186,0-3.3,5.49-0.127.636-.381,1.423-0.381,1.627,0,0.127.1,0.127,0.177,0.127h2.72c0.152,0,.2,0,0.2.153a1.433,1.433,0,0,1-.28.813h-2.771c-0.279,0-.381.177-0.457,0.534-2.516,11.438-3.151,13.395-4.8,14.792a4.715,4.715,0,0,1-2.948,1.221c-0.762,0-1.6-.2-1.6-1.118a0.973,0.973,0,0,1,.966-0.916c0.941,0,1.524.916,2.185,0.916,0.458,0,1.017-.432,1.55-2.847,1.958-8.819,2.745-12.048,2.745-12.328a0.25,0.25,0,0,0-.229-0.254h-2.211Z" transform="translate(-0.74 -0.203)"/><path class="a" d="M135.4,17.155c0,0.966.432,1.042,1.677,1.143a0.577,0.577,0,0,1,.508.153c0,0.2-.025.535-0.279,0.535-0.23,0-.483-0.051-3.508-0.051-1.5,0-1.7.051-2.008,0.051-0.127,0-.127-0.1-0.127-0.229a0.368,0.368,0,0,1,.255-0.407,4.36,4.36,0,0,0,1.448-.3c0.56-.229,1.221-1.347,1.729-3.278,0.991-3.636,2.9-9.634,3.253-10.878,0.05-.178.406-1.246,0.406-1.4A0.786,0.786,0,0,0,137.99,1.8l-1.958-.381a0.265,0.265,0,0,1-.254-0.33,0.254,0.254,0,0,1,.28-0.28c0.3,0,1.855.1,2.643,0.1,0.382,0,2.161-.1,2.542-0.1a0.344,0.344,0,0,1,.356.254c0.966,5.185,1.5,10.65,1.7,12.455,0.126,1.194.2,1.322,0.3,1.322a0.667,0.667,0,0,0,.356-0.3c1.855-2.593,7.472-11.285,9.073-13.344a0.7,0.7,0,0,1,.508-0.381c0.152,0,1.653.1,2.008,0.1,0.306,0,1.627-.1,2.364-0.1,0.153,0,.153.076,0.153,0.28,0,0.254-.05.406-0.254,0.432a10.633,10.633,0,0,0-1.525.254c-0.61.178-.863,1.017-1.016,1.8-1.6,7.9-2.847,12.683-2.847,13.649a0.869,0.869,0,0,0,.966.941l1.271,0.152c0.127,0.025.2,0.025,0.2,0.254a0.462,0.462,0,0,1-.28.407c-0.3,0-.457-0.051-2.338-0.051-3.432,0-4.093.051-4.524,0.051-0.23,0-.28-0.1-0.28-0.229,0-.306.05-0.356,0.534-0.432l1.169-.178a0.863,0.863,0,0,0,.737-0.661c1.194-4.448,2.364-10.852,3.355-14.258a6.068,6.068,0,0,0,.152-0.839,0.108,0.108,0,0,0-.127-0.126,7.919,7.919,0,0,0-.94,1.118c-3.762,5.337-7.7,11.589-9.964,15.25a1.038,1.038,0,0,1-.534.559c-0.076,0-.2-0.05-0.3-0.966-0.687-7.269-1.627-14.08-1.855-14.741a0.218,0.218,0,0,0-.2-0.2c-0.127,0-.2.1-1.093,2.847C135.88,13.8,135.4,16.774,135.4,17.155Z" transform="translate(-0.74 -0.203)"/><path class="a" d="M157.942,10.852a0.3,0.3,0,0,1-.178-0.28c0-.255,2.237-3.025,4.143-3.025a0.733,0.733,0,0,1,.788.737c0,1.067-3.228,8.566-3.228,9,0,0.177.051,0.3,0.178,0.3,0.61,0,2.364-1.83,2.49-1.83a0.223,0.223,0,0,1,.28.254c0,0.127-2.694,3.356-4.473,3.228a0.792,0.792,0,0,1-.737-1.017c0-.711,3.355-8.667,3.355-8.794,0-.076,0-0.381-0.2-0.381-0.661,0-1.6,1.118-2.211,1.678A0.485,0.485,0,0,1,157.942,10.852ZM162.567,1.4a1.2,1.2,0,0,1,1.221,1.22,1.22,1.22,0,1,1-2.44,0A1.2,1.2,0,0,1,162.567,1.4Z" transform="translate(-0.74 -0.203)"/><path class="a" d="M163.762,16.723c1.3,0,1.093,1.678,2.39,1.678a1.668,1.668,0,0,0,1.4-1.627,10.355,10.355,0,0,0-1.169-3.2,6.728,6.728,0,0,1-.992-2.821c0-1.957,1.855-3.1,3.686-3.1,1.194,0,2.466.382,2.466,1.55a1.066,1.066,0,0,1-1.093.966c-1.169,0-1.068-1.779-2.263-1.779a1.236,1.236,0,0,0-1.322,1.246,8.657,8.657,0,0,0,1.118,2.847,7.883,7.883,0,0,1,1.144,3.355c0,1.958-2.567,3.406-4.322,3.406a1.722,1.722,0,0,1-1.957-1.575A1.009,1.009,0,0,1,163.762,16.723Z" transform="translate(-0.74 -0.203)"/><path class="a" d="M171.285,16.723c1.3,0,1.093,1.678,2.389,1.678a1.667,1.667,0,0,0,1.4-1.627,10.355,10.355,0,0,0-1.169-3.2,6.74,6.74,0,0,1-.991-2.821c0-1.957,1.855-3.1,3.686-3.1,1.194,0,2.465.382,2.465,1.55a1.066,1.066,0,0,1-1.093.966c-1.169,0-1.067-1.779-2.262-1.779a1.236,1.236,0,0,0-1.322,1.246,8.657,8.657,0,0,0,1.118,2.847,7.88,7.88,0,0,1,1.143,3.355c0,1.958-2.566,3.406-4.32,3.406a1.722,1.722,0,0,1-1.958-1.575A1.01,1.01,0,0,1,171.285,16.723Z" transform="translate(-0.74 -0.203)"/><path class="a" d="M182.189,19.239c-2.211,0-2.9-2.389-2.9-3.863,0-3.508,2.236-7.727,5.236-7.727,2.033,0,3.075,1.525,3.075,3.864C187.6,14.893,185.442,19.239,182.189,19.239ZM184.6,8.31c-1.653,0-3.66,5.211-3.66,7.575,0,0.94-.05,2.694,1.373,2.694,1.322,0,3.634-4.981,3.634-7.574C185.95,9.123,185.646,8.31,184.6,8.31Z" transform="translate(-0.74 -0.203)"/><path class="a" d="M195.837,18.935a0.265,0.265,0,0,1-.33-0.254c0-.458,1.423-4.6,1.423-4.88a0.132,0.132,0,0,0-.076-0.152c-0.1,0-2.364,3.431-3.888,4.727a3.427,3.427,0,0,1-2.314.864c-0.61,0-1.067-.406-1.067-1.525s3.33-8.488,3.33-9.353a0.305,0.305,0,0,0-.3-0.28,4.884,4.884,0,0,0-3.1,3.482c-0.025.1-.1,0.1-0.229,0.1a0.254,0.254,0,0,1-.2-0.3,5.586,5.586,0,0,1,2.11-3.253,6.073,6.073,0,0,1,3.558-.763,0.425,0.425,0,0,1,.457.432c0,0.483-3.634,8.464-3.634,9.633a0.5,0.5,0,0,0,.482.508c0.864,0,1.754-.838,3.686-3.558a13.734,13.734,0,0,0,1.779-2.922c1.169-3.177,1.118-3.889,1.5-3.889h1.5a0.3,0.3,0,0,1,.33.177c0,0.432-3.2,9.227-3.2,9.786a0.292,0.292,0,0,0,.2.33c1.168,0,2.745-2.922,2.846-2.922,0.153,0,.356.025,0.356,0.2,0,0.508-2.034,3.813-4.194,3.813h-1.017Z" transform="translate(-0.74 -0.203)"/><path class="a" d="M202.547,18.935a0.169,0.169,0,0,1-.178-0.153c0-.483,3.457-10.014,3.457-10.167,0-.177-0.127-0.3-0.508-0.3-1.474,0-2.542,3.508-2.821,3.508-0.2,0-.28-0.051-0.28-0.178a3.786,3.786,0,0,1,3.762-3.991h1.3c0.28,0,.432.1,0.432,0.2,0,0.2-2.059,6.049-2.059,6.278a0.173,0.173,0,0,0,.127.178c0.178,0,.432-0.584,1.143-1.829,2.009-3.457,3.152-4.931,4.652-4.931a1.283,1.283,0,0,1,1.347,1.3,1.324,1.324,0,0,1-1.322,1.3c-1.246,0-1.169-.813-1.779-0.813a2.879,2.879,0,0,0-1.093,1.118c-2.771,4.448-3.126,4.982-4.474,8.236a0.316,0.316,0,0,1-.3.254h-1.4Z" transform="translate(-0.74 -0.203)"/><path class="a" d="M213.477,10.852a0.3,0.3,0,0,1-.178-0.28c0-.255,2.236-3.025,4.143-3.025a0.733,0.733,0,0,1,.786.737c0,1.067-3.226,8.566-3.226,9,0,0.177.05,0.3,0.178,0.3,0.61,0,2.363-1.83,2.491-1.83a0.223,0.223,0,0,1,.279.254c0,0.127-2.694,3.356-4.473,3.228a0.792,0.792,0,0,1-.737-1.017c0-.711,3.355-8.667,3.355-8.794,0-.076,0-0.381-0.2-0.381-0.661,0-1.6,1.118-2.211,1.678A0.486,0.486,0,0,1,213.477,10.852ZM218.1,1.4a1.2,1.2,0,0,1,1.22,1.22,1.22,1.22,0,1,1-2.439,0A1.2,1.2,0,0,1,218.1,1.4Z" transform="translate(-0.74 -0.203)"/><path class="a" d="M240.875,9.022c0.381,0,.381-0.051.483-0.483a60.665,60.665,0,0,0,1.474-6.176c0-.28,0-0.813-1.677-0.813-0.612,0-.636-0.229-0.636-0.356a0.336,0.336,0,0,1,.3-0.381c0.3,0,.991.1,3.279,0.1a30.881,30.881,0,0,0,3.177-.1c0.229,0,.279,0,0.279.152,0,0.3-.026.585-0.967,0.585-0.762,0-1.169.254-1.448,1.347-3.177,12.429-3.456,13.852-3.456,14.564,0,0.636.534,0.864,2.134,0.864,0.229,0,.255.076,0.255,0.178,0,0.255-.05.483-0.357,0.483-0.177,0-.355-0.051-2.9-0.051-3.253,0-3.711.051-3.915,0.051a0.2,0.2,0,0,1-.2-0.229,0.376,0.376,0,0,1,.229-0.432c1.881,0,2.084-.331,2.441-1.779C240.775,10.8,241,10.14,241,10.064c0-.2-0.255-0.2-0.509-0.2h-8.031a0.4,0.4,0,0,0-.457.381c-1.348,5.872-1.576,6.965-1.576,7.219,0,0.508.355,0.864,2.186,0.864,0.152,0,.255.05,0.255,0.33s-0.052.331-.357,0.331c-0.229,0-.712-0.051-3.608-0.051-2.313,0-2.822.051-3.177,0.051-0.2,0-.255-0.026-0.255-0.2,0-.381.076-0.407,0.61-0.457,1.474-.127,1.627-0.127,1.984-1.6,2.77-11.132,3.43-13.242,3.43-14.309,0-.712-0.457-0.864-1.727-0.864-0.459,0-.536-0.127-0.536-0.3a0.472,0.472,0,0,1,.255-0.432c0.483,0,2.11.1,3.432,0.1s2.77-.1,3.127-0.1c0.152,0,.2.025,0.2,0.381a0.287,0.287,0,0,1-.355.356c-1.043,0-1.679.177-1.958,1.169-0.255.89-1.55,5.642-1.55,6.1,0,0.2.177,0.2,0.355,0.2h8.133Z" transform="translate(-0.74 -0.203)"/><path class="a" d="M254.855,9.5c0,1.221-1.067,3.2-5.847,4.118a13.9,13.9,0,0,0-.3,2.084c0,1.068.381,2.135,1.627,2.135,1.4,0,2.593-1.931,2.772-1.931a0.3,0.3,0,0,1,.3.331c0,0.2-1.984,3-4.144,3-1.932,0-2.439-1.55-2.439-3.2,0-4.8,3.125-8.286,5.921-8.286C253.941,7.751,254.855,8.26,254.855,9.5Zm-1.729-.025a0.947,0.947,0,0,0-.812-1.067c-1.374,0-2.491,1.88-3.229,4.575C252.262,12.605,253.126,10.395,253.126,9.479Z" transform="translate(-0.74 -0.203)"/><path class="a" d="M266.394,7.344a0.124,0.124,0,0,1,.153.153c0,0.56-3.584,8.845-3.584,9.71a0.275,0.275,0,0,0,.255.33c0.736,0,2.491-2.72,2.8-2.72a0.246,0.246,0,0,1,.229.2c0,0.2-2.872,4.219-4.651,4.219a0.662,0.662,0,0,1-.788-0.585,40.364,40.364,0,0,1,1.6-4.5,0.1,0.1,0,0,0-.1-0.126,5.586,5.586,0,0,0-1.017,1.372c-1.3,1.729-3.075,3.838-4.956,3.838a1.007,1.007,0,0,1-1.017-1.271c0-1.983,2.389-6.863,4.677-9a4.046,4.046,0,0,1,3.1-1.322,1.371,1.371,0,0,1,1.143.356,1.656,1.656,0,0,0,.3.356c0.2,0,.331-1.017.636-1.017h1.22ZM263.7,9.226c0-.535-0.152-0.916-1.043-0.916-2.567,0-5.159,6.99-5.159,8.87,0,0.407.152,0.636,0.381,0.636C259.607,17.816,263.7,11.361,263.7,9.226Z" transform="translate(-0.74 -0.203)"/><path class="a" d="M272.494,2.414c0-.661-0.355-0.687-0.864-0.687-0.407,0-.788,0-0.788-0.381,0-.3.3-0.381,0.788-0.432,1.55-.152,2.67-0.356,2.846-0.356,0.152,0,.383,0,0.383.23,0,0.991-4.982,15.1-4.982,15.656a0.378,0.378,0,0,0,.431.432c0.56,0,2.415-2.389,2.72-2.389,0.126,0,.229.1,0.229,0.33s-3.406,4.423-5.059,4.423a0.8,0.8,0,0,1-.862-0.864C267.335,17.664,272.494,2.668,272.494,2.414Z" transform="translate(-0.74 -0.203)"/><path class="a" d="M275.035,9.352c-0.229,0-.3-0.05-0.3-0.177a1.191,1.191,0,0,1,.61-0.89h2.034a0.418,0.418,0,0,0,.279-0.051,20.4,20.4,0,0,0,.891-2.617,0.289,0.289,0,0,1,.3-0.178h1.169a0.186,0.186,0,0,1,.229.23c0,0.126-.686,2.134-0.686,2.414a0.215,0.215,0,0,0,.255.2H282c0.178,0,.255.051,0.255,0.3a1.153,1.153,0,0,1-.507.838c-0.433,0-.84-0.025-1.222-0.05-0.381,0-.762-0.026-1.143-0.026a1.117,1.117,0,0,0-.507.916c-0.2.711-2.186,7.421-2.186,7.5a0.36,0.36,0,0,0,.355.432c1.017,0,3.356-2.415,3.482-2.415a0.194,0.194,0,0,1,.229.2c0,0.381-2.644,3.253-5.261,3.253a0.807,0.807,0,0,1-.838-0.941c0-.355,2.567-8.463,2.567-8.768,0-.127-0.126-0.178-0.381-0.178h-1.805Z" transform="translate(-0.74 -0.203)"/><path class="a" d="M282.457,18.935a0.323,0.323,0,0,1-.329-0.381c0-.255,4.9-15.962,4.9-16.139,0-.661-0.355-0.687-0.864-0.687-0.405,0-.786,0-0.786-0.381,0-.3.3-0.381,0.786-0.432,1.55-.152,2.67-0.356,2.848-0.356,0.152,0,.381,0,0.381.23,0,0.3-3.153,10.776-3.153,10.928a0.09,0.09,0,0,0,.076.1,0.506,0.506,0,0,0,.229-0.28c2.136-2.948,4.042-3.787,5.032-3.787a1.557,1.557,0,0,1,1.679,1.7c0,3.38-3.177,9.785-6.023,9.785a0.929,0.929,0,0,1-1.069-1.017,1.223,1.223,0,0,1,1.069-1.245c0.862,0,.61.94,1.27,0.94,1.3,0,2.746-5.973,2.746-7.142,0-.916-0.357-1.5-1.119-1.5-0.736,0-2.236,1.144-3.965,3.737-1.117,1.678-1.169,2.77-2.16,5.566a0.379,0.379,0,0,1-.3.356h-1.246Z" transform="translate(-0.74 -0.203)"/><path class="b" d="M2.7,30.243a10.547,10.547,0,0,0,.356-2.033c0-.356-0.229-0.686-1.907-0.737-0.33,0-.33-0.1-0.33-0.356,0-.229.1-0.3,0.2-0.3,0.254,0,2.313.1,3.176,0.1,1.525,0,3-.1,3.457-0.1,0.152,0,.178.2,0.178,0.381a0.341,0.341,0,0,1-.28.356,3.453,3.453,0,0,0-1.627.3C5.7,28.083,5.493,28.54,5.061,30.4c-1.246,5.389-1.907,8.185-1.907,9.811,0,3.507,3.051,3.813,4.194,3.813,2.516,0,5.312-1.4,6.558-6.075,1.7-6.4,1.907-7.853,1.907-8.947,0-1.042-.636-1.143-1.322-1.321A6.9,6.9,0,0,0,13.3,27.5a0.383,0.383,0,0,1-.153-0.3,0.373,0.373,0,0,1,.331-0.381c0.28,0,1.983.1,2.465,0.1,0.839,0,3.152-.1,3.634-0.1,0.1,0,.178.127,0.178,0.33a0.355,0.355,0,0,1-.229.28l-0.89.127c-0.509.076-1.322,0.381-1.805,1.957C15.99,32.226,15,38.3,13.651,41.02,12.2,43.944,9.941,45.138,6.56,45.138c-3.227,0-5.82-1.6-5.82-4.906C0.74,38.275,1.731,35.022,2.7,30.243Z" transform="translate(-0.74 -0.203)"/><path class="b" d="M24.225,44.935c-0.152,0-.178-0.051-0.178-0.2,0-.94,3.355-8.133,3.355-9.455a0.669,0.669,0,0,0-.661-0.737c-1.677,0-2.922,2.822-5.362,6.99-0.127.229-.432,0.991-1.373,3.177a0.275,0.275,0,0,1-.279.229h-1.5a0.167,0.167,0,0,1-.2-0.2c0-.406,3.456-9.2,3.456-9.937a0.245,0.245,0,0,0-.2-0.3c-1.958,0-3.051,2.541-3.051,3.075a0.238,0.238,0,0,1-.229.127,0.212,0.212,0,0,1-.229-0.229c0-.61.838-3.711,3.584-3.711h1.88a0.21,0.21,0,0,1,.254.229c0,0.3-1.88,4.905-1.88,5.718,0,0.127,0,.179.076,0.179,0.152,0,.177-0.127.686-1.043,2.745-4.956,3.508-5.286,4.956-5.286,0.712,0,2.034.1,2.034,1.271,0,2.084-3.1,7.93-3.1,8.922a0.3,0.3,0,0,0,.254.2c1.2,0,2.567-2.669,2.847-2.669a0.335,0.335,0,0,1,.254.229c0,0.33-1.983,3.431-4.067,3.431H24.225Z" transform="translate(-0.74 -0.203)"/><path class="b" d="M32,36.852a0.3,0.3,0,0,1-.178-0.28c0-.255,2.237-3.025,4.143-3.025a0.733,0.733,0,0,1,.788.737c0,1.067-3.228,8.566-3.228,9,0,0.177.051,0.3,0.178,0.3,0.61,0,2.364-1.83,2.49-1.83a0.223,0.223,0,0,1,.28.254c0,0.127-2.694,3.356-4.473,3.228a0.792,0.792,0,0,1-.737-1.017c0-.711,3.355-8.667,3.355-8.794,0-.076,0-0.381-0.2-0.381-0.661,0-1.6,1.118-2.211,1.678A0.485,0.485,0,0,1,32,36.852ZM36.628,27.4a1.22,1.22,0,1,1-1.22,1.22A1.2,1.2,0,0,1,36.628,27.4Z" transform="translate(-0.74 -0.203)"/><path class="b" d="M43.161,33.649a2.009,2.009,0,0,0,.355-0.05A2.506,2.506,0,0,1,44,33.548a0.3,0.3,0,0,1,.28.28c0,1.194-2.872,4.143-2.872,7.447,0,1.067.406,2.439,1.728,2.439,2.745,0,4.8-4.8,4.8-7.116,0-1.017-1.219-1.017-1.219-1.932a1.214,1.214,0,0,1,1.143-1.322c1.093,0,1.3.737,1.3,1.729,0,2.389-2.619,10.166-7.194,10.166-0.559,0-2.338-.3-2.338-2.745,0-2.923,3.355-6.863,3.355-7.143,0-.126,0-0.177-0.457-0.177H39.832c-0.661,0-1.043,1.042-1.221,1.627a0.251,0.251,0,0,1-.3.229,0.307,0.307,0,0,1-.28-0.2c0-.3.839-3.177,1.246-3.177h3.889Z" transform="translate(-0.74 -0.203)"/><path class="b" d="M58.487,35.5c0,1.221-1.068,3.2-5.846,4.118a13.652,13.652,0,0,0-.306,2.084c0,1.068.382,2.135,1.627,2.135,1.4,0,2.592-1.931,2.771-1.931a0.3,0.3,0,0,1,.3.331c0,0.2-1.983,3-4.143,3-1.932,0-2.44-1.55-2.44-3.2,0-4.8,3.126-8.286,5.922-8.286C57.572,33.751,58.487,34.26,58.487,35.5Zm-1.729-.025a0.948,0.948,0,0,0-.813-1.067c-1.372,0-2.49,1.88-3.227,4.575C55.895,38.605,56.758,36.395,56.758,35.479Z" transform="translate(-0.74 -0.203)"/><path class="b" d="M59.808,44.935a0.169,0.169,0,0,1-.177-0.153c0-.483,3.457-10.014,3.457-10.167,0-.177-0.127-0.3-0.508-0.3-1.474,0-2.542,3.508-2.821,3.508-0.2,0-.28-0.051-0.28-0.178a3.786,3.786,0,0,1,3.762-3.991h1.3c0.28,0,.432.1,0.432,0.2,0,0.2-2.059,6.049-2.059,6.278a0.173,0.173,0,0,0,.127.178c0.177,0,.432-0.584,1.143-1.829,2.009-3.457,3.152-4.931,4.651-4.931a1.283,1.283,0,0,1,1.348,1.3,1.324,1.324,0,0,1-1.322,1.3c-1.246,0-1.169-.813-1.779-0.813a2.879,2.879,0,0,0-1.093,1.118c-2.771,4.448-3.126,4.982-4.474,8.236a0.316,0.316,0,0,1-.3.254h-1.4Z" transform="translate(-0.74 -0.203)"/><path class="b" d="M69.187,42.723c1.3,0,1.093,1.678,2.39,1.678a1.668,1.668,0,0,0,1.4-1.627,10.355,10.355,0,0,0-1.169-3.2,6.728,6.728,0,0,1-.992-2.821c0-1.957,1.855-3.1,3.686-3.1,1.194,0,2.466.382,2.466,1.55a1.066,1.066,0,0,1-1.093.966c-1.169,0-1.068-1.779-2.262-1.779a1.236,1.236,0,0,0-1.322,1.246,8.657,8.657,0,0,0,1.118,2.847,7.881,7.881,0,0,1,1.144,3.355c0,1.958-2.567,3.406-4.321,3.406a1.722,1.722,0,0,1-1.957-1.575A1.009,1.009,0,0,1,69.187,42.723Z" transform="translate(-0.74 -0.203)"/><path class="b" d="M77.956,36.852a0.3,0.3,0,0,1-.178-0.28c0-.255,2.237-3.025,4.143-3.025a0.733,0.733,0,0,1,.788.737c0,1.067-3.228,8.566-3.228,9,0,0.177.051,0.3,0.178,0.3,0.61,0,2.364-1.83,2.49-1.83a0.223,0.223,0,0,1,.28.254c0,0.127-2.694,3.356-4.473,3.228a0.792,0.792,0,0,1-.737-1.017c0-.711,3.355-8.667,3.355-8.794,0-.076,0-0.381-0.2-0.381-0.661,0-1.6,1.118-2.211,1.678A0.485,0.485,0,0,1,77.956,36.852ZM82.581,27.4a1.22,1.22,0,1,1-1.22,1.22A1.2,1.2,0,0,1,82.581,27.4Z" transform="translate(-0.74 -0.203)"/><path class="b" d="M84.945,35.352c-0.229,0-.3-0.05-0.3-0.177a1.188,1.188,0,0,1,.61-0.89h2.034a0.422,0.422,0,0,0,.28-0.051,20.661,20.661,0,0,0,.89-2.617,0.287,0.287,0,0,1,.3-0.178h1.169a0.186,0.186,0,0,1,.229.23c0,0.126-.687,2.134-0.687,2.414a0.216,0.216,0,0,0,.255.2h2.185c0.178,0,.255.051,0.255,0.3a1.151,1.151,0,0,1-.508.838c-0.432,0-.838-0.025-1.22-0.05-0.381,0-.762-0.026-1.143-0.026a1.12,1.12,0,0,0-.508.916c-0.2.711-2.185,7.421-2.185,7.5a0.36,0.36,0,0,0,.355.432c1.017,0,3.356-2.415,3.482-2.415a0.2,0.2,0,0,1,.23.2c0,0.381-2.644,3.253-5.262,3.253a0.807,0.807,0,0,1-.838-0.941c0-.355,2.567-8.463,2.567-8.768,0-.127-0.127-0.178-0.381-0.178H84.945Z" transform="translate(-0.74 -0.203)"/><path class="b" d="M99.915,34.209a0.435,0.435,0,0,1,.432-0.457,1.133,1.133,0,0,1,1.221.787c0,1.042-3.1,9.15-5.973,13.4-1.55,2.287-2.821,3.863-5.642,3.863-0.89,0-1.5-.255-1.5-1.118a1.119,1.119,0,0,1,1.068-.966c1.017,0,.915.966,2.49,0.966,0.864,0,3.508-2.339,3.508-7.371,0-1.627-.56-7.93-1.83-7.88-1.372.051-1.118,2.9-1.524,2.9-0.356,0-.356-0.178-0.356-0.56,0-.966,1.042-4.016,2.846-4.016,2.262,0,2.567,8.159,2.567,8.794a4.694,4.694,0,0,0,0,1.246A10.085,10.085,0,0,0,98.391,41.2,33.66,33.66,0,0,0,99.915,34.209Z" transform="translate(-0.74 -0.203)"/><path class="b" d="M112.09,45.239c-2.211,0-2.9-2.389-2.9-3.863,0-3.508,2.236-7.727,5.236-7.727,2.033,0,3.075,1.525,3.075,3.864C117.5,40.893,115.344,45.239,112.09,45.239Zm2.415-10.929c-1.653,0-3.66,5.211-3.66,7.575,0,0.94-.05,2.694,1.373,2.694,1.322,0,3.634-4.981,3.634-7.574C115.852,35.123,115.547,34.31,114.505,34.31Z" transform="translate(-0.74 -0.203)"/><path class="b" d="M119.232,35.251c-0.153,0-.229-0.051-0.229-0.1a0.859,0.859,0,0,1,.255-0.661c2.541-.2,2.617-0.2,2.77-0.636a32.057,32.057,0,0,1,1.246-3.838,6.423,6.423,0,0,1,5.718-3.812c0.737,0,2.161.381,2.161,1.322a1.113,1.113,0,0,1-1.144,1.3c-1.677,0-1.042-1.779-2.338-1.779-0.535,0-2.186,0-3.3,5.49-0.127.636-.381,1.423-0.381,1.627,0,0.127.1,0.127,0.177,0.127h2.72c0.152,0,.2,0,0.2.153a1.433,1.433,0,0,1-.28.813h-2.771c-0.279,0-.381.177-0.457,0.534-2.516,11.438-3.151,13.395-4.8,14.792a4.715,4.715,0,0,1-2.948,1.221c-0.762,0-1.6-.2-1.6-1.118a0.973,0.973,0,0,1,.966-0.916c0.941,0,1.524.916,2.185,0.916,0.458,0,1.017-.432,1.55-2.847,1.958-8.819,2.745-12.048,2.745-12.328a0.25,0.25,0,0,0-.229-0.254h-2.211Z" transform="translate(-0.74 -0.203)"/><path class="b" d="M135.4,43.155c0,0.966.432,1.042,1.677,1.143a0.577,0.577,0,0,1,.508.153c0,0.2-.025.535-0.279,0.535-0.23,0-.483-0.051-3.508-0.051-1.5,0-1.7.051-2.008,0.051-0.127,0-.127-0.1-0.127-0.229a0.368,0.368,0,0,1,.255-0.407,4.36,4.36,0,0,0,1.448-.3c0.56-.229,1.221-1.347,1.729-3.278,0.991-3.636,2.9-9.634,3.253-10.878,0.05-.178.406-1.246,0.406-1.4a0.786,0.786,0,0,0-.762-0.687l-1.958-.381a0.265,0.265,0,0,1-.254-0.33,0.254,0.254,0,0,1,.28-0.28c0.3,0,1.855.1,2.643,0.1,0.382,0,2.161-.1,2.542-0.1a0.344,0.344,0,0,1,.356.254c0.966,5.185,1.5,10.65,1.7,12.455,0.126,1.194.2,1.322,0.3,1.322a0.667,0.667,0,0,0,.356-0.3c1.855-2.593,7.472-11.285,9.073-13.344a0.7,0.7,0,0,1,.508-0.381c0.152,0,1.653.1,2.008,0.1,0.306,0,1.627-.1,2.364-0.1,0.153,0,.153.076,0.153,0.28,0,0.254-.05.406-0.254,0.432a10.633,10.633,0,0,0-1.525.254c-0.61.178-.863,1.017-1.016,1.8-1.6,7.9-2.847,12.683-2.847,13.649a0.869,0.869,0,0,0,.966.941l1.271,0.152c0.127,0.025.2,0.025,0.2,0.254a0.462,0.462,0,0,1-.28.407c-0.3,0-.457-0.051-2.338-0.051-3.432,0-4.093.051-4.524,0.051-0.23,0-.28-0.1-0.28-0.229,0-.306.05-0.356,0.534-0.432l1.169-.178a0.863,0.863,0,0,0,.737-0.661c1.194-4.448,2.364-10.852,3.355-14.258a6.068,6.068,0,0,0,.152-0.839,0.108,0.108,0,0,0-.127-0.126,7.919,7.919,0,0,0-.94,1.118c-3.762,5.337-7.7,11.589-9.964,15.25a1.038,1.038,0,0,1-.534.559c-0.076,0-.2-0.05-0.3-0.966-0.687-7.269-1.627-14.08-1.855-14.741a0.218,0.218,0,0,0-.2-0.2c-0.127,0-.2.1-1.093,2.847C135.88,39.8,135.4,42.774,135.4,43.155Z" transform="translate(-0.74 -0.203)"/><path class="b" d="M157.942,36.852a0.3,0.3,0,0,1-.178-0.28c0-.255,2.237-3.025,4.143-3.025a0.733,0.733,0,0,1,.788.737c0,1.067-3.228,8.566-3.228,9,0,0.177.051,0.3,0.178,0.3,0.61,0,2.364-1.83,2.49-1.83a0.223,0.223,0,0,1,.28.254c0,0.127-2.694,3.356-4.473,3.228a0.792,0.792,0,0,1-.737-1.017c0-.711,3.355-8.667,3.355-8.794,0-.076,0-0.381-0.2-0.381-0.661,0-1.6,1.118-2.211,1.678A0.485,0.485,0,0,1,157.942,36.852Zm4.625-9.455a1.22,1.22,0,1,1-1.22,1.22A1.2,1.2,0,0,1,162.567,27.4Z" transform="translate(-0.74 -0.203)"/><path class="b" d="M163.762,42.723c1.3,0,1.093,1.678,2.39,1.678a1.668,1.668,0,0,0,1.4-1.627,10.355,10.355,0,0,0-1.169-3.2,6.728,6.728,0,0,1-.992-2.821c0-1.957,1.855-3.1,3.686-3.1,1.194,0,2.466.382,2.466,1.55a1.066,1.066,0,0,1-1.093.966c-1.169,0-1.068-1.779-2.263-1.779a1.236,1.236,0,0,0-1.322,1.246,8.657,8.657,0,0,0,1.118,2.847,7.883,7.883,0,0,1,1.144,3.355c0,1.958-2.567,3.406-4.322,3.406a1.722,1.722,0,0,1-1.957-1.575A1.009,1.009,0,0,1,163.762,42.723Z" transform="translate(-0.74 -0.203)"/><path class="b" d="M171.285,42.723c1.3,0,1.093,1.678,2.389,1.678a1.667,1.667,0,0,0,1.4-1.627,10.355,10.355,0,0,0-1.169-3.2,6.74,6.74,0,0,1-.991-2.821c0-1.957,1.855-3.1,3.686-3.1,1.194,0,2.465.382,2.465,1.55a1.066,1.066,0,0,1-1.093.966c-1.169,0-1.067-1.779-2.262-1.779a1.236,1.236,0,0,0-1.322,1.246,8.657,8.657,0,0,0,1.118,2.847,7.88,7.88,0,0,1,1.143,3.355c0,1.958-2.566,3.406-4.32,3.406a1.722,1.722,0,0,1-1.958-1.575A1.01,1.01,0,0,1,171.285,42.723Z" transform="translate(-0.74 -0.203)"/><path class="b" d="M182.189,45.239c-2.211,0-2.9-2.389-2.9-3.863,0-3.508,2.236-7.727,5.236-7.727,2.033,0,3.075,1.525,3.075,3.864C187.6,40.893,185.442,45.239,182.189,45.239ZM184.6,34.31c-1.653,0-3.66,5.211-3.66,7.575,0,0.94-.05,2.694,1.373,2.694,1.322,0,3.634-4.981,3.634-7.574C185.95,35.123,185.646,34.31,184.6,34.31Z" transform="translate(-0.74 -0.203)"/><path class="b" d="M195.837,44.935a0.265,0.265,0,0,1-.33-0.254c0-.458,1.423-4.6,1.423-4.88a0.132,0.132,0,0,0-.076-0.152c-0.1,0-2.364,3.431-3.888,4.727a3.427,3.427,0,0,1-2.314.864c-0.61,0-1.067-.406-1.067-1.525s3.33-8.488,3.33-9.353a0.305,0.305,0,0,0-.3-0.28,4.884,4.884,0,0,0-3.1,3.482c-0.025.1-.1,0.1-0.229,0.1a0.254,0.254,0,0,1-.2-0.3,5.586,5.586,0,0,1,2.11-3.253,6.073,6.073,0,0,1,3.558-.763,0.425,0.425,0,0,1,.457.432c0,0.483-3.634,8.464-3.634,9.633a0.5,0.5,0,0,0,.482.508c0.864,0,1.754-.838,3.686-3.558a13.734,13.734,0,0,0,1.779-2.922c1.169-3.177,1.118-3.889,1.5-3.889h1.5a0.3,0.3,0,0,1,.33.177c0,0.432-3.2,9.227-3.2,9.786a0.292,0.292,0,0,0,.2.33c1.168,0,2.745-2.922,2.846-2.922,0.153,0,.356.025,0.356,0.2,0,0.508-2.034,3.813-4.194,3.813h-1.017Z" transform="translate(-0.74 -0.203)"/><path class="b" d="M202.547,44.935a0.169,0.169,0,0,1-.178-0.153c0-.483,3.457-10.014,3.457-10.167,0-.177-0.127-0.3-0.508-0.3-1.474,0-2.542,3.508-2.821,3.508-0.2,0-.28-0.051-0.28-0.178a3.786,3.786,0,0,1,3.762-3.991h1.3c0.28,0,.432.1,0.432,0.2,0,0.2-2.059,6.049-2.059,6.278a0.173,0.173,0,0,0,.127.178c0.178,0,.432-0.584,1.143-1.829,2.009-3.457,3.152-4.931,4.652-4.931a1.283,1.283,0,0,1,1.347,1.3,1.324,1.324,0,0,1-1.322,1.3c-1.246,0-1.169-.813-1.779-0.813a2.879,2.879,0,0,0-1.093,1.118c-2.771,4.448-3.126,4.982-4.474,8.236a0.316,0.316,0,0,1-.3.254h-1.4Z" transform="translate(-0.74 -0.203)"/><path class="b" d="M213.477,36.852a0.3,0.3,0,0,1-.178-0.28c0-.255,2.236-3.025,4.143-3.025a0.733,0.733,0,0,1,.786.737c0,1.067-3.226,8.566-3.226,9,0,0.177.05,0.3,0.178,0.3,0.61,0,2.363-1.83,2.491-1.83a0.223,0.223,0,0,1,.279.254c0,0.127-2.694,3.356-4.473,3.228a0.792,0.792,0,0,1-.737-1.017c0-.711,3.355-8.667,3.355-8.794,0-.076,0-0.381-0.2-0.381-0.661,0-1.6,1.118-2.211,1.678A0.486,0.486,0,0,1,213.477,36.852ZM218.1,27.4a1.22,1.22,0,1,1-1.22,1.22A1.2,1.2,0,0,1,218.1,27.4Z" transform="translate(-0.74 -0.203)"/><path class="b" d="M240.875,35.022c0.381,0,.381-0.051.483-0.483a60.665,60.665,0,0,0,1.474-6.176c0-.28,0-0.813-1.677-0.813-0.612,0-.636-0.229-0.636-0.356a0.336,0.336,0,0,1,.3-0.381c0.3,0,.991.1,3.279,0.1a30.881,30.881,0,0,0,3.177-.1c0.229,0,.279,0,0.279.152,0,0.3-.026.585-0.967,0.585-0.762,0-1.169.254-1.448,1.347-3.177,12.429-3.456,13.852-3.456,14.564,0,0.636.534,0.864,2.134,0.864,0.229,0,.255.076,0.255,0.178,0,0.255-.05.483-0.357,0.483-0.177,0-.355-0.051-2.9-0.051-3.253,0-3.711.051-3.915,0.051a0.2,0.2,0,0,1-.2-0.229,0.376,0.376,0,0,1,.229-0.432c1.881,0,2.084-.331,2.441-1.779C240.775,36.8,241,36.14,241,36.064c0-.2-0.255-0.2-0.509-0.2h-8.031a0.4,0.4,0,0,0-.457.381c-1.348,5.872-1.576,6.965-1.576,7.219,0,0.508.355,0.864,2.186,0.864,0.152,0,.255.05,0.255,0.33s-0.052.331-.357,0.331c-0.229,0-.712-0.051-3.608-0.051-2.313,0-2.822.051-3.177,0.051-0.2,0-.255-0.026-0.255-0.2,0-.381.076-0.407,0.61-0.457,1.474-.127,1.627-0.127,1.984-1.6,2.77-11.132,3.43-13.242,3.43-14.309,0-.712-0.457-0.864-1.727-0.864-0.459,0-.536-0.127-0.536-0.3a0.472,0.472,0,0,1,.255-0.432c0.483,0,2.11.1,3.432,0.1s2.77-.1,3.127-0.1c0.152,0,.2.025,0.2,0.381a0.287,0.287,0,0,1-.355.356c-1.043,0-1.679.177-1.958,1.169-0.255.89-1.55,5.642-1.55,6.1,0,0.2.177,0.2,0.355,0.2h8.133Z" transform="translate(-0.74 -0.203)"/><path class="b" d="M254.855,35.5c0,1.221-1.067,3.2-5.847,4.118a13.9,13.9,0,0,0-.3,2.084c0,1.068.381,2.135,1.627,2.135,1.4,0,2.593-1.931,2.772-1.931a0.3,0.3,0,0,1,.3.331c0,0.2-1.984,3-4.144,3-1.932,0-2.439-1.55-2.439-3.2,0-4.8,3.125-8.286,5.921-8.286C253.941,33.751,254.855,34.26,254.855,35.5Zm-1.729-.025a0.947,0.947,0,0,0-.812-1.067c-1.374,0-2.491,1.88-3.229,4.575C252.262,38.605,253.126,36.395,253.126,35.479Z" transform="translate(-0.74 -0.203)"/><path class="b" d="M266.394,33.344a0.124,0.124,0,0,1,.153.153c0,0.56-3.584,8.845-3.584,9.71a0.275,0.275,0,0,0,.255.33c0.736,0,2.491-2.72,2.8-2.72a0.246,0.246,0,0,1,.229.2c0,0.2-2.872,4.219-4.651,4.219a0.662,0.662,0,0,1-.788-0.585,40.364,40.364,0,0,1,1.6-4.5,0.1,0.1,0,0,0-.1-0.126,5.586,5.586,0,0,0-1.017,1.372c-1.3,1.729-3.075,3.838-4.956,3.838a1.007,1.007,0,0,1-1.017-1.271c0-1.983,2.389-6.863,4.677-9a4.046,4.046,0,0,1,3.1-1.322,1.371,1.371,0,0,1,1.143.356,1.656,1.656,0,0,0,.3.356c0.2,0,.331-1.017.636-1.017h1.22ZM263.7,35.226c0-.535-0.152-0.916-1.043-0.916-2.567,0-5.159,6.99-5.159,8.87,0,0.407.152,0.636,0.381,0.636C259.607,43.816,263.7,37.361,263.7,35.226Z" transform="translate(-0.74 -0.203)"/><path class="b" d="M272.494,28.414c0-.661-0.355-0.687-0.864-0.687-0.407,0-.788,0-0.788-0.381,0-.3.3-0.381,0.788-0.432,1.55-.152,2.67-0.356,2.846-0.356,0.152,0,.383,0,0.383.23,0,0.991-4.982,15.1-4.982,15.656a0.378,0.378,0,0,0,.431.432c0.56,0,2.415-2.389,2.72-2.389,0.126,0,.229.1,0.229,0.33s-3.406,4.423-5.059,4.423a0.8,0.8,0,0,1-.862-0.864C267.335,43.664,272.494,28.668,272.494,28.414Z" transform="translate(-0.74 -0.203)"/><path class="b" d="M275.035,35.352c-0.229,0-.3-0.05-0.3-0.177a1.191,1.191,0,0,1,.61-0.89h2.034a0.418,0.418,0,0,0,.279-0.051,20.4,20.4,0,0,0,.891-2.617,0.289,0.289,0,0,1,.3-0.178h1.169a0.186,0.186,0,0,1,.229.23c0,0.126-.686,2.134-0.686,2.414a0.215,0.215,0,0,0,.255.2H282c0.178,0,.255.051,0.255,0.3a1.153,1.153,0,0,1-.507.838c-0.433,0-.84-0.025-1.222-0.05-0.381,0-.762-0.026-1.143-0.026a1.117,1.117,0,0,0-.507.916c-0.2.711-2.186,7.421-2.186,7.5a0.36,0.36,0,0,0,.355.432c1.017,0,3.356-2.415,3.482-2.415a0.194,0.194,0,0,1,.229.2c0,0.381-2.644,3.253-5.261,3.253a0.807,0.807,0,0,1-.838-0.941c0-.355,2.567-8.463,2.567-8.768,0-.127-0.126-0.178-0.381-0.178h-1.805Z" transform="translate(-0.74 -0.203)"/><path class="b" d="M282.457,44.935a0.323,0.323,0,0,1-.329-0.381c0-.255,4.9-15.962,4.9-16.139,0-.661-0.355-0.687-0.864-0.687-0.405,0-.786,0-0.786-0.381,0-.3.3-0.381,0.786-0.432,1.55-.152,2.67-0.356,2.848-0.356,0.152,0,.381,0,0.381.23,0,0.3-3.153,10.776-3.153,10.928a0.09,0.09,0,0,0,.076.1,0.506,0.506,0,0,0,.229-0.28c2.136-2.948,4.042-3.787,5.032-3.787a1.557,1.557,0,0,1,1.679,1.7c0,3.38-3.177,9.785-6.023,9.785a0.929,0.929,0,0,1-1.069-1.017,1.223,1.223,0,0,1,1.069-1.245c0.862,0,.61.94,1.27,0.94,1.3,0,2.746-5.973,2.746-7.142,0-.916-0.357-1.5-1.119-1.5-0.736,0-2.236,1.144-3.965,3.737-1.117,1.678-1.169,2.77-2.16,5.566a0.379,0.379,0,0,1-.3.356h-1.246Z" transform="translate(-0.74 -0.203)"/></svg>