<svg xmlns="http://www.w3.org/2000/svg" width="221.605" height="39.39" viewBox="0 0 221.605 39.39"><defs><style>.a{fill:#231f20;}.b{fill:#900000;}</style></defs><title>health-wordmark-black-medium</title><path class="a" d="M1.68,3.366a7.99,7.99,0,0,0,.27-1.54c0-.27-0.173-0.52-1.444-0.558-0.25,0-.25-0.077-0.25-0.27,0-.173.077-0.231,0.154-0.231,0.192,0,1.752.077,2.406,0.077,1.156,0,2.272-.077,2.619-0.077,0.115,0,.135.154,0.135,0.289a0.258,0.258,0,0,1-.212.27,2.616,2.616,0,0,0-1.232.231,4.459,4.459,0,0,0-.655,1.925c-0.944,4.082-1.444,6.2-1.444,7.433,0,2.657,2.311,2.889,3.177,2.889,1.906,0,4.024-1.059,4.968-4.6,1.29-4.852,1.444-5.95,1.444-6.778a0.959,0.959,0,0,0-1-1,5.227,5.227,0,0,0-.9-0.135,0.29,0.29,0,0,1-.116-0.231A0.283,0.283,0,0,1,9.844.767c0.212,0,1.5.077,1.867,0.077,0.636,0,2.388-.077,2.753-0.077,0.077,0,.135.1,0.135,0.25a0.269,0.269,0,0,1-.173.212l-0.674.1a1.742,1.742,0,0,0-1.368,1.482C11.75,4.868,11,9.47,9.979,11.531c-1.1,2.215-2.811,3.12-5.372,3.12C2.162,14.65.2,13.437,0.2,10.933,0.2,9.451.948,6.986,1.68,3.366Z" transform="translate(-0.198 -0.305)"/><path class="a" d="M17.989,14.5c-0.115,0-.135-0.039-0.135-0.154,0-.712,2.541-6.162,2.541-7.163a0.507,0.507,0,0,0-.5-0.558c-1.27,0-2.214,2.138-4.062,5.3-0.1.173-.327,0.751-1.04,2.407a0.208,0.208,0,0,1-.211.173H13.445a0.127,0.127,0,0,1-.153-0.154c0-.308,2.618-6.97,2.618-7.528a0.186,0.186,0,0,0-.153-0.231c-1.483,0-2.311,1.925-2.311,2.329a0.181,0.181,0,0,1-.173.1A0.161,0.161,0,0,1,13.1,8.835c0-.462.635-2.811,2.715-2.811h1.425a0.159,0.159,0,0,1,.192.173c0,0.231-1.424,3.716-1.424,4.332,0,0.1,0,.135.058,0.135,0.115,0,.134-0.1.52-0.79,2.079-3.755,2.658-4,3.755-4,0.539,0,1.541.077,1.541,0.963,0,1.579-2.349,6.007-2.349,6.759a0.229,0.229,0,0,0,.192.154c0.906,0,1.945-2.022,2.157-2.022a0.254,0.254,0,0,1,.192.173c0,0.25-1.5,2.6-3.081,2.6h-1Z" transform="translate(-0.198 -0.305)"/><path class="a" d="M23.881,8.373a0.224,0.224,0,0,1-.135-0.212c0-.193,1.7-2.291,3.139-2.291a0.556,0.556,0,0,1,.6.558c0,0.808-2.446,6.489-2.446,6.817,0,0.134.039,0.231,0.135,0.231,0.462,0,1.791-1.387,1.886-1.387a0.169,0.169,0,0,1,.212.192c0,0.1-2.041,2.542-3.389,2.446a0.6,0.6,0,0,1-.558-0.77c0-.539,2.541-6.566,2.541-6.662,0-.058,0-0.289-0.154-0.289-0.5,0-1.213.847-1.675,1.271A0.367,0.367,0,0,1,23.881,8.373Zm3.5-7.163a0.912,0.912,0,0,1,.925.924,0.924,0.924,0,1,1-1.849,0A0.912,0.912,0,0,1,27.385,1.21Z" transform="translate(-0.198 -0.305)"/><path class="a" d="M32.334,5.946A1.522,1.522,0,0,0,32.6,5.908,1.9,1.9,0,0,1,32.97,5.87a0.224,0.224,0,0,1,.212.212c0,0.9-2.176,3.139-2.176,5.642,0,0.808.308,1.848,1.309,1.848,2.079,0,3.639-3.639,3.639-5.391,0-.77-0.924-0.77-0.924-1.463a0.92,0.92,0,0,1,.866-1c0.828,0,.982.558,0.982,1.31,0,1.81-1.984,7.7-5.45,7.7a1.813,1.813,0,0,1-1.771-2.079c0-2.215,2.541-5.2,2.541-5.411,0-.1,0-0.134-0.346-0.134H29.812c-0.5,0-.79.789-0.925,1.232a0.19,0.19,0,0,1-.231.173,0.232,0.232,0,0,1-.212-0.154c0-.231.635-2.407,0.944-2.407h2.946Z" transform="translate(-0.198 -0.305)"/><path class="a" d="M43.945,7.352c0,0.925-.809,2.427-4.429,3.12a10.342,10.342,0,0,0-.232,1.579c0,0.809.289,1.618,1.232,1.618,1.059,0,1.964-1.463,2.1-1.463a0.226,0.226,0,0,1,.231.251c0,0.153-1.5,2.272-3.138,2.272-1.463,0-1.849-1.175-1.849-2.426,0-3.639,2.368-6.277,4.486-6.277A1.348,1.348,0,0,1,43.945,7.352Zm-1.31-.019a0.718,0.718,0,0,0-.616-0.808c-1.039,0-1.886,1.424-2.445,3.466C41.981,9.7,42.635,8.027,42.635,7.333Z" transform="translate(-0.198 -0.305)"/><path class="a" d="M44.946,14.5a0.128,0.128,0,0,1-.134-0.116c0-.366,2.619-7.586,2.619-7.7,0-.134-0.1-0.231-0.385-0.231-1.117,0-1.926,2.658-2.137,2.658-0.154,0-.212-0.039-0.212-0.135a2.868,2.868,0,0,1,2.85-3.023h0.982c0.212,0,.327.077,0.327,0.154,0,0.154-1.56,4.583-1.56,4.756a0.131,0.131,0,0,0,.1.135,4.477,4.477,0,0,0,.866-1.386c1.522-2.619,2.388-3.736,3.524-3.736a0.972,0.972,0,0,1,1.021.982,1,1,0,0,1-1,.982c-0.944,0-.886-0.616-1.348-0.616a2.181,2.181,0,0,0-.828.847A32.077,32.077,0,0,0,46.236,14.3,0.239,0.239,0,0,1,46,14.5H44.946Z" transform="translate(-0.198 -0.305)"/><path class="a" d="M52.051,12.821c0.982,0,.828,1.271,1.811,1.271a1.264,1.264,0,0,0,1.059-1.232,7.845,7.845,0,0,0-.886-2.427A5.1,5.1,0,0,1,53.283,8.3a2.569,2.569,0,0,1,2.792-2.349c0.9,0,1.868.289,1.868,1.175a0.808,0.808,0,0,1-.828.732C56.23,7.853,56.306,6.5,55.4,6.5a0.936,0.936,0,0,0-1,.944,6.558,6.558,0,0,0,.847,2.157,5.971,5.971,0,0,1,.867,2.541c0,1.483-1.945,2.58-3.274,2.58a1.3,1.3,0,0,1-1.482-1.194A0.764,0.764,0,0,1,52.051,12.821Z" transform="translate(-0.198 -0.305)"/><path class="a" d="M58.694,8.373a0.224,0.224,0,0,1-.135-0.212c0-.193,1.7-2.291,3.138-2.291a0.556,0.556,0,0,1,.6.558c0,0.808-2.446,6.489-2.446,6.817,0,0.134.039,0.231,0.135,0.231,0.462,0,1.791-1.387,1.886-1.387a0.169,0.169,0,0,1,.212.192c0,0.1-2.041,2.542-3.389,2.446a0.6,0.6,0,0,1-.558-0.77c0-.539,2.541-6.566,2.541-6.662,0-.058,0-0.289-0.154-0.289-0.5,0-1.213.847-1.675,1.271A0.367,0.367,0,0,1,58.694,8.373ZM62.2,1.21a0.912,0.912,0,0,1,.925.924,0.924,0.924,0,1,1-1.849,0A0.912,0.912,0,0,1,62.2,1.21Z" transform="translate(-0.198 -0.305)"/><path class="a" d="M63.989,7.236c-0.173,0-.231-0.038-0.231-0.134a0.9,0.9,0,0,1,.462-0.674h1.541a0.319,0.319,0,0,0,.212-0.039,15.652,15.652,0,0,0,.674-1.983,0.218,0.218,0,0,1,.231-0.135h0.886a0.141,0.141,0,0,1,.173.174c0,0.1-.52,1.617-0.52,1.829a0.163,0.163,0,0,0,.193.154h1.655c0.135,0,.193.039,0.193,0.231a0.872,0.872,0,0,1-.385.635c-0.327,0-.635-0.019-0.925-0.038-0.289,0-.577-0.02-0.866-0.02a0.848,0.848,0,0,0-.385.694c-0.154.539-1.656,5.622-1.656,5.68a0.272,0.272,0,0,0,.269.327c0.77,0,2.542-1.83,2.638-1.83a0.148,0.148,0,0,1,.174.154,5.61,5.61,0,0,1-3.986,2.465,0.611,0.611,0,0,1-.635-0.713c0-.269,1.945-6.412,1.945-6.643,0-.1-0.1-0.135-0.289-0.135H63.989Z" transform="translate(-0.198 -0.305)"/><path class="a" d="M75.33,6.37a0.329,0.329,0,0,1,.327-0.346,0.858,0.858,0,0,1,.925.6c0,0.789-2.349,6.932-4.525,10.148-1.175,1.732-2.137,2.927-4.274,2.927-0.674,0-1.137-.193-1.137-0.847a0.848,0.848,0,0,1,.809-0.732c0.77,0,.693.732,1.886,0.732C70,18.848,72,17.076,72,13.264c0-1.232-.424-6.007-1.387-5.969-1.039.039-.847,2.2-1.155,2.2-0.27,0-.27-0.135-0.27-0.424,0-.732.789-3.042,2.156-3.042,1.714,0,1.945,6.181,1.945,6.662a3.556,3.556,0,0,0,0,.944,7.64,7.64,0,0,0,.886-1.965A25.5,25.5,0,0,0,75.33,6.37Z" transform="translate(-0.198 -0.305)"/><path class="a" d="M84.553,14.727c-1.675,0-2.195-1.81-2.195-2.927,0-2.658,1.694-5.854,3.967-5.854,1.54,0,2.329,1.156,2.329,2.927C88.654,11.434,87.018,14.727,84.553,14.727Zm1.829-8.28c-1.252,0-2.773,3.948-2.773,5.738,0,0.712-.038,2.041,1.04,2.041,1,0,2.753-3.774,2.753-5.738C87.4,7.063,87.172,6.447,86.383,6.447Z" transform="translate(-0.198 -0.305)"/><path class="a" d="M89.964,7.16c-0.116,0-.173-0.039-0.173-0.077a0.651,0.651,0,0,1,.193-0.5c1.925-.154,1.983-0.154,2.1-0.482a24.286,24.286,0,0,1,.944-2.908A4.866,4.866,0,0,1,97.357.305c0.558,0,1.637.289,1.637,1a0.843,0.843,0,0,1-.867.982c-1.27,0-.789-1.348-1.771-1.348-0.4,0-1.656,0-2.5,4.159-0.1.482-.289,1.078-0.289,1.232,0,0.1.077,0.1,0.134,0.1H95.76c0.115,0,.154,0,0.154.116a1.085,1.085,0,0,1-.212.616H93.6c-0.211,0-.289.134-0.346,0.4-1.906,8.665-2.387,10.147-3.639,11.206a3.572,3.572,0,0,1-2.234.925,0.979,0.979,0,0,1-1.213-.847,0.737,0.737,0,0,1,.732-0.694c0.713,0,1.155.694,1.655,0.694,0.347,0,.77-0.327,1.175-2.157,1.483-6.681,2.079-9.127,2.079-9.339a0.19,0.19,0,0,0-.173-0.192H89.964Z" transform="translate(-0.198 -0.305)"/><path class="a" d="M102.21,13.148c0,0.732.327,0.789,1.27,0.866a0.437,0.437,0,0,1,.385.116c0,0.154-.019.4-0.211,0.4-0.174,0-.366-0.039-2.658-0.039-1.136,0-1.29.039-1.521,0.039-0.1,0-.1-0.077-0.1-0.173a0.279,0.279,0,0,1,.193-0.308,3.3,3.3,0,0,0,1.1-.231c0.424-.173.925-1.02,1.31-2.484,0.751-2.754,2.195-7.3,2.465-8.241,0.038-.135.308-0.944,0.308-1.059a0.6,0.6,0,0,0-.577-0.52l-1.483-.289A0.2,0.2,0,0,1,102.5.979a0.192,0.192,0,0,1,.212-0.212c0.231,0,1.406.077,2,.077,0.289,0,1.637-.077,1.926-0.077a0.261,0.261,0,0,1,.27.192c0.732,3.928,1.136,8.068,1.29,9.435,0.1,0.9.153,1,.231,1a0.505,0.505,0,0,0,.27-0.231C110.1,9.2,114.36,2.616,115.573,1.056a0.534,0.534,0,0,1,.385-0.289c0.115,0,1.252.077,1.521,0.077,0.232,0,1.232-.077,1.791-0.077,0.116,0,.116.058,0.116,0.212,0,0.192-.038.308-0.192,0.327a8.055,8.055,0,0,0-1.156.192,1.634,1.634,0,0,0-.77,1.367c-1.213,5.988-2.157,9.609-2.157,10.34a0.658,0.658,0,0,0,.732.713l0.963,0.115c0.1,0.019.154,0.019,0.154,0.192a0.35,0.35,0,0,1-.212.308c-0.231,0-.346-0.039-1.771-0.039-2.6,0-3.1.039-3.427,0.039-0.174,0-.212-0.077-0.212-0.173,0-.232.038-0.27,0.4-0.327l0.886-.135a0.654,0.654,0,0,0,.558-0.5c0.9-3.369,1.791-8.221,2.541-10.8a4.6,4.6,0,0,0,.115-0.636,0.082,0.082,0,0,0-.1-0.1,6,6,0,0,0-.712.847c-2.85,4.043-5.834,8.78-7.548,11.553a0.786,0.786,0,0,1-.4.423c-0.058,0-.154-0.038-0.231-0.732-0.52-5.507-1.232-10.667-1.406-11.168a0.166,0.166,0,0,0-.154-0.154c-0.1,0-.154.077-0.828,2.157C102.575,10.607,102.21,12.859,102.21,13.148Z" transform="translate(-0.198 -0.305)"/><path class="a" d="M119.289,8.373a0.224,0.224,0,0,1-.135-0.212c0-.193,1.7-2.291,3.139-2.291a0.556,0.556,0,0,1,.6.558c0,0.808-2.446,6.489-2.446,6.817,0,0.134.039,0.231,0.135,0.231,0.462,0,1.791-1.387,1.886-1.387a0.169,0.169,0,0,1,.212.192c0,0.1-2.041,2.542-3.389,2.446a0.6,0.6,0,0,1-.558-0.77c0-.539,2.541-6.566,2.541-6.662,0-.058,0-0.289-0.154-0.289-0.5,0-1.213.847-1.675,1.271A0.368,0.368,0,0,1,119.289,8.373Zm3.5-7.163a0.912,0.912,0,0,1,.925.924,0.924,0.924,0,1,1-1.849,0A0.912,0.912,0,0,1,122.793,1.21Z" transform="translate(-0.198 -0.305)"/><path class="a" d="M123.7,12.821c0.982,0,.828,1.271,1.81,1.271a1.264,1.264,0,0,0,1.059-1.232,7.845,7.845,0,0,0-.886-2.427,5.1,5.1,0,0,1-.751-2.137,2.569,2.569,0,0,1,2.792-2.349c0.9,0,1.868.289,1.868,1.175a0.808,0.808,0,0,1-.828.732c-0.886,0-.809-1.348-1.714-1.348a0.936,0.936,0,0,0-1,.944,6.558,6.558,0,0,0,.847,2.157,5.972,5.972,0,0,1,.867,2.541c0,1.483-1.945,2.58-3.274,2.58a1.3,1.3,0,0,1-1.482-1.194A0.764,0.764,0,0,1,123.7,12.821Z" transform="translate(-0.198 -0.305)"/><path class="a" d="M129.4,12.821c0.982,0,.828,1.271,1.81,1.271a1.263,1.263,0,0,0,1.059-1.232,7.845,7.845,0,0,0-.886-2.427A5.106,5.106,0,0,1,130.63,8.3a2.569,2.569,0,0,1,2.792-2.349c0.9,0,1.867.289,1.867,1.175a0.807,0.807,0,0,1-.828.732c-0.886,0-.808-1.348-1.713-1.348a0.936,0.936,0,0,0-1,.944,6.558,6.558,0,0,0,.847,2.157,5.97,5.97,0,0,1,.866,2.541c0,1.483-1.944,2.58-3.273,2.58a1.3,1.3,0,0,1-1.483-1.194A0.765,0.765,0,0,1,129.4,12.821Z" transform="translate(-0.198 -0.305)"/><path class="a" d="M137.658,14.727c-1.675,0-2.195-1.81-2.195-2.927,0-2.658,1.694-5.854,3.967-5.854,1.54,0,2.329,1.156,2.329,2.927C141.759,11.434,140.123,14.727,137.658,14.727Zm1.829-8.28c-1.252,0-2.773,3.948-2.773,5.738,0,0.712-.038,2.041,1.04,2.041,1,0,2.753-3.774,2.753-5.738C140.508,7.063,140.277,6.447,139.487,6.447Z" transform="translate(-0.198 -0.305)"/><path class="a" d="M148,14.5a0.2,0.2,0,0,1-.25-0.192c0-.347,1.078-3.486,1.078-3.7a0.1,0.1,0,0,0-.058-0.115,32.458,32.458,0,0,1-2.946,3.581,2.6,2.6,0,0,1-1.753.655c-0.462,0-.808-0.308-0.808-1.156s2.522-6.431,2.522-7.085a0.231,0.231,0,0,0-.231-0.212A3.7,3.7,0,0,0,143.2,8.912c-0.019.077-.077,0.077-0.173,0.077a0.192,0.192,0,0,1-.154-0.231,4.232,4.232,0,0,1,1.6-2.465,4.6,4.6,0,0,1,2.7-.578,0.322,0.322,0,0,1,.346.327c0,0.366-2.753,6.412-2.753,7.3a0.38,0.38,0,0,0,.365.385c0.655,0,1.329-.635,2.792-2.7a10.4,10.4,0,0,0,1.348-2.214c0.886-2.407.847-2.946,1.136-2.946h1.137a0.227,0.227,0,0,1,.25.134c0,0.327-2.426,6.99-2.426,7.414a0.221,0.221,0,0,0,.154.25c0.885,0,2.079-2.214,2.156-2.214,0.116,0,.27.019,0.27,0.153,0,0.385-1.541,2.889-3.177,2.889H148Z" transform="translate(-0.198 -0.305)"/><path class="a" d="M153.081,14.5a0.128,0.128,0,0,1-.135-0.116c0-.366,2.619-7.586,2.619-7.7,0-.134-0.1-0.231-0.385-0.231-1.117,0-1.926,2.658-2.137,2.658-0.154,0-.212-0.039-0.212-0.135a2.868,2.868,0,0,1,2.85-3.023h0.982c0.212,0,.327.077,0.327,0.154,0,0.154-1.56,4.583-1.56,4.756a0.131,0.131,0,0,0,.1.135,4.476,4.476,0,0,0,.866-1.386c1.522-2.619,2.388-3.736,3.525-3.736a0.972,0.972,0,0,1,1.02.982,1,1,0,0,1-1,.982c-0.944,0-.886-0.616-1.348-0.616a2.181,2.181,0,0,0-.828.847,32.081,32.081,0,0,0-3.389,6.239,0.239,0.239,0,0,1-.231.192h-1.059Z" transform="translate(-0.198 -0.305)"/><path class="a" d="M161.361,8.373a0.224,0.224,0,0,1-.135-0.212c0-.193,1.694-2.291,3.139-2.291a0.555,0.555,0,0,1,.6.558c0,0.808-2.444,6.489-2.444,6.817,0,0.134.038,0.231,0.135,0.231,0.462,0,1.79-1.387,1.887-1.387a0.169,0.169,0,0,1,.211.192c0,0.1-2.041,2.542-3.388,2.446a0.6,0.6,0,0,1-.558-0.77c0-.539,2.541-6.566,2.541-6.662,0-.058,0-0.289-0.153-0.289-0.5,0-1.213.847-1.675,1.271A0.368,0.368,0,0,1,161.361,8.373Zm3.5-7.163a0.912,0.912,0,0,1,.924.924,0.924,0.924,0,1,1-1.848,0A0.912,0.912,0,0,1,164.865,1.21Z" transform="translate(-0.198 -0.305)"/><path class="a" d="M182.117,6.986c0.289,0,.289-0.039.366-0.366A45.958,45.958,0,0,0,183.6,1.942c0-.212,0-0.616-1.27-0.616-0.463,0-.482-0.173-0.482-0.27a0.254,0.254,0,0,1,.231-0.289c0.231,0,.751.077,2.484,0.077a23.394,23.394,0,0,0,2.407-.077c0.173,0,.211,0,0.211.115,0,0.231-.02.443-0.732,0.443a1.022,1.022,0,0,0-1.1,1.02c-2.407,9.416-2.618,10.494-2.618,11.033,0,0.482.4,0.655,1.617,0.655,0.173,0,.193.058,0.193,0.135,0,0.193-.038.366-0.27,0.366-0.134,0-.269-0.039-2.194-0.039-2.465,0-2.811.039-2.966,0.039a0.149,0.149,0,0,1-.153-0.173,0.285,0.285,0,0,1,.173-0.327c1.425,0,1.579-.251,1.849-1.348,1.059-4.352,1.232-4.853,1.232-4.91,0-.154-0.193-0.154-0.386-0.154h-6.084a0.3,0.3,0,0,0-.346.289c-1.021,4.448-1.194,5.276-1.194,5.469,0,0.385.269,0.655,1.656,0.655,0.115,0,.193.038,0.193,0.25s-0.04.251-.27,0.251c-0.173,0-.539-0.039-2.734-0.039-1.752,0-2.138.039-2.407,0.039-0.155,0-.193-0.02-0.193-0.154,0-.289.058-0.308,0.462-0.346,1.117-.1,1.232-0.1,1.5-1.213,2.1-8.433,2.6-10.032,2.6-10.84,0-.539-0.346-0.655-1.308-0.655-0.348,0-.406-0.1-0.406-0.231a0.357,0.357,0,0,1,.193-0.327c0.366,0,1.6.077,2.6,0.077s2.1-.077,2.369-0.077c0.115,0,.153.019,0.153,0.289a0.218,0.218,0,0,1-.269.27,1.231,1.231,0,0,0-1.483.886c-0.193.674-1.175,4.274-1.175,4.621,0,0.154.134,0.154,0.269,0.154h6.162Z" transform="translate(-0.198 -0.305)"/><path class="a" d="M192.708,7.352c0,0.925-.808,2.427-4.429,3.12a10.529,10.529,0,0,0-.231,1.579c0,0.809.289,1.618,1.232,1.618,1.059,0,1.965-1.463,2.1-1.463a0.226,0.226,0,0,1,.231.251c0,0.153-1.5,2.272-3.139,2.272-1.463,0-1.848-1.175-1.848-2.426,0-3.639,2.367-6.277,4.486-6.277A1.348,1.348,0,0,1,192.708,7.352Zm-1.31-.019a0.718,0.718,0,0,0-.615-0.808c-1.041,0-1.887,1.424-2.446,3.466C190.744,9.7,191.4,8.027,191.4,7.333Z" transform="translate(-0.198 -0.305)"/><path class="a" d="M201.45,5.715a0.094,0.094,0,0,1,.116.116c0,0.424-2.715,6.7-2.715,7.356a0.208,0.208,0,0,0,.193.25c0.558,0,1.887-2.06,2.118-2.06a0.186,0.186,0,0,1,.173.154c0,0.154-2.176,3.2-3.524,3.2a0.5,0.5,0,0,1-.6-0.443,30.578,30.578,0,0,1,1.213-3.408,0.076,0.076,0,0,0-.076-0.1,4.232,4.232,0,0,0-.77,1.039c-0.982,1.31-2.329,2.908-3.755,2.908a0.763,0.763,0,0,1-.77-0.963c0-1.5,1.81-5.2,3.544-6.817a3.065,3.065,0,0,1,2.349-1,1.039,1.039,0,0,1,.866.27,1.254,1.254,0,0,0,.231.27c0.153,0,.251-0.77.482-0.77h0.924Zm-2.041,1.425c0-.4-0.115-0.694-0.79-0.694-1.945,0-3.908,5.3-3.908,6.72,0,0.308.116,0.482,0.289,0.482C196.308,13.649,199.409,8.758,199.409,7.141Z" transform="translate(-0.198 -0.305)"/><path class="a" d="M206.071,1.98c0-.5-0.269-0.52-0.655-0.52-0.308,0-.6,0-0.6-0.289,0-.231.231-0.289,0.6-0.327,1.175-.115,2.022-0.27,2.156-0.27,0.115,0,.29,0,0.29.174,0,0.751-3.774,11.437-3.774,11.861a0.287,0.287,0,0,0,.327.327c0.424,0,1.83-1.81,2.06-1.81,0.1,0,.173.077,0.173,0.25s-2.58,3.35-3.832,3.35a0.606,0.606,0,0,1-.653-0.655C202.163,13.533,206.071,2.173,206.071,1.98Z" transform="translate(-0.198 -0.305)"/><path class="a" d="M208,7.236c-0.173,0-.231-0.038-0.231-0.134a0.9,0.9,0,0,1,.462-0.674h1.541a0.317,0.317,0,0,0,.211-0.039,15.456,15.456,0,0,0,.675-1.983,0.219,0.219,0,0,1,.231-0.135h0.886a0.141,0.141,0,0,1,.173.174c0,0.1-.52,1.617-0.52,1.829a0.163,0.163,0,0,0,.193.154h1.655c0.135,0,.193.039,0.193,0.231a0.873,0.873,0,0,1-.384.635c-0.328,0-.637-0.019-0.925-0.038-0.289,0-.577-0.02-0.866-0.02a0.846,0.846,0,0,0-.384.694c-0.155.539-1.656,5.622-1.656,5.68a0.272,0.272,0,0,0,.269.327c0.77,0,2.542-1.83,2.638-1.83a0.147,0.147,0,0,1,.173.154,5.61,5.61,0,0,1-3.986,2.465,0.611,0.611,0,0,1-.635-0.713c0-.269,1.945-6.412,1.945-6.643,0-.1-0.1-0.135-0.289-0.135H208Z" transform="translate(-0.198 -0.305)"/><path class="a" d="M213.618,14.5a0.245,0.245,0,0,1-.249-0.289c0-.193,3.715-12.092,3.715-12.227,0-.5-0.269-0.52-0.655-0.52-0.307,0-.6,0-0.6-0.289,0-.231.231-0.289,0.6-0.327,1.175-.115,2.022-0.27,2.158-0.27,0.115,0,.289,0,0.289.174,0,0.231-2.389,8.164-2.389,8.279a0.068,0.068,0,0,0,.058.077,0.384,0.384,0,0,0,.173-0.212c1.618-2.234,3.062-2.869,3.812-2.869a1.179,1.179,0,0,1,1.272,1.29c0,2.56-2.407,7.413-4.563,7.413a0.7,0.7,0,0,1-.81-0.77,0.926,0.926,0,0,1,.81-0.943c0.653,0,.462.712,0.962,0.712,0.982,0,2.08-4.525,2.08-5.41a0.922,0.922,0,0,0-.848-1.137c-0.558,0-1.694.867-3,2.831-0.846,1.271-.886,2.1-1.637,4.217a0.287,0.287,0,0,1-.231.27h-0.944Z" transform="translate(-0.198 -0.305)"/><path class="b" d="M1.68,23.366a7.99,7.99,0,0,0,.27-1.54c0-.27-0.173-0.52-1.444-0.558-0.25,0-.25-0.077-0.25-0.27,0-.173.077-0.231,0.154-0.231,0.192,0,1.752.077,2.406,0.077,1.156,0,2.272-.077,2.619-0.077,0.115,0,.135.154,0.135,0.289a0.258,0.258,0,0,1-.212.27,2.616,2.616,0,0,0-1.232.231,4.459,4.459,0,0,0-.655,1.925c-0.944,4.082-1.444,6.2-1.444,7.433,0,2.657,2.311,2.889,3.177,2.889,1.906,0,4.024-1.059,4.968-4.6,1.29-4.852,1.444-5.95,1.444-6.778a0.959,0.959,0,0,0-1-1,5.227,5.227,0,0,0-.9-0.135,0.29,0.29,0,0,1-.116-0.231,0.283,0.283,0,0,1,.251-0.289c0.212,0,1.5.077,1.867,0.077,0.636,0,2.388-.077,2.753-0.077,0.077,0,.135.1,0.135,0.25a0.269,0.269,0,0,1-.173.212l-0.674.1a1.742,1.742,0,0,0-1.368,1.482C11.75,24.868,11,29.47,9.979,31.531c-1.1,2.215-2.811,3.12-5.372,3.12C2.162,34.65.2,33.437,0.2,30.933,0.2,29.451.948,26.986,1.68,23.366Z" transform="translate(-0.198 -0.305)"/><path class="b" d="M17.989,34.5c-0.115,0-.135-0.039-0.135-0.154,0-.712,2.541-6.162,2.541-7.163a0.507,0.507,0,0,0-.5-0.558c-1.27,0-2.214,2.138-4.062,5.3-0.1.173-.327,0.751-1.04,2.407a0.208,0.208,0,0,1-.211.173H13.445a0.127,0.127,0,0,1-.153-0.154c0-.308,2.618-6.97,2.618-7.528a0.186,0.186,0,0,0-.153-0.231c-1.483,0-2.311,1.925-2.311,2.329a0.181,0.181,0,0,1-.173.1,0.161,0.161,0,0,1-.173-0.173c0-.462.635-2.811,2.715-2.811h1.425a0.159,0.159,0,0,1,.192.173c0,0.231-1.424,3.716-1.424,4.332,0,0.1,0,.135.058,0.135,0.115,0,.134-0.1.52-0.79,2.079-3.755,2.658-4,3.755-4,0.539,0,1.541.077,1.541,0.963,0,1.579-2.349,6.007-2.349,6.759a0.229,0.229,0,0,0,.192.154c0.906,0,1.945-2.022,2.157-2.022a0.254,0.254,0,0,1,.192.173c0,0.25-1.5,2.6-3.081,2.6h-1Z" transform="translate(-0.198 -0.305)"/><path class="b" d="M23.881,28.373a0.224,0.224,0,0,1-.135-0.212c0-.193,1.7-2.291,3.139-2.291a0.556,0.556,0,0,1,.6.558c0,0.808-2.446,6.489-2.446,6.817,0,0.134.039,0.231,0.135,0.231,0.462,0,1.791-1.387,1.886-1.387a0.169,0.169,0,0,1,.212.192c0,0.1-2.041,2.542-3.389,2.446a0.6,0.6,0,0,1-.558-0.77c0-.539,2.541-6.566,2.541-6.662,0-.058,0-0.289-0.154-0.289-0.5,0-1.213.847-1.675,1.271A0.367,0.367,0,0,1,23.881,28.373Zm3.5-7.163a0.924,0.924,0,1,1-.924.924A0.912,0.912,0,0,1,27.385,21.21Z" transform="translate(-0.198 -0.305)"/><path class="b" d="M32.334,25.946a1.522,1.522,0,0,0,.269-0.038,1.9,1.9,0,0,1,.366-0.039,0.224,0.224,0,0,1,.212.212c0,0.9-2.176,3.139-2.176,5.642,0,0.808.308,1.848,1.309,1.848,2.079,0,3.639-3.639,3.639-5.391,0-.77-0.924-0.77-0.924-1.463a0.92,0.92,0,0,1,.866-1c0.828,0,.982.558,0.982,1.31,0,1.81-1.984,7.7-5.45,7.7a1.813,1.813,0,0,1-1.771-2.079c0-2.215,2.541-5.2,2.541-5.411,0-.1,0-0.134-0.346-0.134H29.812c-0.5,0-.79.789-0.925,1.232a0.19,0.19,0,0,1-.231.173,0.232,0.232,0,0,1-.212-0.154c0-.231.635-2.407,0.944-2.407h2.946Z" transform="translate(-0.198 -0.305)"/><path class="b" d="M43.945,27.352c0,0.925-.809,2.427-4.429,3.12a10.342,10.342,0,0,0-.232,1.579c0,0.809.289,1.618,1.232,1.618,1.059,0,1.964-1.463,2.1-1.463a0.226,0.226,0,0,1,.231.251c0,0.153-1.5,2.272-3.138,2.272-1.463,0-1.849-1.175-1.849-2.426,0-3.639,2.368-6.277,4.486-6.277A1.348,1.348,0,0,1,43.945,27.352Zm-1.31-.019a0.718,0.718,0,0,0-.616-0.808c-1.039,0-1.886,1.424-2.445,3.466C41.981,29.7,42.635,28.027,42.635,27.333Z" transform="translate(-0.198 -0.305)"/><path class="b" d="M44.946,34.5a0.128,0.128,0,0,1-.134-0.116c0-.366,2.619-7.586,2.619-7.7,0-.134-0.1-0.231-0.385-0.231-1.117,0-1.926,2.658-2.137,2.658-0.154,0-.212-0.039-0.212-0.135a2.868,2.868,0,0,1,2.85-3.023h0.982c0.212,0,.327.077,0.327,0.154,0,0.154-1.56,4.583-1.56,4.756a0.131,0.131,0,0,0,.1.135,4.477,4.477,0,0,0,.866-1.386c1.522-2.619,2.388-3.736,3.524-3.736a0.972,0.972,0,0,1,1.021.982,1,1,0,0,1-1,.982c-0.944,0-.886-0.616-1.348-0.616a2.181,2.181,0,0,0-.828.847A32.077,32.077,0,0,0,46.236,34.3,0.239,0.239,0,0,1,46,34.5H44.946Z" transform="translate(-0.198 -0.305)"/><path class="b" d="M52.051,32.821c0.982,0,.828,1.271,1.811,1.271a1.264,1.264,0,0,0,1.059-1.232,7.845,7.845,0,0,0-.886-2.427,5.1,5.1,0,0,1-.751-2.137,2.569,2.569,0,0,1,2.792-2.349c0.9,0,1.868.289,1.868,1.175a0.808,0.808,0,0,1-.828.732c-0.886,0-.809-1.348-1.714-1.348a0.936,0.936,0,0,0-1,.944,6.558,6.558,0,0,0,.847,2.157,5.971,5.971,0,0,1,.867,2.541c0,1.483-1.945,2.58-3.274,2.58a1.3,1.3,0,0,1-1.482-1.194A0.764,0.764,0,0,1,52.051,32.821Z" transform="translate(-0.198 -0.305)"/><path class="b" d="M58.694,28.373a0.224,0.224,0,0,1-.135-0.212c0-.193,1.7-2.291,3.138-2.291a0.556,0.556,0,0,1,.6.558c0,0.808-2.446,6.489-2.446,6.817,0,0.134.039,0.231,0.135,0.231,0.462,0,1.791-1.387,1.886-1.387a0.169,0.169,0,0,1,.212.192c0,0.1-2.041,2.542-3.389,2.446a0.6,0.6,0,0,1-.558-0.77c0-.539,2.541-6.566,2.541-6.662,0-.058,0-0.289-0.154-0.289-0.5,0-1.213.847-1.675,1.271A0.367,0.367,0,0,1,58.694,28.373Zm3.5-7.163a0.924,0.924,0,1,1-.924.924A0.912,0.912,0,0,1,62.2,21.21Z" transform="translate(-0.198 -0.305)"/><path class="b" d="M63.989,27.236c-0.173,0-.231-0.038-0.231-0.134a0.9,0.9,0,0,1,.462-0.674h1.541a0.319,0.319,0,0,0,.212-0.039,15.652,15.652,0,0,0,.674-1.983,0.218,0.218,0,0,1,.231-0.135h0.886a0.141,0.141,0,0,1,.173.174c0,0.1-.52,1.617-0.52,1.829a0.163,0.163,0,0,0,.193.154h1.655c0.135,0,.193.039,0.193,0.231a0.872,0.872,0,0,1-.385.635c-0.327,0-.635-0.019-0.925-0.038-0.289,0-.577-0.02-0.866-0.02a0.848,0.848,0,0,0-.385.694c-0.154.539-1.656,5.622-1.656,5.68a0.272,0.272,0,0,0,.269.327c0.77,0,2.542-1.83,2.638-1.83a0.148,0.148,0,0,1,.174.154,5.61,5.61,0,0,1-3.986,2.465,0.611,0.611,0,0,1-.635-0.713c0-.269,1.945-6.412,1.945-6.643,0-.1-0.1-0.135-0.289-0.135H63.989Z" transform="translate(-0.198 -0.305)"/><path class="b" d="M75.33,26.37a0.329,0.329,0,0,1,.327-0.346,0.858,0.858,0,0,1,.925.6c0,0.789-2.349,6.932-4.525,10.148-1.175,1.732-2.137,2.927-4.274,2.927-0.674,0-1.137-.193-1.137-0.847a0.848,0.848,0,0,1,.809-0.732c0.77,0,.693.732,1.886,0.732C70,38.848,72,37.076,72,33.264c0-1.232-.424-6.007-1.387-5.969-1.039.039-.847,2.2-1.155,2.2-0.27,0-.27-0.135-0.27-0.424,0-.732.789-3.042,2.156-3.042,1.714,0,1.945,6.181,1.945,6.662a3.556,3.556,0,0,0,0,.944,7.64,7.64,0,0,0,.886-1.965A25.5,25.5,0,0,0,75.33,26.37Z" transform="translate(-0.198 -0.305)"/><path class="b" d="M84.553,34.727c-1.675,0-2.195-1.81-2.195-2.927,0-2.658,1.694-5.854,3.967-5.854,1.54,0,2.329,1.156,2.329,2.927C88.654,31.434,87.018,34.727,84.553,34.727Zm1.829-8.28c-1.252,0-2.773,3.948-2.773,5.738,0,0.712-.038,2.041,1.04,2.041,1,0,2.753-3.774,2.753-5.738C87.4,27.063,87.172,26.447,86.383,26.447Z" transform="translate(-0.198 -0.305)"/><path class="b" d="M89.964,27.16c-0.116,0-.173-0.039-0.173-0.077a0.651,0.651,0,0,1,.193-0.5c1.925-.154,1.983-0.154,2.1-0.482a24.286,24.286,0,0,1,.944-2.908,4.866,4.866,0,0,1,4.332-2.888c0.558,0,1.637.289,1.637,1a0.843,0.843,0,0,1-.867.982c-1.27,0-.789-1.348-1.771-1.348-0.4,0-1.656,0-2.5,4.159-0.1.482-.289,1.078-0.289,1.232,0,0.1.077,0.1,0.134,0.1H95.76c0.115,0,.154,0,0.154.116a1.085,1.085,0,0,1-.212.616H93.6c-0.211,0-.289.134-0.346,0.4-1.906,8.665-2.387,10.147-3.639,11.206a3.572,3.572,0,0,1-2.234.925,0.979,0.979,0,0,1-1.213-.847,0.737,0.737,0,0,1,.732-0.694c0.713,0,1.155.694,1.655,0.694,0.347,0,.77-0.327,1.175-2.157,1.483-6.681,2.079-9.127,2.079-9.339a0.19,0.19,0,0,0-.173-0.192H89.964Z" transform="translate(-0.198 -0.305)"/><path class="b" d="M102.21,33.148c0,0.732.327,0.789,1.27,0.866a0.437,0.437,0,0,1,.385.116c0,0.154-.019.4-0.211,0.4-0.174,0-.366-0.039-2.658-0.039-1.136,0-1.29.039-1.521,0.039-0.1,0-.1-0.077-0.1-0.173a0.279,0.279,0,0,1,.193-0.308,3.3,3.3,0,0,0,1.1-.231c0.424-.173.925-1.02,1.31-2.484,0.751-2.754,2.195-7.3,2.465-8.241,0.038-.135.308-0.944,0.308-1.059a0.6,0.6,0,0,0-.577-0.52l-1.483-.289a0.2,0.2,0,0,1-.192-0.25,0.192,0.192,0,0,1,.212-0.212c0.231,0,1.406.077,2,.077,0.289,0,1.637-.077,1.926-0.077a0.261,0.261,0,0,1,.27.192c0.732,3.928,1.136,8.068,1.29,9.435,0.1,0.9.153,1,.231,1a0.505,0.505,0,0,0,.27-0.231c1.406-1.965,5.661-8.549,6.874-10.109a0.534,0.534,0,0,1,.385-0.289c0.115,0,1.252.077,1.521,0.077,0.232,0,1.232-.077,1.791-0.077,0.116,0,.116.058,0.116,0.212,0,0.192-.038.308-0.192,0.327a8.055,8.055,0,0,0-1.156.192,1.634,1.634,0,0,0-.77,1.367c-1.213,5.988-2.157,9.609-2.157,10.34a0.658,0.658,0,0,0,.732.713l0.963,0.115c0.1,0.019.154,0.019,0.154,0.192a0.35,0.35,0,0,1-.212.308c-0.231,0-.346-0.039-1.771-0.039-2.6,0-3.1.039-3.427,0.039-0.174,0-.212-0.077-0.212-0.173,0-.232.038-0.27,0.4-0.327l0.886-.135a0.654,0.654,0,0,0,.558-0.5c0.9-3.369,1.791-8.221,2.541-10.8a4.6,4.6,0,0,0,.115-0.636,0.082,0.082,0,0,0-.1-0.1,6,6,0,0,0-.712.847c-2.85,4.043-5.834,8.78-7.548,11.553a0.786,0.786,0,0,1-.4.423c-0.058,0-.154-0.038-0.231-0.732-0.52-5.507-1.232-10.667-1.406-11.168a0.166,0.166,0,0,0-.154-0.154c-0.1,0-.154.077-0.828,2.157C102.575,30.607,102.21,32.859,102.21,33.148Z" transform="translate(-0.198 -0.305)"/><path class="b" d="M119.289,28.373a0.224,0.224,0,0,1-.135-0.212c0-.193,1.7-2.291,3.139-2.291a0.556,0.556,0,0,1,.6.558c0,0.808-2.446,6.489-2.446,6.817,0,0.134.039,0.231,0.135,0.231,0.462,0,1.791-1.387,1.886-1.387a0.169,0.169,0,0,1,.212.192c0,0.1-2.041,2.542-3.389,2.446a0.6,0.6,0,0,1-.558-0.77c0-.539,2.541-6.566,2.541-6.662,0-.058,0-0.289-0.154-0.289-0.5,0-1.213.847-1.675,1.271A0.368,0.368,0,0,1,119.289,28.373Zm3.5-7.163a0.924,0.924,0,1,1-.924.924A0.912,0.912,0,0,1,122.793,21.21Z" transform="translate(-0.198 -0.305)"/><path class="b" d="M123.7,32.821c0.982,0,.828,1.271,1.81,1.271a1.264,1.264,0,0,0,1.059-1.232,7.845,7.845,0,0,0-.886-2.427,5.1,5.1,0,0,1-.751-2.137,2.569,2.569,0,0,1,2.792-2.349c0.9,0,1.868.289,1.868,1.175a0.808,0.808,0,0,1-.828.732c-0.886,0-.809-1.348-1.714-1.348a0.936,0.936,0,0,0-1,.944,6.558,6.558,0,0,0,.847,2.157,5.972,5.972,0,0,1,.867,2.541c0,1.483-1.945,2.58-3.274,2.58a1.3,1.3,0,0,1-1.482-1.194A0.764,0.764,0,0,1,123.7,32.821Z" transform="translate(-0.198 -0.305)"/><path class="b" d="M129.4,32.821c0.982,0,.828,1.271,1.81,1.271a1.263,1.263,0,0,0,1.059-1.232,7.845,7.845,0,0,0-.886-2.427,5.106,5.106,0,0,1-.751-2.137,2.569,2.569,0,0,1,2.792-2.349c0.9,0,1.867.289,1.867,1.175a0.807,0.807,0,0,1-.828.732c-0.886,0-.808-1.348-1.713-1.348a0.936,0.936,0,0,0-1,.944,6.558,6.558,0,0,0,.847,2.157,5.97,5.97,0,0,1,.866,2.541c0,1.483-1.944,2.58-3.273,2.58a1.3,1.3,0,0,1-1.483-1.194A0.765,0.765,0,0,1,129.4,32.821Z" transform="translate(-0.198 -0.305)"/><path class="b" d="M137.658,34.727c-1.675,0-2.195-1.81-2.195-2.927,0-2.658,1.694-5.854,3.967-5.854,1.54,0,2.329,1.156,2.329,2.927C141.759,31.434,140.123,34.727,137.658,34.727Zm1.829-8.28c-1.252,0-2.773,3.948-2.773,5.738,0,0.712-.038,2.041,1.04,2.041,1,0,2.753-3.774,2.753-5.738C140.508,27.063,140.277,26.447,139.487,26.447Z" transform="translate(-0.198 -0.305)"/><path class="b" d="M148,34.5a0.2,0.2,0,0,1-.25-0.192c0-.347,1.078-3.486,1.078-3.7a0.1,0.1,0,0,0-.058-0.115,32.458,32.458,0,0,1-2.946,3.581,2.6,2.6,0,0,1-1.753.655c-0.462,0-.808-0.308-0.808-1.156s2.522-6.431,2.522-7.085a0.231,0.231,0,0,0-.231-0.212,3.7,3.7,0,0,0-2.349,2.638c-0.019.077-.077,0.077-0.173,0.077a0.192,0.192,0,0,1-.154-0.231,4.232,4.232,0,0,1,1.6-2.465,4.6,4.6,0,0,1,2.7-.578,0.322,0.322,0,0,1,.346.327c0,0.366-2.753,6.412-2.753,7.3a0.38,0.38,0,0,0,.365.385c0.655,0,1.329-.635,2.792-2.7a10.4,10.4,0,0,0,1.348-2.214c0.886-2.407.847-2.946,1.136-2.946h1.137a0.227,0.227,0,0,1,.25.134c0,0.327-2.426,6.99-2.426,7.414a0.221,0.221,0,0,0,.154.25c0.885,0,2.079-2.214,2.156-2.214,0.116,0,.27.019,0.27,0.153,0,0.385-1.541,2.889-3.177,2.889H148Z" transform="translate(-0.198 -0.305)"/><path class="b" d="M153.081,34.5a0.128,0.128,0,0,1-.135-0.116c0-.366,2.619-7.586,2.619-7.7,0-.134-0.1-0.231-0.385-0.231-1.117,0-1.926,2.658-2.137,2.658-0.154,0-.212-0.039-0.212-0.135a2.868,2.868,0,0,1,2.85-3.023h0.982c0.212,0,.327.077,0.327,0.154,0,0.154-1.56,4.583-1.56,4.756a0.131,0.131,0,0,0,.1.135,4.476,4.476,0,0,0,.866-1.386c1.522-2.619,2.388-3.736,3.525-3.736a0.972,0.972,0,0,1,1.02.982,1,1,0,0,1-1,.982c-0.944,0-.886-0.616-1.348-0.616a2.181,2.181,0,0,0-.828.847,32.081,32.081,0,0,0-3.389,6.239,0.239,0.239,0,0,1-.231.192h-1.059Z" transform="translate(-0.198 -0.305)"/><path class="b" d="M161.361,28.373a0.224,0.224,0,0,1-.135-0.212c0-.193,1.694-2.291,3.139-2.291a0.555,0.555,0,0,1,.6.558c0,0.808-2.444,6.489-2.444,6.817,0,0.134.038,0.231,0.135,0.231,0.462,0,1.79-1.387,1.887-1.387a0.169,0.169,0,0,1,.211.192c0,0.1-2.041,2.542-3.388,2.446a0.6,0.6,0,0,1-.558-0.77c0-.539,2.541-6.566,2.541-6.662,0-.058,0-0.289-0.153-0.289-0.5,0-1.213.847-1.675,1.271A0.368,0.368,0,0,1,161.361,28.373Zm3.5-7.163a0.924,0.924,0,1,1-.924.924A0.912,0.912,0,0,1,164.865,21.21Z" transform="translate(-0.198 -0.305)"/><path class="b" d="M182.117,26.986c0.289,0,.289-0.039.366-0.366a45.958,45.958,0,0,0,1.117-4.679c0-.212,0-0.616-1.27-0.616-0.463,0-.482-0.173-0.482-0.27a0.254,0.254,0,0,1,.231-0.289c0.231,0,.751.077,2.484,0.077a23.394,23.394,0,0,0,2.407-.077c0.173,0,.211,0,0.211.115,0,0.231-.02.443-0.732,0.443a1.022,1.022,0,0,0-1.1,1.02c-2.407,9.416-2.618,10.494-2.618,11.033,0,0.482.4,0.655,1.617,0.655,0.173,0,.193.058,0.193,0.135,0,0.193-.038.366-0.27,0.366-0.134,0-.269-0.039-2.194-0.039-2.465,0-2.811.039-2.966,0.039a0.149,0.149,0,0,1-.153-0.173,0.285,0.285,0,0,1,.173-0.327c1.425,0,1.579-.251,1.849-1.348,1.059-4.352,1.232-4.853,1.232-4.91,0-.154-0.193-0.154-0.386-0.154h-6.084a0.3,0.3,0,0,0-.346.289c-1.021,4.448-1.194,5.276-1.194,5.469,0,0.385.269,0.655,1.656,0.655,0.115,0,.193.038,0.193,0.25s-0.04.251-.27,0.251c-0.173,0-.539-0.039-2.734-0.039-1.752,0-2.138.039-2.407,0.039-0.155,0-.193-0.02-0.193-0.154,0-.289.058-0.308,0.462-0.346,1.117-.1,1.232-0.1,1.5-1.213,2.1-8.433,2.6-10.032,2.6-10.84,0-.539-0.346-0.655-1.308-0.655-0.348,0-.406-0.1-0.406-0.231a0.357,0.357,0,0,1,.193-0.327c0.366,0,1.6.077,2.6,0.077s2.1-.077,2.369-0.077c0.115,0,.153.019,0.153,0.289a0.218,0.218,0,0,1-.269.27,1.231,1.231,0,0,0-1.483.886c-0.193.674-1.175,4.274-1.175,4.621,0,0.154.134,0.154,0.269,0.154h6.162Z" transform="translate(-0.198 -0.305)"/><path class="b" d="M192.708,27.352c0,0.925-.808,2.427-4.429,3.12a10.529,10.529,0,0,0-.231,1.579c0,0.809.289,1.618,1.232,1.618,1.059,0,1.965-1.463,2.1-1.463a0.226,0.226,0,0,1,.231.251c0,0.153-1.5,2.272-3.139,2.272-1.463,0-1.848-1.175-1.848-2.426,0-3.639,2.367-6.277,4.486-6.277A1.348,1.348,0,0,1,192.708,27.352Zm-1.31-.019a0.718,0.718,0,0,0-.615-0.808c-1.041,0-1.887,1.424-2.446,3.466C190.744,29.7,191.4,28.027,191.4,27.333Z" transform="translate(-0.198 -0.305)"/><path class="b" d="M201.45,25.715a0.094,0.094,0,0,1,.116.116c0,0.424-2.715,6.7-2.715,7.356a0.208,0.208,0,0,0,.193.25c0.558,0,1.887-2.06,2.118-2.06a0.186,0.186,0,0,1,.173.154c0,0.154-2.176,3.2-3.524,3.2a0.5,0.5,0,0,1-.6-0.443,30.578,30.578,0,0,1,1.213-3.408,0.076,0.076,0,0,0-.076-0.1,4.232,4.232,0,0,0-.77,1.039c-0.982,1.31-2.329,2.908-3.755,2.908a0.763,0.763,0,0,1-.77-0.963c0-1.5,1.81-5.2,3.544-6.817a3.065,3.065,0,0,1,2.349-1,1.039,1.039,0,0,1,.866.27,1.254,1.254,0,0,0,.231.27c0.153,0,.251-0.77.482-0.77h0.924Zm-2.041,1.425c0-.4-0.115-0.694-0.79-0.694-1.945,0-3.908,5.3-3.908,6.72,0,0.308.116,0.482,0.289,0.482C196.308,33.649,199.409,28.758,199.409,27.141Z" transform="translate(-0.198 -0.305)"/><path class="b" d="M206.071,21.98c0-.5-0.269-0.52-0.655-0.52-0.308,0-.6,0-0.6-0.289,0-.231.231-0.289,0.6-0.327,1.175-.115,2.022-0.27,2.156-0.27,0.115,0,.29,0,0.29.174,0,0.751-3.774,11.437-3.774,11.861a0.287,0.287,0,0,0,.327.327c0.424,0,1.83-1.81,2.06-1.81,0.1,0,.173.077,0.173,0.25s-2.58,3.35-3.832,3.35a0.606,0.606,0,0,1-.653-0.655C202.163,33.533,206.071,22.173,206.071,21.98Z" transform="translate(-0.198 -0.305)"/><path class="b" d="M208,27.236c-0.173,0-.231-0.038-0.231-0.134a0.9,0.9,0,0,1,.462-0.674h1.541a0.317,0.317,0,0,0,.211-0.039,15.456,15.456,0,0,0,.675-1.983,0.219,0.219,0,0,1,.231-0.135h0.886a0.141,0.141,0,0,1,.173.174c0,0.1-.52,1.617-0.52,1.829a0.163,0.163,0,0,0,.193.154h1.655c0.135,0,.193.039,0.193,0.231a0.873,0.873,0,0,1-.384.635c-0.328,0-.637-0.019-0.925-0.038-0.289,0-.577-0.02-0.866-0.02a0.846,0.846,0,0,0-.384.694c-0.155.539-1.656,5.622-1.656,5.68a0.272,0.272,0,0,0,.269.327c0.77,0,2.542-1.83,2.638-1.83a0.147,0.147,0,0,1,.173.154,5.61,5.61,0,0,1-3.986,2.465,0.611,0.611,0,0,1-.635-0.713c0-.269,1.945-6.412,1.945-6.643,0-.1-0.1-0.135-0.289-0.135H208Z" transform="translate(-0.198 -0.305)"/><path class="b" d="M213.618,34.5a0.245,0.245,0,0,1-.249-0.289c0-.193,3.715-12.092,3.715-12.227,0-.5-0.269-0.52-0.655-0.52-0.307,0-.6,0-0.6-0.289,0-.231.231-0.289,0.6-0.327,1.175-.115,2.022-0.27,2.158-0.27,0.115,0,.289,0,0.289.174,0,0.231-2.389,8.164-2.389,8.279a0.068,0.068,0,0,0,.058.077,0.384,0.384,0,0,0,.173-0.212c1.618-2.234,3.062-2.869,3.812-2.869a1.179,1.179,0,0,1,1.272,1.29c0,2.56-2.407,7.413-4.563,7.413a0.7,0.7,0,0,1-.81-0.77,0.926,0.926,0,0,1,.81-0.943c0.653,0,.462.712,0.962,0.712,0.982,0,2.08-4.525,2.08-5.41a0.922,0.922,0,0,0-.848-1.137c-0.558,0-1.694.867-3,2.831-0.846,1.271-.886,2.1-1.637,4.217a0.287,0.287,0,0,1-.231.27h-0.944Z" transform="translate(-0.198 -0.305)"/></svg>