<svg xmlns="http://www.w3.org/2000/svg" width="179.48" height="32.704" viewBox="0 0 179.48 32.704"><defs><style>.a{fill:#231f20;}.b{fill:#900000;}</style></defs><title>health-wordmark-black-small</title><path class="a" d="M1.46,3.627A6.471,6.471,0,0,0,1.679,2.38c0-.218-0.14-0.421-1.17-0.452-0.2,0-.2-0.063-0.2-0.218,0-.14.062-0.187,0.125-0.187,0.156,0,1.419.062,1.949,0.062,0.936,0,1.84-.062,2.121-0.062,0.094,0,.11.125,0.11,0.234a0.209,0.209,0,0,1-.172.218,2.118,2.118,0,0,0-1,.187,3.612,3.612,0,0,0-.53,1.559,37,37,0,0,0-1.17,6.02A2.289,2.289,0,0,0,4.314,12.08c1.544,0,3.259-.858,4.024-3.728,1.045-3.93,1.17-4.819,1.17-5.489A0.776,0.776,0,0,0,8.7,2.053a4.234,4.234,0,0,0-.733-0.11A0.235,0.235,0,0,1,7.87,1.756a0.229,0.229,0,0,1,.2-0.234c0.172,0,1.217.062,1.512,0.062,0.515,0,1.934-.062,2.23-0.062,0.063,0,.11.078,0.11,0.2a0.218,0.218,0,0,1-.14.172l-0.546.078a1.411,1.411,0,0,0-1.108,1.2c-0.514,1.669-1.122,5.4-1.949,7.065a4.332,4.332,0,0,1-4.351,2.527c-1.98,0-3.571-.983-3.571-3.01A49.86,49.86,0,0,1,1.46,3.627Z" transform="translate(-0.26 -1.148)"/><path class="a" d="M14.669,12.641c-0.094,0-.109-0.031-0.109-0.125,0-.577,2.058-4.99,2.058-5.8a0.411,0.411,0,0,0-.405-0.452c-1.029,0-1.793,1.732-3.29,4.289-0.078.14-.265,0.608-0.842,1.949a0.169,0.169,0,0,1-.171.14H10.989a0.1,0.1,0,0,1-.124-0.125c0-.249,2.12-5.645,2.12-6.1a0.151,0.151,0,0,0-.124-0.187c-1.2,0-1.872,1.559-1.872,1.887a0.146,0.146,0,0,1-.14.078,0.13,0.13,0,0,1-.14-0.14c0-.374.514-2.277,2.2-2.277h1.154a0.129,0.129,0,0,1,.156.14c0,0.187-1.154,3.01-1.154,3.509,0,0.078,0,.11.047,0.11a1.081,1.081,0,0,0,.421-0.64c1.684-3.041,2.152-3.243,3.041-3.243,0.437,0,1.248.062,1.248,0.78,0,1.279-1.9,4.865-1.9,5.474a0.185,0.185,0,0,0,.156.125c0.734,0,1.575-1.637,1.747-1.637a0.206,0.206,0,0,1,.156.14c0,0.2-1.217,2.105-2.5,2.105H14.669Z" transform="translate(-0.26 -1.148)"/><path class="a" d="M19.442,7.682a0.182,0.182,0,0,1-.11-0.172c0-.156,1.373-1.856,2.542-1.856a0.45,0.45,0,0,1,.484.452c0,0.655-1.981,5.256-1.981,5.521,0,0.109.031,0.187,0.11,0.187a6.794,6.794,0,0,0,1.528-1.123,0.137,0.137,0,0,1,.172.156c0,0.078-1.653,2.059-2.744,1.981a0.486,0.486,0,0,1-.452-0.624c0-.436,2.058-5.318,2.058-5.4,0-.047,0-0.234-0.125-0.234A3.344,3.344,0,0,0,19.566,7.6,0.3,0.3,0,0,1,19.442,7.682Zm2.838-5.8a0.749,0.749,0,1,1-.748.748A0.739,0.739,0,0,1,22.28,1.881Z" transform="translate(-0.26 -1.148)"/><path class="a" d="M26.288,5.717a1.233,1.233,0,0,0,.218-0.031,1.537,1.537,0,0,1,.3-0.031,0.181,0.181,0,0,1,.172.172c0,0.733-1.762,2.542-1.762,4.57a1.272,1.272,0,0,0,1.06,1.5c1.684,0,2.947-2.947,2.947-4.366,0-.624-0.748-0.624-0.748-1.185a0.745,0.745,0,0,1,.7-0.811c0.671,0,.8.452,0.8,1.061,0,1.466-1.607,6.238-4.414,6.238a1.468,1.468,0,0,1-1.434-1.684c0-1.794,2.058-4.211,2.058-4.382,0-.078,0-0.109-0.281-0.109H24.245a1.227,1.227,0,0,0-.749,1,0.154,0.154,0,0,1-.187.14,0.188,0.188,0,0,1-.172-0.125A4.91,4.91,0,0,1,23.9,5.717h2.386Z" transform="translate(-0.26 -1.148)"/><path class="a" d="M35.691,6.855c0,0.749-.655,1.965-3.587,2.527a8.376,8.376,0,0,0-.188,1.279,1.088,1.088,0,0,0,1,1.31c0.858,0,1.591-1.185,1.7-1.185a0.183,0.183,0,0,1,.187.2c0,0.124-1.216,1.84-2.542,1.84-1.185,0-1.5-.951-1.5-1.965,0-2.947,1.918-5.084,3.634-5.084A1.092,1.092,0,0,1,35.691,6.855ZM34.631,6.84a0.581,0.581,0,0,0-.5-0.655c-0.842,0-1.528,1.154-1.98,2.807A2.493,2.493,0,0,0,34.631,6.84Z" transform="translate(-0.26 -1.148)"/><path class="a" d="M36.5,12.641a0.1,0.1,0,0,1-.109-0.094c0-.3,2.121-6.144,2.121-6.238S38.436,6.122,38.2,6.122c-0.9,0-1.56,2.152-1.731,2.152-0.125,0-.172-0.031-0.172-0.11a2.323,2.323,0,0,1,2.308-2.448h0.8c0.172,0,.265.063,0.265,0.125,0,0.125-1.263,3.712-1.263,3.852a0.106,0.106,0,0,0,.078.109,3.626,3.626,0,0,0,.7-1.122c1.233-2.121,1.934-3.026,2.854-3.026a0.787,0.787,0,0,1,.827.8,0.812,0.812,0,0,1-.811.8c-0.764,0-.717-0.5-1.092-0.5a1.766,1.766,0,0,0-.671.686,25.98,25.98,0,0,0-2.745,5.053,0.194,0.194,0,0,1-.187.156H36.5Z" transform="translate(-0.26 -1.148)"/><path class="a" d="M42.256,11.284c0.8,0,.671,1.029,1.466,1.029a1.024,1.024,0,0,0,.858-1,6.354,6.354,0,0,0-.717-1.965,4.128,4.128,0,0,1-.609-1.731,2.081,2.081,0,0,1,2.261-1.9c0.733,0,1.513.234,1.513,0.951a0.654,0.654,0,0,1-.671.593c-0.717,0-.655-1.092-1.388-1.092a0.758,0.758,0,0,0-.811.764,5.311,5.311,0,0,0,.686,1.747,4.836,4.836,0,0,1,.7,2.058c0,1.2-1.575,2.09-2.651,2.09a1.057,1.057,0,0,1-1.2-.967A0.619,0.619,0,0,1,42.256,11.284Z" transform="translate(-0.26 -1.148)"/><path class="a" d="M47.637,7.682a0.182,0.182,0,0,1-.11-0.172c0-.156,1.373-1.856,2.542-1.856a0.45,0.45,0,0,1,.484.452c0,0.655-1.981,5.256-1.981,5.521,0,0.109.031,0.187,0.11,0.187a6.8,6.8,0,0,0,1.528-1.123,0.137,0.137,0,0,1,.172.156c0,0.078-1.653,2.059-2.744,1.981a0.486,0.486,0,0,1-.452-0.624c0-.436,2.058-5.318,2.058-5.4,0-.047,0-0.234-0.125-0.234A3.344,3.344,0,0,0,47.761,7.6,0.3,0.3,0,0,1,47.637,7.682Zm2.838-5.8a0.749,0.749,0,1,1-.748.748A0.739,0.739,0,0,1,50.475,1.881Z" transform="translate(-0.26 -1.148)"/><path class="a" d="M51.925,6.762c-0.14,0-.187-0.031-0.187-0.109a0.729,0.729,0,0,1,.374-0.546H53.36a0.259,0.259,0,0,0,.172-0.031,12.677,12.677,0,0,0,.546-1.606,0.176,0.176,0,0,1,.187-0.11h0.717a0.114,0.114,0,0,1,.14.141c0,0.078-.422,1.309-0.422,1.481a0.132,0.132,0,0,0,.156.125H56.2c0.11,0,.156.031,0.156,0.187a0.706,0.706,0,0,1-.312.514c-0.265,0-.514-0.015-0.749-0.031-0.234,0-.468-0.016-0.7-0.016a0.687,0.687,0,0,0-.312.562c-0.125.436-1.341,4.554-1.341,4.6a0.221,0.221,0,0,0,.218.265c0.624,0,2.059-1.482,2.136-1.482a0.12,0.12,0,0,1,.141.125,4.543,4.543,0,0,1-3.229,2,0.5,0.5,0,0,1-.514-0.577c0-.218,1.575-5.193,1.575-5.38,0-.078-0.078-0.11-0.234-0.11H51.925Z" transform="translate(-0.26 -1.148)"/><path class="a" d="M61.11,6.06a0.267,0.267,0,0,1,.265-0.281,0.7,0.7,0,0,1,.749.483,32.066,32.066,0,0,1-3.665,8.219c-0.951,1.4-1.731,2.37-3.462,2.37-0.546,0-.921-0.156-0.921-0.686a0.687,0.687,0,0,1,.655-0.593c0.624,0,.561.593,1.528,0.593,0.53,0,2.152-1.435,2.152-4.523,0-1-.343-4.865-1.123-4.835-0.842.031-.686,1.778-0.935,1.778-0.218,0-.218-0.11-0.218-0.343,0-.593.639-2.464,1.746-2.464,1.388,0,1.575,5.006,1.575,5.4a2.88,2.88,0,0,0,0,.764,6.188,6.188,0,0,0,.717-1.591A20.653,20.653,0,0,0,61.11,6.06Z" transform="translate(-0.26 -1.148)"/><path class="a" d="M68.581,12.828c-1.357,0-1.778-1.466-1.778-2.37,0-2.152,1.372-4.741,3.213-4.741,1.247,0,1.887.936,1.887,2.371C71.9,10.161,70.577,12.828,68.581,12.828Zm1.482-6.706c-1.014,0-2.246,3.2-2.246,4.648,0,0.577-.031,1.653.842,1.653,0.811,0,2.23-3.056,2.23-4.647C70.889,6.621,70.7,6.122,70.062,6.122Z" transform="translate(-0.26 -1.148)"/><path class="a" d="M72.962,6.7c-0.094,0-.14-0.031-0.14-0.062a0.527,0.527,0,0,1,.156-0.405c1.559-.125,1.606-0.125,1.7-0.39a19.669,19.669,0,0,1,.764-2.355,3.941,3.941,0,0,1,3.509-2.339c0.452,0,1.326.234,1.326,0.811a0.683,0.683,0,0,1-.7.8c-1.029,0-.639-1.092-1.434-1.092-0.328,0-1.341,0-2.027,3.368-0.078.39-.234,0.873-0.234,1,0,0.078.062,0.078,0.109,0.078h1.669c0.094,0,.125,0,0.125.094a0.879,0.879,0,0,1-.172.5h-1.7c-0.171,0-.234.109-0.281,0.327-1.544,7.018-1.933,8.218-2.947,9.076a2.893,2.893,0,0,1-1.809.749,0.793,0.793,0,0,1-.982-0.686,0.6,0.6,0,0,1,.593-0.562c0.577,0,.935.562,1.341,0.562,0.281,0,.624-0.265.951-1.747,1.2-5.411,1.684-7.392,1.684-7.564a0.154,0.154,0,0,0-.14-0.156H72.962Z" transform="translate(-0.26 -1.148)"/><path class="a" d="M82.881,11.55c0,0.593.265,0.639,1.029,0.7a0.354,0.354,0,0,1,.312.094c0,0.125-.015.328-0.171,0.328s-0.3-.031-2.152-0.031c-0.92,0-1.045.031-1.232,0.031-0.078,0-.078-0.063-0.078-0.14a0.226,0.226,0,0,1,.156-0.25,2.675,2.675,0,0,0,.889-0.187,3.16,3.16,0,0,0,1.061-2.012c0.608-2.231,1.778-5.911,2-6.675,0.031-.11.249-0.764,0.249-0.858a0.482,0.482,0,0,0-.468-0.422L83.27,1.9a0.163,0.163,0,0,1-.156-0.2,0.156,0.156,0,0,1,.172-0.172c0.187,0,1.138.062,1.621,0.062,0.234,0,1.326-.062,1.56-0.062a0.211,0.211,0,0,1,.218.156c0.593,3.181.92,6.534,1.045,7.642,0.078,0.733.124,0.811,0.187,0.811a0.409,0.409,0,0,0,.218-0.187c1.138-1.591,4.585-6.924,5.567-8.188a0.433,0.433,0,0,1,.312-0.234c0.094,0,1.014.062,1.232,0.062,0.188,0,1-.062,1.45-0.062,0.094,0,.094.047,0.094,0.172,0,0.156-.031.249-0.156,0.265a6.524,6.524,0,0,0-.936.156,1.323,1.323,0,0,0-.623,1.107C94.094,8.072,93.329,11,93.329,11.6a0.533,0.533,0,0,0,.593.577l0.78,0.094c0.078,0.015.125,0.015,0.125,0.156a0.283,0.283,0,0,1-.172.25c-0.187,0-.281-0.031-1.434-0.031-2.106,0-2.511.031-2.776,0.031-0.141,0-.172-0.063-0.172-0.14,0-.188.031-0.218,0.327-0.265l0.717-.11a0.53,0.53,0,0,0,.452-0.406C92.5,9.023,93.22,5.094,93.828,3a3.723,3.723,0,0,0,.094-0.515,0.067,0.067,0,0,0-.078-0.078,4.859,4.859,0,0,0-.577.686c-2.308,3.275-4.725,7.111-6.113,9.357a0.637,0.637,0,0,1-.327.343c-0.047,0-.125-0.031-0.187-0.593-0.421-4.46-1-8.639-1.138-9.045a0.134,0.134,0,0,0-.125-0.125c-0.078,0-.125.063-0.671,1.747A39.356,39.356,0,0,0,82.881,11.55Z" transform="translate(-0.26 -1.148)"/><path class="a" d="M96.714,7.682a0.182,0.182,0,0,1-.11-0.172c0-.156,1.373-1.856,2.542-1.856a0.45,0.45,0,0,1,.484.452c0,0.655-1.981,5.256-1.981,5.521,0,0.109.031,0.187,0.11,0.187a6.794,6.794,0,0,0,1.528-1.123,0.137,0.137,0,0,1,.172.156c0,0.078-1.653,2.059-2.744,1.981a0.486,0.486,0,0,1-.452-0.624c0-.436,2.058-5.318,2.058-5.4,0-.047,0-0.234-0.125-0.234A3.344,3.344,0,0,0,96.838,7.6,0.3,0.3,0,0,1,96.714,7.682Zm2.838-5.8a0.749,0.749,0,1,1-.748.748A0.739,0.739,0,0,1,99.552,1.881Z" transform="translate(-0.26 -1.148)"/><path class="a" d="M100.284,11.284c0.8,0,.671,1.029,1.466,1.029a1.024,1.024,0,0,0,.858-1,6.353,6.353,0,0,0-.717-1.965,4.128,4.128,0,0,1-.609-1.731,2.081,2.081,0,0,1,2.261-1.9c0.733,0,1.513.234,1.513,0.951a0.654,0.654,0,0,1-.671.593c-0.717,0-.655-1.092-1.388-1.092a0.758,0.758,0,0,0-.811.764,5.312,5.312,0,0,0,.686,1.747,4.837,4.837,0,0,1,.7,2.058c0,1.2-1.575,2.09-2.652,2.09a1.056,1.056,0,0,1-1.2-.967A0.619,0.619,0,0,1,100.284,11.284Z" transform="translate(-0.26 -1.148)"/><path class="a" d="M104.9,11.284c0.8,0,.671,1.029,1.466,1.029a1.023,1.023,0,0,0,.858-1,6.354,6.354,0,0,0-.717-1.965,4.136,4.136,0,0,1-.608-1.731,2.081,2.081,0,0,1,2.261-1.9c0.733,0,1.512.234,1.512,0.951a0.654,0.654,0,0,1-.671.593c-0.717,0-.655-1.092-1.388-1.092a0.758,0.758,0,0,0-.811.764,5.312,5.312,0,0,0,.686,1.747,4.835,4.835,0,0,1,.7,2.058c0,1.2-1.575,2.09-2.651,2.09a1.057,1.057,0,0,1-1.2-.967A0.619,0.619,0,0,1,104.9,11.284Z" transform="translate(-0.26 -1.148)"/><path class="a" d="M111.591,12.828c-1.357,0-1.778-1.466-1.778-2.37,0-2.152,1.372-4.741,3.213-4.741,1.247,0,1.887.936,1.887,2.371C114.912,10.161,113.587,12.828,111.591,12.828Zm1.482-6.706c-1.014,0-2.246,3.2-2.246,4.648,0,0.577-.031,1.653.842,1.653,0.811,0,2.23-3.056,2.23-4.647C113.9,6.621,113.712,6.122,113.072,6.122Z" transform="translate(-0.26 -1.148)"/><path class="a" d="M119.965,12.641a0.163,0.163,0,0,1-.2-0.156c0-.281.873-2.823,0.873-2.994a0.081,0.081,0,0,0-.047-0.094,26.288,26.288,0,0,1-2.386,2.9,2.1,2.1,0,0,1-1.42.53c-0.374,0-.655-0.249-0.655-0.936s2.043-5.208,2.043-5.739a0.187,0.187,0,0,0-.187-0.172,3,3,0,0,0-1.9,2.136c-0.015.063-.063,0.063-0.14,0.063a0.156,0.156,0,0,1-.125-0.187,3.428,3.428,0,0,1,1.295-2,3.726,3.726,0,0,1,2.183-.468,0.261,0.261,0,0,1,.281.265c0,0.3-2.23,5.193-2.23,5.91a0.308,0.308,0,0,0,.3.312c0.53,0,1.076-.514,2.261-2.183a8.427,8.427,0,0,0,1.092-1.793c0.717-1.949.686-2.386,0.92-2.386h0.921a0.183,0.183,0,0,1,.2.109c0,0.265-1.965,5.661-1.965,6a0.179,0.179,0,0,0,.125.2c0.717,0,1.684-1.793,1.746-1.793,0.094,0,.218.015,0.218,0.124,0,0.312-1.248,2.34-2.573,2.34h-0.624Z" transform="translate(-0.26 -1.148)"/><path class="a" d="M124.082,12.641a0.1,0.1,0,0,1-.109-0.094c0-.3,2.121-6.144,2.121-6.238s-0.078-.187-0.312-0.187c-0.9,0-1.56,2.152-1.731,2.152-0.125,0-.172-0.031-0.172-0.11a2.323,2.323,0,0,1,2.308-2.448h0.8c0.172,0,.265.063,0.265,0.125,0,0.125-1.263,3.712-1.263,3.852a0.106,0.106,0,0,0,.078.109,3.625,3.625,0,0,0,.7-1.122C128,6.559,128.7,5.655,129.619,5.655a0.787,0.787,0,0,1,.826.8,0.812,0.812,0,0,1-.811.8c-0.764,0-.717-0.5-1.092-0.5a1.766,1.766,0,0,0-.671.686,25.983,25.983,0,0,0-2.745,5.053,0.194,0.194,0,0,1-.187.156h-0.858Z" transform="translate(-0.26 -1.148)"/><path class="a" d="M130.788,7.682a0.181,0.181,0,0,1-.109-0.172c0-.156,1.372-1.856,2.542-1.856a0.45,0.45,0,0,1,.482.452c0,0.655-1.98,5.256-1.98,5.521,0,0.109.031,0.187,0.109,0.187a6.83,6.83,0,0,0,1.528-1.123,0.137,0.137,0,0,1,.171.156c0,0.078-1.653,2.059-2.744,1.981a0.486,0.486,0,0,1-.452-0.624c0-.436,2.058-5.318,2.058-5.4,0-.047,0-0.234-0.124-0.234A3.34,3.34,0,0,0,130.913,7.6,0.3,0.3,0,0,1,130.788,7.682Zm2.838-5.8a0.749,0.749,0,1,1-.748.748A0.739,0.739,0,0,1,133.626,1.881Z" transform="translate(-0.26 -1.148)"/><path class="a" d="M147.6,6.559c0.234,0,.234-0.031.3-0.3a37.222,37.222,0,0,0,.9-3.789c0-.172,0-0.5-1.029-0.5-0.375,0-.39-0.14-0.39-0.218a0.206,0.206,0,0,1,.187-0.234c0.187,0,.608.062,2.012,0.062a18.947,18.947,0,0,0,1.949-.062c0.14,0,.171,0,0.171.094,0,0.187-.016.359-0.593,0.359a0.827,0.827,0,0,0-.889.826c-1.949,7.626-2.12,8.5-2.12,8.936,0,0.39.327,0.53,1.309,0.53,0.14,0,.156.047,0.156,0.109,0,0.156-.031.3-0.219,0.3-0.108,0-.218-0.031-1.777-0.031-2,0-2.277.031-2.4,0.031a0.121,0.121,0,0,1-.124-0.14,0.23,0.23,0,0,1,.14-0.265c1.154,0,1.279-.2,1.5-1.092,0.858-3.525,1-3.93,1-3.977,0-.125-0.156-0.125-0.313-0.125h-4.928a0.245,0.245,0,0,0-.281.234c-0.827,3.6-.967,4.273-0.967,4.429,0,0.312.218,0.53,1.341,0.53,0.094,0,.156.031,0.156,0.2s-0.032.2-.219,0.2c-0.14,0-.437-0.031-2.214-0.031-1.419,0-1.732.031-1.949,0.031-0.126,0-.156-0.016-0.156-0.125,0-.234.047-0.25,0.374-0.281,0.9-.078,1-0.078,1.217-0.983,1.7-6.83,2.1-8.125,2.1-8.78,0-.437-0.281-0.53-1.06-0.53-0.282,0-.329-0.078-0.329-0.187a0.289,0.289,0,0,1,.156-0.265c0.3,0,1.295.062,2.106,0.062s1.7-.062,1.919-0.062c0.094,0,.124.015,0.124,0.234a0.176,0.176,0,0,1-.218.218,1,1,0,0,0-1.2.717c-0.156.546-.951,3.462-0.951,3.742,0,0.125.108,0.125,0.218,0.125h4.99Z" transform="translate(-0.26 -1.148)"/><path class="a" d="M156.177,6.855c0,0.749-.655,1.965-3.587,2.527a8.527,8.527,0,0,0-.187,1.279,1.088,1.088,0,0,0,1,1.31c0.858,0,1.591-1.185,1.7-1.185a0.183,0.183,0,0,1,.187.2c0,0.124-1.217,1.84-2.543,1.84-1.185,0-1.5-.951-1.5-1.965,0-2.947,1.917-5.084,3.633-5.084A1.092,1.092,0,0,1,156.177,6.855Zm-1.061-.015a0.581,0.581,0,0,0-.5-0.655c-0.843,0-1.529,1.154-1.981,2.807A2.493,2.493,0,0,0,155.116,6.84Z" transform="translate(-0.26 -1.148)"/><path class="a" d="M163.257,5.53a0.076,0.076,0,0,1,.094.094c0,0.343-2.2,5.427-2.2,5.958a0.169,0.169,0,0,0,.156.2c0.452,0,1.529-1.669,1.716-1.669a0.151,0.151,0,0,1,.14.125c0,0.125-1.762,2.589-2.854,2.589a0.406,0.406,0,0,1-.484-0.359,24.766,24.766,0,0,1,.982-2.76,0.062,0.062,0,0,0-.061-0.078,3.428,3.428,0,0,0-.624.842c-0.8,1.061-1.887,2.355-3.041,2.355a0.618,0.618,0,0,1-.624-0.78c0-1.216,1.466-4.211,2.87-5.521a2.483,2.483,0,0,1,1.9-.811,0.841,0.841,0,0,1,.7.218,1.016,1.016,0,0,0,.187.218,3.4,3.4,0,0,1,.39-0.624h0.748ZM161.6,6.684c0-.328-0.094-0.562-0.64-0.562-1.575,0-3.165,4.289-3.165,5.443,0,0.25.094,0.39,0.234,0.39C159.092,11.955,161.6,7.994,161.6,6.684Z" transform="translate(-0.26 -1.148)"/><path class="a" d="M167,2.5c0-.406-0.218-0.422-0.53-0.422-0.25,0-.484,0-0.484-0.234,0-.187.187-0.234,0.484-0.265,0.951-.094,1.638-0.218,1.746-0.218s0.235,0,.235.141c0,0.608-3.057,9.263-3.057,9.606a0.232,0.232,0,0,0,.265.265c0.343,0,1.482-1.466,1.669-1.466,0.078,0,.14.062,0.14,0.2s-2.09,2.714-3.1,2.714a0.491,0.491,0,0,1-.529-0.53C163.834,11.862,167,2.66,167,2.5Z" transform="translate(-0.26 -1.148)"/><path class="a" d="M168.558,6.762c-0.14,0-.187-0.031-0.187-0.109a0.73,0.73,0,0,1,.374-0.546h1.248a0.256,0.256,0,0,0,.171-0.031,12.518,12.518,0,0,0,.546-1.606,0.177,0.177,0,0,1,.187-0.11h0.717a0.114,0.114,0,0,1,.14.141c0,0.078-.421,1.309-0.421,1.481a0.132,0.132,0,0,0,.156.125h1.34c0.11,0,.156.031,0.156,0.187a0.707,0.707,0,0,1-.311.514c-0.266,0-.516-0.015-0.75-0.031-0.234,0-.468-0.016-0.7-0.016a0.685,0.685,0,0,0-.311.562c-0.126.436-1.341,4.554-1.341,4.6a0.221,0.221,0,0,0,.218.265c0.624,0,2.059-1.482,2.136-1.482a0.119,0.119,0,0,1,.14.125,4.543,4.543,0,0,1-3.228,2,0.5,0.5,0,0,1-.514-0.577c0-.218,1.575-5.193,1.575-5.38,0-.078-0.078-0.11-0.234-0.11h-1.108Z" transform="translate(-0.26 -1.148)"/><path class="a" d="M173.112,12.641a0.2,0.2,0,0,1-.2-0.234c0-.156,3.009-9.794,3.009-9.9,0-.406-0.218-0.422-0.53-0.422-0.249,0-.482,0-0.482-0.234,0-.187.187-0.234,0.482-0.265,0.951-.094,1.638-0.218,1.748-0.218,0.094,0,.234,0,0.234.141,0,0.187-1.935,6.612-1.935,6.705a0.055,0.055,0,0,0,.047.063,0.311,0.311,0,0,0,.14-0.172c1.311-1.809,2.48-2.324,3.088-2.324a0.955,0.955,0,0,1,1.03,1.045c0,2.074-1.949,6-3.7,6a0.57,0.57,0,0,1-.656-0.624,0.75,0.75,0,0,1,.656-0.764c0.529,0,.374.577,0.779,0.577,0.8,0,1.685-3.665,1.685-4.382a0.747,0.747,0,0,0-.687-0.921c-0.452,0-1.372.7-2.433,2.293a13.8,13.8,0,0,0-1.325,3.415,0.232,0.232,0,0,1-.187.218h-0.764Z" transform="translate(-0.26 -1.148)"/><path class="b" d="M1.46,20.627a6.471,6.471,0,0,0,.218-1.247c0-.218-0.14-0.421-1.17-0.452-0.2,0-.2-0.063-0.2-0.218,0-.14.062-0.187,0.125-0.187,0.156,0,1.419.062,1.949,0.062,0.936,0,1.84-.062,2.121-0.062,0.094,0,.11.125,0.11,0.234a0.209,0.209,0,0,1-.172.218,2.118,2.118,0,0,0-1,.187,3.612,3.612,0,0,0-.53,1.559,37,37,0,0,0-1.17,6.02A2.289,2.289,0,0,0,4.314,29.08c1.544,0,3.259-.858,4.024-3.728,1.045-3.93,1.17-4.819,1.17-5.489a0.776,0.776,0,0,0-.811-0.81,4.234,4.234,0,0,0-.733-0.11,0.235,0.235,0,0,1-.094-0.187,0.229,0.229,0,0,1,.2-0.234c0.172,0,1.217.062,1.512,0.062,0.515,0,1.934-.062,2.23-0.062,0.063,0,.11.078,0.11,0.2a0.218,0.218,0,0,1-.14.172l-0.546.078a1.411,1.411,0,0,0-1.108,1.2c-0.514,1.669-1.122,5.4-1.949,7.065a4.332,4.332,0,0,1-4.351,2.527c-1.98,0-3.571-.983-3.571-3.01A49.86,49.86,0,0,1,1.46,20.627Z" transform="translate(-0.26 -1.148)"/><path class="b" d="M14.669,29.641c-0.094,0-.109-0.031-0.109-0.125,0-.577,2.058-4.99,2.058-5.8a0.411,0.411,0,0,0-.405-0.452c-1.029,0-1.793,1.732-3.29,4.289-0.078.14-.265,0.608-0.842,1.949a0.169,0.169,0,0,1-.171.14H10.989a0.1,0.1,0,0,1-.124-0.125c0-.249,2.12-5.645,2.12-6.1a0.151,0.151,0,0,0-.124-0.187c-1.2,0-1.872,1.559-1.872,1.887a0.146,0.146,0,0,1-.14.078,0.13,0.13,0,0,1-.14-0.14c0-.374.514-2.277,2.2-2.277h1.154a0.129,0.129,0,0,1,.156.14c0,0.187-1.154,3.01-1.154,3.509,0,0.078,0,.11.047,0.11a1.081,1.081,0,0,0,.421-0.64c1.684-3.041,2.152-3.243,3.041-3.243,0.437,0,1.248.062,1.248,0.78,0,1.279-1.9,4.865-1.9,5.474a0.185,0.185,0,0,0,.156.125c0.734,0,1.575-1.637,1.747-1.637a0.206,0.206,0,0,1,.156.14c0,0.2-1.217,2.105-2.5,2.105H14.669Z" transform="translate(-0.26 -1.148)"/><path class="b" d="M19.442,24.682a0.182,0.182,0,0,1-.11-0.172c0-.156,1.373-1.856,2.542-1.856a0.45,0.45,0,0,1,.484.452c0,0.655-1.981,5.256-1.981,5.521,0,0.109.031,0.187,0.11,0.187a6.794,6.794,0,0,0,1.528-1.123,0.137,0.137,0,0,1,.172.156c0,0.078-1.653,2.059-2.744,1.981a0.486,0.486,0,0,1-.452-0.624c0-.436,2.058-5.318,2.058-5.4,0-.047,0-0.234-0.125-0.234A3.344,3.344,0,0,0,19.566,24.6,0.3,0.3,0,0,1,19.442,24.682Zm2.838-5.8a0.749,0.749,0,1,1-.748.748A0.739,0.739,0,0,1,22.28,18.881Z" transform="translate(-0.26 -1.148)"/><path class="b" d="M26.288,22.717a1.233,1.233,0,0,0,.218-0.031,1.537,1.537,0,0,1,.3-0.031,0.181,0.181,0,0,1,.172.172c0,0.733-1.762,2.542-1.762,4.57a1.272,1.272,0,0,0,1.06,1.5c1.684,0,2.947-2.947,2.947-4.366,0-.624-0.748-0.624-0.748-1.185a0.745,0.745,0,0,1,.7-0.811c0.671,0,.8.452,0.8,1.061,0,1.466-1.607,6.238-4.414,6.238a1.468,1.468,0,0,1-1.434-1.684c0-1.794,2.058-4.211,2.058-4.382,0-.078,0-0.109-0.281-0.109H24.245a1.227,1.227,0,0,0-.749,1,0.154,0.154,0,0,1-.187.14,0.188,0.188,0,0,1-.172-0.125,4.91,4.91,0,0,1,.764-1.949h2.386Z" transform="translate(-0.26 -1.148)"/><path class="b" d="M35.691,23.855c0,0.749-.655,1.965-3.587,2.527a8.376,8.376,0,0,0-.188,1.279,1.088,1.088,0,0,0,1,1.31c0.858,0,1.591-1.185,1.7-1.185a0.183,0.183,0,0,1,.187.2c0,0.124-1.216,1.84-2.542,1.84-1.185,0-1.5-.951-1.5-1.965,0-2.947,1.918-5.084,3.634-5.084A1.092,1.092,0,0,1,35.691,23.855Zm-1.061-.015a0.581,0.581,0,0,0-.5-0.655c-0.842,0-1.528,1.154-1.98,2.807A2.493,2.493,0,0,0,34.631,23.84Z" transform="translate(-0.26 -1.148)"/><path class="b" d="M36.5,29.641a0.1,0.1,0,0,1-.109-0.094c0-.3,2.121-6.144,2.121-6.238s-0.078-.187-0.312-0.187c-0.9,0-1.56,2.152-1.731,2.152-0.125,0-.172-0.031-0.172-0.11a2.323,2.323,0,0,1,2.308-2.448h0.8c0.172,0,.265.063,0.265,0.125,0,0.125-1.263,3.712-1.263,3.852a0.106,0.106,0,0,0,.078.109,3.626,3.626,0,0,0,.7-1.122c1.233-2.121,1.934-3.026,2.854-3.026a0.787,0.787,0,0,1,.827.8,0.812,0.812,0,0,1-.811.8c-0.764,0-.717-0.5-1.092-0.5a1.766,1.766,0,0,0-.671.686,25.98,25.98,0,0,0-2.745,5.053,0.194,0.194,0,0,1-.187.156H36.5Z" transform="translate(-0.26 -1.148)"/><path class="b" d="M42.256,28.284c0.8,0,.671,1.029,1.466,1.029a1.024,1.024,0,0,0,.858-1,6.354,6.354,0,0,0-.717-1.965,4.128,4.128,0,0,1-.609-1.731,2.081,2.081,0,0,1,2.261-1.9c0.733,0,1.513.234,1.513,0.951a0.654,0.654,0,0,1-.671.593c-0.717,0-.655-1.092-1.388-1.092a0.758,0.758,0,0,0-.811.764,5.311,5.311,0,0,0,.686,1.747,4.836,4.836,0,0,1,.7,2.058c0,1.2-1.575,2.09-2.651,2.09a1.057,1.057,0,0,1-1.2-.967A0.619,0.619,0,0,1,42.256,28.284Z" transform="translate(-0.26 -1.148)"/><path class="b" d="M47.637,24.682a0.182,0.182,0,0,1-.11-0.172c0-.156,1.373-1.856,2.542-1.856a0.45,0.45,0,0,1,.484.452c0,0.655-1.981,5.256-1.981,5.521,0,0.109.031,0.187,0.11,0.187a6.8,6.8,0,0,0,1.528-1.123,0.137,0.137,0,0,1,.172.156c0,0.078-1.653,2.059-2.744,1.981a0.486,0.486,0,0,1-.452-0.624c0-.436,2.058-5.318,2.058-5.4,0-.047,0-0.234-0.125-0.234A3.344,3.344,0,0,0,47.761,24.6,0.3,0.3,0,0,1,47.637,24.682Zm2.838-5.8a0.749,0.749,0,1,1-.748.748A0.739,0.739,0,0,1,50.475,18.881Z" transform="translate(-0.26 -1.148)"/><path class="b" d="M51.925,23.762c-0.14,0-.187-0.031-0.187-0.109a0.729,0.729,0,0,1,.374-0.546H53.36a0.259,0.259,0,0,0,.172-0.031,12.677,12.677,0,0,0,.546-1.606,0.176,0.176,0,0,1,.187-0.11h0.717a0.114,0.114,0,0,1,.14.141c0,0.078-.422,1.309-0.422,1.481a0.132,0.132,0,0,0,.156.125H56.2c0.11,0,.156.031,0.156,0.187a0.706,0.706,0,0,1-.312.514c-0.265,0-.514-0.015-0.749-0.031-0.234,0-.468-0.016-0.7-0.016a0.687,0.687,0,0,0-.312.562c-0.125.436-1.341,4.554-1.341,4.6a0.221,0.221,0,0,0,.218.265c0.624,0,2.059-1.482,2.136-1.482a0.12,0.12,0,0,1,.141.125,4.543,4.543,0,0,1-3.229,2,0.5,0.5,0,0,1-.514-0.577c0-.218,1.575-5.193,1.575-5.38,0-.078-0.078-0.11-0.234-0.11H51.925Z" transform="translate(-0.26 -1.148)"/><path class="b" d="M61.11,23.06a0.267,0.267,0,0,1,.265-0.281,0.7,0.7,0,0,1,.749.483,32.066,32.066,0,0,1-3.665,8.219c-0.951,1.4-1.731,2.37-3.462,2.37-0.546,0-.921-0.156-0.921-0.686a0.687,0.687,0,0,1,.655-0.593c0.624,0,.561.593,1.528,0.593,0.53,0,2.152-1.435,2.152-4.523,0-1-.343-4.865-1.123-4.835-0.842.031-.686,1.778-0.935,1.778-0.218,0-.218-0.11-0.218-0.343,0-.593.639-2.464,1.746-2.464,1.388,0,1.575,5.006,1.575,5.4a2.88,2.88,0,0,0,0,.764,6.188,6.188,0,0,0,.717-1.591A20.653,20.653,0,0,0,61.11,23.06Z" transform="translate(-0.26 -1.148)"/><path class="b" d="M68.581,29.828c-1.357,0-1.778-1.466-1.778-2.37,0-2.152,1.372-4.741,3.213-4.741,1.247,0,1.887.936,1.887,2.371C71.9,27.161,70.577,29.828,68.581,29.828Zm1.482-6.706c-1.014,0-2.246,3.2-2.246,4.648,0,0.577-.031,1.653.842,1.653,0.811,0,2.23-3.056,2.23-4.647C70.889,23.621,70.7,23.122,70.062,23.122Z" transform="translate(-0.26 -1.148)"/><path class="b" d="M72.962,23.7c-0.094,0-.14-0.031-0.14-0.062a0.527,0.527,0,0,1,.156-0.405c1.559-.125,1.606-0.125,1.7-0.39a19.669,19.669,0,0,1,.764-2.355,3.941,3.941,0,0,1,3.509-2.339c0.452,0,1.326.234,1.326,0.811a0.683,0.683,0,0,1-.7.8c-1.029,0-.639-1.092-1.434-1.092-0.328,0-1.341,0-2.027,3.368-0.078.39-.234,0.873-0.234,1,0,0.078.062,0.078,0.109,0.078h1.669c0.094,0,.125,0,0.125.094a0.879,0.879,0,0,1-.172.5h-1.7c-0.171,0-.234.109-0.281,0.327-1.544,7.018-1.933,8.218-2.947,9.076a2.893,2.893,0,0,1-1.809.749,0.793,0.793,0,0,1-.982-0.686,0.6,0.6,0,0,1,.593-0.562c0.577,0,.935.562,1.341,0.562,0.281,0,.624-0.265.951-1.747,1.2-5.411,1.684-7.392,1.684-7.564a0.154,0.154,0,0,0-.14-0.156H72.962Z" transform="translate(-0.26 -1.148)"/><path class="b" d="M82.881,28.55c0,0.593.265,0.639,1.029,0.7a0.354,0.354,0,0,1,.312.094c0,0.125-.015.328-0.171,0.328s-0.3-.031-2.152-0.031c-0.92,0-1.045.031-1.232,0.031-0.078,0-.078-0.063-0.078-0.14a0.226,0.226,0,0,1,.156-0.25,2.675,2.675,0,0,0,.889-0.187,3.16,3.16,0,0,0,1.061-2.012c0.608-2.231,1.778-5.911,2-6.675,0.031-.11.249-0.764,0.249-0.858a0.482,0.482,0,0,0-.468-0.422l-1.2-.234a0.163,0.163,0,0,1-.156-0.2,0.156,0.156,0,0,1,.172-0.172c0.187,0,1.138.062,1.621,0.062,0.234,0,1.326-.062,1.56-0.062a0.211,0.211,0,0,1,.218.156c0.593,3.181.92,6.534,1.045,7.642,0.078,0.733.124,0.811,0.187,0.811a0.409,0.409,0,0,0,.218-0.187c1.138-1.591,4.585-6.924,5.567-8.188a0.433,0.433,0,0,1,.312-0.234c0.094,0,1.014.062,1.232,0.062,0.188,0,1-.062,1.45-0.062,0.094,0,.094.047,0.094,0.172,0,0.156-.031.249-0.156,0.265a6.524,6.524,0,0,0-.936.156,1.323,1.323,0,0,0-.623,1.107C94.094,25.072,93.329,28,93.329,28.6a0.533,0.533,0,0,0,.593.577l0.78,0.094c0.078,0.015.125,0.015,0.125,0.156a0.283,0.283,0,0,1-.172.25c-0.187,0-.281-0.031-1.434-0.031-2.106,0-2.511.031-2.776,0.031-0.141,0-.172-0.063-0.172-0.14,0-.188.031-0.218,0.327-0.265l0.717-.11a0.53,0.53,0,0,0,.452-0.406C92.5,26.023,93.22,22.094,93.828,20a3.723,3.723,0,0,0,.094-0.515,0.067,0.067,0,0,0-.078-0.078,4.859,4.859,0,0,0-.577.686c-2.308,3.275-4.725,7.111-6.113,9.357a0.637,0.637,0,0,1-.327.343c-0.047,0-.125-0.031-0.187-0.593-0.421-4.46-1-8.639-1.138-9.045a0.134,0.134,0,0,0-.125-0.125c-0.078,0-.125.063-0.671,1.747A39.356,39.356,0,0,0,82.881,28.55Z" transform="translate(-0.26 -1.148)"/><path class="b" d="M96.714,24.682a0.182,0.182,0,0,1-.11-0.172c0-.156,1.373-1.856,2.542-1.856a0.45,0.45,0,0,1,.484.452c0,0.655-1.981,5.256-1.981,5.521,0,0.109.031,0.187,0.11,0.187a6.794,6.794,0,0,0,1.528-1.123,0.137,0.137,0,0,1,.172.156c0,0.078-1.653,2.059-2.744,1.981a0.486,0.486,0,0,1-.452-0.624c0-.436,2.058-5.318,2.058-5.4,0-.047,0-0.234-0.125-0.234A3.344,3.344,0,0,0,96.838,24.6,0.3,0.3,0,0,1,96.714,24.682Zm2.838-5.8a0.749,0.749,0,1,1-.748.748A0.739,0.739,0,0,1,99.552,18.881Z" transform="translate(-0.26 -1.148)"/><path class="b" d="M100.284,28.284c0.8,0,.671,1.029,1.466,1.029a1.024,1.024,0,0,0,.858-1,6.353,6.353,0,0,0-.717-1.965,4.128,4.128,0,0,1-.609-1.731,2.081,2.081,0,0,1,2.261-1.9c0.733,0,1.513.234,1.513,0.951a0.654,0.654,0,0,1-.671.593c-0.717,0-.655-1.092-1.388-1.092a0.758,0.758,0,0,0-.811.764,5.312,5.312,0,0,0,.686,1.747,4.837,4.837,0,0,1,.7,2.058c0,1.2-1.575,2.09-2.652,2.09a1.056,1.056,0,0,1-1.2-.967A0.619,0.619,0,0,1,100.284,28.284Z" transform="translate(-0.26 -1.148)"/><path class="b" d="M104.9,28.284c0.8,0,.671,1.029,1.466,1.029a1.023,1.023,0,0,0,.858-1,6.354,6.354,0,0,0-.717-1.965,4.136,4.136,0,0,1-.608-1.731,2.081,2.081,0,0,1,2.261-1.9c0.733,0,1.512.234,1.512,0.951a0.654,0.654,0,0,1-.671.593c-0.717,0-.655-1.092-1.388-1.092a0.758,0.758,0,0,0-.811.764,5.312,5.312,0,0,0,.686,1.747,4.835,4.835,0,0,1,.7,2.058c0,1.2-1.575,2.09-2.651,2.09a1.057,1.057,0,0,1-1.2-.967A0.619,0.619,0,0,1,104.9,28.284Z" transform="translate(-0.26 -1.148)"/><path class="b" d="M111.591,29.828c-1.357,0-1.778-1.466-1.778-2.37,0-2.152,1.372-4.741,3.213-4.741,1.247,0,1.887.936,1.887,2.371C114.912,27.161,113.587,29.828,111.591,29.828Zm1.482-6.706c-1.014,0-2.246,3.2-2.246,4.648,0,0.577-.031,1.653.842,1.653,0.811,0,2.23-3.056,2.23-4.647C113.9,23.621,113.712,23.122,113.072,23.122Z" transform="translate(-0.26 -1.148)"/><path class="b" d="M119.965,29.641a0.163,0.163,0,0,1-.2-0.156c0-.281.873-2.823,0.873-2.994a0.081,0.081,0,0,0-.047-0.094,26.288,26.288,0,0,1-2.386,2.9,2.1,2.1,0,0,1-1.42.53c-0.374,0-.655-0.249-0.655-0.936s2.043-5.208,2.043-5.739a0.187,0.187,0,0,0-.187-0.172,3,3,0,0,0-1.9,2.136c-0.015.063-.063,0.063-0.14,0.063a0.156,0.156,0,0,1-.125-0.187,3.428,3.428,0,0,1,1.295-2,3.726,3.726,0,0,1,2.183-.468,0.261,0.261,0,0,1,.281.265c0,0.3-2.23,5.193-2.23,5.91a0.308,0.308,0,0,0,.3.312c0.53,0,1.076-.514,2.261-2.183a8.427,8.427,0,0,0,1.092-1.793c0.717-1.949.686-2.386,0.92-2.386h0.921a0.183,0.183,0,0,1,.2.109c0,0.265-1.965,5.661-1.965,6a0.179,0.179,0,0,0,.125.2c0.717,0,1.684-1.793,1.746-1.793,0.094,0,.218.015,0.218,0.124,0,0.312-1.248,2.34-2.573,2.34h-0.624Z" transform="translate(-0.26 -1.148)"/><path class="b" d="M124.082,29.641a0.1,0.1,0,0,1-.109-0.094c0-.3,2.121-6.144,2.121-6.238s-0.078-.187-0.312-0.187c-0.9,0-1.56,2.152-1.731,2.152-0.125,0-.172-0.031-0.172-0.11a2.323,2.323,0,0,1,2.308-2.448h0.8c0.172,0,.265.063,0.265,0.125,0,0.125-1.263,3.712-1.263,3.852a0.106,0.106,0,0,0,.078.109,3.625,3.625,0,0,0,.7-1.122c1.233-2.121,1.934-3.026,2.855-3.026a0.787,0.787,0,0,1,.826.8,0.812,0.812,0,0,1-.811.8c-0.764,0-.717-0.5-1.092-0.5a1.766,1.766,0,0,0-.671.686,25.983,25.983,0,0,0-2.745,5.053,0.194,0.194,0,0,1-.187.156h-0.858Z" transform="translate(-0.26 -1.148)"/><path class="b" d="M130.788,24.682a0.181,0.181,0,0,1-.109-0.172c0-.156,1.372-1.856,2.542-1.856a0.45,0.45,0,0,1,.482.452c0,0.655-1.98,5.256-1.98,5.521,0,0.109.031,0.187,0.109,0.187a6.83,6.83,0,0,0,1.528-1.123,0.137,0.137,0,0,1,.171.156c0,0.078-1.653,2.059-2.744,1.981a0.486,0.486,0,0,1-.452-0.624c0-.436,2.058-5.318,2.058-5.4,0-.047,0-0.234-0.124-0.234a3.34,3.34,0,0,0-1.357,1.029A0.3,0.3,0,0,1,130.788,24.682Zm2.838-5.8a0.749,0.749,0,1,1-.748.748A0.739,0.739,0,0,1,133.626,18.881Z" transform="translate(-0.26 -1.148)"/><path class="b" d="M147.6,23.559c0.234,0,.234-0.031.3-0.3a37.222,37.222,0,0,0,.9-3.789c0-.172,0-0.5-1.029-0.5-0.375,0-.39-0.14-0.39-0.218a0.206,0.206,0,0,1,.187-0.234c0.187,0,.608.062,2.012,0.062a18.947,18.947,0,0,0,1.949-.062c0.14,0,.171,0,0.171.094,0,0.187-.016.359-0.593,0.359a0.827,0.827,0,0,0-.889.826c-1.949,7.626-2.12,8.5-2.12,8.936,0,0.39.327,0.53,1.309,0.53,0.14,0,.156.047,0.156,0.109,0,0.156-.031.3-0.219,0.3-0.108,0-.218-0.031-1.777-0.031-2,0-2.277.031-2.4,0.031a0.121,0.121,0,0,1-.124-0.14,0.23,0.23,0,0,1,.14-0.265c1.154,0,1.279-.2,1.5-1.092,0.858-3.525,1-3.93,1-3.977,0-.125-0.156-0.125-0.313-0.125h-4.928a0.245,0.245,0,0,0-.281.234c-0.827,3.6-.967,4.273-0.967,4.429,0,0.312.218,0.53,1.341,0.53,0.094,0,.156.031,0.156,0.2s-0.032.2-.219,0.2c-0.14,0-.437-0.031-2.214-0.031-1.419,0-1.732.031-1.949,0.031-0.126,0-.156-0.016-0.156-0.125,0-.234.047-0.25,0.374-0.281,0.9-.078,1-0.078,1.217-0.983,1.7-6.83,2.1-8.125,2.1-8.78,0-.437-0.281-0.53-1.06-0.53-0.282,0-.329-0.078-0.329-0.187a0.289,0.289,0,0,1,.156-0.265c0.3,0,1.295.062,2.106,0.062s1.7-.062,1.919-0.062c0.094,0,.124.015,0.124,0.234a0.176,0.176,0,0,1-.218.218,1,1,0,0,0-1.2.717c-0.156.546-.951,3.462-0.951,3.742,0,0.125.108,0.125,0.218,0.125h4.99Z" transform="translate(-0.26 -1.148)"/><path class="b" d="M156.177,23.855c0,0.749-.655,1.965-3.587,2.527a8.527,8.527,0,0,0-.187,1.279,1.088,1.088,0,0,0,1,1.31c0.858,0,1.591-1.185,1.7-1.185a0.183,0.183,0,0,1,.187.2c0,0.124-1.217,1.84-2.543,1.84-1.185,0-1.5-.951-1.5-1.965,0-2.947,1.917-5.084,3.633-5.084A1.092,1.092,0,0,1,156.177,23.855Zm-1.061-.015a0.581,0.581,0,0,0-.5-0.655c-0.843,0-1.529,1.154-1.981,2.807A2.493,2.493,0,0,0,155.116,23.84Z" transform="translate(-0.26 -1.148)"/><path class="b" d="M163.257,22.53a0.076,0.076,0,0,1,.094.094c0,0.343-2.2,5.427-2.2,5.958a0.169,0.169,0,0,0,.156.2c0.452,0,1.529-1.669,1.716-1.669a0.151,0.151,0,0,1,.14.125c0,0.125-1.762,2.589-2.854,2.589a0.406,0.406,0,0,1-.484-0.359,24.766,24.766,0,0,1,.982-2.76,0.062,0.062,0,0,0-.061-0.078,3.428,3.428,0,0,0-.624.842c-0.8,1.061-1.887,2.355-3.041,2.355a0.618,0.618,0,0,1-.624-0.78c0-1.216,1.466-4.211,2.87-5.521a2.483,2.483,0,0,1,1.9-.811,0.841,0.841,0,0,1,.7.218,1.016,1.016,0,0,0,.187.218,3.4,3.4,0,0,1,.39-0.624h0.748ZM161.6,23.684c0-.328-0.094-0.562-0.64-0.562-1.575,0-3.165,4.289-3.165,5.443,0,0.25.094,0.39,0.234,0.39C159.092,28.955,161.6,24.994,161.6,23.684Z" transform="translate(-0.26 -1.148)"/><path class="b" d="M167,19.5c0-.406-0.218-0.422-0.53-0.422-0.25,0-.484,0-0.484-0.234,0-.187.187-0.234,0.484-0.265,0.951-.094,1.638-0.218,1.746-0.218s0.235,0,.235.141c0,0.608-3.057,9.263-3.057,9.606a0.232,0.232,0,0,0,.265.265c0.343,0,1.482-1.466,1.669-1.466,0.078,0,.14.062,0.14,0.2s-2.09,2.714-3.1,2.714a0.491,0.491,0,0,1-.529-0.53C163.834,28.862,167,19.66,167,19.5Z" transform="translate(-0.26 -1.148)"/><path class="b" d="M168.558,23.762c-0.14,0-.187-0.031-0.187-0.109a0.73,0.73,0,0,1,.374-0.546h1.248a0.256,0.256,0,0,0,.171-0.031,12.518,12.518,0,0,0,.546-1.606,0.177,0.177,0,0,1,.187-0.11h0.717a0.114,0.114,0,0,1,.14.141c0,0.078-.421,1.309-0.421,1.481a0.132,0.132,0,0,0,.156.125h1.34c0.11,0,.156.031,0.156,0.187a0.707,0.707,0,0,1-.311.514c-0.266,0-.516-0.015-0.75-0.031-0.234,0-.468-0.016-0.7-0.016a0.685,0.685,0,0,0-.311.562c-0.126.436-1.341,4.554-1.341,4.6a0.221,0.221,0,0,0,.218.265c0.624,0,2.059-1.482,2.136-1.482a0.119,0.119,0,0,1,.14.125,4.543,4.543,0,0,1-3.228,2,0.5,0.5,0,0,1-.514-0.577c0-.218,1.575-5.193,1.575-5.38,0-.078-0.078-0.11-0.234-0.11h-1.108Z" transform="translate(-0.26 -1.148)"/><path class="b" d="M173.112,29.641a0.2,0.2,0,0,1-.2-0.234c0-.156,3.009-9.794,3.009-9.9,0-.406-0.218-0.422-0.53-0.422-0.249,0-.482,0-0.482-0.234,0-.187.187-0.234,0.482-0.265,0.951-.094,1.638-0.218,1.748-0.218,0.094,0,.234,0,0.234.141,0,0.187-1.935,6.612-1.935,6.705a0.055,0.055,0,0,0,.047.063,0.311,0.311,0,0,0,.14-0.172c1.311-1.809,2.48-2.324,3.088-2.324a0.955,0.955,0,0,1,1.03,1.045c0,2.074-1.949,6-3.7,6a0.57,0.57,0,0,1-.656-0.624,0.75,0.75,0,0,1,.656-0.764c0.529,0,.374.577,0.779,0.577,0.8,0,1.685-3.665,1.685-4.382a0.747,0.747,0,0,0-.687-0.921c-0.452,0-1.372.7-2.433,2.293a13.8,13.8,0,0,0-1.325,3.415,0.232,0.232,0,0,1-.187.218h-0.764Z" transform="translate(-0.26 -1.148)"/></svg>