<?xml version="1.0" encoding="utf-8"?>
<!-- Generator: Adobe Illustrator 18.1.1, SVG Export Plug-In . SVG Version: 6.00 Build 0)  -->
<!DOCTYPE svg PUBLIC "-//W3C//DTD SVG 1.0//EN" "http://www.w3.org/TR/2001/REC-SVG-20010904/DTD/svg10.dtd">
<svg version="1.0" id="Layer_1" xmlns="http://www.w3.org/2000/svg" xmlns:xlink="http://www.w3.org/1999/xlink" x="0px" y="0px"
	 width="202px" height="54px" viewBox="0 0 202 54" enable-background="new 0 0 202 54" xml:space="preserve">
<g>
	<path fill="#FFFFFF" d="M17.699,3.068c0.072-0.191,0.144-0.264,0.287-0.264c0.12,0,1.869,0.096,2.42,0.096
		c0.407,0,2.443-0.096,2.611-0.096c0.24,0,0.264,0.191,0.264,0.407s-0.096,0.312-0.288,0.312c-2.156,0-2.419,0.168-2.419,1.27
		c0,1.558,0.264,6.588,0.503,13.296c0.024,0.814,0.695,1.126,1.318,1.126c1.341,0,1.365,0.144,1.365,0.312
		c0,0.359-0.12,0.407-0.263,0.407c-0.216,0-0.479-0.048-3.809-0.048c-3.114,0-3.258,0.048-3.45,0.048
		c-0.264,0-0.264-0.168-0.264-0.383c0-0.168,0.048-0.336,1.15-0.336c1.581,0,1.605-0.383,1.605-1.342
		c0-1.437-0.359-9.175-0.551-13.654H18.13c-1.749,4.479-3.953,9.63-5.534,13.487c-0.91,2.204-0.91,2.467-1.222,2.467
		s-0.359-0.215-0.862-1.868C9.984,16.58,6.08,5.991,5.984,5.991C5.577,7.74,3.996,15.693,3.996,18.089
		c0,0.743,0.407,1.126,1.198,1.126c0.599,0,1.293,0.048,1.293,0.191c0,0.455,0,0.527-0.263,0.527c-0.192,0-0.432-0.048-2.899-0.048
		c-2.18,0-2.348,0.048-2.491,0.048c-0.192,0-0.264-0.023-0.264-0.407c0-0.239,0.12-0.312,1.27-0.312c0.838,0,1.006-0.312,1.27-1.677
		c0.646-3.45,1.222-6.924,1.964-10.373c0.239-1.078,0.311-1.749,0.311-2.252c0-0.144-0.335-1.03-0.623-1.198
		C4.57,3.596,3.444,3.523,2.702,3.523c-0.287,0-0.287-0.191-0.287-0.359c0-0.191,0.048-0.359,0.263-0.359
		c0.456,0,2.516,0.096,2.779,0.096c0.623,0,1.629-0.096,1.94-0.096c0.263,0,0.335,0.264,0.575,1.126
		c0.503,1.797,3.977,11.499,4.408,12.386C14.177,12.076,15.998,7.692,17.699,3.068z"/>
	<path fill="#FFFFFF" d="M28.361,17.658c0,1.365,0.048,1.652,1.102,1.652c0.527,0,0.575,0.024,0.575,0.312
		c0,0.144,0,0.312-0.24,0.312c-0.12,0-0.431-0.048-1.988-0.048c-2.252,0-2.875,0.048-3.234,0.048c-0.191,0-0.191-0.144-0.191-0.264
		c0-0.312,0.024-0.359,0.91-0.359c0.623,0,0.838-0.239,0.982-0.575c0.096-0.215,0.144-1.916,0.144-3.449v-3.282
		c0-0.838-0.215-1.317-1.414-1.438c-0.191-0.023-0.215-0.119-0.215-0.287c0-0.191,0.072-0.312,0.191-0.335
		c2.731-0.552,3.066-1.174,3.354-1.174c0.096,0,0.144,0.119,0.144,0.263c0,0.096-0.12,0.336-0.12,3.45V17.658z M26.133,4.171
		c0-0.647,0.527-1.271,1.246-1.271c0.718,0,1.246,0.623,1.246,1.271c0,0.646-0.527,1.27-1.246,1.27
		C26.661,5.44,26.133,4.817,26.133,4.171z"/>
	<path fill="#FFFFFF" d="M37.25,19.167c1.174,0,1.773,0,2.252-0.862l0.791-1.317c0.288-0.479,0.335-0.6,0.623-0.6
		c0.144,0,0.263,0.097,0.263,0.264c0,0.096-0.431,1.414-0.767,2.875c-0.096,0.407-0.383,0.407-0.695,0.407
		c-0.311,0-1.174-0.048-2.515-0.048h-5.223c-0.215,0-0.312-0.072-0.312-0.191c0-0.096,0.072-0.191,0.144-0.312
		c1.677-2.995,3.785-6.085,5.917-9.104c-0.814-0.024-1.317-0.048-1.869-0.048c-1.317,0-2.587,0.023-3.21,1.461
		c-0.288,0.671-0.407,0.719-0.647,0.719c-0.12,0-0.263-0.071-0.263-0.216c0-0.335,0.479-1.629,0.599-2.97
		c0-0.072,0.072-0.24,0.24-0.24c0.239,0,0.431,0.336,0.599,0.455c0.168,0.12,1.078,0.12,1.869,0.12c2.635,0,4.839-0.12,5.151-0.12
		c0.048,0,0.215,0.048,0.215,0.12c0,0.216-0.814,0.982-2.755,4.024c-0.407,0.647-2.3,3.33-3.689,5.582H37.25z"/>
	<path fill="#FFFFFF" d="M47.887,19.167c1.174,0,1.773,0,2.252-0.862l0.791-1.317c0.288-0.479,0.335-0.6,0.623-0.6
		c0.144,0,0.263,0.097,0.263,0.264c0,0.096-0.431,1.414-0.767,2.875c-0.096,0.407-0.383,0.407-0.695,0.407
		c-0.311,0-1.174-0.048-2.515-0.048h-5.223c-0.215,0-0.312-0.072-0.312-0.191c0-0.096,0.072-0.191,0.144-0.312
		c1.677-2.995,3.785-6.085,5.917-9.104c-0.814-0.024-1.317-0.048-1.869-0.048c-1.317,0-2.587,0.023-3.21,1.461
		c-0.288,0.671-0.407,0.719-0.647,0.719c-0.12,0-0.263-0.071-0.263-0.216c0-0.335,0.479-1.629,0.599-2.97
		c0-0.072,0.072-0.24,0.24-0.24c0.239,0,0.431,0.336,0.599,0.455c0.168,0.12,1.078,0.12,1.869,0.12c2.635,0,4.839-0.12,5.151-0.12
		c0.048,0,0.215,0.048,0.215,0.12c0,0.216-0.814,0.982-2.755,4.024c-0.407,0.647-2.3,3.33-3.689,5.582H47.887z"/>
	<path fill="#FFFFFF" d="M58.429,20.221c-3.282,0-5.558-2.371-5.558-5.558c0-3.162,2.372-5.558,5.558-5.558
		c3.21,0,5.582,2.323,5.582,5.558C64.01,18.018,61.782,20.221,58.429,20.221z M58.429,9.729c-2.492,0-3.282,2.587-3.282,4.935
		c0,2.036,0.479,4.936,3.282,4.936c2.827,0,3.306-2.899,3.306-4.936C61.734,12.315,60.944,9.729,58.429,9.729z"/>
	<path fill="#FFFFFF" d="M67.006,12.459c0-2.107-0.24-2.252-1.485-2.252c-0.192,0-0.527,0-0.527-0.239c0-0.191,0-0.479,0.264-0.479
		c0.24,0,0.623,0.072,1.414,0.072c0.838,0,1.749-0.072,2.084-0.072c0.144,0,0.192,0,0.192,0.336v6.468
		c0,1.797,0.575,2.827,2.348,2.827c0.862,0,2.372-0.527,2.372-1.27v-6.205c0-1.293-0.24-1.438-1.485-1.438
		c-0.431,0-0.767,0-0.767-0.239c0-0.359,0-0.479,0.168-0.479c0.335,0,0.623,0.072,2.084,0.072c0.599,0,1.222-0.072,1.821-0.072
		c0.215,0,0.335,0.097,0.335,0.336c0,0.096-0.216,1.94-0.216,3.642v4.504c0,0.383,0,0.886,0.599,0.886
		c0.335,0,0.862-0.096,1.03-0.096c0.096,0,0.144,0,0.144,0.455c0,0.144-0.024,0.191-0.791,0.312
		c-2.037,0.335-2.611,0.623-2.755,0.623c-0.167,0-0.287-0.168-0.287-0.336c0-0.287,0.048-0.67,0.072-0.91
		c-1.198,0.887-2.659,1.317-3.569,1.317c-2.372,0-3.042-1.533-3.042-4.024V12.459z"/>
	<path fill="#FFFFFF" d="M87.227,8.507c0-1.701-0.024-2.276-0.048-3.378c-0.024-1.414-0.431-1.605-2.348-1.605
		c-0.263,0-0.263-0.191-0.263-0.407c0-0.144,0.048-0.312,0.215-0.312c0.192,0,2.276,0.096,3.785,0.096
		c2.803,0,6.301-0.096,8.049-0.096c0.551,0,0.862,0,0.91,0.191c0.623,2.204,1.054,3.234,1.054,3.378
		c0,0.145-0.144,0.168-0.359,0.168c-0.383,0-0.575-0.694-2.683-2.468c-0.359-0.312-0.934-0.551-1.653-0.551
		c-0.623,0-2.683,0.096-3.593,0.144c-0.551,0.024-0.695,0.504-0.695,1.845v5.654h1.605c2.587,0,2.779-1.055,2.827-1.318
		c0.288-1.772,0.359-1.772,0.527-1.772c0.287,0,0.455,0.024,0.455,0.168v3.594c0,1.437,0.12,2.251,0.12,2.851
		c0,0.167-0.167,0.191-0.312,0.191c-0.287,0-0.335-0.096-0.359-0.264c-0.359-2.587-0.791-2.73-3.114-2.73h-1.749v2.491
		c0,1.03,0.024,2.587,0.072,3.785c0.024,0.646,0.167,1.054,2.06,1.054c0.911,0,0.911,0.144,0.911,0.407c0,0.216,0,0.312-0.431,0.312
		c-0.168,0-0.264-0.048-3.809-0.048c-3.354,0-3.45,0.048-3.618,0.048c-0.191,0-0.191-0.096-0.191-0.312c0-0.264,0-0.407,0.503-0.407
		c1.893,0,2.036-0.407,2.06-1.054c0.048-1.198,0.072-2.755,0.072-3.785V8.507z"/>
	<path fill="#FFFFFF" d="M100.932,12.004c0-0.838-0.216-1.317-1.414-1.438c-0.191-0.023-0.215-0.119-0.215-0.287
		c0-0.191,0.072-0.312,0.191-0.335c2.731-0.552,3.067-1.174,3.354-1.174c0.048,0,0.096,0.144,0.096,0.239
		c0,0.287-0.119,0.886-0.119,2.18c0.79-0.886,2.084-2.084,3.354-2.084c0.838,0,1.533,0.455,1.533,1.342
		c0,0.622-0.479,1.197-1.174,1.197c-0.982,0-1.126-0.91-1.845-0.91c-0.407,0-1.054,0.359-1.653,1.03
		c-0.167,0.191-0.167,0.455-0.167,0.694v5.438c0,0.887,0,1.413,1.197,1.413c0.887,0,0.982,0.024,0.982,0.288
		c0,0.312-0.096,0.335-0.359,0.335c-0.862,0-1.629-0.048-2.731-0.048c-1.916,0-2.323,0.048-2.778,0.048
		c-0.168,0-0.216-0.144-0.216-0.312c0-0.239,0.288-0.312,0.743-0.312c1.031,0,1.222-0.191,1.222-1.222V12.004z"/>
	<path fill="#FFFFFF" d="M116.288,18.592c0,0.384,0.168,0.479,0.407,0.479c0.479,0,0.839-0.551,1.03-0.551
		c0.119,0,0.312,0.167,0.312,0.264c0,0.287-1.558,1.437-2.396,1.437c-0.863,0-1.055-0.551-1.318-1.389
		c-1.413,1.102-2.084,1.389-3.09,1.389c-1.869,0-2.3-1.365-2.3-2.132c0-1.222,0.719-2.228,5.414-3.977v-2.18
		c0-1.246-1.438-1.893-2.013-1.893c-0.551,0-1.7,0.862-1.7,1.102c0,0.336,0.311,0.671,0.311,1.198c0,0.263-0.215,0.91-1.174,0.91
		c-0.814,0-1.006-0.623-1.006-0.887c0-0.646,0.168-0.958,1.965-2.156c1.797-1.174,2.06-1.197,2.587-1.197
		c0.767,0,2.971,0.575,2.971,2.755V18.592z M114.348,15.047c0-0.12-0.072-0.24-0.168-0.24c-0.119,0-1.893,0.791-2.371,1.174
		c-0.671,0.504-0.791,0.863-0.791,1.749c0,0.743,0.312,1.485,1.126,1.485c0.91,0,2.204-0.838,2.204-1.27V15.047z"/>
	<path fill="#FFFFFF" d="M120.721,12.004c0-0.838-0.215-1.317-1.413-1.438c-0.191-0.023-0.216-0.119-0.216-0.287
		c0-0.191,0.072-0.312,0.191-0.335c2.731-0.552,3.066-1.174,3.354-1.174c0.048,0,0.071,0.071,0.071,0.263
		c0,0.145-0.048,0.671-0.048,1.605c0.623-0.479,2.899-1.533,4.217-1.533c1.174,0,2.013,0.575,2.611,1.557
		c1.293-0.767,2.228-1.557,3.665-1.557c0.814,0,3.162,0.12,3.162,2.923V18.4c0,0.407,0.072,0.862,1.558,0.862
		c0.239,0,0.239,0.144,0.239,0.312c0,0.144,0,0.312-0.335,0.312c-0.719,0-1.15-0.048-2.42-0.048c-1.94,0-2.324,0.048-2.516,0.048
		c-0.144,0-0.168-0.168-0.168-0.287c0-0.12,0.048-0.336,0.336-0.336c1.149,0,1.365-0.096,1.365-0.886v-6.205
		c0-0.312-0.191-1.965-2.443-1.965c-1.054,0-2.443,1.055-2.443,1.318v6.133c0,1.365,0.048,1.652,1.102,1.652
		c0.647,0,0.695,0.024,0.695,0.312c0,0.144,0,0.312-0.24,0.312c-0.119,0-0.431-0.048-2.515-0.048c-1.941,0-2.324,0.048-2.516,0.048
		c-0.144,0-0.168-0.168-0.168-0.287c0-0.12,0.048-0.336,0.335-0.336c1.15,0,1.366-0.096,1.366-0.934v-6.205
		c0-0.91-0.191-1.965-2.443-1.965c-1.055,0-2.444,1.055-2.444,1.318v6.133c0,1.365,0.048,1.652,1.103,1.652
		c0.646,0,0.694,0.024,0.694,0.312c0,0.144,0,0.312-0.239,0.312c-0.12,0-0.432-0.048-2.108-0.048c-2.252,0-2.635,0.048-2.994,0.048
		c-0.192,0-0.192-0.144-0.192-0.264c0-0.312,0.024-0.359,0.671-0.359c0.623,0,0.839-0.239,0.982-0.575
		c0.096-0.215,0.144-1.916,0.144-3.449V12.004z"/>
	<path fill="#FFFFFF" d="M141.469,13.418c-0.072,0.455-0.096,0.91-0.096,1.365c0,1.557,1.317,3.952,3.929,3.952
		c1.102,0,2.036-0.335,2.803-1.437c0.144-0.192,0.239-0.407,0.359-0.407c0.168,0,0.384,0.215,0.384,0.287s-0.959,3.042-4.121,3.042
		c-3.426,0-5.223-2.107-5.223-5.462c0-3.426,2.324-5.749,4.792-5.749c3.977,0,4.288,3.426,4.288,4.145
		c0,0.239-0.096,0.264-0.288,0.264H141.469z M145.589,12.699c0.479,0,0.814-0.145,0.814-0.791c0-1.868-1.293-2.275-2.107-2.275
		c-1.726,0-2.444,1.437-2.684,3.066H145.589z"/>
	<path fill="#FFFFFF" d="M156.466,17.322c-1.006,2.108-1.174,2.898-1.533,2.898c-0.287,0-0.358-0.335-1.174-2.443
		c-2.132-5.533-2.562-6.779-2.73-7.043c-0.264-0.431-0.623-0.599-1.317-0.599c-0.168,0-0.312,0-0.312-0.24V9.704
		c0-0.096,0.071-0.191,0.264-0.191c0.767,0,1.509,0.048,2.275,0.048c0.239,0,2.132-0.048,2.611-0.048
		c0.168,0,0.191,0.216,0.191,0.335c0,0.12-0.096,0.288-0.239,0.288c-0.191,0-1.27,0-1.27,0.551c0,0.407,2.204,5.773,2.396,6.564
		h0.048c0.216-0.575,2.18-4.265,2.18-4.624c0-0.432-0.503-1.94-0.719-2.3c-0.071-0.12-0.215-0.191-0.622-0.191
		c-0.456,0-0.527-0.096-0.527-0.336c0-0.191,0.096-0.287,0.312-0.287c0.455,0,0.742,0.048,1.868,0.048
		c0.887,0,1.605-0.048,2.3-0.048c0.168,0,0.216,0.168,0.216,0.287c0,0.145-0.024,0.336-0.287,0.336
		c-1.007,0-1.078,0.264-1.078,0.359c0,0.646,1.845,5.726,2.06,6.756h0.048c0.407-1.223,2.396-5.606,2.396-6.517
		c0-0.359-0.359-0.455-1.03-0.599c-0.168-0.024-0.312-0.096-0.312-0.336c0-0.191,0.096-0.287,0.312-0.287
		c0.312,0,0.671,0.048,2.06,0.048c0.887,0,1.342-0.048,1.558-0.048c0.168,0,0.216,0.168,0.216,0.287
		c0,0.145-0.096,0.336-0.359,0.336c-1.174,0-1.317,0.216-1.94,1.677c-0.551,1.294-3.114,7.953-3.354,8.241
		c-0.071,0.096-0.167,0.167-0.287,0.167c-0.216,0-0.312-0.167-0.359-0.335c-0.719-2.084-1.317-4.192-2.061-6.324L156.466,17.322z"/>
	<path fill="#FFFFFF" d="M172.878,20.221c-3.281,0-5.558-2.371-5.558-5.558c0-3.162,2.372-5.558,5.558-5.558
		c3.211,0,5.582,2.323,5.582,5.558C178.46,18.018,176.232,20.221,172.878,20.221z M172.878,9.729c-2.491,0-3.281,2.587-3.281,4.935
		c0,2.036,0.479,4.936,3.281,4.936c2.827,0,3.307-2.899,3.307-4.936C176.185,12.315,175.394,9.729,172.878,9.729z"/>
	<path fill="#FFFFFF" d="M181.671,12.004c0-0.838-0.216-1.317-1.413-1.438c-0.192-0.023-0.216-0.119-0.216-0.287
		c0-0.191,0.072-0.312,0.191-0.335c2.731-0.552,3.066-1.174,3.354-1.174c0.048,0,0.096,0.144,0.096,0.239
		c0,0.287-0.12,0.886-0.12,2.18c0.791-0.886,2.084-2.084,3.354-2.084c0.839,0,1.533,0.455,1.533,1.342
		c0,0.622-0.479,1.197-1.174,1.197c-0.981,0-1.126-0.91-1.845-0.91c-0.407,0-1.054,0.359-1.652,1.03
		c-0.168,0.191-0.168,0.455-0.168,0.694v5.438c0,0.887,0,1.413,1.198,1.413c0.886,0,0.981,0.024,0.981,0.288
		c0,0.312-0.096,0.335-0.359,0.335c-0.862,0-1.629-0.048-2.73-0.048c-1.917,0-2.324,0.048-2.779,0.048
		c-0.167,0-0.215-0.144-0.215-0.312c0-0.239,0.287-0.312,0.742-0.312c1.03,0,1.222-0.191,1.222-1.222V12.004z"/>
	<path fill="#FFFFFF" d="M192.811,14.472c0.695,0,1.653-0.743,3.714-2.875c0.167-0.144,0.455-0.455,0.455-0.814
		c0-0.599-0.503-0.646-1.246-0.646c-0.264,0-0.287-0.048-0.287-0.312c0-0.216,0.12-0.312,0.239-0.312
		c0.814,0,1.605,0.048,2.42,0.048c0.742,0,1.509-0.048,2.228-0.048c0.096,0,0.216,0,0.216,0.239c0,0.384-0.048,0.384-0.767,0.384
		c-0.191,0-0.742,0.119-1.749,1.006c-2.875,2.516-3.114,2.779-3.114,2.923s0.168,0.335,3.474,4.097
		c0.958,1.078,1.15,1.149,2.468,1.149c0.264,0,0.335,0.072,0.335,0.384c0,0.119-0.071,0.239-0.263,0.239
		c-0.504,0-0.959-0.048-2.899-0.048c-0.767,0-2.06,0.048-2.275,0.048s-0.216-0.072-0.216-0.335c0-0.168,0.048-0.288,0.264-0.288
		c0.096,0,0.814-0.071,0.814-0.264c0-0.239-0.407-0.551-3.019-3.641c-0.239-0.288-0.551-0.312-0.791-0.312v3.138
		c0,0.671,0.145,1.078,1.701,1.078c0.048,0,0.12,0.072,0.12,0.312c0,0.144-0.024,0.312-0.264,0.312c-0.12,0-0.432-0.048-2.108-0.048
		c-2.252,0-2.875,0.048-3.066,0.048s-0.191-0.144-0.191-0.264c0-0.312,0.023-0.359,0.12-0.359c0.096,0,1.341-0.048,1.557-0.335
		c0.191-0.264,0.191-1.414,0.191-4.647V5.943c0-2.084-0.071-2.372-1.389-2.491c-0.145-0.024-0.216-0.12-0.216-0.288
		c0-0.191,0.071-0.312,0.191-0.335c1.94-0.336,3.091-1.03,3.33-1.03c0.096,0,0.144,0.12,0.144,0.264c0,0.096-0.12,0.335-0.12,3.449
		V14.472z"/>
</g>
<g>
	<path d="M17.698,30.068c0.072-0.191,0.144-0.264,0.287-0.264c0.12,0,1.869,0.096,2.42,0.096c0.407,0,2.443-0.096,2.611-0.096
		c0.24,0,0.264,0.191,0.264,0.407s-0.096,0.312-0.288,0.312c-2.156,0-2.419,0.168-2.419,1.27c0,1.558,0.264,6.588,0.503,13.296
		c0.024,0.814,0.695,1.126,1.318,1.126c1.341,0,1.365,0.144,1.365,0.312c0,0.359-0.12,0.407-0.263,0.407
		c-0.216,0-0.479-0.048-3.809-0.048c-3.114,0-3.258,0.048-3.45,0.048c-0.264,0-0.264-0.168-0.264-0.383
		c0-0.168,0.048-0.336,1.15-0.336c1.581,0,1.605-0.383,1.605-1.342c0-1.438-0.359-9.175-0.551-13.654h-0.048
		c-1.749,4.479-3.953,9.63-5.534,13.487c-0.91,2.204-0.91,2.467-1.222,2.467s-0.359-0.215-0.862-1.868
		C9.983,43.58,6.079,32.991,5.983,32.991c-0.407,1.749-1.988,9.702-1.988,12.098c0,0.743,0.407,1.126,1.198,1.126
		c0.599,0,1.293,0.048,1.293,0.191c0,0.455,0,0.527-0.263,0.527c-0.192,0-0.432-0.048-2.899-0.048c-2.18,0-2.348,0.048-2.491,0.048
		c-0.192,0-0.264-0.023-0.264-0.407c0-0.239,0.12-0.312,1.27-0.312c0.838,0,1.006-0.312,1.27-1.677
		c0.646-3.45,1.222-6.924,1.964-10.373c0.239-1.078,0.311-1.749,0.311-2.252c0-0.144-0.335-1.03-0.623-1.198
		c-0.192-0.119-1.318-0.191-2.061-0.191c-0.287,0-0.287-0.191-0.287-0.359c0-0.191,0.048-0.359,0.263-0.359
		c0.456,0,2.516,0.096,2.779,0.096c0.623,0,1.629-0.096,1.94-0.096c0.263,0,0.335,0.264,0.575,1.126
		c0.503,1.797,3.977,11.499,4.408,12.386C14.176,39.076,15.997,34.692,17.698,30.068z"/>
	<path d="M28.36,44.658c0,1.365,0.048,1.652,1.102,1.652c0.527,0,0.575,0.024,0.575,0.312c0,0.144,0,0.312-0.24,0.312
		c-0.12,0-0.431-0.048-1.988-0.048c-2.252,0-2.875,0.048-3.234,0.048c-0.191,0-0.191-0.144-0.191-0.264
		c0-0.312,0.024-0.359,0.91-0.359c0.623,0,0.838-0.239,0.982-0.574c0.096-0.216,0.144-1.917,0.144-3.45v-3.282
		c0-0.838-0.215-1.317-1.414-1.438c-0.191-0.023-0.215-0.119-0.215-0.287c0-0.191,0.072-0.312,0.191-0.335
		c2.731-0.552,3.066-1.175,3.354-1.175c0.096,0,0.144,0.12,0.144,0.264c0,0.096-0.12,0.336-0.12,3.45V44.658z M26.132,31.17
		c0-0.646,0.527-1.27,1.246-1.27c0.718,0,1.246,0.623,1.246,1.27c0,0.647-0.527,1.271-1.246,1.271
		C26.66,32.44,26.132,31.817,26.132,31.17z"/>
	<path d="M37.249,46.167c1.174,0,1.773,0,2.252-0.862l0.791-1.317c0.288-0.479,0.335-0.6,0.623-0.6c0.144,0,0.263,0.097,0.263,0.264
		c0,0.096-0.431,1.414-0.767,2.875c-0.096,0.407-0.383,0.407-0.695,0.407c-0.311,0-1.174-0.048-2.515-0.048h-5.223
		c-0.215,0-0.312-0.072-0.312-0.191c0-0.096,0.072-0.192,0.144-0.312c1.677-2.995,3.785-6.085,5.917-9.104
		c-0.814-0.024-1.317-0.048-1.869-0.048c-1.317,0-2.587,0.023-3.21,1.461c-0.288,0.671-0.407,0.719-0.647,0.719
		c-0.12,0-0.263-0.071-0.263-0.216c0-0.335,0.479-1.629,0.599-2.97c0-0.072,0.072-0.24,0.24-0.24c0.239,0,0.431,0.336,0.599,0.455
		c0.168,0.12,1.078,0.12,1.869,0.12c2.635,0,4.839-0.12,5.151-0.12c0.048,0,0.215,0.048,0.215,0.12c0,0.216-0.814,0.982-2.755,4.024
		c-0.407,0.647-2.3,3.33-3.689,5.582H37.249z"/>
	<path d="M47.886,46.167c1.174,0,1.773,0,2.252-0.862l0.791-1.317c0.288-0.479,0.335-0.6,0.623-0.6c0.144,0,0.263,0.097,0.263,0.264
		c0,0.096-0.431,1.414-0.767,2.875c-0.096,0.407-0.383,0.407-0.695,0.407c-0.311,0-1.174-0.048-2.515-0.048h-5.223
		c-0.215,0-0.312-0.072-0.312-0.191c0-0.096,0.072-0.192,0.144-0.312c1.677-2.995,3.785-6.085,5.917-9.104
		c-0.814-0.024-1.317-0.048-1.869-0.048c-1.317,0-2.587,0.023-3.21,1.461c-0.288,0.671-0.407,0.719-0.647,0.719
		c-0.12,0-0.263-0.071-0.263-0.216c0-0.335,0.479-1.629,0.599-2.97c0-0.072,0.072-0.24,0.24-0.24c0.239,0,0.431,0.336,0.599,0.455
		c0.168,0.12,1.078,0.12,1.869,0.12c2.635,0,4.839-0.12,5.151-0.12c0.048,0,0.215,0.048,0.215,0.12c0,0.216-0.814,0.982-2.755,4.024
		c-0.407,0.647-2.3,3.33-3.689,5.582H47.886z"/>
	<path d="M58.428,47.221c-3.282,0-5.558-2.371-5.558-5.558c0-3.162,2.372-5.558,5.558-5.558c3.21,0,5.582,2.323,5.582,5.558
		C64.009,45.018,61.781,47.221,58.428,47.221z M58.428,36.729c-2.492,0-3.282,2.587-3.282,4.935c0,2.036,0.479,4.936,3.282,4.936
		c2.827,0,3.306-2.899,3.306-4.936C61.733,39.315,60.943,36.729,58.428,36.729z"/>
	<path d="M67.005,39.459c0-2.107-0.24-2.252-1.485-2.252c-0.192,0-0.527,0-0.527-0.239c0-0.191,0-0.479,0.264-0.479
		c0.24,0,0.623,0.072,1.414,0.072c0.838,0,1.749-0.072,2.084-0.072c0.144,0,0.192,0,0.192,0.336v6.468
		c0,1.797,0.575,2.827,2.348,2.827c0.862,0,2.372-0.527,2.372-1.27v-6.205c0-1.293-0.24-1.438-1.485-1.438
		c-0.431,0-0.767,0-0.767-0.239c0-0.359,0-0.479,0.167-0.479c0.335,0,0.623,0.072,2.084,0.072c0.599,0,1.222-0.072,1.821-0.072
		c0.215,0,0.335,0.097,0.335,0.336c0,0.096-0.216,1.94-0.216,3.642v4.503c0,0.384,0,0.887,0.599,0.887
		c0.335,0,0.862-0.096,1.03-0.096c0.096,0,0.144,0,0.144,0.455c0,0.144-0.024,0.191-0.791,0.312
		c-2.037,0.335-2.611,0.623-2.755,0.623c-0.167,0-0.287-0.168-0.287-0.336c0-0.287,0.048-0.67,0.072-0.91
		c-1.198,0.887-2.659,1.317-3.57,1.317c-2.372,0-3.042-1.533-3.042-4.024V39.459z"/>
	<path d="M87.226,35.507c0-1.701-0.024-2.276-0.048-3.378c-0.024-1.414-0.431-1.605-2.348-1.605c-0.263,0-0.263-0.191-0.263-0.407
		c0-0.144,0.048-0.312,0.215-0.312c0.192,0,2.276,0.096,3.785,0.096c2.803,0,6.3-0.096,8.049-0.096c0.551,0,0.862,0,0.91,0.191
		c0.623,2.204,1.054,3.234,1.054,3.378c0,0.145-0.144,0.168-0.359,0.168c-0.383,0-0.575-0.694-2.683-2.468
		c-0.359-0.312-0.934-0.551-1.653-0.551c-0.623,0-2.683,0.096-3.593,0.144c-0.551,0.024-0.695,0.503-0.695,1.845v5.654h1.605
		c2.587,0,2.779-1.055,2.827-1.318c0.288-1.772,0.359-1.772,0.527-1.772c0.287,0,0.455,0.024,0.455,0.168v3.593
		c0,1.438,0.12,2.252,0.12,2.852c0,0.167-0.167,0.191-0.312,0.191c-0.287,0-0.335-0.096-0.359-0.264
		c-0.359-2.587-0.791-2.73-3.114-2.73h-1.749v2.491c0,1.03,0.024,2.587,0.072,3.785c0.024,0.646,0.167,1.054,2.06,1.054
		c0.911,0,0.911,0.144,0.911,0.407c0,0.216,0,0.312-0.431,0.312c-0.168,0-0.264-0.048-3.809-0.048c-3.354,0-3.45,0.048-3.618,0.048
		c-0.191,0-0.191-0.096-0.191-0.312c0-0.264,0-0.407,0.503-0.407c1.893,0,2.036-0.407,2.06-1.054
		c0.048-1.198,0.072-2.755,0.072-3.785V35.507z"/>
	<path d="M100.93,39.004c0-0.838-0.215-1.317-1.414-1.438c-0.191-0.023-0.215-0.119-0.215-0.287c0-0.191,0.072-0.312,0.191-0.335
		c2.731-0.552,3.066-1.175,3.354-1.175c0.048,0,0.096,0.145,0.096,0.24c0,0.287-0.12,0.886-0.12,2.18
		c0.791-0.887,2.084-2.084,3.354-2.084c0.839,0,1.533,0.455,1.533,1.342c0,0.623-0.479,1.197-1.174,1.197
		c-0.981,0-1.126-0.91-1.845-0.91c-0.407,0-1.054,0.359-1.652,1.03c-0.168,0.191-0.168,0.455-0.168,0.694v5.438
		c0,0.887,0,1.413,1.198,1.413c0.886,0,0.981,0.024,0.981,0.288c0,0.312-0.096,0.335-0.359,0.335c-0.862,0-1.629-0.048-2.73-0.048
		c-1.917,0-2.324,0.048-2.779,0.048c-0.168,0-0.216-0.144-0.216-0.312c0-0.239,0.288-0.312,0.743-0.312
		c1.03,0,1.222-0.191,1.222-1.222V39.004z"/>
	<path d="M116.286,45.592c0,0.384,0.168,0.479,0.407,0.479c0.479,0,0.839-0.551,1.03-0.551c0.119,0,0.312,0.167,0.312,0.264
		c0,0.287-1.558,1.437-2.396,1.437c-0.863,0-1.055-0.551-1.318-1.389c-1.413,1.102-2.084,1.389-3.09,1.389
		c-1.869,0-2.3-1.365-2.3-2.132c0-1.222,0.719-2.228,5.414-3.977v-2.18c0-1.246-1.438-1.893-2.013-1.893
		c-0.551,0-1.7,0.862-1.7,1.102c0,0.336,0.311,0.671,0.311,1.198c0,0.264-0.215,0.91-1.174,0.91c-0.814,0-1.006-0.623-1.006-0.887
		c0-0.646,0.168-0.958,1.965-2.156c1.797-1.174,2.06-1.197,2.587-1.197c0.767,0,2.971,0.575,2.971,2.755V45.592z M114.346,42.047
		c0-0.12-0.072-0.24-0.168-0.24c-0.119,0-1.893,0.791-2.371,1.174c-0.671,0.504-0.791,0.863-0.791,1.749
		c0,0.743,0.312,1.485,1.126,1.485c0.91,0,2.204-0.838,2.204-1.27V42.047z"/>
	<path d="M120.719,39.004c0-0.838-0.215-1.317-1.413-1.438c-0.191-0.023-0.216-0.119-0.216-0.287c0-0.191,0.072-0.312,0.191-0.335
		c2.731-0.552,3.066-1.175,3.354-1.175c0.048,0,0.071,0.072,0.071,0.264c0,0.145-0.048,0.671-0.048,1.605
		c0.623-0.479,2.899-1.533,4.217-1.533c1.174,0,2.013,0.575,2.611,1.557c1.293-0.767,2.228-1.557,3.665-1.557
		c0.814,0,3.162,0.12,3.162,2.923V45.4c0,0.407,0.072,0.862,1.558,0.862c0.239,0,0.239,0.144,0.239,0.312
		c0,0.144,0,0.312-0.335,0.312c-0.719,0-1.15-0.048-2.42-0.048c-1.94,0-2.324,0.048-2.516,0.048c-0.144,0-0.168-0.168-0.168-0.287
		c0-0.12,0.048-0.336,0.336-0.336c1.149,0,1.365-0.096,1.365-0.886v-6.205c0-0.312-0.191-1.965-2.443-1.965
		c-1.054,0-2.443,1.055-2.443,1.318v6.133c0,1.365,0.048,1.652,1.102,1.652c0.647,0,0.695,0.024,0.695,0.312
		c0,0.144,0,0.312-0.24,0.312c-0.119,0-0.431-0.048-2.515-0.048c-1.941,0-2.324,0.048-2.516,0.048c-0.144,0-0.168-0.168-0.168-0.287
		c0-0.12,0.048-0.336,0.335-0.336c1.15,0,1.366-0.096,1.366-0.934v-6.205c0-0.91-0.191-1.965-2.443-1.965
		c-1.055,0-2.444,1.055-2.444,1.318v6.133c0,1.365,0.048,1.652,1.103,1.652c0.646,0,0.694,0.024,0.694,0.312
		c0,0.144,0,0.312-0.239,0.312c-0.12,0-0.432-0.048-2.108-0.048c-2.252,0-2.635,0.048-2.994,0.048c-0.192,0-0.192-0.144-0.192-0.264
		c0-0.312,0.024-0.359,0.671-0.359c0.623,0,0.839-0.239,0.982-0.574c0.096-0.216,0.144-1.917,0.144-3.45V39.004z"/>
	<path d="M141.467,40.418c-0.072,0.455-0.096,0.91-0.096,1.365c0,1.557,1.317,3.953,3.929,3.953c1.102,0,2.036-0.336,2.803-1.438
		c0.144-0.192,0.239-0.407,0.359-0.407c0.168,0,0.384,0.215,0.384,0.287s-0.959,3.042-4.121,3.042c-3.426,0-5.223-2.107-5.223-5.462
		c0-3.426,2.324-5.749,4.792-5.749c3.977,0,4.288,3.426,4.288,4.145c0,0.239-0.096,0.264-0.288,0.264H141.467z M145.587,39.699
		c0.479,0,0.814-0.145,0.814-0.791c0-1.868-1.293-2.275-2.107-2.275c-1.726,0-2.444,1.438-2.684,3.066H145.587z"/>
	<path d="M156.464,44.322c-1.006,2.108-1.174,2.898-1.533,2.898c-0.287,0-0.358-0.335-1.174-2.443
		c-2.132-5.533-2.562-6.779-2.73-7.043c-0.264-0.432-0.623-0.599-1.317-0.599c-0.168,0-0.312,0-0.312-0.24v-0.191
		c0-0.096,0.071-0.191,0.264-0.191c0.767,0,1.509,0.048,2.275,0.048c0.239,0,2.132-0.048,2.611-0.048
		c0.168,0,0.191,0.216,0.191,0.335c0,0.12-0.096,0.288-0.239,0.288c-0.191,0-1.27,0-1.27,0.551c0,0.407,2.204,5.773,2.396,6.564
		h0.048c0.216-0.575,2.18-4.265,2.18-4.624c0-0.432-0.503-1.94-0.719-2.3c-0.071-0.12-0.215-0.191-0.622-0.191
		c-0.456,0-0.527-0.096-0.527-0.336c0-0.191,0.096-0.287,0.312-0.287c0.455,0,0.742,0.048,1.868,0.048
		c0.887,0,1.605-0.048,2.3-0.048c0.168,0,0.216,0.168,0.216,0.287c0,0.145-0.024,0.336-0.287,0.336
		c-1.007,0-1.078,0.264-1.078,0.359c0,0.646,1.845,5.726,2.06,6.756h0.048c0.407-1.223,2.396-5.606,2.396-6.517
		c0-0.359-0.359-0.455-1.03-0.599c-0.168-0.024-0.312-0.096-0.312-0.336c0-0.191,0.096-0.287,0.312-0.287
		c0.312,0,0.671,0.048,2.06,0.048c0.887,0,1.342-0.048,1.558-0.048c0.168,0,0.216,0.168,0.216,0.287
		c0,0.145-0.096,0.336-0.359,0.336c-1.174,0-1.317,0.216-1.94,1.677c-0.551,1.294-3.114,7.953-3.354,8.241
		c-0.071,0.096-0.167,0.167-0.287,0.167c-0.216,0-0.312-0.167-0.359-0.335c-0.719-2.084-1.317-4.192-2.061-6.324L156.464,44.322z"/>
	<path d="M172.876,47.221c-3.281,0-5.558-2.371-5.558-5.558c0-3.162,2.372-5.558,5.558-5.558c3.211,0,5.582,2.323,5.582,5.558
		C178.458,45.018,176.23,47.221,172.876,47.221z M172.876,36.729c-2.491,0-3.281,2.587-3.281,4.935c0,2.036,0.479,4.936,3.281,4.936
		c2.827,0,3.307-2.899,3.307-4.936C176.183,39.315,175.392,36.729,172.876,36.729z"/>
	<path d="M181.669,39.004c0-0.838-0.216-1.317-1.413-1.438c-0.192-0.023-0.216-0.119-0.216-0.287c0-0.191,0.072-0.312,0.191-0.335
		c2.731-0.552,3.066-1.175,3.354-1.175c0.048,0,0.096,0.145,0.096,0.24c0,0.287-0.12,0.886-0.12,2.18
		c0.791-0.887,2.084-2.084,3.354-2.084c0.839,0,1.533,0.455,1.533,1.342c0,0.623-0.479,1.197-1.174,1.197
		c-0.981,0-1.126-0.91-1.845-0.91c-0.407,0-1.054,0.359-1.652,1.03c-0.168,0.191-0.168,0.455-0.168,0.694v5.438
		c0,0.887,0,1.413,1.198,1.413c0.886,0,0.981,0.024,0.981,0.288c0,0.312-0.096,0.335-0.359,0.335c-0.862,0-1.629-0.048-2.73-0.048
		c-1.917,0-2.324,0.048-2.779,0.048c-0.167,0-0.215-0.144-0.215-0.312c0-0.239,0.287-0.312,0.742-0.312
		c1.03,0,1.222-0.191,1.222-1.222V39.004z"/>
	<path d="M192.81,41.472c0.695,0,1.653-0.743,3.714-2.875c0.168-0.144,0.455-0.455,0.455-0.814c0-0.599-0.503-0.646-1.246-0.646
		c-0.264,0-0.287-0.048-0.287-0.312c0-0.216,0.12-0.312,0.239-0.312c0.814,0,1.605,0.048,2.42,0.048
		c0.742,0,1.509-0.048,2.228-0.048c0.096,0,0.216,0,0.216,0.239c0,0.384-0.048,0.384-0.767,0.384c-0.191,0-0.742,0.119-1.749,1.006
		c-2.874,2.516-3.114,2.779-3.114,2.923s0.168,0.335,3.474,4.097c0.958,1.078,1.15,1.149,2.468,1.149
		c0.264,0,0.335,0.072,0.335,0.384c0,0.119-0.071,0.239-0.263,0.239c-0.504,0-0.959-0.048-2.899-0.048
		c-0.767,0-2.06,0.048-2.275,0.048s-0.216-0.072-0.216-0.335c0-0.168,0.048-0.288,0.264-0.288c0.096,0,0.814-0.071,0.814-0.264
		c0-0.239-0.407-0.551-3.019-3.641c-0.239-0.288-0.551-0.312-0.791-0.312v3.138c0,0.671,0.145,1.078,1.701,1.078
		c0.048,0,0.12,0.072,0.12,0.312c0,0.144-0.024,0.312-0.264,0.312c-0.12,0-0.432-0.048-2.108-0.048
		c-2.252,0-2.875,0.048-3.066,0.048s-0.191-0.144-0.191-0.264c0-0.312,0.024-0.359,0.12-0.359s1.341-0.048,1.557-0.335
		c0.191-0.264,0.191-1.414,0.191-4.647v-8.385c0-2.084-0.071-2.372-1.389-2.491c-0.145-0.024-0.216-0.12-0.216-0.288
		c0-0.191,0.071-0.312,0.191-0.335c1.94-0.336,3.091-1.03,3.33-1.03c0.096,0,0.144,0.12,0.144,0.264c0,0.096-0.12,0.335-0.12,3.449
		V41.472z"/>
</g>
</svg>
