<?xml version="1.0" encoding="utf-8"?>
<!-- Generator: Adobe Illustrator 18.1.1, SVG Export Plug-In . SVG Version: 6.00 Build 0)  -->
<!DOCTYPE svg PUBLIC "-//W3C//DTD SVG 1.0//EN" "http://www.w3.org/TR/2001/REC-SVG-20010904/DTD/svg10.dtd">
<svg version="1.0" id="Layer_1" xmlns="http://www.w3.org/2000/svg" xmlns:xlink="http://www.w3.org/1999/xlink" x="0px" y="0px"
	 width="66px" height="74px" viewBox="0 0 66 74" enable-background="new 0 0 66 74" xml:space="preserve">
<g>
	<path d="M65,56.73V1H37.25L33,10.59L28.75,1H1v55.73C1,60.44,3.08,73,33,73S65,60.44,65,56.73z"/>
</g>
<path fill="#F1B82D" d="M42,51.82v-5.33c0-1.08-0.66-1.92-2-2.64V40l0,0h17v3.82c-1.34,0.72-2,1.56-2,2.64v4.76
	C54.83,54.96,56.06,64,33,64c-22.96,0-21.88-9.04-22-12.78v-4.76c0-1.08-0.66-1.92-2-2.64V40h17l0,0v3.85c-1.35,0.72-2,1.56-2,2.64
	v5.33c0.06,0.84-0.63,4.18,8.98,4.18S41.94,52.65,42,51.82z"/>
<path fill="#F1B82D" d="M32.98,23.57L40.9,9H57v4.04c-1.35,0.72-2,1.57-2,2.65V27c0,1.08,0.65,1.92,2,2.64V34H42v-4.39
	c1.34-0.72,2-1.56,2-2.64v-8.62L34.83,34h-3.7L22,18.35v8.62c0,1.08,0.65,1.92,2,2.64V34H9v-4.36c1.34-0.72,2-1.56,2-2.64V15.69
	c0-1.08-0.66-1.93-2-2.65V9h16.07L32.98,23.57"/>
<g>
</g>
<g>
</g>
<g>
</g>
<g>
</g>
<g>
</g>
<g>
</g>
<g>
</g>
<g>
</g>
<g>
</g>
<g>
</g>
<g>
</g>
<g>
</g>
<g>
</g>
<g>
</g>
<g>
</g>
</svg>
