<svg xmlns="http://www.w3.org/2000/svg" width="176" height="39.588" viewBox="0 0 176 39.588"><defs><style>.a{fill:#231f20;}.b{fill:#900000;}</style></defs><title>mu-wordmark-black-extra-small</title><path class="a" d="M3.958,9.264c0,2.445,1.022,4.579,4.087,4.579,2.134,0,3.977-1.186,3.977-5.527V4.7c0-2.535-.529-2.535-2.408-2.535-0.146,0-.146-0.11-0.146-0.274,0-.219.055-0.274,0.146-0.274,0.31,0,1.5.073,2.681,0.073,0.566,0,2.116-.073,2.372-0.073,0.182,0,.255.036,0.255,0.31a0.2,0.2,0,0,1-.164.237c-1.751,0-2.116,0-2.116,2.152V8.643c0,4.925-3.138,6.239-5.254,6.239-4.086,0-5.235-2.736-5.235-4.743V5.962c0-1.295-.018-1.734-0.037-2.572C2.1,2.314,1.788,2.168.2,2.168,0,2.168,0,2.022,0,1.858A0.2,0.2,0,0,1,.164,1.62c0.146,0,1.734.073,2.882,0.073,1.168,0,2.754-.073,2.9-0.073a0.2,0.2,0,0,1,.164.237c0,0.164,0,.31-0.2.31-1.587,0-1.9.146-1.915,1.222-0.019.839-.037,1.277-0.037,2.572v3.3Z" transform="translate(0 -1)"/><path class="a" d="M18.02,12.93c0,1.04.036,1.259,0.839,1.259,0.492,0,.529.018,0.529,0.237,0,0.109,0,.237-0.183.237-0.091,0-.329-0.036-1.606-0.036-1.714,0-2.188.036-2.462,0.036-0.145,0-.145-0.109-0.145-0.2,0-.237.018-0.274,0.693-0.274a0.681,0.681,0,0,0,.747-0.438,18.394,18.394,0,0,0,.11-2.627v-2.5a0.947,0.947,0,0,0-1.077-1.094A0.171,0.171,0,0,1,15.3,7.312a0.225,0.225,0,0,1,.145-0.256A8.137,8.137,0,0,0,18,6.163c0.037,0,.055.055,0.055,0.2,0,0.11-.036.511-0.036,1.314a5.538,5.538,0,0,1,2.864-1.259c0.62,0,2.408.128,2.408,2.737v4.378c0,0.31.055,0.657,1.186,0.657,0.182,0,.182.11,0.182,0.237,0,0.109,0,.237-0.255.237-0.548,0-.876-0.036-1.843-0.036-1.477,0-1.77.036-1.915,0.036-0.11,0-.127-0.128-0.127-0.219a0.235,0.235,0,0,1,.255-0.255c0.875,0,1.04-.073,1.04-0.675V10.249c0-1.7-.146-2.827-2.043-2.827a2.706,2.706,0,0,0-1.751.839v4.67Z" transform="translate(0 -1)"/><path class="a" d="M28.252,12.93c0,1.04.036,1.259,0.839,1.259,0.4,0,.438.018,0.438,0.237,0,0.109,0,.237-0.182.237-0.091,0-.329-0.036-1.514-0.036-1.715,0-2.189.036-2.463,0.036-0.146,0-.146-0.109-0.146-0.2,0-.237.019-0.274,0.694-0.274a0.682,0.682,0,0,0,.747-0.438,18.406,18.406,0,0,0,.11-2.627v-2.5A0.947,0.947,0,0,0,25.7,7.531a0.171,0.171,0,0,1-.163-0.219,0.225,0.225,0,0,1,.145-0.256,8.144,8.144,0,0,0,2.554-.893c0.073,0,.11.091,0.11,0.2a16.482,16.482,0,0,0-.091,2.627v3.94Zm-1.7-10.27a0.949,0.949,0,1,1,.948.967A0.97,0.97,0,0,1,26.556,2.66Z" transform="translate(0 -1)"/><path class="a" d="M36.624,7.731C36.624,7.2,35.675,7.2,35.4,7.2a0.208,0.208,0,0,1-.164-0.255,0.226,0.226,0,0,1,.237-0.219c0.493,0,1.058.036,1.569,0.036,0.529,0,1.076-.036,1.605-0.036a0.188,0.188,0,0,1,.164.219,0.167,0.167,0,0,1-.182.2c-1.058.165-1.112,0.237-1.7,1.66-0.639,1.569-1.734,3.868-2.062,4.634-0.511,1.222-.675,1.441-0.821,1.441-0.2,0-.328-0.383-0.693-1.167C32.72,12.347,31.206,7.9,30.951,7.531a0.626,0.626,0,0,0-.638-0.292c-0.492,0-.566-0.055-0.566-0.31a0.192,0.192,0,0,1,.2-0.2c0.583,0,1.149.036,1.733,0.036,0.364,0,1.805-.036,2.17-0.036,0.128,0,.146.165,0.146,0.255a0.217,0.217,0,0,1-.183.219c-0.548,0-1.058.055-1.058,0.438a33.671,33.671,0,0,0,1.86,5.09C36.332,8.917,36.624,8.224,36.624,7.731Z" transform="translate(0 -1)"/><path class="a" d="M40.181,9.7a6.608,6.608,0,0,0-.073,1.04,3.075,3.075,0,0,0,2.991,3.01,2.379,2.379,0,0,0,2.134-1.095,0.665,0.665,0,0,1,.274-0.31,0.383,0.383,0,0,1,.292.218,3.331,3.331,0,0,1-3.137,2.317c-2.608,0-3.977-1.605-3.977-4.159,0-2.609,1.77-4.378,3.648-4.378A3.053,3.053,0,0,1,45.6,9.5c0,0.182-.073.2-0.219,0.2h-5.2Zm3.137-.547a0.523,0.523,0,0,0,.62-0.6,1.541,1.541,0,0,0-1.606-1.733c-1.313,0-1.861,1.095-2.043,2.335h3.028Z" transform="translate(0 -1)"/><path class="a" d="M48.15,8.625a0.946,0.946,0,0,0-1.076-1.094,0.171,0.171,0,0,1-.164-0.219,0.225,0.225,0,0,1,.146-0.256,8.128,8.128,0,0,0,2.554-.893,0.213,0.213,0,0,1,.073.183c0,0.219-.091.675-0.091,1.66a4.076,4.076,0,0,1,2.553-1.587A1.038,1.038,0,0,1,53.312,7.44a0.9,0.9,0,0,1-.893.912c-0.747,0-.857-0.693-1.4-0.693a2.048,2.048,0,0,0-1.259.784,0.769,0.769,0,0,0-.128.529v4.14c0,0.675,0,1.077.912,1.077,0.675,0,.748.018,0.748,0.219,0,0.237-.073.255-0.274,0.255-0.657,0-1.24-.036-2.079-0.036-1.46,0-1.77.036-2.116,0.036-0.128,0-.165-0.109-0.165-0.237,0-.183.219-0.237,0.565-0.237,0.784,0,.93-0.146.93-0.931V8.625Z" transform="translate(0 -1)"/><path class="a" d="M59.532,12.4c0,0.893-.474,2.481-2.974,2.481-0.328,0-1.386-.146-2.1-0.146a0.117,0.117,0,0,1-.091-0.091c-0.018-.182-0.419-1.787-0.419-1.969,0-.11.255-0.11,0.328-0.11,0.438,0,.548,1.843,2.3,1.843a1.554,1.554,0,0,0,1.66-1.624c0-1.915-4.087-1.3-4.087-3.886a2.56,2.56,0,0,1,2.773-2.481,14.715,14.715,0,0,1,1.97.164,0.519,0.519,0,0,1,.273.511c0.036,0.747.2,1.222,0.2,1.459a0.171,0.171,0,0,1-.2.146A0.321,0.321,0,0,1,58.8,8.443a2.148,2.148,0,0,0-1.9-1.55,1.318,1.318,0,0,0-1.46,1.368A1.386,1.386,0,0,0,56.3,9.483C58.218,10.395,59.532,10.34,59.532,12.4Z" transform="translate(0 -1)"/><path class="a" d="M63.471,12.93c0,1.04.036,1.259,0.838,1.259,0.4,0,.438.018,0.438,0.237,0,0.109,0,.237-0.182.237-0.091,0-.329-0.036-1.514-0.036-1.714,0-2.188.036-2.462,0.036-0.146,0-.146-0.109-0.146-0.2,0-.237.018-0.274,0.693-0.274a0.682,0.682,0,0,0,.748-0.438,18.528,18.528,0,0,0,.109-2.627v-2.5a0.946,0.946,0,0,0-1.076-1.094,0.171,0.171,0,0,1-.164-0.219A0.226,0.226,0,0,1,60.9,7.056a8.144,8.144,0,0,0,2.553-.893,0.167,0.167,0,0,1,.11.2,16.517,16.517,0,0,0-.091,2.627v3.94Zm-1.7-10.27a0.949,0.949,0,1,1,.948.967A0.969,0.969,0,0,1,61.775,2.66Z" transform="translate(0 -1)"/><path class="a" d="M67.884,11.417c0,1.933.164,2.626,1.605,2.626a3,3,0,0,0,1.24-.419,0.362,0.362,0,0,1,.2.292,2.777,2.777,0,0,1-2.426.966,1.985,1.985,0,0,1-2.1-2.262v-4.8a0.192,0.192,0,0,0-.183-0.237H65.312A0.138,0.138,0,0,1,65.2,7.421a0.319,0.319,0,0,1,.109-0.255c1.7-1.277,2.043-2.244,2.408-2.244a0.216,0.216,0,0,1,.219.237c0,0.328-.055.638-0.055,1.679h2.809c0.128,0,.183.127,0.183,0.383a0.424,0.424,0,0,1-.492.456c-0.127,0-.985-0.091-2.5-0.091v3.831Z" transform="translate(0 -1)"/><path class="a" d="M78.9,7.823c0-.6-0.858-0.62-1.406-0.62-0.163,0-.181-0.091-0.181-0.237a0.212,0.212,0,0,1,.164-0.237c0.583,0,1.186.036,1.769,0.036,0.565,0,1.131-.036,1.7-0.036,0.127,0,.127.165,0.127,0.237,0,0.165-.055.219-0.31,0.237a1.094,1.094,0,0,0-1.149.8c-0.657,1.514-3.174,6.8-3.575,7.826-1.405,3.521-2.007,3.758-2.608,3.758a1.031,1.031,0,1,1,.036-2.061,3.967,3.967,0,0,1,.912.309c0.328,0,1.186-1.751,1.186-2.609a8.746,8.746,0,0,0-.638-2.043c-1.149-2.955-1.5-4.542-1.88-5.563a1.577,1.577,0,0,0-1.312-.42,0.206,0.206,0,0,1-.165-0.255,0.2,0.2,0,0,1,.2-0.219c0.218,0,1.368.036,2.024,0.036,0.621,0,1.259-.036,1.806-0.036a0.2,0.2,0,0,1,.219.237,0.22,0.22,0,0,1-.183.237c-0.109,0-.894,0-0.894.4,0,0.876.62,2.681,1.806,5.728A37.145,37.145,0,0,0,78.9,7.823Z" transform="translate(0 -1)"/><path class="a" d="M90.317,14.882a4.081,4.081,0,0,1-4.232-4.232,4.241,4.241,0,0,1,8.482,0A4,4,0,0,1,90.317,14.882Zm0-7.989c-1.9,0-2.5,1.97-2.5,3.757,0,1.551.364,3.758,2.5,3.758,2.153,0,2.517-2.207,2.517-3.758C92.834,8.862,92.232,6.893,90.317,6.893Z" transform="translate(0 -1)"/><path class="a" d="M98.724,13.112c0,0.675,0,1.077.913,1.077,0.675,0,.748.018,0.748,0.219,0,0.237-.073.255-0.274,0.255-0.657,0-1.24-.036-2.079-0.036-1.459,0-1.769.036-1.933,0.036-0.128,0-.165-0.109-0.165-0.237,0-.183.036-0.237,0.382-0.237,0.784,0,.931-0.146.931-0.931V8.169c0-.219,0-0.583-0.347-0.583h-1c-0.128,0-.219,0-0.219-0.237,0-.146.127-0.219,0.565-0.31,0.712-.164.894-0.2,0.948-1.022,0.183-2.772,1-4.3,3.157-4.87A5.471,5.471,0,0,1,101.461,1a0.987,0.987,0,0,1,1.149.784,0.815,0.815,0,0,1-.857.894,1.631,1.631,0,0,1-1-.419,1.681,1.681,0,0,0-.8-0.42c-1.04,0-1.223,1.514-1.223,2.646V6.838h2.262c0.128,0,.182.127,0.182,0.383a0.423,0.423,0,0,1-.492.456c-0.127,0-1.532-.091-1.953-0.091v5.526Z" transform="translate(0 -1)"/><path class="a" d="M121.36,1.821a0.227,0.227,0,0,1,.218-0.2c0.092,0,1.423.073,1.843,0.073,0.31,0,1.86-.073,1.988-0.073,0.182,0,.2.146,0.2,0.31a0.2,0.2,0,0,1-.219.237c-1.642,0-1.842.128-1.842,0.967,0,1.185.2,5.016,0.383,10.124a0.9,0.9,0,0,0,1,.858c1.021,0,1.039.109,1.039,0.237,0,0.274-.091.31-0.2,0.31-0.165,0-.365-0.036-2.9-0.036-2.371,0-2.481.036-2.626,0.036-0.2,0-.2-0.128-0.2-0.292,0-.128.036-0.255,0.876-0.255,1.2,0,1.222-.292,1.222-1.022,0-1.095-.274-6.987-0.42-10.4h-0.036c-1.331,3.411-3.01,7.334-4.213,10.27-0.693,1.678-.693,1.879-0.93,1.879s-0.274-.164-0.657-1.422c-0.4-1.314-3.374-9.377-3.448-9.377a75.4,75.4,0,0,0-1.513,9.212,0.788,0.788,0,0,0,.912.858,1.733,1.733,0,0,1,.986.145c0,0.347,0,.4-0.2.4-0.146,0-.328-0.036-2.207-0.036-1.66,0-1.788.036-1.9,0.036-0.146,0-.2-0.019-0.2-0.31,0-.182.091-0.237,0.967-0.237,0.638,0,.766-0.237.967-1.277,0.492-2.627.929-5.272,1.5-7.9a8,8,0,0,0,.237-1.715,1.917,1.917,0,0,0-.475-0.912,6.188,6.188,0,0,0-1.568-.146c-0.219,0-.219-0.146-0.219-0.274,0-.146.036-0.274,0.2-0.274,0.347,0,1.916.073,2.117,0.073,0.474,0,1.24-.073,1.478-0.073,0.2,0,.255.2,0.438,0.857,0.382,1.368,3.028,8.756,3.356,9.431C118.678,8.68,120.064,5.342,121.36,1.821Z" transform="translate(0 -1)"/><path class="a" d="M129.474,12.93c0,1.04.036,1.259,0.839,1.259,0.4,0,.438.018,0.438,0.237,0,0.109,0,.237-0.183.237-0.091,0-.328-0.036-1.513-0.036-1.715,0-2.189.036-2.463,0.036-0.146,0-.146-0.109-0.146-0.2,0-.237.018-0.274,0.693-0.274a0.682,0.682,0,0,0,.747-0.438,18.346,18.346,0,0,0,.11-2.627v-2.5a0.947,0.947,0,0,0-1.077-1.094,0.171,0.171,0,0,1-.164-0.219,0.226,0.226,0,0,1,.146-0.256,8.139,8.139,0,0,0,2.554-.893c0.074,0,.11.091,0.11,0.2a16.552,16.552,0,0,0-.091,2.627v3.94Zm-1.7-10.27a0.949,0.949,0,1,1,.949.967A0.97,0.97,0,0,1,127.777,2.66Z" transform="translate(0 -1)"/><path class="a" d="M137.353,12.4c0,0.893-.474,2.481-2.974,2.481-0.328,0-1.386-.146-2.1-0.146a0.116,0.116,0,0,1-.091-0.091c-0.018-.182-0.419-1.787-0.419-1.969,0-.11.256-0.11,0.328-0.11,0.438,0,.548,1.843,2.3,1.843a1.554,1.554,0,0,0,1.66-1.624c0-1.915-4.086-1.3-4.086-3.886a2.559,2.559,0,0,1,2.773-2.481,14.694,14.694,0,0,1,1.97.164,0.519,0.519,0,0,1,.273.511c0.036,0.747.2,1.222,0.2,1.459a0.171,0.171,0,0,1-.2.146,0.321,0.321,0,0,1-.365-0.255,2.147,2.147,0,0,0-1.9-1.55,1.318,1.318,0,0,0-1.459,1.368,1.386,1.386,0,0,0,.857,1.222C136.039,10.395,137.353,10.34,137.353,12.4Z" transform="translate(0 -1)"/><path class="a" d="M144.1,12.4c0,0.893-.474,2.481-2.973,2.481-0.328,0-1.386-.146-2.1-0.146a0.117,0.117,0,0,1-.092-0.091c-0.018-.182-0.419-1.787-0.419-1.969,0-.11.255-0.11,0.328-0.11,0.438,0,.548,1.843,2.3,1.843a1.554,1.554,0,0,0,1.661-1.624c0-1.915-4.086-1.3-4.086-3.886a2.559,2.559,0,0,1,2.773-2.481,14.678,14.678,0,0,1,1.969.164,0.518,0.518,0,0,1,.274.511c0.036,0.747.2,1.222,0.2,1.459a0.171,0.171,0,0,1-.2.146,0.321,0.321,0,0,1-.365-0.255,2.146,2.146,0,0,0-1.9-1.55,1.318,1.318,0,0,0-1.46,1.368,1.386,1.386,0,0,0,.857,1.222C142.788,10.395,144.1,10.34,144.1,12.4Z" transform="translate(0 -1)"/><path class="a" d="M149.664,14.882a4.081,4.081,0,0,1-4.232-4.232,4.241,4.241,0,0,1,8.482,0A4,4,0,0,1,149.664,14.882Zm0-7.989c-1.9,0-2.5,1.97-2.5,3.757,0,1.551.365,3.758,2.5,3.758,2.153,0,2.517-2.207,2.517-3.758C152.181,8.862,151.579,6.893,149.664,6.893Z" transform="translate(0 -1)"/><path class="a" d="M156.193,8.972c0-1.606-.182-1.715-1.131-1.715-0.146,0-.4,0-0.4-0.183,0-.145,0-0.364.2-0.364,0.183,0,.475.054,1.077,0.054,0.638,0,1.331-.054,1.586-0.054,0.11,0,.146,0,0.146.255v4.926c0,1.368.438,2.152,1.787,2.152,0.657,0,1.806-.4,1.806-0.966V8.352c0-.985-0.183-1.095-1.131-1.095-0.328,0-.584,0-0.584-0.183,0-.273,0-0.364.128-0.364,0.255,0,.474.054,1.587,0.054,0.456,0,.93-0.054,1.386-0.054a0.223,0.223,0,0,1,.256.255c0,0.073-.165,1.478-0.165,2.773v3.429c0,0.292,0,.675.457,0.675,0.255,0,.656-0.073.784-0.073,0.072,0,.109,0,0.109.347,0,0.109-.018.145-0.6,0.237a16.751,16.751,0,0,0-2.1.474,0.243,0.243,0,0,1-.218-0.255c0-.219.036-0.511,0.054-0.693a5.056,5.056,0,0,1-2.717,1c-1.806,0-2.317-1.167-2.317-3.065V8.972Z" transform="translate(0 -1)"/><path class="a" d="M166.151,8.625a0.946,0.946,0,0,0-1.076-1.094,0.171,0.171,0,0,1-.164-0.219,0.225,0.225,0,0,1,.146-0.256,8.15,8.15,0,0,0,2.554-.893,0.214,0.214,0,0,1,.073.183c0,0.219-.091.675-0.091,1.66a4.077,4.077,0,0,1,2.554-1.587,1.038,1.038,0,0,1,1.168,1.022,0.9,0.9,0,0,1-.894.912c-0.747,0-.857-0.693-1.405-0.693a2.049,2.049,0,0,0-1.259.784,0.769,0.769,0,0,0-.127.529v4.14c0,0.675,0,1.077.912,1.077,0.675,0,.748.018,0.748,0.219,0,0.237-.073.255-0.274,0.255-0.656,0-1.24-.036-2.079-0.036-1.46,0-1.77.036-2.115,0.036-0.129,0-.165-0.109-0.165-0.237,0-.183.219-0.237,0.566-0.237,0.784,0,.93-0.146.93-0.931V8.625Z" transform="translate(0 -1)"/><path class="a" d="M174.723,12.93c0,1.04.036,1.259,0.839,1.259,0.4,0,.438.018,0.438,0.237,0,0.109,0,.237-0.183.237-0.091,0-.328-0.036-1.513-0.036-1.715,0-2.189.036-2.463,0.036-0.146,0-.146-0.109-0.146-0.2,0-.237.019-0.274,0.693-0.274a0.683,0.683,0,0,0,.748-0.438,18.513,18.513,0,0,0,.109-2.627v-2.5a0.946,0.946,0,0,0-1.076-1.094,0.171,0.171,0,0,1-.165-0.219,0.226,0.226,0,0,1,.146-0.256,8.163,8.163,0,0,0,2.554-.893c0.073,0,.109.091,0.109,0.2a16.552,16.552,0,0,0-.091,2.627v3.94Zm-1.7-10.27a0.949,0.949,0,1,1,.949.967A0.97,0.97,0,0,1,173.026,2.66Z" transform="translate(0 -1)"/><path class="b" d="M3.958,30.264c0,2.445,1.022,4.579,4.087,4.579,2.134,0,3.977-1.186,3.977-5.527V25.7c0-2.535-.529-2.535-2.408-2.535-0.146,0-.146-0.11-0.146-0.274,0-.219.055-0.274,0.146-0.274,0.31,0,1.5.073,2.681,0.073,0.566,0,2.116-.073,2.372-0.073,0.182,0,.255.036,0.255,0.31a0.2,0.2,0,0,1-.164.237c-1.751,0-2.116,0-2.116,2.152v4.323c0,4.925-3.138,6.239-5.254,6.239-4.086,0-5.235-2.736-5.235-4.743V26.962c0-1.295-.018-1.734-0.037-2.572C2.1,23.314,1.788,23.168.2,23.168c-0.2,0-.2-0.146-0.2-0.31a0.2,0.2,0,0,1,.164-0.237c0.146,0,1.734.073,2.882,0.073,1.168,0,2.754-.073,2.9-0.073a0.2,0.2,0,0,1,.164.237c0,0.164,0,.31-0.2.31-1.587,0-1.9.146-1.915,1.222-0.019.839-.037,1.277-0.037,2.572v3.3Z" transform="translate(0 -1)"/><path class="b" d="M18.02,33.931c0,1.04.036,1.259,0.839,1.259,0.492,0,.529.018,0.529,0.237,0,0.109,0,.237-0.183.237-0.091,0-.329-0.036-1.606-0.036-1.714,0-2.188.036-2.462,0.036-0.145,0-.145-0.109-0.145-0.2,0-.237.018-0.274,0.693-0.274a0.681,0.681,0,0,0,.747-0.438,18.394,18.394,0,0,0,.11-2.627v-2.5a0.947,0.947,0,0,0-1.077-1.094,0.171,0.171,0,0,1-.163-0.219,0.225,0.225,0,0,1,.145-0.256A8.137,8.137,0,0,0,18,27.163c0.037,0,.055.055,0.055,0.2,0,0.11-.036.511-0.036,1.314a5.538,5.538,0,0,1,2.864-1.259c0.62,0,2.408.128,2.408,2.737v4.378c0,0.31.055,0.657,1.186,0.657,0.182,0,.182.11,0.182,0.237,0,0.109,0,.237-0.255.237-0.548,0-.876-0.036-1.843-0.036-1.477,0-1.77.036-1.915,0.036-0.11,0-.127-0.128-0.127-0.219a0.235,0.235,0,0,1,.255-0.255c0.875,0,1.04-.073,1.04-0.675V31.249c0-1.7-.146-2.827-2.043-2.827a2.706,2.706,0,0,0-1.751.839v4.67Z" transform="translate(0 -1)"/><path class="b" d="M28.252,33.931c0,1.04.036,1.259,0.839,1.259,0.4,0,.438.018,0.438,0.237,0,0.109,0,.237-0.182.237-0.091,0-.329-0.036-1.514-0.036-1.715,0-2.189.036-2.463,0.036-0.146,0-.146-0.109-0.146-0.2,0-.237.019-0.274,0.694-0.274a0.682,0.682,0,0,0,.747-0.438,18.406,18.406,0,0,0,.11-2.627v-2.5A0.947,0.947,0,0,0,25.7,28.531a0.171,0.171,0,0,1-.163-0.219,0.225,0.225,0,0,1,.145-0.256,8.144,8.144,0,0,0,2.554-.893c0.073,0,.11.091,0.11,0.2a16.482,16.482,0,0,0-.091,2.627v3.94Zm-1.7-10.27a0.949,0.949,0,1,1,.948.967A0.97,0.97,0,0,1,26.556,23.66Z" transform="translate(0 -1)"/><path class="b" d="M36.624,28.732c0-.529-0.948-0.529-1.222-0.529a0.208,0.208,0,0,1-.164-0.255,0.226,0.226,0,0,1,.237-0.219c0.493,0,1.058.036,1.569,0.036,0.529,0,1.076-.036,1.605-0.036a0.188,0.188,0,0,1,.164.219,0.167,0.167,0,0,1-.182.2c-1.058.165-1.112,0.237-1.7,1.66-0.639,1.569-1.734,3.868-2.062,4.634-0.511,1.222-.675,1.441-0.821,1.441-0.2,0-.328-0.383-0.693-1.167-0.638-1.368-2.152-5.819-2.408-6.184a0.626,0.626,0,0,0-.638-0.292c-0.492,0-.566-0.055-0.566-0.31a0.192,0.192,0,0,1,.2-0.2c0.583,0,1.149.036,1.733,0.036,0.364,0,1.805-.036,2.17-0.036,0.128,0,.146.165,0.146,0.255a0.217,0.217,0,0,1-.183.219c-0.548,0-1.058.055-1.058,0.438a33.671,33.671,0,0,0,1.86,5.09C36.332,29.917,36.624,29.224,36.624,28.732Z" transform="translate(0 -1)"/><path class="b" d="M40.181,30.7a6.608,6.608,0,0,0-.073,1.04,3.075,3.075,0,0,0,2.991,3.01,2.379,2.379,0,0,0,2.134-1.095,0.665,0.665,0,0,1,.274-0.31,0.383,0.383,0,0,1,.292.218,3.331,3.331,0,0,1-3.137,2.317c-2.608,0-3.977-1.605-3.977-4.159,0-2.609,1.77-4.378,3.648-4.378A3.053,3.053,0,0,1,45.6,30.5c0,0.182-.073.2-0.219,0.2h-5.2Zm3.137-.547a0.523,0.523,0,0,0,.62-0.6,1.541,1.541,0,0,0-1.606-1.733c-1.313,0-1.861,1.095-2.043,2.335h3.028Z" transform="translate(0 -1)"/><path class="b" d="M48.15,29.625a0.946,0.946,0,0,0-1.076-1.094,0.171,0.171,0,0,1-.164-0.219,0.225,0.225,0,0,1,.146-0.256,8.128,8.128,0,0,0,2.554-.893,0.213,0.213,0,0,1,.073.183c0,0.219-.091.675-0.091,1.66a4.076,4.076,0,0,1,2.553-1.587,1.038,1.038,0,0,1,1.167,1.022,0.9,0.9,0,0,1-.893.912c-0.747,0-.857-0.693-1.4-0.693a2.048,2.048,0,0,0-1.259.784,0.769,0.769,0,0,0-.128.529v4.14c0,0.675,0,1.077.912,1.077,0.675,0,.748.018,0.748,0.219,0,0.237-.073.255-0.274,0.255-0.657,0-1.24-.036-2.079-0.036-1.46,0-1.77.036-2.116,0.036-0.128,0-.165-0.109-0.165-0.237,0-.183.219-0.237,0.565-0.237,0.784,0,.93-0.146.93-0.931V29.625Z" transform="translate(0 -1)"/><path class="b" d="M59.532,33.4c0,0.893-.474,2.481-2.974,2.481-0.328,0-1.386-.146-2.1-0.146a0.117,0.117,0,0,1-.091-0.091c-0.018-.182-0.419-1.787-0.419-1.969,0-.11.255-0.11,0.328-0.11,0.438,0,.548,1.843,2.3,1.843a1.554,1.554,0,0,0,1.66-1.624c0-1.915-4.087-1.3-4.087-3.886a2.56,2.56,0,0,1,2.773-2.481,14.715,14.715,0,0,1,1.97.164,0.519,0.519,0,0,1,.273.511c0.036,0.747.2,1.222,0.2,1.459a0.171,0.171,0,0,1-.2.146,0.321,0.321,0,0,1-.364-0.255,2.148,2.148,0,0,0-1.9-1.55,1.318,1.318,0,0,0-1.46,1.368,1.386,1.386,0,0,0,.858,1.222C58.218,31.395,59.532,31.34,59.532,33.4Z" transform="translate(0 -1)"/><path class="b" d="M63.471,33.931c0,1.04.036,1.259,0.838,1.259,0.4,0,.438.018,0.438,0.237,0,0.109,0,.237-0.182.237-0.091,0-.329-0.036-1.514-0.036-1.714,0-2.188.036-2.462,0.036-0.146,0-.146-0.109-0.146-0.2,0-.237.018-0.274,0.693-0.274a0.682,0.682,0,0,0,.748-0.438,18.528,18.528,0,0,0,.109-2.627v-2.5a0.946,0.946,0,0,0-1.076-1.094,0.171,0.171,0,0,1-.164-0.219,0.226,0.226,0,0,1,.146-0.256,8.144,8.144,0,0,0,2.553-.893,0.167,0.167,0,0,1,.11.2,16.517,16.517,0,0,0-.091,2.627v3.94Zm-1.7-10.27a0.949,0.949,0,1,1,.948.967A0.969,0.969,0,0,1,61.775,23.66Z" transform="translate(0 -1)"/><path class="b" d="M67.884,32.417c0,1.933.164,2.626,1.605,2.626a3,3,0,0,0,1.24-.419,0.362,0.362,0,0,1,.2.292,2.777,2.777,0,0,1-2.426.966,1.985,1.985,0,0,1-2.1-2.262v-4.8a0.192,0.192,0,0,0-.183-0.237H65.312a0.138,0.138,0,0,1-.109-0.165,0.319,0.319,0,0,1,.109-0.255c1.7-1.277,2.043-2.244,2.408-2.244a0.216,0.216,0,0,1,.219.237c0,0.328-.055.638-0.055,1.679h2.809c0.128,0,.183.127,0.183,0.383a0.424,0.424,0,0,1-.492.456c-0.127,0-.985-0.091-2.5-0.091v3.831Z" transform="translate(0 -1)"/><path class="b" d="M78.9,28.823c0-.6-0.858-0.62-1.406-0.62-0.163,0-.181-0.091-0.181-0.237a0.212,0.212,0,0,1,.164-0.237c0.583,0,1.186.036,1.769,0.036,0.565,0,1.131-.036,1.7-0.036,0.127,0,.127.165,0.127,0.237,0,0.165-.055.219-0.31,0.237a1.094,1.094,0,0,0-1.149.8c-0.657,1.514-3.174,6.8-3.575,7.826-1.405,3.521-2.007,3.758-2.608,3.758a1.031,1.031,0,1,1,.036-2.061,3.967,3.967,0,0,1,.912.309c0.328,0,1.186-1.751,1.186-2.609a8.746,8.746,0,0,0-.638-2.043c-1.149-2.955-1.5-4.542-1.88-5.563a1.577,1.577,0,0,0-1.312-.42,0.206,0.206,0,0,1-.165-0.255,0.2,0.2,0,0,1,.2-0.219c0.218,0,1.368.036,2.024,0.036,0.621,0,1.259-.036,1.806-0.036a0.2,0.2,0,0,1,.219.237,0.22,0.22,0,0,1-.183.237c-0.109,0-.894,0-0.894.4,0,0.876.62,2.681,1.806,5.728A37.145,37.145,0,0,0,78.9,28.823Z" transform="translate(0 -1)"/><path class="b" d="M90.317,35.882a4.081,4.081,0,0,1-4.232-4.232,4.241,4.241,0,0,1,8.482,0A4,4,0,0,1,90.317,35.882Zm0-7.989c-1.9,0-2.5,1.97-2.5,3.757,0,1.551.364,3.758,2.5,3.758,2.153,0,2.517-2.207,2.517-3.758C92.834,29.863,92.232,27.893,90.317,27.893Z" transform="translate(0 -1)"/><path class="b" d="M98.724,34.112c0,0.675,0,1.077.913,1.077,0.675,0,.748.018,0.748,0.219,0,0.237-.073.255-0.274,0.255-0.657,0-1.24-.036-2.079-0.036-1.459,0-1.769.036-1.933,0.036-0.128,0-.165-0.109-0.165-0.237,0-.183.036-0.237,0.382-0.237,0.784,0,.931-0.146.931-0.931V29.169c0-.219,0-0.583-0.347-0.583h-1c-0.128,0-.219,0-0.219-0.237,0-.146.127-0.219,0.565-0.31,0.712-.164.894-0.2,0.948-1.022,0.183-2.772,1-4.3,3.157-4.87A5.471,5.471,0,0,1,101.461,22a0.987,0.987,0,0,1,1.149.784,0.815,0.815,0,0,1-.857.894,1.631,1.631,0,0,1-1-.419,1.681,1.681,0,0,0-.8-0.42c-1.04,0-1.223,1.514-1.223,2.646v2.353h2.262c0.128,0,.182.127,0.182,0.383a0.423,0.423,0,0,1-.492.456c-0.127,0-1.532-.091-1.953-0.091v5.526Z" transform="translate(0 -1)"/><path class="b" d="M121.36,22.821a0.227,0.227,0,0,1,.218-0.2c0.092,0,1.423.073,1.843,0.073,0.31,0,1.86-.073,1.988-0.073,0.182,0,.2.146,0.2,0.31a0.2,0.2,0,0,1-.219.237c-1.642,0-1.842.128-1.842,0.967,0,1.185.2,5.016,0.383,10.124a0.9,0.9,0,0,0,1,.858c1.021,0,1.039.109,1.039,0.237,0,0.274-.091.31-0.2,0.31-0.165,0-.365-0.036-2.9-0.036-2.371,0-2.481.036-2.626,0.036-0.2,0-.2-0.128-0.2-0.292,0-.128.036-0.255,0.876-0.255,1.2,0,1.222-.292,1.222-1.022,0-1.095-.274-6.987-0.42-10.4h-0.036c-1.331,3.411-3.01,7.334-4.213,10.27-0.693,1.678-.693,1.879-0.93,1.879s-0.274-.164-0.657-1.422c-0.4-1.314-3.374-9.377-3.448-9.377a75.4,75.4,0,0,0-1.513,9.212,0.788,0.788,0,0,0,.912.858,1.733,1.733,0,0,1,.986.145c0,0.347,0,.4-0.2.4-0.146,0-.328-0.036-2.207-0.036-1.66,0-1.788.036-1.9,0.036-0.146,0-.2-0.019-0.2-0.31,0-.182.091-0.237,0.967-0.237,0.638,0,.766-0.237.967-1.277,0.492-2.627.929-5.272,1.5-7.9a8,8,0,0,0,.237-1.715,1.917,1.917,0,0,0-.475-0.912,6.188,6.188,0,0,0-1.568-.146c-0.219,0-.219-0.146-0.219-0.274,0-.146.036-0.274,0.2-0.274,0.347,0,1.916.073,2.117,0.073,0.474,0,1.24-.073,1.478-0.073,0.2,0,.255.2,0.438,0.857,0.382,1.368,3.028,8.756,3.356,9.431C118.678,29.68,120.064,26.342,121.36,22.821Z" transform="translate(0 -1)"/><path class="b" d="M129.474,33.931c0,1.04.036,1.259,0.839,1.259,0.4,0,.438.018,0.438,0.237,0,0.109,0,.237-0.183.237-0.091,0-.328-0.036-1.513-0.036-1.715,0-2.189.036-2.463,0.036-0.146,0-.146-0.109-0.146-0.2,0-.237.018-0.274,0.693-0.274a0.682,0.682,0,0,0,.747-0.438,18.346,18.346,0,0,0,.11-2.627v-2.5a0.947,0.947,0,0,0-1.077-1.094,0.171,0.171,0,0,1-.164-0.219,0.226,0.226,0,0,1,.146-0.256,8.139,8.139,0,0,0,2.554-.893c0.074,0,.11.091,0.11,0.2a16.552,16.552,0,0,0-.091,2.627v3.94Zm-1.7-10.27a0.949,0.949,0,1,1,.949.967A0.97,0.97,0,0,1,127.777,23.66Z" transform="translate(0 -1)"/><path class="b" d="M137.353,33.4c0,0.893-.474,2.481-2.974,2.481-0.328,0-1.386-.146-2.1-0.146a0.116,0.116,0,0,1-.091-0.091c-0.018-.182-0.419-1.787-0.419-1.969,0-.11.256-0.11,0.328-0.11,0.438,0,.548,1.843,2.3,1.843a1.554,1.554,0,0,0,1.66-1.624c0-1.915-4.086-1.3-4.086-3.886a2.559,2.559,0,0,1,2.773-2.481,14.694,14.694,0,0,1,1.97.164,0.519,0.519,0,0,1,.273.511c0.036,0.747.2,1.222,0.2,1.459a0.171,0.171,0,0,1-.2.146,0.321,0.321,0,0,1-.365-0.255,2.147,2.147,0,0,0-1.9-1.55,1.318,1.318,0,0,0-1.459,1.368,1.386,1.386,0,0,0,.857,1.222C136.039,31.395,137.353,31.34,137.353,33.4Z" transform="translate(0 -1)"/><path class="b" d="M144.1,33.4c0,0.893-.474,2.481-2.973,2.481-0.328,0-1.386-.146-2.1-0.146a0.117,0.117,0,0,1-.092-0.091c-0.018-.182-0.419-1.787-0.419-1.969,0-.11.255-0.11,0.328-0.11,0.438,0,.548,1.843,2.3,1.843a1.554,1.554,0,0,0,1.661-1.624c0-1.915-4.086-1.3-4.086-3.886a2.559,2.559,0,0,1,2.773-2.481,14.678,14.678,0,0,1,1.969.164,0.518,0.518,0,0,1,.274.511c0.036,0.747.2,1.222,0.2,1.459a0.171,0.171,0,0,1-.2.146,0.321,0.321,0,0,1-.365-0.255,2.146,2.146,0,0,0-1.9-1.55,1.318,1.318,0,0,0-1.46,1.368,1.386,1.386,0,0,0,.857,1.222C142.788,31.395,144.1,31.34,144.1,33.4Z" transform="translate(0 -1)"/><path class="b" d="M149.664,35.882a4.081,4.081,0,0,1-4.232-4.232,4.241,4.241,0,0,1,8.482,0A4,4,0,0,1,149.664,35.882Zm0-7.989c-1.9,0-2.5,1.97-2.5,3.757,0,1.551.365,3.758,2.5,3.758,2.153,0,2.517-2.207,2.517-3.758C152.181,29.863,151.579,27.893,149.664,27.893Z" transform="translate(0 -1)"/><path class="b" d="M156.193,29.972c0-1.606-.182-1.715-1.131-1.715-0.146,0-.4,0-0.4-0.183,0-.145,0-0.364.2-0.364,0.183,0,.475.054,1.077,0.054,0.638,0,1.331-.054,1.586-0.054,0.11,0,.146,0,0.146.255v4.926c0,1.368.438,2.152,1.787,2.152,0.657,0,1.806-.4,1.806-0.966V29.352c0-.985-0.183-1.095-1.131-1.095-0.328,0-.584,0-0.584-0.183,0-.273,0-0.364.128-0.364,0.255,0,.474.054,1.587,0.054,0.456,0,.93-0.054,1.386-0.054a0.223,0.223,0,0,1,.256.255c0,0.073-.165,1.478-0.165,2.773v3.429c0,0.292,0,.675.457,0.675,0.255,0,.656-0.073.784-0.073,0.072,0,.109,0,0.109.347,0,0.109-.018.145-0.6,0.237a16.751,16.751,0,0,0-2.1.474,0.243,0.243,0,0,1-.218-0.255c0-.219.036-0.511,0.054-0.693a5.056,5.056,0,0,1-2.717,1c-1.806,0-2.317-1.167-2.317-3.065V29.972Z" transform="translate(0 -1)"/><path class="b" d="M166.151,29.625a0.946,0.946,0,0,0-1.076-1.094,0.171,0.171,0,0,1-.164-0.219,0.225,0.225,0,0,1,.146-0.256,8.15,8.15,0,0,0,2.554-.893,0.214,0.214,0,0,1,.073.183c0,0.219-.091.675-0.091,1.66a4.077,4.077,0,0,1,2.554-1.587,1.038,1.038,0,0,1,1.168,1.022,0.9,0.9,0,0,1-.894.912c-0.747,0-.857-0.693-1.405-0.693a2.049,2.049,0,0,0-1.259.784,0.769,0.769,0,0,0-.127.529v4.14c0,0.675,0,1.077.912,1.077,0.675,0,.748.018,0.748,0.219,0,0.237-.073.255-0.274,0.255-0.656,0-1.24-.036-2.079-0.036-1.46,0-1.77.036-2.115,0.036-0.129,0-.165-0.109-0.165-0.237,0-.183.219-0.237,0.566-0.237,0.784,0,.93-0.146.93-0.931V29.625Z" transform="translate(0 -1)"/><path class="b" d="M174.723,33.931c0,1.04.036,1.259,0.839,1.259,0.4,0,.438.018,0.438,0.237,0,0.109,0,.237-0.183.237-0.091,0-.328-0.036-1.513-0.036-1.715,0-2.189.036-2.463,0.036-0.146,0-.146-0.109-0.146-0.2,0-.237.019-0.274,0.693-0.274a0.683,0.683,0,0,0,.748-0.438,18.513,18.513,0,0,0,.109-2.627v-2.5a0.946,0.946,0,0,0-1.076-1.094,0.171,0.171,0,0,1-.165-0.219,0.226,0.226,0,0,1,.146-0.256,8.163,8.163,0,0,0,2.554-.893c0.073,0,.109.091,0.109,0.2a16.552,16.552,0,0,0-.091,2.627v3.94Zm-1.7-10.27a0.949,0.949,0,1,1,.949.967A0.97,0.97,0,0,1,173.026,23.66Z" transform="translate(0 -1)"/></svg>