<svg id="Layer_1" data-name="Layer 1" xmlns="http://www.w3.org/2000/svg" width="229" height="81" viewBox="0 0 229 81"><defs><style>.cls-1{fill:#fff;}.cls-2{fill:#f1b82d;}</style></defs><title>mu-wordmark-white-small</title><path class="cls-1" d="M5.128,11.705c0,3.167,1.324,5.931,5.294,5.931,2.765,0,5.152-1.536,5.152-7.16V5.8c0-3.284-.685-3.284-3.12-3.284-0.189,0-.189-0.142-0.189-0.355,0-.284.071-0.355,0.189-0.355,0.4,0,1.938.094,3.473,0.094C16.661,1.9,18.669,1.8,19,1.8c0.236,0,.331.047,0.331,0.4a0.261,0.261,0,0,1-.213.308c-2.269,0-2.741,0-2.741,2.788v5.6c0,6.381-4.066,8.082-6.806,8.082-5.293,0-6.782-3.544-6.782-6.144V7.428c0-1.678-.023-2.246-0.048-3.332C2.718,2.7,2.316,2.513.26,2.513,0,2.513,0,2.324,0,2.111A0.255,0.255,0,0,1,.213,1.8C0.4,1.8,2.458,1.9,3.946,1.9,5.459,1.9,7.515,1.8,7.7,1.8a0.255,0.255,0,0,1,.213.308c0,0.213,0,.4-0.26.4C5.6,2.513,5.2,2.7,5.176,4.1,5.152,5.183,5.128,5.751,5.128,7.428v4.277Z"/><path class="cls-1" d="M23.344,16.455c0,1.347.047,1.63,1.087,1.63,0.637,0,.685.024,0.685,0.308,0,0.141,0,.307-0.237.307-0.118,0-.426-0.047-2.08-0.047-2.221,0-2.835.047-3.19,0.047-0.188,0-.188-0.141-0.188-0.26,0-.307.023-0.355,0.9-0.355a0.883,0.883,0,0,0,.968-0.567,23.829,23.829,0,0,0,.142-3.4V10.878c0-.827-0.213-1.3-1.395-1.417a0.221,0.221,0,0,1-.212-0.284,0.292,0.292,0,0,1,.188-0.332A10.541,10.541,0,0,0,23.32,7.688c0.048,0,.071.071,0.071,0.26,0,0.142-.047.662-0.047,1.7a7.175,7.175,0,0,1,3.71-1.631c0.8,0,3.119.165,3.119,3.545v5.671c0,0.4.071,0.851,1.536,0.851,0.236,0,.236.142,0.236,0.308,0,0.141,0,.307-0.331.307-0.709,0-1.134-.047-2.387-0.047-1.914,0-2.293.047-2.481,0.047-0.142,0-.165-0.165-0.165-0.283a0.3,0.3,0,0,1,.331-0.331c1.134,0,1.347-.094,1.347-0.874V12.981c0-2.2-.189-3.663-2.646-3.663a3.506,3.506,0,0,0-2.269,1.087v6.05Z"/><path class="cls-1" d="M36.6,16.455c0,1.347.047,1.63,1.087,1.63,0.519,0,.567.024,0.567,0.308,0,0.141,0,.307-0.236.307-0.118,0-.426-0.047-1.961-0.047-2.222,0-2.836.047-3.191,0.047-0.189,0-.189-0.141-0.189-0.26,0-.307.024-0.355,0.9-0.355a0.883,0.883,0,0,0,.968-0.567,23.844,23.844,0,0,0,.142-3.4V10.878c0-.827-0.212-1.3-1.395-1.417a0.221,0.221,0,0,1-.212-0.284,0.292,0.292,0,0,1,.188-0.332,10.55,10.55,0,0,0,3.308-1.157c0.1,0,.142.118,0.142,0.26a21.352,21.352,0,0,0-.118,3.4v5.1Zm-2.2-13.3A1.229,1.229,0,1,1,35.63,4.4,1.256,1.256,0,0,1,34.4,3.151Z"/><path class="cls-1" d="M47.444,9.72c0-.685-1.228-0.685-1.583-0.685A0.27,0.27,0,0,1,45.648,8.7a0.293,0.293,0,0,1,.308-0.284c0.638,0,1.371.047,2.032,0.047,0.685,0,1.394-.047,2.08-0.047a0.244,0.244,0,0,1,.212.284,0.216,0.216,0,0,1-.236.26c-1.37.213-1.441,0.308-2.2,2.15-0.828,2.032-2.246,5.011-2.671,6-0.661,1.583-.874,1.867-1.063,1.867-0.26,0-.425-0.5-0.9-1.512C42.388,15.7,40.426,9.933,40.1,9.461a0.811,0.811,0,0,0-.827-0.379c-0.638,0-.733-0.071-0.733-0.4a0.249,0.249,0,0,1,.26-0.26c0.756,0,1.488.047,2.245,0.047,0.472,0,2.339-.047,2.812-0.047,0.165,0,.189.213,0.189,0.331a0.281,0.281,0,0,1-.237.284c-0.709,0-1.371.071-1.371,0.567a43.62,43.62,0,0,0,2.41,6.594C47.066,11.256,47.444,10.359,47.444,9.72Z"/><path class="cls-1" d="M52.052,12.273a8.561,8.561,0,0,0-.094,1.347,3.983,3.983,0,0,0,3.875,3.9A3.082,3.082,0,0,0,58.6,16.1a0.861,0.861,0,0,1,.355-0.4,0.5,0.5,0,0,1,.378.283,4.315,4.315,0,0,1-4.064,3c-3.379,0-5.152-2.079-5.152-5.387,0-3.38,2.293-5.672,4.726-5.672a3.955,3.955,0,0,1,4.231,4.088c0,0.236-.1.26-0.284,0.26H52.052Zm4.064-.709a0.678,0.678,0,0,0,.8-0.781,2,2,0,0,0-2.08-2.245c-1.7,0-2.41,1.418-2.647,3.025h3.923Z"/><path class="cls-1" d="M62.377,10.878c0-.827-0.212-1.3-1.394-1.417a0.221,0.221,0,0,1-.213-0.284,0.292,0.292,0,0,1,.188-0.332,10.529,10.529,0,0,0,3.308-1.157,0.276,0.276,0,0,1,.1.237c0,0.284-.118.874-0.118,2.15,0.78-.875,2.055-2.056,3.308-2.056a1.344,1.344,0,0,1,1.512,1.324,1.164,1.164,0,0,1-1.157,1.182c-0.968,0-1.11-.9-1.82-0.9a2.653,2.653,0,0,0-1.63,1.016,1,1,0,0,0-.165.685v5.363c0,0.875,0,1.395,1.181,1.395,0.875,0,.969.024,0.969,0.284,0,0.307-.094.331-0.355,0.331-0.851,0-1.607-.047-2.694-0.047-1.891,0-2.293.047-2.741,0.047-0.166,0-.213-0.141-0.213-0.307,0-.237.284-0.308,0.732-0.308,1.016,0,1.205-.189,1.205-1.206v-6Z"/><path class="cls-1" d="M77.121,15.77c0,1.157-.614,3.214-3.852,3.214-0.425,0-1.8-.189-2.718-0.189a0.151,0.151,0,0,1-.118-0.118c-0.023-.236-0.543-2.315-0.543-2.551,0-.142.331-0.142,0.425-0.142,0.567,0,.71,2.387,2.978,2.387a2.013,2.013,0,0,0,2.15-2.1c0-2.481-5.294-1.678-5.294-5.034a3.316,3.316,0,0,1,3.593-3.214,19.063,19.063,0,0,1,2.552.213,0.672,0.672,0,0,1,.354.662c0.047,0.968.26,1.583,0.26,1.89a0.222,0.222,0,0,1-.26.189,0.416,0.416,0,0,1-.472-0.331,2.783,2.783,0,0,0-2.458-2.008,1.708,1.708,0,0,0-1.891,1.772,1.8,1.8,0,0,0,1.111,1.584C75.419,13.17,77.121,13.1,77.121,15.77Z"/><path class="cls-1" d="M82.224,16.455c0,1.347.047,1.63,1.086,1.63,0.52,0,.568.024,0.568,0.308,0,0.141,0,.307-0.236.307-0.118,0-.426-0.047-1.962-0.047-2.221,0-2.835.047-3.19,0.047-0.189,0-.189-0.141-0.189-0.26,0-.307.024-0.355,0.9-0.355a0.884,0.884,0,0,0,.969-0.567,24,24,0,0,0,.141-3.4V10.878c0-.827-0.212-1.3-1.394-1.417A0.222,0.222,0,0,1,78.7,9.177a0.292,0.292,0,0,1,.189-0.332A10.55,10.55,0,0,0,82.2,7.688a0.217,0.217,0,0,1,.142.26,21.4,21.4,0,0,0-.118,3.4v5.1Zm-2.2-13.3A1.229,1.229,0,1,1,81.255,4.4,1.255,1.255,0,0,1,80.026,3.151Z"/><path class="cls-1" d="M87.94,14.494c0,2.5.213,3.4,2.079,3.4a3.89,3.89,0,0,0,1.606-.543,0.469,0.469,0,0,1,.26.379c0,0.141-.992,1.252-3.142,1.252a2.571,2.571,0,0,1-2.718-2.93V9.838a0.248,0.248,0,0,0-.237-0.307H84.608a0.178,0.178,0,0,1-.142-0.214,0.413,0.413,0,0,1,.142-0.331c2.2-1.654,2.646-2.907,3.119-2.907a0.28,0.28,0,0,1,.284.307c0,0.425-.071.827-0.071,2.175h3.639c0.165,0,.237.164,0.237,0.5a0.549,0.549,0,0,1-.638.591c-0.165,0-1.276-.118-3.238-0.118v4.962Z"/><path class="cls-1" d="M102.213,9.838c0-.78-1.112-0.8-1.821-0.8-0.211,0-.235-0.118-0.235-0.308a0.275,0.275,0,0,1,.212-0.307c0.756,0,1.536.047,2.292,0.047,0.732,0,1.465-.047,2.2-0.047,0.165,0,.165.213,0.165,0.307,0,0.213-.071.284-0.4,0.308a1.417,1.417,0,0,0-1.489,1.04c-0.851,1.961-4.112,8.815-4.632,10.138-1.82,4.561-2.6,4.868-3.379,4.868a1.335,1.335,0,1,1,.047-2.67,5.139,5.139,0,0,1,1.181.4c0.425,0,1.536-2.268,1.536-3.379a11.33,11.33,0,0,0-.827-2.646c-1.489-3.828-1.938-5.884-2.435-7.207-0.212-.544-1.394-0.544-1.7-0.544A0.267,0.267,0,0,1,92.712,8.7a0.255,0.255,0,0,1,.261-0.284c0.283,0,1.772.047,2.622,0.047,0.8,0,1.631-.047,2.34-0.047a0.257,0.257,0,0,1,.284.307,0.286,0.286,0,0,1-.237.308c-0.142,0-1.158,0-1.158.52,0,1.134.8,3.473,2.339,7.42C100.251,14.73,102.213,10.571,102.213,9.838Z"/><path class="cls-1" d="M117,18.984a5.287,5.287,0,0,1-5.482-5.482,5.494,5.494,0,0,1,10.989,0A5.179,5.179,0,0,1,117,18.984Zm0-10.35c-2.457,0-3.236,2.552-3.236,4.867,0,2.009.472,4.868,3.236,4.868,2.789,0,3.261-2.859,3.261-4.868C120.262,11.185,119.483,8.634,117,8.634Z"/><path class="cls-1" d="M127.892,16.691c0,0.875,0,1.395,1.182,1.395,0.875,0,.969.024,0.969,0.284,0,0.307-.094.331-0.355,0.331-0.851,0-1.607-.047-2.694-0.047-1.89,0-2.292.047-2.5,0.047-0.166,0-.213-0.141-0.213-0.307,0-.237.047-0.308,0.5-0.308,1.016,0,1.206-.189,1.206-1.206V10.287c0-.284,0-0.756-0.449-0.756h-1.3c-0.166,0-.284,0-0.284-0.308,0-.189.165-0.284,0.732-0.4,0.922-.213,1.159-0.259,1.228-1.324,0.237-3.592,1.3-5.577,4.089-6.309A7.087,7.087,0,0,1,131.438,1a1.278,1.278,0,0,1,1.488,1.016,1.055,1.055,0,0,1-1.111,1.158,2.113,2.113,0,0,1-1.3-.543,2.177,2.177,0,0,0-1.04-.544c-1.347,0-1.584,1.961-1.584,3.427V8.563h2.931c0.166,0,.236.164,0.236,0.5a0.548,0.548,0,0,1-.637.591c-0.165,0-1.985-.118-2.53-0.118v7.159Z"/><path class="cls-1" d="M157.216,2.063A0.294,0.294,0,0,1,157.5,1.8c0.119,0,1.844.094,2.387,0.094,0.4,0,2.41-.094,2.576-0.094,0.236,0,.259.189,0.259,0.4a0.259,0.259,0,0,1-.284.308c-2.127,0-2.386.165-2.386,1.253,0,1.535.259,6.5,0.5,13.115a1.166,1.166,0,0,0,1.3,1.111c1.323,0,1.346.142,1.346,0.307,0,0.355-.118.4-0.259,0.4-0.213,0-.473-0.047-3.758-0.047-3.071,0-3.214.047-3.4,0.047-0.26,0-.26-0.165-0.26-0.378,0-.165.047-0.331,1.135-0.331,1.56,0,1.583-.378,1.583-1.324,0-1.418-.355-9.051-0.544-13.47H157.64c-1.725,4.419-3.9,9.5-5.458,13.3-0.9,2.173-.9,2.434-1.2,2.434s-0.355-.212-0.851-1.843c-0.52-1.7-4.371-12.147-4.467-12.147-0.4,1.726-1.961,9.571-1.961,11.934a1.021,1.021,0,0,0,1.181,1.111,2.245,2.245,0,0,1,1.277.188c0,0.45,0,.52-0.26.52-0.19,0-.426-0.047-2.859-0.047-2.15,0-2.316.047-2.458,0.047-0.189,0-.259-0.024-0.259-0.4,0-.236.118-0.307,1.252-0.307,0.827,0,.993-0.308,1.253-1.654,0.638-3.4,1.2-6.829,1.937-10.232a10.359,10.359,0,0,0,.308-2.222,2.483,2.483,0,0,0-.615-1.181,8.016,8.016,0,0,0-2.031-.189c-0.284,0-.284-0.189-0.284-0.355,0-.189.047-0.355,0.259-0.355,0.449,0,2.482.094,2.742,0.094,0.614,0,1.607-.094,1.914-0.094,0.259,0,.33.26,0.567,1.11,0.5,1.773,3.922,11.344,4.348,12.217C153.742,10.949,155.537,6.625,157.216,2.063Z"/><path class="cls-1" d="M167.728,16.455c0,1.347.046,1.63,1.087,1.63,0.519,0,.567.024,0.567,0.308,0,0.141,0,.307-0.237.307-0.118,0-.426-0.047-1.961-0.047-2.222,0-2.836.047-3.191,0.047-0.189,0-.189-0.141-0.189-0.26,0-.307.024-0.355,0.9-0.355a0.883,0.883,0,0,0,.968-0.567,23.766,23.766,0,0,0,.143-3.4V10.878c0-.827-0.212-1.3-1.395-1.417a0.222,0.222,0,0,1-.212-0.284,0.292,0.292,0,0,1,.189-0.332A10.544,10.544,0,0,0,167.7,7.688c0.1,0,.143.118,0.143,0.26a21.442,21.442,0,0,0-.118,3.4v5.1Zm-2.2-13.3A1.23,1.23,0,1,1,166.759,4.4,1.257,1.257,0,0,1,165.529,3.151Z"/><path class="cls-1" d="M177.935,15.77c0,1.157-.614,3.214-3.853,3.214-0.425,0-1.8-.189-2.717-0.189a0.151,0.151,0,0,1-.118-0.118c-0.024-.236-0.543-2.315-0.543-2.551,0-.142.331-0.142,0.425-0.142,0.568,0,.71,2.387,2.979,2.387a2.013,2.013,0,0,0,2.15-2.1c0-2.481-5.293-1.678-5.293-5.034a3.315,3.315,0,0,1,3.592-3.214,19.035,19.035,0,0,1,2.552.213,0.672,0.672,0,0,1,.354.662c0.047,0.968.26,1.583,0.26,1.89a0.221,0.221,0,0,1-.26.189,0.416,0.416,0,0,1-.473-0.331,2.781,2.781,0,0,0-2.458-2.008,1.707,1.707,0,0,0-1.89,1.772,1.8,1.8,0,0,0,1.111,1.584C176.233,13.17,177.935,13.1,177.935,15.77Z"/><path class="cls-1" d="M186.677,15.77c0,1.157-.614,3.214-3.852,3.214-0.426,0-1.8-.189-2.717-0.189a0.152,0.152,0,0,1-.119-0.118c-0.024-.236-0.542-2.315-0.542-2.551,0-.142.33-0.142,0.425-0.142,0.567,0,.71,2.387,2.977,2.387a2.013,2.013,0,0,0,2.151-2.1c0-2.481-5.293-1.678-5.293-5.034A3.315,3.315,0,0,1,183.3,8.019a19.014,19.014,0,0,1,2.551.213,0.671,0.671,0,0,1,.355.662c0.047,0.968.26,1.583,0.26,1.89a0.222,0.222,0,0,1-.26.189,0.416,0.416,0,0,1-.473-0.331,2.78,2.78,0,0,0-2.457-2.008,1.708,1.708,0,0,0-1.891,1.772,1.8,1.8,0,0,0,1.111,1.584C184.976,13.17,186.677,13.1,186.677,15.77Z"/><path class="cls-1" d="M193.883,18.984A5.287,5.287,0,0,1,188.4,13.5a5.494,5.494,0,0,1,10.989,0A5.179,5.179,0,0,1,193.883,18.984Zm0-10.35c-2.457,0-3.237,2.552-3.237,4.867,0,2.009.473,4.868,3.237,4.868,2.789,0,3.261-2.859,3.261-4.868C197.143,11.185,196.364,8.634,193.883,8.634Z"/><path class="cls-1" d="M202.34,11.328c0-2.08-.236-2.222-1.465-2.222-0.189,0-.52,0-0.52-0.237,0-.188,0-0.472.259-0.472,0.237,0,.615.07,1.4,0.07,0.826,0,1.725-.07,2.055-0.07,0.143,0,.19,0,0.19.33v6.381c0,1.772.567,2.788,2.315,2.788,0.851,0,2.34-.519,2.34-1.252V10.524c0-1.277-.237-1.418-1.465-1.418-0.426,0-.757,0-0.757-0.237,0-.354,0-0.472.166-0.472,0.33,0,.614.07,2.056,0.07,0.591,0,1.2-.07,1.8-0.07a0.289,0.289,0,0,1,.331.33c0,0.1-.213,1.915-0.213,3.593v4.442c0,0.379,0,.875.592,0.875,0.33,0,.85-0.094,1.016-0.094,0.093,0,.141,0,0.141.449,0,0.142-.024.188-0.78,0.307a21.7,21.7,0,0,0-2.717.614,0.315,0.315,0,0,1-.283-0.331c0-.284.047-0.661,0.07-0.9a6.55,6.55,0,0,1-3.52,1.3c-2.34,0-3-1.512-3-3.97V11.328Z"/><path class="cls-1" d="M215.24,10.878c0-.827-0.212-1.3-1.394-1.417a0.221,0.221,0,0,1-.212-0.284,0.291,0.291,0,0,1,.189-0.332,10.558,10.558,0,0,0,3.308-1.157,0.278,0.278,0,0,1,.094.237c0,0.284-.118.874-0.118,2.15,0.779-.875,2.056-2.056,3.308-2.056a1.345,1.345,0,0,1,1.512,1.324,1.164,1.164,0,0,1-1.158,1.182c-0.968,0-1.111-.9-1.82-0.9a2.654,2.654,0,0,0-1.63,1.016,1,1,0,0,0-.165.685v5.363c0,0.875,0,1.395,1.181,1.395,0.875,0,.969.024,0.969,0.284,0,0.307-.094.331-0.355,0.331-0.85,0-1.606-.047-2.694-0.047-1.891,0-2.293.047-2.74,0.047-0.167,0-.214-0.141-0.214-0.307,0-.237.284-0.308,0.733-0.308,1.016,0,1.2-.189,1.2-1.206v-6Z"/><path class="cls-1" d="M226.346,16.455c0,1.347.047,1.63,1.087,1.63,0.52,0,.567.024,0.567,0.308,0,0.141,0,.307-0.237.307-0.118,0-.425-0.047-1.961-0.047-2.222,0-2.836.047-3.191,0.047-0.189,0-.189-0.141-0.189-0.26,0-.307.025-0.355,0.9-0.355a0.885,0.885,0,0,0,.969-0.567,23.983,23.983,0,0,0,.142-3.4V10.878c0-.827-0.212-1.3-1.394-1.417a0.222,0.222,0,0,1-.213-0.284,0.292,0.292,0,0,1,.189-0.332,10.575,10.575,0,0,0,3.309-1.157c0.094,0,.141.118,0.141,0.26a21.442,21.442,0,0,0-.118,3.4v5.1Zm-2.2-13.3A1.229,1.229,0,1,1,225.377,4.4,1.257,1.257,0,0,1,224.148,3.151Z"/><path class="cls-2" d="M5.128,38.705c0,3.167,1.324,5.931,5.294,5.931,2.765,0,5.152-1.536,5.152-7.16V32.8c0-3.284-.685-3.284-3.12-3.284-0.189,0-.189-0.142-0.189-0.355,0-.284.071-0.355,0.189-0.355,0.4,0,1.938.094,3.473,0.094,0.733,0,2.742-.094,3.072-0.094,0.236,0,.331.047,0.331,0.4a0.261,0.261,0,0,1-.213.308c-2.269,0-2.741,0-2.741,2.788v5.6c0,6.381-4.066,8.082-6.806,8.082-5.293,0-6.782-3.544-6.782-6.144V34.428c0-1.678-.023-2.246-0.048-3.332C2.718,29.7,2.316,29.513.26,29.513,0,29.513,0,29.324,0,29.111A0.255,0.255,0,0,1,.213,28.8c0.189,0,2.246.094,3.734,0.094C5.459,28.9,7.515,28.8,7.7,28.8a0.255,0.255,0,0,1,.213.308c0,0.213,0,.4-0.26.4C5.6,29.513,5.2,29.7,5.176,31.1c-0.024,1.086-.048,1.655-0.048,3.332v4.277Z"/><path class="cls-2" d="M23.344,43.455c0,1.347.047,1.63,1.087,1.63,0.637,0,.685.024,0.685,0.308,0,0.141,0,.307-0.237.307-0.118,0-.426-0.047-2.08-0.047-2.221,0-2.835.047-3.19,0.047-0.188,0-.188-0.141-0.188-0.26,0-.307.023-0.355,0.9-0.355a0.883,0.883,0,0,0,.968-0.567,23.829,23.829,0,0,0,.142-3.4V37.878c0-.827-0.213-1.3-1.395-1.417a0.221,0.221,0,0,1-.212-0.284,0.292,0.292,0,0,1,.188-0.332,10.541,10.541,0,0,0,3.308-1.157c0.048,0,.071.071,0.071,0.26,0,0.142-.047.662-0.047,1.7a7.175,7.175,0,0,1,3.71-1.631c0.8,0,3.119.165,3.119,3.545v5.671c0,0.4.071,0.851,1.536,0.851,0.236,0,.236.142,0.236,0.308,0,0.141,0,.307-0.331.307-0.709,0-1.134-.047-2.387-0.047-1.914,0-2.293.047-2.481,0.047-0.142,0-.165-0.165-0.165-0.283a0.3,0.3,0,0,1,.331-0.331c1.134,0,1.347-.094,1.347-0.874V39.981c0-2.2-.189-3.663-2.646-3.663a3.506,3.506,0,0,0-2.269,1.087v6.05Z"/><path class="cls-2" d="M36.6,43.455c0,1.347.047,1.63,1.087,1.63,0.519,0,.567.024,0.567,0.308,0,0.141,0,.307-0.236.307-0.118,0-.426-0.047-1.961-0.047-2.222,0-2.836.047-3.191,0.047-0.189,0-.189-0.141-0.189-0.26,0-.307.024-0.355,0.9-0.355a0.883,0.883,0,0,0,.968-0.567,23.844,23.844,0,0,0,.142-3.4V37.878c0-.827-0.212-1.3-1.395-1.417a0.221,0.221,0,0,1-.212-0.284,0.292,0.292,0,0,1,.188-0.332,10.55,10.55,0,0,0,3.308-1.157c0.1,0,.142.118,0.142,0.26a21.352,21.352,0,0,0-.118,3.4v5.1Zm-2.2-13.3A1.229,1.229,0,1,1,35.63,31.4,1.256,1.256,0,0,1,34.4,30.151Z"/><path class="cls-2" d="M47.444,36.72c0-.685-1.228-0.685-1.583-0.685a0.27,0.27,0,0,1-.213-0.331,0.293,0.293,0,0,1,.308-0.284c0.638,0,1.371.047,2.032,0.047,0.685,0,1.394-.047,2.08-0.047a0.244,0.244,0,0,1,.212.284,0.216,0.216,0,0,1-.236.26c-1.37.213-1.441,0.308-2.2,2.15-0.828,2.032-2.246,5.011-2.671,6-0.661,1.583-.874,1.867-1.063,1.867-0.26,0-.425-0.5-0.9-1.512-0.827-1.772-2.788-7.538-3.119-8.011a0.811,0.811,0,0,0-.827-0.379c-0.638,0-.733-0.071-0.733-0.4a0.249,0.249,0,0,1,.26-0.26c0.756,0,1.488.047,2.245,0.047,0.472,0,2.339-.047,2.812-0.047,0.165,0,.189.213,0.189,0.331a0.281,0.281,0,0,1-.237.284c-0.709,0-1.371.071-1.371,0.567a43.62,43.62,0,0,0,2.41,6.594C47.066,38.256,47.444,37.359,47.444,36.72Z"/><path class="cls-2" d="M52.052,39.273a8.561,8.561,0,0,0-.094,1.347,3.983,3.983,0,0,0,3.875,3.9A3.082,3.082,0,0,0,58.6,43.1a0.861,0.861,0,0,1,.355-0.4,0.5,0.5,0,0,1,.378.283,4.315,4.315,0,0,1-4.064,3c-3.379,0-5.152-2.079-5.152-5.387,0-3.38,2.293-5.672,4.726-5.672a3.955,3.955,0,0,1,4.231,4.088c0,0.236-.1.26-0.284,0.26H52.052Zm4.064-.709a0.678,0.678,0,0,0,.8-0.781,2,2,0,0,0-2.08-2.245c-1.7,0-2.41,1.418-2.647,3.025h3.923Z"/><path class="cls-2" d="M62.377,37.878c0-.827-0.212-1.3-1.394-1.417a0.221,0.221,0,0,1-.213-0.284,0.292,0.292,0,0,1,.188-0.332,10.529,10.529,0,0,0,3.308-1.157,0.276,0.276,0,0,1,.1.237c0,0.284-.118.874-0.118,2.15,0.78-.875,2.055-2.056,3.308-2.056a1.344,1.344,0,0,1,1.512,1.324,1.164,1.164,0,0,1-1.157,1.182c-0.968,0-1.11-.9-1.82-0.9a2.653,2.653,0,0,0-1.63,1.016,1,1,0,0,0-.165.685v5.363c0,0.875,0,1.395,1.181,1.395,0.875,0,.969.024,0.969,0.284,0,0.307-.094.331-0.355,0.331-0.851,0-1.607-.047-2.694-0.047-1.891,0-2.293.047-2.741,0.047-0.166,0-.213-0.141-0.213-0.307,0-.237.284-0.308,0.732-0.308,1.016,0,1.205-.189,1.205-1.206v-6Z"/><path class="cls-2" d="M77.121,42.77c0,1.157-.614,3.214-3.852,3.214-0.425,0-1.8-.189-2.718-0.189a0.151,0.151,0,0,1-.118-0.118c-0.023-.236-0.543-2.315-0.543-2.551,0-.142.331-0.142,0.425-0.142,0.567,0,.71,2.387,2.978,2.387a2.013,2.013,0,0,0,2.15-2.1c0-2.481-5.294-1.678-5.294-5.034a3.316,3.316,0,0,1,3.593-3.214,19.063,19.063,0,0,1,2.552.213,0.672,0.672,0,0,1,.354.662c0.047,0.968.26,1.583,0.26,1.89a0.222,0.222,0,0,1-.26.189,0.416,0.416,0,0,1-.472-0.331,2.783,2.783,0,0,0-2.458-2.008,1.708,1.708,0,0,0-1.891,1.772,1.8,1.8,0,0,0,1.111,1.584C75.419,40.17,77.121,40.1,77.121,42.77Z"/><path class="cls-2" d="M82.224,43.455c0,1.347.047,1.63,1.086,1.63,0.52,0,.568.024,0.568,0.308,0,0.141,0,.307-0.236.307-0.118,0-.426-0.047-1.962-0.047-2.221,0-2.835.047-3.19,0.047-0.189,0-.189-0.141-0.189-0.26,0-.307.024-0.355,0.9-0.355a0.884,0.884,0,0,0,.969-0.567,24,24,0,0,0,.141-3.4V37.878c0-.827-0.212-1.3-1.394-1.417a0.222,0.222,0,0,1-.213-0.284,0.292,0.292,0,0,1,.189-0.332A10.55,10.55,0,0,0,82.2,34.688a0.217,0.217,0,0,1,.142.26,21.4,21.4,0,0,0-.118,3.4v5.1Zm-2.2-13.3A1.229,1.229,0,1,1,81.255,31.4,1.255,1.255,0,0,1,80.026,30.151Z"/><path class="cls-2" d="M87.94,41.494c0,2.5.213,3.4,2.079,3.4a3.89,3.89,0,0,0,1.606-.543,0.469,0.469,0,0,1,.26.379c0,0.141-.992,1.252-3.142,1.252a2.571,2.571,0,0,1-2.718-2.93V36.838a0.248,0.248,0,0,0-.237-0.307H84.608a0.178,0.178,0,0,1-.142-0.214,0.413,0.413,0,0,1,.142-0.331c2.2-1.654,2.646-2.907,3.119-2.907a0.28,0.28,0,0,1,.284.307c0,0.425-.071.827-0.071,2.175h3.639c0.165,0,.237.164,0.237,0.5a0.549,0.549,0,0,1-.638.591c-0.165,0-1.276-.118-3.238-0.118v4.962Z"/><path class="cls-2" d="M102.213,36.838c0-.78-1.112-0.8-1.821-0.8-0.211,0-.235-0.118-0.235-0.308a0.275,0.275,0,0,1,.212-0.307c0.756,0,1.536.047,2.292,0.047,0.732,0,1.465-.047,2.2-0.047,0.165,0,.165.213,0.165,0.307,0,0.213-.071.284-0.4,0.308a1.417,1.417,0,0,0-1.489,1.04c-0.851,1.961-4.112,8.815-4.632,10.138-1.82,4.561-2.6,4.868-3.379,4.868a1.335,1.335,0,1,1,.047-2.67,5.139,5.139,0,0,1,1.181.4c0.425,0,1.536-2.268,1.536-3.379a11.33,11.33,0,0,0-.827-2.646c-1.489-3.828-1.938-5.884-2.435-7.207-0.212-.544-1.394-0.544-1.7-0.544a0.267,0.267,0,0,1-.214-0.331,0.255,0.255,0,0,1,.261-0.284c0.283,0,1.772.047,2.622,0.047,0.8,0,1.631-.047,2.34-0.047a0.257,0.257,0,0,1,.284.307,0.286,0.286,0,0,1-.237.308c-0.142,0-1.158,0-1.158.52,0,1.134.8,3.473,2.339,7.42C100.251,41.73,102.213,37.571,102.213,36.838Z"/><path class="cls-2" d="M117,45.984a5.287,5.287,0,0,1-5.482-5.482,5.494,5.494,0,0,1,10.989,0A5.179,5.179,0,0,1,117,45.984Zm0-10.35c-2.457,0-3.236,2.552-3.236,4.867,0,2.009.472,4.868,3.236,4.868,2.789,0,3.261-2.859,3.261-4.868C120.262,38.185,119.483,35.634,117,35.634Z"/><path class="cls-2" d="M127.892,43.691c0,0.875,0,1.395,1.182,1.395,0.875,0,.969.024,0.969,0.284,0,0.307-.094.331-0.355,0.331-0.851,0-1.607-.047-2.694-0.047-1.89,0-2.292.047-2.5,0.047-0.166,0-.213-0.141-0.213-0.307,0-.237.047-0.308,0.5-0.308,1.016,0,1.206-.189,1.206-1.206V37.287c0-.284,0-0.756-0.449-0.756h-1.3c-0.166,0-.284,0-0.284-0.308,0-.189.165-0.284,0.732-0.4,0.922-.213,1.159-0.259,1.228-1.324,0.237-3.592,1.3-5.577,4.089-6.309A7.087,7.087,0,0,1,131.438,28a1.278,1.278,0,0,1,1.488,1.016,1.055,1.055,0,0,1-1.111,1.158,2.113,2.113,0,0,1-1.3-.543,2.177,2.177,0,0,0-1.04-.544c-1.347,0-1.584,1.961-1.584,3.427v3.048h2.931c0.166,0,.236.164,0.236,0.5a0.548,0.548,0,0,1-.637.591c-0.165,0-1.985-.118-2.53-0.118v7.159Z"/><path class="cls-2" d="M157.216,29.063a0.294,0.294,0,0,1,.283-0.26c0.119,0,1.844.094,2.387,0.094,0.4,0,2.41-.094,2.576-0.094,0.236,0,.259.189,0.259,0.4a0.259,0.259,0,0,1-.284.308c-2.127,0-2.386.165-2.386,1.253,0,1.535.259,6.5,0.5,13.115a1.166,1.166,0,0,0,1.3,1.111c1.323,0,1.346.142,1.346,0.307,0,0.355-.118.4-0.259,0.4-0.213,0-.473-0.047-3.758-0.047-3.071,0-3.214.047-3.4,0.047-0.26,0-.26-0.165-0.26-0.378,0-.165.047-0.331,1.135-0.331,1.56,0,1.583-.378,1.583-1.324,0-1.418-.355-9.051-0.544-13.47H157.64c-1.725,4.419-3.9,9.5-5.458,13.3-0.9,2.173-.9,2.434-1.2,2.434s-0.355-.212-0.851-1.843c-0.52-1.7-4.371-12.147-4.467-12.147-0.4,1.726-1.961,9.571-1.961,11.934a1.021,1.021,0,0,0,1.181,1.111,2.245,2.245,0,0,1,1.277.188c0,0.45,0,.52-0.26.52-0.19,0-.426-0.047-2.859-0.047-2.15,0-2.316.047-2.458,0.047-0.189,0-.259-0.024-0.259-0.4,0-.236.118-0.307,1.252-0.307,0.827,0,.993-0.308,1.253-1.654,0.638-3.4,1.2-6.829,1.937-10.232a10.359,10.359,0,0,0,.308-2.222,2.483,2.483,0,0,0-.615-1.181,8.016,8.016,0,0,0-2.031-.189c-0.284,0-.284-0.189-0.284-0.355,0-.189.047-0.355,0.259-0.355,0.449,0,2.482.094,2.742,0.094,0.614,0,1.607-.094,1.914-0.094,0.259,0,.33.26,0.567,1.11,0.5,1.773,3.922,11.344,4.348,12.217C153.742,37.949,155.537,33.625,157.216,29.063Z"/><path class="cls-2" d="M167.728,43.455c0,1.347.046,1.63,1.087,1.63,0.519,0,.567.024,0.567,0.308,0,0.141,0,.307-0.237.307-0.118,0-.426-0.047-1.961-0.047-2.222,0-2.836.047-3.191,0.047-0.189,0-.189-0.141-0.189-0.26,0-.307.024-0.355,0.9-0.355a0.883,0.883,0,0,0,.968-0.567,23.766,23.766,0,0,0,.143-3.4V37.878c0-.827-0.212-1.3-1.395-1.417a0.222,0.222,0,0,1-.212-0.284,0.292,0.292,0,0,1,.189-0.332,10.544,10.544,0,0,0,3.308-1.157c0.1,0,.143.118,0.143,0.26a21.442,21.442,0,0,0-.118,3.4v5.1Zm-2.2-13.3a1.23,1.23,0,1,1,1.229,1.253A1.257,1.257,0,0,1,165.529,30.151Z"/><path class="cls-2" d="M177.935,42.77c0,1.157-.614,3.214-3.853,3.214-0.425,0-1.8-.189-2.717-0.189a0.151,0.151,0,0,1-.118-0.118c-0.024-.236-0.543-2.315-0.543-2.551,0-.142.331-0.142,0.425-0.142,0.568,0,.71,2.387,2.979,2.387a2.013,2.013,0,0,0,2.15-2.1c0-2.481-5.293-1.678-5.293-5.034a3.315,3.315,0,0,1,3.592-3.214,19.035,19.035,0,0,1,2.552.213,0.672,0.672,0,0,1,.354.662c0.047,0.968.26,1.583,0.26,1.89a0.221,0.221,0,0,1-.26.189,0.416,0.416,0,0,1-.473-0.331,2.781,2.781,0,0,0-2.458-2.008,1.707,1.707,0,0,0-1.89,1.772,1.8,1.8,0,0,0,1.111,1.584C176.233,40.17,177.935,40.1,177.935,42.77Z"/><path class="cls-2" d="M186.677,42.77c0,1.157-.614,3.214-3.852,3.214-0.426,0-1.8-.189-2.717-0.189a0.152,0.152,0,0,1-.119-0.118c-0.024-.236-0.542-2.315-0.542-2.551,0-.142.33-0.142,0.425-0.142,0.567,0,.71,2.387,2.977,2.387a2.013,2.013,0,0,0,2.151-2.1c0-2.481-5.293-1.678-5.293-5.034a3.315,3.315,0,0,1,3.592-3.214,19.014,19.014,0,0,1,2.551.213,0.671,0.671,0,0,1,.355.662c0.047,0.968.26,1.583,0.26,1.89a0.222,0.222,0,0,1-.26.189,0.416,0.416,0,0,1-.473-0.331,2.78,2.78,0,0,0-2.457-2.008,1.708,1.708,0,0,0-1.891,1.772,1.8,1.8,0,0,0,1.111,1.584C184.976,40.17,186.677,40.1,186.677,42.77Z"/><path class="cls-2" d="M193.883,45.984A5.287,5.287,0,0,1,188.4,40.5a5.494,5.494,0,0,1,10.989,0A5.179,5.179,0,0,1,193.883,45.984Zm0-10.35c-2.457,0-3.237,2.552-3.237,4.867,0,2.009.473,4.868,3.237,4.868,2.789,0,3.261-2.859,3.261-4.868C197.143,38.185,196.364,35.634,193.883,35.634Z"/><path class="cls-2" d="M202.34,38.328c0-2.08-.236-2.222-1.465-2.222-0.189,0-.52,0-0.52-0.237,0-.188,0-0.472.259-0.472,0.237,0,.615.07,1.4,0.07,0.826,0,1.725-.07,2.055-0.07,0.143,0,.19,0,0.19.33v6.381c0,1.772.567,2.788,2.315,2.788,0.851,0,2.34-.519,2.34-1.252V37.524c0-1.277-.237-1.418-1.465-1.418-0.426,0-.757,0-0.757-0.237,0-.354,0-0.472.166-0.472,0.33,0,.614.07,2.056,0.07,0.591,0,1.2-.07,1.8-0.07a0.289,0.289,0,0,1,.331.33c0,0.1-.213,1.915-0.213,3.593v4.442c0,0.379,0,.875.592,0.875,0.33,0,.85-0.094,1.016-0.094,0.093,0,.141,0,0.141.449,0,0.142-.024.188-0.78,0.307a21.7,21.7,0,0,0-2.717.614,0.315,0.315,0,0,1-.283-0.331c0-.284.047-0.661,0.07-0.9a6.55,6.55,0,0,1-3.52,1.3c-2.34,0-3-1.512-3-3.97V38.328Z"/><path class="cls-2" d="M215.24,37.878c0-.827-0.212-1.3-1.394-1.417a0.221,0.221,0,0,1-.212-0.284,0.291,0.291,0,0,1,.189-0.332,10.558,10.558,0,0,0,3.308-1.157,0.278,0.278,0,0,1,.094.237c0,0.284-.118.874-0.118,2.15,0.779-.875,2.056-2.056,3.308-2.056a1.345,1.345,0,0,1,1.512,1.324,1.164,1.164,0,0,1-1.158,1.182c-0.968,0-1.111-.9-1.82-0.9a2.654,2.654,0,0,0-1.63,1.016,1,1,0,0,0-.165.685v5.363c0,0.875,0,1.395,1.181,1.395,0.875,0,.969.024,0.969,0.284,0,0.307-.094.331-0.355,0.331-0.85,0-1.606-.047-2.694-0.047-1.891,0-2.293.047-2.74,0.047-0.167,0-.214-0.141-0.214-0.307,0-.237.284-0.308,0.733-0.308,1.016,0,1.2-.189,1.2-1.206v-6Z"/><path class="cls-2" d="M226.346,43.455c0,1.347.047,1.63,1.087,1.63,0.52,0,.567.024,0.567,0.308,0,0.141,0,.307-0.237.307-0.118,0-.425-0.047-1.961-0.047-2.222,0-2.836.047-3.191,0.047-0.189,0-.189-0.141-0.189-0.26,0-.307.025-0.355,0.9-0.355a0.885,0.885,0,0,0,.969-0.567,23.983,23.983,0,0,0,.142-3.4V37.878c0-.827-0.212-1.3-1.394-1.417a0.222,0.222,0,0,1-.213-0.284,0.292,0.292,0,0,1,.189-0.332,10.575,10.575,0,0,0,3.309-1.157c0.094,0,.141.118,0.141,0.26a21.442,21.442,0,0,0-.118,3.4v5.1Zm-2.2-13.3a1.229,1.229,0,1,1,1.229,1.253A1.257,1.257,0,0,1,224.148,30.151Z"/><path d="M5.128,65.705c0,3.167,1.324,5.931,5.294,5.931,2.765,0,5.152-1.536,5.152-7.16V59.8c0-3.284-.685-3.284-3.12-3.284-0.189,0-.189-0.142-0.189-0.355,0-.284.071-0.355,0.189-0.355,0.4,0,1.938.094,3.473,0.094,0.733,0,2.742-.094,3.072-0.094,0.236,0,.331.047,0.331,0.4a0.261,0.261,0,0,1-.213.308c-2.269,0-2.741,0-2.741,2.788v5.6c0,6.381-4.066,8.082-6.806,8.082-5.293,0-6.782-3.544-6.782-6.144V61.428c0-1.678-.023-2.246-0.048-3.332C2.718,56.7,2.316,56.513.26,56.513,0,56.513,0,56.324,0,56.111A0.255,0.255,0,0,1,.213,55.8c0.189,0,2.246.094,3.734,0.094C5.459,55.9,7.515,55.8,7.7,55.8a0.255,0.255,0,0,1,.213.308c0,0.213,0,.4-0.26.4C5.6,56.513,5.2,56.7,5.176,58.1c-0.024,1.086-.048,1.655-0.048,3.332v4.277Z"/><path d="M23.344,70.455c0,1.347.047,1.63,1.087,1.63,0.637,0,.685.024,0.685,0.308,0,0.141,0,.307-0.237.307-0.118,0-.426-0.047-2.08-0.047-2.221,0-2.835.047-3.19,0.047-0.188,0-.188-0.141-0.188-0.26,0-.307.023-0.355,0.9-0.355a0.883,0.883,0,0,0,.968-0.567,23.829,23.829,0,0,0,.142-3.4V64.878c0-.827-0.213-1.3-1.395-1.417a0.221,0.221,0,0,1-.212-0.284,0.292,0.292,0,0,1,.188-0.332,10.541,10.541,0,0,0,3.308-1.157c0.048,0,.071.071,0.071,0.26,0,0.142-.047.662-0.047,1.7a7.175,7.175,0,0,1,3.71-1.631c0.8,0,3.119.165,3.119,3.545v5.671c0,0.4.071,0.851,1.536,0.851,0.236,0,.236.142,0.236,0.308,0,0.141,0,.307-0.331.307-0.709,0-1.134-.047-2.387-0.047-1.914,0-2.293.047-2.481,0.047-0.142,0-.165-0.165-0.165-0.283a0.3,0.3,0,0,1,.331-0.331c1.134,0,1.347-.094,1.347-0.874V66.981c0-2.2-.189-3.663-2.646-3.663a3.506,3.506,0,0,0-2.269,1.087v6.05Z"/><path d="M36.6,70.455c0,1.347.047,1.63,1.087,1.63,0.519,0,.567.024,0.567,0.308,0,0.141,0,.307-0.236.307-0.118,0-.426-0.047-1.961-0.047-2.222,0-2.836.047-3.191,0.047-0.189,0-.189-0.141-0.189-0.26,0-.307.024-0.355,0.9-0.355a0.883,0.883,0,0,0,.968-0.567,23.844,23.844,0,0,0,.142-3.4V64.878c0-.827-0.212-1.3-1.395-1.417a0.221,0.221,0,0,1-.212-0.284,0.292,0.292,0,0,1,.188-0.332,10.55,10.55,0,0,0,3.308-1.157c0.1,0,.142.118,0.142,0.26a21.352,21.352,0,0,0-.118,3.4v5.1Zm-2.2-13.3A1.229,1.229,0,1,1,35.63,58.4,1.256,1.256,0,0,1,34.4,57.151Z"/><path d="M47.444,63.72c0-.685-1.228-0.685-1.583-0.685a0.27,0.27,0,0,1-.213-0.331,0.293,0.293,0,0,1,.308-0.284c0.638,0,1.371.047,2.032,0.047,0.685,0,1.394-.047,2.08-0.047a0.244,0.244,0,0,1,.212.284,0.216,0.216,0,0,1-.236.26c-1.37.213-1.441,0.308-2.2,2.15-0.828,2.032-2.246,5.011-2.671,6-0.661,1.583-.874,1.867-1.063,1.867-0.26,0-.425-0.5-0.9-1.512-0.827-1.772-2.788-7.538-3.119-8.011a0.811,0.811,0,0,0-.827-0.379c-0.638,0-.733-0.071-0.733-0.4a0.249,0.249,0,0,1,.26-0.26c0.756,0,1.488.047,2.245,0.047,0.472,0,2.339-.047,2.812-0.047,0.165,0,.189.213,0.189,0.331a0.281,0.281,0,0,1-.237.284c-0.709,0-1.371.071-1.371,0.567a43.62,43.62,0,0,0,2.41,6.594C47.066,65.256,47.444,64.359,47.444,63.72Z"/><path d="M52.052,66.273a8.561,8.561,0,0,0-.094,1.347,3.983,3.983,0,0,0,3.875,3.9A3.082,3.082,0,0,0,58.6,70.1a0.861,0.861,0,0,1,.355-0.4,0.5,0.5,0,0,1,.378.283,4.315,4.315,0,0,1-4.064,3c-3.379,0-5.152-2.079-5.152-5.387,0-3.38,2.293-5.672,4.726-5.672a3.955,3.955,0,0,1,4.231,4.088c0,0.236-.1.26-0.284,0.26H52.052Zm4.064-.709a0.678,0.678,0,0,0,.8-0.781,2,2,0,0,0-2.08-2.245c-1.7,0-2.41,1.418-2.647,3.025h3.923Z"/><path d="M62.377,64.878c0-.827-0.212-1.3-1.394-1.417a0.221,0.221,0,0,1-.213-0.284,0.292,0.292,0,0,1,.188-0.332,10.529,10.529,0,0,0,3.308-1.157,0.276,0.276,0,0,1,.1.237c0,0.284-.118.874-0.118,2.15,0.78-.875,2.055-2.056,3.308-2.056a1.344,1.344,0,0,1,1.512,1.324,1.164,1.164,0,0,1-1.157,1.182c-0.968,0-1.11-.9-1.82-0.9a2.653,2.653,0,0,0-1.63,1.016,1,1,0,0,0-.165.685v5.363c0,0.875,0,1.395,1.181,1.395,0.875,0,.969.024,0.969,0.284,0,0.307-.094.331-0.355,0.331-0.851,0-1.607-.047-2.694-0.047-1.891,0-2.293.047-2.741,0.047-0.166,0-.213-0.141-0.213-0.307,0-.237.284-0.308,0.732-0.308,1.016,0,1.205-.189,1.205-1.206v-6Z"/><path d="M77.121,69.77c0,1.157-.614,3.214-3.852,3.214-0.425,0-1.8-.189-2.718-0.189a0.151,0.151,0,0,1-.118-0.118c-0.023-.236-0.543-2.315-0.543-2.551,0-.142.331-0.142,0.425-0.142,0.567,0,.71,2.387,2.978,2.387a2.013,2.013,0,0,0,2.15-2.1c0-2.481-5.294-1.678-5.294-5.034a3.316,3.316,0,0,1,3.593-3.214,19.063,19.063,0,0,1,2.552.213,0.672,0.672,0,0,1,.354.662c0.047,0.968.26,1.583,0.26,1.89a0.222,0.222,0,0,1-.26.189,0.416,0.416,0,0,1-.472-0.331,2.783,2.783,0,0,0-2.458-2.008,1.708,1.708,0,0,0-1.891,1.772,1.8,1.8,0,0,0,1.111,1.584C75.419,67.17,77.121,67.1,77.121,69.77Z"/><path d="M82.224,70.455c0,1.347.047,1.63,1.086,1.63,0.52,0,.568.024,0.568,0.308,0,0.141,0,.307-0.236.307-0.118,0-.426-0.047-1.962-0.047-2.221,0-2.835.047-3.19,0.047-0.189,0-.189-0.141-0.189-0.26,0-.307.024-0.355,0.9-0.355a0.884,0.884,0,0,0,.969-0.567,24,24,0,0,0,.141-3.4V64.878c0-.827-0.212-1.3-1.394-1.417a0.222,0.222,0,0,1-.213-0.284,0.292,0.292,0,0,1,.189-0.332A10.55,10.55,0,0,0,82.2,61.688a0.217,0.217,0,0,1,.142.26,21.4,21.4,0,0,0-.118,3.4v5.1Zm-2.2-13.3A1.229,1.229,0,1,1,81.255,58.4,1.255,1.255,0,0,1,80.026,57.151Z"/><path d="M87.94,68.494c0,2.5.213,3.4,2.079,3.4a3.89,3.89,0,0,0,1.606-.543,0.469,0.469,0,0,1,.26.379c0,0.141-.992,1.252-3.142,1.252a2.571,2.571,0,0,1-2.718-2.93V63.838a0.248,0.248,0,0,0-.237-0.307H84.608a0.178,0.178,0,0,1-.142-0.214,0.413,0.413,0,0,1,.142-0.331c2.2-1.654,2.646-2.907,3.119-2.907a0.28,0.28,0,0,1,.284.307c0,0.425-.071.827-0.071,2.175h3.639c0.165,0,.237.164,0.237,0.5a0.549,0.549,0,0,1-.638.591c-0.165,0-1.276-.118-3.238-0.118v4.962Z"/><path d="M102.213,63.838c0-.78-1.112-0.8-1.821-0.8-0.211,0-.235-0.118-0.235-0.308a0.275,0.275,0,0,1,.212-0.307c0.756,0,1.536.047,2.292,0.047,0.732,0,1.465-.047,2.2-0.047,0.165,0,.165.213,0.165,0.307,0,0.213-.071.284-0.4,0.308a1.417,1.417,0,0,0-1.489,1.04c-0.851,1.961-4.112,8.815-4.632,10.138-1.82,4.561-2.6,4.868-3.379,4.868a1.335,1.335,0,1,1,.047-2.67,5.139,5.139,0,0,1,1.181.4c0.425,0,1.536-2.268,1.536-3.379a11.33,11.33,0,0,0-.827-2.646c-1.489-3.828-1.938-5.884-2.435-7.207-0.212-.544-1.394-0.544-1.7-0.544a0.267,0.267,0,0,1-.214-0.331,0.255,0.255,0,0,1,.261-0.284c0.283,0,1.772.047,2.622,0.047,0.8,0,1.631-.047,2.34-0.047a0.257,0.257,0,0,1,.284.307,0.286,0.286,0,0,1-.237.308c-0.142,0-1.158,0-1.158.52,0,1.134.8,3.473,2.339,7.42C100.251,68.73,102.213,64.571,102.213,63.838Z"/><path d="M117,72.984a5.287,5.287,0,0,1-5.482-5.482,5.494,5.494,0,0,1,10.989,0A5.179,5.179,0,0,1,117,72.984Zm0-10.35c-2.457,0-3.236,2.552-3.236,4.867,0,2.009.472,4.868,3.236,4.868,2.789,0,3.261-2.859,3.261-4.868C120.262,65.185,119.483,62.634,117,62.634Z"/><path d="M127.892,70.691c0,0.875,0,1.395,1.182,1.395,0.875,0,.969.024,0.969,0.284,0,0.307-.094.331-0.355,0.331-0.851,0-1.607-.047-2.694-0.047-1.89,0-2.292.047-2.5,0.047-0.166,0-.213-0.141-0.213-0.307,0-.237.047-0.308,0.5-0.308,1.016,0,1.206-.189,1.206-1.206V64.287c0-.284,0-0.756-0.449-0.756h-1.3c-0.166,0-.284,0-0.284-0.308,0-.189.165-0.284,0.732-0.4,0.922-.213,1.159-0.259,1.228-1.324,0.237-3.592,1.3-5.577,4.089-6.309A7.087,7.087,0,0,1,131.438,55a1.278,1.278,0,0,1,1.488,1.016,1.055,1.055,0,0,1-1.111,1.158,2.113,2.113,0,0,1-1.3-.543,2.177,2.177,0,0,0-1.04-.544c-1.347,0-1.584,1.961-1.584,3.427v3.048h2.931c0.166,0,.236.164,0.236,0.5a0.548,0.548,0,0,1-.637.591c-0.165,0-1.985-.118-2.53-0.118v7.159Z"/><path d="M157.216,56.063a0.294,0.294,0,0,1,.283-0.26c0.119,0,1.844.094,2.387,0.094,0.4,0,2.41-.094,2.576-0.094,0.236,0,.259.189,0.259,0.4a0.259,0.259,0,0,1-.284.308c-2.127,0-2.386.165-2.386,1.253,0,1.535.259,6.5,0.5,13.115a1.166,1.166,0,0,0,1.3,1.111c1.323,0,1.346.142,1.346,0.307,0,0.355-.118.4-0.259,0.4-0.213,0-.473-0.047-3.758-0.047-3.071,0-3.214.047-3.4,0.047-0.26,0-.26-0.165-0.26-0.378,0-.165.047-0.331,1.135-0.331,1.56,0,1.583-.378,1.583-1.324,0-1.418-.355-9.051-0.544-13.47H157.64c-1.725,4.419-3.9,9.5-5.458,13.3-0.9,2.173-.9,2.434-1.2,2.434s-0.355-.212-0.851-1.843c-0.52-1.7-4.371-12.147-4.467-12.147-0.4,1.726-1.961,9.571-1.961,11.934a1.021,1.021,0,0,0,1.181,1.111,2.245,2.245,0,0,1,1.277.188c0,0.45,0,.52-0.26.52-0.19,0-.426-0.047-2.859-0.047-2.15,0-2.316.047-2.458,0.047-0.189,0-.259-0.024-0.259-0.4,0-.236.118-0.307,1.252-0.307,0.827,0,.993-0.308,1.253-1.654,0.638-3.4,1.2-6.829,1.937-10.232a10.359,10.359,0,0,0,.308-2.222,2.483,2.483,0,0,0-.615-1.181,8.016,8.016,0,0,0-2.031-.189c-0.284,0-.284-0.189-0.284-0.355,0-.189.047-0.355,0.259-0.355,0.449,0,2.482.094,2.742,0.094,0.614,0,1.607-.094,1.914-0.094,0.259,0,.33.26,0.567,1.11,0.5,1.773,3.922,11.344,4.348,12.217C153.742,64.949,155.537,60.625,157.216,56.063Z"/><path d="M167.728,70.455c0,1.347.046,1.63,1.087,1.63,0.519,0,.567.024,0.567,0.308,0,0.141,0,.307-0.237.307-0.118,0-.426-0.047-1.961-0.047-2.222,0-2.836.047-3.191,0.047-0.189,0-.189-0.141-0.189-0.26,0-.307.024-0.355,0.9-0.355a0.883,0.883,0,0,0,.968-0.567,23.766,23.766,0,0,0,.143-3.4V64.878c0-.827-0.212-1.3-1.395-1.417a0.222,0.222,0,0,1-.212-0.284,0.292,0.292,0,0,1,.189-0.332,10.544,10.544,0,0,0,3.308-1.157c0.1,0,.143.118,0.143,0.26a21.442,21.442,0,0,0-.118,3.4v5.1Zm-2.2-13.3a1.23,1.23,0,1,1,1.229,1.253A1.257,1.257,0,0,1,165.529,57.151Z"/><path d="M177.935,69.77c0,1.157-.614,3.214-3.853,3.214-0.425,0-1.8-.189-2.717-0.189a0.151,0.151,0,0,1-.118-0.118c-0.024-.236-0.543-2.315-0.543-2.551,0-.142.331-0.142,0.425-0.142,0.568,0,.71,2.387,2.979,2.387a2.013,2.013,0,0,0,2.15-2.1c0-2.481-5.293-1.678-5.293-5.034a3.315,3.315,0,0,1,3.592-3.214,19.035,19.035,0,0,1,2.552.213,0.672,0.672,0,0,1,.354.662c0.047,0.968.26,1.583,0.26,1.89a0.221,0.221,0,0,1-.26.189,0.416,0.416,0,0,1-.473-0.331,2.781,2.781,0,0,0-2.458-2.008,1.707,1.707,0,0,0-1.89,1.772,1.8,1.8,0,0,0,1.111,1.584C176.233,67.17,177.935,67.1,177.935,69.77Z"/><path d="M186.677,69.77c0,1.157-.614,3.214-3.852,3.214-0.426,0-1.8-.189-2.717-0.189a0.152,0.152,0,0,1-.119-0.118c-0.024-.236-0.542-2.315-0.542-2.551,0-.142.33-0.142,0.425-0.142,0.567,0,.71,2.387,2.977,2.387a2.013,2.013,0,0,0,2.151-2.1c0-2.481-5.293-1.678-5.293-5.034a3.315,3.315,0,0,1,3.592-3.214,19.014,19.014,0,0,1,2.551.213,0.671,0.671,0,0,1,.355.662c0.047,0.968.26,1.583,0.26,1.89a0.222,0.222,0,0,1-.26.189,0.416,0.416,0,0,1-.473-0.331,2.78,2.78,0,0,0-2.457-2.008,1.708,1.708,0,0,0-1.891,1.772,1.8,1.8,0,0,0,1.111,1.584C184.976,67.17,186.677,67.1,186.677,69.77Z"/><path d="M193.883,72.984A5.287,5.287,0,0,1,188.4,67.5a5.494,5.494,0,0,1,10.989,0A5.179,5.179,0,0,1,193.883,72.984Zm0-10.35c-2.457,0-3.237,2.552-3.237,4.867,0,2.009.473,4.868,3.237,4.868,2.789,0,3.261-2.859,3.261-4.868C197.143,65.185,196.364,62.634,193.883,62.634Z"/><path d="M202.34,65.328c0-2.08-.236-2.222-1.465-2.222-0.189,0-.52,0-0.52-0.237,0-.188,0-0.472.259-0.472,0.237,0,.615.07,1.4,0.07,0.826,0,1.725-.07,2.055-0.07,0.143,0,.19,0,0.19.33v6.381c0,1.772.567,2.788,2.315,2.788,0.851,0,2.34-.519,2.34-1.252V64.524c0-1.277-.237-1.418-1.465-1.418-0.426,0-.757,0-0.757-0.237,0-.354,0-0.472.166-0.472,0.33,0,.614.07,2.056,0.07,0.591,0,1.2-.07,1.8-0.07a0.289,0.289,0,0,1,.331.33c0,0.1-.213,1.915-0.213,3.593v4.442c0,0.379,0,.875.592,0.875,0.33,0,.85-0.094,1.016-0.094,0.093,0,.141,0,0.141.449,0,0.142-.024.188-0.78,0.307a21.7,21.7,0,0,0-2.717.614,0.315,0.315,0,0,1-.283-0.331c0-.284.047-0.661,0.07-0.9a6.55,6.55,0,0,1-3.52,1.3c-2.34,0-3-1.512-3-3.97V65.328Z"/><path d="M215.24,64.878c0-.827-0.212-1.3-1.394-1.417a0.221,0.221,0,0,1-.212-0.284,0.291,0.291,0,0,1,.189-0.332,10.558,10.558,0,0,0,3.308-1.157,0.278,0.278,0,0,1,.094.237c0,0.284-.118.874-0.118,2.15,0.779-.875,2.056-2.056,3.308-2.056a1.345,1.345,0,0,1,1.512,1.324,1.164,1.164,0,0,1-1.158,1.182c-0.968,0-1.111-.9-1.82-0.9a2.654,2.654,0,0,0-1.63,1.016,1,1,0,0,0-.165.685v5.363c0,0.875,0,1.395,1.181,1.395,0.875,0,.969.024,0.969,0.284,0,0.307-.094.331-0.355,0.331-0.85,0-1.606-.047-2.694-0.047-1.891,0-2.293.047-2.74,0.047-0.167,0-.214-0.141-0.214-0.307,0-.237.284-0.308,0.733-0.308,1.016,0,1.2-.189,1.2-1.206v-6Z"/><path d="M226.346,70.455c0,1.347.047,1.63,1.087,1.63,0.52,0,.567.024,0.567,0.308,0,0.141,0,.307-0.237.307-0.118,0-.425-0.047-1.961-0.047-2.222,0-2.836.047-3.191,0.047-0.189,0-.189-0.141-0.189-0.26,0-.307.025-0.355,0.9-0.355a0.885,0.885,0,0,0,.969-0.567,23.983,23.983,0,0,0,.142-3.4V64.878c0-.827-0.212-1.3-1.394-1.417a0.222,0.222,0,0,1-.213-0.284,0.292,0.292,0,0,1,.189-0.332,10.575,10.575,0,0,0,3.309-1.157c0.094,0,.141.118,0.141,0.26a21.442,21.442,0,0,0-.118,3.4v5.1Zm-2.2-13.3a1.229,1.229,0,1,1,1.229,1.253A1.257,1.257,0,0,1,224.148,57.151Z"/></svg>