<svg xmlns="http://www.w3.org/2000/svg" width="333" height="113.17" viewBox="0 0 333 113.17"><defs><style>.a{fill:#fff;}.b{fill:#f1b82d;}</style></defs><title>mu-wordmark-white-medium</title><path class="a" d="M7.489,17.635c0,4.625,1.933,8.663,7.732,8.663,4.038,0,7.524-2.243,7.524-10.457V9.006c0-4.8-1-4.8-4.556-4.8-0.276,0-.276-0.207-0.276-0.518,0-.414.1-0.518,0.276-0.518,0.587,0,2.831.138,5.073,0.138,1.071,0,4-.138,4.487-0.138,0.345,0,.483.069,0.483,0.587a0.381,0.381,0,0,1-.31.449c-3.314,0-4,0-4,4.072v8.18c0,9.319-5.938,11.8-9.941,11.8-7.731,0-9.905-5.177-9.905-8.973v-7.9c0-2.45-.034-3.28-0.07-4.867C3.969,4.485,3.383,4.21.38,4.21,0,4.21,0,3.933,0,3.623A0.373,0.373,0,0,1,.31,3.174c0.277,0,3.28.138,5.453,0.138,2.21,0,5.212-.138,5.488-0.138a0.373,0.373,0,0,1,.31.449c0,0.31,0,.587-0.379.587-3,0-3.59.276-3.624,2.312-0.035,1.587-.07,2.416-0.07,4.867v6.246Z" transform="translate(0 -2)"/><path class="a" d="M34.1,24.573c0,1.967.069,2.381,1.588,2.381,0.931,0,1,.035,1,0.449,0,0.206,0,.448-0.346.448-0.173,0-.622-0.069-3.038-0.069-3.244,0-4.141.069-4.659,0.069-0.275,0-.275-0.206-0.275-0.379,0-.449.034-0.518,1.311-0.518a1.289,1.289,0,0,0,1.414-.829,34.8,34.8,0,0,0,.208-4.97V16.427c0-1.207-.31-1.9-2.037-2.07a0.323,0.323,0,0,1-.309-0.414,0.426,0.426,0,0,1,.275-0.484,15.4,15.4,0,0,0,4.832-1.691c0.07,0,.1.1,0.1,0.379,0,0.208-.069.967-0.069,2.486,1.794-1.209,3.555-2.383,5.418-2.383,1.174,0,4.556.241,4.556,5.178v8.283c0,0.587.1,1.243,2.244,1.243,0.345,0,.345.208,0.345,0.449,0,0.206,0,.448-0.483.448-1.036,0-1.657-.069-3.486-0.069-2.8,0-3.348.069-3.624,0.069-0.207,0-.241-0.241-0.241-0.414a0.444,0.444,0,0,1,.483-0.483c1.656,0,1.967-.138,1.967-1.276V19.5c0-3.21-.277-5.35-3.865-5.35A5.12,5.12,0,0,0,34.1,15.737v8.836Z" transform="translate(0 -2)"/><path class="a" d="M53.454,24.573c0,1.967.069,2.381,1.588,2.381,0.758,0,.828.035,0.828,0.449,0,0.206,0,.448-0.345.448-0.173,0-.622-0.069-2.864-0.069-3.245,0-4.142.069-4.66,0.069-0.277,0-.277-0.206-0.277-0.379,0-.449.035-0.518,1.313-0.518a1.29,1.29,0,0,0,1.414-.829,34.825,34.825,0,0,0,.207-4.97V16.427c0-1.207-.31-1.9-2.037-2.07a0.323,0.323,0,0,1-.309-0.414,0.426,0.426,0,0,1,.275-0.484,15.409,15.409,0,0,0,4.831-1.691c0.139,0,.208.173,0.208,0.379a31.185,31.185,0,0,0-.173,4.97v7.455ZM50.245,5.141A1.8,1.8,0,1,1,52.039,6.97,1.834,1.834,0,0,1,50.245,5.141Z" transform="translate(0 -2)"/><path class="a" d="M69.294,14.736c0-1-1.794-1-2.312-1a0.394,0.394,0,0,1-.31-0.483,0.427,0.427,0,0,1,.449-0.414c0.932,0,2,.069,2.968.069,1,0,2.036-.069,3.037-0.069a0.356,0.356,0,0,1,.31.414,0.316,0.316,0,0,1-.345.379c-2,.311-2.1.449-3.209,3.141-1.209,2.968-3.28,7.318-3.9,8.767-0.966,2.312-1.276,2.727-1.553,2.727-0.379,0-.621-0.724-1.312-2.209-1.208-2.588-4.072-11.01-4.556-11.7a1.184,1.184,0,0,0-1.208-.553c-0.931,0-1.07-.1-1.07-0.586a0.363,0.363,0,0,1,.38-0.38c1.1,0,2.174.069,3.279,0.069,0.689,0,3.416-.069,4.107-0.069,0.242,0,.277.311,0.277,0.483a0.411,0.411,0,0,1-.346.414c-1.036,0-2,.1-2,0.829,0,1.139,2.8,8.111,3.52,9.63C68.742,16.98,69.294,15.669,69.294,14.736Z" transform="translate(0 -2)"/><path class="a" d="M76.023,18.464a12.5,12.5,0,0,0-.138,1.967,5.817,5.817,0,0,0,5.66,5.695,4.5,4.5,0,0,0,4.038-2.071,1.257,1.257,0,0,1,.518-0.586,0.724,0.724,0,0,1,.552.413,6.3,6.3,0,0,1-5.936,4.383c-4.935,0-7.524-3.037-7.524-7.868,0-4.936,3.348-8.284,6.9-8.284a5.777,5.777,0,0,1,6.179,5.97c0,0.345-.139.38-0.414,0.38H76.023Zm5.936-1.035a0.99,0.99,0,0,0,1.174-1.14c0-2.692-1.864-3.278-3.038-3.278-2.484,0-3.52,2.071-3.866,4.418h5.73Z" transform="translate(0 -2)"/><path class="a" d="M91.1,16.427c0-1.207-.31-1.9-2.036-2.07a0.323,0.323,0,0,1-.31-0.414,0.426,0.426,0,0,1,.275-0.484,15.378,15.378,0,0,0,4.831-1.691,0.4,0.4,0,0,1,.139.346c0,0.414-.173,1.276-0.173,3.141,1.139-1.278,3-3,4.831-3a1.963,1.963,0,0,1,2.209,1.933,1.7,1.7,0,0,1-1.691,1.726c-1.414,0-1.622-1.312-2.658-1.312a3.874,3.874,0,0,0-2.381,1.484,1.454,1.454,0,0,0-.241,1v7.833c0,1.277,0,2.037,1.725,2.037,1.278,0,1.415.035,1.415,0.414,0,0.448-.138.483-0.518,0.483-1.243,0-2.347-.069-3.934-0.069-2.762,0-3.348.069-4,.069-0.243,0-.312-0.206-0.312-0.448,0-.346.414-0.449,1.07-0.449,1.484,0,1.76-.277,1.76-1.761V16.427Z" transform="translate(0 -2)"/><path class="a" d="M112.637,23.572c0,1.691-.9,4.694-5.626,4.694-0.621,0-2.623-.276-3.969-0.276a0.221,0.221,0,0,1-.173-0.173c-0.034-.344-0.793-3.381-0.793-3.726,0-.208.483-0.208,0.62-0.208,0.829,0,1.036,3.486,4.35,3.486a2.94,2.94,0,0,0,3.141-3.072c0-3.624-7.732-2.45-7.732-7.352,0-2.829,2.348-4.694,5.247-4.694a27.842,27.842,0,0,1,3.728.31,0.981,0.981,0,0,1,.517.967c0.069,1.414.38,2.312,0.38,2.76a0.324,0.324,0,0,1-.38.277,0.607,0.607,0,0,1-.689-0.483c-0.242-.587-1.139-2.933-3.59-2.933a2.494,2.494,0,0,0-2.762,2.588,2.623,2.623,0,0,0,1.623,2.313C110.152,19.775,112.637,19.671,112.637,23.572Z" transform="translate(0 -2)"/><path class="a" d="M120.09,24.573c0,1.967.069,2.381,1.586,2.381,0.76,0,.83.035,0.83,0.449,0,0.206,0,.448-0.345.448-0.173,0-.622-0.069-2.865-0.069-3.244,0-4.141.069-4.659,0.069-0.276,0-.276-0.206-0.276-0.379,0-.449.035-0.518,1.311-0.518a1.291,1.291,0,0,0,1.415-.829,35.056,35.056,0,0,0,.206-4.97V16.427c0-1.207-.309-1.9-2.036-2.07a0.324,0.324,0,0,1-.31-0.414,0.427,0.427,0,0,1,.277-0.484,15.409,15.409,0,0,0,4.831-1.691,0.316,0.316,0,0,1,.208.379,31.251,31.251,0,0,0-.173,4.97v7.455ZM116.88,5.141a1.795,1.795,0,1,1,1.795,1.829A1.834,1.834,0,0,1,116.88,5.141Z" transform="translate(0 -2)"/><path class="a" d="M128.439,21.709c0,3.658.31,4.969,3.037,4.969a5.682,5.682,0,0,0,2.346-.793,0.685,0.685,0,0,1,.38.553c0,0.206-1.449,1.828-4.59,1.828-3.969,0-3.969-3.416-3.969-4.28V14.909a0.363,0.363,0,0,0-.346-0.448h-1.725a0.26,0.26,0,0,1-.207-0.312,0.6,0.6,0,0,1,.207-0.483c3.209-2.416,3.865-4.246,4.556-4.246a0.409,0.409,0,0,1,.414.449c0,0.621-.1,1.208-0.1,3.176h5.314c0.241,0,.346.24,0.346,0.725a0.8,0.8,0,0,1-.931.863c-0.241,0-1.864-.173-4.729-0.173v7.248Z" transform="translate(0 -2)"/><path class="a" d="M149.285,14.909c0-1.139-1.623-1.174-2.66-1.174-0.309,0-.343-0.173-0.343-0.449a0.4,0.4,0,0,1,.31-0.448c1.1,0,2.244.069,3.347,0.069,1.069,0,2.14-.069,3.211-0.069,0.241,0,.241.311,0.241,0.448,0,0.311-.1.414-0.587,0.449a2.07,2.07,0,0,0-2.175,1.519c-1.243,2.864-6.006,12.874-6.765,14.806-2.658,6.662-3.8,7.109-4.935,7.109a1.95,1.95,0,1,1,.069-3.9c0.861,0,1.31.586,1.725,0.586,0.62,0,2.244-3.312,2.244-4.936a16.548,16.548,0,0,0-1.207-3.865c-2.175-5.591-2.831-8.594-3.557-10.526-0.31-.795-2.035-0.795-2.483-0.795a0.39,0.39,0,0,1-.312-0.483,0.373,0.373,0,0,1,.381-0.414c0.413,0,2.588.069,3.83,0.069,1.174,0,2.383-.069,3.418-0.069a0.375,0.375,0,0,1,.415.448,0.417,0.417,0,0,1-.346.449c-0.207,0-1.691,0-1.691.76,0,1.657,1.173,5.073,3.416,10.838C146.419,22.053,149.285,15.979,149.285,14.909Z" transform="translate(0 -2)"/><path class="a" d="M170.883,28.265a7.722,7.722,0,0,1-8.007-8.007,8.025,8.025,0,0,1,16.049,0C178.926,25.09,175.716,28.265,170.883,28.265Zm0-15.116c-3.589,0-4.727,3.727-4.727,7.109,0,2.935.689,7.11,4.727,7.11,4.074,0,4.763-4.176,4.763-7.11C175.646,16.876,174.508,13.149,170.883,13.149Z" transform="translate(0 -2)"/><path class="a" d="M186.79,24.917c0,1.277,0,2.037,1.727,2.037,1.278,0,1.415.035,1.415,0.414,0,0.448-.138.483-0.518,0.483-1.243,0-2.347-.069-3.934-0.069-2.76,0-3.347.069-3.657,0.069-0.243,0-.311-0.206-0.311-0.448,0-.346.069-0.449,0.723-0.449,1.484,0,1.761-.277,1.761-1.761V15.564c0-.414,0-1.1-0.656-1.1h-1.9c-0.243,0-.415,0-0.415-0.449,0-.277.241-0.414,1.069-0.587,1.346-.31,1.692-0.379,1.794-1.933,0.346-5.246,1.9-8.145,5.973-9.215A10.351,10.351,0,0,1,191.969,2c0.9,0,2.173.346,2.173,1.484a1.541,1.541,0,0,1-1.622,1.692,3.086,3.086,0,0,1-1.9-.793,3.18,3.18,0,0,0-1.519-.795c-1.968,0-2.314,2.864-2.314,5.006v4.452h4.28c0.243,0,.345.24,0.345,0.725a0.8,0.8,0,0,1-.93.863c-0.241,0-2.9-.173-3.695-0.173V24.917Z" transform="translate(0 -2)"/><path class="a" d="M229.618,3.553a0.429,0.429,0,0,1,.413-0.379c0.174,0,2.693.138,3.487,0.138,0.587,0,3.52-.138,3.762-0.138,0.344,0,.379.277,0.379,0.587a0.378,0.378,0,0,1-.415.449c-3.106,0-3.485.241-3.485,1.829,0,2.242.379,9.49,0.725,19.154a1.7,1.7,0,0,0,1.9,1.623c1.932,0,1.966.207,1.966,0.448,0,0.518-.172.587-0.379,0.587-0.311,0-.69-0.069-5.489-0.069-4.486,0-4.694.069-4.969,0.069-0.38,0-.38-0.241-0.38-0.552,0-.242.069-0.483,1.658-0.483,2.278,0,2.312-.552,2.312-1.933,0-2.071-.518-13.219-0.8-19.673h-0.069c-2.519,6.454-5.694,13.876-7.972,19.432-1.311,3.174-1.311,3.555-1.76,3.555s-0.518-.31-1.243-2.691c-0.759-2.485-6.385-17.741-6.524-17.741-0.586,2.52-2.864,13.978-2.864,17.43a1.491,1.491,0,0,0,1.725,1.623c0.863,0,1.865.069,1.865,0.275,0,0.657,0,.76-0.38.76-0.277,0-.622-0.069-4.176-0.069-3.141,0-3.383.069-3.59,0.069-0.276,0-.379-0.035-0.379-0.587,0-.345.172-0.448,1.829-0.448,1.207,0,1.45-.449,1.83-2.416,0.932-4.97,1.758-9.974,2.829-14.945a15.129,15.129,0,0,0,.449-3.245,3.627,3.627,0,0,0-.9-1.725,11.708,11.708,0,0,0-2.967-.276c-0.415,0-.415-0.276-0.415-0.518,0-.277.069-0.518,0.379-0.518,0.656,0,3.624.138,4,.138,0.9,0,2.347-.138,2.8-0.138,0.379,0,.482.379,0.828,1.622,0.723,2.589,5.729,16.568,6.35,17.844C224.544,16.53,227.166,10.215,229.618,3.553Z" transform="translate(0 -2)"/><path class="a" d="M244.971,24.573c0,1.967.067,2.381,1.588,2.381,0.758,0,.828.035,0.828,0.449,0,0.206,0,.448-0.346.448-0.172,0-.622-0.069-2.864-0.069-3.245,0-4.143.069-4.661,0.069-0.276,0-.276-0.206-0.276-0.379,0-.449.034-0.518,1.312-0.518a1.29,1.29,0,0,0,1.414-.829,34.711,34.711,0,0,0,.208-4.97V16.427c0-1.207-.31-1.9-2.037-2.07a0.324,0.324,0,0,1-.31-0.414,0.427,0.427,0,0,1,.276-0.484,15.4,15.4,0,0,0,4.831-1.691c0.139,0,.208.173,0.208,0.379a31.317,31.317,0,0,0-.172,4.97v7.455ZM241.76,5.141a1.8,1.8,0,1,1,1.8,1.829A1.835,1.835,0,0,1,241.76,5.141Z" transform="translate(0 -2)"/><path class="a" d="M259.879,23.572c0,1.691-.9,4.694-5.627,4.694-0.62,0-2.622-.276-3.969-0.276a0.22,0.22,0,0,1-.172-0.173c-0.034-.344-0.794-3.381-0.794-3.726,0-.208.484-0.208,0.62-0.208,0.83,0,1.036,3.486,4.351,3.486a2.939,2.939,0,0,0,3.141-3.072c0-3.624-7.731-2.45-7.731-7.352,0-2.829,2.347-4.694,5.246-4.694a27.8,27.8,0,0,1,3.728.31,0.981,0.981,0,0,1,.517.967c0.069,1.414.38,2.312,0.38,2.76a0.323,0.323,0,0,1-.38.277,0.608,0.608,0,0,1-.69-0.483c-0.241-.587-1.138-2.933-3.59-2.933a2.493,2.493,0,0,0-2.76,2.588,2.623,2.623,0,0,0,1.622,2.313C257.393,19.775,259.879,19.671,259.879,23.572Z" transform="translate(0 -2)"/><path class="a" d="M272.646,23.572c0,1.691-.9,4.694-5.625,4.694-0.622,0-2.622-.276-3.969-0.276a0.222,0.222,0,0,1-.174-0.173c-0.034-.344-0.792-3.381-0.792-3.726,0-.208.482-0.208,0.62-0.208,0.828,0,1.036,3.486,4.348,3.486A2.94,2.94,0,0,0,270.2,24.3c0-3.624-7.731-2.45-7.731-7.352,0-2.829,2.347-4.694,5.246-4.694a27.771,27.771,0,0,1,3.726.31,0.98,0.98,0,0,1,.518.967c0.069,1.414.38,2.312,0.38,2.76a0.324,0.324,0,0,1-.38.277,0.608,0.608,0,0,1-.69-0.483c-0.24-.587-1.138-2.933-3.588-2.933a2.494,2.494,0,0,0-2.762,2.588,2.623,2.623,0,0,0,1.622,2.313C270.162,19.775,272.646,19.671,272.646,23.572Z" transform="translate(0 -2)"/><path class="a" d="M283.171,28.265a7.721,7.721,0,0,1-8.007-8.007,8.025,8.025,0,0,1,16.049,0C291.213,25.09,288,28.265,283.171,28.265Zm0-15.116c-3.588,0-4.728,3.727-4.728,7.109,0,2.935.69,7.11,4.728,7.11,4.074,0,4.763-4.176,4.763-7.11C287.933,16.876,286.8,13.149,283.171,13.149Z" transform="translate(0 -2)"/><path class="a" d="M295.524,17.084c0-3.038-.344-3.245-2.14-3.245-0.276,0-.759,0-0.759-0.346,0-.275,0-0.689.379-0.689,0.346,0,.9.1,2.038,0.1,1.207,0,2.519-.1,3-0.1,0.208,0,.277,0,0.277.482v9.32c0,2.588.828,4.072,3.382,4.072,1.243,0,3.418-.758,3.418-1.828V15.91c0-1.865-.346-2.071-2.14-2.071-0.622,0-1.105,0-1.105-.346,0-.517,0-0.689.243-0.689,0.482,0,.9.1,3,0.1,0.863,0,1.76-.1,2.622-0.1a0.422,0.422,0,0,1,.484.482c0,0.139-.311,2.8-0.311,5.247v6.488c0,0.553,0,1.277.864,1.277,0.482,0,1.242-.137,1.484-0.137,0.136,0,.207,0,0.207.656,0,0.207-.034.275-1.14,0.448a31.7,31.7,0,0,0-3.969.9,0.459,0.459,0,0,1-.413-0.483c0-.414.069-0.966,0.1-1.312a9.566,9.566,0,0,1-5.141,1.9c-3.418,0-4.384-2.209-4.384-5.8V17.084Z" transform="translate(0 -2)"/><path class="a" d="M314.364,16.427c0-1.207-.31-1.9-2.035-2.07a0.323,0.323,0,0,1-.31-0.414,0.425,0.425,0,0,1,.276-0.484,15.42,15.42,0,0,0,4.831-1.691,0.406,0.406,0,0,1,.138.346c0,0.414-.172,1.276-0.172,3.141,1.138-1.278,3-3,4.831-3a1.964,1.964,0,0,1,2.209,1.933,1.7,1.7,0,0,1-1.691,1.726c-1.414,0-1.622-1.312-2.658-1.312a3.876,3.876,0,0,0-2.381,1.484,1.456,1.456,0,0,0-.241,1v7.833c0,1.277,0,2.037,1.725,2.037,1.278,0,1.415.035,1.415,0.414,0,0.448-.138.483-0.518,0.483-1.242,0-2.345-.069-3.934-0.069-2.762,0-3.349.069-4,.069-0.244,0-.313-0.206-0.313-0.448,0-.346.415-0.449,1.071-0.449,1.484,0,1.76-.277,1.76-1.761V16.427Z" transform="translate(0 -2)"/><path class="a" d="M330.584,24.573c0,1.967.069,2.381,1.588,2.381,0.759,0,.828.035,0.828,0.449,0,0.206,0,.448-0.346.448-0.172,0-.62-0.069-2.864-0.069-3.245,0-4.143.069-4.661,0.069-0.276,0-.276-0.206-0.276-0.379,0-.449.036-0.518,1.312-0.518a1.292,1.292,0,0,0,1.415-.829,35.027,35.027,0,0,0,.207-4.97V16.427c0-1.207-.31-1.9-2.035-2.07a0.324,0.324,0,0,1-.311-0.414,0.427,0.427,0,0,1,.276-0.484,15.445,15.445,0,0,0,4.833-1.691c0.138,0,.207.173,0.207,0.379a31.317,31.317,0,0,0-.172,4.97v7.455ZM327.373,5.141a1.8,1.8,0,1,1,1.8,1.829A1.835,1.835,0,0,1,327.373,5.141Z" transform="translate(0 -2)"/><path class="b" d="M7.489,56.635c0,4.625,1.933,8.663,7.732,8.663,4.038,0,7.524-2.243,7.524-10.457V48.006c0-4.8-1-4.8-4.556-4.8-0.276,0-.276-0.207-0.276-0.518,0-.414.1-0.518,0.276-0.518,0.587,0,2.831.138,5.073,0.138,1.071,0,4-.138,4.487-0.138,0.345,0,.483.069,0.483,0.587a0.381,0.381,0,0,1-.31.449c-3.314,0-4,0-4,4.072v8.18c0,9.319-5.938,11.8-9.941,11.8-7.731,0-9.905-5.177-9.905-8.973v-7.9c0-2.45-.034-3.28-0.07-4.867C3.969,43.485,3.383,43.21.38,43.21,0,43.21,0,42.933,0,42.623a0.373,0.373,0,0,1,.31-0.449c0.277,0,3.28.138,5.453,0.138,2.21,0,5.212-.138,5.488-0.138a0.373,0.373,0,0,1,.31.449c0,0.31,0,.587-0.379.587-3,0-3.59.276-3.624,2.312-0.035,1.587-.07,2.416-0.07,4.867v6.246Z" transform="translate(0 -2)"/><path class="b" d="M34.1,63.573c0,1.967.069,2.381,1.588,2.381,0.931,0,1,.035,1,0.449,0,0.206,0,.448-0.346.448-0.173,0-.622-0.069-3.038-0.069-3.244,0-4.141.069-4.659,0.069-0.275,0-.275-0.206-0.275-0.379,0-.449.034-0.518,1.311-0.518a1.289,1.289,0,0,0,1.414-.829,34.8,34.8,0,0,0,.208-4.97V55.427c0-1.207-.31-1.9-2.037-2.07a0.323,0.323,0,0,1-.309-0.414,0.426,0.426,0,0,1,.275-0.484,15.4,15.4,0,0,0,4.832-1.691c0.07,0,.1.1,0.1,0.379,0,0.208-.069.967-0.069,2.486,1.794-1.209,3.555-2.383,5.418-2.383,1.174,0,4.556.241,4.556,5.178v8.283c0,0.587.1,1.243,2.244,1.243,0.345,0,.345.208,0.345,0.449,0,0.206,0,.448-0.483.448-1.036,0-1.657-.069-3.486-0.069-2.8,0-3.348.069-3.624,0.069-0.207,0-.241-0.241-0.241-0.414a0.444,0.444,0,0,1,.483-0.483c1.656,0,1.967-.138,1.967-1.276V58.5c0-3.21-.277-5.35-3.865-5.35A5.12,5.12,0,0,0,34.1,54.737v8.836Z" transform="translate(0 -2)"/><path class="b" d="M53.454,63.573c0,1.967.069,2.381,1.588,2.381,0.758,0,.828.035,0.828,0.449,0,0.206,0,.448-0.345.448-0.173,0-.622-0.069-2.864-0.069-3.245,0-4.142.069-4.66,0.069-0.277,0-.277-0.206-0.277-0.379,0-.449.035-0.518,1.313-0.518a1.29,1.29,0,0,0,1.414-.829,34.825,34.825,0,0,0,.207-4.97V55.427c0-1.207-.31-1.9-2.037-2.07a0.323,0.323,0,0,1-.309-0.414,0.426,0.426,0,0,1,.275-0.484,15.409,15.409,0,0,0,4.831-1.691c0.139,0,.208.173,0.208,0.379a31.185,31.185,0,0,0-.173,4.97v7.455Zm-3.21-19.432a1.8,1.8,0,1,1,1.795,1.829A1.834,1.834,0,0,1,50.245,44.141Z" transform="translate(0 -2)"/><path class="b" d="M69.294,53.736c0-1-1.794-1-2.312-1a0.394,0.394,0,0,1-.31-0.483,0.427,0.427,0,0,1,.449-0.414c0.932,0,2,.069,2.968.069,1,0,2.036-.069,3.037-0.069a0.356,0.356,0,0,1,.31.414,0.316,0.316,0,0,1-.345.379c-2,.311-2.1.449-3.209,3.141-1.209,2.968-3.28,7.318-3.9,8.767-0.966,2.312-1.276,2.727-1.553,2.727-0.379,0-.621-0.724-1.312-2.209-1.208-2.588-4.072-11.01-4.556-11.7a1.184,1.184,0,0,0-1.208-.553c-0.931,0-1.07-.1-1.07-0.586a0.363,0.363,0,0,1,.38-0.38c1.1,0,2.174.069,3.279,0.069,0.689,0,3.416-.069,4.107-0.069,0.242,0,.277.311,0.277,0.483a0.411,0.411,0,0,1-.346.414c-1.036,0-2,.1-2,0.829,0,1.139,2.8,8.111,3.52,9.63C68.742,55.98,69.294,54.669,69.294,53.736Z" transform="translate(0 -2)"/><path class="b" d="M76.023,57.464a12.5,12.5,0,0,0-.138,1.967,5.817,5.817,0,0,0,5.66,5.695,4.5,4.5,0,0,0,4.038-2.071,1.257,1.257,0,0,1,.518-0.586,0.724,0.724,0,0,1,.552.413,6.3,6.3,0,0,1-5.936,4.383c-4.935,0-7.524-3.037-7.524-7.868,0-4.936,3.348-8.284,6.9-8.284a5.777,5.777,0,0,1,6.179,5.97c0,0.345-.139.38-0.414,0.38H76.023Zm5.936-1.035a0.99,0.99,0,0,0,1.174-1.14c0-2.692-1.864-3.278-3.038-3.278-2.484,0-3.52,2.071-3.866,4.418h5.73Z" transform="translate(0 -2)"/><path class="b" d="M91.1,55.427c0-1.207-.31-1.9-2.036-2.07a0.323,0.323,0,0,1-.31-0.414,0.426,0.426,0,0,1,.275-0.484,15.378,15.378,0,0,0,4.831-1.691,0.4,0.4,0,0,1,.139.346c0,0.414-.173,1.276-0.173,3.141,1.139-1.278,3-3,4.831-3a1.963,1.963,0,0,1,2.209,1.933,1.7,1.7,0,0,1-1.691,1.726c-1.414,0-1.622-1.312-2.658-1.312a3.874,3.874,0,0,0-2.381,1.484,1.454,1.454,0,0,0-.241,1v7.833c0,1.277,0,2.037,1.725,2.037,1.278,0,1.415.035,1.415,0.414,0,0.448-.138.483-0.518,0.483-1.243,0-2.347-.069-3.934-0.069-2.762,0-3.348.069-4,.069-0.243,0-.312-0.206-0.312-0.448,0-.346.414-0.449,1.07-0.449,1.484,0,1.76-.277,1.76-1.761V55.427Z" transform="translate(0 -2)"/><path class="b" d="M112.637,62.572c0,1.691-.9,4.694-5.626,4.694-0.621,0-2.623-.276-3.969-0.276a0.221,0.221,0,0,1-.173-0.173c-0.034-.344-0.793-3.381-0.793-3.726,0-.208.483-0.208,0.62-0.208,0.829,0,1.036,3.486,4.35,3.486a2.94,2.94,0,0,0,3.141-3.072c0-3.624-7.732-2.45-7.732-7.352,0-2.829,2.348-4.694,5.247-4.694a27.842,27.842,0,0,1,3.728.31,0.981,0.981,0,0,1,.517.967c0.069,1.414.38,2.312,0.38,2.76a0.324,0.324,0,0,1-.38.277,0.607,0.607,0,0,1-.689-0.483c-0.242-.587-1.139-2.933-3.59-2.933a2.494,2.494,0,0,0-2.762,2.588,2.623,2.623,0,0,0,1.623,2.313C110.152,58.775,112.637,58.671,112.637,62.572Z" transform="translate(0 -2)"/><path class="b" d="M120.09,63.573c0,1.967.069,2.381,1.586,2.381,0.76,0,.83.035,0.83,0.449,0,0.206,0,.448-0.345.448-0.173,0-.622-0.069-2.865-0.069-3.244,0-4.141.069-4.659,0.069-0.276,0-.276-0.206-0.276-0.379,0-.449.035-0.518,1.311-0.518a1.291,1.291,0,0,0,1.415-.829,35.056,35.056,0,0,0,.206-4.97V55.427c0-1.207-.309-1.9-2.036-2.07a0.324,0.324,0,0,1-.31-0.414,0.427,0.427,0,0,1,.277-0.484,15.409,15.409,0,0,0,4.831-1.691,0.316,0.316,0,0,1,.208.379,31.251,31.251,0,0,0-.173,4.97v7.455Zm-3.21-19.432a1.795,1.795,0,1,1,1.795,1.829A1.834,1.834,0,0,1,116.88,44.141Z" transform="translate(0 -2)"/><path class="b" d="M128.439,60.709c0,3.658.31,4.969,3.037,4.969a5.682,5.682,0,0,0,2.346-.793,0.685,0.685,0,0,1,.38.553c0,0.206-1.449,1.828-4.59,1.828-3.969,0-3.969-3.416-3.969-4.28V53.909a0.363,0.363,0,0,0-.346-0.448h-1.725a0.26,0.26,0,0,1-.207-0.312,0.6,0.6,0,0,1,.207-0.483c3.209-2.416,3.865-4.246,4.556-4.246a0.409,0.409,0,0,1,.414.449c0,0.621-.1,1.208-0.1,3.176h5.314c0.241,0,.346.24,0.346,0.725a0.8,0.8,0,0,1-.931.863c-0.241,0-1.864-.173-4.729-0.173v7.248Z" transform="translate(0 -2)"/><path class="b" d="M149.285,53.909c0-1.139-1.623-1.174-2.66-1.174-0.309,0-.343-0.173-0.343-0.449a0.4,0.4,0,0,1,.31-0.448c1.1,0,2.244.069,3.347,0.069,1.069,0,2.14-.069,3.211-0.069,0.241,0,.241.311,0.241,0.448,0,0.311-.1.414-0.587,0.449a2.07,2.07,0,0,0-2.175,1.519c-1.243,2.864-6.006,12.874-6.765,14.806-2.658,6.662-3.8,7.109-4.935,7.109a1.95,1.95,0,1,1,.069-3.9c0.861,0,1.31.586,1.725,0.586,0.62,0,2.244-3.312,2.244-4.936a16.548,16.548,0,0,0-1.207-3.865c-2.175-5.591-2.831-8.594-3.557-10.526-0.31-.795-2.035-0.795-2.483-0.795a0.39,0.39,0,0,1-.312-0.483,0.373,0.373,0,0,1,.381-0.414c0.413,0,2.588.069,3.83,0.069,1.174,0,2.383-.069,3.418-0.069a0.375,0.375,0,0,1,.415.448,0.417,0.417,0,0,1-.346.449c-0.207,0-1.691,0-1.691.76,0,1.657,1.173,5.073,3.416,10.838C146.419,61.053,149.285,54.979,149.285,53.909Z" transform="translate(0 -2)"/><path class="b" d="M170.883,67.265a7.722,7.722,0,0,1-8.007-8.007,8.025,8.025,0,0,1,16.049,0C178.926,64.09,175.716,67.265,170.883,67.265Zm0-15.116c-3.589,0-4.727,3.727-4.727,7.109,0,2.935.689,7.11,4.727,7.11,4.074,0,4.763-4.176,4.763-7.11C175.646,55.876,174.508,52.149,170.883,52.149Z" transform="translate(0 -2)"/><path class="b" d="M186.79,63.917c0,1.277,0,2.037,1.727,2.037,1.278,0,1.415.035,1.415,0.414,0,0.448-.138.483-0.518,0.483-1.243,0-2.347-.069-3.934-0.069-2.76,0-3.347.069-3.657,0.069-0.243,0-.311-0.206-0.311-0.448,0-.346.069-0.449,0.723-0.449,1.484,0,1.761-.277,1.761-1.761V54.564c0-.414,0-1.1-0.656-1.1h-1.9c-0.243,0-.415,0-0.415-0.449,0-.277.241-0.414,1.069-0.587,1.346-.31,1.692-0.379,1.794-1.933,0.346-5.246,1.9-8.145,5.973-9.215A10.351,10.351,0,0,1,191.969,41c0.9,0,2.173.346,2.173,1.484a1.541,1.541,0,0,1-1.622,1.692,3.086,3.086,0,0,1-1.9-.793,3.18,3.18,0,0,0-1.519-.795c-1.968,0-2.314,2.864-2.314,5.006v4.452h4.28c0.243,0,.345.24,0.345,0.725a0.8,0.8,0,0,1-.93.863c-0.241,0-2.9-.173-3.695-0.173V63.917Z" transform="translate(0 -2)"/><path class="b" d="M229.618,42.553a0.429,0.429,0,0,1,.413-0.379c0.174,0,2.693.138,3.487,0.138,0.587,0,3.52-.138,3.762-0.138,0.344,0,.379.277,0.379,0.587a0.378,0.378,0,0,1-.415.449c-3.106,0-3.485.241-3.485,1.829,0,2.242.379,9.49,0.725,19.154a1.7,1.7,0,0,0,1.9,1.623c1.932,0,1.966.207,1.966,0.448,0,0.518-.172.587-0.379,0.587-0.311,0-.69-0.069-5.489-0.069-4.486,0-4.694.069-4.969,0.069-0.38,0-.38-0.241-0.38-0.552,0-.242.069-0.483,1.658-0.483,2.278,0,2.312-.552,2.312-1.933,0-2.071-.518-13.219-0.8-19.673h-0.069c-2.519,6.454-5.694,13.876-7.972,19.432-1.311,3.174-1.311,3.555-1.76,3.555s-0.518-.31-1.243-2.691c-0.759-2.485-6.385-17.741-6.524-17.741-0.586,2.52-2.864,13.978-2.864,17.43a1.491,1.491,0,0,0,1.725,1.623c0.863,0,1.865.069,1.865,0.275,0,0.657,0,.76-0.38.76-0.277,0-.622-0.069-4.176-0.069-3.141,0-3.383.069-3.59,0.069-0.276,0-.379-0.035-0.379-0.587,0-.345.172-0.448,1.829-0.448,1.207,0,1.45-.449,1.83-2.416,0.932-4.97,1.758-9.974,2.829-14.945a15.129,15.129,0,0,0,.449-3.245,3.627,3.627,0,0,0-.9-1.725,11.708,11.708,0,0,0-2.967-.276c-0.415,0-.415-0.276-0.415-0.518,0-.277.069-0.518,0.379-0.518,0.656,0,3.624.138,4,.138,0.9,0,2.347-.138,2.8-0.138,0.379,0,.482.379,0.828,1.622,0.723,2.589,5.729,16.568,6.35,17.844C224.544,55.53,227.166,49.215,229.618,42.553Z" transform="translate(0 -2)"/><path class="b" d="M244.971,63.573c0,1.967.067,2.381,1.588,2.381,0.758,0,.828.035,0.828,0.449,0,0.206,0,.448-0.346.448-0.172,0-.622-0.069-2.864-0.069-3.245,0-4.143.069-4.661,0.069-0.276,0-.276-0.206-0.276-0.379,0-.449.034-0.518,1.312-0.518a1.29,1.29,0,0,0,1.414-.829,34.711,34.711,0,0,0,.208-4.97V55.427c0-1.207-.31-1.9-2.037-2.07a0.324,0.324,0,0,1-.31-0.414,0.427,0.427,0,0,1,.276-0.484,15.4,15.4,0,0,0,4.831-1.691c0.139,0,.208.173,0.208,0.379a31.317,31.317,0,0,0-.172,4.97v7.455ZM241.76,44.141a1.8,1.8,0,1,1,1.8,1.829A1.835,1.835,0,0,1,241.76,44.141Z" transform="translate(0 -2)"/><path class="b" d="M259.879,62.572c0,1.691-.9,4.694-5.627,4.694-0.62,0-2.622-.276-3.969-0.276a0.22,0.22,0,0,1-.172-0.173c-0.034-.344-0.794-3.381-0.794-3.726,0-.208.484-0.208,0.62-0.208,0.83,0,1.036,3.486,4.351,3.486a2.939,2.939,0,0,0,3.141-3.072c0-3.624-7.731-2.45-7.731-7.352,0-2.829,2.347-4.694,5.246-4.694a27.8,27.8,0,0,1,3.728.31,0.981,0.981,0,0,1,.517.967c0.069,1.414.38,2.312,0.38,2.76a0.323,0.323,0,0,1-.38.277,0.608,0.608,0,0,1-.69-0.483c-0.241-.587-1.138-2.933-3.59-2.933a2.493,2.493,0,0,0-2.76,2.588,2.623,2.623,0,0,0,1.622,2.313C257.393,58.775,259.879,58.671,259.879,62.572Z" transform="translate(0 -2)"/><path class="b" d="M272.646,62.572c0,1.691-.9,4.694-5.625,4.694-0.622,0-2.622-.276-3.969-0.276a0.222,0.222,0,0,1-.174-0.173c-0.034-.344-0.792-3.381-0.792-3.726,0-.208.482-0.208,0.62-0.208,0.828,0,1.036,3.486,4.348,3.486A2.94,2.94,0,0,0,270.2,63.3c0-3.624-7.731-2.45-7.731-7.352,0-2.829,2.347-4.694,5.246-4.694a27.771,27.771,0,0,1,3.726.31,0.98,0.98,0,0,1,.518.967c0.069,1.414.38,2.312,0.38,2.76a0.324,0.324,0,0,1-.38.277,0.608,0.608,0,0,1-.69-0.483c-0.24-.587-1.138-2.933-3.588-2.933a2.494,2.494,0,0,0-2.762,2.588,2.623,2.623,0,0,0,1.622,2.313C270.162,58.775,272.646,58.671,272.646,62.572Z" transform="translate(0 -2)"/><path class="b" d="M283.171,67.265a7.721,7.721,0,0,1-8.007-8.007,8.025,8.025,0,0,1,16.049,0C291.213,64.09,288,67.265,283.171,67.265Zm0-15.116c-3.588,0-4.728,3.727-4.728,7.109,0,2.935.69,7.11,4.728,7.11,4.074,0,4.763-4.176,4.763-7.11C287.933,55.876,286.8,52.149,283.171,52.149Z" transform="translate(0 -2)"/><path class="b" d="M295.524,56.084c0-3.038-.344-3.245-2.14-3.245-0.276,0-.759,0-0.759-0.346,0-.275,0-0.689.379-0.689,0.346,0,.9.1,2.038,0.1,1.207,0,2.519-.1,3-0.1,0.208,0,.277,0,0.277.482v9.32c0,2.588.828,4.072,3.382,4.072,1.243,0,3.418-.758,3.418-1.828V54.91c0-1.865-.346-2.071-2.14-2.071-0.622,0-1.105,0-1.105-.346,0-.517,0-0.689.243-0.689,0.482,0,.9.1,3,0.1,0.863,0,1.76-.1,2.622-0.1a0.422,0.422,0,0,1,.484.482c0,0.139-.311,2.8-0.311,5.247v6.488c0,0.553,0,1.277.864,1.277,0.482,0,1.242-.137,1.484-0.137,0.136,0,.207,0,0.207.656,0,0.207-.034.275-1.14,0.448a31.7,31.7,0,0,0-3.969.9,0.459,0.459,0,0,1-.413-0.483c0-.414.069-0.966,0.1-1.312a9.566,9.566,0,0,1-5.141,1.9c-3.418,0-4.384-2.209-4.384-5.8V56.084Z" transform="translate(0 -2)"/><path class="b" d="M314.364,55.427c0-1.207-.31-1.9-2.035-2.07a0.323,0.323,0,0,1-.31-0.414,0.425,0.425,0,0,1,.276-0.484,15.42,15.42,0,0,0,4.831-1.691,0.406,0.406,0,0,1,.138.346c0,0.414-.172,1.276-0.172,3.141,1.138-1.278,3-3,4.831-3a1.964,1.964,0,0,1,2.209,1.933,1.7,1.7,0,0,1-1.691,1.726c-1.414,0-1.622-1.312-2.658-1.312a3.876,3.876,0,0,0-2.381,1.484,1.456,1.456,0,0,0-.241,1v7.833c0,1.277,0,2.037,1.725,2.037,1.278,0,1.415.035,1.415,0.414,0,0.448-.138.483-0.518,0.483-1.242,0-2.345-.069-3.934-0.069-2.762,0-3.349.069-4,.069-0.244,0-.313-0.206-0.313-0.448,0-.346.415-0.449,1.071-0.449,1.484,0,1.76-.277,1.76-1.761V55.427Z" transform="translate(0 -2)"/><path class="b" d="M330.584,63.573c0,1.967.069,2.381,1.588,2.381,0.759,0,.828.035,0.828,0.449,0,0.206,0,.448-0.346.448-0.172,0-.62-0.069-2.864-0.069-3.245,0-4.143.069-4.661,0.069-0.276,0-.276-0.206-0.276-0.379,0-.449.036-0.518,1.312-0.518a1.292,1.292,0,0,0,1.415-.829,35.027,35.027,0,0,0,.207-4.97V55.427c0-1.207-.31-1.9-2.035-2.07a0.324,0.324,0,0,1-.311-0.414,0.427,0.427,0,0,1,.276-0.484,15.445,15.445,0,0,0,4.833-1.691c0.138,0,.207.173,0.207,0.379a31.317,31.317,0,0,0-.172,4.97v7.455Zm-3.211-19.432a1.8,1.8,0,1,1,1.8,1.829A1.835,1.835,0,0,1,327.373,44.141Z" transform="translate(0 -2)"/><path d="M7.489,95.635c0,4.625,1.933,8.663,7.732,8.663,4.038,0,7.524-2.243,7.524-10.457V87.006c0-4.8-1-4.8-4.556-4.8-0.276,0-.276-0.207-0.276-0.518,0-.414.1-0.518,0.276-0.518,0.587,0,2.831.138,5.073,0.138,1.071,0,4-.138,4.487-0.138,0.345,0,.483.069,0.483,0.587a0.381,0.381,0,0,1-.31.449c-3.314,0-4,0-4,4.072v8.18c0,9.319-5.938,11.8-9.941,11.8-7.731,0-9.905-5.177-9.905-8.973v-7.9c0-2.45-.034-3.28-0.07-4.867C3.969,82.486,3.383,82.21.38,82.21,0,82.21,0,81.934,0,81.623a0.373,0.373,0,0,1,.31-0.449c0.277,0,3.28.138,5.453,0.138,2.21,0,5.212-.138,5.488-0.138a0.373,0.373,0,0,1,.31.449c0,0.31,0,.587-0.379.587-3,0-3.59.276-3.624,2.312-0.035,1.587-.07,2.416-0.07,4.867v6.246Z" transform="translate(0 -2)"/><path d="M34.1,102.573c0,1.967.069,2.381,1.588,2.381,0.931,0,1,.035,1,0.449,0,0.206,0,.448-0.346.448-0.173,0-.622-0.069-3.038-0.069-3.244,0-4.141.069-4.659,0.069-0.275,0-.275-0.206-0.275-0.379,0-.449.034-0.518,1.311-0.518a1.289,1.289,0,0,0,1.414-.829,34.8,34.8,0,0,0,.208-4.97V94.427c0-1.207-.31-1.9-2.037-2.07a0.323,0.323,0,0,1-.309-0.414,0.426,0.426,0,0,1,.275-0.484,15.4,15.4,0,0,0,4.832-1.691c0.07,0,.1.1,0.1,0.379,0,0.208-.069.967-0.069,2.486,1.794-1.209,3.555-2.383,5.418-2.383,1.174,0,4.556.241,4.556,5.178v8.283c0,0.587.1,1.243,2.244,1.243,0.345,0,.345.208,0.345,0.449,0,0.206,0,.448-0.483.448-1.036,0-1.657-.069-3.486-0.069-2.8,0-3.348.069-3.624,0.069-0.207,0-.241-0.241-0.241-0.414a0.444,0.444,0,0,1,.483-0.483c1.656,0,1.967-.138,1.967-1.276V97.5c0-3.21-.277-5.35-3.865-5.35A5.12,5.12,0,0,0,34.1,93.737v8.836Z" transform="translate(0 -2)"/><path d="M53.454,102.573c0,1.967.069,2.381,1.588,2.381,0.758,0,.828.035,0.828,0.449,0,0.206,0,.448-0.345.448-0.173,0-.622-0.069-2.864-0.069-3.245,0-4.142.069-4.66,0.069-0.277,0-.277-0.206-0.277-0.379,0-.449.035-0.518,1.313-0.518a1.29,1.29,0,0,0,1.414-.829,34.825,34.825,0,0,0,.207-4.97V94.427c0-1.207-.31-1.9-2.037-2.07a0.323,0.323,0,0,1-.309-0.414,0.426,0.426,0,0,1,.275-0.484,15.409,15.409,0,0,0,4.831-1.691c0.139,0,.208.173,0.208,0.379a31.185,31.185,0,0,0-.173,4.97v7.455Zm-3.21-19.432a1.8,1.8,0,1,1,1.795,1.829A1.834,1.834,0,0,1,50.245,83.141Z" transform="translate(0 -2)"/><path d="M69.294,92.736c0-1-1.794-1-2.312-1a0.394,0.394,0,0,1-.31-0.483,0.427,0.427,0,0,1,.449-0.414c0.932,0,2,.069,2.968.069,1,0,2.036-.069,3.037-0.069a0.356,0.356,0,0,1,.31.414,0.316,0.316,0,0,1-.345.379c-2,.311-2.1.449-3.209,3.141-1.209,2.968-3.28,7.318-3.9,8.767-0.966,2.312-1.276,2.727-1.553,2.727-0.379,0-.621-0.724-1.312-2.209-1.208-2.588-4.072-11.01-4.556-11.7a1.184,1.184,0,0,0-1.208-.553c-0.931,0-1.07-.1-1.07-0.586a0.363,0.363,0,0,1,.38-0.38c1.1,0,2.174.069,3.279,0.069,0.689,0,3.416-.069,4.107-0.069,0.242,0,.277.311,0.277,0.483a0.411,0.411,0,0,1-.346.414c-1.036,0-2,.1-2,0.829,0,1.139,2.8,8.111,3.52,9.63C68.742,94.98,69.294,93.669,69.294,92.736Z" transform="translate(0 -2)"/><path d="M76.023,96.464a12.5,12.5,0,0,0-.138,1.967,5.817,5.817,0,0,0,5.66,5.695,4.5,4.5,0,0,0,4.038-2.071,1.257,1.257,0,0,1,.518-0.586,0.724,0.724,0,0,1,.552.413,6.3,6.3,0,0,1-5.936,4.383c-4.935,0-7.524-3.037-7.524-7.868,0-4.936,3.348-8.284,6.9-8.284a5.777,5.777,0,0,1,6.179,5.97c0,0.345-.139.38-0.414,0.38H76.023Zm5.936-1.035a0.99,0.99,0,0,0,1.174-1.14c0-2.692-1.864-3.278-3.038-3.278-2.484,0-3.52,2.071-3.866,4.418h5.73Z" transform="translate(0 -2)"/><path d="M91.1,94.427c0-1.207-.31-1.9-2.036-2.07a0.323,0.323,0,0,1-.31-0.414,0.426,0.426,0,0,1,.275-0.484,15.378,15.378,0,0,0,4.831-1.691,0.4,0.4,0,0,1,.139.346c0,0.414-.173,1.276-0.173,3.141,1.139-1.278,3-3,4.831-3a1.963,1.963,0,0,1,2.209,1.933,1.7,1.7,0,0,1-1.691,1.726c-1.414,0-1.622-1.312-2.658-1.312a3.874,3.874,0,0,0-2.381,1.484,1.454,1.454,0,0,0-.241,1v7.833c0,1.277,0,2.037,1.725,2.037,1.278,0,1.415.035,1.415,0.414,0,0.448-.138.483-0.518,0.483-1.243,0-2.347-.069-3.934-0.069-2.762,0-3.348.069-4,.069-0.243,0-.312-0.206-0.312-0.448,0-.346.414-0.449,1.07-0.449,1.484,0,1.76-.277,1.76-1.761V94.427Z" transform="translate(0 -2)"/><path d="M112.637,101.572c0,1.691-.9,4.694-5.626,4.694-0.621,0-2.623-.276-3.969-0.276a0.221,0.221,0,0,1-.173-0.173c-0.034-.344-0.793-3.381-0.793-3.726,0-.208.483-0.208,0.62-0.208,0.829,0,1.036,3.486,4.35,3.486a2.94,2.94,0,0,0,3.141-3.072c0-3.624-7.732-2.45-7.732-7.352,0-2.829,2.348-4.694,5.247-4.694a27.842,27.842,0,0,1,3.728.31,0.981,0.981,0,0,1,.517.967c0.069,1.414.38,2.312,0.38,2.76a0.324,0.324,0,0,1-.38.277,0.607,0.607,0,0,1-.689-0.483c-0.242-.587-1.139-2.933-3.59-2.933a2.494,2.494,0,0,0-2.762,2.588,2.623,2.623,0,0,0,1.623,2.313C110.152,97.775,112.637,97.672,112.637,101.572Z" transform="translate(0 -2)"/><path d="M120.09,102.573c0,1.967.069,2.381,1.586,2.381,0.76,0,.83.035,0.83,0.449,0,0.206,0,.448-0.345.448-0.173,0-.622-0.069-2.865-0.069-3.244,0-4.141.069-4.659,0.069-0.276,0-.276-0.206-0.276-0.379,0-.449.035-0.518,1.311-0.518a1.291,1.291,0,0,0,1.415-.829,35.056,35.056,0,0,0,.206-4.97V94.427c0-1.207-.309-1.9-2.036-2.07a0.324,0.324,0,0,1-.31-0.414,0.427,0.427,0,0,1,.277-0.484,15.409,15.409,0,0,0,4.831-1.691,0.316,0.316,0,0,1,.208.379,31.251,31.251,0,0,0-.173,4.97v7.455Zm-3.21-19.432a1.795,1.795,0,1,1,1.795,1.829A1.834,1.834,0,0,1,116.88,83.141Z" transform="translate(0 -2)"/><path d="M128.439,99.709c0,3.658.31,4.969,3.037,4.969a5.682,5.682,0,0,0,2.346-.793,0.685,0.685,0,0,1,.38.553c0,0.206-1.449,1.828-4.59,1.828-3.969,0-3.969-3.416-3.969-4.28V92.909a0.363,0.363,0,0,0-.346-0.448h-1.725a0.26,0.26,0,0,1-.207-0.312,0.6,0.6,0,0,1,.207-0.483c3.209-2.416,3.865-4.246,4.556-4.246a0.409,0.409,0,0,1,.414.449c0,0.621-.1,1.208-0.1,3.176h5.314c0.241,0,.346.24,0.346,0.725a0.8,0.8,0,0,1-.931.863c-0.241,0-1.864-.173-4.729-0.173v7.248Z" transform="translate(0 -2)"/><path d="M149.285,92.909c0-1.139-1.623-1.174-2.66-1.174-0.309,0-.343-0.173-0.343-0.449a0.4,0.4,0,0,1,.31-0.448c1.1,0,2.244.069,3.347,0.069,1.069,0,2.14-.069,3.211-0.069,0.241,0,.241.311,0.241,0.448,0,0.311-.1.414-0.587,0.449a2.07,2.07,0,0,0-2.175,1.519c-1.243,2.864-6.006,12.874-6.765,14.806-2.658,6.662-3.8,7.109-4.935,7.109a1.95,1.95,0,1,1,.069-3.9c0.861,0,1.31.586,1.725,0.586,0.62,0,2.244-3.312,2.244-4.936a16.548,16.548,0,0,0-1.207-3.865c-2.175-5.591-2.831-8.594-3.557-10.526-0.31-.795-2.035-0.795-2.483-0.795a0.39,0.39,0,0,1-.312-0.483,0.373,0.373,0,0,1,.381-0.414c0.413,0,2.588.069,3.83,0.069,1.174,0,2.383-.069,3.418-0.069a0.375,0.375,0,0,1,.415.448,0.417,0.417,0,0,1-.346.449c-0.207,0-1.691,0-1.691.76,0,1.657,1.173,5.073,3.416,10.838C146.419,100.053,149.285,93.979,149.285,92.909Z" transform="translate(0 -2)"/><path d="M170.883,106.266a7.722,7.722,0,0,1-8.007-8.007,8.025,8.025,0,0,1,16.049,0C178.926,103.09,175.716,106.266,170.883,106.266Zm0-15.116c-3.589,0-4.727,3.727-4.727,7.109,0,2.935.689,7.11,4.727,7.11,4.074,0,4.763-4.176,4.763-7.11C175.646,94.876,174.508,91.149,170.883,91.149Z" transform="translate(0 -2)"/><path d="M186.79,102.917c0,1.277,0,2.037,1.727,2.037,1.278,0,1.415.035,1.415,0.414,0,0.448-.138.483-0.518,0.483-1.243,0-2.347-.069-3.934-0.069-2.76,0-3.347.069-3.657,0.069-0.243,0-.311-0.206-0.311-0.448,0-.346.069-0.449,0.723-0.449,1.484,0,1.761-.277,1.761-1.761V93.565c0-.414,0-1.1-0.656-1.1h-1.9c-0.243,0-.415,0-0.415-0.449,0-.277.241-0.414,1.069-0.587,1.346-.31,1.692-0.379,1.794-1.933,0.346-5.246,1.9-8.145,5.973-9.215A10.351,10.351,0,0,1,191.969,80c0.9,0,2.173.346,2.173,1.484a1.541,1.541,0,0,1-1.622,1.692,3.086,3.086,0,0,1-1.9-.793,3.18,3.18,0,0,0-1.519-.795c-1.968,0-2.314,2.864-2.314,5.006v4.452h4.28c0.243,0,.345.24,0.345,0.725a0.8,0.8,0,0,1-.93.863c-0.241,0-2.9-.173-3.695-0.173v10.456Z" transform="translate(0 -2)"/><path d="M229.618,81.553a0.429,0.429,0,0,1,.413-0.379c0.174,0,2.693.138,3.487,0.138,0.587,0,3.52-.138,3.762-0.138,0.344,0,.379.277,0.379,0.587a0.378,0.378,0,0,1-.415.449c-3.106,0-3.485.241-3.485,1.829,0,2.242.379,9.49,0.725,19.154a1.7,1.7,0,0,0,1.9,1.623c1.932,0,1.966.207,1.966,0.448,0,0.518-.172.587-0.379,0.587-0.311,0-.69-0.069-5.489-0.069-4.486,0-4.694.069-4.969,0.069-0.38,0-.38-0.241-0.38-0.552,0-.242.069-0.483,1.658-0.483,2.278,0,2.312-.552,2.312-1.933,0-2.071-.518-13.219-0.8-19.673h-0.069c-2.519,6.454-5.694,13.876-7.972,19.432-1.311,3.174-1.311,3.555-1.76,3.555s-0.518-.31-1.243-2.691c-0.759-2.485-6.385-17.741-6.524-17.741-0.586,2.52-2.864,13.978-2.864,17.43a1.491,1.491,0,0,0,1.725,1.623c0.863,0,1.865.069,1.865,0.275,0,0.657,0,.76-0.38.76-0.277,0-.622-0.069-4.176-0.069-3.141,0-3.383.069-3.59,0.069-0.276,0-.379-0.035-0.379-0.587,0-.345.172-0.448,1.829-0.448,1.207,0,1.45-.449,1.83-2.416,0.932-4.97,1.758-9.974,2.829-14.945a15.129,15.129,0,0,0,.449-3.245,3.627,3.627,0,0,0-.9-1.725,11.708,11.708,0,0,0-2.967-.276c-0.415,0-.415-0.276-0.415-0.518,0-.277.069-0.518,0.379-0.518,0.656,0,3.624.138,4,.138,0.9,0,2.347-.138,2.8-0.138,0.379,0,.482.379,0.828,1.622,0.723,2.589,5.729,16.568,6.35,17.844C224.544,94.531,227.166,88.215,229.618,81.553Z" transform="translate(0 -2)"/><path d="M244.971,102.573c0,1.967.067,2.381,1.588,2.381,0.758,0,.828.035,0.828,0.449,0,0.206,0,.448-0.346.448-0.172,0-.622-0.069-2.864-0.069-3.245,0-4.143.069-4.661,0.069-0.276,0-.276-0.206-0.276-0.379,0-.449.034-0.518,1.312-0.518a1.29,1.29,0,0,0,1.414-.829,34.711,34.711,0,0,0,.208-4.97V94.427c0-1.207-.31-1.9-2.037-2.07a0.324,0.324,0,0,1-.31-0.414,0.427,0.427,0,0,1,.276-0.484,15.4,15.4,0,0,0,4.831-1.691c0.139,0,.208.173,0.208,0.379a31.317,31.317,0,0,0-.172,4.97v7.455ZM241.76,83.141a1.8,1.8,0,1,1,1.8,1.829A1.835,1.835,0,0,1,241.76,83.141Z" transform="translate(0 -2)"/><path d="M259.879,101.572c0,1.691-.9,4.694-5.627,4.694-0.62,0-2.622-.276-3.969-0.276a0.22,0.22,0,0,1-.172-0.173c-0.034-.344-0.794-3.381-0.794-3.726,0-.208.484-0.208,0.62-0.208,0.83,0,1.036,3.486,4.351,3.486a2.939,2.939,0,0,0,3.141-3.072c0-3.624-7.731-2.45-7.731-7.352,0-2.829,2.347-4.694,5.246-4.694a27.8,27.8,0,0,1,3.728.31,0.981,0.981,0,0,1,.517.967c0.069,1.414.38,2.312,0.38,2.76a0.323,0.323,0,0,1-.38.277,0.608,0.608,0,0,1-.69-0.483c-0.241-.587-1.138-2.933-3.59-2.933a2.493,2.493,0,0,0-2.76,2.588,2.623,2.623,0,0,0,1.622,2.313C257.393,97.775,259.879,97.672,259.879,101.572Z" transform="translate(0 -2)"/><path d="M272.646,101.572c0,1.691-.9,4.694-5.625,4.694-0.622,0-2.622-.276-3.969-0.276a0.222,0.222,0,0,1-.174-0.173c-0.034-.344-0.792-3.381-0.792-3.726,0-.208.482-0.208,0.62-0.208,0.828,0,1.036,3.486,4.348,3.486A2.94,2.94,0,0,0,270.2,102.3c0-3.624-7.731-2.45-7.731-7.352,0-2.829,2.347-4.694,5.246-4.694a27.771,27.771,0,0,1,3.726.31,0.98,0.98,0,0,1,.518.967c0.069,1.414.38,2.312,0.38,2.76a0.324,0.324,0,0,1-.38.277,0.608,0.608,0,0,1-.69-0.483c-0.24-.587-1.138-2.933-3.588-2.933a2.494,2.494,0,0,0-2.762,2.588,2.623,2.623,0,0,0,1.622,2.313C270.162,97.775,272.646,97.672,272.646,101.572Z" transform="translate(0 -2)"/><path d="M283.171,106.266a7.721,7.721,0,0,1-8.007-8.007,8.025,8.025,0,0,1,16.049,0C291.213,103.09,288,106.266,283.171,106.266Zm0-15.116c-3.588,0-4.728,3.727-4.728,7.109,0,2.935.69,7.11,4.728,7.11,4.074,0,4.763-4.176,4.763-7.11C287.933,94.876,286.8,91.149,283.171,91.149Z" transform="translate(0 -2)"/><path d="M295.524,95.084c0-3.038-.344-3.245-2.14-3.245-0.276,0-.759,0-0.759-0.346,0-.275,0-0.689.379-0.689,0.346,0,.9.1,2.038,0.1,1.207,0,2.519-.1,3-0.1,0.208,0,.277,0,0.277.482v9.32c0,2.588.828,4.072,3.382,4.072,1.243,0,3.418-.758,3.418-1.828V93.91c0-1.865-.346-2.071-2.14-2.071-0.622,0-1.105,0-1.105-.346,0-.517,0-0.689.243-0.689,0.482,0,.9.1,3,0.1,0.863,0,1.76-.1,2.622-0.1a0.422,0.422,0,0,1,.484.482c0,0.139-.311,2.8-0.311,5.247v6.488c0,0.553,0,1.277.864,1.277,0.482,0,1.242-.137,1.484-0.137,0.136,0,.207,0,0.207.656,0,0.207-.034.275-1.14,0.448a31.7,31.7,0,0,0-3.969.9,0.459,0.459,0,0,1-.413-0.483c0-.414.069-0.966,0.1-1.312a9.566,9.566,0,0,1-5.141,1.9c-3.418,0-4.384-2.209-4.384-5.8V95.084Z" transform="translate(0 -2)"/><path d="M314.364,94.427c0-1.207-.31-1.9-2.035-2.07a0.323,0.323,0,0,1-.31-0.414,0.425,0.425,0,0,1,.276-0.484,15.42,15.42,0,0,0,4.831-1.691,0.406,0.406,0,0,1,.138.346c0,0.414-.172,1.276-0.172,3.141,1.138-1.278,3-3,4.831-3a1.964,1.964,0,0,1,2.209,1.933,1.7,1.7,0,0,1-1.691,1.726c-1.414,0-1.622-1.312-2.658-1.312a3.876,3.876,0,0,0-2.381,1.484,1.456,1.456,0,0,0-.241,1v7.833c0,1.277,0,2.037,1.725,2.037,1.278,0,1.415.035,1.415,0.414,0,0.448-.138.483-0.518,0.483-1.242,0-2.345-.069-3.934-0.069-2.762,0-3.349.069-4,.069-0.244,0-.313-0.206-0.313-0.448,0-.346.415-0.449,1.071-0.449,1.484,0,1.76-.277,1.76-1.761V94.427Z" transform="translate(0 -2)"/><path d="M330.584,102.573c0,1.967.069,2.381,1.588,2.381,0.759,0,.828.035,0.828,0.449,0,0.206,0,.448-0.346.448-0.172,0-.62-0.069-2.864-0.069-3.245,0-4.143.069-4.661,0.069-0.276,0-.276-0.206-0.276-0.379,0-.449.036-0.518,1.312-0.518a1.292,1.292,0,0,0,1.415-.829,35.027,35.027,0,0,0,.207-4.97V94.427c0-1.207-.31-1.9-2.035-2.07a0.324,0.324,0,0,1-.311-0.414,0.427,0.427,0,0,1,.276-0.484,15.445,15.445,0,0,0,4.833-1.691c0.138,0,.207.173,0.207,0.379a31.317,31.317,0,0,0-.172,4.97v7.455Zm-3.211-19.432a1.8,1.8,0,1,1,1.8,1.829A1.835,1.835,0,0,1,327.373,83.141Z" transform="translate(0 -2)"/></svg>