<svg xmlns="http://www.w3.org/2000/svg" width="475" height="162.168" viewBox="0 0 475 162.168"><defs><style>.a{fill:#fff;}.b{fill:#f1b82d;}</style></defs><title>mu-wordmark-white-large</title><path class="a" d="M11.683,24.3c0,6.6,2.758,12.357,11.029,12.357,5.76,0,10.733-3.2,10.733-14.916v-9.75c0-6.842-1.428-6.842-6.5-6.842-0.394,0-.394-0.3-0.394-0.739,0-.591.148-0.739,0.394-0.739,0.837,0,4.038.2,7.236,0.2,1.528,0,5.712-.2,6.4-0.2,0.492,0,.689.1,0.689,0.837a0.544,0.544,0,0,1-.443.641c-4.727,0-5.71,0-5.71,5.808V22.628c0,13.293-8.47,16.837-14.18,16.837-11.027,0-14.129-7.384-14.129-12.8V15.393c0-3.495-.049-4.678-0.1-6.942-0.048-2.905-.885-3.3-5.167-3.3C1,5.152,1,4.758,1,4.315a0.532,0.532,0,0,1,.443-0.641c0.395,0,4.678.2,7.779,0.2,3.152,0,7.434-.2,7.829-0.2a0.532,0.532,0,0,1,.443.641c0,0.443,0,.837-0.541.837-4.284,0-5.121.393-5.169,3.3-0.05,2.263-.1,3.447-0.1,6.942V24.3Z" transform="translate(-1 -2)"/><path class="a" d="M49.634,34.2c0,2.806.1,3.4,2.265,3.4,1.328,0,1.428.05,1.428,0.641,0,0.294,0,.639-0.493.639-0.246,0-.887-0.1-4.333-0.1-4.627,0-5.906.1-6.646,0.1-0.393,0-.393-0.294-0.393-0.541,0-.64.048-0.739,1.87-0.739a1.839,1.839,0,0,0,2.017-1.182,49.644,49.644,0,0,0,.3-7.09V22.579c0-1.722-.443-2.706-2.906-2.952a0.461,0.461,0,0,1-.441-0.591,0.608,0.608,0,0,1,.393-0.691c5.614-1.131,6.3-2.411,6.892-2.411,0.1,0,.148.148,0.148,0.541,0,0.3-.1,1.379-0.1,3.547,2.559-1.724,5.071-3.4,7.729-3.4,1.674,0,6.5.344,6.5,7.386V35.823c0,0.837.148,1.773,3.2,1.773,0.492,0,.492.3,0.492,0.641,0,0.294,0,.639-0.689.639-1.478,0-2.363-.1-4.973-0.1-3.988,0-4.776.1-5.169,0.1-0.3,0-.344-0.344-0.344-0.591a0.633,0.633,0,0,1,.689-0.689c2.363,0,2.806-.2,2.806-1.821V26.961c0-4.579-.395-7.631-5.513-7.631-1.871,0-4.531,1.674-4.727,2.265V34.2Z" transform="translate(-1 -2)"/><path class="a" d="M77.248,34.2c0,2.806.1,3.4,2.265,3.4,1.082,0,1.181.05,1.181,0.641,0,0.294,0,.639-0.492.639-0.247,0-.888-0.1-4.086-0.1-4.628,0-5.908.1-6.647,0.1-0.395,0-.395-0.294-0.395-0.541,0-.64.05-0.739,1.872-0.739a1.839,1.839,0,0,0,2.017-1.182,49.675,49.675,0,0,0,.3-7.09V22.579c0-1.722-.442-2.706-2.906-2.952a0.461,0.461,0,0,1-.441-0.591,0.608,0.608,0,0,1,.393-0.691c5.612-1.131,6.3-2.411,6.892-2.411,0.2,0,.3.247,0.3,0.541,0,0.2-.247.691-0.247,7.09V34.2ZM72.67,6.48A2.561,2.561,0,1,1,75.23,9.09,2.617,2.617,0,0,1,72.67,6.48Z" transform="translate(-1 -2)"/><path class="a" d="M99.842,20.167c0-1.428-2.559-1.428-3.3-1.428A0.563,0.563,0,0,1,96.1,18.05a0.61,0.61,0,0,1,.641-0.591c1.33,0,2.856.1,4.234,0.1,1.428,0,2.9-.1,4.332-0.1a0.508,0.508,0,0,1,.442.591,0.451,0.451,0,0,1-.492.541c-2.854.444-3,.641-4.577,4.48C98.957,27.305,96,33.51,95.116,35.576c-1.378,3.3-1.821,3.889-2.215,3.889-0.541,0-.886-1.033-1.871-3.151-1.722-3.691-5.808-15.705-6.5-16.689a1.69,1.69,0,0,0-1.722-.789c-1.328,0-1.526-.148-1.526-0.835a0.518,0.518,0,0,1,.542-0.543c1.575,0,3.1.1,4.677,0.1,0.983,0,4.872-.1,5.858-0.1,0.345,0,.395.444,0.395,0.689a0.586,0.586,0,0,1-.493.591c-1.478,0-2.856.148-2.856,1.182,0,1.624,3.987,11.57,5.021,13.736C99.055,23.368,99.842,21.5,99.842,20.167Z" transform="translate(-1 -2)"/><path class="a" d="M109.442,25.485a17.835,17.835,0,0,0-.2,2.806c0,3.2,2.708,8.123,8.073,8.123a6.42,6.42,0,0,0,5.76-2.954,1.794,1.794,0,0,1,.739-0.835,1.033,1.033,0,0,1,.787.589c0,0.148-1.969,6.253-8.467,6.253-7.04,0-10.733-4.332-10.733-11.224,0-7.041,4.776-11.816,9.846-11.816,8.173,0,8.814,7.04,8.814,8.516,0,0.492-.2.543-0.591,0.543H109.442Zm8.467-1.476a1.412,1.412,0,0,0,1.674-1.626c0-3.84-2.659-4.676-4.333-4.676-3.543,0-5.021,2.954-5.514,6.3h8.173Z" transform="translate(-1 -2)"/><path class="a" d="M130.951,22.579c0-1.722-.442-2.706-2.9-2.952a0.461,0.461,0,0,1-.443-0.591A0.608,0.608,0,0,1,128,18.345c5.614-1.131,6.3-2.411,6.892-2.411a0.575,0.575,0,0,1,.2.493c0,0.591-.246,1.821-0.246,4.48,1.624-1.822,4.282-4.284,6.891-4.284,1.724,0,3.151.936,3.151,2.758a2.425,2.425,0,0,1-2.411,2.462c-2.017,0-2.313-1.871-3.791-1.871a5.526,5.526,0,0,0-3.4,2.117,2.074,2.074,0,0,0-.344,1.428V34.69c0,1.822,0,2.906,2.461,2.906,1.823,0,2.019.05,2.019,0.591,0,0.639-.2.689-0.739,0.689-1.773,0-3.347-.1-5.612-0.1-3.939,0-4.776.1-5.71,0.1-0.347,0-.444-0.294-0.444-0.639,0-.493.591-0.641,1.526-0.641,2.117,0,2.511-.395,2.511-2.512v-12.5Z" transform="translate(-1 -2)"/><path class="a" d="M161.669,32.77c0,2.411-1.28,6.7-8.025,6.7-0.886,0-3.741-.394-5.662-0.394a0.315,0.315,0,0,1-.246-0.247C147.688,38.334,146.6,34,146.6,33.51c0-.3.689-0.3,0.885-0.3,1.182,0,1.478,4.973,6.2,4.973a4.193,4.193,0,0,0,4.48-4.382c0-5.169-11.029-3.5-11.029-10.487,0-4.036,3.349-6.7,7.484-6.7a39.715,39.715,0,0,1,5.317.443,1.4,1.4,0,0,1,.737,1.38c0.1,2.017.543,3.3,0.543,3.937a0.462,0.462,0,0,1-.543.395,0.866,0.866,0,0,1-.983-0.689c-0.345-.837-1.625-4.184-5.121-4.184-2.313,0-3.939,1.328-3.939,3.691a3.742,3.742,0,0,0,2.315,3.3C158.123,27.355,161.669,27.207,161.669,32.77Z" transform="translate(-1 -2)"/><path class="a" d="M172.3,34.2c0,2.806.1,3.4,2.263,3.4,1.084,0,1.183.05,1.183,0.641,0,0.294,0,.639-0.492.639-0.246,0-.887-0.1-4.087-0.1-4.627,0-5.906.1-6.646,0.1-0.394,0-.394-0.294-0.394-0.541,0-.64.05-0.739,1.87-0.739a1.842,1.842,0,0,0,2.019-1.182,50,50,0,0,0,.294-7.09V22.579c0-1.722-.441-2.706-2.9-2.952a0.462,0.462,0,0,1-.443-0.591,0.609,0.609,0,0,1,.395-0.691c5.612-1.131,6.3-2.411,6.891-2.411a0.451,0.451,0,0,1,.3.541c0,0.2-.246.691-0.246,7.09V34.2ZM167.721,6.48a2.56,2.56,0,1,1,2.56,2.609A2.615,2.615,0,0,1,167.721,6.48Z" transform="translate(-1 -2)"/><path class="a" d="M184.209,30.113c0,5.218.443,7.088,4.332,7.088a8.105,8.105,0,0,0,3.347-1.132,0.977,0.977,0,0,1,.542.789c0,0.294-2.067,2.607-6.547,2.607-5.662,0-5.662-4.873-5.662-6.1V20.413a0.517,0.517,0,0,0-.493-0.639h-2.461a0.372,0.372,0,0,1-.295-0.445,0.861,0.861,0,0,1,.295-0.689c4.578-3.446,5.513-6.056,6.5-6.056a0.583,0.583,0,0,1,.591.64c0,0.886-.148,1.723-0.148,4.53h7.58c0.344,0,.493.342,0.493,1.034a1.143,1.143,0,0,1-1.328,1.232c-0.344,0-2.659-.246-6.745-0.246V30.113Z" transform="translate(-1 -2)"/><path class="a" d="M213.944,20.413c0-1.624-2.316-1.674-3.794-1.674-0.44,0-.489-0.246-0.489-0.641a0.573,0.573,0,0,1,.442-0.639c1.575,0,3.2.1,4.775,0.1,1.525,0,3.053-.1,4.58-0.1,0.344,0,.344.444,0.344,0.639,0,0.444-.148.591-0.838,0.641-1.675.148-2.363,0.443-3.1,2.167-1.773,4.086-8.567,18.364-9.65,21.12-3.792,9.5-5.416,10.141-7.039,10.141a2.782,2.782,0,1,1,.1-5.562c1.228,0,1.869.835,2.461,0.835,0.885,0,3.2-4.725,3.2-7.04,0-1.231-1.181-4.135-1.722-5.513-3.1-7.975-4.038-12.259-5.074-15.015-0.442-1.133-2.9-1.133-3.542-1.133a0.557,0.557,0,0,1-.445-0.689,0.532,0.532,0,0,1,.543-0.591c0.59,0,3.692.1,5.463,0.1,1.675,0,3.4-.1,4.875-0.1a0.535,0.535,0,0,1,.592.639,0.6,0.6,0,0,1-.493.641c-0.295,0-2.412,0-2.412,1.084,0,2.363,1.673,7.236,4.873,15.459C209.855,30.6,213.944,21.939,213.944,20.413Z" transform="translate(-1 -2)"/><path class="a" d="M244.753,39.466a11.015,11.015,0,0,1-11.421-11.422,11.446,11.446,0,0,1,22.893,0C256.224,34.936,251.646,39.466,244.753,39.466Zm0-21.562c-5.119,0-6.742,5.316-6.742,10.14,0,4.186.983,10.142,6.742,10.142,5.811,0,6.793-5.956,6.793-10.142C251.546,23.219,249.922,17.9,244.753,17.9Z" transform="translate(-1 -2)"/><path class="a" d="M267.443,34.69c0,1.822,0,2.906,2.463,2.906,1.822,0,2.019.05,2.019,0.591,0,0.639-.2.689-0.739,0.689-1.773,0-3.348-.1-5.612-0.1-3.937,0-4.775.1-5.217,0.1-0.346,0-.444-0.294-0.444-0.639,0-.493.1-0.641,1.032-0.641,2.117,0,2.512-.395,2.512-2.512V21.349c0-.591,0-1.574-0.936-1.574h-2.707c-0.346,0-.592,0-0.592-0.641,0-.395.344-0.591,1.525-0.837,1.92-.443,2.414-0.541,2.559-2.757,0.493-7.482,2.711-11.618,8.519-13.144a14.765,14.765,0,0,1,3-.395c1.28,0,3.1.493,3.1,2.117a2.2,2.2,0,0,1-2.314,2.413A4.4,4.4,0,0,1,272.909,5.4a4.536,4.536,0,0,0-2.166-1.134c-2.807,0-3.3,4.086-3.3,7.14v6.351h6.106c0.346,0,.491.342,0.491,1.034a1.142,1.142,0,0,1-1.327,1.232c-0.344,0-4.136-.246-5.27-0.246V34.69Z" transform="translate(-1 -2)"/><path class="a" d="M328.533,4.215a0.612,0.612,0,0,1,.59-0.541c0.248,0,3.841.2,4.973,0.2,0.837,0,5.02-.2,5.366-0.2,0.491,0,.541.395,0.541,0.837a0.54,0.54,0,0,1-.592.641c-4.431,0-4.971.344-4.971,2.609,0,3.2.541,13.537,1.034,27.322a2.43,2.43,0,0,0,2.709,2.315c2.756,0,2.8.295,2.8,0.639,0,0.739-.246.837-0.541,0.837-0.444,0-.985-0.1-7.829-0.1-6.4,0-6.7.1-7.088,0.1-0.542,0-.542-0.344-0.542-0.787,0-.345.1-0.689,2.365-0.689,3.249,0,3.3-.787,3.3-2.757,0-2.955-.739-18.856-1.134-28.063h-0.1c-3.593,9.206-8.122,19.793-11.372,27.718-1.869,4.528-1.869,5.071-2.51,5.071s-0.739-.442-1.773-3.839c-1.083-3.545-9.107-25.307-9.306-25.307-0.835,3.595-4.085,19.939-4.085,24.862,0,1.528.837,2.315,2.461,2.315,1.231,0,2.66.1,2.66,0.393,0,0.937,0,1.084-.543,1.084-0.4,0-.887-0.1-5.956-0.1-4.48,0-4.826.1-5.121,0.1-0.393,0-.541-0.05-0.541-0.837,0-.492.246-0.639,2.608-0.639,1.722,0,2.068-.641,2.611-3.446,1.329-7.09,2.508-14.228,4.036-21.318a21.581,21.581,0,0,0,.641-4.628,5.174,5.174,0,0,0-1.282-2.461,16.7,16.7,0,0,0-4.232-.393c-0.592,0-.592-0.394-0.592-0.739,0-.395.1-0.739,0.541-0.739,0.936,0,5.17.2,5.712,0.2,1.28,0,3.348-.2,3.988-0.2,0.541,0,.688.541,1.181,2.313,1.032,3.693,8.171,23.632,9.058,25.453C321.3,22.727,325.036,13.718,328.533,4.215Z" transform="translate(-1 -2)"/><path class="a" d="M350.433,34.2c0,2.806.1,3.4,2.265,3.4,1.081,0,1.181.05,1.181,0.641,0,0.294,0,.639-0.493.639-0.246,0-.887-0.1-4.085-0.1-4.629,0-5.909.1-6.648,0.1-0.393,0-.393-0.294-0.393-0.541,0-.64.049-0.739,1.871-0.739a1.84,1.84,0,0,0,2.017-1.182,49.513,49.513,0,0,0,.3-7.09V22.579c0-1.722-.442-2.706-2.905-2.952a0.461,0.461,0,0,1-.442-0.591,0.609,0.609,0,0,1,.393-0.691c5.612-1.131,6.3-2.411,6.892-2.411,0.2,0,.3.247,0.3,0.541,0,0.2-.246.691-0.246,7.09V34.2ZM345.853,6.48a2.562,2.562,0,1,1,2.561,2.609A2.618,2.618,0,0,1,345.853,6.48Z" transform="translate(-1 -2)"/><path class="a" d="M371.7,32.77c0,2.411-1.28,6.7-8.026,6.7-0.884,0-3.741-.394-5.661-0.394a0.314,0.314,0,0,1-.246-0.247c-0.049-.491-1.132-4.823-1.132-5.315,0-.3.69-0.3,0.884-0.3,1.183,0,1.478,4.973,6.206,4.973A4.193,4.193,0,0,0,368.2,33.8c0-5.169-11.028-3.5-11.028-10.487,0-4.036,3.348-6.7,7.484-6.7a39.657,39.657,0,0,1,5.317.443,1.4,1.4,0,0,1,.737,1.38c0.1,2.017.543,3.3,0.543,3.937a0.461,0.461,0,0,1-.543.395,0.867,0.867,0,0,1-.985-0.689c-0.344-.837-1.624-4.184-5.121-4.184-2.314,0-3.937,1.328-3.937,3.691a3.741,3.741,0,0,0,2.314,3.3C368.152,27.355,371.7,27.207,371.7,32.77Z" transform="translate(-1 -2)"/><path class="a" d="M389.91,32.77c0,2.411-1.28,6.7-8.024,6.7-0.887,0-3.741-.394-5.661-0.394a0.316,0.316,0,0,1-.248-0.247c-0.049-.491-1.13-4.823-1.13-5.315,0-.3.688-0.3,0.884-0.3,1.181,0,1.478,4.973,6.2,4.973a4.193,4.193,0,0,0,4.482-4.382c0-5.169-11.028-3.5-11.028-10.487,0-4.036,3.348-6.7,7.484-6.7a39.613,39.613,0,0,1,5.315.443,1.4,1.4,0,0,1,.739,1.38c0.1,2.017.543,3.3,0.543,3.937a0.462,0.462,0,0,1-.543.395,0.867,0.867,0,0,1-.985-0.689c-0.342-.837-1.624-4.184-5.119-4.184-2.314,0-3.939,1.328-3.939,3.691a3.741,3.741,0,0,0,2.314,3.3C386.366,27.355,389.91,27.207,389.91,32.77Z" transform="translate(-1 -2)"/><path class="a" d="M404.922,39.466A11.014,11.014,0,0,1,393.5,28.044a11.446,11.446,0,0,1,22.893,0C416.394,34.936,411.814,39.466,404.922,39.466Zm0-21.562c-5.119,0-6.744,5.316-6.744,10.14,0,4.186.985,10.142,6.744,10.142,5.811,0,6.794-5.956,6.794-10.142C411.716,23.219,410.092,17.9,404.922,17.9Z" transform="translate(-1 -2)"/><path class="a" d="M422.543,23.516c0-4.334-.491-4.628-3.053-4.628-0.393,0-1.083,0-1.083-.493,0-.393,0-0.983.541-0.983,0.493,0,1.282.146,2.907,0.146,1.722,0,3.593-.146,4.281-0.146,0.3,0,.4,0,0.4.687V31.392c0,3.691,1.181,5.808,4.824,5.808,1.773,0,4.875-1.082,4.875-2.608V21.842c0-2.66-.493-2.954-3.053-2.954-0.887,0-1.577,0-1.577-.493,0-.737,0-0.983.346-0.983,0.688,0,1.28.146,4.283,0.146,1.231,0,2.51-.146,3.741-0.146a0.6,0.6,0,0,1,.69.687c0,0.2-.444,3.99-0.444,7.484v9.255c0,0.789,0,1.822,1.233,1.822,0.688,0,1.771-.2,2.117-0.2,0.194,0,.295,0,0.295.935,0,0.295-.049.393-1.626,0.639a45.21,45.21,0,0,0-5.661,1.28,0.655,0.655,0,0,1-.59-0.689c0-.591.1-1.378,0.145-1.871a13.645,13.645,0,0,1-7.334,2.708c-4.875,0-6.253-3.151-6.253-8.271V23.516Z" transform="translate(-1 -2)"/><path class="a" d="M449.418,22.579c0-1.722-.442-2.706-2.9-2.952a0.461,0.461,0,0,1-.442-0.591,0.607,0.607,0,0,1,.393-0.691c5.61-1.131,6.3-2.411,6.892-2.411a0.579,0.579,0,0,1,.2.493c0,0.591-.246,1.821-0.246,4.48,1.624-1.822,4.283-4.284,6.892-4.284,1.724,0,3.151.936,3.151,2.758a2.426,2.426,0,0,1-2.412,2.462c-2.017,0-2.314-1.871-3.792-1.871a5.529,5.529,0,0,0-3.4,2.117,2.077,2.077,0,0,0-.344,1.428V34.69c0,1.822,0,2.906,2.461,2.906,1.822,0,2.019.05,2.019,0.591,0,0.639-.2.689-0.739,0.689-1.771,0-3.346-.1-5.612-0.1-3.939,0-4.777.1-5.708,0.1-0.348,0-.446-0.294-0.446-0.639,0-.493.592-0.641,1.527-0.641,2.117,0,2.51-.395,2.51-2.512v-12.5Z" transform="translate(-1 -2)"/><path class="a" d="M472.554,34.2c0,2.806.1,3.4,2.265,3.4,1.083,0,1.181.05,1.181,0.641,0,0.294,0,.639-0.493.639-0.246,0-.884-0.1-4.085-0.1-4.629,0-5.909.1-6.648,0.1-0.393,0-.393-0.294-0.393-0.541,0-.64.051-0.739,1.871-0.739a1.843,1.843,0,0,0,2.019-1.182,49.964,49.964,0,0,0,.295-7.09V22.579c0-1.722-.442-2.706-2.9-2.952a0.462,0.462,0,0,1-.444-0.591,0.609,0.609,0,0,1,.393-0.691c5.612-1.131,6.3-2.411,6.894-2.411,0.2,0,.295.247,0.295,0.541,0,0.2-.246.691-0.246,7.09V34.2ZM467.974,6.48a2.561,2.561,0,1,1,2.561,2.609A2.618,2.618,0,0,1,467.974,6.48Z" transform="translate(-1 -2)"/><path class="b" d="M11.683,80.3c0,6.6,2.758,12.357,11.029,12.357,5.76,0,10.733-3.2,10.733-14.916v-9.75c0-6.842-1.428-6.842-6.5-6.842-0.394,0-.394-0.3-0.394-0.739,0-.591.148-0.739,0.394-0.739,0.837,0,4.038.2,7.236,0.2,1.528,0,5.712-.2,6.4-0.2,0.492,0,.689.1,0.689,0.837a0.544,0.544,0,0,1-.443.641c-4.727,0-5.71,0-5.71,5.808V78.628c0,13.293-8.47,16.837-14.18,16.837-11.027,0-14.129-7.384-14.129-12.8V71.393c0-3.495-.049-4.678-0.1-6.942-0.048-2.905-.885-3.3-5.167-3.3C1,61.152,1,60.758,1,60.315a0.532,0.532,0,0,1,.443-0.641c0.395,0,4.678.2,7.779,0.2,3.152,0,7.434-.2,7.829-0.2a0.532,0.532,0,0,1,.443.641c0,0.443,0,.837-0.541.837-4.284,0-5.121.393-5.169,3.3-0.05,2.263-.1,3.447-0.1,6.942V80.3Z" transform="translate(-1 -2)"/><path class="b" d="M49.634,90.2c0,2.806.1,3.4,2.265,3.4,1.328,0,1.428.05,1.428,0.641,0,0.294,0,.639-0.493.639-0.246,0-.887-0.1-4.333-0.1-4.627,0-5.906.1-6.646,0.1-0.393,0-.393-0.294-0.393-0.541,0-.64.048-0.739,1.87-0.739a1.839,1.839,0,0,0,2.017-1.182,49.644,49.644,0,0,0,.3-7.09V78.579c0-1.722-.443-2.706-2.906-2.952a0.461,0.461,0,0,1-.441-0.591,0.608,0.608,0,0,1,.393-0.691c5.614-1.131,6.3-2.411,6.892-2.411,0.1,0,.148.148,0.148,0.541,0,0.3-.1,1.379-0.1,3.547,2.559-1.724,5.071-3.4,7.729-3.4,1.674,0,6.5.344,6.5,7.386V91.823c0,0.837.148,1.773,3.2,1.773,0.492,0,.492.3,0.492,0.641,0,0.294,0,.639-0.689.639-1.478,0-2.363-.1-4.973-0.1-3.988,0-4.776.1-5.169,0.1-0.3,0-.344-0.344-0.344-0.591a0.633,0.633,0,0,1,.689-0.689c2.363,0,2.806-.2,2.806-1.821V82.961c0-4.579-.395-7.631-5.513-7.631-1.871,0-4.531,1.674-4.727,2.265V90.2Z" transform="translate(-1 -2)"/><path class="b" d="M77.248,90.2c0,2.806.1,3.4,2.265,3.4,1.082,0,1.181.05,1.181,0.641,0,0.294,0,.639-0.492.639-0.247,0-.888-0.1-4.086-0.1-4.628,0-5.908.1-6.647,0.1-0.395,0-.395-0.294-0.395-0.541,0-.64.05-0.739,1.872-0.739a1.839,1.839,0,0,0,2.017-1.182,49.675,49.675,0,0,0,.3-7.09V78.579c0-1.722-.442-2.706-2.906-2.952a0.461,0.461,0,0,1-.441-0.591,0.608,0.608,0,0,1,.393-0.691c5.612-1.131,6.3-2.411,6.892-2.411,0.2,0,.3.247,0.3,0.541,0,0.2-.247.691-0.247,7.09V90.2ZM72.67,62.48a2.561,2.561,0,1,1,2.56,2.609A2.617,2.617,0,0,1,72.67,62.48Z" transform="translate(-1 -2)"/><path class="b" d="M99.842,76.167c0-1.428-2.559-1.428-3.3-1.428A0.563,0.563,0,0,1,96.1,74.05a0.61,0.61,0,0,1,.641-0.591c1.33,0,2.856.1,4.234,0.1,1.428,0,2.9-.1,4.332-0.1a0.508,0.508,0,0,1,.442.591,0.451,0.451,0,0,1-.492.541c-2.854.444-3,.641-4.577,4.48C98.957,83.305,96,89.51,95.116,91.576c-1.378,3.3-1.821,3.889-2.215,3.889-0.541,0-.886-1.033-1.871-3.151-1.722-3.691-5.808-15.705-6.5-16.689a1.69,1.69,0,0,0-1.722-.789c-1.328,0-1.526-.148-1.526-0.835a0.518,0.518,0,0,1,.542-0.543c1.575,0,3.1.1,4.677,0.1,0.983,0,4.872-.1,5.858-0.1,0.345,0,.395.444,0.395,0.689a0.586,0.586,0,0,1-.493.591c-1.478,0-2.856.148-2.856,1.182,0,1.624,3.987,11.57,5.021,13.736C99.055,79.368,99.842,77.5,99.842,76.167Z" transform="translate(-1 -2)"/><path class="b" d="M109.442,81.485a17.835,17.835,0,0,0-.2,2.806c0,3.2,2.708,8.123,8.073,8.123a6.42,6.42,0,0,0,5.76-2.954,1.794,1.794,0,0,1,.739-0.835,1.033,1.033,0,0,1,.787.589c0,0.148-1.969,6.253-8.467,6.253-7.04,0-10.733-4.332-10.733-11.224,0-7.041,4.776-11.816,9.846-11.816,8.173,0,8.814,7.04,8.814,8.516,0,0.492-.2.543-0.591,0.543H109.442Zm8.467-1.476a1.412,1.412,0,0,0,1.674-1.626c0-3.84-2.659-4.676-4.333-4.676-3.543,0-5.021,2.954-5.514,6.3h8.173Z" transform="translate(-1 -2)"/><path class="b" d="M130.951,78.579c0-1.722-.442-2.706-2.9-2.952a0.461,0.461,0,0,1-.443-0.591A0.608,0.608,0,0,1,128,74.345c5.614-1.131,6.3-2.411,6.892-2.411a0.575,0.575,0,0,1,.2.493c0,0.591-.246,1.821-0.246,4.48,1.624-1.822,4.282-4.284,6.891-4.284,1.724,0,3.151.936,3.151,2.758a2.425,2.425,0,0,1-2.411,2.462c-2.017,0-2.313-1.871-3.791-1.871a5.526,5.526,0,0,0-3.4,2.117,2.074,2.074,0,0,0-.344,1.428V90.69c0,1.822,0,2.906,2.461,2.906,1.823,0,2.019.05,2.019,0.591,0,0.639-.2.689-0.739,0.689-1.773,0-3.347-.1-5.612-0.1-3.939,0-4.776.1-5.71,0.1-0.347,0-.444-0.294-0.444-0.639,0-.493.591-0.641,1.526-0.641,2.117,0,2.511-.395,2.511-2.512v-12.5Z" transform="translate(-1 -2)"/><path class="b" d="M161.669,88.77c0,2.411-1.28,6.7-8.025,6.7-0.886,0-3.741-.394-5.662-0.394a0.315,0.315,0,0,1-.246-0.247C147.688,94.334,146.6,90,146.6,89.51c0-.3.689-0.3,0.885-0.3,1.182,0,1.478,4.973,6.2,4.973a4.193,4.193,0,0,0,4.48-4.382c0-5.169-11.029-3.5-11.029-10.487,0-4.036,3.349-6.7,7.484-6.7a39.715,39.715,0,0,1,5.317.443,1.4,1.4,0,0,1,.737,1.38c0.1,2.017.543,3.3,0.543,3.937a0.462,0.462,0,0,1-.543.395,0.866,0.866,0,0,1-.983-0.689c-0.345-.837-1.625-4.184-5.121-4.184-2.313,0-3.939,1.328-3.939,3.691a3.742,3.742,0,0,0,2.315,3.3C158.123,83.355,161.669,83.207,161.669,88.77Z" transform="translate(-1 -2)"/><path class="b" d="M172.3,90.2c0,2.806.1,3.4,2.263,3.4,1.084,0,1.183.05,1.183,0.641,0,0.294,0,.639-0.492.639-0.246,0-.887-0.1-4.087-0.1-4.627,0-5.906.1-6.646,0.1-0.394,0-.394-0.294-0.394-0.541,0-.64.05-0.739,1.87-0.739a1.842,1.842,0,0,0,2.019-1.182,50,50,0,0,0,.294-7.09V78.579c0-1.722-.441-2.706-2.9-2.952a0.462,0.462,0,0,1-.443-0.591,0.609,0.609,0,0,1,.395-0.691c5.612-1.131,6.3-2.411,6.891-2.411a0.451,0.451,0,0,1,.3.541c0,0.2-.246.691-0.246,7.09V90.2ZM167.721,62.48a2.56,2.56,0,1,1,2.56,2.609A2.615,2.615,0,0,1,167.721,62.48Z" transform="translate(-1 -2)"/><path class="b" d="M184.209,86.113c0,5.218.443,7.088,4.332,7.088a8.105,8.105,0,0,0,3.347-1.132,0.977,0.977,0,0,1,.542.789c0,0.294-2.067,2.607-6.547,2.607-5.662,0-5.662-4.873-5.662-6.1V76.413a0.517,0.517,0,0,0-.493-0.639h-2.461a0.372,0.372,0,0,1-.295-0.445,0.861,0.861,0,0,1,.295-0.689c4.578-3.446,5.513-6.056,6.5-6.056a0.583,0.583,0,0,1,.591.64c0,0.886-.148,1.723-0.148,4.53h7.58c0.344,0,.493.342,0.493,1.034a1.143,1.143,0,0,1-1.328,1.232c-0.344,0-2.659-.246-6.745-0.246V86.113Z" transform="translate(-1 -2)"/><path class="b" d="M213.944,76.413c0-1.624-2.316-1.674-3.794-1.674-0.44,0-.489-0.246-0.489-0.641a0.573,0.573,0,0,1,.442-0.639c1.575,0,3.2.1,4.775,0.1,1.525,0,3.053-.1,4.58-0.1,0.344,0,.344.444,0.344,0.639,0,0.444-.148.591-0.838,0.641-1.675.148-2.363,0.443-3.1,2.167-1.773,4.086-8.567,18.364-9.65,21.12-3.792,9.5-5.416,10.141-7.039,10.141a2.782,2.782,0,1,1,.1-5.562c1.228,0,1.869.835,2.461,0.835,0.885,0,3.2-4.725,3.2-7.04,0-1.231-1.181-4.135-1.722-5.513-3.1-7.975-4.038-12.259-5.074-15.015-0.442-1.133-2.9-1.133-3.542-1.133a0.557,0.557,0,0,1-.445-0.689,0.532,0.532,0,0,1,.543-0.591c0.59,0,3.692.1,5.463,0.1,1.675,0,3.4-.1,4.875-0.1a0.535,0.535,0,0,1,.592.639,0.6,0.6,0,0,1-.493.641c-0.295,0-2.412,0-2.412,1.084,0,2.363,1.673,7.236,4.873,15.459C209.855,86.6,213.944,77.939,213.944,76.413Z" transform="translate(-1 -2)"/><path class="b" d="M244.753,95.466a11.015,11.015,0,0,1-11.421-11.422,11.446,11.446,0,0,1,22.893,0C256.224,90.936,251.646,95.466,244.753,95.466Zm0-21.562c-5.119,0-6.742,5.316-6.742,10.14,0,4.186.983,10.142,6.742,10.142,5.811,0,6.793-5.956,6.793-10.142C251.546,79.219,249.922,73.9,244.753,73.9Z" transform="translate(-1 -2)"/><path class="b" d="M267.443,90.69c0,1.822,0,2.906,2.463,2.906,1.822,0,2.019.05,2.019,0.591,0,0.639-.2.689-0.739,0.689-1.773,0-3.348-.1-5.612-0.1-3.937,0-4.775.1-5.217,0.1-0.346,0-.444-0.294-0.444-0.639,0-.493.1-0.641,1.032-0.641,2.117,0,2.512-.395,2.512-2.512V77.349c0-.591,0-1.574-0.936-1.574h-2.707c-0.346,0-.592,0-0.592-0.641,0-.395.344-0.591,1.525-0.837,1.92-.443,2.414-0.541,2.559-2.757,0.493-7.482,2.711-11.618,8.519-13.144a14.765,14.765,0,0,1,3-.395c1.28,0,3.1.493,3.1,2.117a2.2,2.2,0,0,1-2.314,2.413,4.4,4.4,0,0,1-2.707-1.131,4.536,4.536,0,0,0-2.166-1.134c-2.807,0-3.3,4.086-3.3,7.14v6.351h6.106c0.346,0,.491.342,0.491,1.034a1.142,1.142,0,0,1-1.327,1.232c-0.344,0-4.136-.246-5.27-0.246V90.69Z" transform="translate(-1 -2)"/><path class="b" d="M328.533,60.215a0.612,0.612,0,0,1,.59-0.541c0.248,0,3.841.2,4.973,0.2,0.837,0,5.02-.2,5.366-0.2,0.491,0,.541.395,0.541,0.837a0.54,0.54,0,0,1-.592.641c-4.431,0-4.971.344-4.971,2.609,0,3.2.541,13.537,1.034,27.322a2.43,2.43,0,0,0,2.709,2.315c2.756,0,2.8.295,2.8,0.639,0,0.739-.246.837-0.541,0.837-0.444,0-.985-0.1-7.829-0.1-6.4,0-6.7.1-7.088,0.1-0.542,0-.542-0.344-0.542-0.787,0-.345.1-0.689,2.365-0.689,3.249,0,3.3-.787,3.3-2.757,0-2.955-.739-18.856-1.134-28.063h-0.1c-3.593,9.206-8.122,19.793-11.372,27.718-1.869,4.528-1.869,5.071-2.51,5.071s-0.739-.442-1.773-3.839c-1.083-3.545-9.107-25.307-9.306-25.307-0.835,3.595-4.085,19.939-4.085,24.862,0,1.528.837,2.315,2.461,2.315,1.231,0,2.66.1,2.66,0.393,0,0.937,0,1.084-.543,1.084-0.4,0-.887-0.1-5.956-0.1-4.48,0-4.826.1-5.121,0.1-0.393,0-.541-0.05-0.541-0.837,0-.492.246-0.639,2.608-0.639,1.722,0,2.068-.641,2.611-3.446,1.329-7.09,2.508-14.228,4.036-21.318a21.581,21.581,0,0,0,.641-4.628,5.174,5.174,0,0,0-1.282-2.461,16.7,16.7,0,0,0-4.232-.393c-0.592,0-.592-0.394-0.592-0.739,0-.395.1-0.739,0.541-0.739,0.936,0,5.17.2,5.712,0.2,1.28,0,3.348-.2,3.988-0.2,0.541,0,.688.541,1.181,2.313,1.032,3.693,8.171,23.632,9.058,25.453C321.3,78.727,325.036,69.718,328.533,60.215Z" transform="translate(-1 -2)"/><path class="b" d="M350.433,90.2c0,2.806.1,3.4,2.265,3.4,1.081,0,1.181.05,1.181,0.641,0,0.294,0,.639-0.493.639-0.246,0-.887-0.1-4.085-0.1-4.629,0-5.909.1-6.648,0.1-0.393,0-.393-0.294-0.393-0.541,0-.64.049-0.739,1.871-0.739a1.84,1.84,0,0,0,2.017-1.182,49.513,49.513,0,0,0,.3-7.09V78.579c0-1.722-.442-2.706-2.905-2.952a0.461,0.461,0,0,1-.442-0.591,0.609,0.609,0,0,1,.393-0.691c5.612-1.131,6.3-2.411,6.892-2.411,0.2,0,.3.247,0.3,0.541,0,0.2-.246.691-0.246,7.09V90.2Zm-4.58-27.718a2.562,2.562,0,1,1,2.561,2.609A2.618,2.618,0,0,1,345.853,62.48Z" transform="translate(-1 -2)"/><path class="b" d="M371.7,88.77c0,2.411-1.28,6.7-8.026,6.7-0.884,0-3.741-.394-5.661-0.394a0.314,0.314,0,0,1-.246-0.247c-0.049-.491-1.132-4.823-1.132-5.315,0-.3.69-0.3,0.884-0.3,1.183,0,1.478,4.973,6.206,4.973A4.193,4.193,0,0,0,368.2,89.8c0-5.169-11.028-3.5-11.028-10.487,0-4.036,3.348-6.7,7.484-6.7a39.657,39.657,0,0,1,5.317.443,1.4,1.4,0,0,1,.737,1.38c0.1,2.017.543,3.3,0.543,3.937a0.461,0.461,0,0,1-.543.395,0.867,0.867,0,0,1-.985-0.689c-0.344-.837-1.624-4.184-5.121-4.184-2.314,0-3.937,1.328-3.937,3.691a3.741,3.741,0,0,0,2.314,3.3C368.152,83.355,371.7,83.207,371.7,88.77Z" transform="translate(-1 -2)"/><path class="b" d="M389.91,88.77c0,2.411-1.28,6.7-8.024,6.7-0.887,0-3.741-.394-5.661-0.394a0.316,0.316,0,0,1-.248-0.247c-0.049-.491-1.13-4.823-1.13-5.315,0-.3.688-0.3,0.884-0.3,1.181,0,1.478,4.973,6.2,4.973a4.193,4.193,0,0,0,4.482-4.382c0-5.169-11.028-3.5-11.028-10.487,0-4.036,3.348-6.7,7.484-6.7a39.613,39.613,0,0,1,5.315.443,1.4,1.4,0,0,1,.739,1.38c0.1,2.017.543,3.3,0.543,3.937a0.462,0.462,0,0,1-.543.395,0.867,0.867,0,0,1-.985-0.689c-0.342-.837-1.624-4.184-5.119-4.184-2.314,0-3.939,1.328-3.939,3.691a3.741,3.741,0,0,0,2.314,3.3C386.366,83.355,389.91,83.207,389.91,88.77Z" transform="translate(-1 -2)"/><path class="b" d="M404.922,95.466A11.014,11.014,0,0,1,393.5,84.044a11.446,11.446,0,0,1,22.893,0C416.394,90.936,411.814,95.466,404.922,95.466Zm0-21.562c-5.119,0-6.744,5.316-6.744,10.14,0,4.186.985,10.142,6.744,10.142,5.811,0,6.794-5.956,6.794-10.142C411.716,79.219,410.092,73.9,404.922,73.9Z" transform="translate(-1 -2)"/><path class="b" d="M422.543,79.516c0-4.334-.491-4.628-3.053-4.628-0.393,0-1.083,0-1.083-.493,0-.393,0-0.983.541-0.983,0.493,0,1.282.146,2.907,0.146,1.722,0,3.593-.146,4.281-0.146,0.3,0,.4,0,0.4.687V87.392c0,3.691,1.181,5.808,4.824,5.808,1.773,0,4.875-1.082,4.875-2.608V77.842c0-2.66-.493-2.954-3.053-2.954-0.887,0-1.577,0-1.577-.493,0-.737,0-0.983.346-0.983,0.688,0,1.28.146,4.283,0.146,1.231,0,2.51-.146,3.741-0.146a0.6,0.6,0,0,1,.69.687c0,0.2-.444,3.99-0.444,7.484v9.255c0,0.789,0,1.822,1.233,1.822,0.688,0,1.771-.2,2.117-0.2,0.194,0,.295,0,0.295.935,0,0.295-.049.393-1.626,0.639a45.21,45.21,0,0,0-5.661,1.28,0.655,0.655,0,0,1-.59-0.689c0-.591.1-1.378,0.145-1.871a13.645,13.645,0,0,1-7.334,2.708c-4.875,0-6.253-3.151-6.253-8.271V79.516Z" transform="translate(-1 -2)"/><path class="b" d="M449.418,78.579c0-1.722-.442-2.706-2.9-2.952a0.461,0.461,0,0,1-.442-0.591,0.607,0.607,0,0,1,.393-0.691c5.61-1.131,6.3-2.411,6.892-2.411a0.579,0.579,0,0,1,.2.493c0,0.591-.246,1.821-0.246,4.48,1.624-1.822,4.283-4.284,6.892-4.284,1.724,0,3.151.936,3.151,2.758a2.426,2.426,0,0,1-2.412,2.462c-2.017,0-2.314-1.871-3.792-1.871a5.529,5.529,0,0,0-3.4,2.117,2.077,2.077,0,0,0-.344,1.428V90.69c0,1.822,0,2.906,2.461,2.906,1.822,0,2.019.05,2.019,0.591,0,0.639-.2.689-0.739,0.689-1.771,0-3.346-.1-5.612-0.1-3.939,0-4.777.1-5.708,0.1-0.348,0-.446-0.294-0.446-0.639,0-.493.592-0.641,1.527-0.641,2.117,0,2.51-.395,2.51-2.512v-12.5Z" transform="translate(-1 -2)"/><path class="b" d="M472.554,90.2c0,2.806.1,3.4,2.265,3.4,1.083,0,1.181.05,1.181,0.641,0,0.294,0,.639-0.493.639-0.246,0-.884-0.1-4.085-0.1-4.629,0-5.909.1-6.648,0.1-0.393,0-.393-0.294-0.393-0.541,0-.64.051-0.739,1.871-0.739a1.843,1.843,0,0,0,2.019-1.182,49.964,49.964,0,0,0,.295-7.09V78.579c0-1.722-.442-2.706-2.9-2.952a0.462,0.462,0,0,1-.444-0.591,0.609,0.609,0,0,1,.393-0.691c5.612-1.131,6.3-2.411,6.894-2.411,0.2,0,.295.247,0.295,0.541,0,0.2-.246.691-0.246,7.09V90.2Zm-4.58-27.718a2.561,2.561,0,1,1,2.561,2.609A2.618,2.618,0,0,1,467.974,62.48Z" transform="translate(-1 -2)"/><path d="M11.683,136.3c0,6.6,2.758,12.357,11.029,12.357,5.76,0,10.733-3.2,10.733-14.916v-9.75c0-6.842-1.428-6.842-6.5-6.842-0.394,0-.394-0.3-0.394-0.739,0-.591.148-0.739,0.394-0.739,0.837,0,4.038.2,7.236,0.2,1.528,0,5.712-.2,6.4-0.2,0.492,0,.689.1,0.689,0.837a0.544,0.544,0,0,1-.443.641c-4.727,0-5.71,0-5.71,5.808v11.668c0,13.293-8.47,16.837-14.18,16.837-11.027,0-14.129-7.384-14.129-12.8V127.393c0-3.495-.049-4.678-0.1-6.942-0.048-2.905-.885-3.3-5.167-3.3C1,117.153,1,116.758,1,116.316a0.532,0.532,0,0,1,.443-0.641c0.395,0,4.678.2,7.779,0.2,3.152,0,7.434-.2,7.829-0.2a0.532,0.532,0,0,1,.443.641c0,0.443,0,.837-0.541.837-4.284,0-5.121.393-5.169,3.3-0.05,2.263-.1,3.447-0.1,6.942v8.91Z" transform="translate(-1 -2)"/><path d="M49.634,146.2c0,2.806.1,3.4,2.265,3.4,1.328,0,1.428.05,1.428,0.641,0,0.294,0,.639-0.493.639-0.246,0-.887-0.1-4.333-0.1-4.627,0-5.906.1-6.646,0.1-0.393,0-.393-0.294-0.393-0.541,0-.64.048-0.739,1.87-0.739a1.839,1.839,0,0,0,2.017-1.182,49.644,49.644,0,0,0,.3-7.09v-6.745c0-1.722-.443-2.706-2.906-2.952a0.461,0.461,0,0,1-.441-0.591,0.608,0.608,0,0,1,.393-0.691c5.614-1.131,6.3-2.411,6.892-2.411,0.1,0,.148.148,0.148,0.541,0,0.3-.1,1.379-0.1,3.547,2.559-1.724,5.071-3.4,7.729-3.4,1.674,0,6.5.344,6.5,7.386v11.814c0,0.837.148,1.773,3.2,1.773,0.492,0,.492.3,0.492,0.641,0,0.294,0,.639-0.689.639-1.478,0-2.363-.1-4.973-0.1-3.988,0-4.776.1-5.169,0.1-0.3,0-.344-0.344-0.344-0.591a0.633,0.633,0,0,1,.689-0.689c2.363,0,2.806-.2,2.806-1.821v-8.814c0-4.579-.395-7.631-5.513-7.631-1.871,0-4.531,1.674-4.727,2.265v12.6Z" transform="translate(-1 -2)"/><path d="M77.248,146.2c0,2.806.1,3.4,2.265,3.4,1.082,0,1.181.05,1.181,0.641,0,0.294,0,.639-0.492.639-0.247,0-.888-0.1-4.086-0.1-4.628,0-5.908.1-6.647,0.1-0.395,0-.395-0.294-0.395-0.541,0-.64.05-0.739,1.872-0.739a1.839,1.839,0,0,0,2.017-1.182,49.675,49.675,0,0,0,.3-7.09v-6.745c0-1.722-.442-2.706-2.906-2.952a0.461,0.461,0,0,1-.441-0.591,0.608,0.608,0,0,1,.393-0.691c5.612-1.131,6.3-2.411,6.892-2.411,0.2,0,.3.247,0.3,0.541,0,0.2-.247.691-0.247,7.09V146.2ZM72.67,118.481a2.561,2.561,0,1,1,2.56,2.609A2.617,2.617,0,0,1,72.67,118.481Z" transform="translate(-1 -2)"/><path d="M99.842,132.168c0-1.428-2.559-1.428-3.3-1.428a0.563,0.563,0,0,1-.443-0.689,0.61,0.61,0,0,1,.641-0.591c1.33,0,2.856.1,4.234,0.1,1.428,0,2.9-.1,4.332-0.1a0.508,0.508,0,0,1,.442.591,0.451,0.451,0,0,1-.492.541c-2.854.444-3,.641-4.577,4.48-1.724,4.234-4.678,10.439-5.565,12.505-1.378,3.3-1.821,3.889-2.215,3.889-0.541,0-.886-1.033-1.871-3.151-1.722-3.691-5.808-15.705-6.5-16.689a1.69,1.69,0,0,0-1.722-.789c-1.328,0-1.526-.148-1.526-0.835a0.518,0.518,0,0,1,.542-0.543c1.575,0,3.1.1,4.677,0.1,0.983,0,4.872-.1,5.858-0.1,0.345,0,.395.444,0.395,0.689a0.586,0.586,0,0,1-.493.591c-1.478,0-2.856.148-2.856,1.182,0,1.624,3.987,11.57,5.021,13.736C99.055,135.368,99.842,133.5,99.842,132.168Z" transform="translate(-1 -2)"/><path d="M109.442,137.485a17.835,17.835,0,0,0-.2,2.806c0,3.2,2.708,8.123,8.073,8.123a6.42,6.42,0,0,0,5.76-2.954,1.794,1.794,0,0,1,.739-0.835,1.033,1.033,0,0,1,.787.589c0,0.148-1.969,6.253-8.467,6.253-7.04,0-10.733-4.332-10.733-11.224,0-7.041,4.776-11.816,9.846-11.816,8.173,0,8.814,7.04,8.814,8.516,0,0.492-.2.543-0.591,0.543H109.442Zm8.467-1.476a1.412,1.412,0,0,0,1.674-1.626c0-3.84-2.659-4.676-4.333-4.676-3.543,0-5.021,2.954-5.514,6.3h8.173Z" transform="translate(-1 -2)"/><path d="M130.951,134.579c0-1.722-.442-2.706-2.9-2.952a0.461,0.461,0,0,1-.443-0.591,0.608,0.608,0,0,1,.393-0.691c5.614-1.131,6.3-2.411,6.892-2.411a0.575,0.575,0,0,1,.2.493c0,0.591-.246,1.821-0.246,4.48,1.624-1.822,4.282-4.284,6.891-4.284,1.724,0,3.151.936,3.151,2.758a2.425,2.425,0,0,1-2.411,2.462c-2.017,0-2.313-1.871-3.791-1.871a5.526,5.526,0,0,0-3.4,2.117,2.074,2.074,0,0,0-.344,1.428V146.69c0,1.822,0,2.906,2.461,2.906,1.823,0,2.019.05,2.019,0.591,0,0.639-.2.689-0.739,0.689-1.773,0-3.347-.1-5.612-0.1-3.939,0-4.776.1-5.71,0.1-0.347,0-.444-0.294-0.444-0.639,0-.493.591-0.641,1.526-0.641,2.117,0,2.511-.395,2.511-2.512v-12.5Z" transform="translate(-1 -2)"/><path d="M161.669,144.771c0,2.411-1.28,6.7-8.025,6.7-0.886,0-3.741-.394-5.662-0.394a0.315,0.315,0,0,1-.246-0.247c-0.048-.491-1.132-4.823-1.132-5.315,0-.3.689-0.3,0.885-0.3,1.182,0,1.478,4.973,6.2,4.973a4.193,4.193,0,0,0,4.48-4.382c0-5.169-11.029-3.5-11.029-10.487,0-4.036,3.349-6.7,7.484-6.7a39.715,39.715,0,0,1,5.317.443,1.4,1.4,0,0,1,.737,1.38c0.1,2.017.543,3.3,0.543,3.937a0.462,0.462,0,0,1-.543.395,0.866,0.866,0,0,1-.983-0.689c-0.345-.837-1.625-4.184-5.121-4.184-2.313,0-3.939,1.328-3.939,3.691a3.742,3.742,0,0,0,2.315,3.3C158.123,139.355,161.669,139.207,161.669,144.771Z" transform="translate(-1 -2)"/><path d="M172.3,146.2c0,2.806.1,3.4,2.263,3.4,1.084,0,1.183.05,1.183,0.641,0,0.294,0,.639-0.492.639-0.246,0-.887-0.1-4.087-0.1-4.627,0-5.906.1-6.646,0.1-0.394,0-.394-0.294-0.394-0.541,0-.64.05-0.739,1.87-0.739a1.842,1.842,0,0,0,2.019-1.182,50,50,0,0,0,.294-7.09v-6.745c0-1.722-.441-2.706-2.9-2.952a0.462,0.462,0,0,1-.443-0.591,0.609,0.609,0,0,1,.395-0.691c5.612-1.131,6.3-2.411,6.891-2.411a0.451,0.451,0,0,1,.3.541c0,0.2-.246.691-0.246,7.09V146.2Zm-4.579-27.718a2.56,2.56,0,1,1,2.56,2.609A2.615,2.615,0,0,1,167.721,118.481Z" transform="translate(-1 -2)"/><path d="M184.209,142.113c0,5.218.443,7.088,4.332,7.088a8.105,8.105,0,0,0,3.347-1.132,0.977,0.977,0,0,1,.542.789c0,0.294-2.067,2.607-6.547,2.607-5.662,0-5.662-4.873-5.662-6.1V132.414a0.517,0.517,0,0,0-.493-0.639h-2.461a0.372,0.372,0,0,1-.295-0.445,0.861,0.861,0,0,1,.295-0.689c4.578-3.446,5.513-6.056,6.5-6.056a0.583,0.583,0,0,1,.591.64c0,0.886-.148,1.723-0.148,4.53h7.58c0.344,0,.493.342,0.493,1.034a1.143,1.143,0,0,1-1.328,1.232c-0.344,0-2.659-.246-6.745-0.246v10.338Z" transform="translate(-1 -2)"/><path d="M213.944,132.414c0-1.624-2.316-1.674-3.794-1.674-0.44,0-.489-0.246-0.489-0.641a0.573,0.573,0,0,1,.442-0.639c1.575,0,3.2.1,4.775,0.1,1.525,0,3.053-.1,4.58-0.1,0.344,0,.344.444,0.344,0.639,0,0.444-.148.591-0.838,0.641-1.675.148-2.363,0.443-3.1,2.167-1.773,4.086-8.567,18.364-9.65,21.12-3.792,9.5-5.416,10.141-7.039,10.141a2.782,2.782,0,1,1,.1-5.562c1.228,0,1.869.835,2.461,0.835,0.885,0,3.2-4.725,3.2-7.04,0-1.231-1.181-4.135-1.722-5.513-3.1-7.975-4.038-12.259-5.074-15.015-0.442-1.133-2.9-1.133-3.542-1.133a0.557,0.557,0,0,1-.445-0.689,0.532,0.532,0,0,1,.543-0.591c0.59,0,3.692.1,5.463,0.1,1.675,0,3.4-.1,4.875-0.1a0.535,0.535,0,0,1,.592.639,0.6,0.6,0,0,1-.493.641c-0.295,0-2.412,0-2.412,1.084,0,2.363,1.673,7.236,4.873,15.459C209.855,142.6,213.944,133.94,213.944,132.414Z" transform="translate(-1 -2)"/><path d="M244.753,151.466a11.015,11.015,0,0,1-11.421-11.422,11.446,11.446,0,0,1,22.893,0C256.224,146.936,251.646,151.466,244.753,151.466Zm0-21.562c-5.119,0-6.742,5.316-6.742,10.14,0,4.186.983,10.142,6.742,10.142,5.811,0,6.793-5.956,6.793-10.142C251.546,135.22,249.922,129.9,244.753,129.9Z" transform="translate(-1 -2)"/><path d="M267.443,146.69c0,1.822,0,2.906,2.463,2.906,1.822,0,2.019.05,2.019,0.591,0,0.639-.2.689-0.739,0.689-1.773,0-3.348-.1-5.612-0.1-3.937,0-4.775.1-5.217,0.1-0.346,0-.444-0.294-0.444-0.639,0-.493.1-0.641,1.032-0.641,2.117,0,2.512-.395,2.512-2.512V133.349c0-.591,0-1.574-0.936-1.574h-2.707c-0.346,0-.592,0-0.592-0.641,0-.395.344-0.591,1.525-0.837,1.92-.443,2.414-0.541,2.559-2.757,0.493-7.482,2.711-11.618,8.519-13.144a14.765,14.765,0,0,1,3-.395c1.28,0,3.1.493,3.1,2.117a2.2,2.2,0,0,1-2.314,2.413,4.4,4.4,0,0,1-2.707-1.131,4.536,4.536,0,0,0-2.166-1.134c-2.807,0-3.3,4.086-3.3,7.14v6.351h6.106c0.346,0,.491.342,0.491,1.034a1.142,1.142,0,0,1-1.327,1.232c-0.344,0-4.136-.246-5.27-0.246V146.69Z" transform="translate(-1 -2)"/><path d="M328.533,116.216a0.612,0.612,0,0,1,.59-0.541c0.248,0,3.841.2,4.973,0.2,0.837,0,5.02-.2,5.366-0.2,0.491,0,.541.395,0.541,0.837a0.54,0.54,0,0,1-.592.641c-4.431,0-4.971.344-4.971,2.609,0,3.2.541,13.537,1.034,27.322a2.43,2.43,0,0,0,2.709,2.315c2.756,0,2.8.295,2.8,0.639,0,0.739-.246.837-0.541,0.837-0.444,0-.985-0.1-7.829-0.1-6.4,0-6.7.1-7.088,0.1-0.542,0-.542-0.344-0.542-0.787,0-.345.1-0.689,2.365-0.689,3.249,0,3.3-.787,3.3-2.757,0-2.955-.739-18.856-1.134-28.063h-0.1c-3.593,9.206-8.122,19.793-11.372,27.718-1.869,4.528-1.869,5.071-2.51,5.071s-0.739-.442-1.773-3.839c-1.083-3.545-9.107-25.307-9.306-25.307-0.835,3.595-4.085,19.939-4.085,24.862,0,1.528.837,2.315,2.461,2.315,1.231,0,2.66.1,2.66,0.393,0,0.937,0,1.084-.543,1.084-0.4,0-.887-0.1-5.956-0.1-4.48,0-4.826.1-5.121,0.1-0.393,0-.541-0.05-0.541-0.837,0-.492.246-0.639,2.608-0.639,1.722,0,2.068-.641,2.611-3.446,1.329-7.09,2.508-14.228,4.036-21.318a21.581,21.581,0,0,0,.641-4.628,5.174,5.174,0,0,0-1.282-2.461,16.7,16.7,0,0,0-4.232-.393c-0.592,0-.592-0.394-0.592-0.739,0-.395.1-0.739,0.541-0.739,0.936,0,5.17.2,5.712,0.2,1.28,0,3.348-.2,3.988-0.2,0.541,0,.688.541,1.181,2.313,1.032,3.693,8.171,23.632,9.058,25.453C321.3,134.727,325.036,125.719,328.533,116.216Z" transform="translate(-1 -2)"/><path d="M350.433,146.2c0,2.806.1,3.4,2.265,3.4,1.081,0,1.181.05,1.181,0.641,0,0.294,0,.639-0.493.639-0.246,0-.887-0.1-4.085-0.1-4.629,0-5.909.1-6.648,0.1-0.393,0-.393-0.294-0.393-0.541,0-.64.049-0.739,1.871-0.739a1.84,1.84,0,0,0,2.017-1.182,49.513,49.513,0,0,0,.3-7.09v-6.745c0-1.722-.442-2.706-2.905-2.952a0.461,0.461,0,0,1-.442-0.591,0.609,0.609,0,0,1,.393-0.691c5.612-1.131,6.3-2.411,6.892-2.411,0.2,0,.3.247,0.3,0.541,0,0.2-.246.691-0.246,7.09V146.2Zm-4.58-27.718a2.562,2.562,0,1,1,2.561,2.609A2.618,2.618,0,0,1,345.853,118.481Z" transform="translate(-1 -2)"/><path d="M371.7,144.771c0,2.411-1.28,6.7-8.026,6.7-0.884,0-3.741-.394-5.661-0.394a0.314,0.314,0,0,1-.246-0.247c-0.049-.491-1.132-4.823-1.132-5.315,0-.3.69-0.3,0.884-0.3,1.183,0,1.478,4.973,6.206,4.973a4.193,4.193,0,0,0,4.48-4.382c0-5.169-11.028-3.5-11.028-10.487,0-4.036,3.348-6.7,7.484-6.7a39.657,39.657,0,0,1,5.317.443,1.4,1.4,0,0,1,.737,1.38c0.1,2.017.543,3.3,0.543,3.937a0.461,0.461,0,0,1-.543.395,0.867,0.867,0,0,1-.985-0.689c-0.344-.837-1.624-4.184-5.121-4.184-2.314,0-3.937,1.328-3.937,3.691a3.741,3.741,0,0,0,2.314,3.3C368.152,139.355,371.7,139.207,371.7,144.771Z" transform="translate(-1 -2)"/><path d="M389.91,144.771c0,2.411-1.28,6.7-8.024,6.7-0.887,0-3.741-.394-5.661-0.394a0.316,0.316,0,0,1-.248-0.247c-0.049-.491-1.13-4.823-1.13-5.315,0-.3.688-0.3,0.884-0.3,1.181,0,1.478,4.973,6.2,4.973a4.193,4.193,0,0,0,4.482-4.382c0-5.169-11.028-3.5-11.028-10.487,0-4.036,3.348-6.7,7.484-6.7a39.613,39.613,0,0,1,5.315.443,1.4,1.4,0,0,1,.739,1.38c0.1,2.017.543,3.3,0.543,3.937a0.462,0.462,0,0,1-.543.395,0.867,0.867,0,0,1-.985-0.689c-0.342-.837-1.624-4.184-5.119-4.184-2.314,0-3.939,1.328-3.939,3.691a3.741,3.741,0,0,0,2.314,3.3C386.366,139.355,389.91,139.207,389.91,144.771Z" transform="translate(-1 -2)"/><path d="M404.922,151.466A11.014,11.014,0,0,1,393.5,140.044a11.446,11.446,0,0,1,22.893,0C416.394,146.936,411.814,151.466,404.922,151.466Zm0-21.562c-5.119,0-6.744,5.316-6.744,10.14,0,4.186.985,10.142,6.744,10.142,5.811,0,6.794-5.956,6.794-10.142C411.716,135.22,410.092,129.9,404.922,129.9Z" transform="translate(-1 -2)"/><path d="M422.543,135.516c0-4.334-.491-4.628-3.053-4.628-0.393,0-1.083,0-1.083-.493,0-.393,0-0.983.541-0.983,0.493,0,1.282.146,2.907,0.146,1.722,0,3.593-.146,4.281-0.146,0.3,0,.4,0,0.4.687v13.294c0,3.691,1.181,5.808,4.824,5.808,1.773,0,4.875-1.082,4.875-2.608V133.842c0-2.66-.493-2.954-3.053-2.954-0.887,0-1.577,0-1.577-.493,0-.737,0-0.983.346-0.983,0.688,0,1.28.146,4.283,0.146,1.231,0,2.51-.146,3.741-0.146a0.6,0.6,0,0,1,.69.687c0,0.2-.444,3.99-0.444,7.484v9.255c0,0.789,0,1.822,1.233,1.822,0.688,0,1.771-.2,2.117-0.2,0.194,0,.295,0,0.295.935,0,0.295-.049.393-1.626,0.639a45.21,45.21,0,0,0-5.661,1.28,0.655,0.655,0,0,1-.59-0.689c0-.591.1-1.378,0.145-1.871a13.645,13.645,0,0,1-7.334,2.708c-4.875,0-6.253-3.151-6.253-8.271v-7.679Z" transform="translate(-1 -2)"/><path d="M449.418,134.579c0-1.722-.442-2.706-2.9-2.952a0.461,0.461,0,0,1-.442-0.591,0.607,0.607,0,0,1,.393-0.691c5.61-1.131,6.3-2.411,6.892-2.411a0.579,0.579,0,0,1,.2.493c0,0.591-.246,1.821-0.246,4.48,1.624-1.822,4.283-4.284,6.892-4.284,1.724,0,3.151.936,3.151,2.758a2.426,2.426,0,0,1-2.412,2.462c-2.017,0-2.314-1.871-3.792-1.871a5.529,5.529,0,0,0-3.4,2.117,2.077,2.077,0,0,0-.344,1.428V146.69c0,1.822,0,2.906,2.461,2.906,1.822,0,2.019.05,2.019,0.591,0,0.639-.2.689-0.739,0.689-1.771,0-3.346-.1-5.612-0.1-3.939,0-4.777.1-5.708,0.1-0.348,0-.446-0.294-0.446-0.639,0-.493.592-0.641,1.527-0.641,2.117,0,2.51-.395,2.51-2.512v-12.5Z" transform="translate(-1 -2)"/><path d="M472.554,146.2c0,2.806.1,3.4,2.265,3.4,1.083,0,1.181.05,1.181,0.641,0,0.294,0,.639-0.493.639-0.246,0-.884-0.1-4.085-0.1-4.629,0-5.909.1-6.648,0.1-0.393,0-.393-0.294-0.393-0.541,0-.64.051-0.739,1.871-0.739a1.843,1.843,0,0,0,2.019-1.182,49.964,49.964,0,0,0,.295-7.09v-6.745c0-1.722-.442-2.706-2.9-2.952a0.462,0.462,0,0,1-.444-0.591,0.609,0.609,0,0,1,.393-0.691c5.612-1.131,6.3-2.411,6.894-2.411,0.2,0,.295.247,0.295,0.541,0,0.2-.246.691-0.246,7.09V146.2Zm-4.58-27.718a2.561,2.561,0,1,1,2.561,2.609A2.618,2.618,0,0,1,467.974,118.481Z" transform="translate(-1 -2)"/></svg>