<svg xmlns="http://www.w3.org/2000/svg" width="404" height="171" viewBox="0 0 404 171"><defs><style>.a{fill:#fff;}.b{fill:#f1b82d;}</style></defs><title>unit-name-white</title><path class="a" d="M20.8,42.2C7.351,42.2,2.3,31.5,2.3,24.8c0-12.051,8.95-19.4,18.5-19.4,10.6,0,18.551,6.35,18.551,19.151C39.353,31.5,34.3,42.2,20.8,42.2Zm0-35.5C9.15,6.7,8.25,19.749,8.25,23.849,8.25,30.75,11.6,40.9,20.8,40.9c11.8,0,12.6-11.15,12.6-17.1C33.4,16.648,30.052,6.7,20.8,6.7Z"/><path class="a" d="M51.25,37.35c0,1.85,0,2.95,2.5,2.95,1.85,0,2.05.05,2.05,0.6,0,0.65-.2.7-0.75,0.7-1.8,0-3.4-.1-5.7-0.1-4,0-4.851.1-5.3,0.1-0.35,0-.45-0.3-0.45-0.65,0-.5.1-0.65,1.05-0.65,2.15,0,2.55-.4,2.55-2.55V23.8c0-.6,0-1.6-0.95-1.6H43.5c-0.35,0-.6,0-0.6-0.65,0-.4.35-0.6,1.55-0.85,1.95-.45,2.45-0.55,2.6-2.8,0.5-7.6,2.75-11.8,8.65-13.351a14.955,14.955,0,0,1,3.05-.4c1.3,0,3.15.5,3.15,2.15a2.233,2.233,0,0,1-2.351,2.45A4.471,4.471,0,0,1,56.8,7.6a4.611,4.611,0,0,0-2.2-1.15c-2.85,0-3.35,4.15-3.35,7.25v6.451h6.2c0.35,0,.5.35,0.5,1.05a1.161,1.161,0,0,1-1.35,1.25c-0.35,0-4.2-.25-5.35-0.25V37.35Z"/><path class="a" d="M67,37.35c0,1.85,0,2.95,2.5,2.95,1.1,0,1.3.05,1.3,0.6,0,0.65-.2.7-0.75,0.7-1.05,0-2.65-.1-4.95-0.1-4,0-4.851.1-5.3,0.1-0.35,0-.45-0.3-0.45-0.65,0-.5.1-0.65,1.05-0.65,2.15,0,2.55-.4,2.55-2.55V23.8c0-.6,0-1.6-0.95-1.6h-2.75c-0.35,0-.6,0-0.6-0.65,0-.4.35-0.6,1.55-0.85,1.95-.45,2.45-0.55,2.6-2.8,0.5-7.35,5.8-13.75,13.851-13.75,1.3,0,4.65.5,4.65,2.7A2.4,2.4,0,0,1,78.7,9.3c-3.55,0-4.3-2.85-6.05-2.85C70.8,6.448,67,7.4,67,17.2v2.95h8.5c2.8,0,5.05-1.85,5.6-1.85,0.2,0,.3.25,0.3,0.55,0,0.2-.25.7-0.25,7.2v10.8c0,2.85.1,3.45,2.3,3.45,1.1,0,1.2.05,1.2,0.65,0,0.3,0,.65-0.5.65-0.25,0-.9-0.1-4.15-0.1-4.7,0-6,.1-6.75.1-0.4,0-.4-0.3-0.4-0.55,0-.65.05-0.75,1.9-0.75a1.87,1.87,0,0,0,2.05-1.2,50.723,50.723,0,0,0,.3-7.2V25.049a2.813,2.813,0,0,0-2.85-3.1H67v15.4Z"/><path class="a" d="M105.8,37.3a2.862,2.862,0,0,1,.85-0.8,1.038,1.038,0,0,1,.75.7,1.1,1.1,0,0,1-.4.75,11.272,11.272,0,0,1-8.75,4.25c-5.8,0-10.351-4.15-10.351-11.3C87.9,23.5,92.8,19,99.25,19c6.85,0,8.15,3.7,8.15,4.75a2.587,2.587,0,0,1-2.65,2.15c-1.6,0-1.8-.5-2.35-3.25-0.15-.75-0.5-2.35-3.1-2.35-3.15,0-7.05,2.4-7.05,10.6,0,2.25.85,8.5,8.5,8.5A9.15,9.15,0,0,0,105.8,37.3Z"/><path class="a" d="M114.5,28a18.288,18.288,0,0,0-.2,2.85c0,3.25,2.751,8.25,8.2,8.25a6.519,6.519,0,0,0,5.85-3,1.841,1.841,0,0,1,.751-0.85,1.055,1.055,0,0,1,.8.6c0,0.15-2,6.351-8.6,6.351-7.15,0-10.9-4.4-10.9-11.4,0-7.15,4.85-12,10-12,8.3,0,8.951,7.15,8.951,8.65,0,0.5-.2.55-0.6,0.55H114.5Zm8.6-1.5a1.433,1.433,0,0,0,1.7-1.65c0-3.9-2.7-4.75-4.4-4.75-3.6,0-5.1,3-5.6,6.4h8.3Z"/><path class="a" d="M157.8,42.2a11.188,11.188,0,0,1-11.6-11.6,11.626,11.626,0,0,1,23.252,0C169.448,37.6,164.8,42.2,157.8,42.2Zm0-21.9c-5.2,0-6.85,5.4-6.85,10.3,0,4.25,1,10.3,6.85,10.3,5.9,0,6.9-6.05,6.9-10.3C164.7,25.7,163.048,20.3,157.8,20.3Z"/><path class="a" d="M180.847,37.35c0,1.85,0,2.95,2.5,2.95,1.851,0,2.05.05,2.05,0.6,0,0.65-.2.7-0.75,0.7-1.8,0-3.4-.1-5.7-0.1-4,0-4.85.1-5.3,0.1-0.351,0-.45-0.3-0.45-0.65,0-.5.1-0.65,1.05-0.65,2.15,0,2.551-.4,2.551-2.55V23.8c0-.6,0-1.6-0.95-1.6H173.1c-0.351,0-.6,0-0.6-0.65,0-.4.351-0.6,1.55-0.85,1.95-.45,2.45-0.55,2.6-2.8,0.5-7.6,2.75-11.8,8.65-13.351a14.95,14.95,0,0,1,3.05-.4c1.3,0,3.15.5,3.15,2.15a2.232,2.232,0,0,1-2.35,2.45A4.468,4.468,0,0,1,186.4,7.6a4.618,4.618,0,0,0-2.2-1.15c-2.851,0-3.351,4.15-3.351,7.25v6.451h6.2c0.351,0,.5.35,0.5,1.05a1.16,1.16,0,0,1-1.35,1.25c-0.351,0-4.2-.25-5.351-0.25V37.35Z"/><path class="a" d="M206.795,17.749c0-3.55-.05-4.75-0.1-7.05-0.05-2.95-.9-3.35-4.5-3.35-0.55,0-.55-0.4-0.55-0.85a0.54,0.54,0,0,1,.45-0.65c0.4,0,4,.2,7.15.2,0.45,0,4.5-.2,7.1-0.2,11.95,0,13.2,7.851,13.2,9.9,0,7.15-4.95,10.8-11.75,10.8a31.178,31.178,0,0,1-6.051-.5c0,7.951.05,9.351,0.1,10.851,0.1,2,.4,3.2,5.551,3.2,1.4,0,1.4.3,1.4,0.85,0,0.45,0,.65-0.4.65-0.35,0-1.75-.1-9.15-0.1-7.351,0-7.551.1-7.9,0.1-0.4,0-.4-0.2-0.4-0.65,0-.55,0-0.85,1.4-0.85,3.95,0,4.25-.85,4.3-2.2,0.1-2.5.15-5.75,0.15-7.9V17.749Zm4.95,5.4c0,1.15.3,1.9,2.851,1.9,5.45,0,9.55-3.15,9.55-8.9,0-5.15-3.3-8.8-8.2-8.8-3.8,0-4.25,0-4.2,4.15V23.149Z"/><path class="a" d="M236.345,25.049c0-1.75-.45-2.75-2.95-3a0.469,0.469,0,0,1-.45-0.6,0.617,0.617,0,0,1,.4-0.7c5.7-1.15,6.4-2.45,7-2.45a0.586,0.586,0,0,1,.2.5c0,0.6-.25,1.85-0.25,4.55,1.65-1.85,4.351-4.351,7-4.351,1.751,0,3.2.95,3.2,2.8a2.464,2.464,0,0,1-2.45,2.5c-2.05,0-2.35-1.9-3.85-1.9a5.613,5.613,0,0,0-3.45,2.15,2.106,2.106,0,0,0-.351,1.45V37.35c0,1.85,0,2.95,2.5,2.95,1.85,0,2.05.05,2.05,0.6,0,0.65-.2.7-0.75,0.7-1.8,0-3.4-.1-5.7-0.1-4,0-4.851.1-5.8,0.1-0.35,0-.45-0.3-0.45-0.65,0-.5.6-0.65,1.551-0.65,2.149,0,2.55-.4,2.55-2.55v-12.7Z"/><path class="a" d="M264.294,42.2a11.188,11.188,0,0,1-11.6-11.6,11.626,11.626,0,0,1,23.252,0C275.945,37.6,271.295,42.2,264.294,42.2Zm0-21.9c-5.2,0-6.85,5.4-6.85,10.3,0,4.25,1,10.3,6.85,10.3,5.9,0,6.9-6.05,6.9-10.3C271.194,25.7,269.545,20.3,264.294,20.3Z"/><path class="a" d="M293.744,39.4c6.851,0,6.8,4.45,6.8,5.951,0,7.55-8.351,9.75-14.451,9.75-3.25,0-6.45-.85-6.45-4.7,0-3.1,2.3-5.351,4.35-7.35a3.274,3.274,0,0,1-3-3.05c0-3,1.6-4.3,3.851-5.851-2.9-1.5-3.9-3.95-3.9-7.1,0-4.7,4.351-8.2,8.851-8.2a10.512,10.512,0,0,1,6.051,1.95,7.263,7.263,0,0,1,4.25-1.5c3.2,0,3.75,1.75,3.75,2.8a1.99,1.99,0,0,1-1.9,1.75c-1.3,0-2.5-2.851-3.4-2.851a3.764,3.764,0,0,0-1.9.65,9.283,9.283,0,0,1,1.9,4.85c0,5.4-3.4,8.6-8.9,8.6a11.475,11.475,0,0,1-3.6-.55,3.777,3.777,0,0,0-2.051,3.2c0,1.45,1.2,1.65,2.351,1.65h7.4Zm-8,3.8c-0.3,0-3.25,2.25-3.25,5,0,0.7.2,4.6,7.2,4.6,5.7,0,8.35-1.75,8.35-5.65,0-3.05-1.85-3.95-5.1-3.95h-7.2Zm8.451-17c0-.75,0-6.05-4.2-6.05-4.65,0-4.7,5.95-4.7,7.7,0,2.95,1,5.95,4.5,5.95C293.895,33.8,294.194,28.349,294.194,26.2Z"/><path class="a" d="M308.594,25.049c0-1.75-.45-2.75-2.95-3a0.469,0.469,0,0,1-.45-0.6,0.617,0.617,0,0,1,.4-0.7c5.7-1.15,6.4-2.45,7-2.45a0.586,0.586,0,0,1,.2.5c0,0.6-.25,1.85-0.25,4.55,1.65-1.85,4.351-4.351,7-4.351,1.75,0,3.2.95,3.2,2.8a2.464,2.464,0,0,1-2.45,2.5c-2.05,0-2.35-1.9-3.85-1.9a5.613,5.613,0,0,0-3.45,2.15,2.106,2.106,0,0,0-.351,1.45V37.35c0,1.85,0,2.95,2.5,2.95,1.85,0,2.05.05,2.05,0.6,0,0.65-.2.7-0.75,0.7-1.8,0-3.4-.1-5.7-0.1-4,0-4.851.1-5.8,0.1-0.35,0-.45-0.3-0.45-0.65,0-.5.6-0.65,1.551-0.65,2.149,0,2.55-.4,2.55-2.55v-12.7Z"/><path class="a" d="M340.644,38.8a0.8,0.8,0,0,0,.851,1c1,0,1.75-1.15,2.149-1.15a0.827,0.827,0,0,1,.65.55c0,0.6-3.25,3-5,3-1.8,0-2.2-1.15-2.751-2.9-2.95,2.3-4.35,2.9-6.45,2.9-3.9,0-4.8-2.85-4.8-4.45,0-2.55,1.5-4.65,11.3-8.3V24.9c0-2.6-3-3.95-4.2-3.95-1.15,0-3.551,1.8-3.551,2.3,0,0.7.65,1.4,0.65,2.5,0,0.55-.45,1.9-2.45,1.9a1.917,1.917,0,0,1-2.1-1.85c0-1.35.351-2,4.1-4.5,3.75-2.45,4.3-2.5,5.4-2.5,1.6,0,6.2,1.2,6.2,5.75V38.8Zm-4.05-7.4a0.458,0.458,0,0,0-.351-0.5,26.006,26.006,0,0,0-4.95,2.45c-1.4,1.05-1.65,1.8-1.65,3.65,0,1.55.65,3.1,2.351,3.1,1.9,0,4.6-1.75,4.6-2.65V31.4Z"/><path class="a" d="M349.892,25.049c0-1.75-.449-2.75-2.949-3a0.469,0.469,0,0,1-.45-0.6,0.616,0.616,0,0,1,.4-0.7c5.7-1.15,6.4-2.45,7-2.45,0.1,0,.149.15,0.149,0.55,0,0.3-.1,1.4-0.1,3.35,1.3-1,6.051-3.2,8.8-3.2a6.1,6.1,0,0,1,5.45,3.25c2.7-1.6,4.65-3.25,7.65-3.25,1.7,0,6.6.25,6.6,6.1V38.4c0,0.85.149,1.8,3.25,1.8,0.5,0,.5.3,0.5,0.65,0,0.3,0,.65-0.7.65-1.5,0-2.4-.1-5.05-0.1-4.051,0-4.851.1-5.251,0.1-0.3,0-.35-0.35-0.35-0.6a0.644,0.644,0,0,1,.7-0.7c2.4,0,2.85-.2,2.85-1.85V25.4c0-.65-0.4-4.1-5.1-4.1-2.2,0-5.1,2.2-5.1,2.75v12.8c0,2.85.1,3.45,2.3,3.45,1.351,0,1.45.05,1.45,0.65,0,0.3,0,.65-0.5.65-0.25,0-.9-0.1-5.25-0.1-4.051,0-4.851.1-5.251,0.1-0.3,0-.35-0.35-0.35-0.6a0.644,0.644,0,0,1,.7-0.7c2.4,0,2.85-.2,2.85-1.95V25.4c0-1.9-.4-4.1-5.1-4.1-2.2,0-5.1,2.2-5.1,2.75v12.8c0,2.85.1,3.45,2.3,3.45,1.351,0,1.45.05,1.45,0.65,0,0.3,0,.65-0.5.65-0.25,0-.9-0.1-4.4-0.1-4.7,0-5.5.1-6.25,0.1-0.4,0-.4-0.3-0.4-0.55,0-.65.05-0.75,1.4-0.75a1.869,1.869,0,0,0,2.05-1.2,50.645,50.645,0,0,0,.3-7.2V25.049Z"/><path class="a" d="M403.643,35.4c0,2.45-1.3,6.8-8.15,6.8-0.9,0-3.8-.4-5.751-0.4a0.322,0.322,0,0,1-.25-0.25c-0.05-.5-1.15-4.9-1.15-5.4,0-.3.7-0.3,0.9-0.3,1.2,0,1.5,5.05,6.3,5.05a4.258,4.258,0,0,0,4.55-4.45c0-5.25-11.2-3.55-11.2-10.651,0-4.1,3.4-6.8,7.6-6.8a40,40,0,0,1,5.4.45,1.42,1.42,0,0,1,.75,1.4c0.1,2.05.55,3.35,0.55,4a0.468,0.468,0,0,1-.55.4,0.879,0.879,0,0,1-1-.7c-0.351-.85-1.65-4.25-5.2-4.25-2.35,0-4,1.35-4,3.75a3.8,3.8,0,0,0,2.351,3.35C400.042,29.9,403.643,29.75,403.643,35.4Z"/><path class="b" d="M20.8,99.2C7.351,99.2,2.3,88.5,2.3,81.8c0-12.051,8.95-19.4,18.5-19.4,10.6,0,18.551,6.35,18.551,19.151C39.353,88.5,34.3,99.2,20.8,99.2Zm0-35.5C9.15,63.7,8.25,76.749,8.25,80.849,8.25,87.75,11.6,97.9,20.8,97.9c11.8,0,12.6-11.15,12.6-17.1C33.4,73.648,30.052,63.7,20.8,63.7Z"/><path class="b" d="M51.25,94.35c0,1.85,0,2.95,2.5,2.95,1.85,0,2.05.05,2.05,0.6,0,0.65-.2.7-0.75,0.7-1.8,0-3.4-.1-5.7-0.1-4,0-4.851.1-5.3,0.1-0.35,0-.45-0.3-0.45-0.65,0-.5.1-0.65,1.05-0.65,2.15,0,2.55-.4,2.55-2.55V80.8c0-.6,0-1.6-0.95-1.6H43.5c-0.35,0-.6,0-0.6-0.65,0-.4.35-0.6,1.55-0.85,1.95-.45,2.45-0.55,2.6-2.8,0.5-7.6,2.75-11.8,8.65-13.351a14.955,14.955,0,0,1,3.05-.4c1.3,0,3.15.5,3.15,2.15a2.233,2.233,0,0,1-2.351,2.45A4.471,4.471,0,0,1,56.8,64.6a4.611,4.611,0,0,0-2.2-1.15c-2.85,0-3.35,4.15-3.35,7.25v6.451h6.2c0.35,0,.5.35,0.5,1.05a1.161,1.161,0,0,1-1.35,1.25c-0.35,0-4.2-.25-5.35-0.25V94.35Z"/><path class="b" d="M67,94.35c0,1.85,0,2.95,2.5,2.95,1.1,0,1.3.05,1.3,0.6,0,0.65-.2.7-0.75,0.7-1.05,0-2.65-.1-4.95-0.1-4,0-4.851.1-5.3,0.1-0.35,0-.45-0.3-0.45-0.65,0-.5.1-0.65,1.05-0.65,2.15,0,2.55-.4,2.55-2.55V80.8c0-.6,0-1.6-0.95-1.6h-2.75c-0.35,0-.6,0-0.6-0.65,0-.4.35-0.6,1.55-0.85,1.95-.45,2.45-0.55,2.6-2.8,0.5-7.35,5.8-13.75,13.851-13.75,1.3,0,4.65.5,4.65,2.7a2.4,2.4,0,0,1-2.6,2.45c-3.55,0-4.3-2.85-6.05-2.85C70.8,63.448,67,64.4,67,74.2v2.95h8.5c2.8,0,5.05-1.85,5.6-1.85,0.2,0,.3.25,0.3,0.55,0,0.2-.25.7-0.25,7.2v10.8c0,2.85.1,3.45,2.3,3.45,1.1,0,1.2.05,1.2,0.65,0,0.3,0,.65-0.5.65-0.25,0-.9-0.1-4.15-0.1-4.7,0-6,.1-6.75.1-0.4,0-.4-0.3-0.4-0.55,0-.65.05-0.75,1.9-0.75a1.87,1.87,0,0,0,2.05-1.2,50.723,50.723,0,0,0,.3-7.2V82.049a2.813,2.813,0,0,0-2.85-3.1H67v15.4Z"/><path class="b" d="M105.8,94.3a2.862,2.862,0,0,1,.85-0.8,1.038,1.038,0,0,1,.75.7,1.1,1.1,0,0,1-.4.75,11.272,11.272,0,0,1-8.75,4.25c-5.8,0-10.351-4.15-10.351-11.3C87.9,80.5,92.8,76,99.25,76c6.85,0,8.15,3.7,8.15,4.75a2.587,2.587,0,0,1-2.65,2.15c-1.6,0-1.8-.5-2.35-3.25-0.15-.75-0.5-2.35-3.1-2.35-3.15,0-7.05,2.4-7.05,10.6,0,2.25.85,8.5,8.5,8.5A9.15,9.15,0,0,0,105.8,94.3Z"/><path class="b" d="M114.5,85a18.288,18.288,0,0,0-.2,2.85c0,3.25,2.751,8.25,8.2,8.25a6.519,6.519,0,0,0,5.85-3,1.841,1.841,0,0,1,.751-0.85,1.055,1.055,0,0,1,.8.6c0,0.15-2,6.351-8.6,6.351-7.15,0-10.9-4.4-10.9-11.4,0-7.15,4.85-12,10-12,8.3,0,8.951,7.15,8.951,8.65,0,0.5-.2.55-0.6,0.55H114.5Zm8.6-1.5a1.433,1.433,0,0,0,1.7-1.65c0-3.9-2.7-4.75-4.4-4.75-3.6,0-5.1,3-5.6,6.4h8.3Z"/><path class="b" d="M157.8,99.2a11.188,11.188,0,0,1-11.6-11.6,11.626,11.626,0,0,1,23.252,0C169.448,94.6,164.8,99.2,157.8,99.2Zm0-21.9c-5.2,0-6.85,5.4-6.85,10.3,0,4.25,1,10.3,6.85,10.3,5.9,0,6.9-6.05,6.9-10.3C164.7,82.7,163.048,77.3,157.8,77.3Z"/><path class="b" d="M180.847,94.35c0,1.85,0,2.95,2.5,2.95,1.851,0,2.05.05,2.05,0.6,0,0.65-.2.7-0.75,0.7-1.8,0-3.4-.1-5.7-0.1-4,0-4.85.1-5.3,0.1-0.351,0-.45-0.3-0.45-0.65,0-.5.1-0.65,1.05-0.65,2.15,0,2.551-.4,2.551-2.55V80.8c0-.6,0-1.6-0.95-1.6H173.1c-0.351,0-.6,0-0.6-0.65,0-.4.351-0.6,1.55-0.85,1.95-.45,2.45-0.55,2.6-2.8,0.5-7.6,2.75-11.8,8.65-13.351a14.95,14.95,0,0,1,3.05-.4c1.3,0,3.15.5,3.15,2.15a2.232,2.232,0,0,1-2.35,2.45,4.468,4.468,0,0,1-2.75-1.15,4.618,4.618,0,0,0-2.2-1.15c-2.851,0-3.351,4.15-3.351,7.25v6.451h6.2c0.351,0,.5.35,0.5,1.05a1.16,1.16,0,0,1-1.35,1.25c-0.351,0-4.2-.25-5.351-0.25V94.35Z"/><path class="b" d="M206.795,74.749c0-3.55-.05-4.75-0.1-7.05-0.05-2.95-.9-3.35-4.5-3.35-0.55,0-.55-0.4-0.55-0.85a0.54,0.54,0,0,1,.45-0.65c0.4,0,4,.2,7.15.2,0.45,0,4.5-.2,7.1-0.2,11.95,0,13.2,7.851,13.2,9.9,0,7.15-4.95,10.8-11.75,10.8a31.178,31.178,0,0,1-6.051-.5c0,7.951.05,9.351,0.1,10.851,0.1,2,.4,3.2,5.551,3.2,1.4,0,1.4.3,1.4,0.85,0,0.45,0,.65-0.4.65-0.35,0-1.75-.1-9.15-0.1-7.351,0-7.551.1-7.9,0.1-0.4,0-.4-0.2-0.4-0.65,0-.55,0-0.85,1.4-0.85,3.95,0,4.25-.85,4.3-2.2,0.1-2.5.15-5.75,0.15-7.9V74.749Zm4.95,5.4c0,1.15.3,1.9,2.851,1.9,5.45,0,9.55-3.15,9.55-8.9,0-5.15-3.3-8.8-8.2-8.8-3.8,0-4.25,0-4.2,4.15V80.149Z"/><path class="b" d="M236.345,82.049c0-1.75-.45-2.75-2.95-3a0.469,0.469,0,0,1-.45-0.6,0.617,0.617,0,0,1,.4-0.7c5.7-1.15,6.4-2.45,7-2.45a0.586,0.586,0,0,1,.2.5c0,0.6-.25,1.85-0.25,4.55,1.65-1.85,4.351-4.351,7-4.351,1.751,0,3.2.95,3.2,2.8a2.464,2.464,0,0,1-2.45,2.5c-2.05,0-2.35-1.9-3.85-1.9a5.613,5.613,0,0,0-3.45,2.15,2.106,2.106,0,0,0-.351,1.45V94.35c0,1.85,0,2.95,2.5,2.95,1.85,0,2.05.05,2.05,0.6,0,0.65-.2.7-0.75,0.7-1.8,0-3.4-.1-5.7-0.1-4,0-4.851.1-5.8,0.1-0.35,0-.45-0.3-0.45-0.65,0-.5.6-0.65,1.551-0.65,2.149,0,2.55-.4,2.55-2.55v-12.7Z"/><path class="b" d="M264.294,99.2a11.188,11.188,0,0,1-11.6-11.6,11.626,11.626,0,0,1,23.252,0C275.945,94.6,271.295,99.2,264.294,99.2Zm0-21.9c-5.2,0-6.85,5.4-6.85,10.3,0,4.25,1,10.3,6.85,10.3,5.9,0,6.9-6.05,6.9-10.3C271.194,82.7,269.545,77.3,264.294,77.3Z"/><path class="b" d="M293.744,96.4c6.851,0,6.8,4.45,6.8,5.951,0,7.55-8.351,9.75-14.451,9.75-3.25,0-6.45-.85-6.45-4.7,0-3.1,2.3-5.351,4.35-7.35a3.274,3.274,0,0,1-3-3.05c0-3,1.6-4.3,3.851-5.851-2.9-1.5-3.9-3.95-3.9-7.1,0-4.7,4.351-8.2,8.851-8.2a10.512,10.512,0,0,1,6.051,1.95,7.263,7.263,0,0,1,4.25-1.5c3.2,0,3.75,1.75,3.75,2.8a1.99,1.99,0,0,1-1.9,1.75c-1.3,0-2.5-2.851-3.4-2.851a3.764,3.764,0,0,0-1.9.65,9.283,9.283,0,0,1,1.9,4.85c0,5.4-3.4,8.6-8.9,8.6a11.475,11.475,0,0,1-3.6-.55,3.777,3.777,0,0,0-2.051,3.2c0,1.45,1.2,1.65,2.351,1.65h7.4Zm-8,3.8c-0.3,0-3.25,2.25-3.25,5,0,0.7.2,4.6,7.2,4.6,5.7,0,8.35-1.75,8.35-5.65,0-3.05-1.85-3.95-5.1-3.95h-7.2Zm8.451-17c0-.75,0-6.05-4.2-6.05-4.65,0-4.7,5.95-4.7,7.7,0,2.95,1,5.95,4.5,5.95C293.895,90.8,294.194,85.349,294.194,83.2Z"/><path class="b" d="M308.594,82.049c0-1.75-.45-2.75-2.95-3a0.469,0.469,0,0,1-.45-0.6,0.617,0.617,0,0,1,.4-0.7c5.7-1.15,6.4-2.45,7-2.45a0.586,0.586,0,0,1,.2.5c0,0.6-.25,1.85-0.25,4.55,1.65-1.85,4.351-4.351,7-4.351,1.75,0,3.2.95,3.2,2.8a2.464,2.464,0,0,1-2.45,2.5c-2.05,0-2.35-1.9-3.85-1.9a5.613,5.613,0,0,0-3.45,2.15,2.106,2.106,0,0,0-.351,1.45V94.35c0,1.85,0,2.95,2.5,2.95,1.85,0,2.05.05,2.05,0.6,0,0.65-.2.7-0.75,0.7-1.8,0-3.4-.1-5.7-0.1-4,0-4.851.1-5.8,0.1-0.35,0-.45-0.3-0.45-0.65,0-.5.6-0.65,1.551-0.65,2.149,0,2.55-.4,2.55-2.55v-12.7Z"/><path class="b" d="M340.644,95.8a0.8,0.8,0,0,0,.851,1c1,0,1.75-1.15,2.149-1.15a0.827,0.827,0,0,1,.65.55c0,0.6-3.25,3-5,3-1.8,0-2.2-1.15-2.751-2.9-2.95,2.3-4.35,2.9-6.45,2.9-3.9,0-4.8-2.85-4.8-4.45,0-2.55,1.5-4.65,11.3-8.3V81.9c0-2.6-3-3.95-4.2-3.95-1.15,0-3.551,1.8-3.551,2.3,0,0.7.65,1.4,0.65,2.5,0,0.55-.45,1.9-2.45,1.9a1.917,1.917,0,0,1-2.1-1.85c0-1.35.351-2,4.1-4.5,3.75-2.45,4.3-2.5,5.4-2.5,1.6,0,6.2,1.2,6.2,5.75V95.8Zm-4.05-7.4a0.458,0.458,0,0,0-.351-0.5,26.006,26.006,0,0,0-4.95,2.45c-1.4,1.05-1.65,1.8-1.65,3.65,0,1.55.65,3.1,2.351,3.1,1.9,0,4.6-1.75,4.6-2.65V88.4Z"/><path class="b" d="M349.892,82.049c0-1.75-.449-2.75-2.949-3a0.469,0.469,0,0,1-.45-0.6,0.616,0.616,0,0,1,.4-0.7c5.7-1.15,6.4-2.45,7-2.45,0.1,0,.149.15,0.149,0.55,0,0.3-.1,1.4-0.1,3.35,1.3-1,6.051-3.2,8.8-3.2a6.1,6.1,0,0,1,5.45,3.25c2.7-1.6,4.65-3.25,7.65-3.25,1.7,0,6.6.25,6.6,6.1V95.4c0,0.85.149,1.8,3.25,1.8,0.5,0,.5.3,0.5,0.65,0,0.3,0,.65-0.7.65-1.5,0-2.4-.1-5.05-0.1-4.051,0-4.851.1-5.251,0.1-0.3,0-.35-0.35-0.35-0.6a0.644,0.644,0,0,1,.7-0.7c2.4,0,2.85-.2,2.85-1.85V82.4c0-.65-0.4-4.1-5.1-4.1-2.2,0-5.1,2.2-5.1,2.75v12.8c0,2.85.1,3.45,2.3,3.45,1.351,0,1.45.05,1.45,0.65,0,0.3,0,.65-0.5.65-0.25,0-.9-0.1-5.25-0.1-4.051,0-4.851.1-5.251,0.1-0.3,0-.35-0.35-0.35-0.6a0.644,0.644,0,0,1,.7-0.7c2.4,0,2.85-.2,2.85-1.95V82.4c0-1.9-.4-4.1-5.1-4.1-2.2,0-5.1,2.2-5.1,2.75v12.8c0,2.85.1,3.45,2.3,3.45,1.351,0,1.45.05,1.45,0.65,0,0.3,0,.65-0.5.65-0.25,0-.9-0.1-4.4-0.1-4.7,0-5.5.1-6.25,0.1-0.4,0-.4-0.3-0.4-0.55,0-.65.05-0.75,1.4-0.75a1.869,1.869,0,0,0,2.05-1.2,50.645,50.645,0,0,0,.3-7.2V82.049Z"/><path class="b" d="M403.643,92.4c0,2.45-1.3,6.8-8.15,6.8-0.9,0-3.8-.4-5.751-0.4a0.322,0.322,0,0,1-.25-0.25c-0.05-.5-1.15-4.9-1.15-5.4,0-.3.7-0.3,0.9-0.3,1.2,0,1.5,5.05,6.3,5.05a4.258,4.258,0,0,0,4.55-4.45c0-5.25-11.2-3.55-11.2-10.651,0-4.1,3.4-6.8,7.6-6.8a40,40,0,0,1,5.4.45,1.42,1.42,0,0,1,.75,1.4c0.1,2.05.55,3.35,0.55,4a0.468,0.468,0,0,1-.55.4,0.879,0.879,0,0,1-1-.7c-0.351-.85-1.65-4.25-5.2-4.25-2.35,0-4,1.35-4,3.75a3.8,3.8,0,0,0,2.351,3.35C400.042,86.9,403.643,86.75,403.643,92.4Z"/><path d="M20.8,156.2c-13.451,0-18.5-10.7-18.5-17.4,0-12.051,8.95-19.4,18.5-19.4,10.6,0,18.551,6.35,18.551,19.151C39.353,145.5,34.3,156.2,20.8,156.2Zm0-35.5C9.15,120.7,8.25,133.748,8.25,137.849c0,6.9,3.35,17.051,12.551,17.051,11.8,0,12.6-11.15,12.6-17.1C33.4,130.648,30.052,120.7,20.8,120.7Z"/><path d="M51.25,151.349c0,1.85,0,2.95,2.5,2.95,1.85,0,2.05.05,2.05,0.6,0,0.65-.2.7-0.75,0.7-1.8,0-3.4-.1-5.7-0.1-4,0-4.851.1-5.3,0.1-0.35,0-.45-0.3-0.45-0.65,0-.5.1-0.65,1.05-0.65,2.15,0,2.55-.4,2.55-2.55V137.8c0-.6,0-1.6-0.95-1.6H43.5c-0.35,0-.6,0-0.6-0.65,0-.4.35-0.6,1.55-0.85,1.95-.45,2.45-0.55,2.6-2.8,0.5-7.6,2.75-11.8,8.65-13.351a14.955,14.955,0,0,1,3.05-.4c1.3,0,3.15.5,3.15,2.15a2.233,2.233,0,0,1-2.351,2.45,4.471,4.471,0,0,1-2.75-1.15,4.611,4.611,0,0,0-2.2-1.15c-2.85,0-3.35,4.15-3.35,7.25v6.451h6.2c0.35,0,.5.35,0.5,1.05a1.161,1.161,0,0,1-1.35,1.25c-0.35,0-4.2-.25-5.35-0.25v15.151Z"/><path d="M67,151.349c0,1.85,0,2.95,2.5,2.95,1.1,0,1.3.05,1.3,0.6,0,0.65-.2.7-0.75,0.7-1.05,0-2.65-.1-4.95-0.1-4,0-4.851.1-5.3,0.1-0.35,0-.45-0.3-0.45-0.65,0-.5.1-0.65,1.05-0.65,2.15,0,2.55-.4,2.55-2.55V137.8c0-.6,0-1.6-0.95-1.6h-2.75c-0.35,0-.6,0-0.6-0.65,0-.4.35-0.6,1.55-0.85,1.95-.45,2.45-0.55,2.6-2.8,0.5-7.35,5.8-13.75,13.851-13.75,1.3,0,4.65.5,4.65,2.7a2.4,2.4,0,0,1-2.6,2.45c-3.55,0-4.3-2.85-6.05-2.85-1.85,0-5.65.95-5.65,10.751v2.95h8.5c2.8,0,5.05-1.85,5.6-1.85,0.2,0,.3.25,0.3,0.55,0,0.2-.25.7-0.25,7.2v10.8c0,2.85.1,3.45,2.3,3.45,1.1,0,1.2.05,1.2,0.65,0,0.3,0,.65-0.5.65-0.25,0-.9-0.1-4.15-0.1-4.7,0-6,.1-6.75.1-0.4,0-.4-0.3-0.4-0.55,0-.65.05-0.75,1.9-0.75a1.87,1.87,0,0,0,2.05-1.2,50.723,50.723,0,0,0,.3-7.2v-6.851a2.813,2.813,0,0,0-2.85-3.1H67v15.4Z"/><path d="M105.8,151.3a2.862,2.862,0,0,1,.85-0.8,1.038,1.038,0,0,1,.75.7,1.1,1.1,0,0,1-.4.75,11.272,11.272,0,0,1-8.75,4.25c-5.8,0-10.351-4.15-10.351-11.3,0-7.4,4.9-11.9,11.351-11.9,6.85,0,8.15,3.7,8.15,4.75a2.587,2.587,0,0,1-2.65,2.15c-1.6,0-1.8-.5-2.35-3.25-0.15-.75-0.5-2.35-3.1-2.35-3.15,0-7.05,2.4-7.05,10.6,0,2.25.85,8.5,8.5,8.5A9.15,9.15,0,0,0,105.8,151.3Z"/><path d="M114.5,142a18.288,18.288,0,0,0-.2,2.85c0,3.25,2.751,8.25,8.2,8.25a6.519,6.519,0,0,0,5.85-3,1.841,1.841,0,0,1,.751-0.85,1.055,1.055,0,0,1,.8.6c0,0.15-2,6.351-8.6,6.351-7.15,0-10.9-4.4-10.9-11.4,0-7.15,4.85-12,10-12,8.3,0,8.951,7.15,8.951,8.65,0,0.5-.2.55-0.6,0.55H114.5Zm8.6-1.5a1.433,1.433,0,0,0,1.7-1.65c0-3.9-2.7-4.75-4.4-4.75-3.6,0-5.1,3-5.6,6.4h8.3Z"/><path d="M157.8,156.2a11.188,11.188,0,0,1-11.6-11.6,11.626,11.626,0,0,1,23.252,0C169.448,151.6,164.8,156.2,157.8,156.2Zm0-21.9c-5.2,0-6.85,5.4-6.85,10.3,0,4.25,1,10.3,6.85,10.3,5.9,0,6.9-6.05,6.9-10.3C164.7,139.7,163.048,134.3,157.8,134.3Z"/><path d="M180.847,151.349c0,1.85,0,2.95,2.5,2.95,1.851,0,2.05.05,2.05,0.6,0,0.65-.2.7-0.75,0.7-1.8,0-3.4-.1-5.7-0.1-4,0-4.85.1-5.3,0.1-0.351,0-.45-0.3-0.45-0.65,0-.5.1-0.65,1.05-0.65,2.15,0,2.551-.4,2.551-2.55V137.8c0-.6,0-1.6-0.95-1.6H173.1c-0.351,0-.6,0-0.6-0.65,0-.4.351-0.6,1.55-0.85,1.95-.45,2.45-0.55,2.6-2.8,0.5-7.6,2.75-11.8,8.65-13.351a14.95,14.95,0,0,1,3.05-.4c1.3,0,3.15.5,3.15,2.15a2.232,2.232,0,0,1-2.35,2.45,4.468,4.468,0,0,1-2.75-1.15,4.618,4.618,0,0,0-2.2-1.15c-2.851,0-3.351,4.15-3.351,7.25v6.451h6.2c0.351,0,.5.35,0.5,1.05a1.16,1.16,0,0,1-1.35,1.25c-0.351,0-4.2-.25-5.351-0.25v15.151Z"/><path d="M206.795,131.748c0-3.55-.05-4.75-0.1-7.05-0.05-2.95-.9-3.35-4.5-3.35-0.55,0-.55-0.4-0.55-0.85a0.54,0.54,0,0,1,.45-0.65c0.4,0,4,.2,7.15.2,0.45,0,4.5-.2,7.1-0.2,11.95,0,13.2,7.851,13.2,9.9,0,7.15-4.95,10.8-11.75,10.8a31.178,31.178,0,0,1-6.051-.5c0,7.951.05,9.351,0.1,10.851,0.1,2,.4,3.2,5.551,3.2,1.4,0,1.4.3,1.4,0.85,0,0.45,0,.65-0.4.65-0.35,0-1.75-.1-9.15-0.1-7.351,0-7.551.1-7.9,0.1-0.4,0-.4-0.2-0.4-0.65,0-.55,0-0.85,1.4-0.85,3.95,0,4.25-.85,4.3-2.2,0.1-2.5.15-5.75,0.15-7.9V131.748Zm4.95,5.4c0,1.15.3,1.9,2.851,1.9,5.45,0,9.55-3.15,9.55-8.9,0-5.15-3.3-8.8-8.2-8.8-3.8,0-4.25,0-4.2,4.15v11.651Z"/><path d="M236.345,139.048c0-1.75-.45-2.75-2.95-3a0.469,0.469,0,0,1-.45-0.6,0.617,0.617,0,0,1,.4-0.7c5.7-1.15,6.4-2.45,7-2.45a0.586,0.586,0,0,1,.2.5c0,0.6-.25,1.85-0.25,4.55,1.65-1.85,4.351-4.351,7-4.351,1.751,0,3.2.95,3.2,2.8a2.464,2.464,0,0,1-2.45,2.5c-2.05,0-2.35-1.9-3.85-1.9a5.613,5.613,0,0,0-3.45,2.15,2.106,2.106,0,0,0-.351,1.45v11.351c0,1.85,0,2.95,2.5,2.95,1.85,0,2.05.05,2.05,0.6,0,0.65-.2.7-0.75,0.7-1.8,0-3.4-.1-5.7-0.1-4,0-4.851.1-5.8,0.1-0.35,0-.45-0.3-0.45-0.65,0-.5.6-0.65,1.551-0.65,2.149,0,2.55-.4,2.55-2.55v-12.7Z"/><path d="M264.294,156.2a11.188,11.188,0,0,1-11.6-11.6,11.626,11.626,0,0,1,23.252,0C275.945,151.6,271.295,156.2,264.294,156.2Zm0-21.9c-5.2,0-6.85,5.4-6.85,10.3,0,4.25,1,10.3,6.85,10.3,5.9,0,6.9-6.05,6.9-10.3C271.194,139.7,269.545,134.3,264.294,134.3Z"/><path d="M293.744,153.4c6.851,0,6.8,4.45,6.8,5.951,0,7.55-8.351,9.75-14.451,9.75-3.25,0-6.45-.85-6.45-4.7,0-3.1,2.3-5.351,4.35-7.35a3.274,3.274,0,0,1-3-3.05c0-3,1.6-4.3,3.851-5.851-2.9-1.5-3.9-3.95-3.9-7.1,0-4.7,4.351-8.2,8.851-8.2a10.512,10.512,0,0,1,6.051,1.95,7.263,7.263,0,0,1,4.25-1.5c3.2,0,3.75,1.75,3.75,2.8a1.99,1.99,0,0,1-1.9,1.75c-1.3,0-2.5-2.851-3.4-2.851a3.764,3.764,0,0,0-1.9.65,9.283,9.283,0,0,1,1.9,4.85c0,5.4-3.4,8.6-8.9,8.6a11.475,11.475,0,0,1-3.6-.55,3.777,3.777,0,0,0-2.051,3.2c0,1.45,1.2,1.65,2.351,1.65h7.4Zm-8,3.8c-0.3,0-3.25,2.25-3.25,5,0,0.7.2,4.6,7.2,4.6,5.7,0,8.35-1.75,8.35-5.65,0-3.05-1.85-3.95-5.1-3.95h-7.2Zm8.451-17c0-.75,0-6.05-4.2-6.05-4.65,0-4.7,5.95-4.7,7.7,0,2.95,1,5.95,4.5,5.95C293.895,147.8,294.194,142.349,294.194,140.2Z"/><path d="M308.594,139.048c0-1.75-.45-2.75-2.95-3a0.469,0.469,0,0,1-.45-0.6,0.617,0.617,0,0,1,.4-0.7c5.7-1.15,6.4-2.45,7-2.45a0.586,0.586,0,0,1,.2.5c0,0.6-.25,1.85-0.25,4.55,1.65-1.85,4.351-4.351,7-4.351,1.75,0,3.2.95,3.2,2.8a2.464,2.464,0,0,1-2.45,2.5c-2.05,0-2.35-1.9-3.85-1.9a5.613,5.613,0,0,0-3.45,2.15,2.106,2.106,0,0,0-.351,1.45v11.351c0,1.85,0,2.95,2.5,2.95,1.85,0,2.05.05,2.05,0.6,0,0.65-.2.7-0.75,0.7-1.8,0-3.4-.1-5.7-0.1-4,0-4.851.1-5.8,0.1-0.35,0-.45-0.3-0.45-0.65,0-.5.6-0.65,1.551-0.65,2.149,0,2.55-.4,2.55-2.55v-12.7Z"/><path d="M340.644,152.8a0.8,0.8,0,0,0,.851,1c1,0,1.75-1.15,2.149-1.15a0.827,0.827,0,0,1,.65.55c0,0.6-3.25,3-5,3-1.8,0-2.2-1.15-2.751-2.9-2.95,2.3-4.35,2.9-6.45,2.9-3.9,0-4.8-2.85-4.8-4.45,0-2.55,1.5-4.65,11.3-8.3V138.9c0-2.6-3-3.95-4.2-3.95-1.15,0-3.551,1.8-3.551,2.3,0,0.7.65,1.4,0.65,2.5,0,0.55-.45,1.9-2.45,1.9a1.917,1.917,0,0,1-2.1-1.85c0-1.35.351-2,4.1-4.5,3.75-2.45,4.3-2.5,5.4-2.5,1.6,0,6.2,1.2,6.2,5.75V152.8Zm-4.05-7.4a0.458,0.458,0,0,0-.351-0.5,26.006,26.006,0,0,0-4.95,2.45c-1.4,1.05-1.65,1.8-1.65,3.65,0,1.55.65,3.1,2.351,3.1,1.9,0,4.6-1.75,4.6-2.65V145.4Z"/><path d="M349.892,139.048c0-1.75-.449-2.75-2.949-3a0.469,0.469,0,0,1-.45-0.6,0.616,0.616,0,0,1,.4-0.7c5.7-1.15,6.4-2.45,7-2.45,0.1,0,.149.15,0.149,0.55,0,0.3-.1,1.4-0.1,3.35,1.3-1,6.051-3.2,8.8-3.2a6.1,6.1,0,0,1,5.45,3.25c2.7-1.6,4.65-3.25,7.65-3.25,1.7,0,6.6.25,6.6,6.1v13.3c0,0.85.149,1.8,3.25,1.8,0.5,0,.5.3,0.5,0.65,0,0.3,0,.65-0.7.65-1.5,0-2.4-.1-5.05-0.1-4.051,0-4.851.1-5.251,0.1-0.3,0-.35-0.35-0.35-0.6a0.644,0.644,0,0,1,.7-0.7c2.4,0,2.85-.2,2.85-1.85V139.4c0-.65-0.4-4.1-5.1-4.1-2.2,0-5.1,2.2-5.1,2.75v12.8c0,2.85.1,3.45,2.3,3.45,1.351,0,1.45.05,1.45,0.65,0,0.3,0,.65-0.5.65-0.25,0-.9-0.1-5.25-0.1-4.051,0-4.851.1-5.251,0.1-0.3,0-.35-0.35-0.35-0.6a0.644,0.644,0,0,1,.7-0.7c2.4,0,2.85-.2,2.85-1.95V139.4c0-1.9-.4-4.1-5.1-4.1-2.2,0-5.1,2.2-5.1,2.75v12.8c0,2.85.1,3.45,2.3,3.45,1.351,0,1.45.05,1.45,0.65,0,0.3,0,.65-0.5.65-0.25,0-.9-0.1-4.4-0.1-4.7,0-5.5.1-6.25,0.1-0.4,0-.4-0.3-0.4-0.55,0-.65.05-0.75,1.4-0.75a1.869,1.869,0,0,0,2.05-1.2,50.645,50.645,0,0,0,.3-7.2v-6.851Z"/><path d="M403.643,149.4c0,2.45-1.3,6.8-8.15,6.8-0.9,0-3.8-.4-5.751-0.4a0.322,0.322,0,0,1-.25-0.25c-0.05-.5-1.15-4.9-1.15-5.4,0-.3.7-0.3,0.9-0.3,1.2,0,1.5,5.05,6.3,5.05a4.258,4.258,0,0,0,4.55-4.45c0-5.25-11.2-3.55-11.2-10.651,0-4.1,3.4-6.8,7.6-6.8a40,40,0,0,1,5.4.45,1.42,1.42,0,0,1,.75,1.4c0.1,2.05.55,3.35,0.55,4a0.468,0.468,0,0,1-.55.4,0.879,0.879,0,0,1-1-.7c-0.351-.85-1.65-4.25-5.2-4.25-2.35,0-4,1.35-4,3.75a3.8,3.8,0,0,0,2.351,3.35C400.042,143.9,403.643,143.749,403.643,149.4Z"/></svg>