<svg xmlns="http://www.w3.org/2000/svg" width="194" height="81" viewBox="0 0 194 81"><defs><style>.a{fill:#fff;}.b{fill:#f1b82d;}</style></defs><title>unit-name-white</title><path class="a" d="M8.967,20.221A8.453,8.453,0,0,1,.1,11.885a8.887,8.887,0,0,1,8.864-9.3c5.079,0,8.888,3.043,8.888,9.176A8.481,8.481,0,0,1,8.967,20.221Zm0-17.009c-5.582,0-6.013,6.253-6.013,8.217,0,3.307,1.6,8.17,6.013,8.17C14.621,19.6,15,14.256,15,11.405,15,7.979,13.4,3.212,8.967,3.212Z"/><path class="a" d="M23.558,17.9c0,0.887,0,1.413,1.2,1.413,0.886,0,.982.024,0.982,0.288,0,0.312-.1.335-0.359,0.335-0.862,0-1.629-.048-2.731-0.048-1.917,0-2.324.048-2.54,0.048-0.167,0-.216-0.144-0.216-0.312,0-.239.048-0.312,0.5-0.312,1.03,0,1.222-.191,1.222-1.222V11.405c0-.287,0-0.767-0.455-0.767H19.845c-0.167,0-.287,0-0.287-0.312,0-.191.167-0.287,0.742-0.407,0.935-.216,1.174-0.264,1.246-1.342,0.239-3.642,1.317-5.653,4.145-6.4a7.174,7.174,0,0,1,1.461-.191,1.3,1.3,0,0,1,1.509,1.03,1.07,1.07,0,0,1-1.126,1.174,2.145,2.145,0,0,1-1.317-.551,2.2,2.2,0,0,0-1.054-.551c-1.365,0-1.6,1.988-1.6,3.474v3.09h2.971c0.167,0,.239.168,0.239,0.5a0.556,0.556,0,0,1-.646.6c-0.168,0-2.013-.12-2.563-0.12V17.9Z"/><path class="a" d="M31.1,17.9c0,0.887,0,1.413,1.2,1.413,0.527,0,.623.024,0.623,0.288,0,0.312-.1.335-0.359,0.335-0.5,0-1.27-.048-2.372-0.048-1.917,0-2.324.048-2.54,0.048-0.167,0-.216-0.144-0.216-0.312,0-.239.048-0.312,0.5-0.312,1.03,0,1.222-.191,1.222-1.222V11.405c0-.287,0-0.767-0.455-0.767H27.391c-0.167,0-.287,0-0.287-0.312,0-.191.167-0.287,0.743-0.407,0.934-.216,1.174-0.264,1.246-1.342,0.239-3.521,2.779-6.588,6.636-6.588,0.623,0,2.228.239,2.228,1.294A1.149,1.149,0,0,1,36.71,4.458c-1.7,0-2.061-1.365-2.9-1.365-0.886,0-2.707.455-2.707,5.15V9.656h4.073a7.37,7.37,0,0,0,2.683-.886c0.1,0,.144.119,0.144,0.263a21.716,21.716,0,0,0-.12,3.45v5.175c0,1.365.048,1.652,1.1,1.652,0.527,0,.575.024,0.575,0.312,0,0.144,0,.312-0.24.312-0.12,0-.431-0.048-1.988-0.048-2.252,0-2.875.048-3.234,0.048-0.192,0-.192-0.144-0.192-0.264,0-.312.024-0.359,0.911-0.359a0.9,0.9,0,0,0,.982-0.575,24.26,24.26,0,0,0,.144-3.449V12a1.348,1.348,0,0,0-1.366-1.485H31.1V17.9Z"/><path class="a" d="M49.7,17.873A1.373,1.373,0,0,1,50.1,17.49a0.5,0.5,0,0,1,.359.335,0.529,0.529,0,0,1-.192.359,5.4,5.4,0,0,1-4.192,2.036c-2.779,0-4.959-1.988-4.959-5.414,0-3.545,2.348-5.7,5.438-5.7,3.282,0,3.905,1.772,3.905,2.275a1.239,1.239,0,0,1-1.27,1.03c-0.767,0-.862-0.239-1.126-1.557a1.281,1.281,0,0,0-1.485-1.126c-1.509,0-3.378,1.149-3.378,5.078a3.8,3.8,0,0,0,4.072,4.073A4.385,4.385,0,0,0,49.7,17.873Z"/><path class="a" d="M53.865,13.418a8.733,8.733,0,0,0-.1,1.365A4.038,4.038,0,0,0,57.7,18.735,3.124,3.124,0,0,0,60.5,17.3a0.878,0.878,0,0,1,.359-0.407,0.5,0.5,0,0,1,.383.287,4.375,4.375,0,0,1-4.121,3.042c-3.426,0-5.222-2.107-5.222-5.462,0-3.426,2.324-5.749,4.791-5.749a4.009,4.009,0,0,1,4.288,4.145c0,0.239-.1.264-0.287,0.264H53.865Zm4.12-.719a0.687,0.687,0,0,0,.815-0.791,2.024,2.024,0,0,0-2.108-2.275c-1.725,0-2.443,1.437-2.683,3.066h3.977Z"/><path class="a" d="M74.613,20.221a5.36,5.36,0,0,1-5.558-5.558,5.57,5.57,0,0,1,11.14,0A5.249,5.249,0,0,1,74.613,20.221Zm0-10.492c-2.492,0-3.282,2.587-3.282,4.935,0,2.036.479,4.936,3.282,4.936,2.827,0,3.306-2.9,3.306-4.936C77.918,12.315,77.128,9.729,74.613,9.729Z"/><path class="a" d="M85.657,17.9c0,0.887,0,1.413,1.2,1.413,0.886,0,.982.024,0.982,0.288,0,0.312-.1.335-0.359,0.335-0.863,0-1.629-.048-2.731-0.048-1.917,0-2.324.048-2.54,0.048-0.167,0-.216-0.144-0.216-0.312,0-.239.048-0.312,0.5-0.312,1.03,0,1.222-.191,1.222-1.222V11.405c0-.287,0-0.767-0.455-0.767H81.944c-0.167,0-.287,0-0.287-0.312,0-.191.167-0.287,0.743-0.407,0.934-.216,1.174-0.264,1.246-1.342,0.239-3.642,1.317-5.653,4.145-6.4A7.174,7.174,0,0,1,89.25,1.99a1.3,1.3,0,0,1,1.509,1.03,1.07,1.07,0,0,1-1.126,1.174,2.145,2.145,0,0,1-1.317-.551,2.2,2.2,0,0,0-1.054-.551c-1.365,0-1.6,1.988-1.6,3.474v3.09h2.971c0.167,0,.239.168,0.239,0.5a0.556,0.556,0,0,1-.646.6c-0.168,0-2.013-.12-2.563-0.12V17.9Z"/><path class="a" d="M98.092,8.507c0-1.7-.024-2.276-0.048-3.378-0.024-1.414-.431-1.605-2.156-1.605-0.264,0-.264-0.191-0.264-0.407A0.259,0.259,0,0,1,95.84,2.8c0.191,0,1.917.1,3.426,0.1,0.215,0,2.156-.1,3.4-0.1,5.726,0,6.325,3.762,6.325,4.743,0,3.426-2.372,5.175-5.63,5.175a14.975,14.975,0,0,1-2.9-.239c0,3.809.024,4.479,0.048,5.2,0.048,0.958.192,1.533,2.659,1.533,0.671,0,.671.144,0.671,0.407,0,0.216,0,.312-0.191.312-0.168,0-.839-0.048-4.384-0.048-3.522,0-3.618.048-3.785,0.048-0.192,0-.192-0.1-0.192-0.312,0-.264,0-0.407.671-0.407,1.893,0,2.036-.407,2.06-1.054,0.048-1.2.072-2.755,0.072-3.785V8.507Zm2.371,2.587c0,0.551.145,0.91,1.366,0.91C104.44,12,106.4,10.5,106.4,7.74a3.893,3.893,0,0,0-3.929-4.217c-1.82,0-2.036,0-2.013,1.988v5.582Z"/><path class="a" d="M112.251,12c0-.838-0.216-1.317-1.413-1.437a0.224,0.224,0,0,1-.216-0.287,0.3,0.3,0,0,1,.191-0.335,10.747,10.747,0,0,0,3.354-1.174,0.281,0.281,0,0,1,.1.239c0,0.287-.12.886-0.12,2.18,0.791-.886,2.084-2.084,3.354-2.084a1.363,1.363,0,0,1,1.533,1.342,1.18,1.18,0,0,1-1.174,1.2c-0.981,0-1.126-.91-1.845-0.91a2.688,2.688,0,0,0-1.652,1.03,1.007,1.007,0,0,0-.168.694V17.9c0,0.887,0,1.413,1.2,1.413,0.886,0,.981.024,0.981,0.288,0,0.312-.1.335-0.359,0.335-0.862,0-1.629-.048-2.73-0.048-1.917,0-2.324.048-2.779,0.048-0.167,0-.215-0.144-0.215-0.312,0-.239.287-0.312,0.742-0.312,1.03,0,1.222-.191,1.222-1.222V12Z"/><path class="a" d="M125.643,20.221a5.36,5.36,0,0,1-5.558-5.558,5.57,5.57,0,0,1,11.14,0A5.249,5.249,0,0,1,125.643,20.221Zm0-10.492c-2.491,0-3.281,2.587-3.281,4.935,0,2.036.479,4.936,3.281,4.936,2.827,0,3.307-2.9,3.307-4.936C128.949,12.315,128.158,9.729,125.643,9.729Z"/><path class="a" d="M139.755,18.88c3.282,0,3.258,2.132,3.258,2.851,0,3.617-4,4.671-6.923,4.671-1.558,0-3.091-.407-3.091-2.251,0-1.485,1.1-2.563,2.084-3.522a1.567,1.567,0,0,1-1.437-1.461c0-1.437.767-2.061,1.844-2.8a3.442,3.442,0,0,1-1.868-3.4,4.158,4.158,0,0,1,4.24-3.929,5.034,5.034,0,0,1,2.9.935,3.482,3.482,0,0,1,2.036-.719c1.533,0,1.8.839,1.8,1.342a0.953,0.953,0,0,1-.91.838c-0.623,0-1.2-1.365-1.629-1.365a1.8,1.8,0,0,0-.91.312,4.451,4.451,0,0,1,.91,2.324c0,2.587-1.629,4.12-4.265,4.12a5.491,5.491,0,0,1-1.725-.264,1.812,1.812,0,0,0-.982,1.533c0,0.7.575,0.791,1.126,0.791h3.546Zm-3.833,1.82a3.191,3.191,0,0,0-1.558,2.4c0,0.336.1,2.2,3.45,2.2,2.731,0,4-.839,4-2.707,0-1.461-.887-1.893-2.444-1.893h-3.449Zm4.049-8.146c0-.359,0-2.9-2.013-2.9-2.228,0-2.252,2.851-2.252,3.689,0,1.413.479,2.851,2.156,2.851C139.827,16.2,139.971,13.585,139.971,12.555Z"/><path class="a" d="M146.87,12c0-.838-0.216-1.317-1.413-1.437a0.224,0.224,0,0,1-.216-0.287,0.3,0.3,0,0,1,.191-0.335,10.747,10.747,0,0,0,3.354-1.174,0.281,0.281,0,0,1,.1.239c0,0.287-.12.886-0.12,2.18,0.791-.886,2.084-2.084,3.354-2.084a1.363,1.363,0,0,1,1.533,1.342,1.18,1.18,0,0,1-1.174,1.2c-0.981,0-1.126-.91-1.845-0.91a2.688,2.688,0,0,0-1.652,1.03,1.007,1.007,0,0,0-.168.694V17.9c0,0.887,0,1.413,1.2,1.413,0.886,0,.981.024,0.981,0.288,0,0.312-.1.335-0.359,0.335-0.862,0-1.629-.048-2.73-0.048-1.917,0-2.324.048-2.779,0.048-0.167,0-.215-0.144-0.215-0.312,0-.239.287-0.312,0.742-0.312,1.03,0,1.222-.191,1.222-1.222V12Z"/><path class="a" d="M162.228,18.592a0.382,0.382,0,0,0,.407.479,3.287,3.287,0,0,0,1.03-.551,0.4,0.4,0,0,1,.312.264,3.883,3.883,0,0,1-2.4,1.437c-0.863,0-1.055-.551-1.318-1.389-1.413,1.1-2.084,1.389-3.09,1.389a2.083,2.083,0,0,1-2.3-2.132c0-1.222.719-2.228,5.414-3.977v-2.18a2.177,2.177,0,0,0-2.013-1.893,2.79,2.79,0,0,0-1.7,1.1,10.511,10.511,0,0,1,.311,1.2,1.015,1.015,0,0,1-1.174.91,0.918,0.918,0,0,1-1.006-.887c0-.646.168-0.958,1.965-2.156,1.8-1.174,2.06-1.2,2.587-1.2,0.767,0,2.971.575,2.971,2.755v6.827Zm-1.94-3.545a0.22,0.22,0,0,0-.168-0.24,12.5,12.5,0,0,0-2.371,1.174,1.741,1.741,0,0,0-.791,1.749,1.259,1.259,0,0,0,1.126,1.485c0.91,0,2.2-.838,2.2-1.27v-2.9Z"/><path class="a" d="M166.659,12c0-.838-0.215-1.317-1.413-1.437a0.224,0.224,0,0,1-.216-0.287,0.3,0.3,0,0,1,.191-0.335,10.747,10.747,0,0,0,3.354-1.174c0.048,0,.071.071,0.071,0.263,0,0.145-.048.671-0.048,1.605a9.821,9.821,0,0,1,4.217-1.533,2.923,2.923,0,0,1,2.611,1.557c1.293-.767,2.228-1.557,3.665-1.557,0.814,0,3.162.12,3.162,2.923V18.4c0,0.407.072,0.862,1.558,0.862,0.239,0,.239.144,0.239,0.312,0,0.144,0,.312-0.335.312-0.719,0-1.15-.048-2.42-0.048-1.94,0-2.324.048-2.516,0.048-0.144,0-.168-0.168-0.168-0.287a0.309,0.309,0,0,1,.336-0.336c1.149,0,1.365-.1,1.365-0.886V12.172c0-.312-0.191-1.965-2.443-1.965a3.494,3.494,0,0,0-2.443,1.318v6.133c0,1.365.048,1.652,1.1,1.652,0.647,0,.7.024,0.7,0.312,0,0.144,0,.312-0.24.312-0.119,0-.431-0.048-2.515-0.048-1.94,0-2.324.048-2.516,0.048-0.144,0-.168-0.168-0.168-0.287a0.309,0.309,0,0,1,.335-0.336c1.15,0,1.366-.1,1.366-0.934V12.172c0-.91-0.192-1.965-2.443-1.965a3.494,3.494,0,0,0-2.444,1.318v6.133c0,1.365.048,1.652,1.1,1.652,0.646,0,.694.024,0.694,0.312,0,0.144,0,.312-0.239.312-0.12,0-.432-0.048-2.108-0.048-2.252,0-2.635.048-2.994,0.048-0.191,0-.191-0.144-0.191-0.264,0-.312.023-0.359,0.67-0.359a0.9,0.9,0,0,0,.982-0.575,24.29,24.29,0,0,0,.144-3.449V12Z"/><path class="a" d="M192.415,16.963c0,1.174-.623,3.258-3.905,3.258-0.431,0-1.82-.191-2.755-0.191a0.153,0.153,0,0,1-.119-0.119c-0.024-.24-0.552-2.349-0.552-2.588,0-.144.336-0.144,0.432-0.144,0.575,0,.719,2.42,3.019,2.42a2.04,2.04,0,0,0,2.18-2.133c0-2.515-5.366-1.7-5.366-5.1a3.361,3.361,0,0,1,3.642-3.258,19.093,19.093,0,0,1,2.587.216,0.679,0.679,0,0,1,.359.671c0.048,0.981.264,1.6,0.264,1.916a0.224,0.224,0,0,1-.264.191,0.42,0.42,0,0,1-.479-0.335,2.822,2.822,0,0,0-2.492-2.036,1.731,1.731,0,0,0-1.916,1.8,1.819,1.819,0,0,0,1.126,1.6C190.69,14.328,192.415,14.256,192.415,16.963Z"/><path class="b" d="M8.966,47.221A8.453,8.453,0,0,1,.1,38.885a8.887,8.887,0,0,1,8.864-9.3c5.079,0,8.888,3.043,8.888,9.176A8.481,8.481,0,0,1,8.966,47.221Zm0-17.009c-5.582,0-6.013,6.253-6.013,8.217,0,3.307,1.6,8.17,6.013,8.17C14.62,46.6,15,41.256,15,38.405,15,34.979,13.4,30.212,8.966,30.212Z"/><path class="b" d="M23.557,44.9c0,0.887,0,1.413,1.2,1.413,0.886,0,.982.024,0.982,0.288,0,0.312-.1.335-0.359,0.335-0.862,0-1.629-.048-2.731-0.048-1.917,0-2.324.048-2.54,0.048-0.167,0-.216-0.144-0.216-0.312,0-.239.048-0.312,0.5-0.312,1.03,0,1.222-.191,1.222-1.222V38.405c0-.287,0-0.767-0.455-0.767H19.844c-0.167,0-.287,0-0.287-0.312,0-.191.167-0.287,0.742-0.407,0.935-.216,1.174-0.264,1.246-1.342,0.239-3.641,1.317-5.653,4.145-6.4a7.174,7.174,0,0,1,1.461-.191,1.3,1.3,0,0,1,1.509,1.03,1.07,1.07,0,0,1-1.126,1.174,2.145,2.145,0,0,1-1.317-.551,2.2,2.2,0,0,0-1.054-.551c-1.365,0-1.6,1.988-1.6,3.474v3.09h2.971c0.167,0,.239.168,0.239,0.5a0.556,0.556,0,0,1-.646.6c-0.168,0-2.013-.12-2.563-0.12V44.9Z"/><path class="b" d="M31.1,44.9c0,0.887,0,1.413,1.2,1.413,0.527,0,.623.024,0.623,0.288,0,0.312-.1.335-0.359,0.335-0.5,0-1.27-.048-2.372-0.048-1.917,0-2.324.048-2.54,0.048-0.167,0-.216-0.144-0.216-0.312,0-.239.048-0.312,0.5-0.312,1.03,0,1.222-.191,1.222-1.222V38.405c0-.287,0-0.767-0.455-0.767H27.39c-0.167,0-.287,0-0.287-0.312,0-.191.167-0.287,0.743-0.407,0.934-.216,1.174-0.264,1.246-1.342,0.239-3.521,2.779-6.588,6.636-6.588,0.623,0,2.228.239,2.228,1.294a1.149,1.149,0,0,1-1.246,1.174c-1.7,0-2.061-1.365-2.9-1.365-0.886,0-2.707.455-2.707,5.15v1.413h4.073a7.364,7.364,0,0,0,2.683-.887c0.1,0,.144.12,0.144,0.264a21.716,21.716,0,0,0-.12,3.45v5.175c0,1.365.048,1.652,1.1,1.652,0.527,0,.575.024,0.575,0.312,0,0.144,0,.312-0.24.312-0.12,0-.431-0.048-1.988-0.048-2.252,0-2.875.048-3.234,0.048-0.192,0-.192-0.144-0.192-0.264,0-.312.024-0.359,0.911-0.359a0.9,0.9,0,0,0,.982-0.574,24.287,24.287,0,0,0,.144-3.45V39a1.348,1.348,0,0,0-1.366-1.485H31.1V44.9Z"/><path class="b" d="M49.7,44.873A1.373,1.373,0,0,1,50.1,44.49a0.5,0.5,0,0,1,.359.335,0.529,0.529,0,0,1-.192.359,5.4,5.4,0,0,1-4.192,2.036c-2.779,0-4.959-1.988-4.959-5.414,0-3.545,2.348-5.7,5.438-5.7,3.282,0,3.905,1.772,3.905,2.275a1.239,1.239,0,0,1-1.27,1.03c-0.767,0-.862-0.239-1.126-1.557a1.281,1.281,0,0,0-1.485-1.126c-1.509,0-3.378,1.149-3.378,5.078a3.8,3.8,0,0,0,4.072,4.073A4.385,4.385,0,0,0,49.7,44.873Z"/><path class="b" d="M53.864,40.418a8.733,8.733,0,0,0-.1,1.365A4.038,4.038,0,0,0,57.7,45.736,3.125,3.125,0,0,0,60.5,44.3a0.878,0.878,0,0,1,.359-0.407,0.5,0.5,0,0,1,.383.287,4.375,4.375,0,0,1-4.121,3.042c-3.426,0-5.222-2.107-5.222-5.462,0-3.426,2.324-5.749,4.791-5.749a4.009,4.009,0,0,1,4.288,4.145c0,0.239-.1.264-0.287,0.264H53.864Zm4.12-.719a0.687,0.687,0,0,0,.815-0.791,2.024,2.024,0,0,0-2.108-2.275c-1.725,0-2.443,1.438-2.683,3.066h3.977Z"/><path class="b" d="M74.612,47.221a5.36,5.36,0,0,1-5.558-5.558,5.57,5.57,0,0,1,11.14,0A5.249,5.249,0,0,1,74.612,47.221Zm0-10.492c-2.492,0-3.282,2.587-3.282,4.935,0,2.036.479,4.936,3.282,4.936,2.827,0,3.306-2.9,3.306-4.936C77.917,39.315,77.127,36.729,74.612,36.729Z"/><path class="b" d="M85.656,44.9c0,0.887,0,1.413,1.2,1.413,0.886,0,.982.024,0.982,0.288,0,0.312-.1.335-0.359,0.335-0.863,0-1.629-.048-2.731-0.048-1.917,0-2.324.048-2.54,0.048-0.167,0-.216-0.144-0.216-0.312,0-.239.048-0.312,0.5-0.312,1.03,0,1.222-.191,1.222-1.222V38.405c0-.287,0-0.767-0.455-0.767H81.943c-0.167,0-.287,0-0.287-0.312,0-.191.167-0.287,0.743-0.407,0.934-.216,1.174-0.264,1.246-1.342,0.239-3.641,1.317-5.653,4.145-6.4a7.174,7.174,0,0,1,1.461-.191,1.3,1.3,0,0,1,1.509,1.03,1.07,1.07,0,0,1-1.126,1.174,2.145,2.145,0,0,1-1.317-.551,2.2,2.2,0,0,0-1.054-.551c-1.365,0-1.6,1.988-1.6,3.474v3.09h2.971c0.167,0,.239.168,0.239,0.5a0.556,0.556,0,0,1-.646.6c-0.168,0-2.013-.12-2.563-0.12V44.9Z"/><path class="b" d="M98.091,35.507c0-1.7-.024-2.276-0.048-3.378-0.024-1.414-.431-1.605-2.156-1.605-0.264,0-.264-0.191-0.264-0.407a0.259,0.259,0,0,1,.216-0.312c0.191,0,1.917.1,3.426,0.1,0.215,0,2.156-.1,3.4-0.1,5.726,0,6.324,3.762,6.324,4.743,0,3.426-2.371,5.175-5.629,5.175a14.975,14.975,0,0,1-2.9-.239c0,3.809.024,4.479,0.048,5.2,0.049,0.958.192,1.533,2.659,1.533,0.671,0,.671.144,0.671,0.407,0,0.216,0,.312-0.191.312-0.168,0-.839-0.048-4.384-0.048-3.522,0-3.618.048-3.785,0.048-0.192,0-.192-0.1-0.192-0.312,0-.264,0-0.407.671-0.407,1.893,0,2.036-.407,2.06-1.054,0.048-1.2.072-2.755,0.072-3.785V35.507Zm2.371,2.587c0,0.551.145,0.91,1.366,0.91,2.611,0,4.575-1.509,4.575-4.264a3.893,3.893,0,0,0-3.929-4.217c-1.82,0-2.036,0-2.013,1.988v5.582Z"/><path class="b" d="M112.25,39c0-.838-0.216-1.317-1.413-1.437a0.224,0.224,0,0,1-.216-0.287,0.3,0.3,0,0,1,.191-0.335,10.726,10.726,0,0,0,3.354-1.175,0.283,0.283,0,0,1,.1.24c0,0.287-.12.886-0.12,2.18,0.791-.887,2.084-2.084,3.354-2.084a1.363,1.363,0,0,1,1.533,1.342,1.179,1.179,0,0,1-1.174,1.2c-0.981,0-1.126-.91-1.845-0.91a2.688,2.688,0,0,0-1.652,1.03,1.007,1.007,0,0,0-.168.694V44.9c0,0.887,0,1.413,1.2,1.413,0.886,0,.981.024,0.981,0.288,0,0.312-.1.335-0.359,0.335-0.862,0-1.629-.048-2.73-0.048-1.917,0-2.324.048-2.779,0.048-0.167,0-.216-0.144-0.216-0.312,0-.239.288-0.312,0.743-0.312,1.03,0,1.222-.191,1.222-1.222V39Z"/><path class="b" d="M125.642,47.221a5.36,5.36,0,0,1-5.558-5.558,5.57,5.57,0,0,1,11.14,0A5.249,5.249,0,0,1,125.642,47.221Zm0-10.492c-2.491,0-3.281,2.587-3.281,4.935,0,2.036.479,4.936,3.281,4.936,2.827,0,3.307-2.9,3.307-4.936C128.948,39.315,128.157,36.729,125.642,36.729Z"/><path class="b" d="M139.754,45.88c3.282,0,3.258,2.132,3.258,2.851,0,3.617-4,4.672-6.923,4.672-1.558,0-3.091-.408-3.091-2.252,0-1.485,1.1-2.563,2.084-3.522a1.567,1.567,0,0,1-1.437-1.461c0-1.437.767-2.061,1.844-2.8a3.442,3.442,0,0,1-1.868-3.4,4.158,4.158,0,0,1,4.24-3.929,5.034,5.034,0,0,1,2.9.935,3.482,3.482,0,0,1,2.036-.719c1.533,0,1.8.839,1.8,1.342a0.953,0.953,0,0,1-.91.838c-0.623,0-1.2-1.365-1.629-1.365a1.8,1.8,0,0,0-.91.312,4.451,4.451,0,0,1,.91,2.324c0,2.587-1.629,4.12-4.265,4.12a5.491,5.491,0,0,1-1.725-.264,1.812,1.812,0,0,0-.982,1.533c0,0.7.575,0.791,1.126,0.791h3.546Zm-3.833,1.82a3.191,3.191,0,0,0-1.558,2.4c0,0.336.1,2.2,3.45,2.2,2.731,0,4-.839,4-2.707,0-1.461-.887-1.893-2.443-1.893h-3.45Zm4.049-8.146c0-.359,0-2.9-2.013-2.9-2.228,0-2.252,2.851-2.252,3.689,0,1.413.479,2.851,2.156,2.851C139.826,43.2,139.97,40.585,139.97,39.555Z"/><path class="b" d="M146.869,39c0-.838-0.216-1.317-1.413-1.437a0.224,0.224,0,0,1-.216-0.287,0.3,0.3,0,0,1,.191-0.335,10.726,10.726,0,0,0,3.354-1.175,0.283,0.283,0,0,1,.1.24c0,0.287-.12.886-0.12,2.18,0.791-.887,2.084-2.084,3.354-2.084a1.363,1.363,0,0,1,1.533,1.342,1.179,1.179,0,0,1-1.174,1.2c-0.981,0-1.126-.91-1.845-0.91a2.688,2.688,0,0,0-1.652,1.03,1.007,1.007,0,0,0-.168.694V44.9c0,0.887,0,1.413,1.2,1.413,0.886,0,.981.024,0.981,0.288,0,0.312-.1.335-0.359,0.335-0.862,0-1.629-.048-2.73-0.048-1.917,0-2.324.048-2.779,0.048-0.167,0-.216-0.144-0.216-0.312,0-.239.288-0.312,0.743-0.312,1.03,0,1.222-.191,1.222-1.222V39Z"/><path class="b" d="M162.227,45.592a0.382,0.382,0,0,0,.407.479,3.287,3.287,0,0,0,1.03-.551,0.4,0.4,0,0,1,.312.264,3.883,3.883,0,0,1-2.4,1.437c-0.863,0-1.055-.551-1.318-1.389-1.413,1.1-2.084,1.389-3.09,1.389a2.083,2.083,0,0,1-2.3-2.132c0-1.222.719-2.228,5.414-3.977v-2.18a2.177,2.177,0,0,0-2.013-1.893,2.79,2.79,0,0,0-1.7,1.1,10.511,10.511,0,0,1,.311,1.2,1.014,1.014,0,0,1-1.174.91,0.918,0.918,0,0,1-1.006-.887c0-.646.168-0.958,1.965-2.156,1.8-1.174,2.06-1.2,2.587-1.2,0.767,0,2.971.575,2.971,2.755v6.827Zm-1.94-3.545a0.22,0.22,0,0,0-.168-0.24,12.5,12.5,0,0,0-2.371,1.174,1.741,1.741,0,0,0-.791,1.749,1.259,1.259,0,0,0,1.126,1.485c0.91,0,2.2-.838,2.2-1.27v-2.9Z"/><path class="b" d="M166.658,39c0-.838-0.215-1.317-1.413-1.437a0.224,0.224,0,0,1-.216-0.287,0.3,0.3,0,0,1,.191-0.335,10.726,10.726,0,0,0,3.354-1.175c0.048,0,.071.072,0.071,0.264,0,0.145-.048.671-0.048,1.605a9.821,9.821,0,0,1,4.217-1.533,2.921,2.921,0,0,1,2.611,1.557c1.293-.767,2.228-1.557,3.665-1.557,0.814,0,3.162.12,3.162,2.923V45.4c0,0.407.072,0.862,1.558,0.862,0.239,0,.239.144,0.239,0.312,0,0.144,0,.312-0.335.312-0.719,0-1.15-.048-2.42-0.048-1.94,0-2.324.048-2.516,0.048-0.144,0-.168-0.168-0.168-0.287a0.309,0.309,0,0,1,.336-0.336c1.149,0,1.365-.1,1.365-0.886V39.172c0-.312-0.191-1.965-2.443-1.965a3.494,3.494,0,0,0-2.443,1.318v6.133c0,1.365.048,1.652,1.1,1.652,0.647,0,.7.024,0.7,0.312,0,0.144,0,.312-0.24.312-0.119,0-.431-0.048-2.515-0.048-1.941,0-2.324.048-2.516,0.048-0.144,0-.168-0.168-0.168-0.287a0.309,0.309,0,0,1,.335-0.336c1.15,0,1.366-.1,1.366-0.934V39.172c0-.91-0.191-1.965-2.443-1.965a3.494,3.494,0,0,0-2.444,1.318v6.133c0,1.365.048,1.652,1.1,1.652,0.646,0,.694.024,0.694,0.312,0,0.144,0,.312-0.239.312-0.12,0-.432-0.048-2.108-0.048-2.252,0-2.635.048-2.994,0.048-0.192,0-.192-0.144-0.192-0.264,0-.312.024-0.359,0.671-0.359a0.9,0.9,0,0,0,.982-0.574,24.317,24.317,0,0,0,.144-3.45V39Z"/><path class="b" d="M192.414,43.963c0,1.174-.623,3.258-3.905,3.258-0.431,0-1.82-.191-2.755-0.191a0.153,0.153,0,0,1-.119-0.119c-0.024-.24-0.552-2.349-0.552-2.588,0-.144.336-0.144,0.432-0.144,0.575,0,.719,2.42,3.019,2.42a2.04,2.04,0,0,0,2.18-2.133c0-2.515-5.366-1.7-5.366-5.1a3.361,3.361,0,0,1,3.642-3.258,19.093,19.093,0,0,1,2.587.216,0.679,0.679,0,0,1,.359.671c0.048,0.981.264,1.6,0.264,1.916a0.224,0.224,0,0,1-.264.191,0.42,0.42,0,0,1-.479-0.335,2.822,2.822,0,0,0-2.492-2.036,1.731,1.731,0,0,0-1.916,1.8,1.819,1.819,0,0,0,1.126,1.6C190.689,41.328,192.414,41.256,192.414,43.963Z"/><path d="M8.966,74.221A8.453,8.453,0,0,1,.1,65.885a8.887,8.887,0,0,1,8.864-9.3c5.079,0,8.888,3.043,8.888,9.176A8.481,8.481,0,0,1,8.966,74.221Zm0-17.009c-5.582,0-6.013,6.253-6.013,8.217,0,3.307,1.6,8.17,6.013,8.17C14.62,73.6,15,68.256,15,65.405,15,61.979,13.4,57.212,8.966,57.212Z"/><path d="M23.557,71.9c0,0.887,0,1.413,1.2,1.413,0.886,0,.982.024,0.982,0.288,0,0.312-.1.335-0.359,0.335-0.862,0-1.629-.048-2.731-0.048-1.917,0-2.324.048-2.54,0.048-0.167,0-.216-0.144-0.216-0.312,0-.239.048-0.312,0.5-0.312,1.03,0,1.222-.191,1.222-1.222V65.405c0-.287,0-0.767-0.455-0.767H19.844c-0.167,0-.287,0-0.287-0.312,0-.191.167-0.287,0.742-0.407,0.935-.216,1.174-0.264,1.246-1.342,0.239-3.641,1.317-5.653,4.145-6.4a7.174,7.174,0,0,1,1.461-.191,1.3,1.3,0,0,1,1.509,1.03,1.07,1.07,0,0,1-1.126,1.174,2.145,2.145,0,0,1-1.317-.551,2.2,2.2,0,0,0-1.054-.551c-1.365,0-1.6,1.988-1.6,3.474v3.09h2.971c0.167,0,.239.168,0.239,0.5a0.556,0.556,0,0,1-.646.6c-0.168,0-2.013-.12-2.563-0.12V71.9Z"/><path d="M31.1,71.9c0,0.887,0,1.413,1.2,1.413,0.527,0,.623.024,0.623,0.288,0,0.312-.1.335-0.359,0.335-0.5,0-1.27-.048-2.372-0.048-1.917,0-2.324.048-2.54,0.048-0.167,0-.216-0.144-0.216-0.312,0-.239.048-0.312,0.5-0.312,1.03,0,1.222-.191,1.222-1.222V65.405c0-.287,0-0.767-0.455-0.767H27.39c-0.167,0-.287,0-0.287-0.312,0-.191.167-0.287,0.743-0.407,0.934-.216,1.174-0.264,1.246-1.342,0.239-3.521,2.779-6.588,6.636-6.588,0.623,0,2.228.239,2.228,1.294a1.149,1.149,0,0,1-1.246,1.174c-1.7,0-2.061-1.365-2.9-1.365-0.886,0-2.707.455-2.707,5.15v1.413h4.073a7.364,7.364,0,0,0,2.683-.887c0.1,0,.144.12,0.144,0.264a21.716,21.716,0,0,0-.12,3.45v5.175c0,1.365.048,1.652,1.1,1.652,0.527,0,.575.024,0.575,0.312,0,0.144,0,.312-0.24.312-0.12,0-.431-0.048-1.988-0.048-2.252,0-2.875.048-3.234,0.048-0.192,0-.192-0.144-0.192-0.264,0-.312.024-0.359,0.911-0.359a0.9,0.9,0,0,0,.982-0.574,24.287,24.287,0,0,0,.144-3.45V66a1.348,1.348,0,0,0-1.366-1.485H31.1V71.9Z"/><path d="M49.7,71.873A1.373,1.373,0,0,1,50.1,71.49a0.5,0.5,0,0,1,.359.335,0.529,0.529,0,0,1-.192.359,5.4,5.4,0,0,1-4.192,2.036c-2.779,0-4.959-1.988-4.959-5.414,0-3.545,2.348-5.7,5.438-5.7,3.282,0,3.905,1.772,3.905,2.275a1.239,1.239,0,0,1-1.27,1.03c-0.767,0-.862-0.239-1.126-1.557a1.281,1.281,0,0,0-1.485-1.126c-1.509,0-3.378,1.149-3.378,5.078a3.8,3.8,0,0,0,4.072,4.073A4.385,4.385,0,0,0,49.7,71.873Z"/><path d="M53.864,67.418a8.733,8.733,0,0,0-.1,1.365A4.038,4.038,0,0,0,57.7,72.736,3.125,3.125,0,0,0,60.5,71.3a0.878,0.878,0,0,1,.359-0.407,0.5,0.5,0,0,1,.383.287,4.375,4.375,0,0,1-4.121,3.042c-3.426,0-5.222-2.107-5.222-5.462,0-3.426,2.324-5.749,4.791-5.749a4.009,4.009,0,0,1,4.288,4.145c0,0.239-.1.264-0.287,0.264H53.864Zm4.12-.719a0.687,0.687,0,0,0,.815-0.791,2.024,2.024,0,0,0-2.108-2.275c-1.725,0-2.443,1.438-2.683,3.066h3.977Z"/><path d="M74.612,74.221a5.36,5.36,0,0,1-5.558-5.558,5.57,5.57,0,0,1,11.14,0A5.249,5.249,0,0,1,74.612,74.221Zm0-10.492c-2.492,0-3.282,2.587-3.282,4.935,0,2.036.479,4.936,3.282,4.936,2.827,0,3.306-2.9,3.306-4.936C77.917,66.315,77.127,63.729,74.612,63.729Z"/><path d="M85.656,71.9c0,0.887,0,1.413,1.2,1.413,0.886,0,.982.024,0.982,0.288,0,0.312-.1.335-0.359,0.335-0.863,0-1.629-.048-2.731-0.048-1.917,0-2.324.048-2.54,0.048-0.167,0-.216-0.144-0.216-0.312,0-.239.048-0.312,0.5-0.312,1.03,0,1.222-.191,1.222-1.222V65.405c0-.287,0-0.767-0.455-0.767H81.943c-0.167,0-.287,0-0.287-0.312,0-.191.167-0.287,0.743-0.407,0.934-.216,1.174-0.264,1.246-1.342,0.239-3.641,1.317-5.653,4.145-6.4a7.174,7.174,0,0,1,1.461-.191,1.3,1.3,0,0,1,1.509,1.03,1.07,1.07,0,0,1-1.126,1.174,2.145,2.145,0,0,1-1.317-.551,2.2,2.2,0,0,0-1.054-.551c-1.365,0-1.6,1.988-1.6,3.474v3.09h2.971c0.167,0,.239.168,0.239,0.5a0.556,0.556,0,0,1-.646.6c-0.168,0-2.013-.12-2.563-0.12V71.9Z"/><path d="M98.091,62.507c0-1.7-.024-2.276-0.048-3.378-0.024-1.414-.431-1.605-2.156-1.605-0.264,0-.264-0.191-0.264-0.407a0.259,0.259,0,0,1,.216-0.312c0.191,0,1.917.1,3.426,0.1,0.215,0,2.156-.1,3.4-0.1,5.726,0,6.324,3.762,6.324,4.743,0,3.426-2.371,5.175-5.629,5.175a14.975,14.975,0,0,1-2.9-.239c0,3.809.024,4.479,0.048,5.2,0.049,0.958.192,1.533,2.659,1.533,0.671,0,.671.144,0.671,0.407,0,0.216,0,.312-0.191.312-0.168,0-.839-0.048-4.384-0.048-3.522,0-3.618.048-3.785,0.048-0.192,0-.192-0.1-0.192-0.312,0-.264,0-0.407.671-0.407,1.893,0,2.036-.407,2.06-1.054,0.048-1.2.072-2.755,0.072-3.785V62.507Zm2.371,2.587c0,0.551.145,0.91,1.366,0.91,2.611,0,4.575-1.509,4.575-4.264a3.893,3.893,0,0,0-3.929-4.217c-1.82,0-2.036,0-2.013,1.988v5.582Z"/><path d="M112.25,66c0-.838-0.216-1.317-1.413-1.437a0.224,0.224,0,0,1-.216-0.287,0.3,0.3,0,0,1,.191-0.335,10.726,10.726,0,0,0,3.354-1.175,0.283,0.283,0,0,1,.1.24c0,0.287-.12.886-0.12,2.18,0.791-.887,2.084-2.084,3.354-2.084a1.363,1.363,0,0,1,1.533,1.342,1.179,1.179,0,0,1-1.174,1.2c-0.981,0-1.126-.91-1.845-0.91a2.688,2.688,0,0,0-1.652,1.03,1.007,1.007,0,0,0-.168.694V71.9c0,0.887,0,1.413,1.2,1.413,0.886,0,.981.024,0.981,0.288,0,0.312-.1.335-0.359,0.335-0.862,0-1.629-.048-2.73-0.048-1.917,0-2.324.048-2.779,0.048-0.167,0-.216-0.144-0.216-0.312,0-.239.288-0.312,0.743-0.312,1.03,0,1.222-.191,1.222-1.222V66Z"/><path d="M125.642,74.221a5.36,5.36,0,0,1-5.558-5.558,5.57,5.57,0,0,1,11.14,0A5.249,5.249,0,0,1,125.642,74.221Zm0-10.492c-2.491,0-3.281,2.587-3.281,4.935,0,2.036.479,4.936,3.281,4.936,2.827,0,3.307-2.9,3.307-4.936C128.948,66.315,128.157,63.729,125.642,63.729Z"/><path d="M139.754,72.88c3.282,0,3.258,2.132,3.258,2.851,0,3.617-4,4.672-6.923,4.672-1.558,0-3.091-.408-3.091-2.252,0-1.485,1.1-2.563,2.084-3.522a1.567,1.567,0,0,1-1.437-1.461c0-1.437.767-2.061,1.844-2.8a3.442,3.442,0,0,1-1.868-3.4,4.158,4.158,0,0,1,4.24-3.929,5.034,5.034,0,0,1,2.9.935,3.482,3.482,0,0,1,2.036-.719c1.533,0,1.8.839,1.8,1.342a0.953,0.953,0,0,1-.91.838c-0.623,0-1.2-1.365-1.629-1.365a1.8,1.8,0,0,0-.91.312,4.451,4.451,0,0,1,.91,2.324c0,2.587-1.629,4.12-4.265,4.12a5.491,5.491,0,0,1-1.725-.264,1.812,1.812,0,0,0-.982,1.533c0,0.7.575,0.791,1.126,0.791h3.546Zm-3.833,1.82a3.191,3.191,0,0,0-1.558,2.4c0,0.336.1,2.2,3.45,2.2,2.731,0,4-.839,4-2.707,0-1.461-.887-1.893-2.443-1.893h-3.45Zm4.049-8.146c0-.359,0-2.9-2.013-2.9-2.228,0-2.252,2.851-2.252,3.689,0,1.413.479,2.851,2.156,2.851C139.826,70.2,139.97,67.585,139.97,66.555Z"/><path d="M146.869,66c0-.838-0.216-1.317-1.413-1.437a0.224,0.224,0,0,1-.216-0.287,0.3,0.3,0,0,1,.191-0.335,10.726,10.726,0,0,0,3.354-1.175,0.283,0.283,0,0,1,.1.24c0,0.287-.12.886-0.12,2.18,0.791-.887,2.084-2.084,3.354-2.084a1.363,1.363,0,0,1,1.533,1.342,1.179,1.179,0,0,1-1.174,1.2c-0.981,0-1.126-.91-1.845-0.91a2.688,2.688,0,0,0-1.652,1.03,1.007,1.007,0,0,0-.168.694V71.9c0,0.887,0,1.413,1.2,1.413,0.886,0,.981.024,0.981,0.288,0,0.312-.1.335-0.359,0.335-0.862,0-1.629-.048-2.73-0.048-1.917,0-2.324.048-2.779,0.048-0.167,0-.216-0.144-0.216-0.312,0-.239.288-0.312,0.743-0.312,1.03,0,1.222-.191,1.222-1.222V66Z"/><path d="M162.227,72.592a0.382,0.382,0,0,0,.407.479,3.287,3.287,0,0,0,1.03-.551,0.4,0.4,0,0,1,.312.264,3.883,3.883,0,0,1-2.4,1.437c-0.863,0-1.055-.551-1.318-1.389-1.413,1.1-2.084,1.389-3.09,1.389a2.083,2.083,0,0,1-2.3-2.132c0-1.222.719-2.228,5.414-3.977v-2.18a2.177,2.177,0,0,0-2.013-1.893,2.79,2.79,0,0,0-1.7,1.1,10.511,10.511,0,0,1,.311,1.2,1.014,1.014,0,0,1-1.174.91,0.918,0.918,0,0,1-1.006-.887c0-.646.168-0.958,1.965-2.156,1.8-1.174,2.06-1.2,2.587-1.2,0.767,0,2.971.575,2.971,2.755v6.827Zm-1.94-3.545a0.22,0.22,0,0,0-.168-0.24,12.5,12.5,0,0,0-2.371,1.174,1.741,1.741,0,0,0-.791,1.749,1.259,1.259,0,0,0,1.126,1.485c0.91,0,2.2-.838,2.2-1.27v-2.9Z"/><path d="M166.658,66c0-.838-0.215-1.317-1.413-1.437a0.224,0.224,0,0,1-.216-0.287,0.3,0.3,0,0,1,.191-0.335,10.726,10.726,0,0,0,3.354-1.175c0.048,0,.071.072,0.071,0.264,0,0.145-.048.671-0.048,1.605a9.821,9.821,0,0,1,4.217-1.533,2.921,2.921,0,0,1,2.611,1.557c1.293-.767,2.228-1.557,3.665-1.557,0.814,0,3.162.12,3.162,2.923V72.4c0,0.407.072,0.862,1.558,0.862,0.239,0,.239.144,0.239,0.312,0,0.144,0,.312-0.335.312-0.719,0-1.15-.048-2.42-0.048-1.94,0-2.324.048-2.516,0.048-0.144,0-.168-0.168-0.168-0.287a0.309,0.309,0,0,1,.336-0.336c1.149,0,1.365-.1,1.365-0.886V66.172c0-.312-0.191-1.965-2.443-1.965a3.494,3.494,0,0,0-2.443,1.318v6.133c0,1.365.048,1.652,1.1,1.652,0.647,0,.7.024,0.7,0.312,0,0.144,0,.312-0.24.312-0.119,0-.431-0.048-2.515-0.048-1.941,0-2.324.048-2.516,0.048-0.144,0-.168-0.168-0.168-0.287a0.309,0.309,0,0,1,.335-0.336c1.15,0,1.366-.1,1.366-0.934V66.172c0-.91-0.191-1.965-2.443-1.965a3.494,3.494,0,0,0-2.444,1.318v6.133c0,1.365.048,1.652,1.1,1.652,0.646,0,.694.024,0.694,0.312,0,0.144,0,.312-0.239.312-0.12,0-.432-0.048-2.108-0.048-2.252,0-2.635.048-2.994,0.048-0.192,0-.192-0.144-0.192-0.264,0-.312.024-0.359,0.671-0.359a0.9,0.9,0,0,0,.982-0.574,24.317,24.317,0,0,0,.144-3.45V66Z"/><path d="M192.414,70.963c0,1.174-.623,3.258-3.905,3.258-0.431,0-1.82-.191-2.755-0.191a0.153,0.153,0,0,1-.119-0.119c-0.024-.24-0.552-2.349-0.552-2.588,0-.144.336-0.144,0.432-0.144,0.575,0,.719,2.42,3.019,2.42a2.04,2.04,0,0,0,2.18-2.133c0-2.515-5.366-1.7-5.366-5.1a3.361,3.361,0,0,1,3.642-3.258,19.093,19.093,0,0,1,2.587.216,0.679,0.679,0,0,1,.359.671c0.048,0.981.264,1.6,0.264,1.916a0.224,0.224,0,0,1-.264.191,0.42,0.42,0,0,1-.479-0.335,2.822,2.822,0,0,0-2.492-2.036,1.731,1.731,0,0,0-1.916,1.8,1.819,1.819,0,0,0,1.126,1.6C190.689,68.328,192.414,68.256,192.414,70.963Z"/></svg>