<svg xmlns="http://www.w3.org/2000/svg" width="284" height="120" viewBox="0 0 284 120"><defs><style>.a{fill:#fff;}.b{fill:#f1b82d;}</style></defs><title>unit-name-white</title><path class="a" d="M15.063,29.54c-9.416,0-12.951-7.491-12.951-12.182,0-8.436,6.266-13.581,12.951-13.581,7.421,0,12.986,4.445,12.986,13.406C28.049,22.049,24.514,29.54,15.063,29.54Zm0-24.853c-8.156,0-8.786,9.136-8.786,12.006,0,4.831,2.345,11.937,8.786,11.937,8.261,0,8.821-7.806,8.821-11.971C23.883,11.653,21.538,4.688,15.063,4.688Z"/><path class="a" d="M36.376,26.145c0,1.295,0,2.065,1.75,2.065,1.3,0,1.436.035,1.436,0.42,0,0.455-.14.49-0.525,0.49-1.26,0-2.38-.07-3.99-0.07-2.8,0-3.4.07-3.71,0.07-0.245,0-.315-0.21-0.315-0.455,0-.35.07-0.455,0.735-0.455,1.505,0,1.785-.28,1.785-1.785V16.659c0-.421,0-1.12-0.665-1.12H30.951c-0.245,0-.42,0-0.42-0.455,0-.28.245-0.421,1.085-0.6,1.365-.314,1.715-0.385,1.82-1.96,0.35-5.32,1.925-8.261,6.056-9.346a10.434,10.434,0,0,1,2.135-.28c0.91,0,2.205.35,2.205,1.5a1.563,1.563,0,0,1-1.645,1.716,3.131,3.131,0,0,1-1.925-.806,3.224,3.224,0,0,0-1.54-.8c-2,0-2.345,2.905-2.345,5.075V14.1h4.34c0.245,0,.35.245,0.35,0.735a0.812,0.812,0,0,1-.945.875c-0.245,0-2.94-.175-3.746-0.175V26.145Z"/><path class="a" d="M47.4,26.145c0,1.295,0,2.065,1.75,2.065,0.771,0,.91.035,0.91,0.42,0,0.455-.14.49-0.525,0.49-0.735,0-1.855-.07-3.465-0.07-2.8,0-3.4.07-3.71,0.07-0.245,0-.315-0.21-0.315-0.455,0-.35.07-0.455,0.735-0.455,1.505,0,1.785-.28,1.785-1.785V16.659c0-.421,0-1.12-0.665-1.12H41.975c-0.245,0-.42,0-0.42-0.455,0-.28.245-0.421,1.085-0.6,1.365-.314,1.715-0.385,1.82-1.96,0.35-5.146,4.061-9.626,9.7-9.626,0.91,0,3.255.35,3.255,1.891a1.679,1.679,0,0,1-1.82,1.715c-2.485,0-3.01-2-4.235-2-1.3,0-3.956.665-3.956,7.525V14.1h5.951c1.96,0,3.535-1.295,3.92-1.295,0.14,0,.21.175,0.21,0.385a31.712,31.712,0,0,0-.175,5.041v7.561c0,2,.07,2.415,1.61,2.415,0.77,0,.84.035,0.84,0.455,0,0.21,0,.455-0.35.455-0.175,0-.63-0.07-2.905-0.07-3.291,0-4.2.07-4.726,0.07-0.28,0-.28-0.21-0.28-0.385,0-.455.035-0.525,1.331-0.525a1.309,1.309,0,0,0,1.435-.84,35.467,35.467,0,0,0,.21-5.041V17.534a1.97,1.97,0,0,0-2-2.171H47.4V26.145Z"/><path class="a" d="M74.562,26.109a2,2,0,0,1,.6-0.56,0.727,0.727,0,0,1,.525.49,0.772,0.772,0,0,1-.28.524,7.892,7.892,0,0,1-6.125,2.976c-4.061,0-7.246-2.905-7.246-7.911,0-5.181,3.43-8.33,7.946-8.33,4.8,0,5.706,2.59,5.706,3.325a1.811,1.811,0,0,1-1.855,1.5c-1.12,0-1.26-.35-1.645-2.275a1.872,1.872,0,0,0-2.17-1.646c-2.206,0-4.936,1.681-4.936,7.421,0,1.575.595,5.951,5.95,5.951A6.4,6.4,0,0,0,74.562,26.109Z"/><path class="a" d="M80.65,19.6a12.755,12.755,0,0,0-.14,2,5.9,5.9,0,0,0,5.74,5.775,4.565,4.565,0,0,0,4.1-2.1,1.287,1.287,0,0,1,.525-0.595,0.737,0.737,0,0,1,.56.42,6.394,6.394,0,0,1-6.021,4.445c-5.006,0-7.631-3.08-7.631-7.98,0-5.006,3.4-8.4,7-8.4a5.858,5.858,0,0,1,6.266,6.056c0,0.351-.14.385-0.42,0.385H80.65Zm6.021-1.05a1,1,0,0,0,1.19-1.155c0-2.73-1.89-3.325-3.081-3.325-2.52,0-3.57,2.1-3.92,4.48H86.67Z"/><path class="a" d="M110.959,29.54a7.832,7.832,0,0,1-8.121-8.121,8.139,8.139,0,0,1,16.277,0C119.115,26.319,115.859,29.54,110.959,29.54Zm0-15.332c-3.641,0-4.795,3.781-4.795,7.211,0,2.976.7,7.211,4.795,7.211,4.131,0,4.831-4.235,4.831-7.211C115.79,17.989,114.635,14.208,110.959,14.208Z"/><path class="a" d="M127.094,26.145c0,1.295,0,2.065,1.75,2.065,1.295,0,1.436.035,1.436,0.42,0,0.455-.141.49-0.525,0.49-1.26,0-2.38-.07-3.99-0.07-2.8,0-3.4.07-3.711,0.07-0.244,0-.314-0.21-0.314-0.455,0-.35.07-0.455,0.735-0.455,1.5,0,1.785-.28,1.785-1.785V16.659c0-.421,0-1.12-0.665-1.12h-1.926c-0.245,0-.42,0-0.42-0.455,0-.28.245-0.421,1.085-0.6,1.365-.314,1.716-0.385,1.82-1.96,0.351-5.32,1.926-8.261,6.056-9.346a10.434,10.434,0,0,1,2.136-.28c0.909,0,2.205.35,2.205,1.5A1.564,1.564,0,0,1,132.9,6.123a3.129,3.129,0,0,1-1.925-.806,3.23,3.23,0,0,0-1.54-.8c-2,0-2.346,2.905-2.346,5.075V14.1h4.341c0.245,0,.35.245,0.35,0.735a0.813,0.813,0,0,1-.945.875c-0.245,0-2.94-.175-3.745-0.175V26.145Z"/><path class="a" d="M145.258,12.423c0-2.484-.035-3.325-0.07-4.936-0.035-2.064-.63-2.345-3.15-2.345-0.385,0-.385-0.28-0.385-0.595a0.377,0.377,0,0,1,.314-0.455c0.28,0,2.8.14,5.006,0.14,0.315,0,3.15-.14,4.971-0.14,8.365,0,9.24,5.5,9.24,6.931,0,5-3.465,7.561-8.226,7.561a21.9,21.9,0,0,1-4.235-.35c0,5.565.035,6.545,0.07,7.6,0.07,1.4.28,2.24,3.885,2.24,0.98,0,.98.21,0.98,0.595,0,0.315,0,.455-0.28.455-0.245,0-1.225-.07-6.405-0.07-5.146,0-5.285.07-5.53,0.07-0.28,0-.28-0.14-0.28-0.455,0-.385,0-0.595.98-0.595,2.765,0,2.975-.6,3.01-1.541,0.07-1.75.105-4.025,0.105-5.53V12.423Zm3.465,3.781c0,0.8.21,1.33,2,1.33,3.815,0,6.686-2.206,6.686-6.231,0-3.6-2.31-6.16-5.74-6.16-2.66,0-2.976,0-2.94,2.905V16.2Z"/><path class="a" d="M165.942,17.534c0-1.226-.315-1.926-2.065-2.1a0.328,0.328,0,0,1-.315-0.42,0.432,0.432,0,0,1,.28-0.49,15.639,15.639,0,0,0,4.9-1.715,0.41,0.41,0,0,1,.141.35c0,0.42-.176,1.295-0.176,3.186,1.155-1.295,3.046-3.045,4.9-3.045a1.991,1.991,0,0,1,2.24,1.96,1.724,1.724,0,0,1-1.715,1.75c-1.435,0-1.646-1.33-2.7-1.33a3.933,3.933,0,0,0-2.415,1.5,1.476,1.476,0,0,0-.245,1.016v7.945c0,1.295,0,2.065,1.75,2.065,1.295,0,1.436.035,1.436,0.42,0,0.455-.141.49-0.525,0.49-1.26,0-2.38-.07-3.99-0.07-2.8,0-3.4.07-4.061,0.07-0.245,0-.314-0.21-0.314-0.455,0-.35.42-0.455,1.085-0.455,1.5,0,1.785-.28,1.785-1.785V17.534Z"/><path class="a" d="M185.507,29.54a7.832,7.832,0,0,1-8.121-8.121,8.139,8.139,0,0,1,16.277,0C193.663,26.319,190.407,29.54,185.507,29.54Zm0-15.332c-3.641,0-4.795,3.781-4.795,7.211,0,2.976.7,7.211,4.795,7.211,4.131,0,4.831-4.235,4.831-7.211C190.338,17.989,189.183,14.208,185.507,14.208Z"/><path class="a" d="M206.122,27.58c4.8,0,4.761,3.115,4.761,4.165,0,5.285-5.846,6.825-10.116,6.825-2.275,0-4.516-.595-4.516-3.29,0-2.17,1.61-3.745,3.045-5.146A2.29,2.29,0,0,1,197.2,28c0-2.1,1.12-3.011,2.7-4.1-2.03-1.05-2.73-2.765-2.73-4.971,0-3.29,3.045-5.74,6.2-5.74a7.354,7.354,0,0,1,4.235,1.365,5.088,5.088,0,0,1,2.976-1.05c2.24,0,2.625,1.225,2.625,1.96a1.392,1.392,0,0,1-1.33,1.225c-0.91,0-1.75-2-2.38-2a2.637,2.637,0,0,0-1.33.455,6.5,6.5,0,0,1,1.33,3.4c0,3.78-2.38,6.021-6.23,6.021a8.018,8.018,0,0,1-2.521-.385,2.646,2.646,0,0,0-1.436,2.24c0,1.015.841,1.155,1.646,1.155h5.181Zm-5.6,2.66a4.661,4.661,0,0,0-2.275,3.5c0,0.49.141,3.221,5.041,3.221,3.99,0,5.846-1.226,5.846-3.956,0-2.135-1.3-2.765-3.57-2.765h-5.041Zm5.916-11.9c0-.525,0-4.235-2.94-4.235-3.256,0-3.291,4.165-3.291,5.391,0,2.065.7,4.165,3.15,4.165C206.228,23.659,206.438,19.844,206.438,18.339Z"/><path class="a" d="M216.517,17.534c0-1.226-.315-1.926-2.065-2.1a0.328,0.328,0,0,1-.315-0.42,0.432,0.432,0,0,1,.28-0.49,15.639,15.639,0,0,0,4.9-1.715,0.41,0.41,0,0,1,.141.35c0,0.42-.176,1.295-0.176,3.186,1.155-1.295,3.046-3.045,4.9-3.045a1.991,1.991,0,0,1,2.24,1.96,1.724,1.724,0,0,1-1.715,1.75c-1.435,0-1.646-1.33-2.7-1.33a3.933,3.933,0,0,0-2.415,1.5,1.476,1.476,0,0,0-.245,1.016v7.945c0,1.295,0,2.065,1.75,2.065,1.295,0,1.436.035,1.436,0.42,0,0.455-.141.49-0.525,0.49-1.26,0-2.38-.07-3.99-0.07-2.8,0-3.4.07-4.061,0.07-0.245,0-.314-0.21-0.314-0.455,0-.35.42-0.455,1.085-0.455,1.5,0,1.785-.28,1.785-1.785V17.534Z"/><path class="a" d="M238.951,27.16a0.559,0.559,0,0,0,.6.7c0.7,0,1.225-.806,1.5-0.806a0.579,0.579,0,0,1,.455.385c0,0.421-2.275,2.1-3.5,2.1-1.261,0-1.541-.8-1.926-2.03-2.065,1.61-3.045,2.03-4.516,2.03a3.044,3.044,0,0,1-3.36-3.115c0-1.785,1.051-3.256,7.911-5.811V17.429c0-1.82-2.1-2.766-2.94-2.766a4.08,4.08,0,0,0-2.485,1.61,15.323,15.323,0,0,1,.455,1.75,1.483,1.483,0,0,1-1.715,1.331,1.342,1.342,0,0,1-1.471-1.3c0-.944.245-1.4,2.871-3.15,2.625-1.715,3.01-1.75,3.78-1.75,1.12,0,4.34.84,4.34,4.025V27.16Zm-2.835-5.181a0.322,0.322,0,0,0-.245-0.351,18.176,18.176,0,0,0-3.465,1.716,2.54,2.54,0,0,0-1.155,2.555c0,1.085.455,2.171,1.645,2.171,1.33,0,3.221-1.226,3.221-1.855V21.979Z"/><path class="a" d="M245.426,17.534c0-1.226-.315-1.926-2.065-2.1a0.328,0.328,0,0,1-.315-0.42,0.432,0.432,0,0,1,.28-0.49,15.639,15.639,0,0,0,4.9-1.715c0.07,0,.105.1,0.105,0.385,0,0.21-.07.98-0.07,2.346a14.349,14.349,0,0,1,6.161-2.24,4.269,4.269,0,0,1,3.815,2.274c1.89-1.12,3.255-2.274,5.355-2.274,1.189,0,4.62.175,4.62,4.27V26.88c0,0.595.105,1.26,2.275,1.26,0.35,0,.35.21,0.35,0.455,0,0.21,0,.455-0.489.455-1.051,0-1.681-.069-3.536-0.069-2.835,0-3.4.069-3.675,0.069-0.21,0-.245-0.245-0.245-0.42a0.451,0.451,0,0,1,.49-0.49c1.68,0,2-.14,2-1.295V17.779c0-.455-0.28-2.871-3.57-2.871-1.54,0-3.57,1.54-3.57,1.926v8.961c0,2,.069,2.415,1.609,2.415,0.945,0,1.016.035,1.016,0.455,0,0.21,0,.455-0.351.455-0.175,0-.63-0.07-3.675-0.07-2.835,0-3.4.07-3.676,0.07-0.21,0-.245-0.245-0.245-0.42a0.451,0.451,0,0,1,.49-0.49c1.681,0,2-.14,2-1.365V17.779c0-1.331-.28-2.871-3.57-2.871-1.54,0-3.57,1.54-3.57,1.926v8.961c0,2,.07,2.415,1.61,2.415,0.945,0,1.015.035,1.015,0.455,0,0.21,0,.455-0.35.455-0.175,0-.63-0.07-3.08-0.07-3.291,0-3.851.07-4.376,0.07-0.279,0-.279-0.21-0.279-0.385,0-.455.034-0.525,0.979-0.525a1.309,1.309,0,0,0,1.436-.84,35.545,35.545,0,0,0,.21-5.041V17.534Z"/><path class="a" d="M283.051,24.779c0,1.716-.91,4.761-5.706,4.761-0.63,0-2.66-.28-4.025-0.28a0.225,0.225,0,0,1-.175-0.175c-0.035-.35-0.8-3.431-0.8-3.78,0-.21.49-0.21,0.63-0.21,0.84,0,1.05,3.535,4.41,3.535a2.981,2.981,0,0,0,3.186-3.115c0-3.676-7.841-2.485-7.841-7.456,0-2.87,2.38-4.76,5.32-4.76a28.039,28.039,0,0,1,3.78.314,1,1,0,0,1,.525.98c0.07,1.435.385,2.345,0.385,2.8a0.328,0.328,0,0,1-.385.28,0.616,0.616,0,0,1-.7-0.49c-0.245-.595-1.155-2.976-3.641-2.976a2.53,2.53,0,0,0-2.8,2.626,2.657,2.657,0,0,0,1.646,2.345C280.53,20.929,283.051,20.824,283.051,24.779Z"/><path class="b" d="M15.062,69.54C5.646,69.54,2.11,62.049,2.11,57.358c0-8.436,6.266-13.581,12.951-13.581,7.421,0,12.986,4.445,12.986,13.406C28.048,62.049,24.513,69.54,15.062,69.54Zm0-24.853c-8.156,0-8.786,9.136-8.786,12.006,0,4.831,2.345,11.937,8.786,11.937,8.261,0,8.821-7.806,8.821-11.971C23.882,51.653,21.537,44.688,15.062,44.688Z"/><path class="b" d="M36.375,66.145c0,1.295,0,2.065,1.75,2.065,1.3,0,1.436.035,1.436,0.42,0,0.455-.14.49-0.525,0.49-1.26,0-2.38-.07-3.99-0.07-2.8,0-3.4.07-3.71,0.07-0.245,0-.315-0.21-0.315-0.455,0-.35.07-0.455,0.735-0.455,1.505,0,1.785-.28,1.785-1.785V56.659c0-.421,0-1.12-0.665-1.12H30.95c-0.245,0-.42,0-0.42-0.455,0-.28.245-0.421,1.085-0.6,1.365-.314,1.715-0.385,1.82-1.96,0.35-5.32,1.925-8.261,6.056-9.346a10.434,10.434,0,0,1,2.135-.28c0.91,0,2.205.35,2.205,1.5a1.563,1.563,0,0,1-1.645,1.716,3.131,3.131,0,0,1-1.925-.806,3.224,3.224,0,0,0-1.54-.8c-2,0-2.345,2.905-2.345,5.075V54.1h4.34c0.245,0,.35.245,0.35,0.735a0.812,0.812,0,0,1-.945.875c-0.245,0-2.94-.175-3.746-0.175V66.145Z"/><path class="b" d="M47.4,66.145c0,1.295,0,2.065,1.75,2.065,0.771,0,.91.035,0.91,0.42,0,0.455-.14.49-0.525,0.49-0.735,0-1.855-.07-3.465-0.07-2.8,0-3.4.07-3.71,0.07-0.245,0-.315-0.21-0.315-0.455,0-.35.07-0.455,0.735-0.455,1.505,0,1.785-.28,1.785-1.785V56.659c0-.421,0-1.12-0.665-1.12H41.974c-0.245,0-.42,0-0.42-0.455,0-.28.245-0.421,1.085-0.6,1.365-.314,1.715-0.385,1.82-1.96,0.35-5.146,4.061-9.626,9.7-9.626,0.91,0,3.255.35,3.255,1.891a1.679,1.679,0,0,1-1.82,1.715c-2.485,0-3.01-2-4.235-2-1.3,0-3.956.665-3.956,7.525V54.1h5.951c1.96,0,3.535-1.295,3.92-1.295,0.14,0,.21.175,0.21,0.385a31.712,31.712,0,0,0-.175,5.041v7.561c0,2,.07,2.415,1.61,2.415,0.77,0,.84.035,0.84,0.455,0,0.21,0,.455-0.35.455-0.175,0-.63-0.07-2.905-0.07-3.291,0-4.2.07-4.726,0.07-0.28,0-.28-0.21-0.28-0.385,0-.455.035-0.525,1.331-0.525a1.309,1.309,0,0,0,1.435-.84,35.467,35.467,0,0,0,.21-5.041V57.534a1.97,1.97,0,0,0-2-2.171H47.4V66.145Z"/><path class="b" d="M74.561,66.109a2,2,0,0,1,.6-0.56,0.727,0.727,0,0,1,.525.49,0.772,0.772,0,0,1-.28.524,7.892,7.892,0,0,1-6.125,2.976c-4.061,0-7.246-2.905-7.246-7.911,0-5.181,3.43-8.33,7.946-8.33,4.8,0,5.706,2.59,5.706,3.325a1.811,1.811,0,0,1-1.855,1.5c-1.12,0-1.26-.35-1.645-2.275a1.872,1.872,0,0,0-2.17-1.646c-2.206,0-4.936,1.681-4.936,7.421,0,1.575.595,5.951,5.95,5.951A6.4,6.4,0,0,0,74.561,66.109Z"/><path class="b" d="M80.649,59.6a12.755,12.755,0,0,0-.14,2,5.9,5.9,0,0,0,5.74,5.775,4.565,4.565,0,0,0,4.1-2.1,1.287,1.287,0,0,1,.525-0.595,0.737,0.737,0,0,1,.56.42A6.394,6.394,0,0,1,85.41,69.54c-5.006,0-7.631-3.08-7.631-7.98,0-5.006,3.4-8.4,7-8.4a5.858,5.858,0,0,1,6.266,6.056c0,0.351-.14.385-0.42,0.385H80.649Zm6.021-1.05a1,1,0,0,0,1.19-1.155c0-2.73-1.89-3.325-3.081-3.325-2.52,0-3.57,2.1-3.92,4.48h5.811Z"/><path class="b" d="M110.959,69.54a7.832,7.832,0,0,1-8.121-8.121,8.139,8.139,0,0,1,16.277,0C119.115,66.319,115.859,69.54,110.959,69.54Zm0-15.332c-3.641,0-4.795,3.781-4.795,7.211,0,2.976.7,7.211,4.795,7.211,4.131,0,4.831-4.235,4.831-7.211C115.79,57.989,114.635,54.208,110.959,54.208Z"/><path class="b" d="M127.094,66.145c0,1.295,0,2.065,1.75,2.065,1.295,0,1.436.035,1.436,0.42,0,0.455-.141.49-0.525,0.49-1.26,0-2.38-.07-3.99-0.07-2.8,0-3.4.07-3.711,0.07-0.244,0-.314-0.21-0.314-0.455,0-.35.07-0.455,0.735-0.455,1.5,0,1.785-.28,1.785-1.785V56.659c0-.421,0-1.12-0.665-1.12h-1.926c-0.245,0-.42,0-0.42-0.455,0-.28.245-0.421,1.085-0.6,1.365-.314,1.716-0.385,1.82-1.96,0.351-5.32,1.926-8.261,6.056-9.346a10.434,10.434,0,0,1,2.136-.28c0.909,0,2.205.35,2.205,1.5a1.564,1.564,0,0,1-1.646,1.716,3.129,3.129,0,0,1-1.925-.806,3.23,3.23,0,0,0-1.54-.8c-2,0-2.346,2.905-2.346,5.075V54.1h4.341c0.245,0,.35.245,0.35,0.735a0.813,0.813,0,0,1-.945.875c-0.245,0-2.94-.175-3.745-0.175V66.145Z"/><path class="b" d="M145.258,52.423c0-2.484-.035-3.325-0.07-4.936-0.035-2.064-.63-2.345-3.15-2.345-0.385,0-.385-0.28-0.385-0.595a0.377,0.377,0,0,1,.314-0.455c0.28,0,2.8.14,5.006,0.14,0.315,0,3.15-.14,4.971-0.14,8.365,0,9.24,5.5,9.24,6.931,0,5-3.465,7.561-8.226,7.561a21.9,21.9,0,0,1-4.235-.35c0,5.565.035,6.545,0.07,7.6,0.07,1.4.28,2.24,3.885,2.24,0.98,0,.98.21,0.98,0.595,0,0.315,0,.455-0.28.455-0.245,0-1.225-.07-6.405-0.07-5.146,0-5.285.07-5.53,0.07-0.28,0-.28-0.14-0.28-0.455,0-.385,0-0.595.98-0.595,2.765,0,2.975-.6,3.01-1.541,0.07-1.75.105-4.025,0.105-5.53V52.423Zm3.465,3.781c0,0.8.21,1.33,2,1.33,3.815,0,6.686-2.206,6.686-6.231,0-3.6-2.31-6.16-5.74-6.16-2.66,0-2.976,0-2.94,2.905V56.2Z"/><path class="b" d="M165.942,57.534c0-1.226-.315-1.926-2.065-2.1a0.328,0.328,0,0,1-.315-0.42,0.432,0.432,0,0,1,.28-0.49,15.639,15.639,0,0,0,4.9-1.715,0.41,0.41,0,0,1,.141.35c0,0.42-.176,1.295-0.176,3.186,1.155-1.295,3.046-3.045,4.9-3.045a1.991,1.991,0,0,1,2.24,1.96,1.724,1.724,0,0,1-1.715,1.75c-1.435,0-1.646-1.33-2.7-1.33a3.933,3.933,0,0,0-2.415,1.5,1.476,1.476,0,0,0-.245,1.016v7.945c0,1.295,0,2.065,1.75,2.065,1.295,0,1.436.035,1.436,0.42,0,0.455-.141.49-0.525,0.49-1.26,0-2.38-.07-3.99-0.07-2.8,0-3.4.07-4.061,0.07-0.245,0-.314-0.21-0.314-0.455,0-.35.42-0.455,1.085-0.455,1.5,0,1.785-.28,1.785-1.785V57.534Z"/><path class="b" d="M185.507,69.54a7.832,7.832,0,0,1-8.121-8.121,8.139,8.139,0,0,1,16.277,0C193.663,66.319,190.407,69.54,185.507,69.54Zm0-15.332c-3.641,0-4.795,3.781-4.795,7.211,0,2.976.7,7.211,4.795,7.211,4.131,0,4.831-4.235,4.831-7.211C190.338,57.989,189.183,54.208,185.507,54.208Z"/><path class="b" d="M206.122,67.58c4.8,0,4.761,3.115,4.761,4.165,0,5.285-5.846,6.825-10.116,6.825-2.275,0-4.516-.595-4.516-3.29,0-2.17,1.61-3.745,3.045-5.146A2.29,2.29,0,0,1,197.2,68c0-2.1,1.12-3.011,2.7-4.1-2.03-1.05-2.73-2.765-2.73-4.971,0-3.29,3.045-5.74,6.2-5.74a7.354,7.354,0,0,1,4.235,1.365,5.088,5.088,0,0,1,2.976-1.05c2.24,0,2.625,1.225,2.625,1.96a1.392,1.392,0,0,1-1.33,1.225c-0.91,0-1.75-2-2.38-2a2.637,2.637,0,0,0-1.33.455,6.5,6.5,0,0,1,1.33,3.4c0,3.78-2.38,6.021-6.23,6.021a8.018,8.018,0,0,1-2.521-.385,2.646,2.646,0,0,0-1.436,2.24c0,1.015.841,1.155,1.646,1.155h5.181Zm-5.6,2.66a4.661,4.661,0,0,0-2.275,3.5c0,0.49.141,3.221,5.041,3.221,3.99,0,5.846-1.226,5.846-3.956,0-2.135-1.3-2.765-3.57-2.765h-5.041Zm5.916-11.9c0-.525,0-4.235-2.94-4.235-3.256,0-3.291,4.165-3.291,5.391,0,2.065.7,4.165,3.15,4.165C206.228,63.659,206.438,59.844,206.438,58.339Z"/><path class="b" d="M216.517,57.534c0-1.226-.315-1.926-2.065-2.1a0.328,0.328,0,0,1-.315-0.42,0.432,0.432,0,0,1,.28-0.49,15.639,15.639,0,0,0,4.9-1.715,0.41,0.41,0,0,1,.141.35c0,0.42-.176,1.295-0.176,3.186,1.155-1.295,3.046-3.045,4.9-3.045a1.991,1.991,0,0,1,2.24,1.96,1.724,1.724,0,0,1-1.715,1.75c-1.435,0-1.646-1.33-2.7-1.33a3.933,3.933,0,0,0-2.415,1.5,1.476,1.476,0,0,0-.245,1.016v7.945c0,1.295,0,2.065,1.75,2.065,1.295,0,1.436.035,1.436,0.42,0,0.455-.141.49-0.525,0.49-1.26,0-2.38-.07-3.99-0.07-2.8,0-3.4.07-4.061,0.07-0.245,0-.314-0.21-0.314-0.455,0-.35.42-0.455,1.085-0.455,1.5,0,1.785-.28,1.785-1.785V57.534Z"/><path class="b" d="M238.951,67.16a0.559,0.559,0,0,0,.6.7c0.7,0,1.225-.806,1.5-0.806a0.579,0.579,0,0,1,.455.385c0,0.421-2.275,2.1-3.5,2.1-1.261,0-1.541-.8-1.926-2.03-2.065,1.61-3.045,2.03-4.516,2.03a3.044,3.044,0,0,1-3.36-3.115c0-1.785,1.051-3.256,7.911-5.811V57.429c0-1.82-2.1-2.766-2.94-2.766a4.08,4.08,0,0,0-2.485,1.61,15.323,15.323,0,0,1,.455,1.75,1.483,1.483,0,0,1-1.715,1.331,1.342,1.342,0,0,1-1.471-1.3c0-.944.245-1.4,2.871-3.15,2.625-1.715,3.01-1.75,3.78-1.75,1.12,0,4.34.84,4.34,4.025V67.16Zm-2.835-5.181a0.322,0.322,0,0,0-.245-0.351,18.176,18.176,0,0,0-3.465,1.716,2.54,2.54,0,0,0-1.155,2.555c0,1.085.455,2.171,1.645,2.171,1.33,0,3.221-1.226,3.221-1.855V61.979Z"/><path class="b" d="M245.426,57.534c0-1.226-.315-1.926-2.065-2.1a0.328,0.328,0,0,1-.315-0.42,0.432,0.432,0,0,1,.28-0.49,15.639,15.639,0,0,0,4.9-1.715c0.07,0,.105.1,0.105,0.385,0,0.21-.07.98-0.07,2.346a14.349,14.349,0,0,1,6.161-2.24,4.269,4.269,0,0,1,3.815,2.274c1.89-1.12,3.255-2.274,5.355-2.274,1.189,0,4.62.175,4.62,4.27V66.88c0,0.595.105,1.26,2.275,1.26,0.35,0,.35.21,0.35,0.455,0,0.21,0,.455-0.489.455-1.051,0-1.681-.069-3.536-0.069-2.835,0-3.4.069-3.675,0.069-0.21,0-.245-0.245-0.245-0.42a0.451,0.451,0,0,1,.49-0.49c1.68,0,2-.14,2-1.295V57.779c0-.455-0.28-2.871-3.57-2.871-1.54,0-3.57,1.54-3.57,1.926v8.961c0,2,.069,2.415,1.609,2.415,0.945,0,1.016.035,1.016,0.455,0,0.21,0,.455-0.351.455-0.175,0-.63-0.07-3.675-0.07-2.835,0-3.4.07-3.676,0.07-0.21,0-.245-0.245-0.245-0.42a0.451,0.451,0,0,1,.49-0.49c1.681,0,2-.14,2-1.365V57.779c0-1.331-.28-2.871-3.57-2.871-1.54,0-3.57,1.54-3.57,1.926v8.961c0,2,.07,2.415,1.61,2.415,0.945,0,1.015.035,1.015,0.455,0,0.21,0,.455-0.35.455-0.175,0-.63-0.07-3.08-0.07-3.291,0-3.851.07-4.376,0.07-0.279,0-.279-0.21-0.279-0.385,0-.455.034-0.525,0.979-0.525a1.309,1.309,0,0,0,1.436-.84,35.545,35.545,0,0,0,.21-5.041V57.534Z"/><path class="b" d="M283.051,64.779c0,1.716-.91,4.761-5.706,4.761-0.63,0-2.66-.28-4.025-0.28a0.225,0.225,0,0,1-.175-0.175c-0.035-.35-0.8-3.431-0.8-3.78,0-.21.49-0.21,0.63-0.21,0.84,0,1.05,3.535,4.41,3.535a2.981,2.981,0,0,0,3.186-3.115c0-3.676-7.841-2.485-7.841-7.456,0-2.87,2.38-4.76,5.32-4.76a28.039,28.039,0,0,1,3.78.314,1,1,0,0,1,.525.98c0.07,1.435.385,2.345,0.385,2.8a0.328,0.328,0,0,1-.385.28,0.616,0.616,0,0,1-.7-0.49c-0.245-.595-1.155-2.976-3.641-2.976a2.53,2.53,0,0,0-2.8,2.626,2.657,2.657,0,0,0,1.646,2.345C280.53,60.929,283.051,60.824,283.051,64.779Z"/><path d="M15.062,109.54c-9.416,0-12.951-7.491-12.951-12.182,0-8.436,6.266-13.581,12.951-13.581,7.421,0,12.986,4.445,12.986,13.406C28.048,102.049,24.513,109.54,15.062,109.54Zm0-24.853c-8.156,0-8.786,9.136-8.786,12.006,0,4.831,2.345,11.937,8.786,11.937,8.261,0,8.821-7.806,8.821-11.971C23.882,91.653,21.537,84.688,15.062,84.688Z"/><path d="M36.375,106.145c0,1.295,0,2.065,1.75,2.065,1.3,0,1.436.035,1.436,0.42,0,0.455-.14.49-0.525,0.49-1.26,0-2.38-.07-3.99-0.07-2.8,0-3.4.07-3.71,0.07-0.245,0-.315-0.21-0.315-0.455,0-.35.07-0.455,0.735-0.455,1.505,0,1.785-.28,1.785-1.785V96.659c0-.421,0-1.12-0.665-1.12H30.95c-0.245,0-.42,0-0.42-0.455,0-.28.245-0.421,1.085-0.6,1.365-.314,1.715-0.385,1.82-1.96,0.35-5.32,1.925-8.261,6.056-9.346a10.434,10.434,0,0,1,2.135-.28c0.91,0,2.205.35,2.205,1.5a1.563,1.563,0,0,1-1.645,1.716,3.131,3.131,0,0,1-1.925-.806,3.224,3.224,0,0,0-1.54-.8c-2,0-2.345,2.905-2.345,5.075V94.1h4.34c0.245,0,.35.245,0.35,0.735a0.812,0.812,0,0,1-.945.875c-0.245,0-2.94-.175-3.746-0.175v10.605Z"/><path d="M47.4,106.145c0,1.295,0,2.065,1.75,2.065,0.771,0,.91.035,0.91,0.42,0,0.455-.14.49-0.525,0.49-0.735,0-1.855-.07-3.465-0.07-2.8,0-3.4.07-3.71,0.07-0.245,0-.315-0.21-0.315-0.455,0-.35.07-0.455,0.735-0.455,1.505,0,1.785-.28,1.785-1.785V96.659c0-.421,0-1.12-0.665-1.12H41.974c-0.245,0-.42,0-0.42-0.455,0-.28.245-0.421,1.085-0.6,1.365-.314,1.715-0.385,1.82-1.96,0.35-5.146,4.061-9.626,9.7-9.626,0.91,0,3.255.35,3.255,1.891a1.679,1.679,0,0,1-1.82,1.715c-2.485,0-3.01-2-4.235-2-1.3,0-3.956.665-3.956,7.525V94.1h5.951c1.96,0,3.535-1.295,3.92-1.295,0.14,0,.21.175,0.21,0.385a31.712,31.712,0,0,0-.175,5.041v7.561c0,2,.07,2.415,1.61,2.415,0.77,0,.84.035,0.84,0.455,0,0.21,0,.455-0.35.455-0.175,0-.63-0.07-2.905-0.07-3.291,0-4.2.07-4.726,0.07-0.28,0-.28-0.21-0.28-0.385,0-.455.035-0.525,1.331-0.525a1.309,1.309,0,0,0,1.435-.84,35.467,35.467,0,0,0,.21-5.041V97.534a1.97,1.97,0,0,0-2-2.171H47.4v10.781Z"/><path d="M74.561,106.109a2,2,0,0,1,.6-0.56,0.727,0.727,0,0,1,.525.49,0.772,0.772,0,0,1-.28.524,7.892,7.892,0,0,1-6.125,2.976c-4.061,0-7.246-2.905-7.246-7.911,0-5.181,3.43-8.33,7.946-8.33,4.8,0,5.706,2.59,5.706,3.325a1.811,1.811,0,0,1-1.855,1.5c-1.12,0-1.26-.35-1.645-2.275a1.872,1.872,0,0,0-2.17-1.646c-2.206,0-4.936,1.681-4.936,7.421,0,1.575.595,5.951,5.95,5.951A6.4,6.4,0,0,0,74.561,106.109Z"/><path d="M80.649,99.6a12.755,12.755,0,0,0-.14,2,5.9,5.9,0,0,0,5.74,5.775,4.565,4.565,0,0,0,4.1-2.1,1.287,1.287,0,0,1,.525-0.595,0.737,0.737,0,0,1,.56.42,6.394,6.394,0,0,1-6.021,4.445c-5.006,0-7.631-3.08-7.631-7.98,0-5.006,3.4-8.4,7-8.4a5.858,5.858,0,0,1,6.266,6.056c0,0.351-.14.385-0.42,0.385H80.649Zm6.021-1.05a1,1,0,0,0,1.19-1.155c0-2.73-1.89-3.325-3.081-3.325-2.52,0-3.57,2.1-3.92,4.48h5.811Z"/><path d="M110.959,109.54a7.832,7.832,0,0,1-8.121-8.121,8.139,8.139,0,0,1,16.277,0C119.115,106.319,115.859,109.54,110.959,109.54Zm0-15.332c-3.641,0-4.795,3.781-4.795,7.211,0,2.976.7,7.211,4.795,7.211,4.131,0,4.831-4.235,4.831-7.211C115.79,97.989,114.635,94.208,110.959,94.208Z"/><path d="M127.094,106.145c0,1.295,0,2.065,1.75,2.065,1.295,0,1.436.035,1.436,0.42,0,0.455-.141.49-0.525,0.49-1.26,0-2.38-.07-3.99-0.07-2.8,0-3.4.07-3.711,0.07-0.244,0-.314-0.21-0.314-0.455,0-.35.07-0.455,0.735-0.455,1.5,0,1.785-.28,1.785-1.785V96.659c0-.421,0-1.12-0.665-1.12h-1.926c-0.245,0-.42,0-0.42-0.455,0-.28.245-0.421,1.085-0.6,1.365-.314,1.716-0.385,1.82-1.96,0.351-5.32,1.926-8.261,6.056-9.346a10.434,10.434,0,0,1,2.136-.28c0.909,0,2.205.35,2.205,1.5a1.564,1.564,0,0,1-1.646,1.716,3.129,3.129,0,0,1-1.925-.806,3.23,3.23,0,0,0-1.54-.8c-2,0-2.346,2.905-2.346,5.075V94.1h4.341c0.245,0,.35.245,0.35,0.735a0.813,0.813,0,0,1-.945.875c-0.245,0-2.94-.175-3.745-0.175v10.605Z"/><path d="M145.258,92.423c0-2.484-.035-3.325-0.07-4.936-0.035-2.064-.63-2.345-3.15-2.345-0.385,0-.385-0.28-0.385-0.595a0.377,0.377,0,0,1,.314-0.455c0.28,0,2.8.14,5.006,0.14,0.315,0,3.15-.14,4.971-0.14,8.365,0,9.24,5.5,9.24,6.931,0,5-3.465,7.561-8.226,7.561a21.9,21.9,0,0,1-4.235-.35c0,5.565.035,6.545,0.07,7.6,0.07,1.4.28,2.24,3.885,2.24,0.98,0,.98.21,0.98,0.595,0,0.315,0,.455-0.28.455-0.245,0-1.225-.07-6.405-0.07-5.146,0-5.285.07-5.53,0.07-0.28,0-.28-0.14-0.28-0.455,0-.385,0-0.595.98-0.595,2.765,0,2.975-.6,3.01-1.541,0.07-1.75.105-4.025,0.105-5.53V92.423Zm3.465,3.781c0,0.8.21,1.33,2,1.33,3.815,0,6.686-2.206,6.686-6.231,0-3.6-2.31-6.16-5.74-6.16-2.66,0-2.976,0-2.94,2.905V96.2Z"/><path d="M165.942,97.534c0-1.226-.315-1.926-2.065-2.1a0.328,0.328,0,0,1-.315-0.42,0.432,0.432,0,0,1,.28-0.49,15.639,15.639,0,0,0,4.9-1.715,0.41,0.41,0,0,1,.141.35c0,0.42-.176,1.295-0.176,3.186,1.155-1.295,3.046-3.045,4.9-3.045a1.991,1.991,0,0,1,2.24,1.96,1.724,1.724,0,0,1-1.715,1.75c-1.435,0-1.646-1.33-2.7-1.33a3.933,3.933,0,0,0-2.415,1.5,1.476,1.476,0,0,0-.245,1.016v7.945c0,1.295,0,2.065,1.75,2.065,1.295,0,1.436.035,1.436,0.42,0,0.455-.141.49-0.525,0.49-1.26,0-2.38-.07-3.99-0.07-2.8,0-3.4.07-4.061,0.07-0.245,0-.314-0.21-0.314-0.455,0-.35.42-0.455,1.085-0.455,1.5,0,1.785-.28,1.785-1.785V97.534Z"/><path d="M185.507,109.54a7.832,7.832,0,0,1-8.121-8.121,8.139,8.139,0,0,1,16.277,0C193.663,106.319,190.407,109.54,185.507,109.54Zm0-15.332c-3.641,0-4.795,3.781-4.795,7.211,0,2.976.7,7.211,4.795,7.211,4.131,0,4.831-4.235,4.831-7.211C190.338,97.989,189.183,94.208,185.507,94.208Z"/><path d="M206.122,107.58c4.8,0,4.761,3.115,4.761,4.165,0,5.285-5.846,6.825-10.116,6.825-2.275,0-4.516-.595-4.516-3.29,0-2.17,1.61-3.745,3.045-5.146A2.29,2.29,0,0,1,197.2,108c0-2.1,1.12-3.011,2.7-4.1-2.03-1.05-2.73-2.765-2.73-4.971,0-3.29,3.045-5.74,6.2-5.74a7.354,7.354,0,0,1,4.235,1.365,5.088,5.088,0,0,1,2.976-1.05c2.24,0,2.625,1.225,2.625,1.96a1.392,1.392,0,0,1-1.33,1.225c-0.91,0-1.75-2-2.38-2a2.637,2.637,0,0,0-1.33.455,6.5,6.5,0,0,1,1.33,3.4c0,3.78-2.38,6.021-6.23,6.021a8.018,8.018,0,0,1-2.521-.385,2.646,2.646,0,0,0-1.436,2.24c0,1.015.841,1.155,1.646,1.155h5.181Zm-5.6,2.66a4.661,4.661,0,0,0-2.275,3.5c0,0.49.141,3.221,5.041,3.221,3.99,0,5.846-1.226,5.846-3.956,0-2.135-1.3-2.765-3.57-2.765h-5.041Zm5.916-11.9c0-.525,0-4.235-2.94-4.235-3.256,0-3.291,4.165-3.291,5.391,0,2.065.7,4.165,3.15,4.165C206.228,103.659,206.438,99.844,206.438,98.339Z"/><path d="M216.517,97.534c0-1.226-.315-1.926-2.065-2.1a0.328,0.328,0,0,1-.315-0.42,0.432,0.432,0,0,1,.28-0.49,15.639,15.639,0,0,0,4.9-1.715,0.41,0.41,0,0,1,.141.35c0,0.42-.176,1.295-0.176,3.186,1.155-1.295,3.046-3.045,4.9-3.045a1.991,1.991,0,0,1,2.24,1.96,1.724,1.724,0,0,1-1.715,1.75c-1.435,0-1.646-1.33-2.7-1.33a3.933,3.933,0,0,0-2.415,1.5,1.476,1.476,0,0,0-.245,1.016v7.945c0,1.295,0,2.065,1.75,2.065,1.295,0,1.436.035,1.436,0.42,0,0.455-.141.49-0.525,0.49-1.26,0-2.38-.07-3.99-0.07-2.8,0-3.4.07-4.061,0.07-0.245,0-.314-0.21-0.314-0.455,0-.35.42-0.455,1.085-0.455,1.5,0,1.785-.28,1.785-1.785V97.534Z"/><path d="M238.951,107.16a0.559,0.559,0,0,0,.6.7c0.7,0,1.225-.806,1.5-0.806a0.579,0.579,0,0,1,.455.385c0,0.421-2.275,2.1-3.5,2.1-1.261,0-1.541-.8-1.926-2.03-2.065,1.61-3.045,2.03-4.516,2.03a3.044,3.044,0,0,1-3.36-3.115c0-1.785,1.051-3.256,7.911-5.811V97.429c0-1.82-2.1-2.766-2.94-2.766a4.08,4.08,0,0,0-2.485,1.61,15.323,15.323,0,0,1,.455,1.75,1.483,1.483,0,0,1-1.715,1.331,1.342,1.342,0,0,1-1.471-1.3c0-.944.245-1.4,2.871-3.15,2.625-1.715,3.01-1.75,3.78-1.75,1.12,0,4.34.84,4.34,4.025v9.977Zm-2.835-5.181a0.322,0.322,0,0,0-.245-0.351,18.176,18.176,0,0,0-3.465,1.716,2.54,2.54,0,0,0-1.155,2.555c0,1.085.455,2.171,1.645,2.171,1.33,0,3.221-1.226,3.221-1.855v-4.235Z"/><path d="M245.426,97.534c0-1.226-.315-1.926-2.065-2.1a0.328,0.328,0,0,1-.315-0.42,0.432,0.432,0,0,1,.28-0.49,15.639,15.639,0,0,0,4.9-1.715c0.07,0,.105.1,0.105,0.385,0,0.21-.07.98-0.07,2.346a14.349,14.349,0,0,1,6.161-2.24,4.269,4.269,0,0,1,3.815,2.274c1.89-1.12,3.255-2.274,5.355-2.274,1.189,0,4.62.175,4.62,4.27v9.312c0,0.595.105,1.26,2.275,1.26,0.35,0,.35.21,0.35,0.455,0,0.21,0,.455-0.489.455-1.051,0-1.681-.069-3.536-0.069-2.835,0-3.4.069-3.675,0.069-0.21,0-.245-0.245-0.245-0.42a0.451,0.451,0,0,1,.49-0.49c1.68,0,2-.14,2-1.295V97.779c0-.455-0.28-2.871-3.57-2.871-1.54,0-3.57,1.54-3.57,1.926v8.961c0,2,.069,2.415,1.609,2.415,0.945,0,1.016.035,1.016,0.455,0,0.21,0,.455-0.351.455-0.175,0-.63-0.07-3.675-0.07-2.835,0-3.4.07-3.676,0.07-0.21,0-.245-0.245-0.245-0.42a0.451,0.451,0,0,1,.49-0.49c1.681,0,2-.14,2-1.365V97.779c0-1.331-.28-2.871-3.57-2.871-1.54,0-3.57,1.54-3.57,1.926v8.961c0,2,.07,2.415,1.61,2.415,0.945,0,1.015.035,1.015,0.455,0,0.21,0,.455-0.35.455-0.175,0-.63-0.07-3.08-0.07-3.291,0-3.851.07-4.376,0.07-0.279,0-.279-0.21-0.279-0.385,0-.455.034-0.525,0.979-0.525a1.309,1.309,0,0,0,1.436-.84,35.545,35.545,0,0,0,.21-5.041V97.534Z"/><path d="M283.051,104.779c0,1.716-.91,4.761-5.706,4.761-0.63,0-2.66-.28-4.025-0.28a0.225,0.225,0,0,1-.175-0.175c-0.035-.35-0.8-3.431-0.8-3.78,0-.21.49-0.21,0.63-0.21,0.84,0,1.05,3.535,4.41,3.535a2.981,2.981,0,0,0,3.186-3.115c0-3.676-7.841-2.485-7.841-7.456,0-2.87,2.38-4.76,5.32-4.76a28.039,28.039,0,0,1,3.78.314,1,1,0,0,1,.525.98c0.07,1.435.385,2.345,0.385,2.8a0.328,0.328,0,0,1-.385.28,0.616,0.616,0,0,1-.7-0.49c-0.245-.595-1.155-2.976-3.641-2.976a2.53,2.53,0,0,0-2.8,2.626,2.657,2.657,0,0,0,1.646,2.345C280.53,100.929,283.051,100.824,283.051,104.779Z"/></svg>