<?xml version="1.0" encoding="utf-8"?>
<!-- Generator: Adobe Illustrator 18.1.0, SVG Export Plug-In . SVG Version: 6.00 Build 0)  -->
<!DOCTYPE svg PUBLIC "-//W3C//DTD SVG 1.0//EN" "http://www.w3.org/TR/2001/REC-SVG-20010904/DTD/svg10.dtd">
<svg version="1.0" id="Layer_1" xmlns="http://www.w3.org/2000/svg" xmlns:xlink="http://www.w3.org/1999/xlink" x="0px" y="0px"
	 width="229px" height="54px" viewBox="0 0 229 54" enable-background="new 0 0 229 54" xml:space="preserve">
<g>
	<path fill="#FFFFFF" d="M5.1,11.7c0,3.2,1.3,5.9,5.3,5.9c2.8,0,5.2-1.5,5.2-7.2V5.8c0-3.3-0.7-3.3-3.1-3.3c-0.2,0-0.2-0.1-0.2-0.4
		c0-0.3,0.1-0.4,0.2-0.4c0.4,0,1.9,0.1,3.5,0.1c0.7,0,2.7-0.1,3.1-0.1c0.2,0,0.3,0,0.3,0.4c0,0.1,0,0.3-0.2,0.3
		c-2.3,0-2.7,0-2.7,2.8v5.6c0,6.4-4.1,8.1-6.8,8.1c-5.3,0-6.8-3.5-6.8-6.1V7.4c0-1.7,0-2.2,0-3.3c0-1.4-0.4-1.6-2.5-1.6
		C0,2.5,0,2.3,0,2.1C0,2,0,1.8,0.2,1.8c0.2,0,2.2,0.1,3.7,0.1c1.5,0,3.6-0.1,3.8-0.1c0.2,0,0.2,0.2,0.2,0.3c0,0.2,0,0.4-0.3,0.4
		c-2.1,0-2.5,0.2-2.5,1.6c0,1.1,0,1.7,0,3.3V11.7z"/>
	<path fill="#FFFFFF" d="M23.3,16.5c0,1.3,0,1.6,1.1,1.6c0.6,0,0.7,0,0.7,0.3c0,0.1,0,0.3-0.2,0.3c-0.1,0-0.4,0-2.1,0
		c-2.2,0-2.8,0-3.2,0c-0.2,0-0.2-0.1-0.2-0.3c0-0.3,0-0.4,0.9-0.4c0.6,0,0.8-0.2,1-0.6c0.1-0.2,0.1-1.9,0.1-3.4v-3.2
		c0-0.8-0.2-1.3-1.4-1.4c-0.2,0-0.2-0.1-0.2-0.3c0-0.2,0.1-0.3,0.2-0.3c2.7-0.5,3-1.2,3.3-1.2c0,0,0.1,0.1,0.1,0.3
		c0,0.1,0,0.7,0,1.7C24.6,8.8,25.8,8,27.1,8c0.8,0,3.1,0.2,3.1,3.5v5.7c0,0.4,0.1,0.9,1.5,0.9c0.2,0,0.2,0.1,0.2,0.3
		c0,0.1,0,0.3-0.3,0.3c-0.7,0-1.1,0-2.4,0c-1.9,0-2.3,0-2.5,0c-0.1,0-0.2-0.2-0.2-0.3c0-0.1,0-0.3,0.3-0.3c1.1,0,1.3-0.1,1.3-0.9V13
		c0-2.2-0.2-3.7-2.6-3.7c-0.9,0-2.2,0.8-2.3,1.1V16.5z"/>
	<path fill="#FFFFFF" d="M36.6,16.5c0,1.3,0,1.6,1.1,1.6c0.5,0,0.6,0,0.6,0.3c0,0.1,0,0.3-0.2,0.3c-0.1,0-0.4,0-2,0
		c-2.2,0-2.8,0-3.2,0c-0.2,0-0.2-0.1-0.2-0.3c0-0.3,0-0.4,0.9-0.4c0.6,0,0.8-0.2,1-0.6c0.1-0.2,0.1-1.9,0.1-3.4v-3.2
		c0-0.8-0.2-1.3-1.4-1.4c-0.2,0-0.2-0.1-0.2-0.3c0-0.2,0.1-0.3,0.2-0.3c2.7-0.5,3-1.2,3.3-1.2c0.1,0,0.1,0.1,0.1,0.3
		c0,0.1-0.1,0.3-0.1,3.4V16.5z M34.4,3.2c0-0.6,0.5-1.3,1.2-1.3c0.7,0,1.2,0.6,1.2,1.3c0,0.6-0.5,1.3-1.2,1.3
		C34.9,4.4,34.4,3.8,34.4,3.2z"/>
	<path fill="#FFFFFF" d="M47.4,9.7C47.4,9,46.2,9,45.9,9c-0.1,0-0.2-0.1-0.2-0.3c0-0.1,0.1-0.3,0.3-0.3c0.6,0,1.4,0,2,0
		c0.7,0,1.4,0,2.1,0c0.2,0,0.2,0.2,0.2,0.3c0,0.1,0,0.2-0.2,0.3c-1.4,0.2-1.4,0.3-2.2,2.2c-0.8,2-2.2,5-2.7,6
		c-0.7,1.6-0.9,1.9-1.1,1.9c-0.3,0-0.4-0.5-0.9-1.5c-0.8-1.8-2.8-7.5-3.1-8c-0.2-0.4-0.5-0.4-0.8-0.4c-0.6,0-0.7-0.1-0.7-0.4
		c0-0.2,0.1-0.3,0.3-0.3c0.8,0,1.5,0,2.2,0c0.5,0,2.3,0,2.8,0C44,8.4,44,8.6,44,8.8C44,8.9,43.9,9,43.8,9c-0.7,0-1.4,0.1-1.4,0.6
		c0,0.8,1.9,5.6,2.4,6.6C47.1,11.3,47.4,10.4,47.4,9.7z"/>
	<path fill="#FFFFFF" d="M52.1,12.3C52,12.7,52,13.2,52,13.6c0,1.5,1.3,3.9,3.9,3.9c1.1,0,2-0.3,2.8-1.4c0.1-0.2,0.2-0.4,0.4-0.4
		c0.2,0,0.4,0.2,0.4,0.3c0,0.1-0.9,3-4.1,3c-3.4,0-5.2-2.1-5.2-5.4c0-3.4,2.3-5.7,4.7-5.7c3.9,0,4.2,3.4,4.2,4.1
		c0,0.2-0.1,0.3-0.3,0.3H52.1z M56.1,11.6c0.5,0,0.8-0.1,0.8-0.8c0-1.8-1.3-2.2-2.1-2.2c-1.7,0-2.4,1.4-2.6,3H56.1z"/>
	<path fill="#FFFFFF" d="M62.4,10.9c0-0.8-0.2-1.3-1.4-1.4c-0.2,0-0.2-0.1-0.2-0.3c0-0.2,0.1-0.3,0.2-0.3c2.7-0.5,3-1.2,3.3-1.2
		c0,0,0.1,0.1,0.1,0.2c0,0.3-0.1,0.9-0.1,2.2C65,9.2,66.3,8,67.6,8c0.8,0,1.5,0.4,1.5,1.3c0,0.6-0.5,1.2-1.2,1.2
		c-1,0-1.1-0.9-1.8-0.9c-0.4,0-1,0.4-1.6,1c-0.2,0.2-0.2,0.4-0.2,0.7v5.4c0,0.9,0,1.4,1.2,1.4c0.9,0,1,0,1,0.3
		c0,0.3-0.1,0.3-0.4,0.3c-0.9,0-1.6,0-2.7,0c-1.9,0-2.3,0-2.7,0c-0.2,0-0.2-0.1-0.2-0.3c0-0.2,0.3-0.3,0.7-0.3c1,0,1.2-0.2,1.2-1.2
		V10.9z"/>
	<path fill="#FFFFFF" d="M77.1,15.8c0,1.2-0.6,3.2-3.9,3.2c-0.4,0-1.8-0.2-2.7-0.2c0,0-0.1-0.1-0.1-0.1c0-0.2-0.5-2.3-0.5-2.6
		c0-0.1,0.3-0.1,0.4-0.1c0.6,0,0.7,2.4,3,2.4c1.7,0,2.2-1.3,2.2-2.1c0-2.5-5.3-1.7-5.3-5c0-1.9,1.6-3.2,3.6-3.2
		c1.1,0,2.5,0.2,2.6,0.2c0.3,0.1,0.4,0.5,0.4,0.7c0,1,0.3,1.6,0.3,1.9c0,0.1-0.1,0.2-0.3,0.2c-0.2,0-0.4,0-0.5-0.3
		c-0.2-0.4-0.8-2-2.5-2c-1.1,0-1.9,0.6-1.9,1.8c0,0.8,0.6,1.3,1.1,1.6C75.4,13.2,77.1,13.1,77.1,15.8z"/>
	<path fill="#FFFFFF" d="M82.2,16.5c0,1.3,0,1.6,1.1,1.6c0.5,0,0.6,0,0.6,0.3c0,0.1,0,0.3-0.2,0.3c-0.1,0-0.4,0-2,0
		c-2.2,0-2.8,0-3.2,0c-0.2,0-0.2-0.1-0.2-0.3c0-0.3,0-0.4,0.9-0.4c0.6,0,0.8-0.2,1-0.6c0.1-0.2,0.1-1.9,0.1-3.4v-3.2
		c0-0.8-0.2-1.3-1.4-1.4c-0.2,0-0.2-0.1-0.2-0.3c0-0.2,0.1-0.3,0.2-0.3c2.7-0.5,3-1.2,3.3-1.2c0.1,0,0.1,0.1,0.1,0.3
		c0,0.1-0.1,0.3-0.1,3.4V16.5z M80,3.2c0-0.6,0.5-1.3,1.2-1.3c0.7,0,1.2,0.6,1.2,1.3c0,0.6-0.5,1.3-1.2,1.3C80.5,4.4,80,3.8,80,3.2z
		"/>
	<path fill="#FFFFFF" d="M87.9,14.5c0,2.5,0.2,3.4,2.1,3.4c0.8,0,1.5-0.5,1.6-0.5c0.1,0,0.3,0.2,0.3,0.4c0,0.1-1,1.3-3.1,1.3
		C86,19,86,16.6,86,16.1V9.8c0-0.2-0.1-0.3-0.2-0.3h-1.2c-0.1,0-0.1-0.1-0.1-0.2c0-0.1,0-0.2,0.1-0.3c2.2-1.7,2.6-2.9,3.1-2.9
		c0.1,0,0.3,0.1,0.3,0.3c0,0.4-0.1,0.8-0.1,2.2h3.6c0.2,0,0.2,0.2,0.2,0.5c0,0.3-0.1,0.6-0.6,0.6c-0.2,0-1.3-0.1-3.2-0.1V14.5z"/>
	<path fill="#FFFFFF" d="M102.2,9.8c0-0.8-1.1-0.8-1.8-0.8c-0.2,0-0.2-0.1-0.2-0.3c0-0.2,0.1-0.3,0.2-0.3c0.8,0,1.5,0,2.3,0
		c0.7,0,1.5,0,2.2,0c0.2,0,0.2,0.2,0.2,0.3c0,0.2-0.1,0.3-0.4,0.3c-0.8,0.1-1.1,0.2-1.5,1c-0.9,2-4.1,8.8-4.6,10.1
		c-1.8,4.6-2.6,4.9-3.4,4.9c-0.8,0-1.3-0.7-1.3-1.4c0-0.7,0.7-1.3,1.4-1.3c0.6,0,0.9,0.4,1.2,0.4c0.4,0,1.5-2.3,1.5-3.4
		c0-0.6-0.6-2-0.8-2.6c-1.5-3.8-1.9-5.9-2.4-7.2C94.4,9,93.2,9,92.9,9c-0.2,0-0.2-0.2-0.2-0.3c0-0.2,0.1-0.3,0.3-0.3
		c0.3,0,1.8,0,2.6,0c0.8,0,1.6,0,2.3,0c0.2,0,0.3,0.1,0.3,0.3C98.2,8.8,98.1,9,98,9c-0.1,0-1.2,0-1.2,0.5c0,1.1,0.8,3.5,2.3,7.4
		C100.3,14.7,102.2,10.6,102.2,9.8z"/>
	<path fill="#FFFFFF" d="M117,19c-3.2,0-5.5-2.3-5.5-5.5c0-3.1,2.3-5.5,5.5-5.5c3.2,0,5.5,2.3,5.5,5.5C122.5,16.8,120.3,19,117,19z
		 M117,8.6c-2.5,0-3.2,2.6-3.2,4.9c0,2,0.5,4.9,3.2,4.9c2.8,0,3.3-2.9,3.3-4.9C120.3,11.2,119.5,8.6,117,8.6z"/>
	<path fill="#FFFFFF" d="M127.9,16.7c0,0.9,0,1.4,1.2,1.4c0.9,0,1,0,1,0.3c0,0.3-0.1,0.3-0.4,0.3c-0.9,0-1.6,0-2.7,0
		c-1.9,0-2.3,0-2.5,0c-0.2,0-0.2-0.1-0.2-0.3c0-0.2,0-0.3,0.5-0.3c1,0,1.2-0.2,1.2-1.2v-6.6c0-0.3,0-0.8-0.4-0.8h-1.3
		c-0.2,0-0.3,0-0.3-0.3c0-0.2,0.2-0.3,0.7-0.4c0.9-0.2,1.2-0.3,1.2-1.3c0.2-3.6,1.3-5.6,4.1-6.3c0.4-0.1,1-0.2,1.4-0.2
		c0.6,0,1.5,0.2,1.5,1c0,0.7-0.4,1.2-1.1,1.2c-0.2,0-0.7-0.1-1.3-0.5c-0.4-0.3-0.8-0.5-1-0.5c-1.3,0-1.6,2-1.6,3.4v3h2.9
		c0.2,0,0.2,0.2,0.2,0.5c0,0.3-0.1,0.6-0.6,0.6c-0.2,0-2-0.1-2.5-0.1V16.7z"/>
	<path fill="#FFFFFF" d="M157.2,2.1c0.1-0.2,0.1-0.3,0.3-0.3c0.1,0,1.8,0.1,2.4,0.1c0.4,0,2.4-0.1,2.6-0.1c0.2,0,0.3,0.2,0.3,0.4
		c0,0.2-0.1,0.3-0.3,0.3c-2.1,0-2.4,0.2-2.4,1.3c0,1.5,0.3,6.5,0.5,13.1c0,0.8,0.7,1.1,1.3,1.1c1.3,0,1.3,0.1,1.3,0.3
		c0,0.4-0.1,0.4-0.3,0.4c-0.2,0-0.5,0-3.8,0c-3.1,0-3.2,0-3.4,0c-0.3,0-0.3-0.2-0.3-0.4c0-0.2,0-0.3,1.1-0.3c1.6,0,1.6-0.4,1.6-1.3
		c0-1.4-0.4-9.1-0.5-13.5h0c-1.7,4.4-3.9,9.5-5.5,13.3c-0.9,2.2-0.9,2.4-1.2,2.4c-0.3,0-0.4-0.2-0.9-1.8c-0.5-1.7-4.4-12.1-4.5-12.1
		c-0.4,1.7-2,9.6-2,11.9c0,0.7,0.4,1.1,1.2,1.1c0.6,0,1.3,0,1.3,0.2c0,0.4,0,0.5-0.3,0.5c-0.2,0-0.4,0-2.9,0c-2.2,0-2.3,0-2.5,0
		c-0.2,0-0.3,0-0.3-0.4c0-0.2,0.1-0.3,1.3-0.3c0.8,0,1-0.3,1.3-1.7c0.6-3.4,1.2-6.8,1.9-10.2c0.2-1.1,0.3-1.7,0.3-2.2
		c0-0.1-0.3-1-0.6-1.2c-0.2-0.1-1.3-0.2-2-0.2c-0.3,0-0.3-0.2-0.3-0.4c0-0.2,0-0.4,0.3-0.4c0.4,0,2.5,0.1,2.7,0.1
		c0.6,0,1.6-0.1,1.9-0.1c0.3,0,0.3,0.3,0.6,1.1c0.5,1.8,3.9,11.3,4.3,12.2C153.7,10.9,155.5,6.6,157.2,2.1z"/>
	<path fill="#FFFFFF" d="M167.7,16.5c0,1.3,0,1.6,1.1,1.6c0.5,0,0.6,0,0.6,0.3c0,0.1,0,0.3-0.2,0.3c-0.1,0-0.4,0-2,0
		c-2.2,0-2.8,0-3.2,0c-0.2,0-0.2-0.1-0.2-0.3c0-0.3,0-0.4,0.9-0.4c0.6,0,0.8-0.2,1-0.6c0.1-0.2,0.1-1.9,0.1-3.4v-3.2
		c0-0.8-0.2-1.3-1.4-1.4c-0.2,0-0.2-0.1-0.2-0.3c0-0.2,0.1-0.3,0.2-0.3c2.7-0.5,3-1.2,3.3-1.2c0.1,0,0.1,0.1,0.1,0.3
		c0,0.1-0.1,0.3-0.1,3.4V16.5z M165.5,3.2c0-0.6,0.5-1.3,1.2-1.3s1.2,0.6,1.2,1.3c0,0.6-0.5,1.3-1.2,1.3S165.5,3.8,165.5,3.2z"/>
	<path fill="#FFFFFF" d="M177.9,15.8c0,1.2-0.6,3.2-3.9,3.2c-0.4,0-1.8-0.2-2.7-0.2c0,0-0.1-0.1-0.1-0.1c0-0.2-0.5-2.3-0.5-2.6
		c0-0.1,0.3-0.1,0.4-0.1c0.6,0,0.7,2.4,3,2.4c1.7,0,2.2-1.3,2.2-2.1c0-2.5-5.3-1.7-5.3-5c0-1.9,1.6-3.2,3.6-3.2
		c1.1,0,2.5,0.2,2.6,0.2c0.3,0.1,0.4,0.5,0.4,0.7c0,1,0.3,1.6,0.3,1.9c0,0.1-0.1,0.2-0.3,0.2c-0.2,0-0.4,0-0.5-0.3
		c-0.2-0.4-0.8-2-2.5-2c-1.1,0-1.9,0.6-1.9,1.8c0,0.8,0.6,1.3,1.1,1.6C176.2,13.2,177.9,13.1,177.9,15.8z"/>
	<path fill="#FFFFFF" d="M186.7,15.8c0,1.2-0.6,3.2-3.9,3.2c-0.4,0-1.8-0.2-2.7-0.2c0,0-0.1-0.1-0.1-0.1c0-0.2-0.5-2.3-0.5-2.6
		c0-0.1,0.3-0.1,0.4-0.1c0.6,0,0.7,2.4,3,2.4c1.7,0,2.2-1.3,2.2-2.1c0-2.5-5.3-1.7-5.3-5c0-1.9,1.6-3.2,3.6-3.2
		c1.1,0,2.5,0.2,2.6,0.2c0.3,0.1,0.4,0.5,0.4,0.7c0,1,0.3,1.6,0.3,1.9c0,0.1-0.1,0.2-0.3,0.2c-0.2,0-0.4,0-0.5-0.3
		c-0.2-0.4-0.8-2-2.5-2c-1.1,0-1.9,0.6-1.9,1.8c0,0.8,0.6,1.3,1.1,1.6C185,13.2,186.7,13.1,186.7,15.8z"/>
	<path fill="#FFFFFF" d="M193.9,19c-3.2,0-5.5-2.3-5.5-5.5c0-3.1,2.3-5.5,5.5-5.5c3.2,0,5.5,2.3,5.5,5.5
		C199.4,16.8,197.2,19,193.9,19z M193.9,8.6c-2.5,0-3.2,2.6-3.2,4.9c0,2,0.5,4.9,3.2,4.9c2.8,0,3.3-2.9,3.3-4.9
		C197.1,11.2,196.4,8.6,193.9,8.6z"/>
	<path fill="#FFFFFF" d="M202.3,11.3c0-2.1-0.2-2.2-1.5-2.2c-0.2,0-0.5,0-0.5-0.2c0-0.2,0-0.5,0.3-0.5c0.2,0,0.6,0.1,1.4,0.1
		c0.8,0,1.7-0.1,2.1-0.1c0.1,0,0.2,0,0.2,0.3v6.4c0,1.8,0.6,2.8,2.3,2.8c0.9,0,2.3-0.5,2.3-1.3v-6.1c0-1.3-0.2-1.4-1.5-1.4
		c-0.4,0-0.8,0-0.8-0.2c0-0.4,0-0.5,0.2-0.5c0.3,0,0.6,0.1,2.1,0.1c0.6,0,1.2-0.1,1.8-0.1c0.2,0,0.3,0.1,0.3,0.3
		c0,0.1-0.2,1.9-0.2,3.6v4.4c0,0.4,0,0.9,0.6,0.9c0.3,0,0.9-0.1,1-0.1c0.1,0,0.1,0,0.1,0.4c0,0.1,0,0.2-0.8,0.3
		c-2,0.3-2.6,0.6-2.7,0.6c-0.2,0-0.3-0.2-0.3-0.3c0-0.3,0-0.7,0.1-0.9c-1.2,0.9-2.6,1.3-3.5,1.3c-2.3,0-3-1.5-3-4V11.3z"/>
	<path fill="#FFFFFF" d="M215.2,10.9c0-0.8-0.2-1.3-1.4-1.4c-0.2,0-0.2-0.1-0.2-0.3c0-0.2,0.1-0.3,0.2-0.3c2.7-0.5,3-1.2,3.3-1.2
		c0,0,0.1,0.1,0.1,0.2c0,0.3-0.1,0.9-0.1,2.2c0.8-0.9,2.1-2.1,3.3-2.1c0.8,0,1.5,0.4,1.5,1.3c0,0.6-0.5,1.2-1.2,1.2
		c-1,0-1.1-0.9-1.8-0.9c-0.4,0-1,0.4-1.6,1c-0.2,0.2-0.2,0.4-0.2,0.7v5.4c0,0.9,0,1.4,1.2,1.4c0.9,0,1,0,1,0.3
		c0,0.3-0.1,0.3-0.4,0.3c-0.9,0-1.6,0-2.7,0c-1.9,0-2.3,0-2.7,0c-0.2,0-0.2-0.1-0.2-0.3c0-0.2,0.3-0.3,0.7-0.3c1,0,1.2-0.2,1.2-1.2
		V10.9z"/>
	<path fill="#FFFFFF" d="M226.3,16.5c0,1.3,0,1.6,1.1,1.6c0.5,0,0.6,0,0.6,0.3c0,0.1,0,0.3-0.2,0.3c-0.1,0-0.4,0-2,0
		c-2.2,0-2.8,0-3.2,0c-0.2,0-0.2-0.1-0.2-0.3c0-0.3,0-0.4,0.9-0.4c0.6,0,0.8-0.2,1-0.6c0.1-0.2,0.1-1.9,0.1-3.4v-3.2
		c0-0.8-0.2-1.3-1.4-1.4c-0.2,0-0.2-0.1-0.2-0.3c0-0.2,0.1-0.3,0.2-0.3c2.7-0.5,3-1.2,3.3-1.2c0.1,0,0.1,0.1,0.1,0.3
		c0,0.1-0.1,0.3-0.1,3.4V16.5z M224.1,3.2c0-0.6,0.5-1.3,1.2-1.3s1.2,0.6,1.2,1.3c0,0.6-0.5,1.3-1.2,1.3S224.1,3.8,224.1,3.2z"/>
</g>
<g>
	<path fill="#F1B82D" d="M5.1,38.7c0,3.2,1.3,5.9,5.3,5.9c2.8,0,5.2-1.5,5.2-7.2v-4.7c0-3.3-0.7-3.3-3.1-3.3c-0.2,0-0.2-0.1-0.2-0.4
		c0-0.3,0.1-0.4,0.2-0.4c0.4,0,1.9,0.1,3.5,0.1c0.7,0,2.7-0.1,3.1-0.1c0.2,0,0.3,0,0.3,0.4c0,0.1,0,0.3-0.2,0.3
		c-2.3,0-2.7,0-2.7,2.8v5.6c0,6.4-4.1,8.1-6.8,8.1c-5.3,0-6.8-3.5-6.8-6.1v-5.4c0-1.7,0-2.2,0-3.3c0-1.4-0.4-1.6-2.5-1.6
		C0,29.5,0,29.3,0,29.1c0-0.1,0-0.3,0.2-0.3c0.2,0,2.2,0.1,3.7,0.1c1.5,0,3.6-0.1,3.8-0.1c0.2,0,0.2,0.2,0.2,0.3
		c0,0.2,0,0.4-0.3,0.4c-2.1,0-2.5,0.2-2.5,1.6c0,1.1,0,1.7,0,3.3V38.7z"/>
	<path fill="#F1B82D" d="M23.3,43.5c0,1.3,0,1.6,1.1,1.6c0.6,0,0.7,0,0.7,0.3c0,0.1,0,0.3-0.2,0.3c-0.1,0-0.4,0-2.1,0
		c-2.2,0-2.8,0-3.2,0c-0.2,0-0.2-0.1-0.2-0.3c0-0.3,0-0.4,0.9-0.4c0.6,0,0.8-0.2,1-0.6c0.1-0.2,0.1-1.9,0.1-3.4v-3.2
		c0-0.8-0.2-1.3-1.4-1.4c-0.2,0-0.2-0.1-0.2-0.3c0-0.2,0.1-0.3,0.2-0.3c2.7-0.5,3-1.2,3.3-1.2c0,0,0.1,0.1,0.1,0.3
		c0,0.1,0,0.7,0,1.7c1.2-0.8,2.4-1.6,3.7-1.6c0.8,0,3.1,0.2,3.1,3.5v5.7c0,0.4,0.1,0.9,1.5,0.9c0.2,0,0.2,0.1,0.2,0.3
		c0,0.1,0,0.3-0.3,0.3c-0.7,0-1.1,0-2.4,0c-1.9,0-2.3,0-2.5,0c-0.1,0-0.2-0.2-0.2-0.3c0-0.1,0-0.3,0.3-0.3c1.1,0,1.3-0.1,1.3-0.9V40
		c0-2.2-0.2-3.7-2.6-3.7c-0.9,0-2.2,0.8-2.3,1.1V43.5z"/>
	<path fill="#F1B82D" d="M36.6,43.5c0,1.3,0,1.6,1.1,1.6c0.5,0,0.6,0,0.6,0.3c0,0.1,0,0.3-0.2,0.3c-0.1,0-0.4,0-2,0
		c-2.2,0-2.8,0-3.2,0c-0.2,0-0.2-0.1-0.2-0.3c0-0.3,0-0.4,0.9-0.4c0.6,0,0.8-0.2,1-0.6c0.1-0.2,0.1-1.9,0.1-3.4v-3.2
		c0-0.8-0.2-1.3-1.4-1.4c-0.2,0-0.2-0.1-0.2-0.3c0-0.2,0.1-0.3,0.2-0.3c2.7-0.5,3-1.2,3.3-1.2c0.1,0,0.1,0.1,0.1,0.3
		c0,0.1-0.1,0.3-0.1,3.4V43.5z M34.4,30.2c0-0.6,0.5-1.3,1.2-1.3c0.7,0,1.2,0.6,1.2,1.3c0,0.6-0.5,1.3-1.2,1.3
		C34.9,31.4,34.4,30.8,34.4,30.2z"/>
	<path fill="#F1B82D" d="M47.4,36.7c0-0.7-1.2-0.7-1.6-0.7c-0.1,0-0.2-0.1-0.2-0.3c0-0.1,0.1-0.3,0.3-0.3c0.6,0,1.4,0,2,0
		c0.7,0,1.4,0,2.1,0c0.2,0,0.2,0.2,0.2,0.3c0,0.1,0,0.2-0.2,0.3c-1.4,0.2-1.4,0.3-2.2,2.2c-0.8,2-2.2,5-2.7,6
		c-0.7,1.6-0.9,1.9-1.1,1.9c-0.3,0-0.4-0.5-0.9-1.5c-0.8-1.8-2.8-7.5-3.1-8c-0.2-0.4-0.5-0.4-0.8-0.4c-0.6,0-0.7-0.1-0.7-0.4
		c0-0.2,0.1-0.3,0.3-0.3c0.8,0,1.5,0,2.2,0c0.5,0,2.3,0,2.8,0c0.2,0,0.2,0.2,0.2,0.3c0,0.1-0.1,0.3-0.2,0.3c-0.7,0-1.4,0.1-1.4,0.6
		c0,0.8,1.9,5.6,2.4,6.6C47.1,38.3,47.4,37.4,47.4,36.7z"/>
	<path fill="#F1B82D" d="M52.1,39.3C52,39.7,52,40.2,52,40.6c0,1.5,1.3,3.9,3.9,3.9c1.1,0,2-0.3,2.8-1.4c0.1-0.2,0.2-0.4,0.4-0.4
		c0.2,0,0.4,0.2,0.4,0.3c0,0.1-0.9,3-4.1,3c-3.4,0-5.2-2.1-5.2-5.4c0-3.4,2.3-5.7,4.7-5.7c3.9,0,4.2,3.4,4.2,4.1
		c0,0.2-0.1,0.3-0.3,0.3H52.1z M56.1,38.6c0.5,0,0.8-0.1,0.8-0.8c0-1.8-1.3-2.2-2.1-2.2c-1.7,0-2.4,1.4-2.6,3H56.1z"/>
	<path fill="#F1B82D" d="M62.4,37.9c0-0.8-0.2-1.3-1.4-1.4c-0.2,0-0.2-0.1-0.2-0.3c0-0.2,0.1-0.3,0.2-0.3c2.7-0.5,3-1.2,3.3-1.2
		c0,0,0.1,0.1,0.1,0.2c0,0.3-0.1,0.9-0.1,2.2c0.8-0.9,2.1-2.1,3.3-2.1c0.8,0,1.5,0.4,1.5,1.3c0,0.6-0.5,1.2-1.2,1.2
		c-1,0-1.1-0.9-1.8-0.9c-0.4,0-1,0.4-1.6,1c-0.2,0.2-0.2,0.4-0.2,0.7v5.4c0,0.9,0,1.4,1.2,1.4c0.9,0,1,0,1,0.3
		c0,0.3-0.1,0.3-0.4,0.3c-0.9,0-1.6,0-2.7,0c-1.9,0-2.3,0-2.7,0c-0.2,0-0.2-0.1-0.2-0.3c0-0.2,0.3-0.3,0.7-0.3c1,0,1.2-0.2,1.2-1.2
		V37.9z"/>
	<path fill="#F1B82D" d="M77.1,42.8c0,1.2-0.6,3.2-3.9,3.2c-0.4,0-1.8-0.2-2.7-0.2c0,0-0.1-0.1-0.1-0.1c0-0.2-0.5-2.3-0.5-2.6
		c0-0.1,0.3-0.1,0.4-0.1c0.6,0,0.7,2.4,3,2.4c1.7,0,2.2-1.3,2.2-2.1c0-2.5-5.3-1.7-5.3-5c0-1.9,1.6-3.2,3.6-3.2
		c1.1,0,2.5,0.2,2.6,0.2c0.3,0.1,0.4,0.5,0.4,0.7c0,1,0.3,1.6,0.3,1.9c0,0.1-0.1,0.2-0.3,0.2c-0.2,0-0.4,0-0.5-0.3
		c-0.2-0.4-0.8-2-2.5-2c-1.1,0-1.9,0.6-1.9,1.8c0,0.8,0.6,1.3,1.1,1.6C75.4,40.2,77.1,40.1,77.1,42.8z"/>
	<path fill="#F1B82D" d="M82.2,43.5c0,1.3,0,1.6,1.1,1.6c0.5,0,0.6,0,0.6,0.3c0,0.1,0,0.3-0.2,0.3c-0.1,0-0.4,0-2,0
		c-2.2,0-2.8,0-3.2,0c-0.2,0-0.2-0.1-0.2-0.3c0-0.3,0-0.4,0.9-0.4c0.6,0,0.8-0.2,1-0.6c0.1-0.2,0.1-1.9,0.1-3.4v-3.2
		c0-0.8-0.2-1.3-1.4-1.4c-0.2,0-0.2-0.1-0.2-0.3c0-0.2,0.1-0.3,0.2-0.3c2.7-0.5,3-1.2,3.3-1.2c0.1,0,0.1,0.1,0.1,0.3
		c0,0.1-0.1,0.3-0.1,3.4V43.5z M80,30.2c0-0.6,0.5-1.3,1.2-1.3c0.7,0,1.2,0.6,1.2,1.3c0,0.6-0.5,1.3-1.2,1.3
		C80.5,31.4,80,30.8,80,30.2z"/>
	<path fill="#F1B82D" d="M87.9,41.5c0,2.5,0.2,3.4,2.1,3.4c0.8,0,1.5-0.5,1.6-0.5c0.1,0,0.3,0.2,0.3,0.4c0,0.1-1,1.3-3.1,1.3
		C86,46,86,43.6,86,43.1v-6.2c0-0.2-0.1-0.3-0.2-0.3h-1.2c-0.1,0-0.1-0.1-0.1-0.2c0-0.1,0-0.2,0.1-0.3c2.2-1.7,2.6-2.9,3.1-2.9
		c0.1,0,0.3,0.1,0.3,0.3c0,0.4-0.1,0.8-0.1,2.2h3.6c0.2,0,0.2,0.2,0.2,0.5c0,0.3-0.1,0.6-0.6,0.6c-0.2,0-1.3-0.1-3.2-0.1V41.5z"/>
	<path fill="#F1B82D" d="M102.2,36.8c0-0.8-1.1-0.8-1.8-0.8c-0.2,0-0.2-0.1-0.2-0.3c0-0.2,0.1-0.3,0.2-0.3c0.8,0,1.5,0,2.3,0
		c0.7,0,1.5,0,2.2,0c0.2,0,0.2,0.2,0.2,0.3c0,0.2-0.1,0.3-0.4,0.3c-0.8,0.1-1.1,0.2-1.5,1c-0.9,2-4.1,8.8-4.6,10.1
		c-1.8,4.6-2.6,4.9-3.4,4.9c-0.8,0-1.3-0.7-1.3-1.4c0-0.7,0.7-1.3,1.4-1.3c0.6,0,0.9,0.4,1.2,0.4c0.4,0,1.5-2.3,1.5-3.4
		c0-0.6-0.6-2-0.8-2.6c-1.5-3.8-1.9-5.9-2.4-7.2C94.4,36,93.2,36,92.9,36c-0.2,0-0.2-0.2-0.2-0.3c0-0.2,0.1-0.3,0.3-0.3
		c0.3,0,1.8,0,2.6,0c0.8,0,1.6,0,2.3,0c0.2,0,0.3,0.1,0.3,0.3c0,0.1-0.1,0.3-0.2,0.3c-0.1,0-1.2,0-1.2,0.5c0,1.1,0.8,3.5,2.3,7.4
		C100.3,41.7,102.2,37.6,102.2,36.8z"/>
	<path fill="#F1B82D" d="M117,46c-3.2,0-5.5-2.3-5.5-5.5c0-3.1,2.3-5.5,5.5-5.5c3.2,0,5.5,2.3,5.5,5.5C122.5,43.8,120.3,46,117,46z
		 M117,35.6c-2.5,0-3.2,2.6-3.2,4.9c0,2,0.5,4.9,3.2,4.9c2.8,0,3.3-2.9,3.3-4.9C120.3,38.2,119.5,35.6,117,35.6z"/>
	<path fill="#F1B82D" d="M127.9,43.7c0,0.9,0,1.4,1.2,1.4c0.9,0,1,0,1,0.3c0,0.3-0.1,0.3-0.4,0.3c-0.9,0-1.6,0-2.7,0
		c-1.9,0-2.3,0-2.5,0c-0.2,0-0.2-0.1-0.2-0.3c0-0.2,0-0.3,0.5-0.3c1,0,1.2-0.2,1.2-1.2v-6.6c0-0.3,0-0.8-0.4-0.8h-1.3
		c-0.2,0-0.3,0-0.3-0.3c0-0.2,0.2-0.3,0.7-0.4c0.9-0.2,1.2-0.3,1.2-1.3c0.2-3.6,1.3-5.6,4.1-6.3c0.4-0.1,1-0.2,1.4-0.2
		c0.6,0,1.5,0.2,1.5,1c0,0.7-0.4,1.2-1.1,1.2c-0.2,0-0.7-0.1-1.3-0.5c-0.4-0.3-0.8-0.5-1-0.5c-1.3,0-1.6,2-1.6,3.4v3h2.9
		c0.2,0,0.2,0.2,0.2,0.5c0,0.3-0.1,0.6-0.6,0.6c-0.2,0-2-0.1-2.5-0.1V43.7z"/>
	<path fill="#F1B82D" d="M157.2,29.1c0.1-0.2,0.1-0.3,0.3-0.3c0.1,0,1.8,0.1,2.4,0.1c0.4,0,2.4-0.1,2.6-0.1c0.2,0,0.3,0.2,0.3,0.4
		c0,0.2-0.1,0.3-0.3,0.3c-2.1,0-2.4,0.2-2.4,1.3c0,1.5,0.3,6.5,0.5,13.1c0,0.8,0.7,1.1,1.3,1.1c1.3,0,1.3,0.1,1.3,0.3
		c0,0.4-0.1,0.4-0.3,0.4c-0.2,0-0.5,0-3.8,0c-3.1,0-3.2,0-3.4,0c-0.3,0-0.3-0.2-0.3-0.4c0-0.2,0-0.3,1.1-0.3c1.6,0,1.6-0.4,1.6-1.3
		c0-1.4-0.4-9.1-0.5-13.5h0c-1.7,4.4-3.9,9.5-5.5,13.3c-0.9,2.2-0.9,2.4-1.2,2.4c-0.3,0-0.4-0.2-0.9-1.8c-0.5-1.7-4.4-12.1-4.5-12.1
		c-0.4,1.7-2,9.6-2,11.9c0,0.7,0.4,1.1,1.2,1.1c0.6,0,1.3,0,1.3,0.2c0,0.4,0,0.5-0.3,0.5c-0.2,0-0.4,0-2.9,0c-2.2,0-2.3,0-2.5,0
		c-0.2,0-0.3,0-0.3-0.4c0-0.2,0.1-0.3,1.3-0.3c0.8,0,1-0.3,1.3-1.7c0.6-3.4,1.2-6.8,1.9-10.2c0.2-1.1,0.3-1.7,0.3-2.2
		c0-0.1-0.3-1-0.6-1.2c-0.2-0.1-1.3-0.2-2-0.2c-0.3,0-0.3-0.2-0.3-0.4c0-0.2,0-0.4,0.3-0.4c0.4,0,2.5,0.1,2.7,0.1
		c0.6,0,1.6-0.1,1.9-0.1c0.3,0,0.3,0.3,0.6,1.1c0.5,1.8,3.9,11.3,4.3,12.2C153.7,37.9,155.5,33.6,157.2,29.1z"/>
	<path fill="#F1B82D" d="M167.7,43.5c0,1.3,0,1.6,1.1,1.6c0.5,0,0.6,0,0.6,0.3c0,0.1,0,0.3-0.2,0.3c-0.1,0-0.4,0-2,0
		c-2.2,0-2.8,0-3.2,0c-0.2,0-0.2-0.1-0.2-0.3c0-0.3,0-0.4,0.9-0.4c0.6,0,0.8-0.2,1-0.6c0.1-0.2,0.1-1.9,0.1-3.4v-3.2
		c0-0.8-0.2-1.3-1.4-1.4c-0.2,0-0.2-0.1-0.2-0.3c0-0.2,0.1-0.3,0.2-0.3c2.7-0.5,3-1.2,3.3-1.2c0.1,0,0.1,0.1,0.1,0.3
		c0,0.1-0.1,0.3-0.1,3.4V43.5z M165.5,30.2c0-0.6,0.5-1.3,1.2-1.3s1.2,0.6,1.2,1.3c0,0.6-0.5,1.3-1.2,1.3S165.5,30.8,165.5,30.2z"/>
	<path fill="#F1B82D" d="M177.9,42.8c0,1.2-0.6,3.2-3.9,3.2c-0.4,0-1.8-0.2-2.7-0.2c0,0-0.1-0.1-0.1-0.1c0-0.2-0.5-2.3-0.5-2.6
		c0-0.1,0.3-0.1,0.4-0.1c0.6,0,0.7,2.4,3,2.4c1.7,0,2.2-1.3,2.2-2.1c0-2.5-5.3-1.7-5.3-5c0-1.9,1.6-3.2,3.6-3.2
		c1.1,0,2.5,0.2,2.6,0.2c0.3,0.1,0.4,0.5,0.4,0.7c0,1,0.3,1.6,0.3,1.9c0,0.1-0.1,0.2-0.3,0.2c-0.2,0-0.4,0-0.5-0.3
		c-0.2-0.4-0.8-2-2.5-2c-1.1,0-1.9,0.6-1.9,1.8c0,0.8,0.6,1.3,1.1,1.6C176.2,40.2,177.9,40.1,177.9,42.8z"/>
	<path fill="#F1B82D" d="M186.7,42.8c0,1.2-0.6,3.2-3.9,3.2c-0.4,0-1.8-0.2-2.7-0.2c0,0-0.1-0.1-0.1-0.1c0-0.2-0.5-2.3-0.5-2.6
		c0-0.1,0.3-0.1,0.4-0.1c0.6,0,0.7,2.4,3,2.4c1.7,0,2.2-1.3,2.2-2.1c0-2.5-5.3-1.7-5.3-5c0-1.9,1.6-3.2,3.6-3.2
		c1.1,0,2.5,0.2,2.6,0.2c0.3,0.1,0.4,0.5,0.4,0.7c0,1,0.3,1.6,0.3,1.9c0,0.1-0.1,0.2-0.3,0.2c-0.2,0-0.4,0-0.5-0.3
		c-0.2-0.4-0.8-2-2.5-2c-1.1,0-1.9,0.6-1.9,1.8c0,0.8,0.6,1.3,1.1,1.6C185,40.2,186.7,40.1,186.7,42.8z"/>
	<path fill="#F1B82D" d="M193.9,46c-3.2,0-5.5-2.3-5.5-5.5c0-3.1,2.3-5.5,5.5-5.5c3.2,0,5.5,2.3,5.5,5.5
		C199.4,43.8,197.2,46,193.9,46z M193.9,35.6c-2.5,0-3.2,2.6-3.2,4.9c0,2,0.5,4.9,3.2,4.9c2.8,0,3.3-2.9,3.3-4.9
		C197.1,38.2,196.4,35.6,193.9,35.6z"/>
	<path fill="#F1B82D" d="M202.3,38.3c0-2.1-0.2-2.2-1.5-2.2c-0.2,0-0.5,0-0.5-0.2c0-0.2,0-0.5,0.3-0.5c0.2,0,0.6,0.1,1.4,0.1
		c0.8,0,1.7-0.1,2.1-0.1c0.1,0,0.2,0,0.2,0.3v6.4c0,1.8,0.6,2.8,2.3,2.8c0.9,0,2.3-0.5,2.3-1.3v-6.1c0-1.3-0.2-1.4-1.5-1.4
		c-0.4,0-0.8,0-0.8-0.2c0-0.4,0-0.5,0.2-0.5c0.3,0,0.6,0.1,2.1,0.1c0.6,0,1.2-0.1,1.8-0.1c0.2,0,0.3,0.1,0.3,0.3
		c0,0.1-0.2,1.9-0.2,3.6v4.4c0,0.4,0,0.9,0.6,0.9c0.3,0,0.9-0.1,1-0.1c0.1,0,0.1,0,0.1,0.4c0,0.1,0,0.2-0.8,0.3
		c-2,0.3-2.6,0.6-2.7,0.6c-0.2,0-0.3-0.2-0.3-0.3c0-0.3,0-0.7,0.1-0.9c-1.2,0.9-2.6,1.3-3.5,1.3c-2.3,0-3-1.5-3-4V38.3z"/>
	<path fill="#F1B82D" d="M215.2,37.9c0-0.8-0.2-1.3-1.4-1.4c-0.2,0-0.2-0.1-0.2-0.3c0-0.2,0.1-0.3,0.2-0.3c2.7-0.5,3-1.2,3.3-1.2
		c0,0,0.1,0.1,0.1,0.2c0,0.3-0.1,0.9-0.1,2.2c0.8-0.9,2.1-2.1,3.3-2.1c0.8,0,1.5,0.4,1.5,1.3c0,0.6-0.5,1.2-1.2,1.2
		c-1,0-1.1-0.9-1.8-0.9c-0.4,0-1,0.4-1.6,1c-0.2,0.2-0.2,0.4-0.2,0.7v5.4c0,0.9,0,1.4,1.2,1.4c0.9,0,1,0,1,0.3
		c0,0.3-0.1,0.3-0.4,0.3c-0.9,0-1.6,0-2.7,0c-1.9,0-2.3,0-2.7,0c-0.2,0-0.2-0.1-0.2-0.3c0-0.2,0.3-0.3,0.7-0.3c1,0,1.2-0.2,1.2-1.2
		V37.9z"/>
	<path fill="#F1B82D" d="M226.3,43.5c0,1.3,0,1.6,1.1,1.6c0.5,0,0.6,0,0.6,0.3c0,0.1,0,0.3-0.2,0.3c-0.1,0-0.4,0-2,0
		c-2.2,0-2.8,0-3.2,0c-0.2,0-0.2-0.1-0.2-0.3c0-0.3,0-0.4,0.9-0.4c0.6,0,0.8-0.2,1-0.6c0.1-0.2,0.1-1.9,0.1-3.4v-3.2
		c0-0.8-0.2-1.3-1.4-1.4c-0.2,0-0.2-0.1-0.2-0.3c0-0.2,0.1-0.3,0.2-0.3c2.7-0.5,3-1.2,3.3-1.2c0.1,0,0.1,0.1,0.1,0.3
		c0,0.1-0.1,0.3-0.1,3.4V43.5z M224.1,30.2c0-0.6,0.5-1.3,1.2-1.3s1.2,0.6,1.2,1.3c0,0.6-0.5,1.3-1.2,1.3S224.1,30.8,224.1,30.2z"/>
</g>
<g>
</g>
<g>
</g>
<g>
</g>
<g>
</g>
<g>
</g>
<g>
</g>
<g>
</g>
<g>
</g>
<g>
</g>
<g>
</g>
<g>
</g>
<g>
</g>
<g>
</g>
<g>
</g>
<g>
</g>
</svg>
