<?xml version="1.0" encoding="utf-8"?>
<!-- Generator: Adobe Illustrator 18.1.0, SVG Export Plug-In . SVG Version: 6.00 Build 0)  -->
<!DOCTYPE svg PUBLIC "-//W3C//DTD SVG 1.0//EN" "http://www.w3.org/TR/2001/REC-SVG-20010904/DTD/svg10.dtd">
<svg version="1.0" id="Layer_1" xmlns="http://www.w3.org/2000/svg" xmlns:xlink="http://www.w3.org/1999/xlink" x="0px" y="0px"
	 width="243px" height="52px" viewBox="0 0 243 52" enable-background="new 0 0 243 52" xml:space="preserve">
<g>
	<path fill="#FFFFFF" d="M5.5,11.4c0,3.4,1.4,6.3,5.6,6.3c2.9,0,5.5-1.6,5.5-7.6v-5c0-3.5-0.7-3.5-3.3-3.5c-0.2,0-0.2-0.2-0.2-0.4
		c0-0.3,0.1-0.4,0.2-0.4C13.7,0.9,15.3,1,17,1c0.8,0,2.9-0.1,3.3-0.1c0.3,0,0.4,0,0.4,0.4c0,0.1,0,0.3-0.2,0.3c-2.4,0-2.9,0-2.9,3v6
		c0,6.8-4.3,8.6-7.3,8.6c-5.6,0-7.2-3.8-7.2-6.5V6.8c0-1.8,0-2.4-0.1-3.5c0-1.5-0.5-1.7-2.6-1.7C0,1.6,0,1.4,0,1.2
		C0,1,0.1,0.9,0.2,0.9c0.2,0,2.4,0.1,4,0.1c1.6,0,3.8-0.1,4-0.1c0.2,0,0.2,0.2,0.2,0.3c0,0.2,0,0.4-0.3,0.4C6,1.6,5.5,1.8,5.5,3.3
		c0,1.2-0.1,1.8-0.1,3.5V11.4z"/>
	<path fill="#FFFFFF" d="M24.9,16.5c0,1.4,0,1.7,1.2,1.7c0.7,0,0.7,0,0.7,0.3c0,0.2,0,0.3-0.3,0.3c-0.1,0-0.5,0-2.2,0
		c-2.4,0-3,0-3.4,0c-0.2,0-0.2-0.1-0.2-0.3c0-0.3,0-0.4,1-0.4c0.7,0,0.9-0.3,1-0.6c0.1-0.2,0.2-2,0.2-3.6v-3.5
		c0-0.9-0.2-1.4-1.5-1.5c-0.2,0-0.2-0.1-0.2-0.3c0-0.2,0.1-0.3,0.2-0.4c2.9-0.6,3.2-1.2,3.5-1.2c0.1,0,0.1,0.1,0.1,0.3
		c0,0.2,0,0.7,0,1.8c1.3-0.9,2.6-1.7,4-1.7c0.9,0,3.3,0.2,3.3,3.8v6c0,0.4,0.1,0.9,1.6,0.9c0.3,0,0.3,0.2,0.3,0.3
		c0,0.2,0,0.3-0.4,0.3c-0.8,0-1.2,0-2.5,0c-2,0-2.4,0-2.6,0c-0.2,0-0.2-0.2-0.2-0.3c0-0.1,0.1-0.4,0.4-0.4c1.2,0,1.4-0.1,1.4-0.9
		v-4.5c0-2.3-0.2-3.9-2.8-3.9c-1,0-2.3,0.9-2.4,1.2V16.5z"/>
	<path fill="#FFFFFF" d="M39,16.5c0,1.4,0.1,1.7,1.2,1.7c0.6,0,0.6,0,0.6,0.3c0,0.2,0,0.3-0.3,0.3c-0.1,0-0.5,0-2.1,0
		c-2.4,0-3,0-3.4,0c-0.2,0-0.2-0.1-0.2-0.3c0-0.3,0-0.4,1-0.4c0.7,0,0.9-0.3,1-0.6c0.1-0.2,0.2-2,0.2-3.6v-3.5
		c0-0.9-0.2-1.4-1.5-1.5c-0.2,0-0.2-0.1-0.2-0.3c0-0.2,0.1-0.3,0.2-0.4c2.9-0.6,3.2-1.2,3.5-1.2c0.1,0,0.2,0.1,0.2,0.3
		c0,0.1-0.1,0.4-0.1,3.6V16.5z M36.7,2.3C36.7,1.6,37.2,1,38,1s1.3,0.7,1.3,1.3c0,0.7-0.6,1.3-1.3,1.3S36.7,3,36.7,2.3z"/>
	<path fill="#FFFFFF" d="M50.6,9.3c0-0.7-1.3-0.7-1.7-0.7c-0.1,0-0.2-0.2-0.2-0.4c0-0.1,0.1-0.3,0.3-0.3c0.7,0,1.5,0.1,2.2,0.1
		c0.7,0,1.5-0.1,2.2-0.1c0.2,0,0.2,0.2,0.2,0.3c0,0.1,0,0.3-0.3,0.3c-1.5,0.2-1.5,0.3-2.3,2.3c-0.9,2.2-2.4,5.3-2.8,6.4
		c-0.7,1.7-0.9,2-1.1,2c-0.3,0-0.5-0.5-1-1.6c-0.9-1.9-3-8-3.3-8.5c-0.3-0.4-0.5-0.4-0.9-0.4c-0.7,0-0.8-0.1-0.8-0.4
		c0-0.2,0.1-0.3,0.3-0.3c0.8,0,1.6,0.1,2.4,0.1c0.5,0,2.5-0.1,3-0.1c0.2,0,0.2,0.2,0.2,0.4c0,0.1-0.1,0.3-0.3,0.3
		c-0.8,0-1.5,0.1-1.5,0.6c0,0.8,2,5.9,2.6,7C50.2,10.9,50.6,10,50.6,9.3z"/>
	<path fill="#FFFFFF" d="M55.5,12c-0.1,0.5-0.1,1-0.1,1.4c0,1.6,1.4,4.2,4.1,4.2c1.2,0,2.1-0.4,2.9-1.5c0.2-0.2,0.3-0.4,0.4-0.4
		c0.2,0,0.4,0.2,0.4,0.3c0,0.1-1,3.2-4.3,3.2c-3.6,0-5.5-2.2-5.5-5.7c0-3.6,2.4-6,5-6c4.2,0,4.5,3.6,4.5,4.4c0,0.3-0.1,0.3-0.3,0.3
		H55.5z M59.8,11.3c0.5,0,0.9-0.2,0.9-0.8c0-2-1.4-2.4-2.2-2.4c-1.8,0-2.6,1.5-2.8,3.2H59.8z"/>
	<path fill="#FFFFFF" d="M66.5,10.5c0-0.9-0.2-1.4-1.5-1.5c-0.2,0-0.2-0.1-0.2-0.3c0-0.2,0.1-0.3,0.2-0.4c2.9-0.6,3.2-1.2,3.5-1.2
		c0.1,0,0.1,0.1,0.1,0.3c0,0.3-0.1,0.9-0.1,2.3c0.8-0.9,2.2-2.2,3.5-2.2c0.9,0,1.6,0.5,1.6,1.4c0,0.7-0.5,1.3-1.2,1.3
		c-1,0-1.2-1-1.9-1c-0.4,0-1.1,0.4-1.7,1.1c-0.2,0.2-0.2,0.5-0.2,0.7v5.7c0,0.9,0,1.5,1.3,1.5c0.9,0,1,0,1,0.3
		c0,0.3-0.1,0.4-0.4,0.4c-0.9,0-1.7,0-2.9,0c-2,0-2.4,0-2.9,0c-0.2,0-0.2-0.1-0.2-0.3c0-0.3,0.3-0.3,0.8-0.3c1.1,0,1.3-0.2,1.3-1.3
		V10.5z"/>
	<path fill="#FFFFFF" d="M82.2,15.7c0,1.2-0.7,3.4-4.1,3.4c-0.5,0-1.9-0.2-2.9-0.2c0,0-0.1-0.1-0.1-0.1c0-0.3-0.6-2.5-0.6-2.7
		c0-0.2,0.4-0.2,0.5-0.2c0.6,0,0.8,2.5,3.2,2.5c1.8,0,2.3-1.4,2.3-2.2c0-2.6-5.6-1.8-5.6-5.4c0-2.1,1.7-3.4,3.8-3.4
		c1.2,0,2.6,0.2,2.7,0.2c0.3,0.1,0.4,0.6,0.4,0.7c0.1,1,0.3,1.7,0.3,2c0,0.2-0.2,0.2-0.3,0.2c-0.2,0-0.4,0-0.5-0.4
		c-0.2-0.4-0.8-2.1-2.6-2.1c-1.2,0-2,0.7-2,1.9c0,0.9,0.6,1.4,1.2,1.7C80.4,13,82.2,12.9,82.2,15.7z"/>
	<path fill="#FFFFFF" d="M87.6,16.5c0,1.4,0.1,1.7,1.2,1.7c0.6,0,0.6,0,0.6,0.3c0,0.2,0,0.3-0.3,0.3c-0.1,0-0.5,0-2.1,0
		c-2.4,0-3,0-3.4,0c-0.2,0-0.2-0.1-0.2-0.3c0-0.3,0-0.4,1-0.4c0.7,0,0.9-0.3,1-0.6c0.1-0.2,0.2-2,0.2-3.6v-3.5
		c0-0.9-0.2-1.4-1.5-1.5c-0.2,0-0.2-0.1-0.2-0.3c0-0.2,0.1-0.3,0.2-0.4c2.9-0.6,3.2-1.2,3.5-1.2c0.1,0,0.2,0.1,0.2,0.3
		c0,0.1-0.1,0.4-0.1,3.6V16.5z M85.3,2.3c0-0.7,0.6-1.3,1.3-1.3c0.8,0,1.3,0.7,1.3,1.3c0,0.7-0.6,1.3-1.3,1.3
		C85.8,3.6,85.3,3,85.3,2.3z"/>
	<path fill="#FFFFFF" d="M93.7,14.4c0,2.7,0.2,3.6,2.2,3.6c0.9,0,1.6-0.6,1.7-0.6c0.1,0,0.3,0.3,0.3,0.4c0,0.2-1.1,1.3-3.3,1.3
		c-2.9,0-2.9-2.5-2.9-3.1V9.4c0-0.2-0.1-0.3-0.3-0.3h-1.3C90.1,9.1,90,9,90,8.9c0-0.1,0-0.3,0.2-0.4c2.3-1.8,2.8-3.1,3.3-3.1
		c0.2,0,0.3,0.1,0.3,0.3c0,0.5-0.1,0.9-0.1,2.3h3.9c0.2,0,0.3,0.2,0.3,0.5c0,0.3-0.2,0.6-0.7,0.6c-0.2,0-1.4-0.1-3.5-0.1V14.4z"/>
	<path fill="#FFFFFF" d="M108.9,9.4c0-0.8-1.2-0.9-1.9-0.9c-0.2,0-0.3-0.1-0.3-0.3c0-0.2,0.1-0.3,0.2-0.3c0.8,0,1.6,0.1,2.4,0.1
		c0.8,0,1.6-0.1,2.3-0.1c0.2,0,0.2,0.2,0.2,0.3c0,0.2-0.1,0.3-0.4,0.3c-0.9,0.1-1.2,0.2-1.6,1.1c-0.9,2.1-4.4,9.4-4.9,10.8
		c-1.9,4.9-2.8,5.2-3.6,5.2c-0.8,0-1.4-0.7-1.4-1.5c0-0.8,0.7-1.4,1.5-1.4c0.6,0,1,0.4,1.3,0.4c0.5,0,1.6-2.4,1.6-3.6
		c0-0.6-0.6-2.1-0.9-2.8c-1.6-4.1-2.1-6.3-2.6-7.7c-0.2-0.6-1.5-0.6-1.8-0.6c-0.2,0-0.2-0.2-0.2-0.4c0-0.2,0.1-0.3,0.3-0.3
		c0.3,0,1.9,0.1,2.8,0.1c0.9,0,1.7-0.1,2.5-0.1c0.3,0,0.3,0.2,0.3,0.3c0,0.1-0.1,0.3-0.3,0.3c-0.2,0-1.2,0-1.2,0.6
		c0,1.2,0.9,3.7,2.5,7.9C106.8,14.6,108.9,10.2,108.9,9.4z"/>
	<path fill="#FFFFFF" d="M124.7,19.2c-3.4,0-5.8-2.5-5.8-5.8c0-3.3,2.5-5.8,5.8-5.8c3.4,0,5.9,2.4,5.9,5.8
		C130.5,16.8,128.2,19.2,124.7,19.2z M124.7,8.1c-2.6,0-3.4,2.7-3.4,5.2c0,2.1,0.5,5.2,3.4,5.2c3,0,3.5-3,3.5-5.2
		C128.1,10.9,127.3,8.1,124.7,8.1z"/>
	<path fill="#FFFFFF" d="M136.3,16.7c0,0.9,0,1.5,1.3,1.5c0.9,0,1,0,1,0.3c0,0.3-0.1,0.4-0.4,0.4c-0.9,0-1.7,0-2.9,0
		c-2,0-2.4,0-2.7,0c-0.2,0-0.2-0.1-0.2-0.3c0-0.3,0.1-0.3,0.5-0.3c1.1,0,1.3-0.2,1.3-1.3v-7c0-0.3,0-0.8-0.5-0.8h-1.4
		c-0.2,0-0.3,0-0.3-0.3c0-0.2,0.2-0.3,0.8-0.4c1-0.2,1.2-0.3,1.3-1.4c0.3-3.8,1.4-5.9,4.4-6.7c0.4-0.1,1.1-0.2,1.5-0.2
		c0.7,0,1.6,0.3,1.6,1.1c0,0.7-0.4,1.2-1.2,1.2c-0.2,0-0.8-0.1-1.4-0.6c-0.4-0.4-0.9-0.6-1.1-0.6c-1.4,0-1.7,2.1-1.7,3.7v3.2h3.1
		c0.2,0,0.3,0.2,0.3,0.5c0,0.3-0.1,0.6-0.7,0.6c-0.2,0-2.1-0.1-2.7-0.1V16.7z"/>
	<path fill="#FFFFFF" d="M167.5,1.1c0.1-0.2,0.2-0.3,0.3-0.3c0.1,0,2,0.1,2.5,0.1c0.4,0,2.6-0.1,2.7-0.1c0.3,0,0.3,0.2,0.3,0.4
		c0,0.2-0.1,0.3-0.3,0.3c-2.3,0-2.5,0.2-2.5,1.3c0,1.6,0.3,6.9,0.5,14c0,0.9,0.7,1.2,1.4,1.2c1.4,0,1.4,0.1,1.4,0.3
		c0,0.4-0.1,0.4-0.3,0.4c-0.2,0-0.5,0-4,0c-3.3,0-3.4,0-3.6,0c-0.3,0-0.3-0.2-0.3-0.4c0-0.2,0-0.4,1.2-0.4c1.7,0,1.7-0.4,1.7-1.4
		c0-1.5-0.4-9.6-0.6-14.4h0c-1.8,4.7-4.2,10.1-5.8,14.2c-1,2.3-1,2.6-1.3,2.6c-0.3,0-0.4-0.2-0.9-2c-0.6-1.8-4.7-12.9-4.8-12.9
		c-0.4,1.8-2.1,10.2-2.1,12.7c0,0.8,0.4,1.2,1.3,1.2c0.6,0,1.4,0,1.4,0.2c0,0.5,0,0.6-0.3,0.6c-0.2,0-0.5,0-3,0c-2.3,0-2.5,0-2.6,0
		c-0.2,0-0.3,0-0.3-0.4c0-0.3,0.1-0.3,1.3-0.3c0.9,0,1.1-0.3,1.3-1.8c0.7-3.6,1.3-7.3,2.1-10.9c0.3-1.1,0.3-1.8,0.3-2.4
		c0-0.1-0.4-1.1-0.7-1.3c-0.2-0.1-1.4-0.2-2.2-0.2c-0.3,0-0.3-0.2-0.3-0.4c0-0.2,0.1-0.4,0.3-0.4c0.5,0,2.6,0.1,2.9,0.1
		c0.7,0,1.7-0.1,2-0.1c0.3,0,0.4,0.3,0.6,1.2c0.5,1.9,4.2,12.1,4.6,13C163.8,10.6,165.7,6,167.5,1.1z"/>
	<path fill="#FFFFFF" d="M178.7,16.5c0,1.4,0.1,1.7,1.2,1.7c0.6,0,0.6,0,0.6,0.3c0,0.2,0,0.3-0.3,0.3c-0.1,0-0.5,0-2.1,0
		c-2.4,0-3,0-3.4,0c-0.2,0-0.2-0.1-0.2-0.3c0-0.3,0-0.4,1-0.4c0.7,0,0.9-0.3,1-0.6c0.1-0.2,0.2-2,0.2-3.6v-3.5
		c0-0.9-0.2-1.4-1.5-1.5C175,9,175,8.9,175,8.7c0-0.2,0.1-0.3,0.2-0.4c2.9-0.6,3.2-1.2,3.5-1.2c0.1,0,0.2,0.1,0.2,0.3
		c0,0.1-0.1,0.4-0.1,3.6V16.5z M176.4,2.3c0-0.7,0.6-1.3,1.3-1.3c0.8,0,1.3,0.7,1.3,1.3c0,0.7-0.6,1.3-1.3,1.3
		C176.9,3.6,176.4,3,176.4,2.3z"/>
	<path fill="#FFFFFF" d="M189.6,15.7c0,1.2-0.7,3.4-4.1,3.4c-0.5,0-1.9-0.2-2.9-0.2c0,0-0.1-0.1-0.1-0.1c0-0.3-0.6-2.5-0.6-2.7
		c0-0.2,0.4-0.2,0.5-0.2c0.6,0,0.8,2.5,3.2,2.5c1.8,0,2.3-1.4,2.3-2.2c0-2.6-5.6-1.8-5.6-5.4c0-2.1,1.7-3.4,3.8-3.4
		c1.2,0,2.6,0.2,2.7,0.2c0.3,0.1,0.4,0.6,0.4,0.7c0,1,0.3,1.7,0.3,2c0,0.2-0.1,0.2-0.3,0.2c-0.2,0-0.4,0-0.5-0.4
		c-0.2-0.4-0.8-2.1-2.6-2.1c-1.2,0-2,0.7-2,1.9c0,0.9,0.6,1.4,1.2,1.7C187.8,13,189.6,12.9,189.6,15.7z"/>
	<path fill="#FFFFFF" d="M198.9,15.7c0,1.2-0.7,3.4-4.1,3.4c-0.5,0-1.9-0.2-2.9-0.2c0,0-0.1-0.1-0.1-0.1c0-0.3-0.6-2.5-0.6-2.7
		c0-0.2,0.4-0.2,0.5-0.2c0.6,0,0.8,2.5,3.2,2.5c1.8,0,2.3-1.4,2.3-2.2c0-2.6-5.6-1.8-5.6-5.4c0-2.1,1.7-3.4,3.8-3.4
		c1.2,0,2.6,0.2,2.7,0.2c0.3,0.1,0.4,0.6,0.4,0.7c0.1,1,0.3,1.7,0.3,2c0,0.2-0.2,0.2-0.3,0.2c-0.2,0-0.4,0-0.5-0.4
		c-0.2-0.4-0.8-2.1-2.6-2.1c-1.2,0-2,0.7-2,1.9c0,0.9,0.6,1.4,1.2,1.7C197.1,13,198.9,12.9,198.9,15.7z"/>
	<path fill="#FFFFFF" d="M206.6,19.2c-3.4,0-5.8-2.5-5.8-5.8c0-3.3,2.5-5.8,5.8-5.8c3.4,0,5.9,2.4,5.9,5.8
		C212.5,16.8,210.1,19.2,206.6,19.2z M206.6,8.1c-2.6,0-3.4,2.7-3.4,5.2c0,2.1,0.5,5.2,3.4,5.2c3,0,3.5-3,3.5-5.2
		C210.1,10.9,209.2,8.1,206.6,8.1z"/>
	<path fill="#FFFFFF" d="M215.6,11c0-2.2-0.3-2.4-1.6-2.4c-0.2,0-0.6,0-0.6-0.3c0-0.2,0-0.5,0.3-0.5c0.3,0,0.7,0.1,1.5,0.1
		c0.9,0,1.8-0.1,2.2-0.1c0.2,0,0.2,0,0.2,0.4V15c0,1.9,0.6,3,2.5,3c0.9,0,2.5-0.6,2.5-1.3v-6.5c0-1.4-0.3-1.5-1.6-1.5
		c-0.5,0-0.8,0-0.8-0.3c0-0.4,0-0.5,0.2-0.5c0.4,0,0.7,0.1,2.2,0.1c0.6,0,1.3-0.1,1.9-0.1c0.2,0,0.4,0.1,0.4,0.4
		c0,0.1-0.2,2-0.2,3.8v4.7c0,0.4,0,0.9,0.6,0.9c0.4,0,0.9-0.1,1.1-0.1c0.1,0,0.2,0,0.2,0.5c0,0.1,0,0.2-0.8,0.3
		c-2.1,0.4-2.7,0.7-2.9,0.7c-0.2,0-0.3-0.2-0.3-0.4c0-0.3,0.1-0.7,0.1-1c-1.3,0.9-2.8,1.4-3.8,1.4c-2.5,0-3.2-1.6-3.2-4.2V11z"/>
	<path fill="#FFFFFF" d="M229.4,10.5c0-0.9-0.2-1.4-1.5-1.5c-0.2,0-0.2-0.1-0.2-0.3c0-0.2,0.1-0.3,0.2-0.4c2.9-0.6,3.2-1.2,3.5-1.2
		c0.1,0,0.1,0.1,0.1,0.3c0,0.3-0.1,0.9-0.1,2.3c0.8-0.9,2.2-2.2,3.5-2.2c0.9,0,1.6,0.5,1.6,1.4c0,0.7-0.5,1.3-1.2,1.3
		c-1,0-1.2-1-1.9-1c-0.4,0-1.1,0.4-1.7,1.1c-0.2,0.2-0.2,0.5-0.2,0.7v5.7c0,0.9,0,1.5,1.3,1.5c0.9,0,1,0,1,0.3
		c0,0.3-0.1,0.4-0.4,0.4c-0.9,0-1.7,0-2.9,0c-2,0-2.4,0-2.9,0c-0.2,0-0.2-0.1-0.2-0.3c0-0.3,0.3-0.3,0.8-0.3c1.1,0,1.3-0.2,1.3-1.3
		V10.5z"/>
	<path fill="#FFFFFF" d="M241.2,16.5c0,1.4,0,1.7,1.2,1.7c0.6,0,0.6,0,0.6,0.3c0,0.2,0,0.3-0.3,0.3c-0.1,0-0.5,0-2.1,0
		c-2.4,0-3,0-3.4,0c-0.2,0-0.2-0.1-0.2-0.3c0-0.3,0-0.4,1-0.4c0.7,0,0.9-0.3,1-0.6c0.1-0.2,0.1-2,0.1-3.6v-3.5
		c0-0.9-0.2-1.4-1.5-1.5c-0.2,0-0.2-0.1-0.2-0.3c0-0.2,0.1-0.3,0.2-0.4c2.9-0.6,3.2-1.2,3.5-1.2c0.1,0,0.1,0.1,0.1,0.3
		c0,0.1-0.1,0.4-0.1,3.6V16.5z M238.8,2.3c0-0.7,0.6-1.3,1.3-1.3c0.8,0,1.3,0.7,1.3,1.3c0,0.7-0.6,1.3-1.3,1.3
		C239.4,3.6,238.8,3,238.8,2.3z"/>
</g>
<g>
	<path fill="#F1B82D" d="M5.5,37.4c0,3.4,1.4,6.3,5.6,6.3c2.9,0,5.5-1.6,5.5-7.6v-5c0-3.5-0.7-3.5-3.3-3.5c-0.2,0-0.2-0.2-0.2-0.4
		c0-0.3,0.1-0.4,0.2-0.4c0.4,0,2.1,0.1,3.7,0.1c0.8,0,2.9-0.1,3.3-0.1c0.3,0,0.4,0,0.4,0.4c0,0.1,0,0.3-0.2,0.3c-2.4,0-2.9,0-2.9,3
		v6c0,6.8-4.3,8.6-7.3,8.6c-5.6,0-7.2-3.8-7.2-6.5v-5.8c0-1.8,0-2.4-0.1-3.5c0-1.5-0.5-1.7-2.6-1.7C0,27.6,0,27.4,0,27.2
		c0-0.2,0.1-0.3,0.2-0.3c0.2,0,2.4,0.1,4,0.1c1.6,0,3.8-0.1,4-0.1c0.2,0,0.2,0.2,0.2,0.3c0,0.2,0,0.4-0.3,0.4
		c-2.2,0-2.6,0.2-2.6,1.7c0,1.2-0.1,1.8-0.1,3.5V37.4z"/>
	<path fill="#F1B82D" d="M24.9,42.5c0,1.4,0,1.7,1.2,1.7c0.7,0,0.7,0,0.7,0.3c0,0.2,0,0.3-0.3,0.3c-0.1,0-0.5,0-2.2,0
		c-2.4,0-3,0-3.4,0c-0.2,0-0.2-0.1-0.2-0.3c0-0.3,0-0.4,1-0.4c0.7,0,0.9-0.3,1-0.6c0.1-0.2,0.2-2,0.2-3.6v-3.5
		c0-0.9-0.2-1.4-1.5-1.5c-0.2,0-0.2-0.1-0.2-0.3c0-0.2,0.1-0.3,0.2-0.4c2.9-0.6,3.2-1.2,3.5-1.2c0.1,0,0.1,0.1,0.1,0.3
		c0,0.2,0,0.7,0,1.8c1.3-0.9,2.6-1.7,4-1.7c0.9,0,3.3,0.2,3.3,3.8v6c0,0.4,0.1,0.9,1.6,0.9c0.3,0,0.3,0.2,0.3,0.3
		c0,0.2,0,0.3-0.4,0.3c-0.8,0-1.2,0-2.5,0c-2,0-2.4,0-2.6,0c-0.2,0-0.2-0.2-0.2-0.3c0-0.1,0.1-0.4,0.4-0.4c1.2,0,1.4-0.1,1.4-0.9
		v-4.5c0-2.3-0.2-3.9-2.8-3.9c-1,0-2.3,0.9-2.4,1.2V42.5z"/>
	<path fill="#F1B82D" d="M39,42.5c0,1.4,0.1,1.7,1.2,1.7c0.6,0,0.6,0,0.6,0.3c0,0.2,0,0.3-0.3,0.3c-0.1,0-0.5,0-2.1,0
		c-2.4,0-3,0-3.4,0c-0.2,0-0.2-0.1-0.2-0.3c0-0.3,0-0.4,1-0.4c0.7,0,0.9-0.3,1-0.6c0.1-0.2,0.2-2,0.2-3.6v-3.5
		c0-0.9-0.2-1.4-1.5-1.5c-0.2,0-0.2-0.1-0.2-0.3c0-0.2,0.1-0.3,0.2-0.4c2.9-0.6,3.2-1.2,3.5-1.2c0.1,0,0.2,0.1,0.2,0.3
		c0,0.1-0.1,0.4-0.1,3.6V42.5z M36.7,28.3c0-0.7,0.6-1.3,1.3-1.3c0.8,0,1.3,0.7,1.3,1.3c0,0.7-0.6,1.3-1.3,1.3
		C37.2,29.6,36.7,29,36.7,28.3z"/>
	<path fill="#F1B82D" d="M50.6,35.3c0-0.7-1.3-0.7-1.7-0.7c-0.1,0-0.2-0.2-0.2-0.4c0-0.1,0.1-0.3,0.3-0.3c0.7,0,1.5,0.1,2.2,0.1
		c0.7,0,1.5-0.1,2.2-0.1c0.2,0,0.2,0.2,0.2,0.3c0,0.1,0,0.3-0.3,0.3c-1.5,0.2-1.5,0.3-2.3,2.3c-0.9,2.2-2.4,5.3-2.8,6.4
		c-0.7,1.7-0.9,2-1.1,2c-0.3,0-0.5-0.5-1-1.6c-0.9-1.9-3-8-3.3-8.5c-0.3-0.4-0.5-0.4-0.9-0.4c-0.7,0-0.8-0.1-0.8-0.4
		c0-0.2,0.1-0.3,0.3-0.3c0.8,0,1.6,0.1,2.4,0.1c0.5,0,2.5-0.1,3-0.1c0.2,0,0.2,0.2,0.2,0.4c0,0.1-0.1,0.3-0.3,0.3
		c-0.8,0-1.5,0.1-1.5,0.6c0,0.8,2,5.9,2.6,7C50.2,36.9,50.6,36,50.6,35.3z"/>
	<path fill="#F1B82D" d="M55.5,38c-0.1,0.5-0.1,1-0.1,1.4c0,1.6,1.4,4.2,4.1,4.2c1.2,0,2.1-0.4,2.9-1.5c0.2-0.2,0.3-0.4,0.4-0.4
		c0.2,0,0.4,0.2,0.4,0.3c0,0.1-1,3.2-4.3,3.2c-3.6,0-5.5-2.2-5.5-5.7c0-3.6,2.4-6,5-6c4.2,0,4.5,3.6,4.5,4.4c0,0.3-0.1,0.3-0.3,0.3
		H55.5z M59.8,37.3c0.5,0,0.9-0.2,0.9-0.8c0-2-1.4-2.4-2.2-2.4c-1.8,0-2.6,1.5-2.8,3.2H59.8z"/>
	<path fill="#F1B82D" d="M66.5,36.5c0-0.9-0.2-1.4-1.5-1.5c-0.2,0-0.2-0.1-0.2-0.3c0-0.2,0.1-0.3,0.2-0.4c2.9-0.6,3.2-1.2,3.5-1.2
		c0.1,0,0.1,0.1,0.1,0.3c0,0.3-0.1,0.9-0.1,2.3c0.8-0.9,2.2-2.2,3.5-2.2c0.9,0,1.6,0.5,1.6,1.4c0,0.7-0.5,1.3-1.2,1.3
		c-1,0-1.2-1-1.9-1c-0.4,0-1.1,0.4-1.7,1.1c-0.2,0.2-0.2,0.5-0.2,0.7v5.7c0,0.9,0,1.5,1.3,1.5c0.9,0,1,0,1,0.3
		c0,0.3-0.1,0.4-0.4,0.4c-0.9,0-1.7,0-2.9,0c-2,0-2.4,0-2.9,0c-0.2,0-0.2-0.1-0.2-0.3c0-0.3,0.3-0.3,0.8-0.3c1.1,0,1.3-0.2,1.3-1.3
		V36.5z"/>
	<path fill="#F1B82D" d="M82.2,41.7c0,1.2-0.7,3.4-4.1,3.4c-0.5,0-1.9-0.2-2.9-0.2c0,0-0.1-0.1-0.1-0.1c0-0.3-0.6-2.5-0.6-2.7
		c0-0.2,0.4-0.2,0.5-0.2c0.6,0,0.8,2.5,3.2,2.5c1.8,0,2.3-1.4,2.3-2.2c0-2.6-5.6-1.8-5.6-5.4c0-2.1,1.7-3.4,3.8-3.4
		c1.2,0,2.6,0.2,2.7,0.2c0.3,0.1,0.4,0.6,0.4,0.7c0.1,1,0.3,1.7,0.3,2c0,0.2-0.2,0.2-0.3,0.2c-0.2,0-0.4,0-0.5-0.4
		c-0.2-0.4-0.8-2.1-2.6-2.1c-1.2,0-2,0.7-2,1.9c0,0.9,0.6,1.4,1.2,1.7C80.4,39,82.2,38.9,82.2,41.7z"/>
	<path fill="#F1B82D" d="M87.6,42.5c0,1.4,0.1,1.7,1.2,1.7c0.6,0,0.6,0,0.6,0.3c0,0.2,0,0.3-0.3,0.3c-0.1,0-0.5,0-2.1,0
		c-2.4,0-3,0-3.4,0c-0.2,0-0.2-0.1-0.2-0.3c0-0.3,0-0.4,1-0.4c0.7,0,0.9-0.3,1-0.6c0.1-0.2,0.2-2,0.2-3.6v-3.5
		c0-0.9-0.2-1.4-1.5-1.5c-0.2,0-0.2-0.1-0.2-0.3c0-0.2,0.1-0.3,0.2-0.4c2.9-0.6,3.2-1.2,3.5-1.2c0.1,0,0.2,0.1,0.2,0.3
		c0,0.1-0.1,0.4-0.1,3.6V42.5z M85.3,28.3c0-0.7,0.6-1.3,1.3-1.3c0.8,0,1.3,0.7,1.3,1.3c0,0.7-0.6,1.3-1.3,1.3
		C85.8,29.6,85.3,29,85.3,28.3z"/>
	<path fill="#F1B82D" d="M93.7,40.4c0,2.7,0.2,3.6,2.2,3.6c0.9,0,1.6-0.6,1.7-0.6c0.1,0,0.3,0.3,0.3,0.4c0,0.2-1.1,1.3-3.3,1.3
		c-2.9,0-2.9-2.5-2.9-3.1v-6.6c0-0.2-0.1-0.3-0.3-0.3h-1.3c-0.1,0-0.2-0.1-0.2-0.2c0-0.1,0-0.3,0.2-0.4c2.3-1.8,2.8-3.1,3.3-3.1
		c0.2,0,0.3,0.1,0.3,0.3c0,0.5-0.1,0.9-0.1,2.3h3.9c0.2,0,0.3,0.2,0.3,0.5c0,0.3-0.2,0.6-0.7,0.6c-0.2,0-1.4-0.1-3.5-0.1V40.4z"/>
	<path fill="#F1B82D" d="M108.9,35.4c0-0.8-1.2-0.9-1.9-0.9c-0.2,0-0.3-0.1-0.3-0.3c0-0.2,0.1-0.3,0.2-0.3c0.8,0,1.6,0.1,2.4,0.1
		c0.8,0,1.6-0.1,2.3-0.1c0.2,0,0.2,0.2,0.2,0.3c0,0.2-0.1,0.3-0.4,0.3c-0.9,0.1-1.2,0.2-1.6,1.1c-0.9,2.1-4.4,9.4-4.9,10.8
		c-1.9,4.9-2.8,5.2-3.6,5.2c-0.8,0-1.4-0.7-1.4-1.5c0-0.8,0.7-1.4,1.5-1.4c0.6,0,1,0.4,1.3,0.4c0.5,0,1.6-2.4,1.6-3.6
		c0-0.6-0.6-2.1-0.9-2.8c-1.6-4.1-2.1-6.3-2.6-7.7c-0.2-0.6-1.5-0.6-1.8-0.6c-0.2,0-0.2-0.2-0.2-0.4c0-0.2,0.1-0.3,0.3-0.3
		c0.3,0,1.9,0.1,2.8,0.1c0.9,0,1.7-0.1,2.5-0.1c0.3,0,0.3,0.2,0.3,0.3c0,0.1-0.1,0.3-0.3,0.3c-0.2,0-1.2,0-1.2,0.6
		c0,1.2,0.9,3.7,2.5,7.9C106.8,40.6,108.9,36.2,108.9,35.4z"/>
	<path fill="#F1B82D" d="M124.7,45.2c-3.4,0-5.8-2.5-5.8-5.8c0-3.3,2.5-5.8,5.8-5.8c3.4,0,5.9,2.4,5.9,5.8
		C130.5,42.8,128.2,45.2,124.7,45.2z M124.7,34.1c-2.6,0-3.4,2.7-3.4,5.2c0,2.1,0.5,5.2,3.4,5.2c3,0,3.5-3,3.5-5.2
		C128.1,36.9,127.3,34.1,124.7,34.1z"/>
	<path fill="#F1B82D" d="M136.3,42.7c0,0.9,0,1.5,1.3,1.5c0.9,0,1,0,1,0.3c0,0.3-0.1,0.4-0.4,0.4c-0.9,0-1.7,0-2.9,0
		c-2,0-2.4,0-2.7,0c-0.2,0-0.2-0.1-0.2-0.3c0-0.3,0.1-0.3,0.5-0.3c1.1,0,1.3-0.2,1.3-1.3v-7c0-0.3,0-0.8-0.5-0.8h-1.4
		c-0.2,0-0.3,0-0.3-0.3c0-0.2,0.2-0.3,0.8-0.4c1-0.2,1.2-0.3,1.3-1.4c0.3-3.8,1.4-5.9,4.4-6.7c0.4-0.1,1.1-0.2,1.5-0.2
		c0.7,0,1.6,0.3,1.6,1.1c0,0.7-0.4,1.2-1.2,1.2c-0.2,0-0.8-0.1-1.4-0.6c-0.4-0.4-0.9-0.6-1.1-0.6c-1.4,0-1.7,2.1-1.7,3.7v3.2h3.1
		c0.2,0,0.3,0.2,0.3,0.5c0,0.3-0.1,0.6-0.7,0.6c-0.2,0-2.1-0.1-2.7-0.1V42.7z"/>
	<path fill="#F1B82D" d="M167.5,27.1c0.1-0.2,0.2-0.3,0.3-0.3c0.1,0,2,0.1,2.5,0.1c0.4,0,2.6-0.1,2.7-0.1c0.3,0,0.3,0.2,0.3,0.4
		c0,0.2-0.1,0.3-0.3,0.3c-2.3,0-2.5,0.2-2.5,1.3c0,1.6,0.3,6.9,0.5,14c0,0.9,0.7,1.2,1.4,1.2c1.4,0,1.4,0.1,1.4,0.3
		c0,0.4-0.1,0.4-0.3,0.4c-0.2,0-0.5,0-4,0c-3.3,0-3.4,0-3.6,0c-0.3,0-0.3-0.2-0.3-0.4c0-0.2,0-0.4,1.2-0.4c1.7,0,1.7-0.4,1.7-1.4
		c0-1.5-0.4-9.6-0.6-14.4h0c-1.8,4.7-4.2,10.1-5.8,14.2c-1,2.3-1,2.6-1.3,2.6c-0.3,0-0.4-0.2-0.9-2c-0.6-1.8-4.7-12.9-4.8-12.9
		c-0.4,1.8-2.1,10.2-2.1,12.7c0,0.8,0.4,1.2,1.3,1.2c0.6,0,1.4,0,1.4,0.2c0,0.5,0,0.6-0.3,0.6c-0.2,0-0.5,0-3,0c-2.3,0-2.5,0-2.6,0
		c-0.2,0-0.3,0-0.3-0.4c0-0.3,0.1-0.3,1.3-0.3c0.9,0,1.1-0.3,1.3-1.8c0.7-3.6,1.3-7.3,2.1-10.9c0.3-1.1,0.3-1.8,0.3-2.4
		c0-0.1-0.4-1.1-0.7-1.3c-0.2-0.1-1.4-0.2-2.2-0.2c-0.3,0-0.3-0.2-0.3-0.4c0-0.2,0.1-0.4,0.3-0.4c0.5,0,2.6,0.1,2.9,0.1
		c0.7,0,1.7-0.1,2-0.1c0.3,0,0.4,0.3,0.6,1.2c0.5,1.9,4.2,12.1,4.6,13C163.8,36.6,165.7,32,167.5,27.1z"/>
	<path fill="#F1B82D" d="M178.7,42.5c0,1.4,0.1,1.7,1.2,1.7c0.6,0,0.6,0,0.6,0.3c0,0.2,0,0.3-0.3,0.3c-0.1,0-0.5,0-2.1,0
		c-2.4,0-3,0-3.4,0c-0.2,0-0.2-0.1-0.2-0.3c0-0.3,0-0.4,1-0.4c0.7,0,0.9-0.3,1-0.6c0.1-0.2,0.2-2,0.2-3.6v-3.5
		c0-0.9-0.2-1.4-1.5-1.5c-0.2,0-0.2-0.1-0.2-0.3c0-0.2,0.1-0.3,0.2-0.4c2.9-0.6,3.2-1.2,3.5-1.2c0.1,0,0.2,0.1,0.2,0.3
		c0,0.1-0.1,0.4-0.1,3.6V42.5z M176.4,28.3c0-0.7,0.6-1.3,1.3-1.3c0.8,0,1.3,0.7,1.3,1.3c0,0.7-0.6,1.3-1.3,1.3
		C176.9,29.6,176.4,29,176.4,28.3z"/>
	<path fill="#F1B82D" d="M189.6,41.7c0,1.2-0.7,3.4-4.1,3.4c-0.5,0-1.9-0.2-2.9-0.2c0,0-0.1-0.1-0.1-0.1c0-0.3-0.6-2.5-0.6-2.7
		c0-0.2,0.4-0.2,0.5-0.2c0.6,0,0.8,2.5,3.2,2.5c1.8,0,2.3-1.4,2.3-2.2c0-2.6-5.6-1.8-5.6-5.4c0-2.1,1.7-3.4,3.8-3.4
		c1.2,0,2.6,0.2,2.7,0.2c0.3,0.1,0.4,0.6,0.4,0.7c0,1,0.3,1.7,0.3,2c0,0.2-0.1,0.2-0.3,0.2c-0.2,0-0.4,0-0.5-0.4
		c-0.2-0.4-0.8-2.1-2.6-2.1c-1.2,0-2,0.7-2,1.9c0,0.9,0.6,1.4,1.2,1.7C187.8,39,189.6,38.9,189.6,41.7z"/>
	<path fill="#F1B82D" d="M198.9,41.7c0,1.2-0.7,3.4-4.1,3.4c-0.5,0-1.9-0.2-2.9-0.2c0,0-0.1-0.1-0.1-0.1c0-0.3-0.6-2.5-0.6-2.7
		c0-0.2,0.4-0.2,0.5-0.2c0.6,0,0.8,2.5,3.2,2.5c1.8,0,2.3-1.4,2.3-2.2c0-2.6-5.6-1.8-5.6-5.4c0-2.1,1.7-3.4,3.8-3.4
		c1.2,0,2.6,0.2,2.7,0.2c0.3,0.1,0.4,0.6,0.4,0.7c0.1,1,0.3,1.7,0.3,2c0,0.2-0.2,0.2-0.3,0.2c-0.2,0-0.4,0-0.5-0.4
		c-0.2-0.4-0.8-2.1-2.6-2.1c-1.2,0-2,0.7-2,1.9c0,0.9,0.6,1.4,1.2,1.7C197.1,39,198.9,38.9,198.9,41.7z"/>
	<path fill="#F1B82D" d="M206.6,45.2c-3.4,0-5.8-2.5-5.8-5.8c0-3.3,2.5-5.8,5.8-5.8c3.4,0,5.9,2.4,5.9,5.8
		C212.5,42.8,210.1,45.2,206.6,45.2z M206.6,34.1c-2.6,0-3.4,2.7-3.4,5.2c0,2.1,0.5,5.2,3.4,5.2c3,0,3.5-3,3.5-5.2
		C210.1,36.9,209.2,34.1,206.6,34.1z"/>
	<path fill="#F1B82D" d="M215.6,37c0-2.2-0.3-2.4-1.6-2.4c-0.2,0-0.6,0-0.6-0.3c0-0.2,0-0.5,0.3-0.5c0.3,0,0.7,0.1,1.5,0.1
		c0.9,0,1.8-0.1,2.2-0.1c0.2,0,0.2,0,0.2,0.4V41c0,1.9,0.6,3,2.5,3c0.9,0,2.5-0.6,2.5-1.3v-6.5c0-1.4-0.3-1.5-1.6-1.5
		c-0.5,0-0.8,0-0.8-0.3c0-0.4,0-0.5,0.2-0.5c0.4,0,0.7,0.1,2.2,0.1c0.6,0,1.3-0.1,1.9-0.1c0.2,0,0.4,0.1,0.4,0.4
		c0,0.1-0.2,2-0.2,3.8v4.7c0,0.4,0,0.9,0.6,0.9c0.4,0,0.9-0.1,1.1-0.1c0.1,0,0.2,0,0.2,0.5c0,0.1,0,0.2-0.8,0.3
		c-2.1,0.4-2.7,0.7-2.9,0.7c-0.2,0-0.3-0.2-0.3-0.4c0-0.3,0.1-0.7,0.1-1c-1.3,0.9-2.8,1.4-3.8,1.4c-2.5,0-3.2-1.6-3.2-4.2V37z"/>
	<path fill="#F1B82D" d="M229.4,36.5c0-0.9-0.2-1.4-1.5-1.5c-0.2,0-0.2-0.1-0.2-0.3c0-0.2,0.1-0.3,0.2-0.4c2.9-0.6,3.2-1.2,3.5-1.2
		c0.1,0,0.1,0.1,0.1,0.3c0,0.3-0.1,0.9-0.1,2.3c0.8-0.9,2.2-2.2,3.5-2.2c0.9,0,1.6,0.5,1.6,1.4c0,0.7-0.5,1.3-1.2,1.3
		c-1,0-1.2-1-1.9-1c-0.4,0-1.1,0.4-1.7,1.1c-0.2,0.2-0.2,0.5-0.2,0.7v5.7c0,0.9,0,1.5,1.3,1.5c0.9,0,1,0,1,0.3
		c0,0.3-0.1,0.4-0.4,0.4c-0.9,0-1.7,0-2.9,0c-2,0-2.4,0-2.9,0c-0.2,0-0.2-0.1-0.2-0.3c0-0.3,0.3-0.3,0.8-0.3c1.1,0,1.3-0.2,1.3-1.3
		V36.5z"/>
	<path fill="#F1B82D" d="M241.2,42.5c0,1.4,0,1.7,1.2,1.7c0.6,0,0.6,0,0.6,0.3c0,0.2,0,0.3-0.3,0.3c-0.1,0-0.5,0-2.1,0
		c-2.4,0-3,0-3.4,0c-0.2,0-0.2-0.1-0.2-0.3c0-0.3,0-0.4,1-0.4c0.7,0,0.9-0.3,1-0.6c0.1-0.2,0.1-2,0.1-3.6v-3.5
		c0-0.9-0.2-1.4-1.5-1.5c-0.2,0-0.2-0.1-0.2-0.3c0-0.2,0.1-0.3,0.2-0.4c2.9-0.6,3.2-1.2,3.5-1.2c0.1,0,0.1,0.1,0.1,0.3
		c0,0.1-0.1,0.4-0.1,3.6V42.5z M238.8,28.3c0-0.7,0.6-1.3,1.3-1.3c0.8,0,1.3,0.7,1.3,1.3c0,0.7-0.6,1.3-1.3,1.3
		C239.4,29.6,238.8,29,238.8,28.3z"/>
</g>
<g>
</g>
<g>
</g>
<g>
</g>
<g>
</g>
<g>
</g>
<g>
</g>
<g>
</g>
<g>
</g>
<g>
</g>
<g>
</g>
<g>
</g>
<g>
</g>
<g>
</g>
<g>
</g>
<g>
</g>
</svg>
