<?xml version="1.0" encoding="utf-8"?>
<!-- Generator: Adobe Illustrator 18.1.0, SVG Export Plug-In . SVG Version: 6.00 Build 0)  -->
<!DOCTYPE svg PUBLIC "-//W3C//DTD SVG 1.0//EN" "http://www.w3.org/TR/2001/REC-SVG-20010904/DTD/svg10.dtd">
<svg version="1.0" id="Layer_1" xmlns="http://www.w3.org/2000/svg" xmlns:xlink="http://www.w3.org/1999/xlink" x="0px" y="0px"
	 width="149px" height="34px" viewBox="0 0 149 34" enable-background="new 0 0 149 34" xml:space="preserve">
<g>
	<path fill="#FFFFFF" d="M3.3,8c0,2.1,0.9,3.9,3.5,3.9c1.8,0,3.4-1,3.4-4.7V4.1C10.2,2,9.7,2,8.1,2C8,2,8,1.9,8,1.8
		c0-0.2,0-0.2,0.1-0.2c0.3,0,1.3,0.1,2.3,0.1c0.5,0,1.8-0.1,2-0.1c0.2,0,0.2,0,0.2,0.3c0,0.1,0,0.2-0.1,0.2c-1.5,0-1.8,0-1.8,1.8
		v3.7c0,4.2-2.7,5.3-4.4,5.3c-3.5,0-4.4-2.3-4.4-4V5.2c0-1.1,0-1.5,0-2.2c0-0.9-0.3-1-1.6-1C0,2,0,1.9,0,1.7c0-0.1,0-0.2,0.1-0.2
		c0.1,0,1.5,0.1,2.4,0.1c1,0,2.3-0.1,2.5-0.1c0.1,0,0.1,0.1,0.1,0.2C5.2,1.9,5.2,2,5,2C3.7,2,3.4,2.1,3.4,3c0,0.7,0,1.1,0,2.2V8z"/>
	<path fill="#FFFFFF" d="M15.2,11.1c0,0.9,0,1.1,0.7,1.1c0.4,0,0.4,0,0.4,0.2c0,0.1,0,0.2-0.2,0.2c-0.1,0-0.3,0-1.4,0
		c-1.4,0-1.8,0-2.1,0c-0.1,0-0.1-0.1-0.1-0.2c0-0.2,0-0.2,0.6-0.2c0.4,0,0.5-0.2,0.6-0.4c0.1-0.1,0.1-1.2,0.1-2.2V7.4
		c0-0.5-0.1-0.8-0.9-0.9c-0.1,0-0.1-0.1-0.1-0.2c0-0.1,0-0.2,0.1-0.2c1.8-0.4,2-0.8,2.2-0.8c0,0,0,0,0,0.2c0,0.1,0,0.4,0,1.1
		c0.8-0.5,1.6-1.1,2.4-1.1c0.5,0,2,0.1,2,2.3v3.7c0,0.3,0,0.6,1,0.6c0.2,0,0.2,0.1,0.2,0.2c0,0.1,0,0.2-0.2,0.2c-0.5,0-0.7,0-1.6,0
		c-1.2,0-1.5,0-1.6,0c-0.1,0-0.1-0.1-0.1-0.2c0-0.1,0-0.2,0.2-0.2c0.7,0,0.9-0.1,0.9-0.6V8.8c0-1.4-0.1-2.4-1.7-2.4
		c-0.6,0-1.4,0.5-1.5,0.7V11.1z"/>
	<path fill="#FFFFFF" d="M23.9,11.1c0,0.9,0,1.1,0.7,1.1c0.3,0,0.4,0,0.4,0.2c0,0.1,0,0.2-0.2,0.2c-0.1,0-0.3,0-1.3,0
		c-1.4,0-1.8,0-2.1,0c-0.1,0-0.1-0.1-0.1-0.2c0-0.2,0-0.2,0.6-0.2c0.4,0,0.5-0.2,0.6-0.4c0.1-0.1,0.1-1.2,0.1-2.2V7.4
		c0-0.5-0.1-0.8-0.9-0.9c-0.1,0-0.1-0.1-0.1-0.2c0-0.1,0-0.2,0.1-0.2c1.8-0.4,2-0.8,2.2-0.8c0.1,0,0.1,0.1,0.1,0.2
		c0,0.1-0.1,0.2-0.1,2.2V11.1z M22.4,2.4c0-0.4,0.3-0.8,0.8-0.8C23.7,1.6,24,2,24,2.4c0,0.4-0.3,0.8-0.8,0.8
		C22.8,3.2,22.4,2.8,22.4,2.4z"/>
	<path fill="#FFFFFF" d="M30.9,6.7c0-0.4-0.8-0.4-1-0.4c-0.1,0-0.1-0.1-0.1-0.2c0-0.1,0.1-0.2,0.2-0.2c0.4,0,0.9,0,1.3,0
		c0.4,0,0.9,0,1.4,0c0.1,0,0.1,0.1,0.1,0.2c0,0.1,0,0.2-0.2,0.2c-0.9,0.1-0.9,0.2-1.4,1.4c-0.5,1.3-1.5,3.3-1.7,3.9
		c-0.4,1-0.6,1.2-0.7,1.2c-0.2,0-0.3-0.3-0.6-1c-0.5-1.2-1.8-4.9-2-5.2c-0.2-0.2-0.3-0.2-0.5-0.2c-0.4,0-0.5,0-0.5-0.3
		c0-0.1,0.1-0.2,0.2-0.2c0.5,0,1,0,1.5,0c0.3,0,1.5,0,1.8,0c0.1,0,0.1,0.1,0.1,0.2c0,0.1-0.1,0.2-0.2,0.2c-0.5,0-0.9,0-0.9,0.4
		c0,0.5,1.2,3.6,1.6,4.3C30.7,7.7,30.9,7.1,30.9,6.7z"/>
	<path fill="#FFFFFF" d="M33.9,8.4c0,0.3-0.1,0.6-0.1,0.9c0,1,0.8,2.5,2.5,2.5c0.7,0,1.3-0.2,1.8-0.9c0.1-0.1,0.2-0.3,0.2-0.3
		c0.1,0,0.2,0.1,0.2,0.2c0,0-0.6,2-2.7,2c-2.2,0-3.4-1.4-3.4-3.5c0-2.2,1.5-3.7,3.1-3.7c2.6,0,2.8,2.2,2.8,2.7
		c0,0.2-0.1,0.2-0.2,0.2H33.9z M36.6,7.9c0.3,0,0.5-0.1,0.5-0.5c0-1.2-0.8-1.5-1.4-1.5c-1.1,0-1.6,0.9-1.7,2H36.6z"/>
	<path fill="#FFFFFF" d="M40.7,7.4c0-0.5-0.1-0.8-0.9-0.9c-0.1,0-0.1-0.1-0.1-0.2c0-0.1,0-0.2,0.1-0.2c1.8-0.4,2-0.8,2.2-0.8
		c0,0,0.1,0.1,0.1,0.2c0,0.2-0.1,0.6-0.1,1.4c0.5-0.6,1.3-1.3,2.2-1.3c0.5,0,1,0.3,1,0.9c0,0.4-0.3,0.8-0.8,0.8
		c-0.6,0-0.7-0.6-1.2-0.6c-0.3,0-0.7,0.2-1.1,0.7c-0.1,0.1-0.1,0.3-0.1,0.4v3.5c0,0.6,0,0.9,0.8,0.9c0.6,0,0.6,0,0.6,0.2
		c0,0.2-0.1,0.2-0.2,0.2c-0.6,0-1,0-1.8,0c-1.2,0-1.5,0-1.8,0c-0.1,0-0.1-0.1-0.1-0.2c0-0.2,0.2-0.2,0.5-0.2c0.7,0,0.8-0.1,0.8-0.8
		V7.4z"/>
	<path fill="#FFFFFF" d="M50.3,10.6c0,0.8-0.4,2.1-2.5,2.1c-0.3,0-1.2-0.1-1.8-0.1c0,0-0.1,0-0.1-0.1c0-0.2-0.4-1.5-0.4-1.7
		c0-0.1,0.2-0.1,0.3-0.1c0.4,0,0.5,1.6,1.9,1.6c1.1,0,1.4-0.8,1.4-1.4c0-1.6-3.5-1.1-3.5-3.3c0-1.3,1-2.1,2.3-2.1
		c0.7,0,1.6,0.1,1.7,0.1C50,5.8,50,6.1,50,6.1c0,0.6,0.2,1,0.2,1.2c0,0.1-0.1,0.1-0.2,0.1c-0.1,0-0.2,0-0.3-0.2
		C49.6,7,49.2,6,48.1,6c-0.7,0-1.2,0.4-1.2,1.2c0,0.5,0.4,0.9,0.7,1C49.2,8.9,50.3,8.9,50.3,10.6z"/>
	<path fill="#FFFFFF" d="M53.6,11.1c0,0.9,0,1.1,0.7,1.1c0.3,0,0.4,0,0.4,0.2c0,0.1,0,0.2-0.2,0.2c-0.1,0-0.3,0-1.3,0
		c-1.4,0-1.8,0-2.1,0c-0.1,0-0.1-0.1-0.1-0.2c0-0.2,0-0.2,0.6-0.2c0.4,0,0.5-0.2,0.6-0.4c0.1-0.1,0.1-1.2,0.1-2.2V7.4
		c0-0.5-0.1-0.8-0.9-0.9c-0.1,0-0.1-0.1-0.1-0.2c0-0.1,0-0.2,0.1-0.2c1.8-0.4,2-0.8,2.2-0.8c0.1,0,0.1,0.1,0.1,0.2
		c0,0.1-0.1,0.2-0.1,2.2V11.1z M52.2,2.4c0-0.4,0.3-0.8,0.8-0.8c0.5,0,0.8,0.4,0.8,0.8c0,0.4-0.3,0.8-0.8,0.8
		C52.5,3.2,52.2,2.8,52.2,2.4z"/>
	<path fill="#FFFFFF" d="M57.4,9.8c0,1.6,0.1,2.2,1.4,2.2c0.5,0,1-0.4,1-0.4c0.1,0,0.2,0.2,0.2,0.2c0,0.1-0.6,0.8-2,0.8
		c-1.8,0-1.8-1.5-1.8-1.9V6.8c0-0.1,0-0.2-0.2-0.2h-0.8c0,0-0.1,0-0.1-0.1c0-0.1,0-0.2,0.1-0.2c1.4-1.1,1.7-1.9,2-1.9
		c0.1,0,0.2,0.1,0.2,0.2c0,0.3,0,0.5,0,1.4h2.4c0.1,0,0.2,0.1,0.2,0.3c0,0.2-0.1,0.4-0.4,0.4c-0.1,0-0.8-0.1-2.1-0.1V9.8z"/>
	<path fill="#FFFFFF" d="M66.7,6.8c0-0.5-0.7-0.5-1.2-0.5c-0.1,0-0.2-0.1-0.2-0.2c0-0.1,0.1-0.2,0.1-0.2c0.5,0,1,0,1.5,0
		c0.5,0,1,0,1.4,0c0.1,0,0.1,0.1,0.1,0.2c0,0.1,0,0.2-0.3,0.2c-0.5,0-0.7,0.1-1,0.7c-0.6,1.3-2.7,5.7-3,6.6c-1.2,3-1.7,3.2-2.2,3.2
		c-0.5,0-0.9-0.4-0.9-0.9c0-0.5,0.4-0.8,0.9-0.8c0.4,0,0.6,0.3,0.8,0.3c0.3,0,1-1.5,1-2.2c0-0.4-0.4-1.3-0.5-1.7
		c-1-2.5-1.3-3.8-1.6-4.7c-0.1-0.4-0.9-0.4-1.1-0.4c-0.1,0-0.1-0.1-0.1-0.2c0-0.1,0.1-0.2,0.2-0.2c0.2,0,1.2,0,1.7,0
		c0.5,0,1.1,0,1.5,0c0.2,0,0.2,0.1,0.2,0.2c0,0.1,0,0.2-0.2,0.2c-0.1,0-0.8,0-0.8,0.3c0,0.7,0.5,2.3,1.5,4.8
		C65.4,10,66.7,7.2,66.7,6.8z"/>
	<path fill="#FFFFFF" d="M76.3,12.7c-2.1,0-3.6-1.5-3.6-3.6c0-2,1.5-3.6,3.6-3.6c2.1,0,3.6,1.5,3.6,3.6
		C79.9,11.3,78.5,12.7,76.3,12.7z M76.3,6c-1.6,0-2.1,1.7-2.1,3.2c0,1.3,0.3,3.2,2.1,3.2c1.8,0,2.1-1.9,2.1-3.2
		C78.4,7.6,77.9,6,76.3,6z"/>
	<path fill="#FFFFFF" d="M83.4,11.2c0,0.6,0,0.9,0.8,0.9c0.6,0,0.6,0,0.6,0.2c0,0.2-0.1,0.2-0.2,0.2c-0.6,0-1,0-1.8,0
		c-1.2,0-1.5,0-1.6,0c-0.1,0-0.1-0.1-0.1-0.2c0-0.2,0-0.2,0.3-0.2c0.7,0,0.8-0.1,0.8-0.8V7.1c0-0.2,0-0.5-0.3-0.5H81
		c-0.1,0-0.2,0-0.2-0.2c0-0.1,0.1-0.2,0.5-0.3c0.6-0.1,0.8-0.2,0.8-0.9c0.2-2.3,0.8-3.6,2.7-4.1C85,1.1,85.4,1,85.7,1
		c0.4,0,1,0.2,1,0.7c0,0.4-0.3,0.8-0.7,0.8c-0.1,0-0.5,0-0.8-0.4c-0.3-0.2-0.5-0.4-0.7-0.4c-0.9,0-1,1.3-1,2.2v2h1.9
		c0.1,0,0.2,0.1,0.2,0.3c0,0.2-0.1,0.4-0.4,0.4c-0.1,0-1.3-0.1-1.6-0.1V11.2z"/>
	<path fill="#FFFFFF" d="M102.5,1.7c0-0.1,0.1-0.2,0.2-0.2c0.1,0,1.2,0.1,1.6,0.1c0.3,0,1.6-0.1,1.7-0.1c0.2,0,0.2,0.1,0.2,0.3
		c0,0.1-0.1,0.2-0.2,0.2c-1.4,0-1.6,0.1-1.6,0.8c0,1,0.2,4.2,0.3,8.6c0,0.5,0.4,0.7,0.8,0.7c0.9,0,0.9,0.1,0.9,0.2
		c0,0.2-0.1,0.3-0.2,0.3c-0.1,0-0.3,0-2.5,0c-2,0-2.1,0-2.2,0c-0.2,0-0.2-0.1-0.2-0.2c0-0.1,0-0.2,0.7-0.2c1,0,1-0.2,1-0.9
		c0-0.9-0.2-5.9-0.4-8.8h0c-1.1,2.9-2.5,6.2-3.6,8.7c-0.6,1.4-0.6,1.6-0.8,1.6c-0.2,0-0.2-0.1-0.6-1.2c-0.3-1.1-2.9-7.9-2.9-7.9
		c-0.3,1.1-1.3,6.2-1.3,7.8c0,0.5,0.3,0.7,0.8,0.7c0.4,0,0.8,0,0.8,0.1c0,0.3,0,0.3-0.2,0.3c-0.1,0-0.3,0-1.9,0c-1.4,0-1.5,0-1.6,0
		c-0.1,0-0.2,0-0.2-0.3c0-0.2,0.1-0.2,0.8-0.2c0.5,0,0.6-0.2,0.8-1.1c0.4-2.2,0.8-4.5,1.3-6.7c0.2-0.7,0.2-1.1,0.2-1.4
		c0-0.1-0.2-0.7-0.4-0.8C94.1,2,93.4,2,92.9,2c-0.2,0-0.2-0.1-0.2-0.2c0-0.1,0-0.2,0.2-0.2c0.3,0,1.6,0.1,1.8,0.1
		c0.4,0,1-0.1,1.2-0.1c0.2,0,0.2,0.2,0.4,0.7c0.3,1.2,2.6,7.4,2.8,8C100.3,7.5,101.4,4.7,102.5,1.7z"/>
	<path fill="#FFFFFF" d="M109.4,11.1c0,0.9,0,1.1,0.7,1.1c0.3,0,0.4,0,0.4,0.2c0,0.1,0,0.2-0.2,0.2c-0.1,0-0.3,0-1.3,0
		c-1.4,0-1.8,0-2.1,0c-0.1,0-0.1-0.1-0.1-0.2c0-0.2,0-0.2,0.6-0.2c0.4,0,0.5-0.2,0.6-0.4c0.1-0.1,0.1-1.2,0.1-2.2V7.4
		c0-0.5-0.1-0.8-0.9-0.9c-0.1,0-0.1-0.1-0.1-0.2c0-0.1,0-0.2,0.1-0.2c1.8-0.4,2-0.8,2.2-0.8c0.1,0,0.1,0.1,0.1,0.2
		c0,0.1-0.1,0.2-0.1,2.2V11.1z M108,2.4c0-0.4,0.3-0.8,0.8-0.8c0.5,0,0.8,0.4,0.8,0.8c0,0.4-0.3,0.8-0.8,0.8
		C108.3,3.2,108,2.8,108,2.4z"/>
	<path fill="#FFFFFF" d="M116,10.6c0,0.8-0.4,2.1-2.5,2.1c-0.3,0-1.2-0.1-1.8-0.1c0,0-0.1,0-0.1-0.1c0-0.2-0.4-1.5-0.4-1.7
		c0-0.1,0.2-0.1,0.3-0.1c0.4,0,0.5,1.6,1.9,1.6c1.1,0,1.4-0.8,1.4-1.4c0-1.6-3.5-1.1-3.5-3.3c0-1.3,1-2.1,2.3-2.1
		c0.7,0,1.6,0.1,1.7,0.1c0.2,0,0.2,0.3,0.2,0.4c0,0.6,0.2,1,0.2,1.2c0,0.1-0.1,0.1-0.2,0.1c-0.1,0-0.2,0-0.3-0.2
		C115.3,7,114.9,6,113.8,6c-0.7,0-1.2,0.4-1.2,1.2c0,0.5,0.4,0.9,0.7,1C114.9,8.9,116,8.9,116,10.6z"/>
	<path fill="#FFFFFF" d="M121.7,10.6c0,0.8-0.4,2.1-2.5,2.1c-0.3,0-1.2-0.1-1.8-0.1c0,0-0.1,0-0.1-0.1c0-0.2-0.4-1.5-0.4-1.7
		c0-0.1,0.2-0.1,0.3-0.1c0.4,0,0.5,1.6,1.9,1.6c1.1,0,1.4-0.8,1.4-1.4c0-1.6-3.5-1.1-3.5-3.3c0-1.3,1-2.1,2.3-2.1
		c0.7,0,1.6,0.1,1.7,0.1c0.2,0,0.2,0.3,0.2,0.4c0,0.6,0.2,1,0.2,1.2c0,0.1-0.1,0.1-0.2,0.1c-0.1,0-0.2,0-0.3-0.2
		C121,7,120.6,6,119.5,6c-0.7,0-1.2,0.4-1.2,1.2c0,0.5,0.4,0.9,0.7,1C120.6,8.9,121.7,8.9,121.7,10.6z"/>
	<path fill="#FFFFFF" d="M126.4,12.7c-2.1,0-3.6-1.5-3.6-3.6c0-2,1.5-3.6,3.6-3.6c2.1,0,3.6,1.5,3.6,3.6
		C130,11.3,128.6,12.7,126.4,12.7z M126.4,6c-1.6,0-2.1,1.7-2.1,3.2c0,1.3,0.3,3.2,2.1,3.2c1.8,0,2.1-1.9,2.1-3.2
		C128.6,7.6,128.1,6,126.4,6z"/>
	<path fill="#FFFFFF" d="M132,7.7c0-1.4-0.2-1.4-1-1.4c-0.1,0-0.3,0-0.3-0.2c0-0.1,0-0.3,0.2-0.3c0.2,0,0.4,0,0.9,0
		c0.5,0,1.1,0,1.3,0c0.1,0,0.1,0,0.1,0.2v4.2c0,1.2,0.4,1.8,1.5,1.8c0.6,0,1.5-0.3,1.5-0.8v-4c0-0.8-0.2-0.9-1-0.9
		c-0.3,0-0.5,0-0.5-0.2c0-0.2,0-0.3,0.1-0.3c0.2,0,0.4,0,1.3,0c0.4,0,0.8,0,1.2,0c0.1,0,0.2,0.1,0.2,0.2c0,0.1-0.1,1.2-0.1,2.3v2.9
		c0,0.2,0,0.6,0.4,0.6c0.2,0,0.6-0.1,0.7-0.1c0.1,0,0.1,0,0.1,0.3c0,0.1,0,0.1-0.5,0.2c-1.3,0.2-1.7,0.4-1.8,0.4
		c-0.1,0-0.2-0.1-0.2-0.2c0-0.2,0-0.4,0-0.6c-0.8,0.6-1.7,0.8-2.3,0.8c-1.5,0-2-1-2-2.6V7.7z"/>
	<path fill="#FFFFFF" d="M140.4,7.4c0-0.5-0.1-0.8-0.9-0.9c-0.1,0-0.1-0.1-0.1-0.2c0-0.1,0-0.2,0.1-0.2c1.8-0.4,2-0.8,2.2-0.8
		c0,0,0.1,0.1,0.1,0.2c0,0.2-0.1,0.6-0.1,1.4c0.5-0.6,1.3-1.3,2.2-1.3c0.5,0,1,0.3,1,0.9c0,0.4-0.3,0.8-0.8,0.8
		c-0.6,0-0.7-0.6-1.2-0.6c-0.3,0-0.7,0.2-1.1,0.7c-0.1,0.1-0.1,0.3-0.1,0.4v3.5c0,0.6,0,0.9,0.8,0.9c0.6,0,0.6,0,0.6,0.2
		c0,0.2-0.1,0.2-0.2,0.2c-0.6,0-1,0-1.8,0c-1.2,0-1.5,0-1.8,0c-0.1,0-0.1-0.1-0.1-0.2c0-0.2,0.2-0.2,0.5-0.2c0.7,0,0.8-0.1,0.8-0.8
		V7.4z"/>
	<path fill="#FFFFFF" d="M147.6,11.1c0,0.9,0,1.1,0.7,1.1c0.3,0,0.4,0,0.4,0.2c0,0.1,0,0.2-0.2,0.2c-0.1,0-0.3,0-1.3,0
		c-1.4,0-1.8,0-2.1,0c-0.1,0-0.1-0.1-0.1-0.2c0-0.2,0-0.2,0.6-0.2c0.4,0,0.5-0.2,0.6-0.4c0.1-0.1,0.1-1.2,0.1-2.2V7.4
		c0-0.5-0.1-0.8-0.9-0.9c-0.1,0-0.1-0.1-0.1-0.2c0-0.1,0-0.2,0.1-0.2c1.8-0.4,2-0.8,2.2-0.8c0.1,0,0.1,0.1,0.1,0.2
		c0,0.1-0.1,0.2-0.1,2.2V11.1z M146.2,2.4c0-0.4,0.3-0.8,0.8-0.8c0.5,0,0.8,0.4,0.8,0.8c0,0.4-0.3,0.8-0.8,0.8
		C146.5,3.2,146.2,2.8,146.2,2.4z"/>
</g>
<g>
	<path fill="#F1B82D" d="M3.3,25c0,2.1,0.9,3.9,3.5,3.9c1.8,0,3.4-1,3.4-4.7v-3.1c0-2.1-0.4-2.1-2-2.1C8,19,8,18.9,8,18.8
		c0-0.2,0-0.2,0.1-0.2c0.3,0,1.3,0.1,2.3,0.1c0.5,0,1.8-0.1,2-0.1c0.2,0,0.2,0,0.2,0.3c0,0.1,0,0.2-0.1,0.2c-1.5,0-1.8,0-1.8,1.8
		v3.7c0,4.2-2.7,5.3-4.4,5.3c-3.5,0-4.4-2.3-4.4-4v-3.5c0-1.1,0-1.5,0-2.2c0-0.9-0.3-1-1.6-1C0,19,0,18.9,0,18.7
		c0-0.1,0-0.2,0.1-0.2c0.1,0,1.5,0.1,2.4,0.1c1,0,2.3-0.1,2.5-0.1c0.1,0,0.1,0.1,0.1,0.2c0,0.1,0,0.3-0.2,0.3c-1.3,0-1.6,0.1-1.6,1
		c0,0.7,0,1.1,0,2.2V25z"/>
	<path fill="#F1B82D" d="M15.2,28.1c0,0.9,0,1.1,0.7,1.1c0.4,0,0.4,0,0.4,0.2c0,0.1,0,0.2-0.2,0.2c-0.1,0-0.3,0-1.4,0
		c-1.4,0-1.8,0-2.1,0c-0.1,0-0.1-0.1-0.1-0.2c0-0.2,0-0.2,0.6-0.2c0.4,0,0.5-0.2,0.6-0.4c0.1-0.1,0.1-1.2,0.1-2.2v-2.1
		c0-0.5-0.1-0.8-0.9-0.9c-0.1,0-0.1-0.1-0.1-0.2c0-0.1,0-0.2,0.1-0.2c1.8-0.4,2-0.8,2.2-0.8c0,0,0,0,0,0.2c0,0.1,0,0.4,0,1.1
		c0.8-0.5,1.6-1.1,2.4-1.1c0.5,0,2,0.1,2,2.3v3.7c0,0.3,0,0.6,1,0.6c0.2,0,0.2,0.1,0.2,0.2c0,0.1,0,0.2-0.2,0.2c-0.5,0-0.7,0-1.6,0
		c-1.2,0-1.5,0-1.6,0c-0.1,0-0.1-0.1-0.1-0.2c0-0.1,0-0.2,0.2-0.2c0.7,0,0.9-0.1,0.9-0.6v-2.8c0-1.4-0.1-2.4-1.7-2.4
		c-0.6,0-1.4,0.5-1.5,0.7V28.1z"/>
	<path fill="#F1B82D" d="M23.9,28.1c0,0.9,0,1.1,0.7,1.1c0.3,0,0.4,0,0.4,0.2c0,0.1,0,0.2-0.2,0.2c-0.1,0-0.3,0-1.3,0
		c-1.4,0-1.8,0-2.1,0c-0.1,0-0.1-0.1-0.1-0.2c0-0.2,0-0.2,0.6-0.2c0.4,0,0.5-0.2,0.6-0.4c0.1-0.1,0.1-1.2,0.1-2.2v-2.1
		c0-0.5-0.1-0.8-0.9-0.9c-0.1,0-0.1-0.1-0.1-0.2c0-0.1,0-0.2,0.1-0.2c1.8-0.4,2-0.8,2.2-0.8c0.1,0,0.1,0.1,0.1,0.2
		c0,0.1-0.1,0.2-0.1,2.2V28.1z M22.4,19.4c0-0.4,0.3-0.8,0.8-0.8c0.5,0,0.8,0.4,0.8,0.8c0,0.4-0.3,0.8-0.8,0.8
		C22.8,20.2,22.4,19.8,22.4,19.4z"/>
	<path fill="#F1B82D" d="M30.9,23.7c0-0.4-0.8-0.4-1-0.4c-0.1,0-0.1-0.1-0.1-0.2c0-0.1,0.1-0.2,0.2-0.2c0.4,0,0.9,0,1.3,0
		c0.4,0,0.9,0,1.4,0c0.1,0,0.1,0.1,0.1,0.2c0,0.1,0,0.2-0.2,0.2c-0.9,0.1-0.9,0.2-1.4,1.4c-0.5,1.3-1.5,3.3-1.7,3.9
		c-0.4,1-0.6,1.2-0.7,1.2c-0.2,0-0.3-0.3-0.6-1c-0.5-1.2-1.8-4.9-2-5.2c-0.2-0.2-0.3-0.2-0.5-0.2c-0.4,0-0.5,0-0.5-0.3
		c0-0.1,0.1-0.2,0.2-0.2c0.5,0,1,0,1.5,0c0.3,0,1.5,0,1.8,0c0.1,0,0.1,0.1,0.1,0.2c0,0.1-0.1,0.2-0.2,0.2c-0.5,0-0.9,0-0.9,0.4
		c0,0.5,1.2,3.6,1.6,4.3C30.7,24.7,30.9,24.1,30.9,23.7z"/>
	<path fill="#F1B82D" d="M33.9,25.4c0,0.3-0.1,0.6-0.1,0.9c0,1,0.8,2.5,2.5,2.5c0.7,0,1.3-0.2,1.8-0.9c0.1-0.1,0.2-0.3,0.2-0.3
		c0.1,0,0.2,0.1,0.2,0.2c0,0-0.6,2-2.7,2c-2.2,0-3.4-1.4-3.4-3.5c0-2.2,1.5-3.7,3.1-3.7c2.6,0,2.8,2.2,2.8,2.7
		c0,0.2-0.1,0.2-0.2,0.2H33.9z M36.6,24.9c0.3,0,0.5-0.1,0.5-0.5c0-1.2-0.8-1.5-1.4-1.5c-1.1,0-1.6,0.9-1.7,2H36.6z"/>
	<path fill="#F1B82D" d="M40.7,24.4c0-0.5-0.1-0.8-0.9-0.9c-0.1,0-0.1-0.1-0.1-0.2c0-0.1,0-0.2,0.1-0.2c1.8-0.4,2-0.8,2.2-0.8
		c0,0,0.1,0.1,0.1,0.2c0,0.2-0.1,0.6-0.1,1.4c0.5-0.6,1.3-1.3,2.2-1.3c0.5,0,1,0.3,1,0.9c0,0.4-0.3,0.8-0.8,0.8
		c-0.6,0-0.7-0.6-1.2-0.6c-0.3,0-0.7,0.2-1.1,0.7c-0.1,0.1-0.1,0.3-0.1,0.4v3.5c0,0.6,0,0.9,0.8,0.9c0.6,0,0.6,0,0.6,0.2
		c0,0.2-0.1,0.2-0.2,0.2c-0.6,0-1,0-1.8,0c-1.2,0-1.5,0-1.8,0c-0.1,0-0.1-0.1-0.1-0.2c0-0.2,0.2-0.2,0.5-0.2c0.7,0,0.8-0.1,0.8-0.8
		V24.4z"/>
	<path fill="#F1B82D" d="M50.3,27.6c0,0.8-0.4,2.1-2.5,2.1c-0.3,0-1.2-0.1-1.8-0.1c0,0-0.1,0-0.1-0.1c0-0.2-0.4-1.5-0.4-1.7
		c0-0.1,0.2-0.1,0.3-0.1c0.4,0,0.5,1.6,1.9,1.6c1.1,0,1.4-0.8,1.4-1.4c0-1.6-3.5-1.1-3.5-3.3c0-1.3,1-2.1,2.3-2.1
		c0.7,0,1.6,0.1,1.7,0.1c0.2,0,0.2,0.3,0.2,0.4c0,0.6,0.2,1,0.2,1.2c0,0.1-0.1,0.1-0.2,0.1c-0.1,0-0.2,0-0.3-0.2
		C49.6,24,49.2,23,48.1,23c-0.7,0-1.2,0.4-1.2,1.2c0,0.5,0.4,0.9,0.7,1C49.2,25.9,50.3,25.9,50.3,27.6z"/>
	<path fill="#F1B82D" d="M53.6,28.1c0,0.9,0,1.1,0.7,1.1c0.3,0,0.4,0,0.4,0.2c0,0.1,0,0.2-0.2,0.2c-0.1,0-0.3,0-1.3,0
		c-1.4,0-1.8,0-2.1,0c-0.1,0-0.1-0.1-0.1-0.2c0-0.2,0-0.2,0.6-0.2c0.4,0,0.5-0.2,0.6-0.4c0.1-0.1,0.1-1.2,0.1-2.2v-2.1
		c0-0.5-0.1-0.8-0.9-0.9c-0.1,0-0.1-0.1-0.1-0.2c0-0.1,0-0.2,0.1-0.2c1.8-0.4,2-0.8,2.2-0.8c0.1,0,0.1,0.1,0.1,0.2
		c0,0.1-0.1,0.2-0.1,2.2V28.1z M52.2,19.4c0-0.4,0.3-0.8,0.8-0.8c0.5,0,0.8,0.4,0.8,0.8c0,0.4-0.3,0.8-0.8,0.8
		C52.5,20.2,52.2,19.8,52.2,19.4z"/>
	<path fill="#F1B82D" d="M57.4,26.8c0,1.6,0.1,2.2,1.4,2.2c0.5,0,1-0.4,1-0.4c0.1,0,0.2,0.2,0.2,0.2c0,0.1-0.6,0.8-2,0.8
		c-1.8,0-1.8-1.5-1.8-1.9v-4.1c0-0.1,0-0.2-0.2-0.2h-0.8c0,0-0.1,0-0.1-0.1c0-0.1,0-0.2,0.1-0.2c1.4-1.1,1.7-1.9,2-1.9
		c0.1,0,0.2,0.1,0.2,0.2c0,0.3,0,0.5,0,1.4h2.4c0.1,0,0.2,0.1,0.2,0.3c0,0.2-0.1,0.4-0.4,0.4c-0.1,0-0.8-0.1-2.1-0.1V26.8z"/>
	<path fill="#F1B82D" d="M66.7,23.8c0-0.5-0.7-0.5-1.2-0.5c-0.1,0-0.2-0.1-0.2-0.2c0-0.1,0.1-0.2,0.1-0.2c0.5,0,1,0,1.5,0
		c0.5,0,1,0,1.4,0c0.1,0,0.1,0.1,0.1,0.2c0,0.1,0,0.2-0.3,0.2c-0.5,0-0.7,0.1-1,0.7c-0.6,1.3-2.7,5.7-3,6.6c-1.2,3-1.7,3.2-2.2,3.2
		c-0.5,0-0.9-0.4-0.9-0.9c0-0.5,0.4-0.8,0.9-0.8c0.4,0,0.6,0.3,0.8,0.3c0.3,0,1-1.5,1-2.2c0-0.4-0.4-1.3-0.5-1.7
		c-1-2.5-1.3-3.8-1.6-4.7c-0.1-0.4-0.9-0.4-1.1-0.4c-0.1,0-0.1-0.1-0.1-0.2c0-0.1,0.1-0.2,0.2-0.2c0.2,0,1.2,0,1.7,0
		c0.5,0,1.1,0,1.5,0c0.2,0,0.2,0.1,0.2,0.2c0,0.1,0,0.2-0.2,0.2c-0.1,0-0.8,0-0.8,0.3c0,0.7,0.5,2.3,1.5,4.8
		C65.4,27,66.7,24.2,66.7,23.8z"/>
	<path fill="#F1B82D" d="M76.3,29.7c-2.1,0-3.6-1.5-3.6-3.6c0-2,1.5-3.6,3.6-3.6c2.1,0,3.6,1.5,3.6,3.6
		C79.9,28.3,78.5,29.7,76.3,29.7z M76.3,23c-1.6,0-2.1,1.7-2.1,3.2c0,1.3,0.3,3.2,2.1,3.2c1.8,0,2.1-1.9,2.1-3.2
		C78.4,24.6,77.9,23,76.3,23z"/>
	<path fill="#F1B82D" d="M83.4,28.2c0,0.6,0,0.9,0.8,0.9c0.6,0,0.6,0,0.6,0.2c0,0.2-0.1,0.2-0.2,0.2c-0.6,0-1,0-1.8,0
		c-1.2,0-1.5,0-1.6,0c-0.1,0-0.1-0.1-0.1-0.2c0-0.2,0-0.2,0.3-0.2c0.7,0,0.8-0.1,0.8-0.8v-4.3c0-0.2,0-0.5-0.3-0.5H81
		c-0.1,0-0.2,0-0.2-0.2c0-0.1,0.1-0.2,0.5-0.3c0.6-0.1,0.8-0.2,0.8-0.9c0.2-2.3,0.8-3.6,2.7-4.1c0.2-0.1,0.7-0.1,0.9-0.1
		c0.4,0,1,0.2,1,0.7c0,0.4-0.3,0.8-0.7,0.8c-0.1,0-0.5,0-0.8-0.4c-0.3-0.2-0.5-0.4-0.7-0.4c-0.9,0-1,1.3-1,2.2v2h1.9
		c0.1,0,0.2,0.1,0.2,0.3c0,0.2-0.1,0.4-0.4,0.4c-0.1,0-1.3-0.1-1.6-0.1V28.2z"/>
	<path fill="#F1B82D" d="M102.5,18.7c0-0.1,0.1-0.2,0.2-0.2c0.1,0,1.2,0.1,1.6,0.1c0.3,0,1.6-0.1,1.7-0.1c0.2,0,0.2,0.1,0.2,0.3
		c0,0.1-0.1,0.2-0.2,0.2c-1.4,0-1.6,0.1-1.6,0.8c0,1,0.2,4.2,0.3,8.6c0,0.5,0.4,0.7,0.8,0.7c0.9,0,0.9,0.1,0.9,0.2
		c0,0.2-0.1,0.3-0.2,0.3c-0.1,0-0.3,0-2.5,0c-2,0-2.1,0-2.2,0c-0.2,0-0.2-0.1-0.2-0.2c0-0.1,0-0.2,0.7-0.2c1,0,1-0.2,1-0.9
		c0-0.9-0.2-5.9-0.4-8.8h0c-1.1,2.9-2.5,6.2-3.6,8.7c-0.6,1.4-0.6,1.6-0.8,1.6c-0.2,0-0.2-0.1-0.6-1.2c-0.3-1.1-2.9-7.9-2.9-7.9
		c-0.3,1.1-1.3,6.2-1.3,7.8c0,0.5,0.3,0.7,0.8,0.7c0.4,0,0.8,0,0.8,0.1c0,0.3,0,0.3-0.2,0.3c-0.1,0-0.3,0-1.9,0c-1.4,0-1.5,0-1.6,0
		c-0.1,0-0.2,0-0.2-0.3c0-0.2,0.1-0.2,0.8-0.2c0.5,0,0.6-0.2,0.8-1.1c0.4-2.2,0.8-4.5,1.3-6.7c0.2-0.7,0.2-1.1,0.2-1.4
		c0-0.1-0.2-0.7-0.4-0.8C94.1,19,93.4,19,92.9,19c-0.2,0-0.2-0.1-0.2-0.2c0-0.1,0-0.2,0.2-0.2c0.3,0,1.6,0.1,1.8,0.1
		c0.4,0,1-0.1,1.2-0.1c0.2,0,0.2,0.2,0.4,0.7c0.3,1.2,2.6,7.4,2.8,8C100.3,24.5,101.4,21.7,102.5,18.7z"/>
	<path fill="#F1B82D" d="M109.4,28.1c0,0.9,0,1.1,0.7,1.1c0.3,0,0.4,0,0.4,0.2c0,0.1,0,0.2-0.2,0.2c-0.1,0-0.3,0-1.3,0
		c-1.4,0-1.8,0-2.1,0c-0.1,0-0.1-0.1-0.1-0.2c0-0.2,0-0.2,0.6-0.2c0.4,0,0.5-0.2,0.6-0.4c0.1-0.1,0.1-1.2,0.1-2.2v-2.1
		c0-0.5-0.1-0.8-0.9-0.9c-0.1,0-0.1-0.1-0.1-0.2c0-0.1,0-0.2,0.1-0.2c1.8-0.4,2-0.8,2.2-0.8c0.1,0,0.1,0.1,0.1,0.2
		c0,0.1-0.1,0.2-0.1,2.2V28.1z M108,19.4c0-0.4,0.3-0.8,0.8-0.8c0.5,0,0.8,0.4,0.8,0.8c0,0.4-0.3,0.8-0.8,0.8
		C108.3,20.2,108,19.8,108,19.4z"/>
	<path fill="#F1B82D" d="M116,27.6c0,0.8-0.4,2.1-2.5,2.1c-0.3,0-1.2-0.1-1.8-0.1c0,0-0.1,0-0.1-0.1c0-0.2-0.4-1.5-0.4-1.7
		c0-0.1,0.2-0.1,0.3-0.1c0.4,0,0.5,1.6,1.9,1.6c1.1,0,1.4-0.8,1.4-1.4c0-1.6-3.5-1.1-3.5-3.3c0-1.3,1-2.1,2.3-2.1
		c0.7,0,1.6,0.1,1.7,0.1c0.2,0,0.2,0.3,0.2,0.4c0,0.6,0.2,1,0.2,1.2c0,0.1-0.1,0.1-0.2,0.1c-0.1,0-0.2,0-0.3-0.2
		c-0.1-0.3-0.5-1.3-1.6-1.3c-0.7,0-1.2,0.4-1.2,1.2c0,0.5,0.4,0.9,0.7,1C114.9,25.9,116,25.9,116,27.6z"/>
	<path fill="#F1B82D" d="M121.7,27.6c0,0.8-0.4,2.1-2.5,2.1c-0.3,0-1.2-0.1-1.8-0.1c0,0-0.1,0-0.1-0.1c0-0.2-0.4-1.5-0.4-1.7
		c0-0.1,0.2-0.1,0.3-0.1c0.4,0,0.5,1.6,1.9,1.6c1.1,0,1.4-0.8,1.4-1.4c0-1.6-3.5-1.1-3.5-3.3c0-1.3,1-2.1,2.3-2.1
		c0.7,0,1.6,0.1,1.7,0.1c0.2,0,0.2,0.3,0.2,0.4c0,0.6,0.2,1,0.2,1.2c0,0.1-0.1,0.1-0.2,0.1c-0.1,0-0.2,0-0.3-0.2
		c-0.1-0.3-0.5-1.3-1.6-1.3c-0.7,0-1.2,0.4-1.2,1.2c0,0.5,0.4,0.9,0.7,1C120.6,25.9,121.7,25.9,121.7,27.6z"/>
	<path fill="#F1B82D" d="M126.4,29.7c-2.1,0-3.6-1.5-3.6-3.6c0-2,1.5-3.6,3.6-3.6c2.1,0,3.6,1.5,3.6,3.6
		C130,28.3,128.6,29.7,126.4,29.7z M126.4,23c-1.6,0-2.1,1.7-2.1,3.2c0,1.3,0.3,3.2,2.1,3.2c1.8,0,2.1-1.9,2.1-3.2
		C128.6,24.6,128.1,23,126.4,23z"/>
	<path fill="#F1B82D" d="M132,24.7c0-1.4-0.2-1.4-1-1.4c-0.1,0-0.3,0-0.3-0.2c0-0.1,0-0.3,0.2-0.3c0.2,0,0.4,0,0.9,0
		c0.5,0,1.1,0,1.3,0c0.1,0,0.1,0,0.1,0.2v4.2c0,1.2,0.4,1.8,1.5,1.8c0.6,0,1.5-0.3,1.5-0.8v-4c0-0.8-0.2-0.9-1-0.9
		c-0.3,0-0.5,0-0.5-0.2c0-0.2,0-0.3,0.1-0.3c0.2,0,0.4,0,1.3,0c0.4,0,0.8,0,1.2,0c0.1,0,0.2,0.1,0.2,0.2c0,0.1-0.1,1.2-0.1,2.3v2.9
		c0,0.2,0,0.6,0.4,0.6c0.2,0,0.6-0.1,0.7-0.1c0.1,0,0.1,0,0.1,0.3c0,0.1,0,0.1-0.5,0.2c-1.3,0.2-1.7,0.4-1.8,0.4
		c-0.1,0-0.2-0.1-0.2-0.2c0-0.2,0-0.4,0-0.6c-0.8,0.6-1.7,0.8-2.3,0.8c-1.5,0-2-1-2-2.6V24.7z"/>
	<path fill="#F1B82D" d="M140.4,24.4c0-0.5-0.1-0.8-0.9-0.9c-0.1,0-0.1-0.1-0.1-0.2c0-0.1,0-0.2,0.1-0.2c1.8-0.4,2-0.8,2.2-0.8
		c0,0,0.1,0.1,0.1,0.2c0,0.2-0.1,0.6-0.1,1.4c0.5-0.6,1.3-1.3,2.2-1.3c0.5,0,1,0.3,1,0.9c0,0.4-0.3,0.8-0.8,0.8
		c-0.6,0-0.7-0.6-1.2-0.6c-0.3,0-0.7,0.2-1.1,0.7c-0.1,0.1-0.1,0.3-0.1,0.4v3.5c0,0.6,0,0.9,0.8,0.9c0.6,0,0.6,0,0.6,0.2
		c0,0.2-0.1,0.2-0.2,0.2c-0.6,0-1,0-1.8,0c-1.2,0-1.5,0-1.8,0c-0.1,0-0.1-0.1-0.1-0.2c0-0.2,0.2-0.2,0.5-0.2c0.7,0,0.8-0.1,0.8-0.8
		V24.4z"/>
	<path fill="#F1B82D" d="M147.6,28.1c0,0.9,0,1.1,0.7,1.1c0.3,0,0.4,0,0.4,0.2c0,0.1,0,0.2-0.2,0.2c-0.1,0-0.3,0-1.3,0
		c-1.4,0-1.8,0-2.1,0c-0.1,0-0.1-0.1-0.1-0.2c0-0.2,0-0.2,0.6-0.2c0.4,0,0.5-0.2,0.6-0.4c0.1-0.1,0.1-1.2,0.1-2.2v-2.1
		c0-0.5-0.1-0.8-0.9-0.9c-0.1,0-0.1-0.1-0.1-0.2c0-0.1,0-0.2,0.1-0.2c1.8-0.4,2-0.8,2.2-0.8c0.1,0,0.1,0.1,0.1,0.2
		c0,0.1-0.1,0.2-0.1,2.2V28.1z M146.2,19.4c0-0.4,0.3-0.8,0.8-0.8c0.5,0,0.8,0.4,0.8,0.8c0,0.4-0.3,0.8-0.8,0.8
		C146.5,20.2,146.2,19.8,146.2,19.4z"/>
</g>
<g>
</g>
<g>
</g>
<g>
</g>
<g>
</g>
<g>
</g>
<g>
</g>
<g>
</g>
<g>
</g>
<g>
</g>
<g>
</g>
<g>
</g>
<g>
</g>
<g>
</g>
<g>
</g>
<g>
</g>
</svg>
