<?xml version="1.0" encoding="utf-8"?>
<!-- Generator: Adobe Illustrator 18.1.0, SVG Export Plug-In . SVG Version: 6.00 Build 0)  -->
<!DOCTYPE svg PUBLIC "-//W3C//DTD SVG 1.0//EN" "http://www.w3.org/TR/2001/REC-SVG-20010904/DTD/svg10.dtd">
<svg version="1.0" id="Layer_1" xmlns="http://www.w3.org/2000/svg" xmlns:xlink="http://www.w3.org/1999/xlink" x="0px" y="0px"
	 width="66px" height="74px" viewBox="0 0 66 74" enable-background="new 0 0 66 74" xml:space="preserve">
<path d="M65,56.7V1H37.2L33,10.6L28.8,1H1v55.7C1,60.4,3.1,73,33,73S65,60.4,65,56.7z"/>
<path fill="#F1B82D" d="M42,51.8v-5.3c0-1.1-0.7-1.9-2-2.6v-3.7h0.3H57v3.7c-1.3,0.7-2,1.6-2,2.6v4.8C54.9,54.7,57,64,33,64
	c-23.2,0-21.9-9.3-22-12.8v-4.8c0-1.1-0.7-1.9-2-2.6v-3.7h17l0,0v3.7c-1.3,0.7-2,1.6-2,2.6v5.3c0.1,0.8-0.6,4.2,9,4.2
	S41.9,52.7,42,51.8z"/>
<path fill="#F1B82D" d="M33,23.6L40.9,9H57v4c-1.3,0.7-2,1.6-2,2.7V27c0,1.1,0.7,1.9,2,2.6V34H41v-4.4c1.3-0.7,3-1.6,3-2.6v-8.6
	L34.8,34h-3.7L22,18.4V27c0,1.1,0.7,1.9,2,2.6V34H9v-4.4c1.3-0.7,2-1.6,2-2.6V15.7c0-1.1-0.7-1.9-2-2.7V9h16.1L33,23.6"/>
<g>
</g>
<g>
</g>
<g>
</g>
<g>
</g>
<g>
</g>
<g>
</g>
<g>
</g>
<g>
</g>
<g>
</g>
<g>
</g>
<g>
</g>
<g>
</g>
<g>
</g>
<g>
</g>
<g>
</g>
</svg>
