<?xml version="1.0" encoding="utf-8"?>
<!-- Generator: Adobe Illustrator 18.1.0, SVG Export Plug-In . SVG Version: 6.00 Build 0)  -->
<!DOCTYPE svg PUBLIC "-//W3C//DTD SVG 1.0//EN" "http://www.w3.org/TR/2001/REC-SVG-20010904/DTD/svg10.dtd">
<svg version="1.0" id="Layer_1" xmlns="http://www.w3.org/2000/svg" xmlns:xlink="http://www.w3.org/1999/xlink" x="0px" y="0px"
	 width="34px" height="38px" viewBox="0 0 34 38" enable-background="new 0 0 34 38" xml:space="preserve">
<path d="M33,28.9V1H19.1L17,5.8L14.9,1H1v27.9C1,30.7,2,37,17,37S33,30.7,33,28.9z"/>
<path fill="#F1B82D" d="M21.7,26.4v-2.7c0-0.5-1-1-1.7-1.3V20h0.7h8.2v2.4c-0.7,0.4-1,0.8-1,1.3v2.4c0,1.7,0.8,6.9-10.8,6.9
	C5.4,33,6.2,27.8,6.2,26.1v-2.4c0-0.5-0.4-1-1-1.3V20H14v0.6v1.9c-0.7,0.4-1.7,0.8-1.7,1.3v2.7c0,0.4-0.1,2.6,4.7,2.6
	S21.7,26.8,21.7,26.4z"/>
<path fill="#F1B82D" d="M17,12.3l4-7.1h7.9V7c-0.7,0.4-1,0.8-1,1.3V14c0,0.5,0.5,1,1.2,1.3V17h-8v-1.7c0.7-0.4,1.4-0.8,1.4-1.3V9.7
	L17.9,17h-1.8l-4.5-7.3V14c0,0.5,0.8,1,1.4,1.3V17H5v-1.7C5.7,15,6.2,14.5,6.2,14V8.3c0-0.5-0.4-1-1-1.3V5.2H13L17,12.3"/>
<g>
</g>
<g>
</g>
<g>
</g>
<g>
</g>
<g>
</g>
<g>
</g>
<g>
</g>
<g>
</g>
<g>
</g>
<g>
</g>
<g>
</g>
<g>
</g>
<g>
</g>
<g>
</g>
<g>
</g>
</svg>
