<?xml version="1.0" encoding="utf-8"?>
<!-- Generator: Adobe Illustrator 18.1.0, SVG Export Plug-In . SVG Version: 6.00 Build 0)  -->
<!DOCTYPE svg PUBLIC "-//W3C//DTD SVG 1.0//EN" "http://www.w3.org/TR/2001/REC-SVG-20010904/DTD/svg10.dtd">
<svg version="1.0" id="Layer_1" xmlns="http://www.w3.org/2000/svg" xmlns:xlink="http://www.w3.org/1999/xlink" x="0px" y="0px"
	 width="478px" height="112px" viewBox="0 0 478 112" enable-background="new 0 0 478 112" xml:space="preserve">
<g>
	<path d="M11.8,26.8c0,6.7,2.8,12.6,11.2,12.6c5.9,0,10.9-3.2,10.9-15.2v-9.9c0-7-1.4-7-6.6-7c-0.4,0-0.4-0.3-0.4-0.8
		c0-0.6,0.1-0.8,0.4-0.8c0.9,0,4.1,0.2,7.4,0.2c1.5,0,5.8-0.2,6.5-0.2c0.5,0,0.7,0.1,0.7,0.9c0,0.2,0,0.7-0.5,0.7
		c-4.8,0-5.8,0-5.8,5.9v11.9c0,13.5-8.6,17.1-14.4,17.1c-11.2,0-14.4-7.5-14.4-13V17.7c0-3.6-0.1-4.8-0.1-7.1
		c-0.1-3-0.9-3.4-5.3-3.4C1,7.3,1,6.9,1,6.5c0-0.3,0.1-0.7,0.4-0.7C1.8,5.8,6.2,6,9.3,6c3.2,0,7.6-0.2,8-0.2c0.4,0,0.5,0.4,0.5,0.7
		c0,0.4,0,0.9-0.6,0.9c-4.4,0-5.2,0.4-5.2,3.4c-0.1,2.3-0.1,3.5-0.1,7.1V26.8z"/>
	<path d="M50.4,36.8c0,2.8,0.1,3.5,2.3,3.5c1.4,0,1.5,0,1.5,0.7c0,0.3,0,0.6-0.5,0.6c-0.2,0-0.9-0.1-4.4-0.1c-4.7,0-6,0.1-6.8,0.1
		C42,41.6,42,41.3,42,41c0-0.7,0.1-0.8,1.9-0.8c1.3,0,1.8-0.5,2-1.2c0.2-0.5,0.3-4,0.3-7.2V25c0-1.8-0.5-2.8-3-3
		c-0.4,0-0.5-0.2-0.5-0.6c0-0.4,0.1-0.6,0.4-0.7c5.7-1.1,6.4-2.4,7-2.4c0.1,0,0.2,0.1,0.2,0.5c0,0.3-0.1,1.4-0.1,3.6
		c2.6-1.8,5.2-3.5,7.9-3.5c1.7,0,6.6,0.4,6.6,7.5v12c0,0.8,0.1,1.8,3.2,1.8c0.5,0,0.5,0.3,0.5,0.7c0,0.3,0,0.6-0.7,0.6
		c-1.5,0-2.4-0.1-5.1-0.1c-4.1,0-4.9,0.1-5.3,0.1c-0.3,0-0.4-0.3-0.4-0.6s0.1-0.7,0.7-0.7c2.4,0,2.9-0.2,2.9-1.9v-9
		c0-4.6-0.4-7.8-5.6-7.8c-1.9,0-4.6,1.7-4.8,2.3V36.8z"/>
	<path d="M78.4,36.8c0,2.8,0.1,3.5,2.3,3.5c1.1,0,1.2,0,1.2,0.7c0,0.3,0,0.6-0.5,0.6c-0.2,0-0.9-0.1-4.2-0.1c-4.7,0-6,0.1-6.8,0.1
		c-0.4,0-0.4-0.3-0.4-0.5c0-0.7,0.1-0.8,1.9-0.8c1.3,0,1.8-0.5,2-1.2c0.2-0.5,0.3-4,0.3-7.2V25c0-1.8-0.5-2.8-3-3
		c-0.4,0-0.5-0.2-0.5-0.6c0-0.4,0.1-0.6,0.4-0.7c5.7-1.1,6.4-2.4,7-2.4c0.2,0,0.3,0.2,0.3,0.5c0,0.2-0.2,0.7-0.2,7.2V36.8z
		 M73.8,8.7c0-1.4,1.1-2.7,2.6-2.7S79,7.3,79,8.7c0,1.3-1.1,2.6-2.6,2.6S73.8,10,73.8,8.7z"/>
	<path d="M101.4,22.6c0-1.4-2.6-1.4-3.3-1.4c-0.3,0-0.5-0.3-0.5-0.7c0-0.2,0.2-0.6,0.6-0.6c1.4,0,2.9,0.1,4.3,0.1
		c1.5,0,3-0.1,4.4-0.1c0.3,0,0.5,0.4,0.5,0.6c0,0.3-0.1,0.5-0.5,0.5c-2.9,0.5-3,0.7-4.6,4.6c-1.8,4.3-4.8,10.6-5.7,12.7
		c-1.4,3.3-1.9,4-2.2,4c-0.6,0-0.9-1.1-1.9-3.2c-1.8-3.8-5.9-16-6.6-17c-0.5-0.8-1-0.8-1.8-0.8c-1.4,0-1.6-0.1-1.6-0.8
		c0-0.4,0.2-0.6,0.6-0.6c1.6,0,3.1,0.1,4.8,0.1c1,0,5-0.1,6-0.1c0.4,0,0.4,0.5,0.4,0.7s-0.2,0.6-0.5,0.6c-1.5,0-2.9,0.1-2.9,1.2
		c0,1.7,4.1,11.8,5.1,14C100.6,25.8,101.4,23.9,101.4,22.6z"/>
	<path d="M112.7,28c-0.1,1-0.2,1.9-0.2,2.9c0,3.3,2.8,8.3,8.2,8.3c2.3,0,4.2-0.7,5.8-3c0.3-0.4,0.5-0.9,0.8-0.9
		c0.3,0,0.8,0.5,0.8,0.6c0,0.1-2,6.4-8.6,6.4c-7.2,0-10.9-4.4-10.9-11.4c0-7.2,4.8-12,10-12c8.3,0,9,7.2,9,8.7
		c0,0.5-0.2,0.5-0.6,0.5H112.7z M121.3,26.5c1,0,1.7-0.3,1.7-1.6c0-3.9-2.7-4.8-4.4-4.8c-3.6,0-5.1,3-5.6,6.4H121.3z"/>
	<path d="M134.5,25c0-1.8-0.5-2.8-3-3c-0.4,0-0.5-0.2-0.5-0.6c0-0.4,0.2-0.6,0.4-0.7c5.7-1.1,6.4-2.4,7-2.4c0.1,0,0.2,0.3,0.2,0.5
		c0,0.6-0.2,1.9-0.2,4.6c1.7-1.9,4.4-4.4,7-4.4c1.8,0,3.2,1,3.2,2.8c0,1.3-1,2.5-2.5,2.5c-2,0-2.3-1.9-3.8-1.9
		c-0.9,0-2.2,0.8-3.5,2.1c-0.4,0.4-0.4,1-0.4,1.5v11.4c0,1.8,0,3,2.5,3c1.8,0,2,0,2,0.6c0,0.7-0.2,0.7-0.8,0.7
		c-1.8,0-3.4-0.1-5.7-0.1c-4,0-4.9,0.1-5.8,0.1c-0.3,0-0.5-0.3-0.5-0.6c0-0.5,0.6-0.7,1.6-0.7c2.1,0,2.5-0.4,2.5-2.5V25z"/>
	<path d="M165.8,35.4c0,2.5-1.3,6.8-8.2,6.8c-0.9,0-3.8-0.4-5.8-0.4c-0.1,0-0.2-0.2-0.2-0.2c0-0.5-1.2-4.9-1.2-5.4
		c0-0.3,0.7-0.3,0.9-0.3c1.2,0,1.5,5,6.3,5c3.5,0,4.5-2.7,4.5-4.5c0-5.2-11.2-3.5-11.2-10.7c0-4.1,3.4-6.8,7.6-6.8
		c2.3,0,5.2,0.4,5.4,0.5c0.6,0.1,0.8,1.1,0.8,1.4c0.1,2.1,0.5,3.4,0.5,4c0,0.3-0.3,0.4-0.5,0.4c-0.5,0-0.8,0-1-0.7
		c-0.4-0.9-1.7-4.2-5.2-4.2c-2.3,0-4,1.4-4,3.8c0,1.8,1.2,2.8,2.4,3.4C162.1,29.9,165.8,29.7,165.8,35.4z"/>
	<path d="M176.5,36.8c0,2.8,0.1,3.5,2.3,3.5c1.1,0,1.2,0,1.2,0.7c0,0.3,0,0.6-0.5,0.6c-0.2,0-0.9-0.1-4.2-0.1c-4.7,0-6,0.1-6.8,0.1
		c-0.4,0-0.4-0.3-0.4-0.5c0-0.7,0-0.8,1.9-0.8c1.3,0,1.8-0.5,2.1-1.2c0.2-0.5,0.3-4,0.3-7.2V25c0-1.8-0.5-2.8-3-3
		c-0.4,0-0.5-0.2-0.5-0.6c0-0.4,0.2-0.6,0.4-0.7c5.7-1.1,6.4-2.4,7-2.4c0.2,0,0.3,0.2,0.3,0.5c0,0.2-0.2,0.7-0.2,7.2V36.8z
		 M171.9,8.7c0-1.4,1.1-2.7,2.6-2.7s2.6,1.3,2.6,2.7c0,1.3-1.1,2.6-2.6,2.6S171.9,10,171.9,8.7z"/>
	<path d="M190.1,32.7c0,5.3,0.5,7.2,4.4,7.2c1.7,0,3.2-1.1,3.4-1.1c0.2,0,0.5,0.5,0.5,0.8s-2.1,2.7-6.7,2.7c-5.8,0-5.8-5-5.8-6.2
		V22.8c0-0.4-0.1-0.6-0.5-0.6H183c-0.1,0-0.3-0.1-0.3-0.4c0-0.2,0-0.5,0.3-0.7c4.7-3.5,5.6-6.2,6.6-6.2c0.3,0,0.6,0.2,0.6,0.6
		c0,0.9-0.2,1.8-0.2,4.6h7.7c0.4,0,0.5,0.3,0.5,1c0,0.6-0.3,1.2-1.3,1.2c-0.4,0-2.7-0.2-6.9-0.2V32.7z"/>
	<path d="M217.2,22.8c0-1.6-2.4-1.7-3.9-1.7c-0.5,0-0.5-0.2-0.5-0.7c0-0.3,0.2-0.6,0.5-0.6c1.6,0,3.2,0.1,4.8,0.1
		c1.6,0,3.1-0.1,4.7-0.1c0.4,0,0.4,0.5,0.4,0.6c0,0.5-0.2,0.6-0.9,0.7c-1.7,0.1-2.4,0.4-3.1,2.2c-1.8,4.1-8.7,18.7-9.8,21.5
		c-3.9,9.7-5.5,10.3-7.2,10.3c-1.6,0-2.8-1.4-2.8-3c0-1.5,1.5-2.7,2.9-2.7c1.2,0,1.9,0.9,2.5,0.9c0.9,0,3.2-4.8,3.2-7.2
		c0-1.2-1.2-4.2-1.8-5.6c-3.1-8.1-4.1-12.5-5.2-15.3c-0.4-1.1-3-1.1-3.6-1.1c-0.4,0-0.5-0.4-0.5-0.7c0-0.4,0.2-0.6,0.5-0.6
		c0.6,0,3.8,0.1,5.6,0.1c1.7,0,3.5-0.1,5-0.1c0.5,0,0.6,0.3,0.6,0.6c0,0.2-0.1,0.7-0.5,0.7c-0.3,0-2.5,0-2.5,1.1
		c0,2.4,1.7,7.4,5,15.7C213.1,33.2,217.2,24.4,217.2,22.8z"/>
	<path d="M248.5,42.2c-6.8,0-11.6-5-11.6-11.6c0-6.6,5-11.6,11.6-11.6c6.7,0,11.7,4.9,11.7,11.6C260.2,37.6,255.5,42.2,248.5,42.2z
		 M248.5,20.3c-5.2,0-6.8,5.4-6.8,10.3c0,4.3,1,10.3,6.8,10.3c5.9,0,6.9-6,6.9-10.3C255.4,25.7,253.8,20.3,248.5,20.3z"/>
	<path d="M271.6,37.3c0,1.8,0,3,2.5,3c1.9,0,2,0,2,0.6c0,0.7-0.2,0.7-0.8,0.7c-1.8,0-3.4-0.1-5.7-0.1c-4,0-4.8,0.1-5.3,0.1
		c-0.4,0-0.5-0.3-0.5-0.6c0-0.5,0.1-0.7,1-0.7c2.2,0,2.6-0.4,2.6-2.5v-14c0-0.6,0-1.6-1-1.6h-2.8c-0.4,0-0.6,0-0.6-0.6
		c0-0.4,0.3-0.6,1.5-0.9c2-0.5,2.5-0.5,2.6-2.8c0.5-7.6,2.8-11.8,8.7-13.4c0.8-0.2,2.2-0.4,3-0.4c1.3,0,3.2,0.5,3.2,2.1
		c0,1.5-0.8,2.5-2.3,2.5c-0.5,0-1.6-0.1-2.8-1.1c-0.9-0.7-1.8-1.2-2.2-1.2c-2.9,0-3.4,4.2-3.4,7.3v6.5h6.2c0.4,0,0.5,0.3,0.5,1
		c0,0.6-0.3,1.2-1.3,1.2c-0.4,0-4.2-0.2-5.4-0.2V37.3z"/>
	<path d="M325.5,6.4c0.1-0.4,0.3-0.6,0.6-0.6c0.2,0,3.9,0.2,5.1,0.2c0.8,0,5.1-0.2,5.5-0.2c0.5,0,0.5,0.4,0.5,0.9
		c0,0.5-0.2,0.7-0.6,0.7c-4.5,0-5,0.3-5,2.6c0,3.2,0.5,13.8,1,27.8c0,1.7,1.5,2.3,2.8,2.3c2.8,0,2.9,0.3,2.9,0.7
		c0,0.8-0.2,0.8-0.5,0.8c-0.5,0-1-0.1-8-0.1c-6.5,0-6.8,0.1-7.2,0.1c-0.5,0-0.5-0.3-0.5-0.8c0-0.4,0.1-0.7,2.4-0.7
		c3.3,0,3.3-0.8,3.3-2.8c0-3-0.8-19.2-1.1-28.5h-0.1c-3.7,9.4-8.2,20.1-11.6,28.2c-1.9,4.6-1.9,5.2-2.5,5.2s-0.8-0.5-1.8-3.9
		c-1.1-3.6-9.3-25.7-9.5-25.7c-0.8,3.7-4.2,20.3-4.2,25.3c0,1.5,0.9,2.3,2.5,2.3c1.2,0,2.7,0.1,2.7,0.4c0,1,0,1.1-0.6,1.1
		c-0.4,0-0.9-0.1-6-0.1c-4.6,0-4.9,0.1-5.2,0.1c-0.4,0-0.6,0-0.6-0.8c0-0.5,0.2-0.7,2.7-0.7c1.8,0,2.1-0.7,2.7-3.5
		c1.3-7.2,2.5-14.5,4.1-21.7c0.5-2.2,0.6-3.6,0.6-4.7c0-0.3-0.7-2.1-1.3-2.5c-0.4-0.2-2.8-0.4-4.3-0.4c-0.6,0-0.6-0.4-0.6-0.8
		c0-0.4,0.1-0.8,0.5-0.8c1,0,5.3,0.2,5.8,0.2c1.3,0,3.4-0.2,4-0.2c0.5,0,0.7,0.6,1.2,2.4c1,3.8,8.3,24,9.2,25.9
		C318.2,25.2,322,16,325.5,6.4z"/>
	<path d="M347.8,36.8c0,2.8,0.1,3.5,2.3,3.5c1.1,0,1.2,0,1.2,0.7c0,0.3,0,0.6-0.5,0.6c-0.2,0-0.9-0.1-4.2-0.1c-4.7,0-6,0.1-6.8,0.1
		c-0.4,0-0.4-0.3-0.4-0.5c0-0.7,0-0.8,1.9-0.8c1.3,0,1.8-0.5,2.1-1.2c0.2-0.5,0.3-4,0.3-7.2V25c0-1.8-0.5-2.8-3-3
		c-0.4,0-0.5-0.2-0.5-0.6c0-0.4,0.2-0.6,0.4-0.7c5.7-1.1,6.4-2.4,7-2.4c0.2,0,0.3,0.2,0.3,0.5c0,0.2-0.2,0.7-0.2,7.2V36.8z
		 M343.1,8.7c0-1.4,1.1-2.7,2.6-2.7s2.6,1.3,2.6,2.7c0,1.3-1.1,2.6-2.6,2.6S343.1,10,343.1,8.7z"/>
	<path d="M369.4,35.4c0,2.5-1.3,6.8-8.2,6.8c-0.9,0-3.8-0.4-5.8-0.4c-0.1,0-0.2-0.2-0.2-0.2c0-0.5-1.2-4.9-1.2-5.4
		c0-0.3,0.7-0.3,0.9-0.3c1.2,0,1.5,5,6.3,5c3.5,0,4.5-2.7,4.5-4.5c0-5.2-11.2-3.5-11.2-10.7c0-4.1,3.4-6.8,7.6-6.8
		c2.3,0,5.2,0.4,5.4,0.5c0.6,0.1,0.8,1.1,0.8,1.4c0.1,2.1,0.5,3.4,0.5,4c0,0.3-0.3,0.4-0.5,0.4c-0.5,0-0.8,0-1-0.7
		c-0.4-0.9-1.7-4.2-5.2-4.2c-2.3,0-4,1.4-4,3.8c0,1.8,1.2,2.8,2.4,3.4C365.8,29.9,369.4,29.7,369.4,35.4z"/>
	<path d="M387.9,35.4c0,2.5-1.3,6.8-8.2,6.8c-0.9,0-3.8-0.4-5.8-0.4c-0.1,0-0.2-0.2-0.2-0.2c0-0.5-1.2-4.9-1.2-5.4
		c0-0.3,0.7-0.3,0.9-0.3c1.2,0,1.5,5,6.3,5c3.5,0,4.5-2.7,4.5-4.5c0-5.2-11.2-3.5-11.2-10.7c0-4.1,3.4-6.8,7.6-6.8
		c2.3,0,5.2,0.4,5.4,0.5c0.6,0.1,0.8,1.1,0.8,1.4c0.1,2.1,0.5,3.4,0.5,4c0,0.3-0.3,0.4-0.5,0.4c-0.5,0-0.8,0-1-0.7
		c-0.4-0.9-1.7-4.2-5.2-4.2c-2.3,0-4,1.4-4,3.8c0,1.8,1.2,2.8,2.4,3.4C384.3,29.9,387.9,29.7,387.9,35.4z"/>
	<path d="M403.1,42.2c-6.8,0-11.6-5-11.6-11.6c0-6.6,5-11.6,11.6-11.6c6.7,0,11.7,4.9,11.7,11.6C414.8,37.6,410.1,42.2,403.1,42.2z
		 M403.1,20.3c-5.2,0-6.8,5.4-6.8,10.3c0,4.3,1,10.3,6.8,10.3c5.9,0,6.9-6,6.9-10.3C410,25.7,408.4,20.3,403.1,20.3z"/>
	<path d="M421,26c0-4.4-0.5-4.7-3.1-4.7c-0.4,0-1.1,0-1.1-0.5c0-0.4,0-1,0.5-1c0.5,0,1.3,0.1,3,0.1c1.8,0,3.7-0.1,4.4-0.1
		c0.3,0,0.4,0,0.4,0.7V34c0,3.8,1.2,5.9,4.9,5.9c1.8,0,5-1.1,5-2.7v-13c0-2.7-0.5-3-3.1-3c-0.9,0-1.6,0-1.6-0.5c0-0.8,0-1,0.4-1
		c0.7,0,1.3,0.1,4.4,0.1c1.2,0,2.5-0.1,3.8-0.1c0.5,0,0.7,0.2,0.7,0.7c0,0.2-0.5,4.1-0.5,7.6v9.4c0,0.8,0,1.8,1.2,1.8
		c0.7,0,1.8-0.2,2.2-0.2c0.2,0,0.3,0,0.3,1c0,0.3,0,0.4-1.7,0.7c-4.2,0.7-5.5,1.3-5.8,1.3c-0.3,0-0.6-0.3-0.6-0.7
		c0-0.6,0.1-1.4,0.1-1.9c-2.5,1.9-5.5,2.8-7.5,2.8c-5,0-6.4-3.2-6.4-8.4V26z"/>
	<path d="M448.3,25c0-1.8-0.5-2.8-3-3c-0.4,0-0.5-0.2-0.5-0.6c0-0.4,0.2-0.6,0.4-0.7c5.7-1.1,6.4-2.4,7-2.4c0.1,0,0.2,0.3,0.2,0.5
		c0,0.6-0.2,1.9-0.2,4.6c1.7-1.9,4.4-4.4,7-4.4c1.8,0,3.2,1,3.2,2.8c0,1.3-1,2.5-2.5,2.5c-2,0-2.3-1.9-3.8-1.9
		c-0.9,0-2.2,0.8-3.5,2.1c-0.4,0.4-0.4,1-0.4,1.5v11.4c0,1.8,0,3,2.5,3c1.8,0,2,0,2,0.6c0,0.7-0.2,0.7-0.8,0.7
		c-1.8,0-3.4-0.1-5.7-0.1c-4,0-4.9,0.1-5.8,0.1c-0.3,0-0.5-0.3-0.5-0.6c0-0.5,0.6-0.7,1.6-0.7c2.1,0,2.5-0.4,2.5-2.5V25z"/>
	<path d="M471.8,36.8c0,2.8,0.1,3.5,2.3,3.5c1.1,0,1.2,0,1.2,0.7c0,0.3,0,0.6-0.5,0.6c-0.2,0-0.9-0.1-4.2-0.1c-4.7,0-6,0.1-6.8,0.1
		c-0.4,0-0.4-0.3-0.4-0.5c0-0.7,0-0.8,1.9-0.8c1.3,0,1.8-0.5,2.1-1.2c0.2-0.5,0.3-4,0.3-7.2V25c0-1.8-0.5-2.8-3-3
		c-0.4,0-0.5-0.2-0.5-0.6c0-0.4,0.2-0.6,0.4-0.7c5.7-1.1,6.4-2.4,7-2.4c0.2,0,0.3,0.2,0.3,0.5c0,0.2-0.2,0.7-0.2,7.2V36.8z
		 M467.2,8.7c0-1.4,1.1-2.7,2.6-2.7s2.6,1.3,2.6,2.7c0,1.3-1.1,2.6-2.6,2.6S467.2,10,467.2,8.7z"/>
</g>
<g>
	<path fill="#900000" d="M11.8,82.8c0,6.7,2.8,12.6,11.2,12.6c5.9,0,10.9-3.2,10.9-15.2v-9.9c0-7-1.4-7-6.6-7
		c-0.4,0-0.4-0.3-0.4-0.8c0-0.6,0.1-0.8,0.4-0.8c0.9,0,4.1,0.2,7.4,0.2c1.5,0,5.8-0.2,6.5-0.2c0.5,0,0.7,0.1,0.7,0.8
		c0,0.2,0,0.7-0.5,0.7c-4.8,0-5.8,0-5.8,5.9v11.9c0,13.5-8.6,17.1-14.4,17.1c-11.2,0-14.4-7.5-14.4-13V73.7c0-3.5-0.1-4.8-0.1-7
		c-0.1-3-0.9-3.4-5.3-3.4C1,63.3,1,62.9,1,62.5c0-0.3,0.1-0.7,0.4-0.7c0.4,0,4.8,0.2,7.9,0.2c3.2,0,7.6-0.2,8-0.2
		c0.4,0,0.5,0.3,0.5,0.7c0,0.4,0,0.8-0.6,0.8c-4.4,0-5.2,0.4-5.2,3.4c-0.1,2.3-0.1,3.5-0.1,7V82.8z"/>
	<path fill="#900000" d="M50.4,92.8c0,2.8,0.1,3.5,2.3,3.5c1.4,0,1.5,0,1.5,0.7c0,0.3,0,0.6-0.5,0.6c-0.2,0-0.9-0.1-4.4-0.1
		c-4.7,0-6,0.1-6.8,0.1C42,97.6,42,97.3,42,97c0-0.6,0.1-0.8,1.9-0.8c1.3,0,1.8-0.5,2-1.2c0.2-0.4,0.3-4,0.3-7.2V81
		c0-1.8-0.5-2.8-3-3c-0.4,0-0.5-0.2-0.5-0.6c0-0.4,0.1-0.7,0.4-0.7c5.7-1.1,6.4-2.4,7-2.4c0.1,0,0.2,0.2,0.2,0.5
		c0,0.3-0.1,1.4-0.1,3.6c2.6-1.8,5.2-3.5,7.9-3.5c1.7,0,6.6,0.4,6.6,7.5v12c0,0.8,0.1,1.8,3.2,1.8c0.5,0,0.5,0.3,0.5,0.7
		c0,0.3,0,0.6-0.7,0.6c-1.5,0-2.4-0.1-5.1-0.1c-4.1,0-4.9,0.1-5.3,0.1c-0.3,0-0.4-0.3-0.4-0.6s0.1-0.7,0.7-0.7
		c2.4,0,2.9-0.2,2.9-1.9v-9c0-4.6-0.4-7.8-5.6-7.8c-1.9,0-4.6,1.7-4.8,2.3V92.8z"/>
	<path fill="#900000" d="M78.4,92.8c0,2.8,0.1,3.5,2.3,3.5c1.1,0,1.2,0,1.2,0.7c0,0.3,0,0.6-0.5,0.6c-0.2,0-0.9-0.1-4.2-0.1
		c-4.7,0-6,0.1-6.8,0.1c-0.4,0-0.4-0.3-0.4-0.5c0-0.6,0.1-0.8,1.9-0.8c1.3,0,1.8-0.5,2-1.2c0.2-0.4,0.3-4,0.3-7.2V81
		c0-1.8-0.5-2.8-3-3c-0.4,0-0.5-0.2-0.5-0.6c0-0.4,0.1-0.7,0.4-0.7c5.7-1.1,6.4-2.4,7-2.4c0.2,0,0.3,0.2,0.3,0.5
		c0,0.2-0.2,0.7-0.2,7.2V92.8z M73.8,64.7c0-1.4,1.1-2.7,2.6-2.7s2.6,1.3,2.6,2.7c0,1.3-1.1,2.6-2.6,2.6S73.8,66,73.8,64.7z"/>
	<path fill="#900000" d="M101.4,78.6c0-1.5-2.6-1.5-3.3-1.5c-0.3,0-0.5-0.3-0.5-0.7c0-0.2,0.2-0.6,0.6-0.6c1.4,0,2.9,0.1,4.3,0.1
		c1.5,0,3-0.1,4.4-0.1c0.3,0,0.5,0.4,0.5,0.6c0,0.3-0.1,0.5-0.5,0.5c-2.9,0.5-3,0.7-4.6,4.6c-1.8,4.3-4.8,10.6-5.7,12.7
		c-1.4,3.3-1.9,4-2.2,4c-0.6,0-0.9-1-1.9-3.2c-1.8-3.8-5.9-16-6.6-17c-0.5-0.8-1-0.8-1.8-0.8c-1.4,0-1.6-0.1-1.6-0.8
		c0-0.3,0.2-0.5,0.6-0.5c1.6,0,3.1,0.1,4.8,0.1c1,0,5-0.1,6-0.1c0.4,0,0.4,0.5,0.4,0.7s-0.2,0.6-0.5,0.6c-1.5,0-2.9,0.2-2.9,1.2
		c0,1.7,4.1,11.8,5.1,14C100.6,81.8,101.4,79.9,101.4,78.6z"/>
	<path fill="#900000" d="M112.7,84c-0.1,1-0.2,1.9-0.2,2.9c0,3.2,2.8,8.2,8.2,8.2c2.3,0,4.2-0.7,5.8-3c0.3-0.4,0.5-0.8,0.8-0.8
		c0.3,0,0.8,0.4,0.8,0.6s-2,6.4-8.6,6.4c-7.2,0-10.9-4.4-10.9-11.4c0-7.2,4.8-12,10-12c8.3,0,9,7.2,9,8.7c0,0.5-0.2,0.5-0.6,0.5
		H112.7z M121.3,82.5c1,0,1.7-0.3,1.7-1.6c0-3.9-2.7-4.8-4.4-4.8c-3.6,0-5.1,3-5.6,6.4H121.3z"/>
	<path fill="#900000" d="M134.5,81c0-1.8-0.5-2.8-3-3c-0.4,0-0.5-0.2-0.5-0.6c0-0.4,0.2-0.7,0.4-0.7c5.7-1.1,6.4-2.4,7-2.4
		c0.1,0,0.2,0.3,0.2,0.5c0,0.6-0.2,1.8-0.2,4.6c1.7-1.9,4.4-4.4,7-4.4c1.8,0,3.2,1,3.2,2.8c0,1.3-1,2.5-2.5,2.5
		c-2,0-2.3-1.9-3.8-1.9c-0.9,0-2.2,0.8-3.5,2.2c-0.4,0.4-0.4,1-0.4,1.5v11.4c0,1.8,0,3,2.5,3c1.8,0,2,0,2,0.6c0,0.6-0.2,0.7-0.8,0.7
		c-1.8,0-3.4-0.1-5.7-0.1c-4,0-4.9,0.1-5.8,0.1c-0.3,0-0.5-0.3-0.5-0.6c0-0.5,0.6-0.7,1.6-0.7c2.1,0,2.5-0.4,2.5-2.5V81z"/>
	<path fill="#900000" d="M165.8,91.4c0,2.5-1.3,6.8-8.2,6.8c-0.9,0-3.8-0.4-5.8-0.4c-0.1,0-0.2-0.1-0.2-0.2c0-0.5-1.2-4.9-1.2-5.4
		c0-0.3,0.7-0.3,0.9-0.3c1.2,0,1.5,5.1,6.3,5.1c3.5,0,4.5-2.7,4.5-4.5c0-5.2-11.2-3.5-11.2-10.7c0-4.1,3.4-6.8,7.6-6.8
		c2.3,0,5.2,0.4,5.4,0.5c0.6,0.1,0.8,1.1,0.8,1.4c0.1,2,0.5,3.4,0.5,4c0,0.3-0.3,0.4-0.5,0.4c-0.5,0-0.8,0-1-0.7
		c-0.4-0.8-1.7-4.2-5.2-4.2c-2.3,0-4,1.3-4,3.8c0,1.8,1.2,2.8,2.4,3.3C162.1,85.9,165.8,85.8,165.8,91.4z"/>
	<path fill="#900000" d="M176.5,92.8c0,2.8,0.1,3.5,2.3,3.5c1.1,0,1.2,0,1.2,0.7c0,0.3,0,0.6-0.5,0.6c-0.2,0-0.9-0.1-4.2-0.1
		c-4.7,0-6,0.1-6.8,0.1c-0.4,0-0.4-0.3-0.4-0.5c0-0.6,0-0.8,1.9-0.8c1.3,0,1.8-0.5,2.1-1.2c0.2-0.4,0.3-4,0.3-7.2V81
		c0-1.8-0.5-2.8-3-3c-0.4,0-0.5-0.2-0.5-0.6c0-0.4,0.2-0.7,0.4-0.7c5.7-1.1,6.4-2.4,7-2.4c0.2,0,0.3,0.2,0.3,0.5
		c0,0.2-0.2,0.7-0.2,7.2V92.8z M171.9,64.7c0-1.4,1.1-2.7,2.6-2.7s2.6,1.3,2.6,2.7c0,1.3-1.1,2.6-2.6,2.6S171.9,66,171.9,64.7z"/>
	<path fill="#900000" d="M190.1,88.7c0,5.3,0.5,7.2,4.4,7.2c1.7,0,3.2-1.2,3.4-1.2c0.2,0,0.5,0.5,0.5,0.8s-2.1,2.7-6.7,2.7
		c-5.8,0-5.8-5-5.8-6.2V78.8c0-0.4-0.1-0.6-0.5-0.6H183c-0.1,0-0.3-0.2-0.3-0.5c0-0.2,0-0.5,0.3-0.7c4.7-3.5,5.6-6.2,6.6-6.2
		c0.3,0,0.6,0.2,0.6,0.7c0,0.9-0.2,1.8-0.2,4.6h7.7c0.4,0,0.5,0.3,0.5,1.1c0,0.6-0.3,1.2-1.3,1.2c-0.4,0-2.7-0.2-6.9-0.2V88.7z"/>
	<path fill="#900000" d="M217.2,78.8c0-1.6-2.4-1.7-3.9-1.7c-0.5,0-0.5-0.2-0.5-0.7c0-0.3,0.2-0.6,0.5-0.6c1.6,0,3.2,0.1,4.8,0.1
		c1.6,0,3.1-0.1,4.7-0.1c0.4,0,0.4,0.5,0.4,0.6c0,0.5-0.2,0.6-0.9,0.7c-1.7,0.2-2.4,0.5-3.1,2.2c-1.8,4.1-8.7,18.7-9.8,21.5
		c-3.9,9.7-5.5,10.3-7.2,10.3c-1.6,0-2.8-1.4-2.8-3c0-1.5,1.5-2.7,2.9-2.7c1.2,0,1.9,0.8,2.5,0.8c0.9,0,3.2-4.8,3.2-7.2
		c0-1.2-1.2-4.2-1.8-5.6c-3.1-8.1-4.1-12.5-5.2-15.3c-0.4-1.2-3-1.2-3.6-1.2c-0.4,0-0.5-0.3-0.5-0.7c0-0.4,0.2-0.6,0.5-0.6
		c0.6,0,3.8,0.1,5.6,0.1c1.7,0,3.5-0.1,5-0.1c0.5,0,0.6,0.3,0.6,0.6c0,0.2-0.1,0.7-0.5,0.7c-0.3,0-2.5,0-2.5,1.1
		c0,2.4,1.7,7.4,5,15.7C213.1,89.2,217.2,80.4,217.2,78.8z"/>
	<path fill="#900000" d="M248.5,98.2c-6.8,0-11.6-5-11.6-11.6c0-6.6,5-11.6,11.6-11.6c6.7,0,11.7,4.9,11.7,11.6
		C260.2,93.6,255.5,98.2,248.5,98.2z M248.5,76.3c-5.2,0-6.8,5.4-6.8,10.3c0,4.2,1,10.3,6.8,10.3c5.9,0,6.9-6.1,6.9-10.3
		C255.4,81.7,253.8,76.3,248.5,76.3z"/>
	<path fill="#900000" d="M271.6,93.3c0,1.8,0,3,2.5,3c1.9,0,2,0,2,0.6c0,0.6-0.2,0.7-0.8,0.7c-1.8,0-3.4-0.1-5.7-0.1
		c-4,0-4.8,0.1-5.3,0.1c-0.4,0-0.5-0.3-0.5-0.6c0-0.5,0.1-0.7,1-0.7c2.2,0,2.6-0.4,2.6-2.5v-14c0-0.6,0-1.6-1-1.6h-2.8
		c-0.4,0-0.6,0-0.6-0.7c0-0.4,0.3-0.6,1.5-0.8c2-0.5,2.5-0.6,2.6-2.8c0.5-7.6,2.8-11.8,8.7-13.4c0.8-0.2,2.2-0.4,3-0.4
		c1.3,0,3.2,0.5,3.2,2.1c0,1.5-0.8,2.5-2.3,2.5c-0.5,0-1.6-0.2-2.8-1.2c-0.9-0.7-1.8-1.2-2.2-1.2c-2.9,0-3.4,4.2-3.4,7.3v6.5h6.2
		c0.4,0,0.5,0.3,0.5,1.1c0,0.6-0.3,1.2-1.3,1.2c-0.4,0-4.2-0.2-5.4-0.2V93.3z"/>
	<path fill="#900000" d="M325.5,62.4c0.1-0.4,0.3-0.6,0.6-0.6c0.2,0,3.9,0.2,5.1,0.2c0.8,0,5.1-0.2,5.5-0.2c0.5,0,0.5,0.4,0.5,0.8
		c0,0.5-0.2,0.7-0.6,0.7c-4.5,0-5,0.3-5,2.7c0,3.2,0.5,13.8,1,27.8c0,1.7,1.5,2.3,2.8,2.3c2.8,0,2.9,0.3,2.9,0.7
		c0,0.8-0.2,0.8-0.5,0.8c-0.5,0-1-0.1-8-0.1c-6.5,0-6.8,0.1-7.2,0.1c-0.5,0-0.5-0.3-0.5-0.8c0-0.4,0.1-0.7,2.4-0.7
		c3.3,0,3.3-0.8,3.3-2.8c0-3-0.8-19.2-1.1-28.5h-0.1c-3.7,9.4-8.2,20.1-11.6,28.2c-1.9,4.6-1.9,5.2-2.5,5.2s-0.8-0.4-1.8-3.9
		c-1.1-3.6-9.3-25.7-9.5-25.7c-0.8,3.7-4.2,20.3-4.2,25.3c0,1.5,0.9,2.3,2.5,2.3c1.2,0,2.7,0.1,2.7,0.4c0,1,0,1.1-0.6,1.1
		c-0.4,0-0.9-0.1-6-0.1c-4.6,0-4.9,0.1-5.2,0.1c-0.4,0-0.6,0-0.6-0.8c0-0.5,0.2-0.7,2.7-0.7c1.8,0,2.1-0.7,2.7-3.5
		c1.3-7.2,2.5-14.5,4.1-21.7c0.5-2.2,0.6-3.6,0.6-4.7c0-0.3-0.7-2.2-1.3-2.5c-0.4-0.2-2.8-0.4-4.3-0.4c-0.6,0-0.6-0.4-0.6-0.8
		c0-0.4,0.1-0.8,0.5-0.8c1,0,5.3,0.2,5.8,0.2c1.3,0,3.4-0.2,4-0.2c0.5,0,0.7,0.6,1.2,2.3c1,3.8,8.3,24,9.2,25.9
		C318.2,81.2,322,72,325.5,62.4z"/>
	<path fill="#900000" d="M347.8,92.8c0,2.8,0.1,3.5,2.3,3.5c1.1,0,1.2,0,1.2,0.7c0,0.3,0,0.6-0.5,0.6c-0.2,0-0.9-0.1-4.2-0.1
		c-4.7,0-6,0.1-6.8,0.1c-0.4,0-0.4-0.3-0.4-0.5c0-0.6,0-0.8,1.9-0.8c1.3,0,1.8-0.5,2.1-1.2c0.2-0.4,0.3-4,0.3-7.2V81
		c0-1.8-0.5-2.8-3-3c-0.4,0-0.5-0.2-0.5-0.6c0-0.4,0.2-0.7,0.4-0.7c5.7-1.1,6.4-2.4,7-2.4c0.2,0,0.3,0.2,0.3,0.5
		c0,0.2-0.2,0.7-0.2,7.2V92.8z M343.1,64.7c0-1.4,1.1-2.7,2.6-2.7s2.6,1.3,2.6,2.7c0,1.3-1.1,2.6-2.6,2.6S343.1,66,343.1,64.7z"/>
	<path fill="#900000" d="M369.4,91.4c0,2.5-1.3,6.8-8.2,6.8c-0.9,0-3.8-0.4-5.8-0.4c-0.1,0-0.2-0.1-0.2-0.2c0-0.5-1.2-4.9-1.2-5.4
		c0-0.3,0.7-0.3,0.9-0.3c1.2,0,1.5,5.1,6.3,5.1c3.5,0,4.5-2.7,4.5-4.5c0-5.2-11.2-3.5-11.2-10.7c0-4.1,3.4-6.8,7.6-6.8
		c2.3,0,5.2,0.4,5.4,0.5c0.6,0.1,0.8,1.1,0.8,1.4c0.1,2,0.5,3.4,0.5,4c0,0.3-0.3,0.4-0.5,0.4c-0.5,0-0.8,0-1-0.7
		c-0.4-0.8-1.7-4.2-5.2-4.2c-2.3,0-4,1.3-4,3.8c0,1.8,1.2,2.8,2.4,3.3C365.8,85.9,369.4,85.8,369.4,91.4z"/>
	<path fill="#900000" d="M387.9,91.4c0,2.5-1.3,6.8-8.2,6.8c-0.9,0-3.8-0.4-5.8-0.4c-0.1,0-0.2-0.1-0.2-0.2c0-0.5-1.2-4.9-1.2-5.4
		c0-0.3,0.7-0.3,0.9-0.3c1.2,0,1.5,5.1,6.3,5.1c3.5,0,4.5-2.7,4.5-4.5c0-5.2-11.2-3.5-11.2-10.7c0-4.1,3.4-6.8,7.6-6.8
		c2.3,0,5.2,0.4,5.4,0.5c0.6,0.1,0.8,1.1,0.8,1.4c0.1,2,0.5,3.4,0.5,4c0,0.3-0.3,0.4-0.5,0.4c-0.5,0-0.8,0-1-0.7
		c-0.4-0.8-1.7-4.2-5.2-4.2c-2.3,0-4,1.3-4,3.8c0,1.8,1.2,2.8,2.4,3.3C384.3,85.9,387.9,85.8,387.9,91.4z"/>
	<path fill="#900000" d="M403.1,98.2c-6.8,0-11.6-5-11.6-11.6c0-6.6,5-11.6,11.6-11.6c6.7,0,11.7,4.9,11.7,11.6
		C414.8,93.6,410.1,98.2,403.1,98.2z M403.1,76.3c-5.2,0-6.8,5.4-6.8,10.3c0,4.2,1,10.3,6.8,10.3c5.9,0,6.9-6.1,6.9-10.3
		C410,81.7,408.4,76.3,403.1,76.3z"/>
	<path fill="#900000" d="M421,82c0-4.4-0.5-4.7-3.1-4.7c-0.4,0-1.1,0-1.1-0.5c0-0.4,0-1,0.5-1c0.5,0,1.3,0.2,3,0.2
		c1.8,0,3.7-0.2,4.4-0.2c0.3,0,0.4,0,0.4,0.7V90c0,3.8,1.2,5.9,4.9,5.9c1.8,0,5-1.1,5-2.7v-13c0-2.7-0.5-3-3.1-3
		c-0.9,0-1.6,0-1.6-0.5c0-0.8,0-1,0.4-1c0.7,0,1.3,0.2,4.4,0.2c1.2,0,2.5-0.2,3.8-0.2c0.5,0,0.7,0.2,0.7,0.7c0,0.2-0.5,4.1-0.5,7.6
		v9.4c0,0.8,0,1.8,1.2,1.8c0.7,0,1.8-0.2,2.2-0.2c0.2,0,0.3,0,0.3,0.9c0,0.3,0,0.4-1.7,0.7c-4.2,0.7-5.5,1.3-5.8,1.3
		c-0.3,0-0.6-0.3-0.6-0.7c0-0.6,0.1-1.4,0.1-1.9c-2.5,1.9-5.5,2.8-7.5,2.8c-5,0-6.4-3.2-6.4-8.4V82z"/>
	<path fill="#900000" d="M448.3,81c0-1.8-0.5-2.8-3-3c-0.4,0-0.5-0.2-0.5-0.6c0-0.4,0.2-0.7,0.4-0.7c5.7-1.1,6.4-2.4,7-2.4
		c0.1,0,0.2,0.3,0.2,0.5c0,0.6-0.2,1.8-0.2,4.6c1.7-1.9,4.4-4.4,7-4.4c1.8,0,3.2,1,3.2,2.8c0,1.3-1,2.5-2.5,2.5
		c-2,0-2.3-1.9-3.8-1.9c-0.9,0-2.2,0.8-3.5,2.2c-0.4,0.4-0.4,1-0.4,1.5v11.4c0,1.8,0,3,2.5,3c1.8,0,2,0,2,0.6c0,0.6-0.2,0.7-0.8,0.7
		c-1.8,0-3.4-0.1-5.7-0.1c-4,0-4.9,0.1-5.8,0.1c-0.3,0-0.5-0.3-0.5-0.6c0-0.5,0.6-0.7,1.6-0.7c2.1,0,2.5-0.4,2.5-2.5V81z"/>
	<path fill="#900000" d="M471.8,92.8c0,2.8,0.1,3.5,2.3,3.5c1.1,0,1.2,0,1.2,0.7c0,0.3,0,0.6-0.5,0.6c-0.2,0-0.9-0.1-4.2-0.1
		c-4.7,0-6,0.1-6.8,0.1c-0.4,0-0.4-0.3-0.4-0.5c0-0.6,0-0.8,1.9-0.8c1.3,0,1.8-0.5,2.1-1.2c0.2-0.4,0.3-4,0.3-7.2V81
		c0-1.8-0.5-2.8-3-3c-0.4,0-0.5-0.2-0.5-0.6c0-0.4,0.2-0.7,0.4-0.7c5.7-1.1,6.4-2.4,7-2.4c0.2,0,0.3,0.2,0.3,0.5
		c0,0.2-0.2,0.7-0.2,7.2V92.8z M467.2,64.7c0-1.4,1.1-2.7,2.6-2.7s2.6,1.3,2.6,2.7c0,1.3-1.1,2.6-2.6,2.6S467.2,66,467.2,64.7z"/>
</g>
<g>
</g>
<g>
</g>
<g>
</g>
<g>
</g>
<g>
</g>
<g>
</g>
<g>
</g>
<g>
</g>
<g>
</g>
<g>
</g>
<g>
</g>
<g>
</g>
<g>
</g>
<g>
</g>
<g>
</g>
</svg>
