<?xml version="1.0" encoding="utf-8"?>
<!-- Generator: Adobe Illustrator 18.1.0, SVG Export Plug-In . SVG Version: 6.00 Build 0)  -->
<!DOCTYPE svg PUBLIC "-//W3C//DTD SVG 1.0//EN" "http://www.w3.org/TR/2001/REC-SVG-20010904/DTD/svg10.dtd">
<svg version="1.0" id="Layer_1" xmlns="http://www.w3.org/2000/svg" xmlns:xlink="http://www.w3.org/1999/xlink" x="0px" y="0px"
	 width="334px" height="78px" viewBox="0 0 334 78" enable-background="new 0 0 334 78" xml:space="preserve">
<g>
	<path fill="#FFFFFF" d="M7.5,17.6c0,4.6,1.9,8.7,7.7,8.7c4,0,7.5-2.2,7.5-10.5V9c0-4.8-1-4.8-4.6-4.8c-0.3,0-0.3-0.2-0.3-0.5
		c0-0.4,0.1-0.5,0.3-0.5c0.6,0,2.8,0.1,5.1,0.1c1.1,0,4-0.1,4.5-0.1c0.3,0,0.5,0.1,0.5,0.6c0,0.1,0,0.4-0.3,0.4c-3.3,0-4,0-4,4.1
		v8.2c0,9.3-5.9,11.8-9.9,11.8c-7.7,0-9.9-5.2-9.9-9v-7.9c0-2.5,0-3.3-0.1-4.9c0-2-0.6-2.3-3.6-2.3C0,4.2,0,3.9,0,3.6
		c0-0.2,0.1-0.4,0.3-0.4c0.3,0,3.3,0.1,5.5,0.1c2.2,0,5.2-0.1,5.5-0.1c0.2,0,0.3,0.2,0.3,0.4c0,0.3,0,0.6-0.4,0.6
		c-3,0-3.6,0.3-3.6,2.3c0,1.6-0.1,2.4-0.1,4.9V17.6z"/>
	<path fill="#FFFFFF" d="M34.1,24.6c0,2,0.1,2.4,1.6,2.4c0.9,0,1,0,1,0.4c0,0.2,0,0.4-0.3,0.4c-0.2,0-0.6-0.1-3-0.1
		c-3.2,0-4.1,0.1-4.7,0.1c-0.3,0-0.3-0.2-0.3-0.4c0-0.4,0-0.5,1.3-0.5c0.9,0,1.2-0.3,1.4-0.8c0.1-0.3,0.2-2.8,0.2-5v-4.7
		c0-1.2-0.3-1.9-2-2.1c-0.3,0-0.3-0.2-0.3-0.4c0-0.3,0.1-0.4,0.3-0.5c3.9-0.8,4.4-1.7,4.8-1.7c0.1,0,0.1,0.1,0.1,0.4
		c0,0.2-0.1,1-0.1,2.5c1.8-1.2,3.6-2.4,5.4-2.4c1.2,0,4.6,0.2,4.6,5.2v8.3c0,0.6,0.1,1.2,2.2,1.2c0.3,0,0.3,0.2,0.3,0.4
		c0,0.2,0,0.4-0.5,0.4c-1,0-1.7-0.1-3.5-0.1c-2.8,0-3.3,0.1-3.6,0.1c-0.2,0-0.2-0.2-0.2-0.4c0-0.2,0.1-0.5,0.5-0.5
		c1.7,0,2-0.1,2-1.3v-6.2c0-3.2-0.3-5.3-3.9-5.3c-1.3,0-3.2,1.2-3.3,1.6V24.6z"/>
	<path fill="#FFFFFF" d="M53.5,24.6c0,2,0.1,2.4,1.6,2.4c0.8,0,0.8,0,0.8,0.4c0,0.2,0,0.4-0.3,0.4c-0.2,0-0.6-0.1-2.9-0.1
		c-3.2,0-4.1,0.1-4.7,0.1c-0.3,0-0.3-0.2-0.3-0.4c0-0.4,0-0.5,1.3-0.5c0.9,0,1.2-0.3,1.4-0.8c0.1-0.3,0.2-2.8,0.2-5v-4.7
		c0-1.2-0.3-1.9-2-2.1c-0.3,0-0.3-0.2-0.3-0.4c0-0.3,0.1-0.4,0.3-0.5c3.9-0.8,4.4-1.7,4.8-1.7c0.1,0,0.2,0.2,0.2,0.4
		c0,0.1-0.2,0.5-0.2,5V24.6z M50.2,5.1c0-0.9,0.8-1.8,1.8-1.8c1,0,1.8,0.9,1.8,1.8C53.8,6.1,53.1,7,52,7C51,7,50.2,6.1,50.2,5.1z"/>
	<path fill="#FFFFFF" d="M69.3,14.7c0-1-1.8-1-2.3-1c-0.2,0-0.3-0.2-0.3-0.5c0-0.2,0.1-0.4,0.4-0.4c0.9,0,2,0.1,3,0.1
		c1,0,2-0.1,3-0.1c0.2,0,0.3,0.2,0.3,0.4c0,0.2,0,0.3-0.3,0.4c-2,0.3-2.1,0.4-3.2,3.1c-1.2,3-3.3,7.3-3.9,8.8
		c-1,2.3-1.3,2.7-1.6,2.7c-0.4,0-0.6-0.7-1.3-2.2c-1.2-2.6-4.1-11-4.6-11.7c-0.3-0.5-0.7-0.6-1.2-0.6c-0.9,0-1.1-0.1-1.1-0.6
		c0-0.2,0.2-0.4,0.4-0.4c1.1,0,2.2,0.1,3.3,0.1c0.7,0,3.4-0.1,4.1-0.1c0.2,0,0.3,0.3,0.3,0.5c0,0.2-0.1,0.4-0.3,0.4
		c-1,0-2,0.1-2,0.8c0,1.1,2.8,8.1,3.5,9.6C68.7,17,69.3,15.7,69.3,14.7z"/>
	<path fill="#FFFFFF" d="M76,18.5c-0.1,0.7-0.1,1.3-0.1,2c0,2.2,1.9,5.7,5.7,5.7c1.6,0,2.9-0.5,4-2.1c0.2-0.3,0.3-0.6,0.5-0.6
		c0.2,0,0.6,0.3,0.6,0.4c0,0.1-1.4,4.4-5.9,4.4c-4.9,0-7.5-3-7.5-7.9c0-4.9,3.3-8.3,6.9-8.3c5.7,0,6.2,4.9,6.2,6
		c0,0.3-0.1,0.4-0.4,0.4H76z M82,17.4c0.7,0,1.2-0.2,1.2-1.1c0-2.7-1.9-3.3-3-3.3c-2.5,0-3.5,2.1-3.9,4.4H82z"/>
	<path fill="#FFFFFF" d="M91.1,16.4c0-1.2-0.3-1.9-2-2.1c-0.3,0-0.3-0.2-0.3-0.4c0-0.3,0.1-0.4,0.3-0.5c3.9-0.8,4.4-1.7,4.8-1.7
		c0.1,0,0.1,0.2,0.1,0.3c0,0.4-0.2,1.3-0.2,3.1c1.1-1.3,3-3,4.8-3c1.2,0,2.2,0.7,2.2,1.9c0,0.9-0.7,1.7-1.7,1.7
		c-1.4,0-1.6-1.3-2.7-1.3c-0.6,0-1.5,0.5-2.4,1.5c-0.2,0.3-0.2,0.7-0.2,1v7.8c0,1.3,0,2,1.7,2c1.3,0,1.4,0,1.4,0.4
		c0,0.4-0.1,0.5-0.5,0.5c-1.2,0-2.3-0.1-3.9-0.1c-2.8,0-3.3,0.1-4,0.1c-0.2,0-0.3-0.2-0.3-0.4c0-0.3,0.4-0.4,1.1-0.4
		c1.5,0,1.8-0.3,1.8-1.8V16.4z"/>
	<path fill="#FFFFFF" d="M112.6,23.6c0,1.7-0.9,4.7-5.6,4.7c-0.6,0-2.6-0.3-4-0.3c-0.1,0-0.2-0.1-0.2-0.2c0-0.3-0.8-3.4-0.8-3.7
		c0-0.2,0.5-0.2,0.6-0.2c0.8,0,1,3.5,4.3,3.5c2.4,0,3.1-1.9,3.1-3.1c0-3.6-7.7-2.5-7.7-7.4c0-2.8,2.3-4.7,5.2-4.7
		c1.6,0,3.6,0.3,3.7,0.3c0.4,0.1,0.5,0.8,0.5,1c0.1,1.4,0.4,2.3,0.4,2.8c0,0.2-0.2,0.3-0.4,0.3c-0.3,0-0.5,0-0.7-0.5
		c-0.2-0.6-1.1-2.9-3.6-2.9c-1.6,0-2.8,0.9-2.8,2.6c0,1.2,0.9,1.9,1.6,2.3C110.2,19.8,112.6,19.7,112.6,23.6z"/>
	<path fill="#FFFFFF" d="M120.1,24.6c0,2,0.1,2.4,1.6,2.4c0.8,0,0.8,0,0.8,0.4c0,0.2,0,0.4-0.3,0.4c-0.2,0-0.6-0.1-2.9-0.1
		c-3.2,0-4.1,0.1-4.7,0.1c-0.3,0-0.3-0.2-0.3-0.4c0-0.4,0-0.5,1.3-0.5c0.9,0,1.2-0.3,1.4-0.8c0.1-0.3,0.2-2.8,0.2-5v-4.7
		c0-1.2-0.3-1.9-2-2.1c-0.3,0-0.3-0.2-0.3-0.4c0-0.3,0.1-0.4,0.3-0.5c3.9-0.8,4.4-1.7,4.8-1.7c0.1,0,0.2,0.2,0.2,0.4
		c0,0.1-0.2,0.5-0.2,5V24.6z M116.9,5.1c0-0.9,0.8-1.8,1.8-1.8c1,0,1.8,0.9,1.8,1.8c0,0.9-0.8,1.8-1.8,1.8
		C117.6,7,116.9,6.1,116.9,5.1z"/>
	<path fill="#FFFFFF" d="M128.4,21.7c0,3.7,0.3,5,3,5c1.2,0,2.2-0.8,2.3-0.8c0.1,0,0.4,0.3,0.4,0.6c0,0.2-1.4,1.8-4.6,1.8
		c-4,0-4-3.4-4-4.3v-9.1c0-0.3-0.1-0.4-0.3-0.4h-1.7c-0.1,0-0.2-0.1-0.2-0.3c0-0.1,0-0.3,0.2-0.5c3.2-2.4,3.9-4.2,4.6-4.2
		c0.2,0,0.4,0.1,0.4,0.4c0,0.6-0.1,1.2-0.1,3.2h5.3c0.2,0,0.3,0.2,0.3,0.7c0,0.4-0.2,0.9-0.9,0.9c-0.2,0-1.9-0.2-4.7-0.2V21.7z"/>
	<path fill="#FFFFFF" d="M149.3,14.9c0-1.1-1.6-1.2-2.7-1.2c-0.3,0-0.3-0.2-0.3-0.4c0-0.2,0.1-0.4,0.3-0.4c1.1,0,2.2,0.1,3.3,0.1
		c1.1,0,2.1-0.1,3.2-0.1c0.2,0,0.2,0.3,0.2,0.4c0,0.3-0.1,0.4-0.6,0.4c-1.2,0.1-1.7,0.3-2.2,1.5c-1.2,2.9-6,12.9-6.8,14.8
		c-2.7,6.7-3.8,7.1-4.9,7.1c-1.1,0-1.9-1-1.9-2c0-1,1-1.9,2-1.9c0.9,0,1.3,0.6,1.7,0.6c0.6,0,2.2-3.3,2.2-4.9c0-0.9-0.8-2.9-1.2-3.9
		c-2.2-5.6-2.8-8.6-3.6-10.5c-0.3-0.8-2-0.8-2.5-0.8c-0.2,0-0.3-0.2-0.3-0.5c0-0.3,0.2-0.4,0.4-0.4c0.4,0,2.6,0.1,3.8,0.1
		c1.2,0,2.4-0.1,3.4-0.1c0.3,0,0.4,0.2,0.4,0.4c0,0.2-0.1,0.4-0.3,0.4c-0.2,0-1.7,0-1.7,0.8c0,1.7,1.2,5.1,3.4,10.8
		C146.4,22.1,149.3,16,149.3,14.9z"/>
	<path fill="#FFFFFF" d="M170.9,28.3c-4.7,0-8-3.4-8-8c0-4.6,3.4-8,8-8c4.6,0,8,3.3,8,8C178.9,25.1,175.7,28.3,170.9,28.3z
		 M170.9,13.1c-3.6,0-4.7,3.7-4.7,7.1c0,2.9,0.7,7.1,4.7,7.1c4.1,0,4.8-4.2,4.8-7.1C175.6,16.9,174.5,13.1,170.9,13.1z"/>
	<path fill="#FFFFFF" d="M186.8,24.9c0,1.3,0,2,1.7,2c1.3,0,1.4,0,1.4,0.4c0,0.4-0.1,0.5-0.5,0.5c-1.2,0-2.3-0.1-3.9-0.1
		c-2.8,0-3.3,0.1-3.7,0.1c-0.2,0-0.3-0.2-0.3-0.4c0-0.3,0.1-0.4,0.7-0.4c1.5,0,1.8-0.3,1.8-1.8v-9.6c0-0.4,0-1.1-0.7-1.1h-1.9
		c-0.2,0-0.4,0-0.4-0.4c0-0.3,0.2-0.4,1.1-0.6c1.3-0.3,1.7-0.4,1.8-1.9c0.3-5.2,1.9-8.1,6-9.2c0.6-0.1,1.5-0.3,2.1-0.3
		c0.9,0,2.2,0.3,2.2,1.5c0,1-0.6,1.7-1.6,1.7c-0.3,0-1.1-0.1-1.9-0.8c-0.6-0.5-1.2-0.8-1.5-0.8c-2,0-2.3,2.9-2.3,5V13h4.3
		c0.2,0,0.3,0.2,0.3,0.7c0,0.4-0.2,0.9-0.9,0.9c-0.2,0-2.9-0.2-3.7-0.2V24.9z"/>
	<path fill="#FFFFFF" d="M229.6,3.6c0.1-0.3,0.2-0.4,0.4-0.4c0.2,0,2.7,0.1,3.5,0.1c0.6,0,3.5-0.1,3.8-0.1c0.3,0,0.4,0.3,0.4,0.6
		c0,0.3-0.1,0.4-0.4,0.4c-3.1,0-3.5,0.2-3.5,1.8c0,2.2,0.4,9.5,0.7,19.2c0,1.2,1,1.6,1.9,1.6c1.9,0,2,0.2,2,0.4
		c0,0.5-0.2,0.6-0.4,0.6c-0.3,0-0.7-0.1-5.5-0.1c-4.5,0-4.7,0.1-5,0.1c-0.4,0-0.4-0.2-0.4-0.6c0-0.2,0.1-0.5,1.7-0.5
		c2.3,0,2.3-0.6,2.3-1.9c0-2.1-0.5-13.2-0.8-19.7h-0.1c-2.5,6.5-5.7,13.9-8,19.4c-1.3,3.2-1.3,3.6-1.8,3.6c-0.4,0-0.5-0.3-1.2-2.7
		c-0.8-2.5-6.4-17.7-6.5-17.7c-0.6,2.5-2.9,14-2.9,17.4c0,1.1,0.6,1.6,1.7,1.6c0.9,0,1.9,0.1,1.9,0.3c0,0.7,0,0.8-0.4,0.8
		c-0.3,0-0.6-0.1-4.2-0.1c-3.1,0-3.4,0.1-3.6,0.1c-0.3,0-0.4,0-0.4-0.6c0-0.3,0.2-0.4,1.8-0.4c1.2,0,1.4-0.4,1.8-2.4
		c0.9-5,1.8-10,2.8-14.9c0.3-1.6,0.4-2.5,0.4-3.2c0-0.2-0.5-1.5-0.9-1.7c-0.3-0.2-1.9-0.3-3-0.3c-0.4,0-0.4-0.3-0.4-0.5
		c0-0.3,0.1-0.5,0.4-0.5c0.7,0,3.6,0.1,4,0.1c0.9,0,2.3-0.1,2.8-0.1c0.4,0,0.5,0.4,0.8,1.6c0.7,2.6,5.7,16.6,6.4,17.8
		C224.5,16.5,227.2,10.2,229.6,3.6z"/>
	<path fill="#FFFFFF" d="M245,24.6c0,2,0.1,2.4,1.6,2.4c0.8,0,0.8,0,0.8,0.4c0,0.2,0,0.4-0.3,0.4c-0.2,0-0.6-0.1-2.9-0.1
		c-3.2,0-4.1,0.1-4.7,0.1c-0.3,0-0.3-0.2-0.3-0.4c0-0.4,0-0.5,1.3-0.5c0.9,0,1.2-0.3,1.4-0.8c0.1-0.3,0.2-2.8,0.2-5v-4.7
		c0-1.2-0.3-1.9-2-2.1c-0.3,0-0.3-0.2-0.3-0.4c0-0.3,0.1-0.4,0.3-0.5c3.9-0.8,4.4-1.7,4.8-1.7c0.1,0,0.2,0.2,0.2,0.4
		c0,0.1-0.2,0.5-0.2,5V24.6z M241.8,5.1c0-0.9,0.8-1.8,1.8-1.8s1.8,0.9,1.8,1.8c0,0.9-0.8,1.8-1.8,1.8S241.8,6.1,241.8,5.1z"/>
	<path fill="#FFFFFF" d="M259.9,23.6c0,1.7-0.9,4.7-5.6,4.7c-0.6,0-2.6-0.3-4-0.3c-0.1,0-0.2-0.1-0.2-0.2c0-0.3-0.8-3.4-0.8-3.7
		c0-0.2,0.5-0.2,0.6-0.2c0.8,0,1,3.5,4.4,3.5c2.5,0,3.1-1.9,3.1-3.1c0-3.6-7.7-2.5-7.7-7.4c0-2.8,2.3-4.7,5.2-4.7
		c1.6,0,3.6,0.3,3.7,0.3c0.4,0.1,0.5,0.8,0.5,1c0.1,1.4,0.4,2.3,0.4,2.8c0,0.2-0.2,0.3-0.4,0.3c-0.3,0-0.5,0-0.7-0.5
		c-0.2-0.6-1.1-2.9-3.6-2.9c-1.6,0-2.8,0.9-2.8,2.6c0,1.2,0.9,1.9,1.6,2.3C257.4,19.8,259.9,19.7,259.9,23.6z"/>
	<path fill="#FFFFFF" d="M272.6,23.6c0,1.7-0.9,4.7-5.6,4.7c-0.6,0-2.6-0.3-4-0.3c-0.1,0-0.2-0.1-0.2-0.2c0-0.3-0.8-3.4-0.8-3.7
		c0-0.2,0.5-0.2,0.6-0.2c0.8,0,1,3.5,4.3,3.5c2.5,0,3.1-1.9,3.1-3.1c0-3.6-7.7-2.5-7.7-7.4c0-2.8,2.3-4.7,5.2-4.7
		c1.6,0,3.6,0.3,3.7,0.3c0.4,0.1,0.5,0.8,0.5,1c0.1,1.4,0.4,2.3,0.4,2.8c0,0.2-0.2,0.3-0.4,0.3c-0.3,0-0.5,0-0.7-0.5
		c-0.2-0.6-1.1-2.9-3.6-2.9c-1.6,0-2.8,0.9-2.8,2.6c0,1.2,0.9,1.9,1.6,2.3C270.2,19.8,272.6,19.7,272.6,23.6z"/>
	<path fill="#FFFFFF" d="M283.2,28.3c-4.7,0-8-3.4-8-8c0-4.6,3.4-8,8-8c4.6,0,8,3.3,8,8C291.2,25.1,288,28.3,283.2,28.3z
		 M283.2,13.1c-3.6,0-4.7,3.7-4.7,7.1c0,2.9,0.7,7.1,4.7,7.1c4.1,0,4.8-4.2,4.8-7.1C287.9,16.9,286.8,13.1,283.2,13.1z"/>
	<path fill="#FFFFFF" d="M295.5,17.1c0-3-0.3-3.2-2.1-3.2c-0.3,0-0.8,0-0.8-0.3c0-0.3,0-0.7,0.4-0.7c0.3,0,0.9,0.1,2,0.1
		c1.2,0,2.5-0.1,3-0.1c0.2,0,0.3,0,0.3,0.5v9.3c0,2.6,0.8,4.1,3.4,4.1c1.2,0,3.4-0.8,3.4-1.8v-8.9c0-1.9-0.3-2.1-2.1-2.1
		c-0.6,0-1.1,0-1.1-0.3c0-0.5,0-0.7,0.2-0.7c0.5,0,0.9,0.1,3,0.1c0.9,0,1.8-0.1,2.6-0.1c0.3,0,0.5,0.1,0.5,0.5
		c0,0.1-0.3,2.8-0.3,5.2V25c0,0.6,0,1.3,0.9,1.3c0.5,0,1.2-0.1,1.5-0.1c0.1,0,0.2,0,0.2,0.7c0,0.2,0,0.3-1.1,0.4
		c-2.9,0.5-3.8,0.9-4,0.9c-0.2,0-0.4-0.2-0.4-0.5c0-0.4,0.1-1,0.1-1.3c-1.7,1.3-3.8,1.9-5.1,1.9c-3.4,0-4.4-2.2-4.4-5.8V17.1z"/>
	<path fill="#FFFFFF" d="M314.4,16.4c0-1.2-0.3-1.9-2-2.1c-0.3,0-0.3-0.2-0.3-0.4c0-0.3,0.1-0.4,0.3-0.5c3.9-0.8,4.4-1.7,4.8-1.7
		c0.1,0,0.1,0.2,0.1,0.3c0,0.4-0.2,1.3-0.2,3.1c1.1-1.3,3-3,4.8-3c1.2,0,2.2,0.7,2.2,1.9c0,0.9-0.7,1.7-1.7,1.7
		c-1.4,0-1.6-1.3-2.7-1.3c-0.6,0-1.5,0.5-2.4,1.5c-0.2,0.3-0.2,0.7-0.2,1v7.8c0,1.3,0,2,1.7,2c1.3,0,1.4,0,1.4,0.4
		c0,0.4-0.1,0.5-0.5,0.5c-1.2,0-2.3-0.1-3.9-0.1c-2.8,0-3.3,0.1-4,0.1c-0.2,0-0.3-0.2-0.3-0.4c0-0.3,0.4-0.4,1.1-0.4
		c1.5,0,1.8-0.3,1.8-1.8V16.4z"/>
	<path fill="#FFFFFF" d="M330.6,24.6c0,2,0.1,2.4,1.6,2.4c0.8,0,0.8,0,0.8,0.4c0,0.2,0,0.4-0.3,0.4c-0.2,0-0.6-0.1-2.9-0.1
		c-3.2,0-4.1,0.1-4.7,0.1c-0.3,0-0.3-0.2-0.3-0.4c0-0.4,0-0.5,1.3-0.5c0.9,0,1.2-0.3,1.4-0.8c0.1-0.3,0.2-2.8,0.2-5v-4.7
		c0-1.2-0.3-1.9-2-2.1c-0.3,0-0.3-0.2-0.3-0.4c0-0.3,0.1-0.4,0.3-0.5c3.9-0.8,4.4-1.7,4.8-1.7c0.1,0,0.2,0.2,0.2,0.4
		c0,0.1-0.2,0.5-0.2,5V24.6z M327.4,5.1c0-0.9,0.8-1.8,1.8-1.8s1.8,0.9,1.8,1.8c0,0.9-0.8,1.8-1.8,1.8S327.4,6.1,327.4,5.1z"/>
</g>
<g>
	<path fill="#F1B82D" d="M7.5,56.6c0,4.6,1.9,8.7,7.7,8.7c4,0,7.5-2.2,7.5-10.5V48c0-4.8-1-4.8-4.6-4.8c-0.3,0-0.3-0.2-0.3-0.5
		c0-0.4,0.1-0.5,0.3-0.5c0.6,0,2.8,0.1,5.1,0.1c1.1,0,4-0.1,4.5-0.1c0.3,0,0.5,0.1,0.5,0.6c0,0.1,0,0.4-0.3,0.4c-3.3,0-4,0-4,4.1
		v8.2c0,9.3-5.9,11.8-9.9,11.8c-7.7,0-9.9-5.2-9.9-9v-7.9c0-2.5,0-3.3-0.1-4.9c0-2-0.6-2.3-3.6-2.3C0,43.2,0,42.9,0,42.6
		c0-0.2,0.1-0.4,0.3-0.4c0.3,0,3.3,0.1,5.5,0.1c2.2,0,5.2-0.1,5.5-0.1c0.2,0,0.3,0.2,0.3,0.4c0,0.3,0,0.6-0.4,0.6
		c-3,0-3.6,0.3-3.6,2.3c0,1.6-0.1,2.4-0.1,4.9V56.6z"/>
	<path fill="#F1B82D" d="M34.1,63.6c0,2,0.1,2.4,1.6,2.4c0.9,0,1,0,1,0.4c0,0.2,0,0.4-0.3,0.4c-0.2,0-0.6-0.1-3-0.1
		c-3.2,0-4.1,0.1-4.7,0.1c-0.3,0-0.3-0.2-0.3-0.4c0-0.4,0-0.5,1.3-0.5c0.9,0,1.2-0.3,1.4-0.8c0.1-0.3,0.2-2.8,0.2-5v-4.7
		c0-1.2-0.3-1.9-2-2.1c-0.3,0-0.3-0.2-0.3-0.4c0-0.3,0.1-0.4,0.3-0.5c3.9-0.8,4.4-1.7,4.8-1.7c0.1,0,0.1,0.1,0.1,0.4
		c0,0.2-0.1,1-0.1,2.5c1.8-1.2,3.6-2.4,5.4-2.4c1.2,0,4.6,0.2,4.6,5.2v8.3c0,0.6,0.1,1.2,2.2,1.2c0.3,0,0.3,0.2,0.3,0.4
		c0,0.2,0,0.4-0.5,0.4c-1,0-1.7-0.1-3.5-0.1c-2.8,0-3.3,0.1-3.6,0.1c-0.2,0-0.2-0.2-0.2-0.4c0-0.2,0.1-0.5,0.5-0.5
		c1.7,0,2-0.1,2-1.3v-6.2c0-3.2-0.3-5.3-3.9-5.3c-1.3,0-3.2,1.2-3.3,1.6V63.6z"/>
	<path fill="#F1B82D" d="M53.5,63.6c0,2,0.1,2.4,1.6,2.4c0.8,0,0.8,0,0.8,0.4c0,0.2,0,0.4-0.3,0.4c-0.2,0-0.6-0.1-2.9-0.1
		c-3.2,0-4.1,0.1-4.7,0.1c-0.3,0-0.3-0.2-0.3-0.4c0-0.4,0-0.5,1.3-0.5c0.9,0,1.2-0.3,1.4-0.8c0.1-0.3,0.2-2.8,0.2-5v-4.7
		c0-1.2-0.3-1.9-2-2.1c-0.3,0-0.3-0.2-0.3-0.4c0-0.3,0.1-0.4,0.3-0.5c3.9-0.8,4.4-1.7,4.8-1.7c0.1,0,0.2,0.2,0.2,0.4
		c0,0.1-0.2,0.5-0.2,5V63.6z M50.2,44.1c0-0.9,0.8-1.8,1.8-1.8c1,0,1.8,0.9,1.8,1.8c0,0.9-0.8,1.8-1.8,1.8
		C51,46,50.2,45.1,50.2,44.1z"/>
	<path fill="#F1B82D" d="M69.3,53.7c0-1-1.8-1-2.3-1c-0.2,0-0.3-0.2-0.3-0.5c0-0.2,0.1-0.4,0.4-0.4c0.9,0,2,0.1,3,0.1
		c1,0,2-0.1,3-0.1c0.2,0,0.3,0.2,0.3,0.4c0,0.2,0,0.3-0.3,0.4c-2,0.3-2.1,0.4-3.2,3.1c-1.2,3-3.3,7.3-3.9,8.8
		c-1,2.3-1.3,2.7-1.6,2.7c-0.4,0-0.6-0.7-1.3-2.2c-1.2-2.6-4.1-11-4.6-11.7c-0.3-0.5-0.7-0.6-1.2-0.6c-0.9,0-1.1-0.1-1.1-0.6
		c0-0.2,0.2-0.4,0.4-0.4c1.1,0,2.2,0.1,3.3,0.1c0.7,0,3.4-0.1,4.1-0.1c0.2,0,0.3,0.3,0.3,0.5c0,0.2-0.1,0.4-0.3,0.4
		c-1,0-2,0.1-2,0.8c0,1.1,2.8,8.1,3.5,9.6C68.7,56,69.3,54.7,69.3,53.7z"/>
	<path fill="#F1B82D" d="M76,57.5c-0.1,0.7-0.1,1.3-0.1,2c0,2.2,1.9,5.7,5.7,5.7c1.6,0,2.9-0.5,4-2.1c0.2-0.3,0.3-0.6,0.5-0.6
		c0.2,0,0.6,0.3,0.6,0.4c0,0.1-1.4,4.4-5.9,4.4c-4.9,0-7.5-3-7.5-7.9c0-4.9,3.3-8.3,6.9-8.3c5.7,0,6.2,4.9,6.2,6
		c0,0.3-0.1,0.4-0.4,0.4H76z M82,56.4c0.7,0,1.2-0.2,1.2-1.1c0-2.7-1.9-3.3-3-3.3c-2.5,0-3.5,2.1-3.9,4.4H82z"/>
	<path fill="#F1B82D" d="M91.1,55.4c0-1.2-0.3-1.9-2-2.1c-0.3,0-0.3-0.2-0.3-0.4c0-0.3,0.1-0.4,0.3-0.5c3.9-0.8,4.4-1.7,4.8-1.7
		c0.1,0,0.1,0.2,0.1,0.3c0,0.4-0.2,1.3-0.2,3.1c1.1-1.3,3-3,4.8-3c1.2,0,2.2,0.7,2.2,1.9c0,0.9-0.7,1.7-1.7,1.7
		c-1.4,0-1.6-1.3-2.7-1.3c-0.6,0-1.5,0.5-2.4,1.5c-0.2,0.3-0.2,0.7-0.2,1v7.8c0,1.3,0,2,1.7,2c1.3,0,1.4,0,1.4,0.4
		c0,0.4-0.1,0.5-0.5,0.5c-1.2,0-2.3-0.1-3.9-0.1c-2.8,0-3.3,0.1-4,0.1c-0.2,0-0.3-0.2-0.3-0.4c0-0.3,0.4-0.4,1.1-0.4
		c1.5,0,1.8-0.3,1.8-1.8V55.4z"/>
	<path fill="#F1B82D" d="M112.6,62.6c0,1.7-0.9,4.7-5.6,4.7c-0.6,0-2.6-0.3-4-0.3c-0.1,0-0.2-0.1-0.2-0.2c0-0.3-0.8-3.4-0.8-3.7
		c0-0.2,0.5-0.2,0.6-0.2c0.8,0,1,3.5,4.3,3.5c2.4,0,3.1-1.9,3.1-3.1c0-3.6-7.7-2.5-7.7-7.4c0-2.8,2.3-4.7,5.2-4.7
		c1.6,0,3.6,0.3,3.7,0.3c0.4,0.1,0.5,0.8,0.5,1c0.1,1.4,0.4,2.3,0.4,2.8c0,0.2-0.2,0.3-0.4,0.3c-0.3,0-0.5,0-0.7-0.5
		c-0.2-0.6-1.1-2.9-3.6-2.9c-1.6,0-2.8,0.9-2.8,2.6c0,1.2,0.9,1.9,1.6,2.3C110.2,58.8,112.6,58.7,112.6,62.6z"/>
	<path fill="#F1B82D" d="M120.1,63.6c0,2,0.1,2.4,1.6,2.4c0.8,0,0.8,0,0.8,0.4c0,0.2,0,0.4-0.3,0.4c-0.2,0-0.6-0.1-2.9-0.1
		c-3.2,0-4.1,0.1-4.7,0.1c-0.3,0-0.3-0.2-0.3-0.4c0-0.4,0-0.5,1.3-0.5c0.9,0,1.2-0.3,1.4-0.8c0.1-0.3,0.2-2.8,0.2-5v-4.7
		c0-1.2-0.3-1.9-2-2.1c-0.3,0-0.3-0.2-0.3-0.4c0-0.3,0.1-0.4,0.3-0.5c3.9-0.8,4.4-1.7,4.8-1.7c0.1,0,0.2,0.2,0.2,0.4
		c0,0.1-0.2,0.5-0.2,5V63.6z M116.9,44.1c0-0.9,0.8-1.8,1.8-1.8c1,0,1.8,0.9,1.8,1.8c0,0.9-0.8,1.8-1.8,1.8
		C117.6,46,116.9,45.1,116.9,44.1z"/>
	<path fill="#F1B82D" d="M128.4,60.7c0,3.7,0.3,5,3,5c1.2,0,2.2-0.8,2.3-0.8c0.1,0,0.4,0.3,0.4,0.6c0,0.2-1.4,1.8-4.6,1.8
		c-4,0-4-3.4-4-4.3v-9.1c0-0.3-0.1-0.4-0.3-0.4h-1.7c-0.1,0-0.2-0.1-0.2-0.3c0-0.1,0-0.3,0.2-0.5c3.2-2.4,3.9-4.2,4.6-4.2
		c0.2,0,0.4,0.1,0.4,0.4c0,0.6-0.1,1.2-0.1,3.2h5.3c0.2,0,0.3,0.2,0.3,0.7c0,0.4-0.2,0.9-0.9,0.9c-0.2,0-1.9-0.2-4.7-0.2V60.7z"/>
	<path fill="#F1B82D" d="M149.3,53.9c0-1.1-1.6-1.2-2.7-1.2c-0.3,0-0.3-0.2-0.3-0.4c0-0.2,0.1-0.4,0.3-0.4c1.1,0,2.2,0.1,3.3,0.1
		c1.1,0,2.1-0.1,3.2-0.1c0.2,0,0.2,0.3,0.2,0.4c0,0.3-0.1,0.4-0.6,0.4c-1.2,0.1-1.7,0.3-2.2,1.5c-1.2,2.9-6,12.9-6.8,14.8
		c-2.7,6.7-3.8,7.1-4.9,7.1c-1.1,0-1.9-1-1.9-2c0-1,1-1.9,2-1.9c0.9,0,1.3,0.6,1.7,0.6c0.6,0,2.2-3.3,2.2-4.9c0-0.9-0.8-2.9-1.2-3.9
		c-2.2-5.6-2.8-8.6-3.6-10.5c-0.3-0.8-2-0.8-2.5-0.8c-0.2,0-0.3-0.2-0.3-0.5c0-0.3,0.2-0.4,0.4-0.4c0.4,0,2.6,0.1,3.8,0.1
		c1.2,0,2.4-0.1,3.4-0.1c0.3,0,0.4,0.2,0.4,0.4c0,0.2-0.1,0.4-0.3,0.4c-0.2,0-1.7,0-1.7,0.8c0,1.7,1.2,5.1,3.4,10.8
		C146.4,61.1,149.3,55,149.3,53.9z"/>
	<path fill="#F1B82D" d="M170.9,67.3c-4.7,0-8-3.4-8-8c0-4.6,3.4-8,8-8c4.6,0,8,3.3,8,8C178.9,64.1,175.7,67.3,170.9,67.3z
		 M170.9,52.1c-3.6,0-4.7,3.7-4.7,7.1c0,2.9,0.7,7.1,4.7,7.1c4.1,0,4.8-4.2,4.8-7.1C175.6,55.9,174.5,52.1,170.9,52.1z"/>
	<path fill="#F1B82D" d="M186.8,63.9c0,1.3,0,2,1.7,2c1.3,0,1.4,0,1.4,0.4c0,0.4-0.1,0.5-0.5,0.5c-1.2,0-2.3-0.1-3.9-0.1
		c-2.8,0-3.3,0.1-3.7,0.1c-0.2,0-0.3-0.2-0.3-0.4c0-0.3,0.1-0.4,0.7-0.4c1.5,0,1.8-0.3,1.8-1.8v-9.6c0-0.4,0-1.1-0.7-1.1h-1.9
		c-0.2,0-0.4,0-0.4-0.4c0-0.3,0.2-0.4,1.1-0.6c1.3-0.3,1.7-0.4,1.8-1.9c0.3-5.2,1.9-8.1,6-9.2c0.6-0.1,1.5-0.3,2.1-0.3
		c0.9,0,2.2,0.3,2.2,1.5c0,1-0.6,1.7-1.6,1.7c-0.3,0-1.1-0.1-1.9-0.8c-0.6-0.5-1.2-0.8-1.5-0.8c-2,0-2.3,2.9-2.3,5V52h4.3
		c0.2,0,0.3,0.2,0.3,0.7c0,0.4-0.2,0.9-0.9,0.9c-0.2,0-2.9-0.2-3.7-0.2V63.9z"/>
	<path fill="#F1B82D" d="M229.6,42.6c0.1-0.3,0.2-0.4,0.4-0.4c0.2,0,2.7,0.1,3.5,0.1c0.6,0,3.5-0.1,3.8-0.1c0.3,0,0.4,0.3,0.4,0.6
		c0,0.3-0.1,0.4-0.4,0.4c-3.1,0-3.5,0.2-3.5,1.8c0,2.2,0.4,9.5,0.7,19.2c0,1.2,1,1.6,1.9,1.6c1.9,0,2,0.2,2,0.4
		c0,0.5-0.2,0.6-0.4,0.6c-0.3,0-0.7-0.1-5.5-0.1c-4.5,0-4.7,0.1-5,0.1c-0.4,0-0.4-0.2-0.4-0.6c0-0.2,0.1-0.5,1.7-0.5
		c2.3,0,2.3-0.6,2.3-1.9c0-2.1-0.5-13.2-0.8-19.7h-0.1c-2.5,6.5-5.7,13.9-8,19.4c-1.3,3.2-1.3,3.6-1.8,3.6c-0.4,0-0.5-0.3-1.2-2.7
		c-0.8-2.5-6.4-17.7-6.5-17.7c-0.6,2.5-2.9,14-2.9,17.4c0,1.1,0.6,1.6,1.7,1.6c0.9,0,1.9,0.1,1.9,0.3c0,0.7,0,0.8-0.4,0.8
		c-0.3,0-0.6-0.1-4.2-0.1c-3.1,0-3.4,0.1-3.6,0.1c-0.3,0-0.4,0-0.4-0.6c0-0.3,0.2-0.4,1.8-0.4c1.2,0,1.4-0.4,1.8-2.4
		c0.9-5,1.8-10,2.8-14.9c0.3-1.6,0.4-2.5,0.4-3.2c0-0.2-0.5-1.5-0.9-1.7c-0.3-0.2-1.9-0.3-3-0.3c-0.4,0-0.4-0.3-0.4-0.5
		c0-0.3,0.1-0.5,0.4-0.5c0.7,0,3.6,0.1,4,0.1c0.9,0,2.3-0.1,2.8-0.1c0.4,0,0.5,0.4,0.8,1.6c0.7,2.6,5.7,16.6,6.4,17.8
		C224.5,55.5,227.2,49.2,229.6,42.6z"/>
	<path fill="#F1B82D" d="M245,63.6c0,2,0.1,2.4,1.6,2.4c0.8,0,0.8,0,0.8,0.4c0,0.2,0,0.4-0.3,0.4c-0.2,0-0.6-0.1-2.9-0.1
		c-3.2,0-4.1,0.1-4.7,0.1c-0.3,0-0.3-0.2-0.3-0.4c0-0.4,0-0.5,1.3-0.5c0.9,0,1.2-0.3,1.4-0.8c0.1-0.3,0.2-2.8,0.2-5v-4.7
		c0-1.2-0.3-1.9-2-2.1c-0.3,0-0.3-0.2-0.3-0.4c0-0.3,0.1-0.4,0.3-0.5c3.9-0.8,4.4-1.7,4.8-1.7c0.1,0,0.2,0.2,0.2,0.4
		c0,0.1-0.2,0.5-0.2,5V63.6z M241.8,44.1c0-0.9,0.8-1.8,1.8-1.8s1.8,0.9,1.8,1.8c0,0.9-0.8,1.8-1.8,1.8S241.8,45.1,241.8,44.1z"/>
	<path fill="#F1B82D" d="M259.9,62.6c0,1.7-0.9,4.7-5.6,4.7c-0.6,0-2.6-0.3-4-0.3c-0.1,0-0.2-0.1-0.2-0.2c0-0.3-0.8-3.4-0.8-3.7
		c0-0.2,0.5-0.2,0.6-0.2c0.8,0,1,3.5,4.4,3.5c2.5,0,3.1-1.9,3.1-3.1c0-3.6-7.7-2.5-7.7-7.4c0-2.8,2.3-4.7,5.2-4.7
		c1.6,0,3.6,0.3,3.7,0.3c0.4,0.1,0.5,0.8,0.5,1c0.1,1.4,0.4,2.3,0.4,2.8c0,0.2-0.2,0.3-0.4,0.3c-0.3,0-0.5,0-0.7-0.5
		c-0.2-0.6-1.1-2.9-3.6-2.9c-1.6,0-2.8,0.9-2.8,2.6c0,1.2,0.9,1.9,1.6,2.3C257.4,58.8,259.9,58.7,259.9,62.6z"/>
	<path fill="#F1B82D" d="M272.6,62.6c0,1.7-0.9,4.7-5.6,4.7c-0.6,0-2.6-0.3-4-0.3c-0.1,0-0.2-0.1-0.2-0.2c0-0.3-0.8-3.4-0.8-3.7
		c0-0.2,0.5-0.2,0.6-0.2c0.8,0,1,3.5,4.3,3.5c2.5,0,3.1-1.9,3.1-3.1c0-3.6-7.7-2.5-7.7-7.4c0-2.8,2.3-4.7,5.2-4.7
		c1.6,0,3.6,0.3,3.7,0.3c0.4,0.1,0.5,0.8,0.5,1c0.1,1.4,0.4,2.3,0.4,2.8c0,0.2-0.2,0.3-0.4,0.3c-0.3,0-0.5,0-0.7-0.5
		c-0.2-0.6-1.1-2.9-3.6-2.9c-1.6,0-2.8,0.9-2.8,2.6c0,1.2,0.9,1.9,1.6,2.3C270.2,58.8,272.6,58.7,272.6,62.6z"/>
	<path fill="#F1B82D" d="M283.2,67.3c-4.7,0-8-3.4-8-8c0-4.6,3.4-8,8-8c4.6,0,8,3.3,8,8C291.2,64.1,288,67.3,283.2,67.3z
		 M283.2,52.1c-3.6,0-4.7,3.7-4.7,7.1c0,2.9,0.7,7.1,4.7,7.1c4.1,0,4.8-4.2,4.8-7.1C287.9,55.9,286.8,52.1,283.2,52.1z"/>
	<path fill="#F1B82D" d="M295.5,56.1c0-3-0.3-3.2-2.1-3.2c-0.3,0-0.8,0-0.8-0.3c0-0.3,0-0.7,0.4-0.7c0.3,0,0.9,0.1,2,0.1
		c1.2,0,2.5-0.1,3-0.1c0.2,0,0.3,0,0.3,0.5v9.3c0,2.6,0.8,4.1,3.4,4.1c1.2,0,3.4-0.8,3.4-1.8v-8.9c0-1.9-0.3-2.1-2.1-2.1
		c-0.6,0-1.1,0-1.1-0.3c0-0.5,0-0.7,0.2-0.7c0.5,0,0.9,0.1,3,0.1c0.9,0,1.8-0.1,2.6-0.1c0.3,0,0.5,0.1,0.5,0.5
		c0,0.1-0.3,2.8-0.3,5.2V64c0,0.6,0,1.3,0.9,1.3c0.5,0,1.2-0.1,1.5-0.1c0.1,0,0.2,0,0.2,0.7c0,0.2,0,0.3-1.1,0.4
		c-2.9,0.5-3.8,0.9-4,0.9c-0.2,0-0.4-0.2-0.4-0.5c0-0.4,0.1-1,0.1-1.3c-1.7,1.3-3.8,1.9-5.1,1.9c-3.4,0-4.4-2.2-4.4-5.8V56.1z"/>
	<path fill="#F1B82D" d="M314.4,55.4c0-1.2-0.3-1.9-2-2.1c-0.3,0-0.3-0.2-0.3-0.4c0-0.3,0.1-0.4,0.3-0.5c3.9-0.8,4.4-1.7,4.8-1.7
		c0.1,0,0.1,0.2,0.1,0.3c0,0.4-0.2,1.3-0.2,3.1c1.1-1.3,3-3,4.8-3c1.2,0,2.2,0.7,2.2,1.9c0,0.9-0.7,1.7-1.7,1.7
		c-1.4,0-1.6-1.3-2.7-1.3c-0.6,0-1.5,0.5-2.4,1.5c-0.2,0.3-0.2,0.7-0.2,1v7.8c0,1.3,0,2,1.7,2c1.3,0,1.4,0,1.4,0.4
		c0,0.4-0.1,0.5-0.5,0.5c-1.2,0-2.3-0.1-3.9-0.1c-2.8,0-3.3,0.1-4,0.1c-0.2,0-0.3-0.2-0.3-0.4c0-0.3,0.4-0.4,1.1-0.4
		c1.5,0,1.8-0.3,1.8-1.8V55.4z"/>
	<path fill="#F1B82D" d="M330.6,63.6c0,2,0.1,2.4,1.6,2.4c0.8,0,0.8,0,0.8,0.4c0,0.2,0,0.4-0.3,0.4c-0.2,0-0.6-0.1-2.9-0.1
		c-3.2,0-4.1,0.1-4.7,0.1c-0.3,0-0.3-0.2-0.3-0.4c0-0.4,0-0.5,1.3-0.5c0.9,0,1.2-0.3,1.4-0.8c0.1-0.3,0.2-2.8,0.2-5v-4.7
		c0-1.2-0.3-1.9-2-2.1c-0.3,0-0.3-0.2-0.3-0.4c0-0.3,0.1-0.4,0.3-0.5c3.9-0.8,4.4-1.7,4.8-1.7c0.1,0,0.2,0.2,0.2,0.4
		c0,0.1-0.2,0.5-0.2,5V63.6z M327.4,44.1c0-0.9,0.8-1.8,1.8-1.8s1.8,0.9,1.8,1.8c0,0.9-0.8,1.8-1.8,1.8S327.4,45.1,327.4,44.1z"/>
</g>
<g>
</g>
<g>
</g>
<g>
</g>
<g>
</g>
<g>
</g>
<g>
</g>
<g>
</g>
<g>
</g>
<g>
</g>
<g>
</g>
<g>
</g>
<g>
</g>
<g>
</g>
<g>
</g>
<g>
</g>
</svg>
