<?xml version="1.0" encoding="utf-8"?>
<!-- Generator: Adobe Illustrator 18.1.0, SVG Export Plug-In . SVG Version: 6.00 Build 0)  -->
<!DOCTYPE svg PUBLIC "-//W3C//DTD SVG 1.0//EN" "http://www.w3.org/TR/2001/REC-SVG-20010904/DTD/svg10.dtd">
<svg version="1.0" id="Layer_1" xmlns="http://www.w3.org/2000/svg" xmlns:xlink="http://www.w3.org/1999/xlink" x="0px" y="0px"
	 width="177px" height="42px" viewBox="0 0 177 42" enable-background="new 0 0 177 42" xml:space="preserve">
<g>
	<path fill="#231F20" d="M4,9.3c0,2.4,1,4.6,4.1,4.6c2.1,0,4-1.2,4-5.5V4.7c0-2.5-0.5-2.5-2.4-2.5c-0.1,0-0.1-0.1-0.1-0.3
		c0-0.2,0.1-0.3,0.1-0.3c0.3,0,1.5,0.1,2.7,0.1c0.6,0,2.1-0.1,2.4-0.1c0.2,0,0.3,0,0.3,0.3c0,0.1,0,0.2-0.2,0.2
		c-1.8,0-2.1,0-2.1,2.2v4.3c0,4.9-3.1,6.2-5.3,6.2c-4.1,0-5.2-2.7-5.2-4.7V6c0-1.3,0-1.7,0-2.6c0-1.1-0.3-1.2-1.9-1.2
		C0,2.2,0,2,0,1.9c0-0.1,0-0.2,0.2-0.2c0.1,0,1.7,0.1,2.9,0.1c1.2,0,2.8-0.1,2.9-0.1c0.1,0,0.2,0.1,0.2,0.2c0,0.2,0,0.3-0.2,0.3
		C4.3,2.2,4,2.3,4,3.4C4,4.2,4,4.7,4,6V9.3z"/>
	<path fill="#231F20" d="M18,12.9c0,1,0,1.3,0.8,1.3c0.5,0,0.5,0,0.5,0.2c0,0.1,0,0.2-0.2,0.2c-0.1,0-0.3,0-1.6,0
		c-1.7,0-2.2,0-2.5,0c-0.1,0-0.1-0.1-0.1-0.2c0-0.2,0-0.3,0.7-0.3c0.5,0,0.6-0.2,0.7-0.4c0.1-0.2,0.1-1.5,0.1-2.6V8.6
		c0-0.6-0.2-1-1.1-1.1c-0.1,0-0.2-0.1-0.2-0.2c0-0.1,0.1-0.2,0.1-0.3c2.1-0.4,2.3-0.9,2.6-0.9c0,0,0.1,0.1,0.1,0.2
		c0,0.1,0,0.5,0,1.3C19,7,19.9,6.4,20.9,6.4c0.6,0,2.4,0.1,2.4,2.7v4.4c0,0.3,0.1,0.7,1.2,0.7c0.2,0,0.2,0.1,0.2,0.2
		c0,0.1,0,0.2-0.3,0.2c-0.5,0-0.9,0-1.8,0c-1.5,0-1.8,0-1.9,0c-0.1,0-0.1-0.1-0.1-0.2c0-0.1,0-0.3,0.3-0.3c0.9,0,1-0.1,1-0.7v-3.3
		c0-1.7-0.1-2.8-2-2.8c-0.7,0-1.7,0.6-1.8,0.8V12.9z"/>
	<path fill="#231F20" d="M28.3,12.9c0,1,0,1.3,0.8,1.3c0.4,0,0.4,0,0.4,0.2c0,0.1,0,0.2-0.2,0.2c-0.1,0-0.3,0-1.5,0
		c-1.7,0-2.2,0-2.5,0c-0.1,0-0.1-0.1-0.1-0.2c0-0.2,0-0.3,0.7-0.3c0.5,0,0.6-0.2,0.7-0.4c0.1-0.2,0.1-1.5,0.1-2.6V8.6
		c0-0.6-0.2-1-1.1-1.1c-0.1,0-0.2-0.1-0.2-0.2c0-0.1,0.1-0.2,0.1-0.3c2.1-0.4,2.3-0.9,2.6-0.9c0.1,0,0.1,0.1,0.1,0.2
		c0,0.1-0.1,0.3-0.1,2.6V12.9z M26.6,2.7c0-0.5,0.4-1,0.9-1c0.5,0,0.9,0.5,0.9,1c0,0.5-0.4,1-0.9,1C27,3.6,26.6,3.2,26.6,2.7z"/>
	<path fill="#231F20" d="M36.6,7.7c0-0.5-0.9-0.5-1.2-0.5c-0.1,0-0.2-0.1-0.2-0.3c0-0.1,0.1-0.2,0.2-0.2c0.5,0,1.1,0,1.6,0
		c0.5,0,1.1,0,1.6,0c0.1,0,0.2,0.1,0.2,0.2c0,0.1,0,0.2-0.2,0.2c-1.1,0.2-1.1,0.2-1.7,1.7c-0.6,1.6-1.7,3.9-2.1,4.6
		c-0.5,1.2-0.7,1.4-0.8,1.4c-0.2,0-0.3-0.4-0.7-1.2c-0.6-1.4-2.2-5.8-2.4-6.2c-0.2-0.3-0.4-0.3-0.6-0.3c-0.5,0-0.6-0.1-0.6-0.3
		c0-0.1,0.1-0.2,0.2-0.2c0.6,0,1.1,0,1.7,0c0.4,0,1.8,0,2.2,0C34,6.7,34,6.9,34,7c0,0.1-0.1,0.2-0.2,0.2c-0.5,0-1.1,0.1-1.1,0.4
		c0,0.6,1.5,4.3,1.9,5.1C36.3,8.9,36.6,8.2,36.6,7.7z"/>
	<path fill="#231F20" d="M40.2,9.7c-0.1,0.3-0.1,0.7-0.1,1c0,1.2,1,3,3,3c0.8,0,1.6-0.3,2.1-1.1c0.1-0.1,0.2-0.3,0.3-0.3
		c0.1,0,0.3,0.2,0.3,0.2c0,0.1-0.7,2.3-3.1,2.3c-2.6,0-4-1.6-4-4.2c0-2.6,1.8-4.4,3.6-4.4c3,0,3.3,2.6,3.3,3.2
		c0,0.2-0.1,0.2-0.2,0.2H40.2z M43.3,9.2c0.4,0,0.6-0.1,0.6-0.6c0-1.4-1-1.7-1.6-1.7c-1.3,0-1.9,1.1-2,2.3H43.3z"/>
	<path fill="#231F20" d="M48.2,8.6c0-0.6-0.2-1-1.1-1.1c-0.1,0-0.2-0.1-0.2-0.2c0-0.1,0.1-0.2,0.1-0.3c2.1-0.4,2.3-0.9,2.6-0.9
		c0,0,0.1,0.1,0.1,0.2c0,0.2-0.1,0.7-0.1,1.7c0.6-0.7,1.6-1.6,2.6-1.6c0.6,0,1.2,0.3,1.2,1c0,0.5-0.4,0.9-0.9,0.9
		c-0.7,0-0.9-0.7-1.4-0.7c-0.3,0-0.8,0.3-1.3,0.8c-0.1,0.1-0.1,0.3-0.1,0.5v4.1c0,0.7,0,1.1,0.9,1.1c0.7,0,0.7,0,0.7,0.2
		c0,0.2-0.1,0.3-0.3,0.3c-0.7,0-1.2,0-2.1,0c-1.5,0-1.8,0-2.1,0c-0.1,0-0.2-0.1-0.2-0.2c0-0.2,0.2-0.2,0.6-0.2
		c0.8,0,0.9-0.1,0.9-0.9V8.6z"/>
	<path fill="#231F20" d="M59.5,12.4c0,0.9-0.5,2.5-3,2.5c-0.3,0-1.4-0.1-2.1-0.1c0,0-0.1-0.1-0.1-0.1c0-0.2-0.4-1.8-0.4-2
		c0-0.1,0.3-0.1,0.3-0.1c0.4,0,0.5,1.8,2.3,1.8c1.3,0,1.7-1,1.7-1.6c0-1.9-4.1-1.3-4.1-3.9c0-1.5,1.2-2.5,2.8-2.5
		c0.8,0,1.9,0.1,2,0.2c0.2,0.1,0.3,0.4,0.3,0.5c0,0.7,0.2,1.2,0.2,1.5c0,0.1-0.1,0.1-0.2,0.1c-0.2,0-0.3,0-0.4-0.3
		c-0.1-0.3-0.6-1.6-1.9-1.6c-0.9,0-1.5,0.5-1.5,1.4c0,0.6,0.5,1,0.9,1.2C58.2,10.4,59.5,10.3,59.5,12.4z"/>
	<path fill="#231F20" d="M63.5,12.9c0,1,0,1.3,0.8,1.3c0.4,0,0.4,0,0.4,0.2c0,0.1,0,0.2-0.2,0.2c-0.1,0-0.3,0-1.5,0
		c-1.7,0-2.2,0-2.5,0c-0.1,0-0.1-0.1-0.1-0.2c0-0.2,0-0.3,0.7-0.3c0.5,0,0.6-0.2,0.7-0.4c0.1-0.2,0.1-1.5,0.1-2.6V8.6
		c0-0.6-0.2-1-1.1-1.1c-0.1,0-0.2-0.1-0.2-0.2c0-0.1,0.1-0.2,0.1-0.3c2.1-0.4,2.3-0.9,2.6-0.9c0.1,0,0.1,0.1,0.1,0.2
		c0,0.1-0.1,0.3-0.1,2.6V12.9z M61.8,2.7c0-0.5,0.4-1,0.9-1c0.5,0,0.9,0.5,0.9,1c0,0.5-0.4,1-0.9,1C62.2,3.6,61.8,3.2,61.8,2.7z"/>
	<path fill="#231F20" d="M67.9,11.4c0,1.9,0.2,2.6,1.6,2.6c0.6,0,1.2-0.4,1.2-0.4c0.1,0,0.2,0.2,0.2,0.3c0,0.1-0.8,1-2.4,1
		c-2.1,0-2.1-1.8-2.1-2.3V7.8c0-0.1-0.1-0.2-0.2-0.2h-0.9c-0.1,0-0.1-0.1-0.1-0.2c0-0.1,0-0.2,0.1-0.3c1.7-1.3,2-2.2,2.4-2.2
		c0.1,0,0.2,0.1,0.2,0.2c0,0.3-0.1,0.6-0.1,1.7h2.8c0.1,0,0.2,0.1,0.2,0.4c0,0.2-0.1,0.5-0.5,0.5c-0.1,0-1-0.1-2.5-0.1V11.4z"/>
	<path fill="#231F20" d="M78.9,7.8c0-0.6-0.9-0.6-1.4-0.6c-0.2,0-0.2-0.1-0.2-0.2c0-0.1,0.1-0.2,0.2-0.2c0.6,0,1.2,0,1.8,0
		c0.6,0,1.1,0,1.7,0c0.1,0,0.1,0.2,0.1,0.2c0,0.2-0.1,0.2-0.3,0.2c-0.6,0.1-0.9,0.2-1.1,0.8c-0.7,1.5-3.2,6.8-3.6,7.8
		c-1.4,3.5-2,3.8-2.6,3.8c-0.6,0-1-0.5-1-1.1c0-0.5,0.5-1,1.1-1c0.5,0,0.7,0.3,0.9,0.3c0.3,0,1.2-1.8,1.2-2.6c0-0.5-0.4-1.5-0.6-2
		c-1.1-3-1.5-4.5-1.9-5.6c-0.2-0.4-1.1-0.4-1.3-0.4c-0.1,0-0.2-0.1-0.2-0.3c0-0.1,0.1-0.2,0.2-0.2c0.2,0,1.4,0,2,0
		c0.6,0,1.3,0,1.8,0c0.2,0,0.2,0.1,0.2,0.2c0,0.1-0.1,0.2-0.2,0.2c-0.1,0-0.9,0-0.9,0.4c0,0.9,0.6,2.7,1.8,5.7
		C77.4,11.6,78.9,8.4,78.9,7.8z"/>
	<path fill="#231F20" d="M90.3,14.9c-2.5,0-4.2-1.8-4.2-4.2c0-2.4,1.8-4.2,4.2-4.2c2.4,0,4.3,1.8,4.3,4.2
		C94.6,13.2,92.9,14.9,90.3,14.9z M90.3,6.9c-1.9,0-2.5,2-2.5,3.8c0,1.6,0.4,3.8,2.5,3.8c2.2,0,2.5-2.2,2.5-3.8
		C92.8,8.9,92.2,6.9,90.3,6.9z"/>
	<path fill="#231F20" d="M98.7,13.1c0,0.7,0,1.1,0.9,1.1c0.7,0,0.7,0,0.7,0.2c0,0.2-0.1,0.3-0.3,0.3c-0.7,0-1.2,0-2.1,0
		c-1.5,0-1.8,0-1.9,0c-0.1,0-0.2-0.1-0.2-0.2c0-0.2,0-0.2,0.4-0.2c0.8,0,0.9-0.1,0.9-0.9V8.2c0-0.2,0-0.6-0.3-0.6h-1
		c-0.1,0-0.2,0-0.2-0.2c0-0.1,0.1-0.2,0.6-0.3c0.7-0.2,0.9-0.2,0.9-1c0.2-2.8,1-4.3,3.2-4.9c0.3-0.1,0.8-0.1,1.1-0.1
		c0.5,0,1.1,0.2,1.1,0.8c0,0.5-0.3,0.9-0.9,0.9c-0.2,0-0.6-0.1-1-0.4c-0.3-0.3-0.6-0.4-0.8-0.4c-1,0-1.2,1.5-1.2,2.6v2.4h2.3
		c0.1,0,0.2,0.1,0.2,0.4c0,0.2-0.1,0.5-0.5,0.5c-0.1,0-1.5-0.1-2-0.1V13.1z"/>
	<path fill="#231F20" d="M121.4,1.8c0.1-0.1,0.1-0.2,0.2-0.2c0.1,0,1.4,0.1,1.8,0.1c0.3,0,1.9-0.1,2-0.1c0.2,0,0.2,0.1,0.2,0.3
		c0,0.2-0.1,0.2-0.2,0.2c-1.6,0-1.8,0.1-1.8,1c0,1.2,0.2,5,0.4,10.1c0,0.6,0.5,0.9,1,0.9c1,0,1,0.1,1,0.2c0,0.3-0.1,0.3-0.2,0.3
		c-0.2,0-0.4,0-2.9,0c-2.4,0-2.5,0-2.6,0c-0.2,0-0.2-0.1-0.2-0.3c0-0.1,0-0.3,0.9-0.3c1.2,0,1.2-0.3,1.2-1c0-1.1-0.3-7-0.4-10.4h0
		c-1.3,3.4-3,7.3-4.2,10.3c-0.7,1.7-0.7,1.9-0.9,1.9c-0.2,0-0.3-0.2-0.7-1.4c-0.4-1.3-3.4-9.4-3.4-9.4c-0.3,1.3-1.5,7.4-1.5,9.2
		c0,0.6,0.3,0.9,0.9,0.9c0.5,0,1,0,1,0.1c0,0.3,0,0.4-0.2,0.4c-0.1,0-0.3,0-2.2,0c-1.7,0-1.8,0-1.9,0c-0.1,0-0.2,0-0.2-0.3
		c0-0.2,0.1-0.2,1-0.2c0.6,0,0.8-0.2,1-1.3c0.5-2.6,0.9-5.3,1.5-7.9c0.2-0.8,0.2-1.3,0.2-1.7c0-0.1-0.3-0.8-0.5-0.9
		c-0.1-0.1-1-0.1-1.6-0.1c-0.2,0-0.2-0.1-0.2-0.3c0-0.1,0-0.3,0.2-0.3c0.3,0,1.9,0.1,2.1,0.1c0.5,0,1.2-0.1,1.5-0.1
		c0.2,0,0.3,0.2,0.4,0.9c0.4,1.4,3,8.8,3.4,9.4C118.7,8.7,120.1,5.3,121.4,1.8z"/>
	<path fill="#231F20" d="M129.5,12.9c0,1,0,1.3,0.8,1.3c0.4,0,0.4,0,0.4,0.2c0,0.1,0,0.2-0.2,0.2c-0.1,0-0.3,0-1.5,0
		c-1.7,0-2.2,0-2.5,0c-0.1,0-0.1-0.1-0.1-0.2c0-0.2,0-0.3,0.7-0.3c0.5,0,0.6-0.2,0.7-0.4c0.1-0.2,0.1-1.5,0.1-2.6V8.6
		c0-0.6-0.2-1-1.1-1.1c-0.1,0-0.2-0.1-0.2-0.2c0-0.1,0.1-0.2,0.1-0.3c2.1-0.4,2.3-0.9,2.6-0.9c0.1,0,0.1,0.1,0.1,0.2
		c0,0.1-0.1,0.3-0.1,2.6V12.9z M127.8,2.7c0-0.5,0.4-1,0.9-1s0.9,0.5,0.9,1c0,0.5-0.4,1-0.9,1S127.8,3.2,127.8,2.7z"/>
	<path fill="#231F20" d="M137.4,12.4c0,0.9-0.5,2.5-3,2.5c-0.3,0-1.4-0.1-2.1-0.1c0,0-0.1-0.1-0.1-0.1c0-0.2-0.4-1.8-0.4-2
		c0-0.1,0.3-0.1,0.3-0.1c0.4,0,0.5,1.8,2.3,1.8c1.3,0,1.7-1,1.7-1.6c0-1.9-4.1-1.3-4.1-3.9c0-1.5,1.2-2.5,2.8-2.5
		c0.8,0,1.9,0.1,2,0.2C137,6.6,137,7,137,7.1c0,0.7,0.2,1.2,0.2,1.5c0,0.1-0.1,0.1-0.2,0.1c-0.2,0-0.3,0-0.4-0.3
		c-0.1-0.3-0.6-1.6-1.9-1.6c-0.9,0-1.5,0.5-1.5,1.4c0,0.6,0.5,1,0.9,1.2C136,10.4,137.4,10.3,137.4,12.4z"/>
	<path fill="#231F20" d="M144.1,12.4c0,0.9-0.5,2.5-3,2.5c-0.3,0-1.4-0.1-2.1-0.1c0,0-0.1-0.1-0.1-0.1c0-0.2-0.4-1.8-0.4-2
		c0-0.1,0.3-0.1,0.3-0.1c0.4,0,0.5,1.8,2.3,1.8c1.3,0,1.7-1,1.7-1.6c0-1.9-4.1-1.3-4.1-3.9c0-1.5,1.2-2.5,2.8-2.5
		c0.8,0,1.9,0.1,2,0.2c0.2,0.1,0.3,0.4,0.3,0.5c0,0.7,0.2,1.2,0.2,1.5c0,0.1-0.1,0.1-0.2,0.1c-0.2,0-0.3,0-0.4-0.3
		c-0.1-0.3-0.6-1.6-1.9-1.6c-0.9,0-1.5,0.5-1.5,1.4c0,0.6,0.5,1,0.9,1.2C142.8,10.4,144.1,10.3,144.1,12.4z"/>
	<path fill="#231F20" d="M149.7,14.9c-2.5,0-4.2-1.8-4.2-4.2c0-2.4,1.8-4.2,4.2-4.2c2.4,0,4.3,1.8,4.3,4.2
		C153.9,13.2,152.2,14.9,149.7,14.9z M149.7,6.9c-1.9,0-2.5,2-2.5,3.8c0,1.6,0.4,3.8,2.5,3.8c2.2,0,2.5-2.2,2.5-3.8
		C152.2,8.9,151.6,6.9,149.7,6.9z"/>
	<path fill="#231F20" d="M156.2,9c0-1.6-0.2-1.7-1.1-1.7c-0.1,0-0.4,0-0.4-0.2c0-0.1,0-0.4,0.2-0.4c0.2,0,0.5,0.1,1.1,0.1
		c0.6,0,1.3-0.1,1.6-0.1c0.1,0,0.1,0,0.1,0.3v4.9c0,1.4,0.4,2.2,1.8,2.2c0.7,0,1.8-0.4,1.8-1V8.4c0-1-0.2-1.1-1.1-1.1
		c-0.3,0-0.6,0-0.6-0.2c0-0.3,0-0.4,0.1-0.4c0.3,0,0.5,0.1,1.6,0.1c0.5,0,0.9-0.1,1.4-0.1c0.2,0,0.3,0.1,0.3,0.3
		c0,0.1-0.2,1.5-0.2,2.8v3.4c0,0.3,0,0.7,0.5,0.7c0.3,0,0.7-0.1,0.8-0.1c0.1,0,0.1,0,0.1,0.3c0,0.1,0,0.1-0.6,0.2
		c-1.6,0.3-2,0.5-2.1,0.5c-0.1,0-0.2-0.1-0.2-0.3c0-0.2,0-0.5,0.1-0.7c-0.9,0.7-2,1-2.7,1c-1.8,0-2.3-1.2-2.3-3.1V9z"/>
	<path fill="#231F20" d="M166.2,8.6c0-0.6-0.2-1-1.1-1.1c-0.1,0-0.2-0.1-0.2-0.2c0-0.1,0.1-0.2,0.1-0.3c2.1-0.4,2.3-0.9,2.6-0.9
		c0,0,0.1,0.1,0.1,0.2c0,0.2-0.1,0.7-0.1,1.7c0.6-0.7,1.6-1.6,2.6-1.6c0.6,0,1.2,0.3,1.2,1c0,0.5-0.4,0.9-0.9,0.9
		c-0.7,0-0.9-0.7-1.4-0.7c-0.3,0-0.8,0.3-1.3,0.8c-0.1,0.1-0.1,0.3-0.1,0.5v4.1c0,0.7,0,1.1,0.9,1.1c0.7,0,0.7,0,0.7,0.2
		c0,0.2-0.1,0.3-0.3,0.3c-0.7,0-1.2,0-2.1,0c-1.5,0-1.8,0-2.1,0c-0.1,0-0.2-0.1-0.2-0.2c0-0.2,0.2-0.2,0.6-0.2
		c0.8,0,0.9-0.1,0.9-0.9V8.6z"/>
	<path fill="#231F20" d="M174.7,12.9c0,1,0,1.3,0.8,1.3c0.4,0,0.4,0,0.4,0.2c0,0.1,0,0.2-0.2,0.2c-0.1,0-0.3,0-1.5,0
		c-1.7,0-2.2,0-2.5,0c-0.1,0-0.1-0.1-0.1-0.2c0-0.2,0-0.3,0.7-0.3c0.5,0,0.6-0.2,0.7-0.4c0.1-0.2,0.1-1.5,0.1-2.6V8.6
		c0-0.6-0.2-1-1.1-1.1c-0.1,0-0.2-0.1-0.2-0.2c0-0.1,0.1-0.2,0.1-0.3c2.1-0.4,2.3-0.9,2.6-0.9c0.1,0,0.1,0.1,0.1,0.2
		c0,0.1-0.1,0.3-0.1,2.6V12.9z M173,2.7c0-0.5,0.4-1,0.9-1s0.9,0.5,0.9,1c0,0.5-0.4,1-0.9,1S173,3.2,173,2.7z"/>
</g>
<g>
	<path fill="#900000" d="M4,30.3c0,2.4,1,4.6,4.1,4.6c2.1,0,4-1.2,4-5.5v-3.6c0-2.5-0.5-2.5-2.4-2.5c-0.1,0-0.1-0.1-0.1-0.3
		c0-0.2,0.1-0.3,0.1-0.3c0.3,0,1.5,0.1,2.7,0.1c0.6,0,2.1-0.1,2.4-0.1c0.2,0,0.3,0,0.3,0.3c0,0.1,0,0.2-0.2,0.2
		c-1.8,0-2.1,0-2.1,2.2v4.3c0,4.9-3.1,6.2-5.3,6.2c-4.1,0-5.2-2.7-5.2-4.7V27c0-1.3,0-1.7,0-2.6c0-1.1-0.3-1.2-1.9-1.2
		C0,23.2,0,23,0,22.9c0-0.1,0-0.2,0.2-0.2c0.1,0,1.7,0.1,2.9,0.1c1.2,0,2.8-0.1,2.9-0.1c0.1,0,0.2,0.1,0.2,0.2c0,0.2,0,0.3-0.2,0.3
		c-1.6,0-1.9,0.1-1.9,1.2c0,0.8,0,1.3,0,2.6V30.3z"/>
	<path fill="#900000" d="M18,33.9c0,1,0,1.3,0.8,1.3c0.5,0,0.5,0,0.5,0.2c0,0.1,0,0.2-0.2,0.2c-0.1,0-0.3,0-1.6,0
		c-1.7,0-2.2,0-2.5,0c-0.1,0-0.1-0.1-0.1-0.2c0-0.2,0-0.3,0.7-0.3c0.5,0,0.6-0.2,0.7-0.4c0.1-0.2,0.1-1.5,0.1-2.6v-2.5
		c0-0.6-0.2-1-1.1-1.1c-0.1,0-0.2-0.1-0.2-0.2c0-0.1,0.1-0.2,0.1-0.3c2.1-0.4,2.3-0.9,2.6-0.9c0,0,0.1,0.1,0.1,0.2
		c0,0.1,0,0.5,0,1.3c0.9-0.6,1.9-1.3,2.9-1.3c0.6,0,2.4,0.1,2.4,2.7v4.4c0,0.3,0.1,0.7,1.2,0.7c0.2,0,0.2,0.1,0.2,0.2
		c0,0.1,0,0.2-0.3,0.2c-0.5,0-0.9,0-1.8,0c-1.5,0-1.8,0-1.9,0c-0.1,0-0.1-0.1-0.1-0.2c0-0.1,0-0.3,0.3-0.3c0.9,0,1-0.1,1-0.7v-3.3
		c0-1.7-0.1-2.8-2-2.8c-0.7,0-1.7,0.6-1.8,0.8V33.9z"/>
	<path fill="#900000" d="M28.3,33.9c0,1,0,1.3,0.8,1.3c0.4,0,0.4,0,0.4,0.2c0,0.1,0,0.2-0.2,0.2c-0.1,0-0.3,0-1.5,0
		c-1.7,0-2.2,0-2.5,0c-0.1,0-0.1-0.1-0.1-0.2c0-0.2,0-0.3,0.7-0.3c0.5,0,0.6-0.2,0.7-0.4c0.1-0.2,0.1-1.5,0.1-2.6v-2.5
		c0-0.6-0.2-1-1.1-1.1c-0.1,0-0.2-0.1-0.2-0.2c0-0.1,0.1-0.2,0.1-0.3c2.1-0.4,2.3-0.9,2.6-0.9c0.1,0,0.1,0.1,0.1,0.2
		c0,0.1-0.1,0.3-0.1,2.6V33.9z M26.6,23.7c0-0.5,0.4-1,0.9-1c0.5,0,0.9,0.5,0.9,1c0,0.5-0.4,1-0.9,1C27,24.6,26.6,24.2,26.6,23.7z"
		/>
	<path fill="#900000" d="M36.6,28.7c0-0.5-0.9-0.5-1.2-0.5c-0.1,0-0.2-0.1-0.2-0.3c0-0.1,0.1-0.2,0.2-0.2c0.5,0,1.1,0,1.6,0
		c0.5,0,1.1,0,1.6,0c0.1,0,0.2,0.1,0.2,0.2c0,0.1,0,0.2-0.2,0.2c-1.1,0.2-1.1,0.2-1.7,1.7c-0.6,1.6-1.7,3.9-2.1,4.6
		c-0.5,1.2-0.7,1.4-0.8,1.4c-0.2,0-0.3-0.4-0.7-1.2c-0.6-1.4-2.2-5.8-2.4-6.2c-0.2-0.3-0.4-0.3-0.6-0.3c-0.5,0-0.6-0.1-0.6-0.3
		c0-0.1,0.1-0.2,0.2-0.2c0.6,0,1.1,0,1.7,0c0.4,0,1.8,0,2.2,0c0.1,0,0.1,0.2,0.1,0.3c0,0.1-0.1,0.2-0.2,0.2c-0.5,0-1.1,0.1-1.1,0.4
		c0,0.6,1.5,4.3,1.9,5.1C36.3,29.9,36.6,29.2,36.6,28.7z"/>
	<path fill="#900000" d="M40.2,30.7c-0.1,0.3-0.1,0.7-0.1,1c0,1.2,1,3,3,3c0.8,0,1.6-0.3,2.1-1.1c0.1-0.1,0.2-0.3,0.3-0.3
		c0.1,0,0.3,0.2,0.3,0.2c0,0.1-0.7,2.3-3.1,2.3c-2.6,0-4-1.6-4-4.2c0-2.6,1.8-4.4,3.6-4.4c3,0,3.3,2.6,3.3,3.2
		c0,0.2-0.1,0.2-0.2,0.2H40.2z M43.3,30.2c0.4,0,0.6-0.1,0.6-0.6c0-1.4-1-1.7-1.6-1.7c-1.3,0-1.9,1.1-2,2.3H43.3z"/>
	<path fill="#900000" d="M48.2,29.6c0-0.6-0.2-1-1.1-1.1c-0.1,0-0.2-0.1-0.2-0.2c0-0.1,0.1-0.2,0.1-0.3c2.1-0.4,2.3-0.9,2.6-0.9
		c0,0,0.1,0.1,0.1,0.2c0,0.2-0.1,0.7-0.1,1.7c0.6-0.7,1.6-1.6,2.6-1.6c0.6,0,1.2,0.3,1.2,1c0,0.5-0.4,0.9-0.9,0.9
		c-0.7,0-0.9-0.7-1.4-0.7c-0.3,0-0.8,0.3-1.3,0.8c-0.1,0.1-0.1,0.3-0.1,0.5v4.1c0,0.7,0,1.1,0.9,1.1c0.7,0,0.7,0,0.7,0.2
		c0,0.2-0.1,0.3-0.3,0.3c-0.7,0-1.2,0-2.1,0c-1.5,0-1.8,0-2.1,0c-0.1,0-0.2-0.1-0.2-0.2c0-0.2,0.2-0.2,0.6-0.2
		c0.8,0,0.9-0.1,0.9-0.9V29.6z"/>
	<path fill="#900000" d="M59.5,33.4c0,0.9-0.5,2.5-3,2.5c-0.3,0-1.4-0.1-2.1-0.1c0,0-0.1-0.1-0.1-0.1c0-0.2-0.4-1.8-0.4-2
		c0-0.1,0.3-0.1,0.3-0.1c0.4,0,0.5,1.8,2.3,1.8c1.3,0,1.7-1,1.7-1.6c0-1.9-4.1-1.3-4.1-3.9c0-1.5,1.2-2.5,2.8-2.5
		c0.8,0,1.9,0.1,2,0.2c0.2,0.1,0.3,0.4,0.3,0.5c0,0.7,0.2,1.2,0.2,1.5c0,0.1-0.1,0.1-0.2,0.1c-0.2,0-0.3,0-0.4-0.3
		c-0.1-0.3-0.6-1.6-1.9-1.6c-0.9,0-1.5,0.5-1.5,1.4c0,0.6,0.5,1,0.9,1.2C58.2,31.4,59.5,31.3,59.5,33.4z"/>
	<path fill="#900000" d="M63.5,33.9c0,1,0,1.3,0.8,1.3c0.4,0,0.4,0,0.4,0.2c0,0.1,0,0.2-0.2,0.2c-0.1,0-0.3,0-1.5,0
		c-1.7,0-2.2,0-2.5,0c-0.1,0-0.1-0.1-0.1-0.2c0-0.2,0-0.3,0.7-0.3c0.5,0,0.6-0.2,0.7-0.4c0.1-0.2,0.1-1.5,0.1-2.6v-2.5
		c0-0.6-0.2-1-1.1-1.1c-0.1,0-0.2-0.1-0.2-0.2c0-0.1,0.1-0.2,0.1-0.3c2.1-0.4,2.3-0.9,2.6-0.9c0.1,0,0.1,0.1,0.1,0.2
		c0,0.1-0.1,0.3-0.1,2.6V33.9z M61.8,23.7c0-0.5,0.4-1,0.9-1c0.5,0,0.9,0.5,0.9,1c0,0.5-0.4,1-0.9,1C62.2,24.6,61.8,24.2,61.8,23.7z
		"/>
	<path fill="#900000" d="M67.9,32.4c0,1.9,0.2,2.6,1.6,2.6c0.6,0,1.2-0.4,1.2-0.4c0.1,0,0.2,0.2,0.2,0.3c0,0.1-0.8,1-2.4,1
		c-2.1,0-2.1-1.8-2.1-2.3v-4.8c0-0.1-0.1-0.2-0.2-0.2h-0.9c-0.1,0-0.1-0.1-0.1-0.2c0-0.1,0-0.2,0.1-0.3c1.7-1.3,2-2.2,2.4-2.2
		c0.1,0,0.2,0.1,0.2,0.2c0,0.3-0.1,0.6-0.1,1.7h2.8c0.1,0,0.2,0.1,0.2,0.4c0,0.2-0.1,0.5-0.5,0.5c-0.1,0-1-0.1-2.5-0.1V32.4z"/>
	<path fill="#900000" d="M78.9,28.8c0-0.6-0.9-0.6-1.4-0.6c-0.2,0-0.2-0.1-0.2-0.2c0-0.1,0.1-0.2,0.2-0.2c0.6,0,1.2,0,1.8,0
		c0.6,0,1.1,0,1.7,0c0.1,0,0.1,0.2,0.1,0.2c0,0.2-0.1,0.2-0.3,0.2c-0.6,0.1-0.9,0.2-1.1,0.8c-0.7,1.5-3.2,6.8-3.6,7.8
		c-1.4,3.5-2,3.8-2.6,3.8c-0.6,0-1-0.5-1-1.1c0-0.5,0.5-1,1.1-1c0.5,0,0.7,0.3,0.9,0.3c0.3,0,1.2-1.8,1.2-2.6c0-0.5-0.4-1.5-0.6-2
		c-1.1-3-1.5-4.5-1.9-5.6c-0.2-0.4-1.1-0.4-1.3-0.4c-0.1,0-0.2-0.1-0.2-0.3c0-0.1,0.1-0.2,0.2-0.2c0.2,0,1.4,0,2,0
		c0.6,0,1.3,0,1.8,0c0.2,0,0.2,0.1,0.2,0.2c0,0.1-0.1,0.2-0.2,0.2c-0.1,0-0.9,0-0.9,0.4c0,0.9,0.6,2.7,1.8,5.7
		C77.4,32.6,78.9,29.4,78.9,28.8z"/>
	<path fill="#900000" d="M90.3,35.9c-2.5,0-4.2-1.8-4.2-4.2c0-2.4,1.8-4.2,4.2-4.2c2.4,0,4.3,1.8,4.3,4.2
		C94.6,34.2,92.9,35.9,90.3,35.9z M90.3,27.9c-1.9,0-2.5,2-2.5,3.8c0,1.6,0.4,3.8,2.5,3.8c2.2,0,2.5-2.2,2.5-3.8
		C92.8,29.9,92.2,27.9,90.3,27.9z"/>
	<path fill="#900000" d="M98.7,34.1c0,0.7,0,1.1,0.9,1.1c0.7,0,0.7,0,0.7,0.2c0,0.2-0.1,0.3-0.3,0.3c-0.7,0-1.2,0-2.1,0
		c-1.5,0-1.8,0-1.9,0c-0.1,0-0.2-0.1-0.2-0.2c0-0.2,0-0.2,0.4-0.2c0.8,0,0.9-0.1,0.9-0.9v-5.1c0-0.2,0-0.6-0.3-0.6h-1
		c-0.1,0-0.2,0-0.2-0.2c0-0.1,0.1-0.2,0.6-0.3c0.7-0.2,0.9-0.2,0.9-1c0.2-2.8,1-4.3,3.2-4.9c0.3-0.1,0.8-0.1,1.1-0.1
		c0.5,0,1.1,0.2,1.1,0.8c0,0.5-0.3,0.9-0.9,0.9c-0.2,0-0.6-0.1-1-0.4c-0.3-0.3-0.6-0.4-0.8-0.4c-1,0-1.2,1.5-1.2,2.6v2.4h2.3
		c0.1,0,0.2,0.1,0.2,0.4c0,0.2-0.1,0.5-0.5,0.5c-0.1,0-1.5-0.1-2-0.1V34.1z"/>
	<path fill="#900000" d="M121.4,22.8c0.1-0.1,0.1-0.2,0.2-0.2c0.1,0,1.4,0.1,1.8,0.1c0.3,0,1.9-0.1,2-0.1c0.2,0,0.2,0.1,0.2,0.3
		c0,0.2-0.1,0.2-0.2,0.2c-1.6,0-1.8,0.1-1.8,1c0,1.2,0.2,5,0.4,10.1c0,0.6,0.5,0.9,1,0.9c1,0,1,0.1,1,0.2c0,0.3-0.1,0.3-0.2,0.3
		c-0.2,0-0.4,0-2.9,0c-2.4,0-2.5,0-2.6,0c-0.2,0-0.2-0.1-0.2-0.3c0-0.1,0-0.3,0.9-0.3c1.2,0,1.2-0.3,1.2-1c0-1.1-0.3-7-0.4-10.4h0
		c-1.3,3.4-3,7.3-4.2,10.3c-0.7,1.7-0.7,1.9-0.9,1.9c-0.2,0-0.3-0.2-0.7-1.4c-0.4-1.3-3.4-9.4-3.4-9.4c-0.3,1.3-1.5,7.4-1.5,9.2
		c0,0.6,0.3,0.9,0.9,0.9c0.5,0,1,0,1,0.1c0,0.3,0,0.4-0.2,0.4c-0.1,0-0.3,0-2.2,0c-1.7,0-1.8,0-1.9,0c-0.1,0-0.2,0-0.2-0.3
		c0-0.2,0.1-0.2,1-0.2c0.6,0,0.8-0.2,1-1.3c0.5-2.6,0.9-5.3,1.5-7.9c0.2-0.8,0.2-1.3,0.2-1.7c0-0.1-0.3-0.8-0.5-0.9
		c-0.1-0.1-1-0.1-1.6-0.1c-0.2,0-0.2-0.1-0.2-0.3c0-0.1,0-0.3,0.2-0.3c0.3,0,1.9,0.1,2.1,0.1c0.5,0,1.2-0.1,1.5-0.1
		c0.2,0,0.3,0.2,0.4,0.9c0.4,1.4,3,8.8,3.4,9.4C118.7,29.7,120.1,26.3,121.4,22.8z"/>
	<path fill="#900000" d="M129.5,33.9c0,1,0,1.3,0.8,1.3c0.4,0,0.4,0,0.4,0.2c0,0.1,0,0.2-0.2,0.2c-0.1,0-0.3,0-1.5,0
		c-1.7,0-2.2,0-2.5,0c-0.1,0-0.1-0.1-0.1-0.2c0-0.2,0-0.3,0.7-0.3c0.5,0,0.6-0.2,0.7-0.4c0.1-0.2,0.1-1.5,0.1-2.6v-2.5
		c0-0.6-0.2-1-1.1-1.1c-0.1,0-0.2-0.1-0.2-0.2c0-0.1,0.1-0.2,0.1-0.3c2.1-0.4,2.3-0.9,2.6-0.9c0.1,0,0.1,0.1,0.1,0.2
		c0,0.1-0.1,0.3-0.1,2.6V33.9z M127.8,23.7c0-0.5,0.4-1,0.9-1s0.9,0.5,0.9,1c0,0.5-0.4,1-0.9,1S127.8,24.2,127.8,23.7z"/>
	<path fill="#900000" d="M137.4,33.4c0,0.9-0.5,2.5-3,2.5c-0.3,0-1.4-0.1-2.1-0.1c0,0-0.1-0.1-0.1-0.1c0-0.2-0.4-1.8-0.4-2
		c0-0.1,0.3-0.1,0.3-0.1c0.4,0,0.5,1.8,2.3,1.8c1.3,0,1.7-1,1.7-1.6c0-1.9-4.1-1.3-4.1-3.9c0-1.5,1.2-2.5,2.8-2.5
		c0.8,0,1.9,0.1,2,0.2c0.2,0.1,0.3,0.4,0.3,0.5c0,0.7,0.2,1.2,0.2,1.5c0,0.1-0.1,0.1-0.2,0.1c-0.2,0-0.3,0-0.4-0.3
		c-0.1-0.3-0.6-1.6-1.9-1.6c-0.9,0-1.5,0.5-1.5,1.4c0,0.6,0.5,1,0.9,1.2C136,31.4,137.4,31.3,137.4,33.4z"/>
	<path fill="#900000" d="M144.1,33.4c0,0.9-0.5,2.5-3,2.5c-0.3,0-1.4-0.1-2.1-0.1c0,0-0.1-0.1-0.1-0.1c0-0.2-0.4-1.8-0.4-2
		c0-0.1,0.3-0.1,0.3-0.1c0.4,0,0.5,1.8,2.3,1.8c1.3,0,1.7-1,1.7-1.6c0-1.9-4.1-1.3-4.1-3.9c0-1.5,1.2-2.5,2.8-2.5
		c0.8,0,1.9,0.1,2,0.2c0.2,0.1,0.3,0.4,0.3,0.5c0,0.7,0.2,1.2,0.2,1.5c0,0.1-0.1,0.1-0.2,0.1c-0.2,0-0.3,0-0.4-0.3
		c-0.1-0.3-0.6-1.6-1.9-1.6c-0.9,0-1.5,0.5-1.5,1.4c0,0.6,0.5,1,0.9,1.2C142.8,31.4,144.1,31.3,144.1,33.4z"/>
	<path fill="#900000" d="M149.7,35.9c-2.5,0-4.2-1.8-4.2-4.2c0-2.4,1.8-4.2,4.2-4.2c2.4,0,4.3,1.8,4.3,4.2
		C153.9,34.2,152.2,35.9,149.7,35.9z M149.7,27.9c-1.9,0-2.5,2-2.5,3.8c0,1.6,0.4,3.8,2.5,3.8c2.2,0,2.5-2.2,2.5-3.8
		C152.2,29.9,151.6,27.9,149.7,27.9z"/>
	<path fill="#900000" d="M156.2,30c0-1.6-0.2-1.7-1.1-1.7c-0.1,0-0.4,0-0.4-0.2c0-0.1,0-0.4,0.2-0.4c0.2,0,0.5,0.1,1.1,0.1
		c0.6,0,1.3-0.1,1.6-0.1c0.1,0,0.1,0,0.1,0.3v4.9c0,1.4,0.4,2.2,1.8,2.2c0.7,0,1.8-0.4,1.8-1v-4.7c0-1-0.2-1.1-1.1-1.1
		c-0.3,0-0.6,0-0.6-0.2c0-0.3,0-0.4,0.1-0.4c0.3,0,0.5,0.1,1.6,0.1c0.5,0,0.9-0.1,1.4-0.1c0.2,0,0.3,0.1,0.3,0.3
		c0,0.1-0.2,1.5-0.2,2.8v3.4c0,0.3,0,0.7,0.5,0.7c0.3,0,0.7-0.1,0.8-0.1c0.1,0,0.1,0,0.1,0.3c0,0.1,0,0.1-0.6,0.2
		c-1.6,0.3-2,0.5-2.1,0.5c-0.1,0-0.2-0.1-0.2-0.3c0-0.2,0-0.5,0.1-0.7c-0.9,0.7-2,1-2.7,1c-1.8,0-2.3-1.2-2.3-3.1V30z"/>
	<path fill="#900000" d="M166.2,29.6c0-0.6-0.2-1-1.1-1.1c-0.1,0-0.2-0.1-0.2-0.2c0-0.1,0.1-0.2,0.1-0.3c2.1-0.4,2.3-0.9,2.6-0.9
		c0,0,0.1,0.1,0.1,0.2c0,0.2-0.1,0.7-0.1,1.7c0.6-0.7,1.6-1.6,2.6-1.6c0.6,0,1.2,0.3,1.2,1c0,0.5-0.4,0.9-0.9,0.9
		c-0.7,0-0.9-0.7-1.4-0.7c-0.3,0-0.8,0.3-1.3,0.8c-0.1,0.1-0.1,0.3-0.1,0.5v4.1c0,0.7,0,1.1,0.9,1.1c0.7,0,0.7,0,0.7,0.2
		c0,0.2-0.1,0.3-0.3,0.3c-0.7,0-1.2,0-2.1,0c-1.5,0-1.8,0-2.1,0c-0.1,0-0.2-0.1-0.2-0.2c0-0.2,0.2-0.2,0.6-0.2
		c0.8,0,0.9-0.1,0.9-0.9V29.6z"/>
	<path fill="#900000" d="M174.7,33.9c0,1,0,1.3,0.8,1.3c0.4,0,0.4,0,0.4,0.2c0,0.1,0,0.2-0.2,0.2c-0.1,0-0.3,0-1.5,0
		c-1.7,0-2.2,0-2.5,0c-0.1,0-0.1-0.1-0.1-0.2c0-0.2,0-0.3,0.7-0.3c0.5,0,0.6-0.2,0.7-0.4c0.1-0.2,0.1-1.5,0.1-2.6v-2.5
		c0-0.6-0.2-1-1.1-1.1c-0.1,0-0.2-0.1-0.2-0.2c0-0.1,0.1-0.2,0.1-0.3c2.1-0.4,2.3-0.9,2.6-0.9c0.1,0,0.1,0.1,0.1,0.2
		c0,0.1-0.1,0.3-0.1,2.6V33.9z M173,23.7c0-0.5,0.4-1,0.9-1s0.9,0.5,0.9,1c0,0.5-0.4,1-0.9,1S173,24.2,173,23.7z"/>
</g>
<g>
</g>
<g>
</g>
<g>
</g>
<g>
</g>
<g>
</g>
<g>
</g>
<g>
</g>
<g>
</g>
<g>
</g>
<g>
</g>
<g>
</g>
<g>
</g>
<g>
</g>
<g>
</g>
<g>
</g>
</svg>
