<?xml version="1.0" encoding="utf-8"?>
<!-- Generator: Adobe Illustrator 18.1.0, SVG Export Plug-In . SVG Version: 6.00 Build 0)  -->
<!DOCTYPE svg PUBLIC "-//W3C//DTD SVG 1.0//EN" "http://www.w3.org/TR/2001/REC-SVG-20010904/DTD/svg10.dtd">
<svg version="1.0" id="Layer_1" xmlns="http://www.w3.org/2000/svg" xmlns:xlink="http://www.w3.org/1999/xlink" x="0px" y="0px"
	 width="229px" height="54px" viewBox="0 0 229 54" enable-background="new 0 0 229 54" xml:space="preserve">
<g>
	<path d="M5.7,12.9c0,3.2,1.3,6,5.4,6c2.8,0,5.2-1.6,5.2-7.3V6.9c0-3.3-0.7-3.3-3.2-3.3c-0.2,0-0.2-0.1-0.2-0.4
		c0-0.3,0.1-0.4,0.2-0.4c0.4,0,2,0.1,3.5,0.1c0.7,0,2.8-0.1,3.1-0.1c0.2,0,0.3,0,0.3,0.4c0,0.1,0,0.3-0.2,0.3c-2.3,0-2.8,0-2.8,2.8
		V12c0,6.5-4.1,8.2-6.9,8.2c-5.4,0-6.9-3.6-6.9-6.2V8.5c0-1.7,0-2.3,0-3.4c0-1.4-0.4-1.6-2.5-1.6c-0.3,0-0.3-0.2-0.3-0.4
		c0-0.1,0-0.3,0.2-0.3c0.2,0,2.3,0.1,3.8,0.1c1.5,0,3.6-0.1,3.8-0.1c0.2,0,0.2,0.2,0.2,0.3c0,0.2,0,0.4-0.3,0.4
		c-2.1,0-2.5,0.2-2.5,1.6c0,1.1,0,1.7,0,3.4V12.9z"/>
	<path d="M24.2,17.7c0,1.4,0,1.7,1.1,1.7c0.6,0,0.7,0,0.7,0.3c0,0.1,0,0.3-0.2,0.3c-0.1,0-0.4,0-2.1,0c-2.3,0-2.9,0-3.2,0
		c-0.2,0-0.2-0.1-0.2-0.3c0-0.3,0-0.4,0.9-0.4c0.6,0,0.8-0.2,1-0.6c0.1-0.2,0.1-1.9,0.1-3.5V12c0-0.8-0.2-1.3-1.4-1.4
		c-0.2,0-0.2-0.1-0.2-0.3c0-0.2,0.1-0.3,0.2-0.3c2.7-0.6,3.1-1.2,3.4-1.2c0,0,0.1,0.1,0.1,0.3c0,0.1,0,0.7,0,1.7
		c1.2-0.8,2.5-1.7,3.8-1.7c0.8,0,3.2,0.2,3.2,3.6v5.8c0,0.4,0.1,0.9,1.6,0.9c0.2,0,0.2,0.1,0.2,0.3c0,0.1,0,0.3-0.3,0.3
		c-0.7,0-1.2,0-2.4,0c-1.9,0-2.3,0-2.5,0c-0.1,0-0.2-0.2-0.2-0.3c0-0.1,0-0.3,0.3-0.3c1.2,0,1.4-0.1,1.4-0.9v-4.3
		c0-2.2-0.2-3.7-2.7-3.7c-0.9,0-2.2,0.8-2.3,1.1V17.7z"/>
	<path d="M37.6,17.7c0,1.4,0,1.7,1.1,1.7c0.5,0,0.6,0,0.6,0.3c0,0.1,0,0.3-0.2,0.3c-0.1,0-0.4,0-2,0c-2.3,0-2.9,0-3.2,0
		c-0.2,0-0.2-0.1-0.2-0.3c0-0.3,0-0.4,0.9-0.4c0.6,0,0.8-0.2,1-0.6c0.1-0.2,0.1-1.9,0.1-3.5V12c0-0.8-0.2-1.3-1.4-1.4
		c-0.2,0-0.2-0.1-0.2-0.3c0-0.2,0.1-0.3,0.2-0.3c2.7-0.6,3.1-1.2,3.4-1.2c0.1,0,0.1,0.1,0.1,0.3c0,0.1-0.1,0.3-0.1,3.5V17.7z
		 M35.4,4.2c0-0.6,0.5-1.3,1.2-1.3c0.7,0,1.2,0.6,1.2,1.3c0,0.6-0.5,1.3-1.2,1.3C35.9,5.4,35.4,4.8,35.4,4.2z"/>
	<path d="M48.6,10.8c0-0.7-1.2-0.7-1.6-0.7c-0.1,0-0.2-0.1-0.2-0.3c0-0.1,0.1-0.3,0.3-0.3c0.6,0,1.4,0,2.1,0c0.7,0,1.4,0,2.1,0
		c0.2,0,0.2,0.2,0.2,0.3c0,0.1,0,0.2-0.2,0.3c-1.4,0.2-1.5,0.3-2.2,2.2c-0.8,2.1-2.3,5.1-2.7,6.1c-0.7,1.6-0.9,1.9-1.1,1.9
		c-0.3,0-0.4-0.5-0.9-1.5c-0.8-1.8-2.8-7.7-3.2-8.1c-0.2-0.4-0.5-0.4-0.8-0.4c-0.6,0-0.7-0.1-0.7-0.4c0-0.2,0.1-0.3,0.3-0.3
		c0.8,0,1.5,0,2.3,0c0.5,0,2.4,0,2.9,0c0.2,0,0.2,0.2,0.2,0.3c0,0.1-0.1,0.3-0.2,0.3c-0.7,0-1.4,0.1-1.4,0.6c0,0.8,1.9,5.6,2.4,6.7
		C48.3,12.4,48.6,11.5,48.6,10.8z"/>
	<path d="M54.1,13.4C54,13.9,54,14.4,54,14.8c0,1.6,1.3,4,3.9,4c1.1,0,2-0.3,2.8-1.4c0.1-0.2,0.2-0.4,0.4-0.4c0.2,0,0.4,0.2,0.4,0.3
		c0,0.1-1,3-4.1,3c-3.4,0-5.2-2.1-5.2-5.5c0-3.4,2.3-5.8,4.8-5.8c4,0,4.3,3.4,4.3,4.2c0,0.2-0.1,0.3-0.3,0.3H54.1z M58.2,12.7
		c0.5,0,0.8-0.1,0.8-0.8c0-1.9-1.3-2.3-2.1-2.3c-1.7,0-2.4,1.4-2.7,3.1H58.2z"/>
	<path d="M64.6,12c0-0.8-0.2-1.3-1.4-1.4c-0.2,0-0.2-0.1-0.2-0.3c0-0.2,0.1-0.3,0.2-0.3c2.7-0.6,3.1-1.2,3.4-1.2
		c0,0,0.1,0.1,0.1,0.2c0,0.3-0.1,0.9-0.1,2.2c0.8-0.9,2.1-2.1,3.4-2.1c0.8,0,1.5,0.5,1.5,1.3c0,0.6-0.5,1.2-1.2,1.2
		c-1,0-1.1-0.9-1.8-0.9c-0.4,0-1.1,0.4-1.7,1c-0.2,0.2-0.2,0.5-0.2,0.7v5.4c0,0.9,0,1.4,1.2,1.4c0.9,0,1,0,1,0.3
		c0,0.3-0.1,0.3-0.4,0.3c-0.9,0-1.6,0-2.7,0c-1.9,0-2.3,0-2.8,0c-0.2,0-0.2-0.1-0.2-0.3c0-0.2,0.3-0.3,0.7-0.3c1,0,1.2-0.2,1.2-1.2
		V12z"/>
	<path d="M79.6,17c0,1.2-0.6,3.3-3.9,3.3c-0.4,0-1.8-0.2-2.8-0.2c0,0-0.1-0.1-0.1-0.1c0-0.2-0.6-2.4-0.6-2.6c0-0.1,0.3-0.1,0.4-0.1
		c0.6,0,0.7,2.4,3,2.4c1.7,0,2.2-1.3,2.2-2.1c0-2.5-5.4-1.7-5.4-5.1c0-2,1.6-3.3,3.6-3.3c1.1,0,2.5,0.2,2.6,0.2
		c0.3,0.1,0.4,0.5,0.4,0.7c0,1,0.3,1.6,0.3,1.9c0,0.1-0.1,0.2-0.3,0.2c-0.2,0-0.4,0-0.5-0.3c-0.2-0.4-0.8-2-2.5-2
		c-1.1,0-1.9,0.6-1.9,1.8c0,0.8,0.6,1.3,1.1,1.6C77.8,14.4,79.6,14.3,79.6,17z"/>
	<path d="M84.7,17.7c0,1.4,0,1.7,1.1,1.7c0.5,0,0.6,0,0.6,0.3c0,0.1,0,0.3-0.2,0.3c-0.1,0-0.4,0-2,0c-2.3,0-2.9,0-3.2,0
		c-0.2,0-0.2-0.1-0.2-0.3c0-0.3,0-0.4,0.9-0.4c0.6,0,0.8-0.2,1-0.6c0.1-0.2,0.1-1.9,0.1-3.5V12c0-0.8-0.2-1.3-1.4-1.4
		c-0.2,0-0.2-0.1-0.2-0.3c0-0.2,0.1-0.3,0.2-0.3c2.7-0.6,3.1-1.2,3.4-1.2c0.1,0,0.1,0.1,0.1,0.3c0,0.1-0.1,0.3-0.1,3.5V17.7z
		 M82.5,4.2c0-0.6,0.5-1.3,1.2-1.3c0.7,0,1.2,0.6,1.2,1.3c0,0.6-0.5,1.3-1.2,1.3C83,5.4,82.5,4.8,82.5,4.2z"/>
	<path d="M91.2,15.7c0,2.5,0.2,3.5,2.1,3.5c0.8,0,1.5-0.6,1.6-0.6c0.1,0,0.3,0.2,0.3,0.4s-1,1.3-3.2,1.3c-2.8,0-2.8-2.4-2.8-3V11
		c0-0.2-0.1-0.3-0.2-0.3h-1.2c-0.1,0-0.1-0.1-0.1-0.2c0-0.1,0-0.2,0.1-0.3c2.2-1.7,2.7-3,3.2-3c0.1,0,0.3,0.1,0.3,0.3
		c0,0.4-0.1,0.8-0.1,2.2h3.7c0.2,0,0.2,0.2,0.2,0.5c0,0.3-0.1,0.6-0.6,0.6c-0.2,0-1.3-0.1-3.3-0.1V15.7z"/>
	<path d="M104.3,11c0-0.8-1.1-0.8-1.8-0.8c-0.2,0-0.2-0.1-0.2-0.3c0-0.2,0.1-0.3,0.2-0.3c0.8,0,1.6,0,2.3,0c0.7,0,1.5,0,2.2,0
		c0.2,0,0.2,0.2,0.2,0.3c0,0.2-0.1,0.3-0.4,0.3c-0.8,0.1-1.2,0.2-1.5,1.1c-0.9,2-4.2,9-4.7,10.3c-1.8,4.6-2.6,4.9-3.4,4.9
		c-0.8,0-1.3-0.7-1.3-1.4c0-0.7,0.7-1.3,1.4-1.3c0.6,0,0.9,0.4,1.2,0.4c0.4,0,1.6-2.3,1.6-3.4c0-0.6-0.6-2-0.8-2.7
		c-1.5-3.9-2-6-2.5-7.3c-0.2-0.6-1.4-0.6-1.7-0.6c-0.2,0-0.2-0.2-0.2-0.3c0-0.2,0.1-0.3,0.3-0.3c0.3,0,1.8,0,2.7,0
		c0.8,0,1.7,0,2.4,0c0.2,0,0.3,0.1,0.3,0.3c0,0.1-0.1,0.3-0.2,0.3c-0.1,0-1.2,0-1.2,0.5c0,1.2,0.8,3.5,2.4,7.5
		C102.3,15.9,104.3,11.7,104.3,11z"/>
	<path d="M119.3,20.3c-3.3,0-5.6-2.4-5.6-5.6c0-3.2,2.4-5.6,5.6-5.6c3.2,0,5.6,2.3,5.6,5.6C124.9,18,122.7,20.3,119.3,20.3z
		 M119.3,9.7c-2.5,0-3.3,2.6-3.3,4.9c0,2,0.5,4.9,3.3,4.9c2.8,0,3.3-2.9,3.3-4.9C122.6,12.3,121.8,9.7,119.3,9.7z"/>
	<path d="M130.4,17.9c0,0.9,0,1.4,1.2,1.4c0.9,0,1,0,1,0.3c0,0.3-0.1,0.3-0.4,0.3c-0.9,0-1.6,0-2.7,0c-1.9,0-2.3,0-2.5,0
		c-0.2,0-0.2-0.1-0.2-0.3c0-0.2,0-0.3,0.5-0.3c1,0,1.2-0.2,1.2-1.2v-6.7c0-0.3,0-0.8-0.5-0.8h-1.3c-0.2,0-0.3,0-0.3-0.3
		c0-0.2,0.2-0.3,0.7-0.4c0.9-0.2,1.2-0.3,1.2-1.3c0.2-3.6,1.3-5.7,4.2-6.4c0.4-0.1,1-0.2,1.5-0.2c0.6,0,1.5,0.2,1.5,1
		c0,0.7-0.4,1.2-1.1,1.2c-0.2,0-0.7-0.1-1.3-0.6c-0.4-0.3-0.8-0.6-1.1-0.6c-1.4,0-1.6,2-1.6,3.5v3.1h3c0.2,0,0.2,0.2,0.2,0.5
		c0,0.3-0.1,0.6-0.6,0.6c-0.2,0-2-0.1-2.6-0.1V17.9z"/>
	<path d="M156.3,3.1c0.1-0.2,0.1-0.3,0.3-0.3c0.1,0,1.9,0.1,2.4,0.1c0.4,0,2.4-0.1,2.6-0.1c0.2,0,0.3,0.2,0.3,0.4
		c0,0.2-0.1,0.3-0.3,0.3c-2.2,0-2.4,0.2-2.4,1.3c0,1.6,0.3,6.6,0.5,13.3c0,0.8,0.7,1.1,1.3,1.1c1.3,0,1.4,0.1,1.4,0.3
		c0,0.4-0.1,0.4-0.3,0.4c-0.2,0-0.5,0-3.8,0c-3.1,0-3.3,0-3.5,0c-0.3,0-0.3-0.2-0.3-0.4c0-0.2,0-0.3,1.2-0.3c1.6,0,1.6-0.4,1.6-1.3
		c0-1.4-0.4-9.2-0.6-13.7h0c-1.8,4.5-4,9.6-5.5,13.5c-0.9,2.2-0.9,2.5-1.2,2.5c-0.3,0-0.4-0.2-0.9-1.9c-0.5-1.7-4.4-12.3-4.5-12.3
		c-0.4,1.8-2,9.7-2,12.1c0,0.7,0.4,1.1,1.2,1.1c0.6,0,1.3,0,1.3,0.2c0,0.5,0,0.5-0.3,0.5c-0.2,0-0.4,0-2.9,0c-2.2,0-2.4,0-2.5,0
		c-0.2,0-0.3,0-0.3-0.4c0-0.2,0.1-0.3,1.3-0.3c0.8,0,1-0.3,1.3-1.7c0.6-3.5,1.2-6.9,2-10.4c0.2-1.1,0.3-1.8,0.3-2.3
		c0-0.1-0.3-1-0.6-1.2c-0.2-0.1-1.3-0.2-2.1-0.2c-0.3,0-0.3-0.2-0.3-0.4c0-0.2,0-0.4,0.3-0.4c0.5,0,2.5,0.1,2.8,0.1
		c0.6,0,1.6-0.1,1.9-0.1c0.3,0,0.3,0.3,0.6,1.1c0.5,1.8,4,11.5,4.4,12.4C152.7,12.1,154.6,7.7,156.3,3.1z"/>
	<path d="M166.9,17.7c0,1.4,0,1.7,1.1,1.7c0.5,0,0.6,0,0.6,0.3c0,0.1,0,0.3-0.2,0.3c-0.1,0-0.4,0-2,0c-2.3,0-2.9,0-3.2,0
		c-0.2,0-0.2-0.1-0.2-0.3c0-0.3,0-0.4,0.9-0.4c0.6,0,0.8-0.2,1-0.6c0.1-0.2,0.1-1.9,0.1-3.5V12c0-0.8-0.2-1.3-1.4-1.4
		c-0.2,0-0.2-0.1-0.2-0.3c0-0.2,0.1-0.3,0.2-0.3c2.7-0.6,3.1-1.2,3.4-1.2c0.1,0,0.1,0.1,0.1,0.3c0,0.1-0.1,0.3-0.1,3.5V17.7z
		 M164.7,4.2c0-0.6,0.5-1.3,1.2-1.3c0.7,0,1.2,0.6,1.2,1.3c0,0.6-0.5,1.3-1.2,1.3C165.2,5.4,164.7,4.8,164.7,4.2z"/>
	<path d="M177.3,17c0,1.2-0.6,3.3-3.9,3.3c-0.4,0-1.8-0.2-2.8-0.2c0,0-0.1-0.1-0.1-0.1c0-0.2-0.6-2.4-0.6-2.6c0-0.1,0.3-0.1,0.4-0.1
		c0.6,0,0.7,2.4,3,2.4c1.7,0,2.2-1.3,2.2-2.1c0-2.5-5.4-1.7-5.4-5.1c0-2,1.6-3.3,3.6-3.3c1.1,0,2.5,0.2,2.6,0.2
		c0.3,0.1,0.4,0.5,0.4,0.7c0,1,0.3,1.6,0.3,1.9c0,0.1-0.1,0.2-0.3,0.2c-0.2,0-0.4,0-0.5-0.3c-0.2-0.4-0.8-2-2.5-2
		c-1.1,0-1.9,0.6-1.9,1.8c0,0.8,0.6,1.3,1.1,1.6C175.6,14.4,177.3,14.3,177.3,17z"/>
	<path d="M186.2,17c0,1.2-0.6,3.3-3.9,3.3c-0.4,0-1.8-0.2-2.8-0.2c0,0-0.1-0.1-0.1-0.1c0-0.2-0.6-2.4-0.6-2.6c0-0.1,0.3-0.1,0.4-0.1
		c0.6,0,0.7,2.4,3,2.4c1.7,0,2.2-1.3,2.2-2.1c0-2.5-5.4-1.7-5.4-5.1c0-2,1.6-3.3,3.6-3.3c1.1,0,2.5,0.2,2.6,0.2
		c0.3,0.1,0.4,0.5,0.4,0.7c0,1,0.3,1.6,0.3,1.9c0,0.1-0.1,0.2-0.3,0.2c-0.2,0-0.4,0-0.5-0.3c-0.2-0.4-0.8-2-2.5-2
		c-1.1,0-1.9,0.6-1.9,1.8c0,0.8,0.6,1.3,1.1,1.6C184.5,14.4,186.2,14.3,186.2,17z"/>
	<path d="M193.5,20.3c-3.3,0-5.6-2.4-5.6-5.6c0-3.2,2.4-5.6,5.6-5.6c3.2,0,5.6,2.3,5.6,5.6C199.1,18,196.9,20.3,193.5,20.3z
		 M193.5,9.7c-2.5,0-3.3,2.6-3.3,4.9c0,2,0.5,4.9,3.3,4.9c2.8,0,3.3-2.9,3.3-4.9C196.8,12.3,196,9.7,193.5,9.7z"/>
	<path d="M202.1,12.5c0-2.1-0.2-2.3-1.5-2.3c-0.2,0-0.5,0-0.5-0.2c0-0.2,0-0.5,0.3-0.5c0.2,0,0.6,0.1,1.4,0.1c0.8,0,1.8-0.1,2.1-0.1
		c0.1,0,0.2,0,0.2,0.3v6.5c0,1.8,0.6,2.8,2.4,2.8c0.9,0,2.4-0.5,2.4-1.3v-6.2c0-1.3-0.2-1.4-1.5-1.4c-0.4,0-0.8,0-0.8-0.2
		c0-0.4,0-0.5,0.2-0.5c0.3,0,0.6,0.1,2.1,0.1c0.6,0,1.2-0.1,1.8-0.1c0.2,0,0.3,0.1,0.3,0.3c0,0.1-0.2,1.9-0.2,3.6V18
		c0,0.4,0,0.9,0.6,0.9c0.3,0,0.9-0.1,1-0.1c0.1,0,0.1,0,0.1,0.5c0,0.1,0,0.2-0.8,0.3c-2,0.3-2.6,0.6-2.8,0.6c-0.2,0-0.3-0.2-0.3-0.3
		c0-0.3,0-0.7,0.1-0.9c-1.2,0.9-2.7,1.3-3.6,1.3c-2.4,0-3-1.5-3-4V12.5z"/>
	<path d="M215.2,12c0-0.8-0.2-1.3-1.4-1.4c-0.2,0-0.2-0.1-0.2-0.3c0-0.2,0.1-0.3,0.2-0.3c2.7-0.6,3.1-1.2,3.4-1.2
		c0,0,0.1,0.1,0.1,0.2c0,0.3-0.1,0.9-0.1,2.2c0.8-0.9,2.1-2.1,3.4-2.1c0.8,0,1.5,0.5,1.5,1.3c0,0.6-0.5,1.2-1.2,1.2
		c-1,0-1.1-0.9-1.8-0.9c-0.4,0-1.1,0.4-1.7,1c-0.2,0.2-0.2,0.5-0.2,0.7v5.4c0,0.9,0,1.4,1.2,1.4c0.9,0,1,0,1,0.3
		c0,0.3-0.1,0.3-0.4,0.3c-0.9,0-1.6,0-2.7,0c-1.9,0-2.3,0-2.8,0c-0.2,0-0.2-0.1-0.2-0.3c0-0.2,0.3-0.3,0.7-0.3c1,0,1.2-0.2,1.2-1.2
		V12z"/>
	<path d="M226.5,17.7c0,1.4,0,1.7,1.1,1.7c0.5,0,0.6,0,0.6,0.3c0,0.1,0,0.3-0.2,0.3c-0.1,0-0.4,0-2,0c-2.3,0-2.9,0-3.2,0
		c-0.2,0-0.2-0.1-0.2-0.3c0-0.3,0-0.4,0.9-0.4c0.6,0,0.8-0.2,1-0.6c0.1-0.2,0.1-1.9,0.1-3.5V12c0-0.8-0.2-1.3-1.4-1.4
		c-0.2,0-0.2-0.1-0.2-0.3c0-0.2,0.1-0.3,0.2-0.3c2.7-0.6,3.1-1.2,3.4-1.2c0.1,0,0.1,0.1,0.1,0.3c0,0.1-0.1,0.3-0.1,3.5V17.7z
		 M224.3,4.2c0-0.6,0.5-1.3,1.2-1.3c0.7,0,1.2,0.6,1.2,1.3c0,0.6-0.5,1.3-1.2,1.3C224.8,5.4,224.3,4.8,224.3,4.2z"/>
</g>
<g>
	<path fill="#900000" d="M5.7,39.9c0,3.2,1.3,6,5.4,6c2.8,0,5.2-1.6,5.2-7.3v-4.8c0-3.3-0.7-3.3-3.2-3.3c-0.2,0-0.2-0.1-0.2-0.4
		c0-0.3,0.1-0.4,0.2-0.4c0.4,0,2,0.1,3.5,0.1c0.7,0,2.8-0.1,3.1-0.1c0.2,0,0.3,0,0.3,0.4c0,0.1,0,0.3-0.2,0.3c-2.3,0-2.8,0-2.8,2.8
		V39c0,6.5-4.1,8.2-6.9,8.2c-5.4,0-6.9-3.6-6.9-6.2v-5.5c0-1.7,0-2.3,0-3.4c0-1.4-0.4-1.6-2.5-1.6c-0.3,0-0.3-0.2-0.3-0.4
		c0-0.1,0-0.3,0.2-0.3c0.2,0,2.3,0.1,3.8,0.1c1.5,0,3.6-0.1,3.8-0.1c0.2,0,0.2,0.2,0.2,0.3c0,0.2,0,0.4-0.3,0.4
		c-2.1,0-2.5,0.2-2.5,1.6c0,1.1,0,1.7,0,3.4V39.9z"/>
	<path fill="#900000" d="M24.2,44.7c0,1.4,0,1.7,1.1,1.7c0.6,0,0.7,0,0.7,0.3c0,0.1,0,0.3-0.2,0.3c-0.1,0-0.4,0-2.1,0
		c-2.3,0-2.9,0-3.2,0c-0.2,0-0.2-0.1-0.2-0.3c0-0.3,0-0.4,0.9-0.4c0.6,0,0.8-0.2,1-0.6c0.1-0.2,0.1-1.9,0.1-3.5V39
		c0-0.8-0.2-1.3-1.4-1.4c-0.2,0-0.2-0.1-0.2-0.3c0-0.2,0.1-0.3,0.2-0.3c2.7-0.6,3.1-1.2,3.4-1.2c0,0,0.1,0.1,0.1,0.3
		c0,0.1,0,0.7,0,1.7c1.2-0.8,2.5-1.7,3.8-1.7c0.8,0,3.2,0.2,3.2,3.6v5.8c0,0.4,0.1,0.9,1.6,0.9c0.2,0,0.2,0.1,0.2,0.3
		c0,0.1,0,0.3-0.3,0.3c-0.7,0-1.2,0-2.4,0c-1.9,0-2.3,0-2.5,0c-0.1,0-0.2-0.2-0.2-0.3c0-0.1,0-0.3,0.3-0.3c1.2,0,1.4-0.1,1.4-0.9
		v-4.3c0-2.2-0.2-3.7-2.7-3.7c-0.9,0-2.2,0.8-2.3,1.1V44.7z"/>
	<path fill="#900000" d="M37.6,44.7c0,1.4,0,1.7,1.1,1.7c0.5,0,0.6,0,0.6,0.3c0,0.1,0,0.3-0.2,0.3c-0.1,0-0.4,0-2,0
		c-2.3,0-2.9,0-3.2,0c-0.2,0-0.2-0.1-0.2-0.3c0-0.3,0-0.4,0.9-0.4c0.6,0,0.8-0.2,1-0.6c0.1-0.2,0.1-1.9,0.1-3.5V39
		c0-0.8-0.2-1.3-1.4-1.4c-0.2,0-0.2-0.1-0.2-0.3c0-0.2,0.1-0.3,0.2-0.3c2.7-0.6,3.1-1.2,3.4-1.2c0.1,0,0.1,0.1,0.1,0.3
		c0,0.1-0.1,0.3-0.1,3.5V44.7z M35.4,31.2c0-0.6,0.5-1.3,1.2-1.3c0.7,0,1.2,0.6,1.2,1.3c0,0.6-0.5,1.3-1.2,1.3
		C35.9,32.4,35.4,31.8,35.4,31.2z"/>
	<path fill="#900000" d="M48.6,37.8c0-0.7-1.2-0.7-1.6-0.7c-0.1,0-0.2-0.1-0.2-0.3c0-0.1,0.1-0.3,0.3-0.3c0.6,0,1.4,0,2.1,0
		c0.7,0,1.4,0,2.1,0c0.2,0,0.2,0.2,0.2,0.3c0,0.1,0,0.2-0.2,0.3c-1.4,0.2-1.5,0.3-2.2,2.2c-0.8,2.1-2.3,5.1-2.7,6.1
		c-0.7,1.6-0.9,1.9-1.1,1.9c-0.3,0-0.4-0.5-0.9-1.5c-0.8-1.8-2.8-7.7-3.2-8.1c-0.2-0.4-0.5-0.4-0.8-0.4c-0.6,0-0.7-0.1-0.7-0.4
		c0-0.2,0.1-0.3,0.3-0.3c0.8,0,1.5,0,2.3,0c0.5,0,2.4,0,2.9,0c0.2,0,0.2,0.2,0.2,0.3c0,0.1-0.1,0.3-0.2,0.3c-0.7,0-1.4,0.1-1.4,0.6
		c0,0.8,1.9,5.6,2.4,6.7C48.3,39.4,48.6,38.5,48.6,37.8z"/>
	<path fill="#900000" d="M54.1,40.4C54,40.9,54,41.4,54,41.8c0,1.6,1.3,4,3.9,4c1.1,0,2-0.3,2.8-1.4c0.1-0.2,0.2-0.4,0.4-0.4
		c0.2,0,0.4,0.2,0.4,0.3c0,0.1-1,3-4.1,3c-3.4,0-5.2-2.1-5.2-5.5c0-3.4,2.3-5.8,4.8-5.8c4,0,4.3,3.4,4.3,4.2c0,0.2-0.1,0.3-0.3,0.3
		H54.1z M58.2,39.7c0.5,0,0.8-0.1,0.8-0.8c0-1.9-1.3-2.3-2.1-2.3c-1.7,0-2.4,1.4-2.7,3.1H58.2z"/>
	<path fill="#900000" d="M64.6,39c0-0.8-0.2-1.3-1.4-1.4c-0.2,0-0.2-0.1-0.2-0.3c0-0.2,0.1-0.3,0.2-0.3c2.7-0.6,3.1-1.2,3.4-1.2
		c0,0,0.1,0.1,0.1,0.2c0,0.3-0.1,0.9-0.1,2.2c0.8-0.9,2.1-2.1,3.4-2.1c0.8,0,1.5,0.5,1.5,1.3c0,0.6-0.5,1.2-1.2,1.2
		c-1,0-1.1-0.9-1.8-0.9c-0.4,0-1.1,0.4-1.7,1c-0.2,0.2-0.2,0.5-0.2,0.7v5.4c0,0.9,0,1.4,1.2,1.4c0.9,0,1,0,1,0.3
		c0,0.3-0.1,0.3-0.4,0.3c-0.9,0-1.6,0-2.7,0c-1.9,0-2.3,0-2.8,0c-0.2,0-0.2-0.1-0.2-0.3c0-0.2,0.3-0.3,0.7-0.3c1,0,1.2-0.2,1.2-1.2
		V39z"/>
	<path fill="#900000" d="M79.6,44c0,1.2-0.6,3.3-3.9,3.3c-0.4,0-1.8-0.2-2.8-0.2c0,0-0.1-0.1-0.1-0.1c0-0.2-0.6-2.4-0.6-2.6
		c0-0.1,0.3-0.1,0.4-0.1c0.6,0,0.7,2.4,3,2.4c1.7,0,2.2-1.3,2.2-2.1c0-2.5-5.4-1.7-5.4-5.1c0-2,1.6-3.3,3.6-3.3
		c1.1,0,2.5,0.2,2.6,0.2c0.3,0.1,0.4,0.5,0.4,0.7c0,1,0.3,1.6,0.3,1.9c0,0.1-0.1,0.2-0.3,0.2c-0.2,0-0.4,0-0.5-0.3
		c-0.2-0.4-0.8-2-2.5-2c-1.1,0-1.9,0.6-1.9,1.8c0,0.8,0.6,1.3,1.1,1.6C77.8,41.4,79.6,41.3,79.6,44z"/>
	<path fill="#900000" d="M84.7,44.7c0,1.4,0,1.7,1.1,1.7c0.5,0,0.6,0,0.6,0.3c0,0.1,0,0.3-0.2,0.3c-0.1,0-0.4,0-2,0
		c-2.3,0-2.9,0-3.2,0c-0.2,0-0.2-0.1-0.2-0.3c0-0.3,0-0.4,0.9-0.4c0.6,0,0.8-0.2,1-0.6c0.1-0.2,0.1-1.9,0.1-3.5V39
		c0-0.8-0.2-1.3-1.4-1.4c-0.2,0-0.2-0.1-0.2-0.3c0-0.2,0.1-0.3,0.2-0.3c2.7-0.6,3.1-1.2,3.4-1.2c0.1,0,0.1,0.1,0.1,0.3
		c0,0.1-0.1,0.3-0.1,3.5V44.7z M82.5,31.2c0-0.6,0.5-1.3,1.2-1.3c0.7,0,1.2,0.6,1.2,1.3c0,0.6-0.5,1.3-1.2,1.3
		C83,32.4,82.5,31.8,82.5,31.2z"/>
	<path fill="#900000" d="M91.2,42.7c0,2.5,0.2,3.5,2.1,3.5c0.8,0,1.5-0.6,1.6-0.6c0.1,0,0.3,0.2,0.3,0.4c0,0.1-1,1.3-3.2,1.3
		c-2.8,0-2.8-2.4-2.8-3V38c0-0.2-0.1-0.3-0.2-0.3h-1.2c-0.1,0-0.1-0.1-0.1-0.2c0-0.1,0-0.2,0.1-0.3c2.2-1.7,2.7-3,3.2-3
		c0.1,0,0.3,0.1,0.3,0.3c0,0.4-0.1,0.8-0.1,2.2h3.7c0.2,0,0.2,0.2,0.2,0.5c0,0.3-0.1,0.6-0.6,0.6c-0.2,0-1.3-0.1-3.3-0.1V42.7z"/>
	<path fill="#900000" d="M104.3,38c0-0.8-1.1-0.8-1.8-0.8c-0.2,0-0.2-0.1-0.2-0.3c0-0.2,0.1-0.3,0.2-0.3c0.8,0,1.6,0,2.3,0
		c0.7,0,1.5,0,2.2,0c0.2,0,0.2,0.2,0.2,0.3c0,0.2-0.1,0.3-0.4,0.3c-0.8,0.1-1.2,0.2-1.5,1.1c-0.9,2-4.2,9-4.7,10.3
		c-1.8,4.6-2.6,4.9-3.4,4.9c-0.8,0-1.3-0.7-1.3-1.4c0-0.7,0.7-1.3,1.4-1.3c0.6,0,0.9,0.4,1.2,0.4c0.4,0,1.6-2.3,1.6-3.4
		c0-0.6-0.6-2-0.8-2.7c-1.5-3.9-2-6-2.5-7.3c-0.2-0.6-1.4-0.6-1.7-0.6c-0.2,0-0.2-0.2-0.2-0.3c0-0.2,0.1-0.3,0.3-0.3
		c0.3,0,1.8,0,2.7,0c0.8,0,1.7,0,2.4,0c0.2,0,0.3,0.1,0.3,0.3c0,0.1-0.1,0.3-0.2,0.3c-0.1,0-1.2,0-1.2,0.5c0,1.2,0.8,3.5,2.4,7.5
		C102.3,42.9,104.3,38.7,104.3,38z"/>
	<path fill="#900000" d="M119.3,47.3c-3.3,0-5.6-2.4-5.6-5.6c0-3.2,2.4-5.6,5.6-5.6c3.2,0,5.6,2.3,5.6,5.6
		C124.9,45,122.7,47.3,119.3,47.3z M119.3,36.7c-2.5,0-3.3,2.6-3.3,4.9c0,2,0.5,4.9,3.3,4.9c2.8,0,3.3-2.9,3.3-4.9
		C122.6,39.3,121.8,36.7,119.3,36.7z"/>
	<path fill="#900000" d="M130.4,44.9c0,0.9,0,1.4,1.2,1.4c0.9,0,1,0,1,0.3c0,0.3-0.1,0.3-0.4,0.3c-0.9,0-1.6,0-2.7,0
		c-1.9,0-2.3,0-2.5,0c-0.2,0-0.2-0.1-0.2-0.3c0-0.2,0-0.3,0.5-0.3c1,0,1.2-0.2,1.2-1.2v-6.7c0-0.3,0-0.8-0.5-0.8h-1.3
		c-0.2,0-0.3,0-0.3-0.3c0-0.2,0.2-0.3,0.7-0.4c0.9-0.2,1.2-0.3,1.2-1.3c0.2-3.6,1.3-5.7,4.2-6.4c0.4-0.1,1-0.2,1.5-0.2
		c0.6,0,1.5,0.2,1.5,1c0,0.7-0.4,1.2-1.1,1.2c-0.2,0-0.7-0.1-1.3-0.6c-0.4-0.3-0.8-0.6-1.1-0.6c-1.4,0-1.6,2-1.6,3.5v3.1h3
		c0.2,0,0.2,0.2,0.2,0.5c0,0.3-0.1,0.6-0.6,0.6c-0.2,0-2-0.1-2.6-0.1V44.9z"/>
	<path fill="#900000" d="M156.3,30.1c0.1-0.2,0.1-0.3,0.3-0.3c0.1,0,1.9,0.1,2.4,0.1c0.4,0,2.4-0.1,2.6-0.1c0.2,0,0.3,0.2,0.3,0.4
		c0,0.2-0.1,0.3-0.3,0.3c-2.2,0-2.4,0.2-2.4,1.3c0,1.6,0.3,6.6,0.5,13.3c0,0.8,0.7,1.1,1.3,1.1c1.3,0,1.4,0.1,1.4,0.3
		c0,0.4-0.1,0.4-0.3,0.4c-0.2,0-0.5,0-3.8,0c-3.1,0-3.3,0-3.5,0c-0.3,0-0.3-0.2-0.3-0.4c0-0.2,0-0.3,1.2-0.3c1.6,0,1.6-0.4,1.6-1.3
		c0-1.4-0.4-9.2-0.6-13.7h0c-1.8,4.5-4,9.6-5.5,13.5c-0.9,2.2-0.9,2.5-1.2,2.5c-0.3,0-0.4-0.2-0.9-1.9c-0.5-1.7-4.4-12.3-4.5-12.3
		c-0.4,1.8-2,9.7-2,12.1c0,0.7,0.4,1.1,1.2,1.1c0.6,0,1.3,0,1.3,0.2c0,0.5,0,0.5-0.3,0.5c-0.2,0-0.4,0-2.9,0c-2.2,0-2.4,0-2.5,0
		c-0.2,0-0.3,0-0.3-0.4c0-0.2,0.1-0.3,1.3-0.3c0.8,0,1-0.3,1.3-1.7c0.6-3.5,1.2-6.9,2-10.4c0.2-1.1,0.3-1.8,0.3-2.3
		c0-0.1-0.3-1-0.6-1.2c-0.2-0.1-1.3-0.2-2.1-0.2c-0.3,0-0.3-0.2-0.3-0.4c0-0.2,0-0.4,0.3-0.4c0.5,0,2.5,0.1,2.8,0.1
		c0.6,0,1.6-0.1,1.9-0.1c0.3,0,0.3,0.3,0.6,1.1c0.5,1.8,4,11.5,4.4,12.4C152.7,39.1,154.6,34.7,156.3,30.1z"/>
	<path fill="#900000" d="M166.9,44.7c0,1.4,0,1.7,1.1,1.7c0.5,0,0.6,0,0.6,0.3c0,0.1,0,0.3-0.2,0.3c-0.1,0-0.4,0-2,0
		c-2.3,0-2.9,0-3.2,0c-0.2,0-0.2-0.1-0.2-0.3c0-0.3,0-0.4,0.9-0.4c0.6,0,0.8-0.2,1-0.6c0.1-0.2,0.1-1.9,0.1-3.5V39
		c0-0.8-0.2-1.3-1.4-1.4c-0.2,0-0.2-0.1-0.2-0.3c0-0.2,0.1-0.3,0.2-0.3c2.7-0.6,3.1-1.2,3.4-1.2c0.1,0,0.1,0.1,0.1,0.3
		c0,0.1-0.1,0.3-0.1,3.5V44.7z M164.7,31.2c0-0.6,0.5-1.3,1.2-1.3c0.7,0,1.2,0.6,1.2,1.3c0,0.6-0.5,1.3-1.2,1.3
		C165.2,32.4,164.7,31.8,164.7,31.2z"/>
	<path fill="#900000" d="M177.3,44c0,1.2-0.6,3.3-3.9,3.3c-0.4,0-1.8-0.2-2.8-0.2c0,0-0.1-0.1-0.1-0.1c0-0.2-0.6-2.4-0.6-2.6
		c0-0.1,0.3-0.1,0.4-0.1c0.6,0,0.7,2.4,3,2.4c1.7,0,2.2-1.3,2.2-2.1c0-2.5-5.4-1.7-5.4-5.1c0-2,1.6-3.3,3.6-3.3
		c1.1,0,2.5,0.2,2.6,0.2c0.3,0.1,0.4,0.5,0.4,0.7c0,1,0.3,1.6,0.3,1.9c0,0.1-0.1,0.2-0.3,0.2c-0.2,0-0.4,0-0.5-0.3
		c-0.2-0.4-0.8-2-2.5-2c-1.1,0-1.9,0.6-1.9,1.8c0,0.8,0.6,1.3,1.1,1.6C175.6,41.4,177.3,41.3,177.3,44z"/>
	<path fill="#900000" d="M186.2,44c0,1.2-0.6,3.3-3.9,3.3c-0.4,0-1.8-0.2-2.8-0.2c0,0-0.1-0.1-0.1-0.1c0-0.2-0.6-2.4-0.6-2.6
		c0-0.1,0.3-0.1,0.4-0.1c0.6,0,0.7,2.4,3,2.4c1.7,0,2.2-1.3,2.2-2.1c0-2.5-5.4-1.7-5.4-5.1c0-2,1.6-3.3,3.6-3.3
		c1.1,0,2.5,0.2,2.6,0.2c0.3,0.1,0.4,0.5,0.4,0.7c0,1,0.3,1.6,0.3,1.9c0,0.1-0.1,0.2-0.3,0.2c-0.2,0-0.4,0-0.5-0.3
		c-0.2-0.4-0.8-2-2.5-2c-1.1,0-1.9,0.6-1.9,1.8c0,0.8,0.6,1.3,1.1,1.6C184.5,41.4,186.2,41.3,186.2,44z"/>
	<path fill="#900000" d="M193.5,47.3c-3.3,0-5.6-2.4-5.6-5.6c0-3.2,2.4-5.6,5.6-5.6c3.2,0,5.6,2.3,5.6,5.6
		C199.1,45,196.9,47.3,193.5,47.3z M193.5,36.7c-2.5,0-3.3,2.6-3.3,4.9c0,2,0.5,4.9,3.3,4.9c2.8,0,3.3-2.9,3.3-4.9
		C196.8,39.3,196,36.7,193.5,36.7z"/>
	<path fill="#900000" d="M202.1,39.5c0-2.1-0.2-2.3-1.5-2.3c-0.2,0-0.5,0-0.5-0.2c0-0.2,0-0.5,0.3-0.5c0.2,0,0.6,0.1,1.4,0.1
		c0.8,0,1.8-0.1,2.1-0.1c0.1,0,0.2,0,0.2,0.3v6.5c0,1.8,0.6,2.8,2.4,2.8c0.9,0,2.4-0.5,2.4-1.3v-6.2c0-1.3-0.2-1.4-1.5-1.4
		c-0.4,0-0.8,0-0.8-0.2c0-0.4,0-0.5,0.2-0.5c0.3,0,0.6,0.1,2.1,0.1c0.6,0,1.2-0.1,1.8-0.1c0.2,0,0.3,0.1,0.3,0.3
		c0,0.1-0.2,1.9-0.2,3.6V45c0,0.4,0,0.9,0.6,0.9c0.3,0,0.9-0.1,1-0.1c0.1,0,0.1,0,0.1,0.5c0,0.1,0,0.2-0.8,0.3
		c-2,0.3-2.6,0.6-2.8,0.6c-0.2,0-0.3-0.2-0.3-0.3c0-0.3,0-0.7,0.1-0.9c-1.2,0.9-2.7,1.3-3.6,1.3c-2.4,0-3-1.5-3-4V39.5z"/>
	<path fill="#900000" d="M215.2,39c0-0.8-0.2-1.3-1.4-1.4c-0.2,0-0.2-0.1-0.2-0.3c0-0.2,0.1-0.3,0.2-0.3c2.7-0.6,3.1-1.2,3.4-1.2
		c0,0,0.1,0.1,0.1,0.2c0,0.3-0.1,0.9-0.1,2.2c0.8-0.9,2.1-2.1,3.4-2.1c0.8,0,1.5,0.5,1.5,1.3c0,0.6-0.5,1.2-1.2,1.2
		c-1,0-1.1-0.9-1.8-0.9c-0.4,0-1.1,0.4-1.7,1c-0.2,0.2-0.2,0.5-0.2,0.7v5.4c0,0.9,0,1.4,1.2,1.4c0.9,0,1,0,1,0.3
		c0,0.3-0.1,0.3-0.4,0.3c-0.9,0-1.6,0-2.7,0c-1.9,0-2.3,0-2.8,0c-0.2,0-0.2-0.1-0.2-0.3c0-0.2,0.3-0.3,0.7-0.3c1,0,1.2-0.2,1.2-1.2
		V39z"/>
	<path fill="#900000" d="M226.5,44.7c0,1.4,0,1.7,1.1,1.7c0.5,0,0.6,0,0.6,0.3c0,0.1,0,0.3-0.2,0.3c-0.1,0-0.4,0-2,0
		c-2.3,0-2.9,0-3.2,0c-0.2,0-0.2-0.1-0.2-0.3c0-0.3,0-0.4,0.9-0.4c0.6,0,0.8-0.2,1-0.6c0.1-0.2,0.1-1.9,0.1-3.5V39
		c0-0.8-0.2-1.3-1.4-1.4c-0.2,0-0.2-0.1-0.2-0.3c0-0.2,0.1-0.3,0.2-0.3c2.7-0.6,3.1-1.2,3.4-1.2c0.1,0,0.1,0.1,0.1,0.3
		c0,0.1-0.1,0.3-0.1,3.5V44.7z M224.3,31.2c0-0.6,0.5-1.3,1.2-1.3c0.7,0,1.2,0.6,1.2,1.3c0,0.6-0.5,1.3-1.2,1.3
		C224.8,32.4,224.3,31.8,224.3,31.2z"/>
</g>
<g>
</g>
<g>
</g>
<g>
</g>
<g>
</g>
<g>
</g>
<g>
</g>
<g>
</g>
<g>
</g>
<g>
</g>
<g>
</g>
<g>
</g>
<g>
</g>
<g>
</g>
<g>
</g>
<g>
</g>
</svg>
