<?xml version="1.0" encoding="utf-8"?>
<!-- Generator: Adobe Illustrator 18.1.0, SVG Export Plug-In . SVG Version: 6.00 Build 0)  -->
<!DOCTYPE svg PUBLIC "-//W3C//DTD SVG 1.0//EN" "http://www.w3.org/TR/2001/REC-SVG-20010904/DTD/svg10.dtd">
<svg version="1.0" id="Layer_1" xmlns="http://www.w3.org/2000/svg" xmlns:xlink="http://www.w3.org/1999/xlink" x="0px" y="0px"
	 width="478px" height="112px" viewBox="0 0 478 112" enable-background="new 0 0 478 112" xml:space="preserve">
<g>
	<path fill="#FFFFFF" d="M11.7,24.3c0,6.6,2.8,12.4,11,12.4c5.8,0,10.7-3.2,10.7-14.9V12c0-6.8-1.4-6.8-6.5-6.8
		c-0.4,0-0.4-0.3-0.4-0.7c0-0.6,0.1-0.7,0.4-0.7c0.8,0,4,0.2,7.2,0.2c1.5,0,5.7-0.2,6.4-0.2c0.5,0,0.7,0.1,0.7,0.8
		c0,0.2,0,0.6-0.4,0.6c-4.7,0-5.7,0-5.7,5.8v11.7c0,13.3-8.5,16.8-14.2,16.8c-11,0-14.1-7.4-14.1-12.8V15.4c0-3.5,0-4.7-0.1-6.9
		c0-2.9-0.9-3.3-5.2-3.3C1,5.2,1,4.8,1,4.3C1,4,1.1,3.7,1.4,3.7c0.4,0,4.7,0.2,7.8,0.2c3.2,0,7.4-0.2,7.8-0.2c0.3,0,0.4,0.3,0.4,0.6
		c0,0.4,0,0.8-0.5,0.8c-4.3,0-5.1,0.4-5.2,3.3c-0.1,2.3-0.1,3.4-0.1,6.9V24.3z"/>
	<path fill="#FFFFFF" d="M49.6,34.2c0,2.8,0.1,3.4,2.3,3.4c1.3,0,1.4,0,1.4,0.6c0,0.3,0,0.6-0.5,0.6c-0.2,0-0.9-0.1-4.3-0.1
		c-4.6,0-5.9,0.1-6.6,0.1c-0.4,0-0.4-0.3-0.4-0.5c0-0.6,0-0.7,1.9-0.7c1.3,0,1.7-0.5,2-1.2c0.2-0.4,0.3-3.9,0.3-7.1v-6.7
		c0-1.7-0.4-2.7-2.9-3c-0.4,0-0.4-0.2-0.4-0.6c0-0.4,0.1-0.6,0.4-0.7c5.6-1.1,6.3-2.4,6.9-2.4c0.1,0,0.1,0.1,0.1,0.5
		c0,0.3-0.1,1.4-0.1,3.5c2.6-1.7,5.1-3.4,7.7-3.4c1.7,0,6.5,0.3,6.5,7.4v11.8c0,0.8,0.1,1.8,3.2,1.8c0.5,0,0.5,0.3,0.5,0.6
		c0,0.3,0,0.6-0.7,0.6c-1.5,0-2.4-0.1-5-0.1c-4,0-4.8,0.1-5.2,0.1c-0.3,0-0.3-0.3-0.3-0.6c0-0.2,0.1-0.7,0.7-0.7
		c2.4,0,2.8-0.2,2.8-1.8V27c0-4.6-0.4-7.6-5.5-7.6c-1.9,0-4.5,1.7-4.7,2.3V34.2z"/>
	<path fill="#FFFFFF" d="M77.2,34.2c0,2.8,0.1,3.4,2.3,3.4c1.1,0,1.2,0,1.2,0.6c0,0.3,0,0.6-0.5,0.6c-0.2,0-0.9-0.1-4.1-0.1
		c-4.6,0-5.9,0.1-6.6,0.1c-0.4,0-0.4-0.3-0.4-0.5c0-0.6,0.1-0.7,1.9-0.7c1.3,0,1.7-0.5,2-1.2c0.2-0.4,0.3-3.9,0.3-7.1v-6.7
		c0-1.7-0.4-2.7-2.9-3c-0.4,0-0.4-0.2-0.4-0.6c0-0.4,0.1-0.6,0.4-0.7c5.6-1.1,6.3-2.4,6.9-2.4c0.2,0,0.3,0.2,0.3,0.5
		c0,0.2-0.2,0.7-0.2,7.1V34.2z M72.7,6.5c0-1.3,1.1-2.6,2.6-2.6c1.5,0,2.6,1.3,2.6,2.6c0,1.3-1.1,2.6-2.6,2.6
		C73.8,9.1,72.7,7.8,72.7,6.5z"/>
	<path fill="#FFFFFF" d="M99.8,20.2c0-1.4-2.6-1.4-3.3-1.4c-0.3,0-0.4-0.3-0.4-0.7c0-0.2,0.2-0.6,0.6-0.6c1.3,0,2.9,0.1,4.2,0.1
		c1.4,0,2.9-0.1,4.3-0.1c0.3,0,0.4,0.3,0.4,0.6c0,0.3,0,0.5-0.5,0.5c-2.9,0.4-3,0.6-4.6,4.5C99,27.3,96,33.5,95.1,35.6
		c-1.4,3.3-1.8,3.9-2.2,3.9c-0.5,0-0.9-1-1.9-3.2c-1.7-3.7-5.8-15.7-6.5-16.7c-0.5-0.7-1-0.8-1.7-0.8c-1.3,0-1.5-0.1-1.5-0.8
		c0-0.3,0.2-0.5,0.5-0.5c1.6,0,3.1,0.1,4.7,0.1c1,0,4.9-0.1,5.9-0.1c0.3,0,0.4,0.4,0.4,0.7c0,0.2-0.2,0.6-0.5,0.6
		c-1.5,0-2.9,0.1-2.9,1.2c0,1.6,4,11.6,5,13.7C99.1,23.4,99.8,21.5,99.8,20.2z"/>
	<path fill="#FFFFFF" d="M109.4,25.5c-0.1,0.9-0.2,1.9-0.2,2.8c0,3.2,2.7,8.1,8.1,8.1c2.3,0,4.2-0.7,5.8-3c0.3-0.4,0.5-0.8,0.7-0.8
		c0.3,0,0.8,0.4,0.8,0.6c0,0.1-2,6.3-8.5,6.3c-7,0-10.7-4.3-10.7-11.2c0-7,4.8-11.8,9.8-11.8c8.2,0,8.8,7,8.8,8.5
		c0,0.5-0.2,0.5-0.6,0.5H109.4z M117.9,24c1,0,1.7-0.3,1.7-1.6c0-3.8-2.7-4.7-4.3-4.7c-3.5,0-5,3-5.5,6.3H117.9z"/>
	<path fill="#FFFFFF" d="M131,22.6c0-1.7-0.4-2.7-2.9-3c-0.4,0-0.4-0.2-0.4-0.6c0-0.4,0.1-0.6,0.4-0.7c5.6-1.1,6.3-2.4,6.9-2.4
		c0.1,0,0.2,0.3,0.2,0.5c0,0.6-0.2,1.8-0.2,4.5c1.6-1.8,4.3-4.3,6.9-4.3c1.7,0,3.2,0.9,3.2,2.8c0,1.3-1,2.5-2.4,2.5
		c-2,0-2.3-1.9-3.8-1.9c-0.8,0-2.2,0.7-3.4,2.1c-0.3,0.4-0.3,0.9-0.3,1.4v11.2c0,1.8,0,2.9,2.5,2.9c1.8,0,2,0,2,0.6
		c0,0.6-0.2,0.7-0.7,0.7c-1.8,0-3.3-0.1-5.6-0.1c-3.9,0-4.8,0.1-5.7,0.1c-0.3,0-0.4-0.3-0.4-0.6c0-0.5,0.6-0.6,1.5-0.6
		c2.1,0,2.5-0.4,2.5-2.5V22.6z"/>
	<path fill="#FFFFFF" d="M161.7,32.8c0,2.4-1.3,6.7-8,6.7c-0.9,0-3.7-0.4-5.7-0.4c-0.1,0-0.2-0.1-0.2-0.2c0-0.5-1.1-4.8-1.1-5.3
		c0-0.3,0.7-0.3,0.9-0.3c1.2,0,1.5,5,6.2,5c3.5,0,4.5-2.7,4.5-4.4c0-5.2-11-3.5-11-10.5c0-4,3.3-6.7,7.5-6.7c2.3,0,5.1,0.4,5.3,0.4
		c0.6,0.1,0.7,1.1,0.7,1.4c0.1,2,0.5,3.3,0.5,3.9c0,0.3-0.3,0.4-0.5,0.4c-0.4,0-0.7-0.1-1-0.7c-0.3-0.8-1.6-4.2-5.1-4.2
		c-2.3,0-3.9,1.3-3.9,3.7c0,1.7,1.2,2.8,2.3,3.3C158.1,27.4,161.7,27.2,161.7,32.8z"/>
	<path fill="#FFFFFF" d="M172.3,34.2c0,2.8,0.1,3.4,2.3,3.4c1.1,0,1.2,0,1.2,0.6c0,0.3,0,0.6-0.5,0.6c-0.2,0-0.9-0.1-4.1-0.1
		c-4.6,0-5.9,0.1-6.6,0.1c-0.4,0-0.4-0.3-0.4-0.5c0-0.6,0-0.7,1.9-0.7c1.3,0,1.7-0.5,2-1.2c0.2-0.4,0.3-3.9,0.3-7.1v-6.7
		c0-1.7-0.4-2.7-2.9-3c-0.4,0-0.4-0.2-0.4-0.6c0-0.4,0.1-0.6,0.4-0.7c5.6-1.1,6.3-2.4,6.9-2.4c0.2,0,0.3,0.2,0.3,0.5
		c0,0.2-0.2,0.7-0.2,7.1V34.2z M167.7,6.5c0-1.3,1.1-2.6,2.6-2.6c1.5,0,2.6,1.3,2.6,2.6c0,1.3-1.1,2.6-2.6,2.6
		C168.8,9.1,167.7,7.8,167.7,6.5z"/>
	<path fill="#FFFFFF" d="M184.2,30.1c0,5.2,0.4,7.1,4.3,7.1c1.7,0,3.2-1.1,3.3-1.1c0.2,0,0.5,0.5,0.5,0.8c0,0.3-2.1,2.6-6.5,2.6
		c-5.7,0-5.7-4.9-5.7-6.1V20.4c0-0.4-0.1-0.6-0.5-0.6h-2.5c-0.1,0-0.3-0.1-0.3-0.4c0-0.2,0-0.5,0.3-0.7c4.6-3.4,5.5-6.1,6.5-6.1
		c0.3,0,0.6,0.2,0.6,0.6c0,0.9-0.1,1.7-0.1,4.5h7.6c0.3,0,0.5,0.3,0.5,1c0,0.6-0.3,1.2-1.3,1.2c-0.3,0-2.7-0.2-6.7-0.2V30.1z"/>
	<path fill="#FFFFFF" d="M213.9,20.4c0-1.6-2.3-1.7-3.8-1.7c-0.4,0-0.5-0.2-0.5-0.6c0-0.3,0.2-0.6,0.4-0.6c1.6,0,3.2,0.1,4.8,0.1
		c1.5,0,3.1-0.1,4.6-0.1c0.3,0,0.3,0.4,0.3,0.6c0,0.4-0.1,0.6-0.8,0.6c-1.7,0.1-2.4,0.4-3.1,2.2c-1.8,4.1-8.6,18.4-9.6,21.1
		c-3.8,9.5-5.4,10.1-7,10.1c-1.6,0-2.8-1.4-2.8-2.9c0-1.5,1.4-2.7,2.9-2.7c1.2,0,1.9,0.8,2.5,0.8c0.9,0,3.2-4.7,3.2-7
		c0-1.2-1.2-4.1-1.7-5.5c-3.1-8-4-12.3-5.1-15c-0.4-1.1-2.9-1.1-3.5-1.1c-0.3,0-0.4-0.3-0.4-0.7c0-0.4,0.2-0.6,0.5-0.6
		c0.6,0,3.7,0.1,5.5,0.1c1.7,0,3.4-0.1,4.9-0.1c0.5,0,0.6,0.3,0.6,0.6c0,0.2-0.1,0.6-0.5,0.6c-0.3,0-2.4,0-2.4,1.1
		c0,2.4,1.7,7.2,4.9,15.5C209.9,30.6,213.9,21.9,213.9,20.4z"/>
	<path fill="#FFFFFF" d="M244.8,39.5c-6.7,0-11.4-4.9-11.4-11.4c0-6.5,4.9-11.4,11.4-11.4c6.6,0,11.5,4.8,11.5,11.4
		C256.2,34.9,251.6,39.5,244.8,39.5z M244.8,17.9c-5.1,0-6.7,5.3-6.7,10.1c0,4.2,1,10.1,6.7,10.1c5.8,0,6.8-6,6.8-10.1
		C251.5,23.2,249.9,17.9,244.8,17.9z"/>
	<path fill="#FFFFFF" d="M267.4,34.7c0,1.8,0,2.9,2.5,2.9c1.8,0,2,0,2,0.6c0,0.6-0.2,0.7-0.7,0.7c-1.8,0-3.3-0.1-5.6-0.1
		c-3.9,0-4.8,0.1-5.2,0.1c-0.3,0-0.4-0.3-0.4-0.6c0-0.5,0.1-0.6,1-0.6c2.1,0,2.5-0.4,2.5-2.5V21.3c0-0.6,0-1.6-0.9-1.6h-2.7
		c-0.3,0-0.6,0-0.6-0.6c0-0.4,0.3-0.6,1.5-0.8c1.9-0.4,2.4-0.5,2.6-2.8c0.5-7.5,2.7-11.6,8.5-13.1c0.8-0.2,2.1-0.4,3-0.4
		c1.3,0,3.1,0.5,3.1,2.1c0,1.4-0.8,2.4-2.3,2.4c-0.4,0-1.5-0.1-2.7-1.1c-0.8-0.7-1.7-1.1-2.2-1.1c-2.8,0-3.3,4.1-3.3,7.1v6.4h6.1
		c0.3,0,0.5,0.3,0.5,1c0,0.6-0.3,1.2-1.3,1.2c-0.3,0-4.1-0.2-5.3-0.2V34.7z"/>
	<path fill="#FFFFFF" d="M328.5,4.2c0.1-0.4,0.3-0.5,0.6-0.5c0.2,0,3.8,0.2,5,0.2c0.8,0,5-0.2,5.4-0.2c0.5,0,0.5,0.4,0.5,0.8
		c0,0.4-0.2,0.6-0.6,0.6c-4.4,0-5,0.3-5,2.6c0,3.2,0.5,13.5,1,27.3c0,1.7,1.4,2.3,2.7,2.3c2.8,0,2.8,0.3,2.8,0.6
		c0,0.7-0.2,0.8-0.5,0.8c-0.4,0-1-0.1-7.8-0.1c-6.4,0-6.7,0.1-7.1,0.1c-0.5,0-0.5-0.3-0.5-0.8c0-0.3,0.1-0.7,2.4-0.7
		c3.2,0,3.3-0.8,3.3-2.8c0-3-0.7-18.9-1.1-28.1h-0.1c-3.6,9.2-8.1,19.8-11.4,27.7c-1.9,4.5-1.9,5.1-2.5,5.1c-0.6,0-0.7-0.4-1.8-3.8
		c-1.1-3.5-9.1-25.3-9.3-25.3c-0.8,3.6-4.1,19.9-4.1,24.9c0,1.5,0.8,2.3,2.5,2.3c1.2,0,2.7,0.1,2.7,0.4c0,0.9,0,1.1-0.5,1.1
		c-0.4,0-0.9-0.1-6-0.1c-4.5,0-4.8,0.1-5.1,0.1c-0.4,0-0.5-0.1-0.5-0.8c0-0.5,0.2-0.6,2.6-0.6c1.7,0,2.1-0.6,2.6-3.4
		c1.3-7.1,2.5-14.2,4-21.3c0.5-2.2,0.6-3.6,0.6-4.6c0-0.3-0.7-2.1-1.3-2.5c-0.4-0.2-2.7-0.4-4.2-0.4c-0.6,0-0.6-0.4-0.6-0.7
		c0-0.4,0.1-0.7,0.5-0.7c0.9,0,5.2,0.2,5.7,0.2c1.3,0,3.3-0.2,4-0.2c0.5,0,0.7,0.5,1.2,2.3c1,3.7,8.2,23.6,9.1,25.5
		C321.3,22.7,325,13.7,328.5,4.2z"/>
	<path fill="#FFFFFF" d="M350.4,34.2c0,2.8,0.1,3.4,2.3,3.4c1.1,0,1.2,0,1.2,0.6c0,0.3,0,0.6-0.5,0.6c-0.2,0-0.9-0.1-4.1-0.1
		c-4.6,0-5.9,0.1-6.6,0.1c-0.4,0-0.4-0.3-0.4-0.5c0-0.6,0-0.7,1.9-0.7c1.3,0,1.7-0.5,2-1.2c0.2-0.4,0.3-3.9,0.3-7.1v-6.7
		c0-1.7-0.4-2.7-2.9-3c-0.4,0-0.4-0.2-0.4-0.6c0-0.4,0.1-0.6,0.4-0.7c5.6-1.1,6.3-2.4,6.9-2.4c0.2,0,0.3,0.2,0.3,0.5
		c0,0.2-0.2,0.7-0.2,7.1V34.2z M345.9,6.5c0-1.3,1.1-2.6,2.6-2.6s2.6,1.3,2.6,2.6c0,1.3-1.1,2.6-2.6,2.6S345.9,7.8,345.9,6.5z"/>
	<path fill="#FFFFFF" d="M371.7,32.8c0,2.4-1.3,6.7-8,6.7c-0.9,0-3.7-0.4-5.7-0.4c-0.1,0-0.2-0.1-0.2-0.2c0-0.5-1.1-4.8-1.1-5.3
		c0-0.3,0.7-0.3,0.9-0.3c1.2,0,1.5,5,6.2,5c3.5,0,4.5-2.7,4.5-4.4c0-5.2-11-3.5-11-10.5c0-4,3.3-6.7,7.5-6.7c2.3,0,5.1,0.4,5.3,0.4
		c0.6,0.1,0.7,1.1,0.7,1.4c0.1,2,0.5,3.3,0.5,3.9c0,0.3-0.3,0.4-0.5,0.4c-0.4,0-0.7-0.1-1-0.7c-0.3-0.8-1.6-4.2-5.1-4.2
		c-2.3,0-3.9,1.3-3.9,3.7c0,1.7,1.2,2.8,2.3,3.3C368.2,27.4,371.7,27.2,371.7,32.8z"/>
	<path fill="#FFFFFF" d="M389.9,32.8c0,2.4-1.3,6.7-8,6.7c-0.9,0-3.7-0.4-5.7-0.4c-0.1,0-0.2-0.1-0.2-0.2c0-0.5-1.1-4.8-1.1-5.3
		c0-0.3,0.7-0.3,0.9-0.3c1.2,0,1.5,5,6.2,5c3.5,0,4.5-2.7,4.5-4.4c0-5.2-11-3.5-11-10.5c0-4,3.3-6.7,7.5-6.7c2.3,0,5.1,0.4,5.3,0.4
		c0.6,0.1,0.7,1.1,0.7,1.4c0.1,2,0.5,3.3,0.5,3.9c0,0.3-0.3,0.4-0.5,0.4c-0.4,0-0.7-0.1-1-0.7c-0.3-0.8-1.6-4.2-5.1-4.2
		c-2.3,0-3.9,1.3-3.9,3.7c0,1.7,1.2,2.8,2.3,3.3C386.4,27.4,389.9,27.2,389.9,32.8z"/>
	<path fill="#FFFFFF" d="M404.9,39.5c-6.7,0-11.4-4.9-11.4-11.4c0-6.5,4.9-11.4,11.4-11.4c6.6,0,11.5,4.8,11.5,11.4
		C416.4,34.9,411.8,39.5,404.9,39.5z M404.9,17.9c-5.1,0-6.7,5.3-6.7,10.1c0,4.2,1,10.1,6.7,10.1c5.8,0,6.8-6,6.8-10.1
		C411.7,23.2,410.1,17.9,404.9,17.9z"/>
	<path fill="#FFFFFF" d="M422.5,23.5c0-4.3-0.5-4.6-3.1-4.6c-0.4,0-1.1,0-1.1-0.5c0-0.4,0-1,0.5-1c0.5,0,1.3,0.1,2.9,0.1
		c1.7,0,3.6-0.1,4.3-0.1c0.3,0,0.4,0,0.4,0.7v13.3c0,3.7,1.2,5.8,4.8,5.8c1.8,0,4.9-1.1,4.9-2.6V21.8c0-2.7-0.5-3-3.1-3
		c-0.9,0-1.6,0-1.6-0.5c0-0.7,0-1,0.3-1c0.7,0,1.3,0.1,4.3,0.1c1.2,0,2.5-0.1,3.7-0.1c0.4,0,0.7,0.2,0.7,0.7c0,0.2-0.4,4-0.4,7.5
		v9.3c0,0.8,0,1.8,1.2,1.8c0.7,0,1.8-0.2,2.1-0.2c0.2,0,0.3,0,0.3,0.9c0,0.3,0,0.4-1.6,0.6c-4.2,0.7-5.4,1.3-5.7,1.3
		c-0.3,0-0.6-0.3-0.6-0.7c0-0.6,0.1-1.4,0.1-1.9c-2.5,1.8-5.5,2.7-7.3,2.7c-4.9,0-6.3-3.2-6.3-8.3V23.5z"/>
	<path fill="#FFFFFF" d="M449.4,22.6c0-1.7-0.4-2.7-2.9-3c-0.4,0-0.4-0.2-0.4-0.6c0-0.4,0.1-0.6,0.4-0.7c5.6-1.1,6.3-2.4,6.9-2.4
		c0.1,0,0.2,0.3,0.2,0.5c0,0.6-0.2,1.8-0.2,4.5c1.6-1.8,4.3-4.3,6.9-4.3c1.7,0,3.2,0.9,3.2,2.8c0,1.3-1,2.5-2.4,2.5
		c-2,0-2.3-1.9-3.8-1.9c-0.8,0-2.2,0.7-3.4,2.1c-0.3,0.4-0.3,0.9-0.3,1.4v11.2c0,1.8,0,2.9,2.5,2.9c1.8,0,2,0,2,0.6
		c0,0.6-0.2,0.7-0.7,0.7c-1.8,0-3.3-0.1-5.6-0.1c-3.9,0-4.8,0.1-5.7,0.1c-0.3,0-0.4-0.3-0.4-0.6c0-0.5,0.6-0.6,1.5-0.6
		c2.1,0,2.5-0.4,2.5-2.5V22.6z"/>
	<path fill="#FFFFFF" d="M472.6,34.2c0,2.8,0.1,3.4,2.3,3.4c1.1,0,1.2,0,1.2,0.6c0,0.3,0,0.6-0.5,0.6c-0.2,0-0.9-0.1-4.1-0.1
		c-4.6,0-5.9,0.1-6.6,0.1c-0.4,0-0.4-0.3-0.4-0.5c0-0.6,0.1-0.7,1.9-0.7c1.3,0,1.7-0.5,2-1.2c0.2-0.4,0.3-3.9,0.3-7.1v-6.7
		c0-1.7-0.4-2.7-2.9-3c-0.4,0-0.4-0.2-0.4-0.6c0-0.4,0.1-0.6,0.4-0.7c5.6-1.1,6.3-2.4,6.9-2.4c0.2,0,0.3,0.2,0.3,0.5
		c0,0.2-0.2,0.7-0.2,7.1V34.2z M468,6.5c0-1.3,1.1-2.6,2.6-2.6s2.6,1.3,2.6,2.6c0,1.3-1.1,2.6-2.6,2.6S468,7.8,468,6.5z"/>
</g>
<g>
	<path fill="#F1B82D" d="M11.7,80.3c0,6.6,2.8,12.4,11,12.4c5.8,0,10.7-3.2,10.7-14.9V68c0-6.8-1.4-6.8-6.5-6.8
		c-0.4,0-0.4-0.3-0.4-0.7c0-0.6,0.1-0.7,0.4-0.7c0.8,0,4,0.2,7.2,0.2c1.5,0,5.7-0.2,6.4-0.2c0.5,0,0.7,0.1,0.7,0.8
		c0,0.2,0,0.6-0.4,0.6c-4.7,0-5.7,0-5.7,5.8v11.7c0,13.3-8.5,16.8-14.2,16.8c-11,0-14.1-7.4-14.1-12.8V71.4c0-3.5,0-4.7-0.1-6.9
		c0-2.9-0.9-3.3-5.2-3.3C1,61.2,1,60.8,1,60.3c0-0.3,0.1-0.6,0.4-0.6c0.4,0,4.7,0.2,7.8,0.2c3.2,0,7.4-0.2,7.8-0.2
		c0.3,0,0.4,0.3,0.4,0.6c0,0.4,0,0.8-0.5,0.8c-4.3,0-5.1,0.4-5.2,3.3c-0.1,2.3-0.1,3.4-0.1,6.9V80.3z"/>
	<path fill="#F1B82D" d="M49.6,90.2c0,2.8,0.1,3.4,2.3,3.4c1.3,0,1.4,0,1.4,0.6c0,0.3,0,0.6-0.5,0.6c-0.2,0-0.9-0.1-4.3-0.1
		c-4.6,0-5.9,0.1-6.6,0.1c-0.4,0-0.4-0.3-0.4-0.5c0-0.6,0-0.7,1.9-0.7c1.3,0,1.7-0.5,2-1.2c0.2-0.4,0.3-3.9,0.3-7.1v-6.7
		c0-1.7-0.4-2.7-2.9-3c-0.4,0-0.4-0.2-0.4-0.6c0-0.4,0.1-0.6,0.4-0.7c5.6-1.1,6.3-2.4,6.9-2.4c0.1,0,0.1,0.1,0.1,0.5
		c0,0.3-0.1,1.4-0.1,3.5c2.6-1.7,5.1-3.4,7.7-3.4c1.7,0,6.5,0.3,6.5,7.4v11.8c0,0.8,0.1,1.8,3.2,1.8c0.5,0,0.5,0.3,0.5,0.6
		c0,0.3,0,0.6-0.7,0.6c-1.5,0-2.4-0.1-5-0.1c-4,0-4.8,0.1-5.2,0.1c-0.3,0-0.3-0.3-0.3-0.6c0-0.2,0.1-0.7,0.7-0.7
		c2.4,0,2.8-0.2,2.8-1.8V83c0-4.6-0.4-7.6-5.5-7.6c-1.9,0-4.5,1.7-4.7,2.3V90.2z"/>
	<path fill="#F1B82D" d="M77.2,90.2c0,2.8,0.1,3.4,2.3,3.4c1.1,0,1.2,0,1.2,0.6c0,0.3,0,0.6-0.5,0.6c-0.2,0-0.9-0.1-4.1-0.1
		c-4.6,0-5.9,0.1-6.6,0.1c-0.4,0-0.4-0.3-0.4-0.5c0-0.6,0.1-0.7,1.9-0.7c1.3,0,1.7-0.5,2-1.2c0.2-0.4,0.3-3.9,0.3-7.1v-6.7
		c0-1.7-0.4-2.7-2.9-3c-0.4,0-0.4-0.2-0.4-0.6c0-0.4,0.1-0.6,0.4-0.7c5.6-1.1,6.3-2.4,6.9-2.4c0.2,0,0.3,0.2,0.3,0.5
		c0,0.2-0.2,0.7-0.2,7.1V90.2z M72.7,62.5c0-1.3,1.1-2.6,2.6-2.6c1.5,0,2.6,1.3,2.6,2.6c0,1.3-1.1,2.6-2.6,2.6
		C73.8,65.1,72.7,63.8,72.7,62.5z"/>
	<path fill="#F1B82D" d="M99.8,76.2c0-1.4-2.6-1.4-3.3-1.4c-0.3,0-0.4-0.3-0.4-0.7c0-0.2,0.2-0.6,0.6-0.6c1.3,0,2.9,0.1,4.2,0.1
		c1.4,0,2.9-0.1,4.3-0.1c0.3,0,0.4,0.3,0.4,0.6c0,0.3,0,0.5-0.5,0.5c-2.9,0.4-3,0.6-4.6,4.5C99,83.3,96,89.5,95.1,91.6
		c-1.4,3.3-1.8,3.9-2.2,3.9c-0.5,0-0.9-1-1.9-3.2c-1.7-3.7-5.8-15.7-6.5-16.7c-0.5-0.7-1-0.8-1.7-0.8c-1.3,0-1.5-0.1-1.5-0.8
		c0-0.3,0.2-0.5,0.5-0.5c1.6,0,3.1,0.1,4.7,0.1c1,0,4.9-0.1,5.9-0.1c0.3,0,0.4,0.4,0.4,0.7c0,0.2-0.2,0.6-0.5,0.6
		c-1.5,0-2.9,0.1-2.9,1.2c0,1.6,4,11.6,5,13.7C99.1,79.4,99.8,77.5,99.8,76.2z"/>
	<path fill="#F1B82D" d="M109.4,81.5c-0.1,0.9-0.2,1.9-0.2,2.8c0,3.2,2.7,8.1,8.1,8.1c2.3,0,4.2-0.7,5.8-3c0.3-0.4,0.5-0.8,0.7-0.8
		c0.3,0,0.8,0.4,0.8,0.6c0,0.1-2,6.3-8.5,6.3c-7,0-10.7-4.3-10.7-11.2c0-7,4.8-11.8,9.8-11.8c8.2,0,8.8,7,8.8,8.5
		c0,0.5-0.2,0.5-0.6,0.5H109.4z M117.9,80c1,0,1.7-0.3,1.7-1.6c0-3.8-2.7-4.7-4.3-4.7c-3.5,0-5,3-5.5,6.3H117.9z"/>
	<path fill="#F1B82D" d="M131,78.6c0-1.7-0.4-2.7-2.9-3c-0.4,0-0.4-0.2-0.4-0.6c0-0.4,0.1-0.6,0.4-0.7c5.6-1.1,6.3-2.4,6.9-2.4
		c0.1,0,0.2,0.3,0.2,0.5c0,0.6-0.2,1.8-0.2,4.5c1.6-1.8,4.3-4.3,6.9-4.3c1.7,0,3.2,0.9,3.2,2.8c0,1.3-1,2.5-2.4,2.5
		c-2,0-2.3-1.9-3.8-1.9c-0.8,0-2.2,0.7-3.4,2.1c-0.3,0.4-0.3,0.9-0.3,1.4v11.2c0,1.8,0,2.9,2.5,2.9c1.8,0,2,0,2,0.6
		c0,0.6-0.2,0.7-0.7,0.7c-1.8,0-3.3-0.1-5.6-0.1c-3.9,0-4.8,0.1-5.7,0.1c-0.3,0-0.4-0.3-0.4-0.6c0-0.5,0.6-0.6,1.5-0.6
		c2.1,0,2.5-0.4,2.5-2.5V78.6z"/>
	<path fill="#F1B82D" d="M161.7,88.8c0,2.4-1.3,6.7-8,6.7c-0.9,0-3.7-0.4-5.7-0.4c-0.1,0-0.2-0.1-0.2-0.2c0-0.5-1.1-4.8-1.1-5.3
		c0-0.3,0.7-0.3,0.9-0.3c1.2,0,1.5,5,6.2,5c3.5,0,4.5-2.7,4.5-4.4c0-5.2-11-3.5-11-10.5c0-4,3.3-6.7,7.5-6.7c2.3,0,5.1,0.4,5.3,0.4
		c0.6,0.1,0.7,1.1,0.7,1.4c0.1,2,0.5,3.3,0.5,3.9c0,0.3-0.3,0.4-0.5,0.4c-0.4,0-0.7-0.1-1-0.7c-0.3-0.8-1.6-4.2-5.1-4.2
		c-2.3,0-3.9,1.3-3.9,3.7c0,1.7,1.2,2.8,2.3,3.3C158.1,83.4,161.7,83.2,161.7,88.8z"/>
	<path fill="#F1B82D" d="M172.3,90.2c0,2.8,0.1,3.4,2.3,3.4c1.1,0,1.2,0,1.2,0.6c0,0.3,0,0.6-0.5,0.6c-0.2,0-0.9-0.1-4.1-0.1
		c-4.6,0-5.9,0.1-6.6,0.1c-0.4,0-0.4-0.3-0.4-0.5c0-0.6,0-0.7,1.9-0.7c1.3,0,1.7-0.5,2-1.2c0.2-0.4,0.3-3.9,0.3-7.1v-6.7
		c0-1.7-0.4-2.7-2.9-3c-0.4,0-0.4-0.2-0.4-0.6c0-0.4,0.1-0.6,0.4-0.7c5.6-1.1,6.3-2.4,6.9-2.4c0.2,0,0.3,0.2,0.3,0.5
		c0,0.2-0.2,0.7-0.2,7.1V90.2z M167.7,62.5c0-1.3,1.1-2.6,2.6-2.6c1.5,0,2.6,1.3,2.6,2.6c0,1.3-1.1,2.6-2.6,2.6
		C168.8,65.1,167.7,63.8,167.7,62.5z"/>
	<path fill="#F1B82D" d="M184.2,86.1c0,5.2,0.4,7.1,4.3,7.1c1.7,0,3.2-1.1,3.3-1.1c0.2,0,0.5,0.5,0.5,0.8c0,0.3-2.1,2.6-6.5,2.6
		c-5.7,0-5.7-4.9-5.7-6.1V76.4c0-0.4-0.1-0.6-0.5-0.6h-2.5c-0.1,0-0.3-0.1-0.3-0.4c0-0.2,0-0.5,0.3-0.7c4.6-3.4,5.5-6.1,6.5-6.1
		c0.3,0,0.6,0.2,0.6,0.6c0,0.9-0.1,1.7-0.1,4.5h7.6c0.3,0,0.5,0.3,0.5,1c0,0.6-0.3,1.2-1.3,1.2c-0.3,0-2.7-0.2-6.7-0.2V86.1z"/>
	<path fill="#F1B82D" d="M213.9,76.4c0-1.6-2.3-1.7-3.8-1.7c-0.4,0-0.5-0.2-0.5-0.6c0-0.3,0.2-0.6,0.4-0.6c1.6,0,3.2,0.1,4.8,0.1
		c1.5,0,3.1-0.1,4.6-0.1c0.3,0,0.3,0.4,0.3,0.6c0,0.4-0.1,0.6-0.8,0.6c-1.7,0.1-2.4,0.4-3.1,2.2c-1.8,4.1-8.6,18.4-9.6,21.1
		c-3.8,9.5-5.4,10.1-7,10.1c-1.6,0-2.8-1.4-2.8-2.9c0-1.5,1.4-2.7,2.9-2.7c1.2,0,1.9,0.8,2.5,0.8c0.9,0,3.2-4.7,3.2-7
		c0-1.2-1.2-4.1-1.7-5.5c-3.1-8-4-12.3-5.1-15c-0.4-1.1-2.9-1.1-3.5-1.1c-0.3,0-0.4-0.3-0.4-0.7c0-0.4,0.2-0.6,0.5-0.6
		c0.6,0,3.7,0.1,5.5,0.1c1.7,0,3.4-0.1,4.9-0.1c0.5,0,0.6,0.3,0.6,0.6c0,0.2-0.1,0.6-0.5,0.6c-0.3,0-2.4,0-2.4,1.1
		c0,2.4,1.7,7.2,4.9,15.5C209.9,86.6,213.9,77.9,213.9,76.4z"/>
	<path fill="#F1B82D" d="M244.8,95.5c-6.7,0-11.4-4.9-11.4-11.4c0-6.5,4.9-11.4,11.4-11.4c6.6,0,11.5,4.8,11.5,11.4
		C256.2,90.9,251.6,95.5,244.8,95.5z M244.8,73.9c-5.1,0-6.7,5.3-6.7,10.1c0,4.2,1,10.1,6.7,10.1c5.8,0,6.8-6,6.8-10.1
		C251.5,79.2,249.9,73.9,244.8,73.9z"/>
	<path fill="#F1B82D" d="M267.4,90.7c0,1.8,0,2.9,2.5,2.9c1.8,0,2,0,2,0.6c0,0.6-0.2,0.7-0.7,0.7c-1.8,0-3.3-0.1-5.6-0.1
		c-3.9,0-4.8,0.1-5.2,0.1c-0.3,0-0.4-0.3-0.4-0.6c0-0.5,0.1-0.6,1-0.6c2.1,0,2.5-0.4,2.5-2.5V77.3c0-0.6,0-1.6-0.9-1.6h-2.7
		c-0.3,0-0.6,0-0.6-0.6c0-0.4,0.3-0.6,1.5-0.8c1.9-0.4,2.4-0.5,2.6-2.8c0.5-7.5,2.7-11.6,8.5-13.1c0.8-0.2,2.1-0.4,3-0.4
		c1.3,0,3.1,0.5,3.1,2.1c0,1.4-0.8,2.4-2.3,2.4c-0.4,0-1.5-0.1-2.7-1.1c-0.8-0.7-1.7-1.1-2.2-1.1c-2.8,0-3.3,4.1-3.3,7.1v6.4h6.1
		c0.3,0,0.5,0.3,0.5,1c0,0.6-0.3,1.2-1.3,1.2c-0.3,0-4.1-0.2-5.3-0.2V90.7z"/>
	<path fill="#F1B82D" d="M328.5,60.2c0.1-0.4,0.3-0.5,0.6-0.5c0.2,0,3.8,0.2,5,0.2c0.8,0,5-0.2,5.4-0.2c0.5,0,0.5,0.4,0.5,0.8
		c0,0.4-0.2,0.6-0.6,0.6c-4.4,0-5,0.3-5,2.6c0,3.2,0.5,13.5,1,27.3c0,1.7,1.4,2.3,2.7,2.3c2.8,0,2.8,0.3,2.8,0.6
		c0,0.7-0.2,0.8-0.5,0.8c-0.4,0-1-0.1-7.8-0.1c-6.4,0-6.7,0.1-7.1,0.1c-0.5,0-0.5-0.3-0.5-0.8c0-0.3,0.1-0.7,2.4-0.7
		c3.2,0,3.3-0.8,3.3-2.8c0-3-0.7-18.9-1.1-28.1h-0.1c-3.6,9.2-8.1,19.8-11.4,27.7c-1.9,4.5-1.9,5.1-2.5,5.1c-0.6,0-0.7-0.4-1.8-3.8
		c-1.1-3.5-9.1-25.3-9.3-25.3c-0.8,3.6-4.1,19.9-4.1,24.9c0,1.5,0.8,2.3,2.5,2.3c1.2,0,2.7,0.1,2.7,0.4c0,0.9,0,1.1-0.5,1.1
		c-0.4,0-0.9-0.1-6-0.1c-4.5,0-4.8,0.1-5.1,0.1c-0.4,0-0.5-0.1-0.5-0.8c0-0.5,0.2-0.6,2.6-0.6c1.7,0,2.1-0.6,2.6-3.4
		c1.3-7.1,2.5-14.2,4-21.3c0.5-2.2,0.6-3.6,0.6-4.6c0-0.3-0.7-2.1-1.3-2.5c-0.4-0.2-2.7-0.4-4.2-0.4c-0.6,0-0.6-0.4-0.6-0.7
		c0-0.4,0.1-0.7,0.5-0.7c0.9,0,5.2,0.2,5.7,0.2c1.3,0,3.3-0.2,4-0.2c0.5,0,0.7,0.5,1.2,2.3c1,3.7,8.2,23.6,9.1,25.5
		C321.3,78.7,325,69.7,328.5,60.2z"/>
	<path fill="#F1B82D" d="M350.4,90.2c0,2.8,0.1,3.4,2.3,3.4c1.1,0,1.2,0,1.2,0.6c0,0.3,0,0.6-0.5,0.6c-0.2,0-0.9-0.1-4.1-0.1
		c-4.6,0-5.9,0.1-6.6,0.1c-0.4,0-0.4-0.3-0.4-0.5c0-0.6,0-0.7,1.9-0.7c1.3,0,1.7-0.5,2-1.2c0.2-0.4,0.3-3.9,0.3-7.1v-6.7
		c0-1.7-0.4-2.7-2.9-3c-0.4,0-0.4-0.2-0.4-0.6c0-0.4,0.1-0.6,0.4-0.7c5.6-1.1,6.3-2.4,6.9-2.4c0.2,0,0.3,0.2,0.3,0.5
		c0,0.2-0.2,0.7-0.2,7.1V90.2z M345.9,62.5c0-1.3,1.1-2.6,2.6-2.6s2.6,1.3,2.6,2.6c0,1.3-1.1,2.6-2.6,2.6S345.9,63.8,345.9,62.5z"/>
	<path fill="#F1B82D" d="M371.7,88.8c0,2.4-1.3,6.7-8,6.7c-0.9,0-3.7-0.4-5.7-0.4c-0.1,0-0.2-0.1-0.2-0.2c0-0.5-1.1-4.8-1.1-5.3
		c0-0.3,0.7-0.3,0.9-0.3c1.2,0,1.5,5,6.2,5c3.5,0,4.5-2.7,4.5-4.4c0-5.2-11-3.5-11-10.5c0-4,3.3-6.7,7.5-6.7c2.3,0,5.1,0.4,5.3,0.4
		c0.6,0.1,0.7,1.1,0.7,1.4c0.1,2,0.5,3.3,0.5,3.9c0,0.3-0.3,0.4-0.5,0.4c-0.4,0-0.7-0.1-1-0.7c-0.3-0.8-1.6-4.2-5.1-4.2
		c-2.3,0-3.9,1.3-3.9,3.7c0,1.7,1.2,2.8,2.3,3.3C368.2,83.4,371.7,83.2,371.7,88.8z"/>
	<path fill="#F1B82D" d="M389.9,88.8c0,2.4-1.3,6.7-8,6.7c-0.9,0-3.7-0.4-5.7-0.4c-0.1,0-0.2-0.1-0.2-0.2c0-0.5-1.1-4.8-1.1-5.3
		c0-0.3,0.7-0.3,0.9-0.3c1.2,0,1.5,5,6.2,5c3.5,0,4.5-2.7,4.5-4.4c0-5.2-11-3.5-11-10.5c0-4,3.3-6.7,7.5-6.7c2.3,0,5.1,0.4,5.3,0.4
		c0.6,0.1,0.7,1.1,0.7,1.4c0.1,2,0.5,3.3,0.5,3.9c0,0.3-0.3,0.4-0.5,0.4c-0.4,0-0.7-0.1-1-0.7c-0.3-0.8-1.6-4.2-5.1-4.2
		c-2.3,0-3.9,1.3-3.9,3.7c0,1.7,1.2,2.8,2.3,3.3C386.4,83.4,389.9,83.2,389.9,88.8z"/>
	<path fill="#F1B82D" d="M404.9,95.5c-6.7,0-11.4-4.9-11.4-11.4c0-6.5,4.9-11.4,11.4-11.4c6.6,0,11.5,4.8,11.5,11.4
		C416.4,90.9,411.8,95.5,404.9,95.5z M404.9,73.9c-5.1,0-6.7,5.3-6.7,10.1c0,4.2,1,10.1,6.7,10.1c5.8,0,6.8-6,6.8-10.1
		C411.7,79.2,410.1,73.9,404.9,73.9z"/>
	<path fill="#F1B82D" d="M422.5,79.5c0-4.3-0.5-4.6-3.1-4.6c-0.4,0-1.1,0-1.1-0.5c0-0.4,0-1,0.5-1c0.5,0,1.3,0.1,2.9,0.1
		c1.7,0,3.6-0.1,4.3-0.1c0.3,0,0.4,0,0.4,0.7v13.3c0,3.7,1.2,5.8,4.8,5.8c1.8,0,4.9-1.1,4.9-2.6V77.8c0-2.7-0.5-3-3.1-3
		c-0.9,0-1.6,0-1.6-0.5c0-0.7,0-1,0.3-1c0.7,0,1.3,0.1,4.3,0.1c1.2,0,2.5-0.1,3.7-0.1c0.4,0,0.7,0.2,0.7,0.7c0,0.2-0.4,4-0.4,7.5
		v9.3c0,0.8,0,1.8,1.2,1.8c0.7,0,1.8-0.2,2.1-0.2c0.2,0,0.3,0,0.3,0.9c0,0.3,0,0.4-1.6,0.6c-4.2,0.7-5.4,1.3-5.7,1.3
		c-0.3,0-0.6-0.3-0.6-0.7c0-0.6,0.1-1.4,0.1-1.9c-2.5,1.8-5.5,2.7-7.3,2.7c-4.9,0-6.3-3.2-6.3-8.3V79.5z"/>
	<path fill="#F1B82D" d="M449.4,78.6c0-1.7-0.4-2.7-2.9-3c-0.4,0-0.4-0.2-0.4-0.6c0-0.4,0.1-0.6,0.4-0.7c5.6-1.1,6.3-2.4,6.9-2.4
		c0.1,0,0.2,0.3,0.2,0.5c0,0.6-0.2,1.8-0.2,4.5c1.6-1.8,4.3-4.3,6.9-4.3c1.7,0,3.2,0.9,3.2,2.8c0,1.3-1,2.5-2.4,2.5
		c-2,0-2.3-1.9-3.8-1.9c-0.8,0-2.2,0.7-3.4,2.1c-0.3,0.4-0.3,0.9-0.3,1.4v11.2c0,1.8,0,2.9,2.5,2.9c1.8,0,2,0,2,0.6
		c0,0.6-0.2,0.7-0.7,0.7c-1.8,0-3.3-0.1-5.6-0.1c-3.9,0-4.8,0.1-5.7,0.1c-0.3,0-0.4-0.3-0.4-0.6c0-0.5,0.6-0.6,1.5-0.6
		c2.1,0,2.5-0.4,2.5-2.5V78.6z"/>
	<path fill="#F1B82D" d="M472.6,90.2c0,2.8,0.1,3.4,2.3,3.4c1.1,0,1.2,0,1.2,0.6c0,0.3,0,0.6-0.5,0.6c-0.2,0-0.9-0.1-4.1-0.1
		c-4.6,0-5.9,0.1-6.6,0.1c-0.4,0-0.4-0.3-0.4-0.5c0-0.6,0.1-0.7,1.9-0.7c1.3,0,1.7-0.5,2-1.2c0.2-0.4,0.3-3.9,0.3-7.1v-6.7
		c0-1.7-0.4-2.7-2.9-3c-0.4,0-0.4-0.2-0.4-0.6c0-0.4,0.1-0.6,0.4-0.7c5.6-1.1,6.3-2.4,6.9-2.4c0.2,0,0.3,0.2,0.3,0.5
		c0,0.2-0.2,0.7-0.2,7.1V90.2z M468,62.5c0-1.3,1.1-2.6,2.6-2.6s2.6,1.3,2.6,2.6c0,1.3-1.1,2.6-2.6,2.6S468,63.8,468,62.5z"/>
</g>
<g>
</g>
<g>
</g>
<g>
</g>
<g>
</g>
<g>
</g>
<g>
</g>
<g>
</g>
<g>
</g>
<g>
</g>
<g>
</g>
<g>
</g>
<g>
</g>
<g>
</g>
<g>
</g>
<g>
</g>
</svg>
