<?xml version="1.0" encoding="utf-8"?>
<!-- Generator: Adobe Illustrator 18.1.0, SVG Export Plug-In . SVG Version: 6.00 Build 0)  -->
<!DOCTYPE svg PUBLIC "-//W3C//DTD SVG 1.0//EN" "http://www.w3.org/TR/2001/REC-SVG-20010904/DTD/svg10.dtd">
<svg version="1.0" id="Layer_1" xmlns="http://www.w3.org/2000/svg" xmlns:xlink="http://www.w3.org/1999/xlink" x="0px" y="0px"
	 width="334px" height="78px" viewBox="0 0 334 78" enable-background="new 0 0 334 78" xml:space="preserve">
<g>
	<path fill="#FFFFFF" d="M8.3,18.8c0,4.7,2,8.8,7.8,8.8c4.1,0,7.6-2.3,7.6-10.6V10c0-4.9-1-4.9-4.6-4.9c-0.3,0-0.3-0.2-0.3-0.5
		c0-0.4,0.1-0.5,0.3-0.5c0.6,0,2.9,0.1,5.1,0.1c1.1,0,4.1-0.1,4.6-0.1c0.4,0,0.5,0.1,0.5,0.6c0,0.1,0,0.5-0.3,0.5
		c-3.4,0-4.1,0-4.1,4.1v8.3c0,9.5-6,12-10.1,12c-7.8,0-10-5.3-10-9.1v-8c0-2.5,0-3.3-0.1-4.9c0-2.1-0.6-2.3-3.7-2.3
		c-0.4,0-0.4-0.3-0.4-0.6c0-0.2,0.1-0.5,0.3-0.5c0.3,0,3.3,0.1,5.5,0.1c2.2,0,5.3-0.1,5.6-0.1c0.2,0,0.3,0.2,0.3,0.5
		c0,0.3,0,0.6-0.4,0.6c-3,0-3.6,0.3-3.7,2.3c0,1.6-0.1,2.5-0.1,4.9V18.8z"/>
	<path fill="#FFFFFF" d="M35.2,25.8c0,2,0.1,2.4,1.6,2.4c0.9,0,1,0,1,0.5c0,0.2,0,0.5-0.4,0.5c-0.2,0-0.6-0.1-3.1-0.1
		c-3.3,0-4.2,0.1-4.7,0.1c-0.3,0-0.3-0.2-0.3-0.4c0-0.5,0-0.5,1.3-0.5c0.9,0,1.2-0.4,1.4-0.8c0.1-0.3,0.2-2.8,0.2-5v-4.8
		c0-1.2-0.3-1.9-2.1-2.1c-0.3,0-0.3-0.2-0.3-0.4c0-0.3,0.1-0.5,0.3-0.5c4-0.8,4.5-1.7,4.9-1.7c0.1,0,0.1,0.1,0.1,0.4
		c0,0.2-0.1,1-0.1,2.5c1.8-1.2,3.6-2.4,5.5-2.4c1.2,0,4.6,0.2,4.6,5.3V27c0,0.6,0.1,1.3,2.3,1.3c0.4,0,0.4,0.2,0.4,0.5
		c0,0.2,0,0.5-0.5,0.5c-1,0-1.7-0.1-3.5-0.1c-2.8,0-3.4,0.1-3.7,0.1c-0.2,0-0.2-0.2-0.2-0.4c0-0.2,0.1-0.5,0.5-0.5
		c1.7,0,2-0.1,2-1.3v-6.3c0-3.3-0.3-5.4-3.9-5.4c-1.3,0-3.2,1.2-3.4,1.6V25.8z"/>
	<path fill="#FFFFFF" d="M54.9,25.8c0,2,0.1,2.4,1.6,2.4c0.8,0,0.8,0,0.8,0.5c0,0.2,0,0.5-0.4,0.5c-0.2,0-0.6-0.1-2.9-0.1
		c-3.3,0-4.2,0.1-4.7,0.1c-0.3,0-0.3-0.2-0.3-0.4c0-0.5,0-0.5,1.3-0.5c0.9,0,1.2-0.4,1.4-0.8c0.1-0.3,0.2-2.8,0.2-5v-4.8
		c0-1.2-0.3-1.9-2.1-2.1c-0.3,0-0.3-0.2-0.3-0.4c0-0.3,0.1-0.5,0.3-0.5c4-0.8,4.5-1.7,4.9-1.7c0.1,0,0.2,0.2,0.2,0.4
		c0,0.1-0.2,0.5-0.2,5V25.8z M51.6,6.1c0-0.9,0.8-1.9,1.8-1.9c1,0,1.8,0.9,1.8,1.9s-0.8,1.9-1.8,1.9C52.4,7.9,51.6,7,51.6,6.1z"/>
	<path fill="#FFFFFF" d="M70.9,15.8c0-1-1.8-1-2.3-1c-0.2,0-0.3-0.2-0.3-0.5c0-0.2,0.1-0.4,0.5-0.4c0.9,0,2,0.1,3,0.1
		c1,0,2.1-0.1,3.1-0.1c0.2,0,0.3,0.2,0.3,0.4c0,0.2,0,0.3-0.4,0.4c-2,0.3-2.1,0.5-3.3,3.2c-1.2,3-3.3,7.4-4,8.9
		c-1,2.3-1.3,2.8-1.6,2.8c-0.4,0-0.6-0.7-1.3-2.2c-1.2-2.6-4.1-11.2-4.6-11.9c-0.4-0.5-0.7-0.6-1.2-0.6c-0.9,0-1.1-0.1-1.1-0.6
		c0-0.2,0.2-0.4,0.4-0.4c1.1,0,2.2,0.1,3.3,0.1c0.7,0,3.5-0.1,4.2-0.1c0.2,0,0.3,0.3,0.3,0.5c0,0.2-0.1,0.4-0.3,0.4
		c-1.1,0-2,0.1-2,0.8c0,1.2,2.8,8.2,3.6,9.8C70.4,18.1,70.9,16.8,70.9,15.8z"/>
	<path fill="#FFFFFF" d="M78.9,19.6c-0.1,0.7-0.1,1.3-0.1,2c0,2.3,1.9,5.8,5.7,5.8c1.6,0,3-0.5,4.1-2.1c0.2-0.3,0.4-0.6,0.5-0.6
		c0.2,0,0.6,0.3,0.6,0.4s-1.4,4.4-6,4.4c-5,0-7.6-3.1-7.6-8c0-5,3.4-8.4,7-8.4c5.8,0,6.3,5,6.3,6.1c0,0.4-0.1,0.4-0.4,0.4H78.9z
		 M84.9,18.5c0.7,0,1.2-0.2,1.2-1.2c0-2.7-1.9-3.3-3.1-3.3c-2.5,0-3.6,2.1-3.9,4.5H84.9z"/>
	<path fill="#FFFFFF" d="M94.2,17.5c0-1.2-0.3-1.9-2.1-2.1c-0.3,0-0.3-0.2-0.3-0.4c0-0.3,0.1-0.5,0.3-0.5c4-0.8,4.5-1.7,4.9-1.7
		c0.1,0,0.1,0.2,0.1,0.4c0,0.4-0.2,1.3-0.2,3.2c1.2-1.3,3-3,4.9-3c1.2,0,2.2,0.7,2.2,2c0,0.9-0.7,1.8-1.7,1.8
		c-1.4,0-1.6-1.3-2.7-1.3c-0.6,0-1.5,0.5-2.4,1.5c-0.2,0.3-0.2,0.7-0.2,1v7.9c0,1.3,0,2.1,1.8,2.1c1.3,0,1.4,0,1.4,0.4
		c0,0.5-0.1,0.5-0.5,0.5c-1.3,0-2.4-0.1-4-0.1c-2.8,0-3.4,0.1-4.1,0.1c-0.2,0-0.3-0.2-0.3-0.5c0-0.3,0.4-0.5,1.1-0.5
		c1.5,0,1.8-0.3,1.8-1.8V17.5z"/>
	<path fill="#FFFFFF" d="M116,24.8c0,1.7-0.9,4.8-5.7,4.8c-0.6,0-2.7-0.3-4-0.3c-0.1,0-0.2-0.1-0.2-0.2c0-0.4-0.8-3.4-0.8-3.8
		c0-0.2,0.5-0.2,0.6-0.2c0.8,0,1,3.5,4.4,3.5c2.5,0,3.2-1.9,3.2-3.1c0-3.7-7.8-2.5-7.8-7.5c0-2.9,2.4-4.8,5.3-4.8
		c1.6,0,3.6,0.3,3.8,0.3c0.5,0.1,0.5,0.8,0.5,1c0.1,1.4,0.4,2.3,0.4,2.8c0,0.2-0.2,0.3-0.4,0.3c-0.3,0-0.5,0-0.7-0.5
		c-0.2-0.6-1.2-3-3.6-3c-1.6,0-2.8,0.9-2.8,2.6c0,1.2,0.9,2,1.6,2.3C113.5,20.9,116,20.8,116,24.8z"/>
	<path fill="#FFFFFF" d="M123.6,25.8c0,2,0.1,2.4,1.6,2.4c0.8,0,0.8,0,0.8,0.5c0,0.2,0,0.5-0.3,0.5c-0.2,0-0.6-0.1-2.9-0.1
		c-3.3,0-4.2,0.1-4.7,0.1c-0.3,0-0.3-0.2-0.3-0.4c0-0.5,0-0.5,1.3-0.5c0.9,0,1.2-0.4,1.4-0.8c0.1-0.3,0.2-2.8,0.2-5v-4.8
		c0-1.2-0.3-1.9-2.1-2.1c-0.3,0-0.3-0.2-0.3-0.4c0-0.3,0.1-0.5,0.3-0.5c4-0.8,4.5-1.7,4.9-1.7c0.1,0,0.2,0.2,0.2,0.4
		c0,0.1-0.2,0.5-0.2,5V25.8z M120.3,6.1c0-0.9,0.8-1.9,1.8-1.9c1.1,0,1.8,0.9,1.8,1.9s-0.8,1.9-1.8,1.9C121.1,7.9,120.3,7,120.3,6.1
		z"/>
	<path fill="#FFFFFF" d="M133.1,22.9c0,3.7,0.3,5,3.1,5c1.2,0,2.2-0.8,2.4-0.8c0.1,0,0.4,0.4,0.4,0.6s-1.5,1.9-4.7,1.9
		c-4,0-4-3.5-4-4.3V16c0-0.3-0.1-0.5-0.4-0.5h-1.8c-0.1,0-0.2-0.1-0.2-0.3c0-0.1,0-0.3,0.2-0.5c3.3-2.5,3.9-4.3,4.6-4.3
		c0.2,0,0.4,0.1,0.4,0.5c0,0.6-0.1,1.2-0.1,3.2h5.4c0.2,0,0.4,0.2,0.4,0.7c0,0.5-0.2,0.9-0.9,0.9c-0.2,0-1.9-0.2-4.8-0.2V22.9z"/>
	<path fill="#FFFFFF" d="M152.1,16c0-1.2-1.6-1.2-2.7-1.2c-0.3,0-0.3-0.2-0.3-0.5c0-0.2,0.1-0.5,0.3-0.5c1.1,0,2.3,0.1,3.4,0.1
		c1.1,0,2.2-0.1,3.3-0.1c0.2,0,0.2,0.3,0.2,0.5c0,0.3-0.1,0.4-0.6,0.5c-1.2,0.1-1.7,0.3-2.2,1.5c-1.3,2.9-6.1,13.1-6.9,15
		c-2.7,6.8-3.9,7.2-5,7.2c-1.1,0-2-1-2-2.1c0-1,1-1.9,2-1.9c0.9,0,1.3,0.6,1.8,0.6c0.6,0,2.3-3.4,2.3-5c0-0.9-0.8-2.9-1.2-3.9
		c-2.2-5.7-2.9-8.7-3.6-10.7c-0.3-0.8-2.1-0.8-2.5-0.8c-0.2,0-0.3-0.2-0.3-0.5c0-0.3,0.2-0.4,0.4-0.4c0.4,0,2.6,0.1,3.9,0.1
		c1.2,0,2.4-0.1,3.5-0.1c0.3,0,0.4,0.2,0.4,0.5c0,0.2-0.1,0.5-0.4,0.5c-0.2,0-1.7,0-1.7,0.8c0,1.7,1.2,5.1,3.5,11
		C149.2,23.2,152.1,17.1,152.1,16z"/>
	<path fill="#FFFFFF" d="M174,29.5c-4.8,0-8.1-3.5-8.1-8.1c0-4.6,3.5-8.1,8.1-8.1c4.7,0,8.2,3.4,8.2,8.1
		C182.1,26.3,178.9,29.5,174,29.5z M174,14.2c-3.6,0-4.8,3.8-4.8,7.2c0,3,0.7,7.2,4.8,7.2c4.1,0,4.8-4.2,4.8-7.2
		C178.8,18,177.7,14.2,174,14.2z"/>
	<path fill="#FFFFFF" d="M190.1,26.1c0,1.3,0,2.1,1.8,2.1c1.3,0,1.4,0,1.4,0.4c0,0.5-0.1,0.5-0.5,0.5c-1.3,0-2.4-0.1-4-0.1
		c-2.8,0-3.4,0.1-3.7,0.1c-0.2,0-0.3-0.2-0.3-0.5c0-0.3,0.1-0.5,0.7-0.5c1.5,0,1.8-0.3,1.8-1.8v-9.8c0-0.4,0-1.1-0.7-1.1h-1.9
		c-0.2,0-0.4,0-0.4-0.5c0-0.3,0.2-0.4,1.1-0.6c1.4-0.3,1.7-0.4,1.8-2c0.4-5.3,1.9-8.3,6.1-9.3c0.6-0.1,1.5-0.3,2.1-0.3
		c0.9,0,2.2,0.4,2.2,1.5c0,1-0.6,1.7-1.6,1.7c-0.3,0-1.1-0.1-1.9-0.8c-0.6-0.5-1.2-0.8-1.5-0.8c-2,0-2.3,2.9-2.3,5.1v4.5h4.3
		c0.2,0,0.3,0.2,0.3,0.7c0,0.5-0.2,0.9-0.9,0.9c-0.2,0-2.9-0.2-3.7-0.2V26.1z"/>
	<path fill="#FFFFFF" d="M227.9,4.5c0.1-0.3,0.2-0.4,0.4-0.4c0.2,0,2.7,0.1,3.5,0.1c0.6,0,3.6-0.1,3.8-0.1c0.4,0,0.4,0.3,0.4,0.6
		c0,0.3-0.1,0.5-0.4,0.5c-3.2,0-3.5,0.2-3.5,1.9c0,2.3,0.4,9.6,0.7,19.4c0,1.2,1,1.6,1.9,1.6c2,0,2,0.2,2,0.5c0,0.5-0.2,0.6-0.4,0.6
		c-0.3,0-0.7-0.1-5.6-0.1c-4.6,0-4.8,0.1-5,0.1c-0.4,0-0.4-0.2-0.4-0.6c0-0.2,0.1-0.5,1.7-0.5c2.3,0,2.3-0.6,2.3-2
		c0-2.1-0.5-13.4-0.8-20h-0.1c-2.6,6.5-5.8,14.1-8.1,19.7c-1.3,3.2-1.3,3.6-1.8,3.6s-0.5-0.3-1.3-2.7c-0.8-2.5-6.5-18-6.6-18
		c-0.6,2.6-2.9,14.2-2.9,17.7c0,1.1,0.6,1.6,1.8,1.6c0.9,0,1.9,0.1,1.9,0.3c0,0.7,0,0.8-0.4,0.8c-0.3,0-0.6-0.1-4.2-0.1
		c-3.2,0-3.4,0.1-3.6,0.1c-0.3,0-0.4,0-0.4-0.6c0-0.4,0.2-0.5,1.9-0.5c1.2,0,1.5-0.5,1.9-2.5c0.9-5,1.8-10.1,2.9-15.2
		c0.4-1.6,0.5-2.6,0.5-3.3c0-0.2-0.5-1.5-0.9-1.8c-0.3-0.2-1.9-0.3-3-0.3c-0.4,0-0.4-0.3-0.4-0.5c0-0.3,0.1-0.5,0.4-0.5
		c0.7,0,3.7,0.1,4.1,0.1c0.9,0,2.4-0.1,2.8-0.1c0.4,0,0.5,0.4,0.8,1.6c0.7,2.6,5.8,16.8,6.4,18.1C222.7,17.6,225.4,11.2,227.9,4.5z"
		/>
	<path fill="#FFFFFF" d="M243.5,25.8c0,2,0.1,2.4,1.6,2.4c0.8,0,0.8,0,0.8,0.5c0,0.2,0,0.5-0.3,0.5c-0.2,0-0.6-0.1-2.9-0.1
		c-3.3,0-4.2,0.1-4.7,0.1c-0.3,0-0.3-0.2-0.3-0.4c0-0.5,0-0.5,1.3-0.5c0.9,0,1.2-0.4,1.4-0.8c0.1-0.3,0.2-2.8,0.2-5v-4.8
		c0-1.2-0.3-1.9-2.1-2.1c-0.3,0-0.3-0.2-0.3-0.4c0-0.3,0.1-0.5,0.3-0.5c4-0.8,4.5-1.7,4.9-1.7c0.1,0,0.2,0.2,0.2,0.4
		c0,0.1-0.2,0.5-0.2,5V25.8z M240.2,6.1c0-0.9,0.8-1.9,1.8-1.9c1.1,0,1.8,0.9,1.8,1.9s-0.8,1.9-1.8,1.9C241,7.9,240.2,7,240.2,6.1z"
		/>
	<path fill="#FFFFFF" d="M258.6,24.8c0,1.7-0.9,4.8-5.7,4.8c-0.6,0-2.7-0.3-4-0.3c-0.1,0-0.2-0.1-0.2-0.2c0-0.4-0.8-3.4-0.8-3.8
		c0-0.2,0.5-0.2,0.6-0.2c0.8,0,1,3.5,4.4,3.5c2.5,0,3.2-1.9,3.2-3.1c0-3.7-7.8-2.5-7.8-7.5c0-2.9,2.4-4.8,5.3-4.8
		c1.6,0,3.6,0.3,3.8,0.3c0.5,0.1,0.5,0.8,0.5,1c0.1,1.4,0.4,2.3,0.4,2.8c0,0.2-0.2,0.3-0.4,0.3c-0.3,0-0.5,0-0.7-0.5
		c-0.2-0.6-1.2-3-3.6-3c-1.6,0-2.8,0.9-2.8,2.6c0,1.2,0.9,2,1.6,2.3C256.1,20.9,258.6,20.8,258.6,24.8z"/>
	<path fill="#FFFFFF" d="M271.5,24.8c0,1.7-0.9,4.8-5.7,4.8c-0.6,0-2.7-0.3-4-0.3c-0.1,0-0.2-0.1-0.2-0.2c0-0.4-0.8-3.4-0.8-3.8
		c0-0.2,0.5-0.2,0.6-0.2c0.8,0,1,3.5,4.4,3.5c2.5,0,3.2-1.9,3.2-3.1c0-3.7-7.8-2.5-7.8-7.5c0-2.9,2.4-4.8,5.3-4.8
		c1.6,0,3.6,0.3,3.8,0.3c0.5,0.1,0.5,0.8,0.5,1c0.1,1.4,0.4,2.3,0.4,2.8c0,0.2-0.2,0.3-0.4,0.3c-0.3,0-0.5,0-0.7-0.5
		c-0.2-0.6-1.2-3-3.6-3c-1.6,0-2.8,0.9-2.8,2.6c0,1.2,0.9,2,1.6,2.3C269,20.9,271.5,20.8,271.5,24.8z"/>
	<path fill="#FFFFFF" d="M282.2,29.5c-4.8,0-8.1-3.5-8.1-8.1c0-4.6,3.5-8.1,8.1-8.1c4.7,0,8.2,3.4,8.2,8.1
		C290.4,26.3,287.1,29.5,282.2,29.5z M282.2,14.2c-3.6,0-4.8,3.8-4.8,7.2c0,3,0.7,7.2,4.8,7.2c4.1,0,4.8-4.2,4.8-7.2
		C287,18,285.9,14.2,282.2,14.2z"/>
	<path fill="#FFFFFF" d="M294.7,18.2c0-3.1-0.3-3.3-2.2-3.3c-0.3,0-0.8,0-0.8-0.4c0-0.3,0-0.7,0.4-0.7c0.4,0,0.9,0.1,2.1,0.1
		c1.2,0,2.6-0.1,3-0.1c0.2,0,0.3,0,0.3,0.5v9.5c0,2.6,0.8,4.1,3.4,4.1c1.3,0,3.5-0.8,3.5-1.9V17c0-1.9-0.4-2.1-2.2-2.1
		c-0.6,0-1.1,0-1.1-0.4c0-0.5,0-0.7,0.2-0.7c0.5,0,0.9,0.1,3,0.1c0.9,0,1.8-0.1,2.7-0.1c0.3,0,0.5,0.1,0.5,0.5
		c0,0.1-0.3,2.8-0.3,5.3v6.6c0,0.6,0,1.3,0.9,1.3c0.5,0,1.3-0.1,1.5-0.1c0.1,0,0.2,0,0.2,0.7c0,0.2,0,0.3-1.2,0.5
		c-3,0.5-3.8,0.9-4,0.9c-0.2,0-0.4-0.2-0.4-0.5c0-0.4,0.1-1,0.1-1.3c-1.8,1.3-3.9,1.9-5.2,1.9c-3.5,0-4.4-2.2-4.4-5.9V18.2z"/>
	<path fill="#FFFFFF" d="M313.8,17.5c0-1.2-0.3-1.9-2.1-2.1c-0.3,0-0.3-0.2-0.3-0.4c0-0.3,0.1-0.5,0.3-0.5c4-0.8,4.5-1.7,4.9-1.7
		c0.1,0,0.1,0.2,0.1,0.4c0,0.4-0.2,1.3-0.2,3.2c1.2-1.3,3-3,4.9-3c1.2,0,2.2,0.7,2.2,2c0,0.9-0.7,1.8-1.7,1.8
		c-1.4,0-1.6-1.3-2.7-1.3c-0.6,0-1.5,0.5-2.4,1.5c-0.2,0.3-0.2,0.7-0.2,1v7.9c0,1.3,0,2.1,1.8,2.1c1.3,0,1.4,0,1.4,0.4
		c0,0.5-0.1,0.5-0.5,0.5c-1.3,0-2.4-0.1-4-0.1c-2.8,0-3.4,0.1-4.1,0.1c-0.2,0-0.3-0.2-0.3-0.5c0-0.3,0.4-0.5,1.1-0.5
		c1.5,0,1.8-0.3,1.8-1.8V17.5z"/>
	<path fill="#FFFFFF" d="M330.3,25.8c0,2,0.1,2.4,1.6,2.4c0.8,0,0.8,0,0.8,0.5c0,0.2,0,0.5-0.3,0.5c-0.2,0-0.6-0.1-2.9-0.1
		c-3.3,0-4.2,0.1-4.7,0.1c-0.3,0-0.3-0.2-0.3-0.4c0-0.5,0-0.5,1.3-0.5c0.9,0,1.2-0.4,1.4-0.8c0.1-0.3,0.2-2.8,0.2-5v-4.8
		c0-1.2-0.3-1.9-2.1-2.1c-0.3,0-0.3-0.2-0.3-0.4c0-0.3,0.1-0.5,0.3-0.5c4-0.8,4.5-1.7,4.9-1.7c0.1,0,0.2,0.2,0.2,0.4
		c0,0.1-0.2,0.5-0.2,5V25.8z M327,6.1c0-0.9,0.8-1.9,1.8-1.9c1.1,0,1.8,0.9,1.8,1.9s-0.8,1.9-1.8,1.9C327.8,7.9,327,7,327,6.1z"/>
</g>
<g>
	<path fill="#F1B82D" d="M8.3,57.8c0,4.7,2,8.8,7.8,8.8c4.1,0,7.6-2.3,7.6-10.6V49c0-4.9-1-4.9-4.6-4.9c-0.3,0-0.3-0.2-0.3-0.5
		c0-0.4,0.1-0.5,0.3-0.5c0.6,0,2.9,0.1,5.1,0.1c1.1,0,4.1-0.1,4.6-0.1c0.4,0,0.5,0.1,0.5,0.6c0,0.1,0,0.5-0.3,0.5
		c-3.4,0-4.1,0-4.1,4.1v8.3c0,9.5-6,12-10.1,12c-7.8,0-10-5.3-10-9.1v-8c0-2.5,0-3.3-0.1-4.9c0-2.1-0.6-2.3-3.7-2.3
		c-0.4,0-0.4-0.3-0.4-0.6c0-0.2,0.1-0.5,0.3-0.5c0.3,0,3.3,0.1,5.5,0.1c2.2,0,5.3-0.1,5.6-0.1c0.2,0,0.3,0.2,0.3,0.5
		c0,0.3,0,0.6-0.4,0.6c-3,0-3.6,0.3-3.7,2.3c0,1.6-0.1,2.5-0.1,4.9V57.8z"/>
	<path fill="#F1B82D" d="M35.2,64.8c0,2,0.1,2.4,1.6,2.4c0.9,0,1,0,1,0.5c0,0.2,0,0.5-0.4,0.5c-0.2,0-0.6-0.1-3.1-0.1
		c-3.3,0-4.2,0.1-4.7,0.1c-0.3,0-0.3-0.2-0.3-0.4c0-0.5,0-0.5,1.3-0.5c0.9,0,1.2-0.3,1.4-0.8c0.1-0.3,0.2-2.8,0.2-5v-4.8
		c0-1.2-0.3-1.9-2.1-2.1c-0.3,0-0.3-0.2-0.3-0.4c0-0.3,0.1-0.5,0.3-0.5c4-0.8,4.5-1.7,4.9-1.7c0.1,0,0.1,0.1,0.1,0.4
		c0,0.2-0.1,1-0.1,2.5c1.8-1.2,3.6-2.4,5.5-2.4c1.2,0,4.6,0.2,4.6,5.3V66c0,0.6,0.1,1.3,2.3,1.3c0.4,0,0.4,0.2,0.4,0.5
		c0,0.2,0,0.5-0.5,0.5c-1,0-1.7-0.1-3.5-0.1c-2.8,0-3.4,0.1-3.7,0.1c-0.2,0-0.2-0.2-0.2-0.4c0-0.2,0.1-0.5,0.5-0.5
		c1.7,0,2-0.1,2-1.3v-6.3c0-3.3-0.3-5.4-3.9-5.4c-1.3,0-3.2,1.2-3.4,1.6V64.8z"/>
	<path fill="#F1B82D" d="M54.9,64.8c0,2,0.1,2.4,1.6,2.4c0.8,0,0.8,0,0.8,0.5c0,0.2,0,0.5-0.4,0.5c-0.2,0-0.6-0.1-2.9-0.1
		c-3.3,0-4.2,0.1-4.7,0.1c-0.3,0-0.3-0.2-0.3-0.4c0-0.5,0-0.5,1.3-0.5c0.9,0,1.2-0.3,1.4-0.8c0.1-0.3,0.2-2.8,0.2-5v-4.8
		c0-1.2-0.3-1.9-2.1-2.1c-0.3,0-0.3-0.2-0.3-0.4c0-0.3,0.1-0.5,0.3-0.5c4-0.8,4.5-1.7,4.9-1.7c0.1,0,0.2,0.2,0.2,0.4
		c0,0.1-0.2,0.5-0.2,5V64.8z M51.6,45.1c0-0.9,0.8-1.9,1.8-1.9c1,0,1.8,0.9,1.8,1.9s-0.8,1.9-1.8,1.9C52.4,46.9,51.6,46,51.6,45.1z"
		/>
	<path fill="#F1B82D" d="M70.9,54.8c0-1-1.8-1-2.3-1c-0.2,0-0.3-0.2-0.3-0.5c0-0.2,0.1-0.4,0.5-0.4c0.9,0,2,0.1,3,0.1
		c1,0,2.1-0.1,3.1-0.1c0.2,0,0.3,0.2,0.3,0.4c0,0.2,0,0.3-0.4,0.4c-2,0.3-2.1,0.5-3.3,3.2c-1.2,3-3.3,7.4-4,8.9
		c-1,2.3-1.3,2.8-1.6,2.8c-0.4,0-0.6-0.7-1.3-2.2c-1.2-2.6-4.1-11.2-4.6-11.9c-0.4-0.5-0.7-0.6-1.2-0.6c-0.9,0-1.1-0.1-1.1-0.6
		c0-0.2,0.2-0.4,0.4-0.4c1.1,0,2.2,0.1,3.3,0.1c0.7,0,3.5-0.1,4.2-0.1c0.2,0,0.3,0.3,0.3,0.5c0,0.2-0.1,0.4-0.3,0.4
		c-1.1,0-2,0.1-2,0.8c0,1.2,2.8,8.2,3.6,9.8C70.4,57.1,70.9,55.8,70.9,54.8z"/>
	<path fill="#F1B82D" d="M78.9,58.6c-0.1,0.7-0.1,1.3-0.1,2c0,2.3,1.9,5.8,5.7,5.8c1.6,0,3-0.5,4.1-2.1c0.2-0.3,0.4-0.6,0.5-0.6
		c0.2,0,0.6,0.3,0.6,0.4c0,0.1-1.4,4.4-6,4.4c-5,0-7.6-3.1-7.6-8c0-5,3.4-8.4,7-8.4c5.8,0,6.3,5,6.3,6.1c0,0.3-0.1,0.4-0.4,0.4H78.9
		z M84.9,57.5c0.7,0,1.2-0.2,1.2-1.2c0-2.7-1.9-3.3-3.1-3.3c-2.5,0-3.6,2.1-3.9,4.5H84.9z"/>
	<path fill="#F1B82D" d="M94.2,56.5c0-1.2-0.3-1.9-2.1-2.1c-0.3,0-0.3-0.2-0.3-0.4c0-0.3,0.1-0.5,0.3-0.5c4-0.8,4.5-1.7,4.9-1.7
		c0.1,0,0.1,0.2,0.1,0.4c0,0.4-0.2,1.3-0.2,3.2c1.2-1.3,3-3,4.9-3c1.2,0,2.2,0.7,2.2,2c0,0.9-0.7,1.8-1.7,1.8
		c-1.4,0-1.6-1.3-2.7-1.3c-0.6,0-1.5,0.5-2.4,1.5c-0.2,0.3-0.2,0.7-0.2,1v7.9c0,1.3,0,2.1,1.8,2.1c1.3,0,1.4,0,1.4,0.4
		c0,0.5-0.1,0.5-0.5,0.5c-1.3,0-2.4-0.1-4-0.1c-2.8,0-3.4,0.1-4.1,0.1c-0.2,0-0.3-0.2-0.3-0.5c0-0.3,0.4-0.5,1.1-0.5
		c1.5,0,1.8-0.3,1.8-1.8V56.5z"/>
	<path fill="#F1B82D" d="M116,63.8c0,1.7-0.9,4.8-5.7,4.8c-0.6,0-2.7-0.3-4-0.3c-0.1,0-0.2-0.1-0.2-0.2c0-0.3-0.8-3.4-0.8-3.8
		c0-0.2,0.5-0.2,0.6-0.2c0.8,0,1,3.5,4.4,3.5c2.5,0,3.2-1.9,3.2-3.1c0-3.7-7.8-2.5-7.8-7.5c0-2.9,2.4-4.8,5.3-4.8
		c1.6,0,3.6,0.3,3.8,0.3c0.5,0.1,0.5,0.8,0.5,1c0.1,1.4,0.4,2.3,0.4,2.8c0,0.2-0.2,0.3-0.4,0.3c-0.3,0-0.5,0-0.7-0.5
		c-0.2-0.6-1.2-3-3.6-3c-1.6,0-2.8,0.9-2.8,2.6c0,1.2,0.9,2,1.6,2.3C113.5,59.9,116,59.8,116,63.8z"/>
	<path fill="#F1B82D" d="M123.6,64.8c0,2,0.1,2.4,1.6,2.4c0.8,0,0.8,0,0.8,0.5c0,0.2,0,0.5-0.3,0.5c-0.2,0-0.6-0.1-2.9-0.1
		c-3.3,0-4.2,0.1-4.7,0.1c-0.3,0-0.3-0.2-0.3-0.4c0-0.5,0-0.5,1.3-0.5c0.9,0,1.2-0.3,1.4-0.8c0.1-0.3,0.2-2.8,0.2-5v-4.8
		c0-1.2-0.3-1.9-2.1-2.1c-0.3,0-0.3-0.2-0.3-0.4c0-0.3,0.1-0.5,0.3-0.5c4-0.8,4.5-1.7,4.9-1.7c0.1,0,0.2,0.2,0.2,0.4
		c0,0.1-0.2,0.5-0.2,5V64.8z M120.3,45.1c0-0.9,0.8-1.9,1.8-1.9c1.1,0,1.8,0.9,1.8,1.9s-0.8,1.9-1.8,1.9
		C121.1,46.9,120.3,46,120.3,45.1z"/>
	<path fill="#F1B82D" d="M133.1,61.9c0,3.7,0.3,5,3.1,5c1.2,0,2.2-0.8,2.4-0.8c0.1,0,0.4,0.4,0.4,0.6s-1.5,1.9-4.7,1.9
		c-4,0-4-3.5-4-4.3V55c0-0.3-0.1-0.5-0.4-0.5h-1.8c-0.1,0-0.2-0.1-0.2-0.3c0-0.1,0-0.3,0.2-0.5c3.3-2.5,3.9-4.3,4.6-4.3
		c0.2,0,0.4,0.1,0.4,0.5c0,0.6-0.1,1.2-0.1,3.2h5.4c0.2,0,0.4,0.2,0.4,0.7c0,0.5-0.2,0.9-0.9,0.9c-0.2,0-1.9-0.2-4.8-0.2V61.9z"/>
	<path fill="#F1B82D" d="M152.1,55c0-1.2-1.6-1.2-2.7-1.2c-0.3,0-0.3-0.2-0.3-0.5c0-0.2,0.1-0.5,0.3-0.5c1.1,0,2.3,0.1,3.4,0.1
		c1.1,0,2.2-0.1,3.3-0.1c0.2,0,0.2,0.3,0.2,0.5c0,0.3-0.1,0.4-0.6,0.5c-1.2,0.1-1.7,0.3-2.2,1.5c-1.3,2.9-6.1,13.1-6.9,15
		c-2.7,6.8-3.9,7.2-5,7.2c-1.1,0-2-1-2-2.1c0-1,1-1.9,2-1.9c0.9,0,1.3,0.6,1.8,0.6c0.6,0,2.3-3.4,2.3-5c0-0.9-0.8-2.9-1.2-3.9
		c-2.2-5.7-2.9-8.7-3.6-10.7c-0.3-0.8-2.1-0.8-2.5-0.8c-0.2,0-0.3-0.2-0.3-0.5c0-0.3,0.2-0.4,0.4-0.4c0.4,0,2.6,0.1,3.9,0.1
		c1.2,0,2.4-0.1,3.5-0.1c0.3,0,0.4,0.2,0.4,0.5c0,0.2-0.1,0.5-0.4,0.5c-0.2,0-1.7,0-1.7,0.8c0,1.7,1.2,5.1,3.5,11
		C149.2,62.2,152.1,56.1,152.1,55z"/>
	<path fill="#F1B82D" d="M174,68.5c-4.8,0-8.1-3.5-8.1-8.1c0-4.6,3.5-8.1,8.1-8.1c4.7,0,8.2,3.4,8.2,8.1
		C182.1,65.3,178.9,68.5,174,68.5z M174,53.2c-3.6,0-4.8,3.8-4.8,7.2c0,3,0.7,7.2,4.8,7.2c4.1,0,4.8-4.2,4.8-7.2
		C178.8,57,177.7,53.2,174,53.2z"/>
	<path fill="#F1B82D" d="M190.1,65.1c0,1.3,0,2.1,1.8,2.1c1.3,0,1.4,0,1.4,0.4c0,0.5-0.1,0.5-0.5,0.5c-1.3,0-2.4-0.1-4-0.1
		c-2.8,0-3.4,0.1-3.7,0.1c-0.2,0-0.3-0.2-0.3-0.5c0-0.3,0.1-0.5,0.7-0.5c1.5,0,1.8-0.3,1.8-1.8v-9.8c0-0.4,0-1.1-0.7-1.1h-1.9
		c-0.2,0-0.4,0-0.4-0.5c0-0.3,0.2-0.4,1.1-0.6c1.4-0.3,1.7-0.4,1.8-2c0.4-5.3,1.9-8.3,6.1-9.3c0.6-0.1,1.5-0.3,2.1-0.3
		c0.9,0,2.2,0.4,2.2,1.5c0,1-0.6,1.7-1.6,1.7c-0.3,0-1.1-0.1-1.9-0.8c-0.6-0.5-1.2-0.8-1.5-0.8c-2,0-2.3,2.9-2.3,5.1v4.5h4.3
		c0.2,0,0.3,0.2,0.3,0.7c0,0.5-0.2,0.9-0.9,0.9c-0.2,0-2.9-0.2-3.7-0.2V65.1z"/>
	<path fill="#F1B82D" d="M227.9,43.5c0.1-0.3,0.2-0.4,0.4-0.4c0.2,0,2.7,0.1,3.5,0.1c0.6,0,3.6-0.1,3.8-0.1c0.4,0,0.4,0.3,0.4,0.6
		s-0.1,0.5-0.4,0.5c-3.2,0-3.5,0.2-3.5,1.9c0,2.3,0.4,9.6,0.7,19.4c0,1.2,1,1.6,1.9,1.6c2,0,2,0.2,2,0.5c0,0.5-0.2,0.6-0.4,0.6
		c-0.3,0-0.7-0.1-5.6-0.1c-4.6,0-4.8,0.1-5,0.1c-0.4,0-0.4-0.2-0.4-0.6c0-0.2,0.1-0.5,1.7-0.5c2.3,0,2.3-0.6,2.3-2
		c0-2.1-0.5-13.4-0.8-20h-0.1c-2.6,6.5-5.8,14.1-8.1,19.7c-1.3,3.2-1.3,3.6-1.8,3.6s-0.5-0.3-1.3-2.7c-0.8-2.5-6.5-18-6.6-18
		c-0.6,2.6-2.9,14.2-2.9,17.7c0,1.1,0.6,1.6,1.8,1.6c0.9,0,1.9,0.1,1.9,0.3c0,0.7,0,0.8-0.4,0.8c-0.3,0-0.6-0.1-4.2-0.1
		c-3.2,0-3.4,0.1-3.6,0.1c-0.3,0-0.4,0-0.4-0.6c0-0.3,0.2-0.5,1.9-0.5c1.2,0,1.5-0.5,1.9-2.4c0.9-5,1.8-10.1,2.9-15.2
		c0.4-1.6,0.5-2.6,0.5-3.3c0-0.2-0.5-1.5-0.9-1.8c-0.3-0.2-1.9-0.3-3-0.3c-0.4,0-0.4-0.3-0.4-0.5c0-0.3,0.1-0.5,0.4-0.5
		c0.7,0,3.7,0.1,4.1,0.1c0.9,0,2.4-0.1,2.8-0.1c0.4,0,0.5,0.4,0.8,1.6c0.7,2.6,5.8,16.8,6.4,18.1C222.7,56.6,225.4,50.2,227.9,43.5z
		"/>
	<path fill="#F1B82D" d="M243.5,64.8c0,2,0.1,2.4,1.6,2.4c0.8,0,0.8,0,0.8,0.5c0,0.2,0,0.5-0.3,0.5c-0.2,0-0.6-0.1-2.9-0.1
		c-3.3,0-4.2,0.1-4.7,0.1c-0.3,0-0.3-0.2-0.3-0.4c0-0.5,0-0.5,1.3-0.5c0.9,0,1.2-0.3,1.4-0.8c0.1-0.3,0.2-2.8,0.2-5v-4.8
		c0-1.2-0.3-1.9-2.1-2.1c-0.3,0-0.3-0.2-0.3-0.4c0-0.3,0.1-0.5,0.3-0.5c4-0.8,4.5-1.7,4.9-1.7c0.1,0,0.2,0.2,0.2,0.4
		c0,0.1-0.2,0.5-0.2,5V64.8z M240.2,45.1c0-0.9,0.8-1.9,1.8-1.9c1.1,0,1.8,0.9,1.8,1.9s-0.8,1.9-1.8,1.9
		C241,46.9,240.2,46,240.2,45.1z"/>
	<path fill="#F1B82D" d="M258.6,63.8c0,1.7-0.9,4.8-5.7,4.8c-0.6,0-2.7-0.3-4-0.3c-0.1,0-0.2-0.1-0.2-0.2c0-0.3-0.8-3.4-0.8-3.8
		c0-0.2,0.5-0.2,0.6-0.2c0.8,0,1,3.5,4.4,3.5c2.5,0,3.2-1.9,3.2-3.1c0-3.7-7.8-2.5-7.8-7.5c0-2.9,2.4-4.8,5.3-4.8
		c1.6,0,3.6,0.3,3.8,0.3c0.5,0.1,0.5,0.8,0.5,1c0.1,1.4,0.4,2.3,0.4,2.8c0,0.2-0.2,0.3-0.4,0.3c-0.3,0-0.5,0-0.7-0.5
		c-0.2-0.6-1.2-3-3.6-3c-1.6,0-2.8,0.9-2.8,2.6c0,1.2,0.9,2,1.6,2.3C256.1,59.9,258.6,59.8,258.6,63.8z"/>
	<path fill="#F1B82D" d="M271.5,63.8c0,1.7-0.9,4.8-5.7,4.8c-0.6,0-2.7-0.3-4-0.3c-0.1,0-0.2-0.1-0.2-0.2c0-0.3-0.8-3.4-0.8-3.8
		c0-0.2,0.5-0.2,0.6-0.2c0.8,0,1,3.5,4.4,3.5c2.5,0,3.2-1.9,3.2-3.1c0-3.7-7.8-2.5-7.8-7.5c0-2.9,2.4-4.8,5.3-4.8
		c1.6,0,3.6,0.3,3.8,0.3c0.5,0.1,0.5,0.8,0.5,1c0.1,1.4,0.4,2.3,0.4,2.8c0,0.2-0.2,0.3-0.4,0.3c-0.3,0-0.5,0-0.7-0.5
		c-0.2-0.6-1.2-3-3.6-3c-1.6,0-2.8,0.9-2.8,2.6c0,1.2,0.9,2,1.6,2.3C269,59.9,271.5,59.8,271.5,63.8z"/>
	<path fill="#F1B82D" d="M282.2,68.5c-4.8,0-8.1-3.5-8.1-8.1c0-4.6,3.5-8.1,8.1-8.1c4.7,0,8.2,3.4,8.2,8.1
		C290.4,65.3,287.1,68.5,282.2,68.5z M282.2,53.2c-3.6,0-4.8,3.8-4.8,7.2c0,3,0.7,7.2,4.8,7.2c4.1,0,4.8-4.2,4.8-7.2
		C287,57,285.9,53.2,282.2,53.2z"/>
	<path fill="#F1B82D" d="M294.7,57.2c0-3.1-0.3-3.3-2.2-3.3c-0.3,0-0.8,0-0.8-0.4c0-0.3,0-0.7,0.4-0.7c0.4,0,0.9,0.1,2.1,0.1
		c1.2,0,2.6-0.1,3-0.1c0.2,0,0.3,0,0.3,0.5v9.5c0,2.6,0.8,4.1,3.4,4.1c1.3,0,3.5-0.8,3.5-1.9V56c0-1.9-0.4-2.1-2.2-2.1
		c-0.6,0-1.1,0-1.1-0.4c0-0.5,0-0.7,0.2-0.7c0.5,0,0.9,0.1,3,0.1c0.9,0,1.8-0.1,2.7-0.1c0.3,0,0.5,0.1,0.5,0.5
		c0,0.1-0.3,2.8-0.3,5.3v6.6c0,0.6,0,1.3,0.9,1.3c0.5,0,1.3-0.1,1.5-0.1c0.1,0,0.2,0,0.2,0.7c0,0.2,0,0.3-1.2,0.5
		c-3,0.5-3.8,0.9-4,0.9c-0.2,0-0.4-0.2-0.4-0.5c0-0.4,0.1-1,0.1-1.3c-1.8,1.3-3.9,1.9-5.2,1.9c-3.5,0-4.4-2.2-4.4-5.9V57.2z"/>
	<path fill="#F1B82D" d="M313.8,56.5c0-1.2-0.3-1.9-2.1-2.1c-0.3,0-0.3-0.2-0.3-0.4c0-0.3,0.1-0.5,0.3-0.5c4-0.8,4.5-1.7,4.9-1.7
		c0.1,0,0.1,0.2,0.1,0.4c0,0.4-0.2,1.3-0.2,3.2c1.2-1.3,3-3,4.9-3c1.2,0,2.2,0.7,2.2,2c0,0.9-0.7,1.8-1.7,1.8
		c-1.4,0-1.6-1.3-2.7-1.3c-0.6,0-1.5,0.5-2.4,1.5c-0.2,0.3-0.2,0.7-0.2,1v7.9c0,1.3,0,2.1,1.8,2.1c1.3,0,1.4,0,1.4,0.4
		c0,0.5-0.1,0.5-0.5,0.5c-1.3,0-2.4-0.1-4-0.1c-2.8,0-3.4,0.1-4.1,0.1c-0.2,0-0.3-0.2-0.3-0.5c0-0.3,0.4-0.5,1.1-0.5
		c1.5,0,1.8-0.3,1.8-1.8V56.5z"/>
	<path fill="#F1B82D" d="M330.3,64.8c0,2,0.1,2.4,1.6,2.4c0.8,0,0.8,0,0.8,0.5c0,0.2,0,0.5-0.3,0.5c-0.2,0-0.6-0.1-2.9-0.1
		c-3.3,0-4.2,0.1-4.7,0.1c-0.3,0-0.3-0.2-0.3-0.4c0-0.5,0-0.5,1.3-0.5c0.9,0,1.2-0.3,1.4-0.8c0.1-0.3,0.2-2.8,0.2-5v-4.8
		c0-1.2-0.3-1.9-2.1-2.1c-0.3,0-0.3-0.2-0.3-0.4c0-0.3,0.1-0.5,0.3-0.5c4-0.8,4.5-1.7,4.9-1.7c0.1,0,0.2,0.2,0.2,0.4
		c0,0.1-0.2,0.5-0.2,5V64.8z M327,45.1c0-0.9,0.8-1.9,1.8-1.9c1.1,0,1.8,0.9,1.8,1.9s-0.8,1.9-1.8,1.9C327.8,46.9,327,46,327,45.1z"
		/>
</g>
<g>
</g>
<g>
</g>
<g>
</g>
<g>
</g>
<g>
</g>
<g>
</g>
<g>
</g>
<g>
</g>
<g>
</g>
<g>
</g>
<g>
</g>
<g>
</g>
<g>
</g>
<g>
</g>
<g>
</g>
</svg>
