<?xml version="1.0" encoding="utf-8"?>
<!-- Generator: Adobe Illustrator 18.1.0, SVG Export Plug-In . SVG Version: 6.00 Build 0)  -->
<!DOCTYPE svg PUBLIC "-//W3C//DTD SVG 1.0//EN" "http://www.w3.org/TR/2001/REC-SVG-20010904/DTD/svg10.dtd">
<svg version="1.0" id="Layer_1" xmlns="http://www.w3.org/2000/svg" xmlns:xlink="http://www.w3.org/1999/xlink" x="0px" y="0px"
	 width="177px" height="42px" viewBox="0 0 177 42" enable-background="new 0 0 177 42" xml:space="preserve">
<g>
	<path d="M4.4,9.9c0,2.5,1,4.6,4.1,4.6c2.2,0,4-1.2,4-5.6V5.3c0-2.6-0.5-2.6-2.4-2.6c-0.1,0-0.1-0.1-0.1-0.3c0-0.2,0.1-0.3,0.1-0.3
		c0.3,0,1.5,0.1,2.7,0.1c0.6,0,2.1-0.1,2.4-0.1c0.2,0,0.3,0,0.3,0.3c0,0.1,0,0.2-0.2,0.2c-1.8,0-2.1,0-2.1,2.2v4.4
		c0,5-3.2,6.3-5.3,6.3c-4.1,0-5.3-2.8-5.3-4.8V6.6c0-1.3,0-1.8,0-2.6c0-1.1-0.3-1.2-1.9-1.2c-0.2,0-0.2-0.1-0.2-0.3
		c0-0.1,0-0.2,0.2-0.2c0.1,0,1.8,0.1,2.9,0.1c1.2,0,2.8-0.1,2.9-0.1c0.1,0,0.2,0.1,0.2,0.2c0,0.2,0,0.3-0.2,0.3
		C4.7,2.7,4.4,2.9,4.4,4c0,0.9,0,1.3,0,2.6V9.9z"/>
	<path d="M18.6,13.6c0,1.1,0,1.3,0.9,1.3c0.5,0,0.5,0,0.5,0.2c0,0.1,0,0.2-0.2,0.2c-0.1,0-0.3,0-1.6,0c-1.7,0-2.2,0-2.5,0
		c-0.1,0-0.1-0.1-0.1-0.2c0-0.2,0-0.3,0.7-0.3c0.5,0,0.6-0.2,0.8-0.4c0.1-0.2,0.1-1.5,0.1-2.7V9.3c0-0.6-0.2-1-1.1-1.1
		c-0.1,0-0.2-0.1-0.2-0.2c0-0.1,0.1-0.2,0.1-0.3c2.1-0.4,2.4-0.9,2.6-0.9c0,0,0.1,0.1,0.1,0.2c0,0.1,0,0.5,0,1.3
		c1-0.6,1.9-1.3,2.9-1.3C22.2,7,24,7.2,24,9.8v4.4c0,0.3,0.1,0.7,1.2,0.7c0.2,0,0.2,0.1,0.2,0.2c0,0.1,0,0.2-0.3,0.2
		c-0.6,0-0.9,0-1.9,0c-1.5,0-1.8,0-1.9,0c-0.1,0-0.1-0.1-0.1-0.2c0-0.1,0-0.3,0.3-0.3c0.9,0,1.1-0.1,1.1-0.7v-3.3
		c0-1.7-0.1-2.9-2.1-2.9c-0.7,0-1.7,0.6-1.8,0.9V13.6z"/>
	<path d="M29,13.6c0,1.1,0,1.3,0.9,1.3c0.4,0,0.4,0,0.4,0.2c0,0.1,0,0.2-0.2,0.2c-0.1,0-0.3,0-1.5,0c-1.7,0-2.2,0-2.5,0
		c-0.1,0-0.1-0.1-0.1-0.2c0-0.2,0-0.3,0.7-0.3c0.5,0,0.6-0.2,0.8-0.4c0.1-0.2,0.1-1.5,0.1-2.7V9.3c0-0.6-0.2-1-1.1-1.1
		c-0.1,0-0.2-0.1-0.2-0.2c0-0.1,0.1-0.2,0.1-0.3c2.1-0.4,2.4-0.9,2.6-0.9c0.1,0,0.1,0.1,0.1,0.2c0,0.1-0.1,0.3-0.1,2.7V13.6z
		 M27.3,3.2c0-0.5,0.4-1,1-1c0.6,0,1,0.5,1,1s-0.4,1-1,1C27.7,4.2,27.3,3.7,27.3,3.2z"/>
	<path d="M37.5,8.4c0-0.5-1-0.5-1.2-0.5c-0.1,0-0.2-0.1-0.2-0.3c0-0.1,0.1-0.2,0.2-0.2c0.5,0,1.1,0,1.6,0c0.5,0,1.1,0,1.6,0
		c0.1,0,0.2,0.1,0.2,0.2c0,0.1,0,0.2-0.2,0.2c-1.1,0.2-1.1,0.2-1.7,1.7c-0.6,1.6-1.8,3.9-2.1,4.7c-0.5,1.2-0.7,1.5-0.8,1.5
		c-0.2,0-0.3-0.4-0.7-1.2C33.5,13,32,8.5,31.7,8.2c-0.2-0.3-0.4-0.3-0.6-0.3c-0.5,0-0.6-0.1-0.6-0.3c0-0.1,0.1-0.2,0.2-0.2
		c0.6,0,1.2,0,1.8,0c0.4,0,1.8,0,2.2,0c0.1,0,0.1,0.2,0.1,0.3c0,0.1-0.1,0.2-0.2,0.2c-0.6,0-1.1,0.1-1.1,0.4c0,0.6,1.5,4.3,1.9,5.2
		C37.2,9.6,37.5,8.9,37.5,8.4z"/>
	<path d="M41.7,10.4c-0.1,0.4-0.1,0.7-0.1,1.1c0,1.2,1,3.1,3,3.1c0.9,0,1.6-0.3,2.2-1.1c0.1-0.1,0.2-0.3,0.3-0.3
		c0.1,0,0.3,0.2,0.3,0.2s-0.7,2.3-3.2,2.3c-2.6,0-4-1.6-4-4.2C40.2,8.8,42,7,43.9,7c3.1,0,3.3,2.6,3.3,3.2c0,0.2-0.1,0.2-0.2,0.2
		H41.7z M44.9,9.8c0.4,0,0.6-0.1,0.6-0.6c0-1.4-1-1.8-1.6-1.8c-1.3,0-1.9,1.1-2.1,2.4H44.9z"/>
	<path d="M49.8,9.3c0-0.6-0.2-1-1.1-1.1c-0.1,0-0.2-0.1-0.2-0.2c0-0.1,0.1-0.2,0.1-0.3c2.1-0.4,2.4-0.9,2.6-0.9c0,0,0.1,0.1,0.1,0.2
		c0,0.2-0.1,0.7-0.1,1.7C51.9,8,52.9,7,53.8,7c0.6,0,1.2,0.4,1.2,1C55,8.5,54.6,9,54.1,9c-0.8,0-0.9-0.7-1.4-0.7
		c-0.3,0-0.8,0.3-1.3,0.8c-0.1,0.1-0.1,0.4-0.1,0.5v4.2c0,0.7,0,1.1,0.9,1.1c0.7,0,0.8,0,0.8,0.2c0,0.2-0.1,0.3-0.3,0.3
		c-0.7,0-1.3,0-2.1,0c-1.5,0-1.8,0-2.1,0c-0.1,0-0.2-0.1-0.2-0.2c0-0.2,0.2-0.2,0.6-0.2c0.8,0,0.9-0.1,0.9-0.9V9.3z"/>
	<path d="M61.3,13.1c0,0.9-0.5,2.5-3,2.5c-0.3,0-1.4-0.1-2.1-0.1c0,0-0.1-0.1-0.1-0.1c0-0.2-0.4-1.8-0.4-2c0-0.1,0.3-0.1,0.3-0.1
		c0.4,0,0.6,1.9,2.3,1.9c1.3,0,1.7-1,1.7-1.6c0-1.9-4.1-1.3-4.1-3.9C55.9,8,57.1,7,58.7,7c0.9,0,1.9,0.1,2,0.2
		C60.9,7.3,61,7.6,61,7.7c0,0.8,0.2,1.2,0.2,1.5c0,0.1-0.1,0.1-0.2,0.1c-0.2,0-0.3,0-0.4-0.3c-0.1-0.3-0.6-1.6-1.9-1.6
		c-0.9,0-1.5,0.5-1.5,1.4c0,0.6,0.5,1,0.9,1.2C60,11.1,61.3,11,61.3,13.1z"/>
	<path d="M65.3,13.6c0,1.1,0,1.3,0.9,1.3c0.4,0,0.4,0,0.4,0.2c0,0.1,0,0.2-0.2,0.2c-0.1,0-0.3,0-1.5,0c-1.7,0-2.2,0-2.5,0
		c-0.1,0-0.1-0.1-0.1-0.2c0-0.2,0-0.3,0.7-0.3c0.5,0,0.6-0.2,0.8-0.4c0.1-0.2,0.1-1.5,0.1-2.7V9.3c0-0.6-0.2-1-1.1-1.1
		c-0.1,0-0.2-0.1-0.2-0.2c0-0.1,0.1-0.2,0.1-0.3c2.1-0.4,2.4-0.9,2.6-0.9c0.1,0,0.1,0.1,0.1,0.2c0,0.1-0.1,0.3-0.1,2.7V13.6z
		 M63.6,3.2c0-0.5,0.4-1,1-1s1,0.5,1,1s-0.4,1-1,1S63.6,3.7,63.6,3.2z"/>
	<path d="M70.3,12.1c0,2,0.2,2.7,1.6,2.7c0.6,0,1.2-0.4,1.3-0.4s0.2,0.2,0.2,0.3s-0.8,1-2.5,1c-2.1,0-2.1-1.8-2.1-2.3V8.5
		c0-0.1-0.1-0.2-0.2-0.2h-0.9c-0.1,0-0.1-0.1-0.1-0.2c0-0.1,0-0.2,0.1-0.3c1.7-1.3,2.1-2.3,2.4-2.3c0.1,0,0.2,0.1,0.2,0.2
		c0,0.3-0.1,0.6-0.1,1.7h2.8c0.1,0,0.2,0.1,0.2,0.4c0,0.2-0.1,0.5-0.5,0.5c-0.1,0-1-0.1-2.5-0.1V12.1z"/>
	<path d="M80.4,8.5c0-0.6-0.9-0.6-1.4-0.6c-0.2,0-0.2-0.1-0.2-0.2c0-0.1,0.1-0.2,0.2-0.2c0.6,0,1.2,0,1.8,0c0.6,0,1.1,0,1.7,0
		c0.1,0,0.1,0.2,0.1,0.2c0,0.2-0.1,0.2-0.3,0.2c-0.6,0.1-0.9,0.2-1.2,0.8c-0.7,1.5-3.2,6.9-3.6,7.9c-1.4,3.6-2,3.8-2.6,3.8
		c-0.6,0-1-0.5-1-1.1c0-0.6,0.5-1,1.1-1c0.5,0,0.7,0.3,0.9,0.3c0.3,0,1.2-1.8,1.2-2.6c0-0.5-0.4-1.6-0.6-2.1c-1.2-3-1.5-4.6-1.9-5.6
		c-0.2-0.4-1.1-0.4-1.3-0.4c-0.1,0-0.2-0.1-0.2-0.3c0-0.1,0.1-0.2,0.2-0.2c0.2,0,1.4,0,2.1,0c0.6,0,1.3,0,1.8,0
		c0.2,0,0.2,0.1,0.2,0.2c0,0.1-0.1,0.2-0.2,0.2c-0.1,0-0.9,0-0.9,0.4c0,0.9,0.6,2.7,1.8,5.8C78.8,12.3,80.4,9,80.4,8.5z"/>
	<path d="M92,15.6c-2.5,0-4.3-1.8-4.3-4.3C87.7,8.9,89.5,7,92,7c2.5,0,4.3,1.8,4.3,4.3C96.3,13.9,94.5,15.6,92,15.6z M92,7.5
		c-1.9,0-2.5,2-2.5,3.8c0,1.6,0.4,3.8,2.5,3.8c2.2,0,2.6-2.2,2.6-3.8C94.5,9.5,93.9,7.5,92,7.5z"/>
	<path d="M100.5,13.8c0,0.7,0,1.1,0.9,1.1c0.7,0,0.8,0,0.8,0.2c0,0.2-0.1,0.3-0.3,0.3c-0.7,0-1.3,0-2.1,0c-1.5,0-1.8,0-2,0
		c-0.1,0-0.2-0.1-0.2-0.2c0-0.2,0-0.2,0.4-0.2c0.8,0,0.9-0.1,0.9-0.9V8.8c0-0.2,0-0.6-0.4-0.6h-1c-0.1,0-0.2,0-0.2-0.2
		c0-0.1,0.1-0.2,0.6-0.3c0.7-0.2,0.9-0.2,1-1c0.2-2.8,1-4.4,3.2-4.9c0.3-0.1,0.8-0.1,1.1-0.1c0.5,0,1.2,0.2,1.2,0.8
		c0,0.5-0.3,0.9-0.9,0.9c-0.2,0-0.6-0.1-1-0.4c-0.3-0.3-0.6-0.4-0.8-0.4c-1.1,0-1.2,1.5-1.2,2.7v2.4h2.3c0.1,0,0.2,0.1,0.2,0.4
		c0,0.2-0.1,0.5-0.5,0.5c-0.1,0-1.6-0.1-2-0.1V13.8z"/>
	<path d="M120.4,2.4c0.1-0.1,0.1-0.2,0.2-0.2c0.1,0,1.4,0.1,1.9,0.1c0.3,0,1.9-0.1,2-0.1c0.2,0,0.2,0.1,0.2,0.3s-0.1,0.2-0.2,0.2
		c-1.7,0-1.9,0.1-1.9,1c0,1.2,0.2,5.1,0.4,10.3c0,0.6,0.5,0.9,1,0.9c1,0,1.1,0.1,1.1,0.2c0,0.3-0.1,0.3-0.2,0.3c-0.2,0-0.4,0-2.9,0
		c-2.4,0-2.5,0-2.7,0c-0.2,0-0.2-0.1-0.2-0.3c0-0.1,0-0.3,0.9-0.3c1.2,0,1.2-0.3,1.2-1c0-1.1-0.3-7.1-0.4-10.5h0
		c-1.3,3.5-3.1,7.4-4.3,10.4c-0.7,1.7-0.7,1.9-0.9,1.9s-0.3-0.2-0.7-1.4c-0.4-1.3-3.4-9.5-3.5-9.5c-0.3,1.4-1.5,7.5-1.5,9.3
		c0,0.6,0.3,0.9,0.9,0.9c0.5,0,1,0,1,0.1c0,0.4,0,0.4-0.2,0.4c-0.1,0-0.3,0-2.2,0c-1.7,0-1.8,0-1.9,0c-0.1,0-0.2,0-0.2-0.3
		c0-0.2,0.1-0.2,1-0.2c0.6,0,0.8-0.2,1-1.3c0.5-2.7,0.9-5.3,1.5-8c0.2-0.8,0.2-1.3,0.2-1.7c0-0.1-0.3-0.8-0.5-0.9
		c-0.1-0.1-1-0.1-1.6-0.1c-0.2,0-0.2-0.1-0.2-0.3c0-0.1,0-0.3,0.2-0.3c0.4,0,1.9,0.1,2.1,0.1c0.5,0,1.3-0.1,1.5-0.1
		c0.2,0,0.3,0.2,0.4,0.9c0.4,1.4,3.1,8.9,3.4,9.6C117.7,9.3,119.1,5.9,120.4,2.4z"/>
	<path d="M128.7,13.6c0,1.1,0,1.3,0.9,1.3c0.4,0,0.4,0,0.4,0.2c0,0.1,0,0.2-0.2,0.2c-0.1,0-0.3,0-1.5,0c-1.7,0-2.2,0-2.5,0
		c-0.1,0-0.1-0.1-0.1-0.2c0-0.2,0-0.3,0.7-0.3c0.5,0,0.6-0.2,0.8-0.4c0.1-0.2,0.1-1.5,0.1-2.7V9.3c0-0.6-0.2-1-1.1-1.1
		c-0.1,0-0.2-0.1-0.2-0.2c0-0.1,0.1-0.2,0.1-0.3c2.1-0.4,2.4-0.9,2.6-0.9c0.1,0,0.1,0.1,0.1,0.2c0,0.1-0.1,0.3-0.1,2.7V13.6z
		 M127,3.2c0-0.5,0.4-1,1-1s1,0.5,1,1s-0.4,1-1,1S127,3.7,127,3.2z"/>
	<path d="M136.7,13.1c0,0.9-0.5,2.5-3,2.5c-0.3,0-1.4-0.1-2.1-0.1c0,0-0.1-0.1-0.1-0.1c0-0.2-0.4-1.8-0.4-2c0-0.1,0.3-0.1,0.3-0.1
		c0.4,0,0.6,1.9,2.3,1.9c1.3,0,1.7-1,1.7-1.6c0-1.9-4.1-1.3-4.1-3.9c0-1.5,1.3-2.5,2.8-2.5c0.9,0,1.9,0.1,2,0.2
		c0.2,0.1,0.3,0.4,0.3,0.5c0,0.8,0.2,1.2,0.2,1.5c0,0.1-0.1,0.1-0.2,0.1c-0.2,0-0.3,0-0.4-0.3c-0.1-0.3-0.6-1.6-1.9-1.6
		c-0.9,0-1.5,0.5-1.5,1.4c0,0.6,0.5,1,0.9,1.2C135.3,11.1,136.7,11,136.7,13.1z"/>
	<path d="M143.5,13.1c0,0.9-0.5,2.5-3,2.5c-0.3,0-1.4-0.1-2.1-0.1c0,0-0.1-0.1-0.1-0.1c0-0.2-0.4-1.8-0.4-2c0-0.1,0.3-0.1,0.3-0.1
		c0.4,0,0.6,1.9,2.3,1.9c1.3,0,1.7-1,1.7-1.6c0-1.9-4.1-1.3-4.1-3.9c0-1.5,1.3-2.5,2.8-2.5c0.9,0,1.9,0.1,2,0.2
		c0.2,0.1,0.3,0.4,0.3,0.5c0,0.8,0.2,1.2,0.2,1.5c0,0.1-0.1,0.1-0.2,0.1c-0.2,0-0.3,0-0.4-0.3c-0.1-0.3-0.6-1.6-1.9-1.6
		c-0.9,0-1.5,0.5-1.5,1.4c0,0.6,0.5,1,0.9,1.2C142.2,11.1,143.5,11,143.5,13.1z"/>
	<path d="M149.2,15.6c-2.5,0-4.3-1.8-4.3-4.3c0-2.4,1.8-4.3,4.3-4.3c2.5,0,4.3,1.8,4.3,4.3C153.5,13.9,151.8,15.6,149.2,15.6z
		 M149.2,7.5c-1.9,0-2.5,2-2.5,3.8c0,1.6,0.4,3.8,2.5,3.8c2.2,0,2.6-2.2,2.6-3.8C151.7,9.5,151.1,7.5,149.2,7.5z"/>
	<path d="M155.8,9.6c0-1.6-0.2-1.7-1.1-1.7c-0.1,0-0.4,0-0.4-0.2c0-0.1,0-0.4,0.2-0.4c0.2,0,0.5,0.1,1.1,0.1c0.6,0,1.4-0.1,1.6-0.1
		c0.1,0,0.1,0,0.1,0.3v5c0,1.4,0.4,2.2,1.8,2.2c0.7,0,1.8-0.4,1.8-1V9c0-1-0.2-1.1-1.1-1.1c-0.3,0-0.6,0-0.6-0.2
		c0-0.3,0-0.4,0.1-0.4c0.3,0,0.5,0.1,1.6,0.1c0.5,0,0.9-0.1,1.4-0.1c0.2,0,0.3,0.1,0.3,0.3c0,0.1-0.2,1.5-0.2,2.8v3.5
		c0,0.3,0,0.7,0.5,0.7c0.3,0,0.7-0.1,0.8-0.1c0.1,0,0.1,0,0.1,0.4c0,0.1,0,0.1-0.6,0.2c-1.6,0.3-2,0.5-2.1,0.5
		c-0.1,0-0.2-0.1-0.2-0.3c0-0.2,0-0.5,0.1-0.7c-0.9,0.7-2.1,1-2.8,1c-1.8,0-2.3-1.2-2.3-3.1V9.6z"/>
	<path d="M165.9,9.3c0-0.6-0.2-1-1.1-1.1c-0.1,0-0.2-0.1-0.2-0.2c0-0.1,0.1-0.2,0.1-0.3c2.1-0.4,2.4-0.9,2.6-0.9
		c0,0,0.1,0.1,0.1,0.2c0,0.2-0.1,0.7-0.1,1.7C168,8,169,7,169.9,7c0.6,0,1.2,0.4,1.2,1c0,0.5-0.4,0.9-0.9,0.9
		c-0.8,0-0.9-0.7-1.4-0.7c-0.3,0-0.8,0.3-1.3,0.8c-0.1,0.1-0.1,0.4-0.1,0.5v4.2c0,0.7,0,1.1,0.9,1.1c0.7,0,0.8,0,0.8,0.2
		c0,0.2-0.1,0.3-0.3,0.3c-0.7,0-1.3,0-2.1,0c-1.5,0-1.8,0-2.1,0c-0.1,0-0.2-0.1-0.2-0.2c0-0.2,0.2-0.2,0.6-0.2
		c0.8,0,0.9-0.1,0.9-0.9V9.3z"/>
	<path d="M174.6,13.6c0,1.1,0,1.3,0.9,1.3c0.4,0,0.4,0,0.4,0.2c0,0.1,0,0.2-0.2,0.2c-0.1,0-0.3,0-1.5,0c-1.7,0-2.2,0-2.5,0
		c-0.1,0-0.1-0.1-0.1-0.2c0-0.2,0-0.3,0.7-0.3c0.5,0,0.6-0.2,0.8-0.4c0.1-0.2,0.1-1.5,0.1-2.7V9.3c0-0.6-0.2-1-1.1-1.1
		c-0.1,0-0.2-0.1-0.2-0.2c0-0.1,0.1-0.2,0.1-0.3c2.1-0.4,2.4-0.9,2.6-0.9c0.1,0,0.1,0.1,0.1,0.2c0,0.1-0.1,0.3-0.1,2.7V13.6z
		 M172.9,3.2c0-0.5,0.4-1,1-1c0.6,0,1,0.5,1,1s-0.4,1-1,1C173.3,4.2,172.9,3.7,172.9,3.2z"/>
</g>
<g>
	<path fill="#900000" d="M4.4,30.9c0,2.5,1,4.6,4.1,4.6c2.2,0,4-1.2,4-5.6v-3.7c0-2.6-0.5-2.6-2.4-2.6c-0.1,0-0.1-0.1-0.1-0.3
		c0-0.2,0.1-0.3,0.1-0.3c0.3,0,1.5,0.1,2.7,0.1c0.6,0,2.1-0.1,2.4-0.1c0.2,0,0.3,0,0.3,0.3c0,0.1,0,0.2-0.2,0.2
		c-1.8,0-2.1,0-2.1,2.2v4.4c0,5-3.2,6.3-5.3,6.3c-4.1,0-5.3-2.8-5.3-4.8v-4.2c0-1.3,0-1.8,0-2.6c0-1.1-0.3-1.2-1.9-1.2
		c-0.2,0-0.2-0.1-0.2-0.3c0-0.1,0-0.2,0.2-0.2c0.1,0,1.8,0.1,2.9,0.1c1.2,0,2.8-0.1,2.9-0.1c0.1,0,0.2,0.1,0.2,0.2
		c0,0.2,0,0.3-0.2,0.3c-1.6,0-1.9,0.1-1.9,1.2c0,0.9,0,1.3,0,2.6V30.9z"/>
	<path fill="#900000" d="M18.6,34.6c0,1.1,0,1.3,0.9,1.3c0.5,0,0.5,0,0.5,0.2c0,0.1,0,0.2-0.2,0.2c-0.1,0-0.3,0-1.6,0
		c-1.7,0-2.2,0-2.5,0c-0.1,0-0.1-0.1-0.1-0.2c0-0.2,0-0.3,0.7-0.3c0.5,0,0.6-0.2,0.8-0.4c0.1-0.2,0.1-1.5,0.1-2.7v-2.5
		c0-0.6-0.2-1-1.1-1.1c-0.1,0-0.2-0.1-0.2-0.2c0-0.1,0.1-0.2,0.1-0.3c2.1-0.4,2.4-0.9,2.6-0.9c0,0,0.1,0.1,0.1,0.2
		c0,0.1,0,0.5,0,1.3c1-0.6,1.9-1.3,2.9-1.3c0.6,0,2.4,0.1,2.4,2.8v4.4c0,0.3,0.1,0.7,1.2,0.7c0.2,0,0.2,0.1,0.2,0.2
		c0,0.1,0,0.2-0.3,0.2c-0.6,0-0.9,0-1.9,0c-1.5,0-1.8,0-1.9,0c-0.1,0-0.1-0.1-0.1-0.2c0-0.1,0-0.3,0.3-0.3c0.9,0,1.1-0.1,1.1-0.7
		v-3.3c0-1.7-0.1-2.9-2.1-2.9c-0.7,0-1.7,0.6-1.8,0.9V34.6z"/>
	<path fill="#900000" d="M29,34.6c0,1.1,0,1.3,0.9,1.3c0.4,0,0.4,0,0.4,0.2c0,0.1,0,0.2-0.2,0.2c-0.1,0-0.3,0-1.5,0
		c-1.7,0-2.2,0-2.5,0c-0.1,0-0.1-0.1-0.1-0.2c0-0.2,0-0.3,0.7-0.3c0.5,0,0.6-0.2,0.8-0.4c0.1-0.2,0.1-1.5,0.1-2.7v-2.5
		c0-0.6-0.2-1-1.1-1.1c-0.1,0-0.2-0.1-0.2-0.2c0-0.1,0.1-0.2,0.1-0.3c2.1-0.4,2.4-0.9,2.6-0.9c0.1,0,0.1,0.1,0.1,0.2
		c0,0.1-0.1,0.3-0.1,2.7V34.6z M27.3,24.2c0-0.5,0.4-1,1-1c0.6,0,1,0.5,1,1s-0.4,1-1,1C27.7,25.2,27.3,24.7,27.3,24.2z"/>
	<path fill="#900000" d="M37.5,29.4c0-0.5-1-0.5-1.2-0.5c-0.1,0-0.2-0.1-0.2-0.3c0-0.1,0.1-0.2,0.2-0.2c0.5,0,1.1,0,1.6,0
		c0.5,0,1.1,0,1.6,0c0.1,0,0.2,0.1,0.2,0.2c0,0.1,0,0.2-0.2,0.2c-1.1,0.2-1.1,0.2-1.7,1.7c-0.6,1.6-1.8,3.9-2.1,4.7
		c-0.5,1.2-0.7,1.5-0.8,1.5c-0.2,0-0.3-0.4-0.7-1.2c-0.6-1.4-2.2-5.9-2.4-6.3c-0.2-0.3-0.4-0.3-0.6-0.3c-0.5,0-0.6-0.1-0.6-0.3
		c0-0.1,0.1-0.2,0.2-0.2c0.6,0,1.2,0,1.8,0c0.4,0,1.8,0,2.2,0c0.1,0,0.1,0.2,0.1,0.3c0,0.1-0.1,0.2-0.2,0.2c-0.6,0-1.1,0.1-1.1,0.4
		c0,0.6,1.5,4.3,1.9,5.2C37.2,30.6,37.5,29.9,37.5,29.4z"/>
	<path fill="#900000" d="M41.7,31.4c-0.1,0.4-0.1,0.7-0.1,1.1c0,1.2,1,3.1,3,3.1c0.9,0,1.6-0.3,2.2-1.1c0.1-0.1,0.2-0.3,0.3-0.3
		c0.1,0,0.3,0.2,0.3,0.2c0,0.1-0.7,2.3-3.2,2.3c-2.6,0-4-1.6-4-4.2c0-2.6,1.8-4.4,3.7-4.4c3.1,0,3.3,2.6,3.3,3.2
		c0,0.2-0.1,0.2-0.2,0.2H41.7z M44.9,30.8c0.4,0,0.6-0.1,0.6-0.6c0-1.4-1-1.8-1.6-1.8c-1.3,0-1.9,1.1-2.1,2.4H44.9z"/>
	<path fill="#900000" d="M49.8,30.3c0-0.6-0.2-1-1.1-1.1c-0.1,0-0.2-0.1-0.2-0.2c0-0.1,0.1-0.2,0.1-0.3c2.1-0.4,2.4-0.9,2.6-0.9
		c0,0,0.1,0.1,0.1,0.2c0,0.2-0.1,0.7-0.1,1.7c0.6-0.7,1.6-1.6,2.6-1.6c0.6,0,1.2,0.4,1.2,1c0,0.5-0.4,0.9-0.9,0.9
		c-0.8,0-0.9-0.7-1.4-0.7c-0.3,0-0.8,0.3-1.3,0.8c-0.1,0.1-0.1,0.4-0.1,0.5v4.2c0,0.7,0,1.1,0.9,1.1c0.7,0,0.8,0,0.8,0.2
		c0,0.2-0.1,0.3-0.3,0.3c-0.7,0-1.3,0-2.1,0c-1.5,0-1.8,0-2.1,0c-0.1,0-0.2-0.1-0.2-0.2c0-0.2,0.2-0.2,0.6-0.2
		c0.8,0,0.9-0.1,0.9-0.9V30.3z"/>
	<path fill="#900000" d="M61.3,34.1c0,0.9-0.5,2.5-3,2.5c-0.3,0-1.4-0.1-2.1-0.1c0,0-0.1-0.1-0.1-0.1c0-0.2-0.4-1.8-0.4-2
		c0-0.1,0.3-0.1,0.3-0.1c0.4,0,0.6,1.9,2.3,1.9c1.3,0,1.7-1,1.7-1.6c0-1.9-4.1-1.3-4.1-3.9c0-1.5,1.3-2.5,2.8-2.5
		c0.9,0,1.9,0.1,2,0.2c0.2,0.1,0.3,0.4,0.3,0.5c0,0.8,0.2,1.2,0.2,1.5c0,0.1-0.1,0.1-0.2,0.1c-0.2,0-0.3,0-0.4-0.3
		c-0.1-0.3-0.6-1.6-1.9-1.6c-0.9,0-1.5,0.5-1.5,1.4c0,0.6,0.5,1,0.9,1.2C60,32.1,61.3,32,61.3,34.1z"/>
	<path fill="#900000" d="M65.3,34.6c0,1.1,0,1.3,0.9,1.3c0.4,0,0.4,0,0.4,0.2c0,0.1,0,0.2-0.2,0.2c-0.1,0-0.3,0-1.5,0
		c-1.7,0-2.2,0-2.5,0c-0.1,0-0.1-0.1-0.1-0.2c0-0.2,0-0.3,0.7-0.3c0.5,0,0.6-0.2,0.8-0.4c0.1-0.2,0.1-1.5,0.1-2.7v-2.5
		c0-0.6-0.2-1-1.1-1.1c-0.1,0-0.2-0.1-0.2-0.2c0-0.1,0.1-0.2,0.1-0.3c2.1-0.4,2.4-0.9,2.6-0.9c0.1,0,0.1,0.1,0.1,0.2
		c0,0.1-0.1,0.3-0.1,2.7V34.6z M63.6,24.2c0-0.5,0.4-1,1-1s1,0.5,1,1s-0.4,1-1,1S63.6,24.7,63.6,24.2z"/>
	<path fill="#900000" d="M70.3,33.1c0,2,0.2,2.7,1.6,2.7c0.6,0,1.2-0.4,1.3-0.4s0.2,0.2,0.2,0.3s-0.8,1-2.5,1
		c-2.1,0-2.1-1.8-2.1-2.3v-4.9c0-0.1-0.1-0.2-0.2-0.2h-0.9c-0.1,0-0.1-0.1-0.1-0.2c0-0.1,0-0.2,0.1-0.3c1.7-1.3,2.1-2.3,2.4-2.3
		c0.1,0,0.2,0.1,0.2,0.2c0,0.3-0.1,0.6-0.1,1.7h2.8c0.1,0,0.2,0.1,0.2,0.4c0,0.2-0.1,0.5-0.5,0.5c-0.1,0-1-0.1-2.5-0.1V33.1z"/>
	<path fill="#900000" d="M80.4,29.5c0-0.6-0.9-0.6-1.4-0.6c-0.2,0-0.2-0.1-0.2-0.2c0-0.1,0.1-0.2,0.2-0.2c0.6,0,1.2,0,1.8,0
		c0.6,0,1.1,0,1.7,0c0.1,0,0.1,0.2,0.1,0.2c0,0.2-0.1,0.2-0.3,0.2c-0.6,0.1-0.9,0.2-1.2,0.8c-0.7,1.5-3.2,6.9-3.6,7.9
		c-1.4,3.6-2,3.8-2.6,3.8c-0.6,0-1-0.5-1-1.1c0-0.6,0.5-1,1.1-1c0.5,0,0.7,0.3,0.9,0.3c0.3,0,1.2-1.8,1.2-2.6c0-0.5-0.4-1.6-0.6-2.1
		c-1.2-3-1.5-4.6-1.9-5.6c-0.2-0.4-1.1-0.4-1.3-0.4c-0.1,0-0.2-0.1-0.2-0.3c0-0.1,0.1-0.2,0.2-0.2c0.2,0,1.4,0,2.1,0
		c0.6,0,1.3,0,1.8,0c0.2,0,0.2,0.1,0.2,0.2c0,0.1-0.1,0.2-0.2,0.2c-0.1,0-0.9,0-0.9,0.4c0,0.9,0.6,2.7,1.8,5.8
		C78.8,33.3,80.4,30,80.4,29.5z"/>
	<path fill="#900000" d="M92,36.6c-2.5,0-4.3-1.8-4.3-4.3c0-2.4,1.8-4.3,4.3-4.3c2.5,0,4.3,1.8,4.3,4.3C96.3,34.9,94.5,36.6,92,36.6
		z M92,28.5c-1.9,0-2.5,2-2.5,3.8c0,1.6,0.4,3.8,2.5,3.8c2.2,0,2.6-2.2,2.6-3.8C94.5,30.5,93.9,28.5,92,28.5z"/>
	<path fill="#900000" d="M100.5,34.8c0,0.7,0,1.1,0.9,1.1c0.7,0,0.8,0,0.8,0.2c0,0.2-0.1,0.3-0.3,0.3c-0.7,0-1.3,0-2.1,0
		c-1.5,0-1.8,0-2,0c-0.1,0-0.2-0.1-0.2-0.2c0-0.2,0-0.2,0.4-0.2c0.8,0,0.9-0.1,0.9-0.9v-5.2c0-0.2,0-0.6-0.4-0.6h-1
		c-0.1,0-0.2,0-0.2-0.2c0-0.1,0.1-0.2,0.6-0.3c0.7-0.2,0.9-0.2,1-1c0.2-2.8,1-4.4,3.2-4.9c0.3-0.1,0.8-0.1,1.1-0.1
		c0.5,0,1.2,0.2,1.2,0.8c0,0.5-0.3,0.9-0.9,0.9c-0.2,0-0.6-0.1-1-0.4c-0.3-0.3-0.6-0.4-0.8-0.4c-1.1,0-1.2,1.5-1.2,2.7v2.4h2.3
		c0.1,0,0.2,0.1,0.2,0.4c0,0.2-0.1,0.5-0.5,0.5c-0.1,0-1.6-0.1-2-0.1V34.8z"/>
	<path fill="#900000" d="M120.4,23.4c0.1-0.1,0.1-0.2,0.2-0.2c0.1,0,1.4,0.1,1.9,0.1c0.3,0,1.9-0.1,2-0.1c0.2,0,0.2,0.1,0.2,0.3
		s-0.1,0.2-0.2,0.2c-1.7,0-1.9,0.1-1.9,1c0,1.2,0.2,5.1,0.4,10.3c0,0.6,0.5,0.9,1,0.9c1,0,1.1,0.1,1.1,0.2c0,0.3-0.1,0.3-0.2,0.3
		c-0.2,0-0.4,0-2.9,0c-2.4,0-2.5,0-2.7,0c-0.2,0-0.2-0.1-0.2-0.3c0-0.1,0-0.3,0.9-0.3c1.2,0,1.2-0.3,1.2-1c0-1.1-0.3-7.1-0.4-10.5h0
		c-1.3,3.5-3.1,7.4-4.3,10.4c-0.7,1.7-0.7,1.9-0.9,1.9s-0.3-0.2-0.7-1.4c-0.4-1.3-3.4-9.5-3.5-9.5c-0.3,1.4-1.5,7.5-1.5,9.3
		c0,0.6,0.3,0.9,0.9,0.9c0.5,0,1,0,1,0.1c0,0.4,0,0.4-0.2,0.4c-0.1,0-0.3,0-2.2,0c-1.7,0-1.8,0-1.9,0c-0.1,0-0.2,0-0.2-0.3
		c0-0.2,0.1-0.2,1-0.2c0.6,0,0.8-0.2,1-1.3c0.5-2.7,0.9-5.3,1.5-8c0.2-0.8,0.2-1.3,0.2-1.7c0-0.1-0.3-0.8-0.5-0.9
		c-0.1-0.1-1-0.1-1.6-0.1c-0.2,0-0.2-0.1-0.2-0.3c0-0.1,0-0.3,0.2-0.3c0.4,0,1.9,0.1,2.1,0.1c0.5,0,1.3-0.1,1.5-0.1
		c0.2,0,0.3,0.2,0.4,0.9c0.4,1.4,3.1,8.9,3.4,9.6C117.7,30.3,119.1,26.9,120.4,23.4z"/>
	<path fill="#900000" d="M128.7,34.6c0,1.1,0,1.3,0.9,1.3c0.4,0,0.4,0,0.4,0.2c0,0.1,0,0.2-0.2,0.2c-0.1,0-0.3,0-1.5,0
		c-1.7,0-2.2,0-2.5,0c-0.1,0-0.1-0.1-0.1-0.2c0-0.2,0-0.3,0.7-0.3c0.5,0,0.6-0.2,0.8-0.4c0.1-0.2,0.1-1.5,0.1-2.7v-2.5
		c0-0.6-0.2-1-1.1-1.1c-0.1,0-0.2-0.1-0.2-0.2c0-0.1,0.1-0.2,0.1-0.3c2.1-0.4,2.4-0.9,2.6-0.9c0.1,0,0.1,0.1,0.1,0.2
		c0,0.1-0.1,0.3-0.1,2.7V34.6z M127,24.2c0-0.5,0.4-1,1-1s1,0.5,1,1s-0.4,1-1,1S127,24.7,127,24.2z"/>
	<path fill="#900000" d="M136.7,34.1c0,0.9-0.5,2.5-3,2.5c-0.3,0-1.4-0.1-2.1-0.1c0,0-0.1-0.1-0.1-0.1c0-0.2-0.4-1.8-0.4-2
		c0-0.1,0.3-0.1,0.3-0.1c0.4,0,0.6,1.9,2.3,1.9c1.3,0,1.7-1,1.7-1.6c0-1.9-4.1-1.3-4.1-3.9c0-1.5,1.3-2.5,2.8-2.5
		c0.9,0,1.9,0.1,2,0.2c0.2,0.1,0.3,0.4,0.3,0.5c0,0.8,0.2,1.2,0.2,1.5c0,0.1-0.1,0.1-0.2,0.1c-0.2,0-0.3,0-0.4-0.3
		c-0.1-0.3-0.6-1.6-1.9-1.6c-0.9,0-1.5,0.5-1.5,1.4c0,0.6,0.5,1,0.9,1.2C135.3,32.1,136.7,32,136.7,34.1z"/>
	<path fill="#900000" d="M143.5,34.1c0,0.9-0.5,2.5-3,2.5c-0.3,0-1.4-0.1-2.1-0.1c0,0-0.1-0.1-0.1-0.1c0-0.2-0.4-1.8-0.4-2
		c0-0.1,0.3-0.1,0.3-0.1c0.4,0,0.6,1.9,2.3,1.9c1.3,0,1.7-1,1.7-1.6c0-1.9-4.1-1.3-4.1-3.9c0-1.5,1.3-2.5,2.8-2.5
		c0.9,0,1.9,0.1,2,0.2c0.2,0.1,0.3,0.4,0.3,0.5c0,0.8,0.2,1.2,0.2,1.5c0,0.1-0.1,0.1-0.2,0.1c-0.2,0-0.3,0-0.4-0.3
		c-0.1-0.3-0.6-1.6-1.9-1.6c-0.9,0-1.5,0.5-1.5,1.4c0,0.6,0.5,1,0.9,1.2C142.2,32.1,143.5,32,143.5,34.1z"/>
	<path fill="#900000" d="M149.2,36.6c-2.5,0-4.3-1.8-4.3-4.3c0-2.4,1.8-4.3,4.3-4.3c2.5,0,4.3,1.8,4.3,4.3
		C153.5,34.9,151.8,36.6,149.2,36.6z M149.2,28.5c-1.9,0-2.5,2-2.5,3.8c0,1.6,0.4,3.8,2.5,3.8c2.2,0,2.6-2.2,2.6-3.8
		C151.7,30.5,151.1,28.5,149.2,28.5z"/>
	<path fill="#900000" d="M155.8,30.6c0-1.6-0.2-1.7-1.1-1.7c-0.1,0-0.4,0-0.4-0.2c0-0.1,0-0.4,0.2-0.4c0.2,0,0.5,0.1,1.1,0.1
		c0.6,0,1.4-0.1,1.6-0.1c0.1,0,0.1,0,0.1,0.3v5c0,1.4,0.4,2.2,1.8,2.2c0.7,0,1.8-0.4,1.8-1V30c0-1-0.2-1.1-1.1-1.1
		c-0.3,0-0.6,0-0.6-0.2c0-0.3,0-0.4,0.1-0.4c0.3,0,0.5,0.1,1.6,0.1c0.5,0,0.9-0.1,1.4-0.1c0.2,0,0.3,0.1,0.3,0.3
		c0,0.1-0.2,1.5-0.2,2.8v3.5c0,0.3,0,0.7,0.5,0.7c0.3,0,0.7-0.1,0.8-0.1c0.1,0,0.1,0,0.1,0.4c0,0.1,0,0.1-0.6,0.2
		c-1.6,0.3-2,0.5-2.1,0.5c-0.1,0-0.2-0.1-0.2-0.3c0-0.2,0-0.5,0.1-0.7c-0.9,0.7-2.1,1-2.8,1c-1.8,0-2.3-1.2-2.3-3.1V30.6z"/>
	<path fill="#900000" d="M165.9,30.3c0-0.6-0.2-1-1.1-1.1c-0.1,0-0.2-0.1-0.2-0.2c0-0.1,0.1-0.2,0.1-0.3c2.1-0.4,2.4-0.9,2.6-0.9
		c0,0,0.1,0.1,0.1,0.2c0,0.2-0.1,0.7-0.1,1.7C168,29,169,28,169.9,28c0.6,0,1.2,0.4,1.2,1c0,0.5-0.4,0.9-0.9,0.9
		c-0.8,0-0.9-0.7-1.4-0.7c-0.3,0-0.8,0.3-1.3,0.8c-0.1,0.1-0.1,0.4-0.1,0.5v4.2c0,0.7,0,1.1,0.9,1.1c0.7,0,0.8,0,0.8,0.2
		c0,0.2-0.1,0.3-0.3,0.3c-0.7,0-1.3,0-2.1,0c-1.5,0-1.8,0-2.1,0c-0.1,0-0.2-0.1-0.2-0.2c0-0.2,0.2-0.2,0.6-0.2
		c0.8,0,0.9-0.1,0.9-0.9V30.3z"/>
	<path fill="#900000" d="M174.6,34.6c0,1.1,0,1.3,0.9,1.3c0.4,0,0.4,0,0.4,0.2c0,0.1,0,0.2-0.2,0.2c-0.1,0-0.3,0-1.5,0
		c-1.7,0-2.2,0-2.5,0c-0.1,0-0.1-0.1-0.1-0.2c0-0.2,0-0.3,0.7-0.3c0.5,0,0.6-0.2,0.8-0.4c0.1-0.2,0.1-1.5,0.1-2.7v-2.5
		c0-0.6-0.2-1-1.1-1.1c-0.1,0-0.2-0.1-0.2-0.2c0-0.1,0.1-0.2,0.1-0.3c2.1-0.4,2.4-0.9,2.6-0.9c0.1,0,0.1,0.1,0.1,0.2
		c0,0.1-0.1,0.3-0.1,2.7V34.6z M172.9,24.2c0-0.5,0.4-1,1-1c0.6,0,1,0.5,1,1s-0.4,1-1,1C173.3,25.2,172.9,24.7,172.9,24.2z"/>
</g>
<g>
</g>
<g>
</g>
<g>
</g>
<g>
</g>
<g>
</g>
<g>
</g>
<g>
</g>
<g>
</g>
<g>
</g>
<g>
</g>
<g>
</g>
<g>
</g>
<g>
</g>
<g>
</g>
<g>
</g>
</svg>
