<?xml version="1.0" encoding="utf-8"?>
<!-- Generator: Adobe Illustrator 18.1.0, SVG Export Plug-In . SVG Version: 6.00 Build 0)  -->
<!DOCTYPE svg PUBLIC "-//W3C//DTD SVG 1.0//EN" "http://www.w3.org/TR/2001/REC-SVG-20010904/DTD/svg10.dtd">
<svg version="1.0" id="Layer_1" xmlns="http://www.w3.org/2000/svg" xmlns:xlink="http://www.w3.org/1999/xlink" x="0px" y="0px"
	 width="183px" height="40px" viewBox="0 0 183 40" enable-background="new 0 0 183 40" xml:space="preserve">
<g>
	<path fill="#FFFFFF" d="M4.1,8.8c0,2.5,1.1,4.8,4.2,4.8c2.2,0,4.1-1.2,4.1-5.7V4.1c0-2.6-0.5-2.6-2.5-2.6c-0.2,0-0.2-0.1-0.2-0.3
		C9.8,1,9.9,0.9,10,0.9c0.3,0,1.6,0.1,2.8,0.1c0.6,0,2.2-0.1,2.5-0.1c0.2,0,0.3,0,0.3,0.3c0,0.1,0,0.2-0.2,0.2c-1.8,0-2.2,0-2.2,2.2
		v4.5c0,5.1-3.3,6.5-5.5,6.5c-4.2,0-5.4-2.8-5.4-4.9V5.4c0-1.3,0-1.8,0-2.7c0-1.1-0.3-1.3-2-1.3C0,1.5,0,1.3,0,1.1
		C0,1,0,0.9,0.2,0.9C0.3,0.9,2,1,3.2,1c1.2,0,2.9-0.1,3-0.1c0.1,0,0.2,0.1,0.2,0.2c0,0.2,0,0.3-0.2,0.3c-1.7,0-2,0.2-2,1.3
		c0,0.9,0,1.3,0,2.7V8.8z"/>
	<path fill="#FFFFFF" d="M18.7,12.7c0,1.1,0,1.3,0.9,1.3c0.5,0,0.6,0,0.6,0.2c0,0.1,0,0.2-0.2,0.2c-0.1,0-0.3,0-1.7,0
		c-1.8,0-2.3,0-2.6,0c-0.2,0-0.2-0.1-0.2-0.2c0-0.2,0-0.3,0.7-0.3c0.5,0,0.7-0.2,0.8-0.5c0.1-0.2,0.1-1.5,0.1-2.7V8.2
		c0-0.7-0.2-1-1.1-1.1c-0.2,0-0.2-0.1-0.2-0.2c0-0.2,0.1-0.2,0.2-0.3c2.2-0.4,2.4-0.9,2.7-0.9c0,0,0.1,0.1,0.1,0.2
		c0,0.1,0,0.5,0,1.4c1-0.7,2-1.3,3-1.3c0.6,0,2.5,0.1,2.5,2.8v4.6c0,0.3,0.1,0.7,1.2,0.7c0.2,0,0.2,0.1,0.2,0.2c0,0.1,0,0.2-0.3,0.2
		c-0.6,0-0.9,0-1.9,0c-1.5,0-1.8,0-2,0c-0.1,0-0.1-0.1-0.1-0.2c0-0.1,0-0.3,0.3-0.3c0.9,0,1.1-0.1,1.1-0.7V9.9
		c0-1.8-0.2-2.9-2.1-2.9c-0.7,0-1.7,0.6-1.8,0.9V12.7z"/>
	<path fill="#FFFFFF" d="M29.4,12.7c0,1.1,0,1.3,0.9,1.3c0.4,0,0.5,0,0.5,0.2c0,0.1,0,0.2-0.2,0.2c-0.1,0-0.3,0-1.6,0
		c-1.8,0-2.3,0-2.6,0c-0.2,0-0.2-0.1-0.2-0.2c0-0.2,0-0.3,0.7-0.3c0.5,0,0.7-0.2,0.8-0.5c0.1-0.2,0.1-1.5,0.1-2.7V8.2
		c0-0.7-0.2-1-1.1-1.1c-0.2,0-0.2-0.1-0.2-0.2c0-0.2,0.1-0.2,0.2-0.3c2.2-0.4,2.4-0.9,2.7-0.9c0.1,0,0.1,0.1,0.1,0.2
		c0,0.1-0.1,0.3-0.1,2.7V12.7z M27.6,2c0-0.5,0.4-1,1-1s1,0.5,1,1c0,0.5-0.4,1-1,1S27.6,2.5,27.6,2z"/>
	<path fill="#FFFFFF" d="M38.1,7.2c0-0.6-1-0.6-1.3-0.6c-0.1,0-0.2-0.1-0.2-0.3c0-0.1,0.1-0.2,0.2-0.2c0.5,0,1.1,0,1.6,0
		c0.6,0,1.1,0,1.7,0c0.1,0,0.2,0.1,0.2,0.2c0,0.1,0,0.2-0.2,0.2c-1.1,0.2-1.2,0.2-1.8,1.7c-0.7,1.6-1.8,4-2.1,4.8
		c-0.5,1.3-0.7,1.5-0.9,1.5c-0.2,0-0.3-0.4-0.7-1.2C34,12,32.4,7.4,32.2,7c-0.2-0.3-0.4-0.3-0.7-0.3c-0.5,0-0.6-0.1-0.6-0.3
		c0-0.1,0.1-0.2,0.2-0.2c0.6,0,1.2,0,1.8,0c0.4,0,1.9,0,2.3,0c0.1,0,0.2,0.2,0.2,0.3c0,0.1-0.1,0.2-0.2,0.2c-0.6,0-1.1,0.1-1.1,0.5
		c0,0.6,1.5,4.5,1.9,5.3C37.8,8.5,38.1,7.8,38.1,7.2z"/>
	<path fill="#FFFFFF" d="M41.8,9.3c-0.1,0.4-0.1,0.7-0.1,1.1c0,1.2,1,3.1,3.1,3.1c0.9,0,1.6-0.3,2.2-1.1c0.1-0.2,0.2-0.3,0.3-0.3
		c0.1,0,0.3,0.2,0.3,0.2c0,0.1-0.8,2.4-3.3,2.4c-2.7,0-4.1-1.7-4.1-4.3c0-2.7,1.8-4.6,3.8-4.6c3.1,0,3.4,2.7,3.4,3.3
		c0,0.2-0.1,0.2-0.2,0.2H41.8z M45,8.7c0.4,0,0.6-0.1,0.6-0.6c0-1.5-1-1.8-1.7-1.8c-1.4,0-1.9,1.1-2.1,2.4H45z"/>
	<path fill="#FFFFFF" d="M50.1,8.2c0-0.7-0.2-1-1.1-1.1c-0.2,0-0.2-0.1-0.2-0.2c0-0.2,0.1-0.2,0.2-0.3c2.2-0.4,2.4-0.9,2.7-0.9
		c0,0,0.1,0.1,0.1,0.2c0,0.2-0.1,0.7-0.1,1.7c0.6-0.7,1.7-1.7,2.7-1.7c0.7,0,1.2,0.4,1.2,1.1c0,0.5-0.4,0.9-0.9,0.9
		c-0.8,0-0.9-0.7-1.5-0.7c-0.3,0-0.8,0.3-1.3,0.8c-0.1,0.2-0.1,0.4-0.1,0.6v4.3c0,0.7,0,1.1,0.9,1.1c0.7,0,0.8,0,0.8,0.2
		c0,0.2-0.1,0.3-0.3,0.3c-0.7,0-1.3,0-2.2,0c-1.5,0-1.8,0-2.2,0c-0.1,0-0.2-0.1-0.2-0.2c0-0.2,0.2-0.2,0.6-0.2c0.8,0,1-0.2,1-1V8.2z
		"/>
	<path fill="#FFFFFF" d="M61.9,12.1c0,0.9-0.5,2.6-3.1,2.6c-0.3,0-1.4-0.2-2.2-0.2c0,0-0.1-0.1-0.1-0.1c0-0.2-0.4-1.9-0.4-2
		c0-0.1,0.3-0.1,0.3-0.1c0.5,0,0.6,1.9,2.4,1.9c1.3,0,1.7-1,1.7-1.7c0-2-4.2-1.3-4.2-4c0-1.6,1.3-2.6,2.9-2.6c0.9,0,2,0.2,2,0.2
		c0.2,0.1,0.3,0.4,0.3,0.5c0,0.8,0.2,1.3,0.2,1.5c0,0.1-0.1,0.2-0.2,0.2c-0.2,0-0.3,0-0.4-0.3c-0.1-0.3-0.6-1.6-2-1.6
		c-0.9,0-1.5,0.5-1.5,1.4c0,0.7,0.5,1.1,0.9,1.3C60.5,10,61.9,10,61.9,12.1z"/>
	<path fill="#FFFFFF" d="M66,12.7c0,1.1,0,1.3,0.9,1.3c0.4,0,0.5,0,0.5,0.2c0,0.1,0,0.2-0.2,0.2c-0.1,0-0.3,0-1.6,0
		c-1.8,0-2.3,0-2.6,0c-0.2,0-0.2-0.1-0.2-0.2c0-0.2,0-0.3,0.7-0.3c0.5,0,0.7-0.2,0.8-0.5c0.1-0.2,0.1-1.5,0.1-2.7V8.2
		c0-0.7-0.2-1-1.1-1.1c-0.2,0-0.2-0.1-0.2-0.2c0-0.2,0.1-0.2,0.2-0.3c2.2-0.4,2.4-0.9,2.7-0.9c0.1,0,0.1,0.1,0.1,0.2
		c0,0.1-0.1,0.3-0.1,2.7V12.7z M64.2,2c0-0.5,0.4-1,1-1c0.6,0,1,0.5,1,1c0,0.5-0.4,1-1,1C64.6,3,64.2,2.5,64.2,2z"/>
	<path fill="#FFFFFF" d="M70.6,11.1c0,2,0.2,2.7,1.7,2.7c0.6,0,1.2-0.4,1.3-0.4c0.1,0,0.2,0.2,0.2,0.3c0,0.1-0.8,1-2.5,1
		c-2.2,0-2.2-1.9-2.2-2.4v-5c0-0.2-0.1-0.2-0.2-0.2h-0.9c-0.1,0-0.1-0.1-0.1-0.2c0-0.1,0-0.2,0.1-0.3c1.8-1.3,2.1-2.3,2.5-2.3
		c0.1,0,0.2,0.1,0.2,0.2c0,0.3-0.1,0.7-0.1,1.7h2.9c0.1,0,0.2,0.1,0.2,0.4c0,0.2-0.1,0.5-0.5,0.5c-0.1,0-1-0.1-2.6-0.1V11.1z"/>
	<path fill="#FFFFFF" d="M82,7.3c0-0.6-0.9-0.6-1.5-0.6c-0.2,0-0.2-0.1-0.2-0.2c0-0.1,0.1-0.2,0.2-0.2c0.6,0,1.2,0,1.8,0
		c0.6,0,1.2,0,1.8,0c0.1,0,0.1,0.2,0.1,0.2c0,0.2-0.1,0.2-0.3,0.2c-0.6,0.1-0.9,0.2-1.2,0.8c-0.7,1.6-3.3,7.1-3.7,8.1
		c-1.5,3.7-2.1,3.9-2.7,3.9c-0.6,0-1.1-0.5-1.1-1.1c0-0.6,0.6-1,1.1-1c0.5,0,0.7,0.3,0.9,0.3c0.3,0,1.2-1.8,1.2-2.7
		c0-0.5-0.5-1.6-0.7-2.1c-1.2-3.1-1.6-4.7-2-5.8c-0.2-0.4-1.1-0.4-1.4-0.4c-0.1,0-0.2-0.1-0.2-0.3c0-0.2,0.1-0.2,0.2-0.2
		c0.2,0,1.4,0,2.1,0c0.6,0,1.3,0,1.9,0c0.2,0,0.2,0.1,0.2,0.2c0,0.1-0.1,0.2-0.2,0.2c-0.1,0-0.9,0-0.9,0.4c0,0.9,0.6,2.8,1.9,6
		C80.5,11.3,82,7.9,82,7.3z"/>
	<path fill="#FFFFFF" d="M93.9,14.7c-2.6,0-4.4-1.9-4.4-4.4c0-2.5,1.9-4.4,4.4-4.4c2.5,0,4.4,1.8,4.4,4.4
		C98.3,12.9,96.6,14.7,93.9,14.7z M93.9,6.4c-2,0-2.6,2-2.6,3.9c0,1.6,0.4,3.9,2.6,3.9c2.2,0,2.6-2.3,2.6-3.9
		C96.5,8.4,95.9,6.4,93.9,6.4z"/>
	<path fill="#FFFFFF" d="M102.7,12.8c0,0.7,0,1.1,0.9,1.1c0.7,0,0.8,0,0.8,0.2c0,0.2-0.1,0.3-0.3,0.3c-0.7,0-1.3,0-2.2,0
		c-1.5,0-1.8,0-2,0c-0.1,0-0.2-0.1-0.2-0.2c0-0.2,0-0.2,0.4-0.2c0.8,0,1-0.2,1-1V7.7c0-0.2,0-0.6-0.4-0.6h-1c-0.1,0-0.2,0-0.2-0.2
		c0-0.2,0.1-0.2,0.6-0.3c0.7-0.2,0.9-0.2,1-1.1c0.2-2.9,1-4.5,3.3-5.1c0.3-0.1,0.8-0.2,1.2-0.2c0.5,0,1.2,0.2,1.2,0.8
		c0,0.6-0.3,0.9-0.9,0.9c-0.2,0-0.6-0.1-1-0.4c-0.3-0.3-0.7-0.4-0.8-0.4c-1.1,0-1.3,1.6-1.3,2.8v2.4h2.4c0.1,0,0.2,0.1,0.2,0.4
		c0,0.2-0.1,0.5-0.5,0.5c-0.1,0-1.6-0.1-2-0.1V12.8z"/>
	<path fill="#FFFFFF" d="M126.2,1.1c0.1-0.2,0.1-0.2,0.2-0.2c0.1,0,1.5,0.1,1.9,0.1c0.3,0,1.9-0.1,2.1-0.1c0.2,0,0.2,0.2,0.2,0.3
		c0,0.2-0.1,0.2-0.2,0.2c-1.7,0-1.9,0.1-1.9,1c0,1.2,0.2,5.2,0.4,10.5c0,0.6,0.6,0.9,1,0.9c1.1,0,1.1,0.1,1.1,0.2
		c0,0.3-0.1,0.3-0.2,0.3c-0.2,0-0.4,0-3,0c-2.5,0-2.6,0-2.7,0c-0.2,0-0.2-0.1-0.2-0.3c0-0.1,0-0.3,0.9-0.3c1.3,0,1.3-0.3,1.3-1.1
		c0-1.1-0.3-7.3-0.4-10.8h0c-1.4,3.5-3.1,7.6-4.4,10.7c-0.7,1.7-0.7,2-1,2c-0.2,0-0.3-0.2-0.7-1.5c-0.4-1.4-3.5-9.7-3.6-9.7
		c-0.3,1.4-1.6,7.7-1.6,9.6c0,0.6,0.3,0.9,0.9,0.9c0.5,0,1,0,1,0.2c0,0.4,0,0.4-0.2,0.4c-0.2,0-0.3,0-2.3,0c-1.7,0-1.9,0-2,0
		c-0.2,0-0.2,0-0.2-0.3c0-0.2,0.1-0.2,1-0.2c0.7,0,0.8-0.2,1-1.3c0.5-2.7,1-5.5,1.6-8.2c0.2-0.9,0.2-1.4,0.2-1.8
		c0-0.1-0.3-0.8-0.5-0.9c-0.2-0.1-1-0.2-1.6-0.2c-0.2,0-0.2-0.2-0.2-0.3c0-0.2,0-0.3,0.2-0.3c0.4,0,2,0.1,2.2,0.1
		c0.5,0,1.3-0.1,1.5-0.1c0.2,0,0.3,0.2,0.5,0.9c0.4,1.4,3.1,9.1,3.5,9.8C123.4,8.2,124.8,4.8,126.2,1.1z"/>
	<path fill="#FFFFFF" d="M134.6,12.7c0,1.1,0,1.3,0.9,1.3c0.4,0,0.5,0,0.5,0.2c0,0.1,0,0.2-0.2,0.2c-0.1,0-0.3,0-1.6,0
		c-1.8,0-2.3,0-2.6,0c-0.2,0-0.2-0.1-0.2-0.2c0-0.2,0-0.3,0.7-0.3c0.5,0,0.7-0.2,0.8-0.5c0.1-0.2,0.1-1.5,0.1-2.7V8.2
		c0-0.7-0.2-1-1.1-1.1c-0.2,0-0.2-0.1-0.2-0.2c0-0.2,0.1-0.2,0.2-0.3c2.2-0.4,2.4-0.9,2.7-0.9c0.1,0,0.1,0.1,0.1,0.2
		c0,0.1-0.1,0.3-0.1,2.7V12.7z M132.9,2c0-0.5,0.4-1,1-1c0.6,0,1,0.5,1,1c0,0.5-0.4,1-1,1C133.3,3,132.9,2.5,132.9,2z"/>
	<path fill="#FFFFFF" d="M142.8,12.1c0,0.9-0.5,2.6-3.1,2.6c-0.3,0-1.4-0.2-2.2-0.2c0,0-0.1-0.1-0.1-0.1c0-0.2-0.4-1.9-0.4-2
		c0-0.1,0.3-0.1,0.3-0.1c0.5,0,0.6,1.9,2.4,1.9c1.3,0,1.7-1,1.7-1.7c0-2-4.2-1.3-4.2-4c0-1.6,1.3-2.6,2.9-2.6c0.9,0,2,0.2,2,0.2
		c0.2,0.1,0.3,0.4,0.3,0.5c0,0.8,0.2,1.3,0.2,1.5c0,0.1-0.1,0.2-0.2,0.2c-0.2,0-0.3,0-0.4-0.3c-0.1-0.3-0.6-1.6-2-1.6
		c-0.9,0-1.5,0.5-1.5,1.4c0,0.7,0.5,1.1,0.9,1.3C141.5,10,142.8,10,142.8,12.1z"/>
	<path fill="#FFFFFF" d="M149.8,12.1c0,0.9-0.5,2.6-3.1,2.6c-0.3,0-1.4-0.2-2.2-0.2c0,0-0.1-0.1-0.1-0.1c0-0.2-0.4-1.9-0.4-2
		c0-0.1,0.3-0.1,0.3-0.1c0.5,0,0.6,1.9,2.4,1.9c1.3,0,1.7-1,1.7-1.7c0-2-4.2-1.3-4.2-4c0-1.6,1.3-2.6,2.9-2.6c0.9,0,2,0.2,2,0.2
		c0.2,0.1,0.3,0.4,0.3,0.5c0,0.8,0.2,1.3,0.2,1.5c0,0.1-0.1,0.2-0.2,0.2c-0.2,0-0.3,0-0.4-0.3c-0.1-0.3-0.6-1.6-2-1.6
		c-0.9,0-1.5,0.5-1.5,1.4c0,0.7,0.5,1.1,0.9,1.3C148.5,10,149.8,10,149.8,12.1z"/>
	<path fill="#FFFFFF" d="M155.6,14.7c-2.6,0-4.4-1.9-4.4-4.4c0-2.5,1.9-4.4,4.4-4.4c2.5,0,4.4,1.8,4.4,4.4
		C160,12.9,158.3,14.7,155.6,14.7z M155.6,6.4c-2,0-2.6,2-2.6,3.9c0,1.6,0.4,3.9,2.6,3.9c2.2,0,2.6-2.3,2.6-3.9
		C158.2,8.4,157.6,6.4,155.6,6.4z"/>
	<path fill="#FFFFFF" d="M162.4,8.5c0-1.7-0.2-1.8-1.2-1.8c-0.2,0-0.4,0-0.4-0.2c0-0.2,0-0.4,0.2-0.4c0.2,0,0.5,0.1,1.1,0.1
		c0.7,0,1.4-0.1,1.7-0.1c0.1,0,0.2,0,0.2,0.3v5.1c0,1.4,0.5,2.2,1.9,2.2c0.7,0,1.9-0.4,1.9-1V7.9c0-1-0.2-1.1-1.2-1.1
		c-0.3,0-0.6,0-0.6-0.2c0-0.3,0-0.4,0.1-0.4c0.3,0,0.5,0.1,1.7,0.1c0.5,0,1-0.1,1.4-0.1c0.2,0,0.3,0.1,0.3,0.3
		c0,0.1-0.2,1.5-0.2,2.9v3.6c0,0.3,0,0.7,0.5,0.7c0.3,0,0.7-0.1,0.8-0.1c0.1,0,0.1,0,0.1,0.4c0,0.1,0,0.2-0.6,0.2
		c-1.6,0.3-2.1,0.5-2.2,0.5c-0.1,0-0.2-0.1-0.2-0.3c0-0.2,0-0.5,0.1-0.7c-0.9,0.7-2.1,1-2.8,1c-1.9,0-2.4-1.2-2.4-3.2V8.5z"/>
	<path fill="#FFFFFF" d="M172.8,8.2c0-0.7-0.2-1-1.1-1.1c-0.2,0-0.2-0.1-0.2-0.2c0-0.2,0.1-0.2,0.2-0.3c2.2-0.4,2.4-0.9,2.7-0.9
		c0,0,0.1,0.1,0.1,0.2c0,0.2-0.1,0.7-0.1,1.7c0.6-0.7,1.7-1.7,2.7-1.7c0.7,0,1.2,0.4,1.2,1.1c0,0.5-0.4,0.9-0.9,0.9
		c-0.8,0-0.9-0.7-1.5-0.7c-0.3,0-0.8,0.3-1.3,0.8c-0.1,0.2-0.1,0.4-0.1,0.6v4.3c0,0.7,0,1.1,0.9,1.1c0.7,0,0.8,0,0.8,0.2
		c0,0.2-0.1,0.3-0.3,0.3c-0.7,0-1.3,0-2.2,0c-1.5,0-1.8,0-2.2,0c-0.1,0-0.2-0.1-0.2-0.2c0-0.2,0.2-0.2,0.6-0.2c0.8,0,1-0.2,1-1V8.2z
		"/>
	<path fill="#FFFFFF" d="M181.7,12.7c0,1.1,0,1.3,0.9,1.3c0.4,0,0.5,0,0.5,0.2c0,0.1,0,0.2-0.2,0.2c-0.1,0-0.3,0-1.6,0
		c-1.8,0-2.3,0-2.6,0c-0.2,0-0.2-0.1-0.2-0.2c0-0.2,0-0.3,0.7-0.3c0.5,0,0.7-0.2,0.8-0.5c0.1-0.2,0.1-1.5,0.1-2.7V8.2
		c0-0.7-0.2-1-1.1-1.1c-0.2,0-0.2-0.1-0.2-0.2c0-0.2,0.1-0.2,0.2-0.3c2.2-0.4,2.4-0.9,2.7-0.9c0.1,0,0.1,0.1,0.1,0.2
		c0,0.1-0.1,0.3-0.1,2.7V12.7z M179.9,2c0-0.5,0.4-1,1-1c0.6,0,1,0.5,1,1c0,0.5-0.4,1-1,1C180.3,3,179.9,2.5,179.9,2z"/>
</g>
<g>
	<path fill="#F1B82D" d="M4.1,28.8c0,2.5,1.1,4.8,4.2,4.8c2.2,0,4.1-1.2,4.1-5.7v-3.8c0-2.6-0.5-2.6-2.5-2.6c-0.2,0-0.2-0.1-0.2-0.3
		c0-0.2,0.1-0.3,0.2-0.3c0.3,0,1.6,0.1,2.8,0.1c0.6,0,2.2-0.1,2.5-0.1c0.2,0,0.3,0,0.3,0.3c0,0.1,0,0.2-0.2,0.2
		c-1.8,0-2.2,0-2.2,2.2v4.5c0,5.1-3.3,6.5-5.5,6.5c-4.2,0-5.4-2.8-5.4-4.9v-4.3c0-1.3,0-1.8,0-2.7c0-1.1-0.3-1.3-2-1.3
		C0,21.5,0,21.3,0,21.1c0-0.1,0-0.2,0.2-0.2c0.2,0,1.8,0.1,3,0.1c1.2,0,2.9-0.1,3-0.1c0.1,0,0.2,0.1,0.2,0.2c0,0.2,0,0.3-0.2,0.3
		c-1.7,0-2,0.2-2,1.3c0,0.9,0,1.3,0,2.7V28.8z"/>
	<path fill="#F1B82D" d="M18.7,32.7c0,1.1,0,1.3,0.9,1.3c0.5,0,0.6,0,0.6,0.2c0,0.1,0,0.2-0.2,0.2c-0.1,0-0.3,0-1.7,0
		c-1.8,0-2.3,0-2.6,0c-0.2,0-0.2-0.1-0.2-0.2c0-0.2,0-0.3,0.7-0.3c0.5,0,0.7-0.2,0.8-0.5c0.1-0.2,0.1-1.5,0.1-2.7v-2.6
		c0-0.7-0.2-1-1.1-1.1c-0.2,0-0.2-0.1-0.2-0.2c0-0.2,0.1-0.2,0.2-0.3c2.2-0.4,2.4-0.9,2.7-0.9c0,0,0.1,0.1,0.1,0.2
		c0,0.1,0,0.5,0,1.4c1-0.7,2-1.3,3-1.3c0.6,0,2.5,0.1,2.5,2.8v4.6c0,0.3,0.1,0.7,1.2,0.7c0.2,0,0.2,0.1,0.2,0.2c0,0.1,0,0.2-0.3,0.2
		c-0.6,0-0.9,0-1.9,0c-1.5,0-1.8,0-2,0c-0.1,0-0.1-0.1-0.1-0.2c0-0.1,0-0.3,0.3-0.3c0.9,0,1.1-0.1,1.1-0.7v-3.4
		c0-1.8-0.2-2.9-2.1-2.9c-0.7,0-1.7,0.6-1.8,0.9V32.7z"/>
	<path fill="#F1B82D" d="M29.4,32.7c0,1.1,0,1.3,0.9,1.3c0.4,0,0.5,0,0.5,0.2c0,0.1,0,0.2-0.2,0.2c-0.1,0-0.3,0-1.6,0
		c-1.8,0-2.3,0-2.6,0c-0.2,0-0.2-0.1-0.2-0.2c0-0.2,0-0.3,0.7-0.3c0.5,0,0.7-0.2,0.8-0.5c0.1-0.2,0.1-1.5,0.1-2.7v-2.6
		c0-0.7-0.2-1-1.1-1.1c-0.2,0-0.2-0.1-0.2-0.2c0-0.2,0.1-0.2,0.2-0.3c2.2-0.4,2.4-0.9,2.7-0.9c0.1,0,0.1,0.1,0.1,0.2
		c0,0.1-0.1,0.3-0.1,2.7V32.7z M27.6,22c0-0.5,0.4-1,1-1s1,0.5,1,1c0,0.5-0.4,1-1,1S27.6,22.5,27.6,22z"/>
	<path fill="#F1B82D" d="M38.1,27.2c0-0.6-1-0.6-1.3-0.6c-0.1,0-0.2-0.1-0.2-0.3c0-0.1,0.1-0.2,0.2-0.2c0.5,0,1.1,0,1.6,0
		c0.6,0,1.1,0,1.7,0c0.1,0,0.2,0.1,0.2,0.2c0,0.1,0,0.2-0.2,0.2c-1.1,0.2-1.2,0.2-1.8,1.7c-0.7,1.6-1.8,4-2.1,4.8
		c-0.5,1.3-0.7,1.5-0.9,1.5c-0.2,0-0.3-0.4-0.7-1.2C34,32,32.4,27.4,32.2,27c-0.2-0.3-0.4-0.3-0.7-0.3c-0.5,0-0.6-0.1-0.6-0.3
		c0-0.1,0.1-0.2,0.2-0.2c0.6,0,1.2,0,1.8,0c0.4,0,1.9,0,2.3,0c0.1,0,0.2,0.2,0.2,0.3c0,0.1-0.1,0.2-0.2,0.2c-0.6,0-1.1,0.1-1.1,0.5
		c0,0.6,1.5,4.5,1.9,5.3C37.8,28.5,38.1,27.8,38.1,27.2z"/>
	<path fill="#F1B82D" d="M41.8,29.3c-0.1,0.4-0.1,0.7-0.1,1.1c0,1.2,1,3.1,3.1,3.1c0.9,0,1.6-0.3,2.2-1.1c0.1-0.2,0.2-0.3,0.3-0.3
		c0.1,0,0.3,0.2,0.3,0.2c0,0.1-0.8,2.4-3.3,2.4c-2.7,0-4.1-1.7-4.1-4.3c0-2.7,1.8-4.6,3.8-4.6c3.1,0,3.4,2.7,3.4,3.3
		c0,0.2-0.1,0.2-0.2,0.2H41.8z M45,28.7c0.4,0,0.6-0.1,0.6-0.6c0-1.5-1-1.8-1.7-1.8c-1.4,0-1.9,1.1-2.1,2.4H45z"/>
	<path fill="#F1B82D" d="M50.1,28.2c0-0.7-0.2-1-1.1-1.1c-0.2,0-0.2-0.1-0.2-0.2c0-0.2,0.1-0.2,0.2-0.3c2.2-0.4,2.4-0.9,2.7-0.9
		c0,0,0.1,0.1,0.1,0.2c0,0.2-0.1,0.7-0.1,1.7c0.6-0.7,1.7-1.7,2.7-1.7c0.7,0,1.2,0.4,1.2,1.1c0,0.5-0.4,0.9-0.9,0.9
		c-0.8,0-0.9-0.7-1.5-0.7c-0.3,0-0.8,0.3-1.3,0.8c-0.1,0.2-0.1,0.4-0.1,0.6v4.3c0,0.7,0,1.1,0.9,1.1c0.7,0,0.8,0,0.8,0.2
		c0,0.2-0.1,0.3-0.3,0.3c-0.7,0-1.3,0-2.2,0c-1.5,0-1.8,0-2.2,0c-0.1,0-0.2-0.1-0.2-0.2c0-0.2,0.2-0.2,0.6-0.2c0.8,0,1-0.2,1-1V28.2
		z"/>
	<path fill="#F1B82D" d="M61.9,32.1c0,0.9-0.5,2.6-3.1,2.6c-0.3,0-1.4-0.2-2.2-0.2c0,0-0.1-0.1-0.1-0.1c0-0.2-0.4-1.9-0.4-2
		c0-0.1,0.3-0.1,0.3-0.1c0.5,0,0.6,1.9,2.4,1.9c1.3,0,1.7-1,1.7-1.7c0-2-4.2-1.3-4.2-4c0-1.6,1.3-2.6,2.9-2.6c0.9,0,2,0.2,2,0.2
		c0.2,0.1,0.3,0.4,0.3,0.5c0,0.8,0.2,1.3,0.2,1.5c0,0.1-0.1,0.2-0.2,0.2c-0.2,0-0.3,0-0.4-0.3c-0.1-0.3-0.6-1.6-2-1.6
		c-0.9,0-1.5,0.5-1.5,1.4c0,0.7,0.5,1.1,0.9,1.3C60.5,30,61.9,30,61.9,32.1z"/>
	<path fill="#F1B82D" d="M66,32.7c0,1.1,0,1.3,0.9,1.3c0.4,0,0.5,0,0.5,0.2c0,0.1,0,0.2-0.2,0.2c-0.1,0-0.3,0-1.6,0
		c-1.8,0-2.3,0-2.6,0c-0.2,0-0.2-0.1-0.2-0.2c0-0.2,0-0.3,0.7-0.3c0.5,0,0.7-0.2,0.8-0.5c0.1-0.2,0.1-1.5,0.1-2.7v-2.6
		c0-0.7-0.2-1-1.1-1.1c-0.2,0-0.2-0.1-0.2-0.2c0-0.2,0.1-0.2,0.2-0.3c2.2-0.4,2.4-0.9,2.7-0.9c0.1,0,0.1,0.1,0.1,0.2
		c0,0.1-0.1,0.3-0.1,2.7V32.7z M64.2,22c0-0.5,0.4-1,1-1c0.6,0,1,0.5,1,1c0,0.5-0.4,1-1,1C64.6,23,64.2,22.5,64.2,22z"/>
	<path fill="#F1B82D" d="M70.6,31.1c0,2,0.2,2.7,1.7,2.7c0.6,0,1.2-0.4,1.3-0.4c0.1,0,0.2,0.2,0.2,0.3c0,0.1-0.8,1-2.5,1
		c-2.2,0-2.2-1.9-2.2-2.4v-5c0-0.2-0.1-0.2-0.2-0.2h-0.9c-0.1,0-0.1-0.1-0.1-0.2c0-0.1,0-0.2,0.1-0.3c1.8-1.3,2.1-2.3,2.5-2.3
		c0.1,0,0.2,0.1,0.2,0.2c0,0.3-0.1,0.7-0.1,1.7h2.9c0.1,0,0.2,0.1,0.2,0.4c0,0.2-0.1,0.5-0.5,0.5c-0.1,0-1-0.1-2.6-0.1V31.1z"/>
	<path fill="#F1B82D" d="M82,27.3c0-0.6-0.9-0.6-1.5-0.6c-0.2,0-0.2-0.1-0.2-0.2c0-0.1,0.1-0.2,0.2-0.2c0.6,0,1.2,0,1.8,0
		c0.6,0,1.2,0,1.8,0c0.1,0,0.1,0.2,0.1,0.2c0,0.2-0.1,0.2-0.3,0.2c-0.6,0.1-0.9,0.2-1.2,0.8c-0.7,1.6-3.3,7.1-3.7,8.1
		c-1.5,3.7-2.1,3.9-2.7,3.9c-0.6,0-1.1-0.5-1.1-1.1c0-0.6,0.6-1,1.1-1c0.5,0,0.7,0.3,0.9,0.3c0.3,0,1.2-1.8,1.2-2.7
		c0-0.5-0.5-1.6-0.7-2.1c-1.2-3.1-1.6-4.7-2-5.8c-0.2-0.4-1.1-0.4-1.4-0.4c-0.1,0-0.2-0.1-0.2-0.3c0-0.2,0.1-0.2,0.2-0.2
		c0.2,0,1.4,0,2.1,0c0.6,0,1.3,0,1.9,0c0.2,0,0.2,0.1,0.2,0.2c0,0.1-0.1,0.2-0.2,0.2c-0.1,0-0.9,0-0.9,0.4c0,0.9,0.6,2.8,1.9,6
		C80.5,31.3,82,27.9,82,27.3z"/>
	<path fill="#F1B82D" d="M93.9,34.7c-2.6,0-4.4-1.9-4.4-4.4c0-2.5,1.9-4.4,4.4-4.4c2.5,0,4.4,1.8,4.4,4.4
		C98.3,32.9,96.6,34.7,93.9,34.7z M93.9,26.4c-2,0-2.6,2-2.6,3.9c0,1.6,0.4,3.9,2.6,3.9c2.2,0,2.6-2.3,2.6-3.9
		C96.5,28.4,95.9,26.4,93.9,26.4z"/>
	<path fill="#F1B82D" d="M102.7,32.8c0,0.7,0,1.1,0.9,1.1c0.7,0,0.8,0,0.8,0.2c0,0.2-0.1,0.3-0.3,0.3c-0.7,0-1.3,0-2.2,0
		c-1.5,0-1.8,0-2,0c-0.1,0-0.2-0.1-0.2-0.2c0-0.2,0-0.2,0.4-0.2c0.8,0,1-0.2,1-1v-5.3c0-0.2,0-0.6-0.4-0.6h-1c-0.1,0-0.2,0-0.2-0.2
		c0-0.2,0.1-0.2,0.6-0.3c0.7-0.2,0.9-0.2,1-1.1c0.2-2.9,1-4.5,3.3-5.1c0.3-0.1,0.8-0.2,1.2-0.2c0.5,0,1.2,0.2,1.2,0.8
		c0,0.6-0.3,0.9-0.9,0.9c-0.2,0-0.6-0.1-1-0.4c-0.3-0.3-0.7-0.4-0.8-0.4c-1.1,0-1.3,1.6-1.3,2.8v2.4h2.4c0.1,0,0.2,0.1,0.2,0.4
		c0,0.2-0.1,0.5-0.5,0.5c-0.1,0-1.6-0.1-2-0.1V32.8z"/>
	<path fill="#F1B82D" d="M126.2,21.1c0.1-0.2,0.1-0.2,0.2-0.2c0.1,0,1.5,0.1,1.9,0.1c0.3,0,1.9-0.1,2.1-0.1c0.2,0,0.2,0.2,0.2,0.3
		c0,0.2-0.1,0.2-0.2,0.2c-1.7,0-1.9,0.1-1.9,1c0,1.2,0.2,5.2,0.4,10.5c0,0.6,0.6,0.9,1,0.9c1.1,0,1.1,0.1,1.1,0.2
		c0,0.3-0.1,0.3-0.2,0.3c-0.2,0-0.4,0-3,0c-2.5,0-2.6,0-2.7,0c-0.2,0-0.2-0.1-0.2-0.3c0-0.1,0-0.3,0.9-0.3c1.3,0,1.3-0.3,1.3-1.1
		c0-1.1-0.3-7.3-0.4-10.8h0c-1.4,3.5-3.1,7.6-4.4,10.7c-0.7,1.7-0.7,2-1,2c-0.2,0-0.3-0.2-0.7-1.5c-0.4-1.4-3.5-9.7-3.6-9.7
		c-0.3,1.4-1.6,7.7-1.6,9.6c0,0.6,0.3,0.9,0.9,0.9c0.5,0,1,0,1,0.2c0,0.4,0,0.4-0.2,0.4c-0.2,0-0.3,0-2.3,0c-1.7,0-1.9,0-2,0
		c-0.2,0-0.2,0-0.2-0.3c0-0.2,0.1-0.2,1-0.2c0.7,0,0.8-0.2,1-1.3c0.5-2.7,1-5.5,1.6-8.2c0.2-0.9,0.2-1.4,0.2-1.8
		c0-0.1-0.3-0.8-0.5-0.9c-0.2-0.1-1-0.2-1.6-0.2c-0.2,0-0.2-0.2-0.2-0.3c0-0.2,0-0.3,0.2-0.3c0.4,0,2,0.1,2.2,0.1
		c0.5,0,1.3-0.1,1.5-0.1c0.2,0,0.3,0.2,0.5,0.9c0.4,1.4,3.1,9.1,3.5,9.8C123.4,28.2,124.8,24.8,126.2,21.1z"/>
	<path fill="#F1B82D" d="M134.6,32.7c0,1.1,0,1.3,0.9,1.3c0.4,0,0.5,0,0.5,0.2c0,0.1,0,0.2-0.2,0.2c-0.1,0-0.3,0-1.6,0
		c-1.8,0-2.3,0-2.6,0c-0.2,0-0.2-0.1-0.2-0.2c0-0.2,0-0.3,0.7-0.3c0.5,0,0.7-0.2,0.8-0.5c0.1-0.2,0.1-1.5,0.1-2.7v-2.6
		c0-0.7-0.2-1-1.1-1.1c-0.2,0-0.2-0.1-0.2-0.2c0-0.2,0.1-0.2,0.2-0.3c2.2-0.4,2.4-0.9,2.7-0.9c0.1,0,0.1,0.1,0.1,0.2
		c0,0.1-0.1,0.3-0.1,2.7V32.7z M132.9,22c0-0.5,0.4-1,1-1c0.6,0,1,0.5,1,1c0,0.5-0.4,1-1,1C133.3,23,132.9,22.5,132.9,22z"/>
	<path fill="#F1B82D" d="M142.8,32.1c0,0.9-0.5,2.6-3.1,2.6c-0.3,0-1.4-0.2-2.2-0.2c0,0-0.1-0.1-0.1-0.1c0-0.2-0.4-1.9-0.4-2
		c0-0.1,0.3-0.1,0.3-0.1c0.5,0,0.6,1.9,2.4,1.9c1.3,0,1.7-1,1.7-1.7c0-2-4.2-1.3-4.2-4c0-1.6,1.3-2.6,2.9-2.6c0.9,0,2,0.2,2,0.2
		c0.2,0.1,0.3,0.4,0.3,0.5c0,0.8,0.2,1.3,0.2,1.5c0,0.1-0.1,0.2-0.2,0.2c-0.2,0-0.3,0-0.4-0.3c-0.1-0.3-0.6-1.6-2-1.6
		c-0.9,0-1.5,0.5-1.5,1.4c0,0.7,0.5,1.1,0.9,1.3C141.5,30,142.8,30,142.8,32.1z"/>
	<path fill="#F1B82D" d="M149.8,32.1c0,0.9-0.5,2.6-3.1,2.6c-0.3,0-1.4-0.2-2.2-0.2c0,0-0.1-0.1-0.1-0.1c0-0.2-0.4-1.9-0.4-2
		c0-0.1,0.3-0.1,0.3-0.1c0.5,0,0.6,1.9,2.4,1.9c1.3,0,1.7-1,1.7-1.7c0-2-4.2-1.3-4.2-4c0-1.6,1.3-2.6,2.9-2.6c0.9,0,2,0.2,2,0.2
		c0.2,0.1,0.3,0.4,0.3,0.5c0,0.8,0.2,1.3,0.2,1.5c0,0.1-0.1,0.2-0.2,0.2c-0.2,0-0.3,0-0.4-0.3c-0.1-0.3-0.6-1.6-2-1.6
		c-0.9,0-1.5,0.5-1.5,1.4c0,0.7,0.5,1.1,0.9,1.3C148.5,30,149.8,30,149.8,32.1z"/>
	<path fill="#F1B82D" d="M155.6,34.7c-2.6,0-4.4-1.9-4.4-4.4c0-2.5,1.9-4.4,4.4-4.4c2.5,0,4.4,1.8,4.4,4.4
		C160,32.9,158.3,34.7,155.6,34.7z M155.6,26.4c-2,0-2.6,2-2.6,3.9c0,1.6,0.4,3.9,2.6,3.9c2.2,0,2.6-2.3,2.6-3.9
		C158.2,28.4,157.6,26.4,155.6,26.4z"/>
	<path fill="#F1B82D" d="M162.4,28.5c0-1.7-0.2-1.8-1.2-1.8c-0.2,0-0.4,0-0.4-0.2c0-0.2,0-0.4,0.2-0.4c0.2,0,0.5,0.1,1.1,0.1
		c0.7,0,1.4-0.1,1.7-0.1c0.1,0,0.2,0,0.2,0.3v5.1c0,1.4,0.5,2.2,1.9,2.2c0.7,0,1.9-0.4,1.9-1v-4.9c0-1-0.2-1.1-1.2-1.1
		c-0.3,0-0.6,0-0.6-0.2c0-0.3,0-0.4,0.1-0.4c0.3,0,0.5,0.1,1.7,0.1c0.5,0,1-0.1,1.4-0.1c0.2,0,0.3,0.1,0.3,0.3
		c0,0.1-0.2,1.5-0.2,2.9v3.6c0,0.3,0,0.7,0.5,0.7c0.3,0,0.7-0.1,0.8-0.1c0.1,0,0.1,0,0.1,0.4c0,0.1,0,0.2-0.6,0.2
		c-1.6,0.3-2.1,0.5-2.2,0.5c-0.1,0-0.2-0.1-0.2-0.3c0-0.2,0-0.5,0.1-0.7c-0.9,0.7-2.1,1-2.8,1c-1.9,0-2.4-1.2-2.4-3.2V28.5z"/>
	<path fill="#F1B82D" d="M172.8,28.2c0-0.7-0.2-1-1.1-1.1c-0.2,0-0.2-0.1-0.2-0.2c0-0.2,0.1-0.2,0.2-0.3c2.2-0.4,2.4-0.9,2.7-0.9
		c0,0,0.1,0.1,0.1,0.2c0,0.2-0.1,0.7-0.1,1.7c0.6-0.7,1.7-1.7,2.7-1.7c0.7,0,1.2,0.4,1.2,1.1c0,0.5-0.4,0.9-0.9,0.9
		c-0.8,0-0.9-0.7-1.5-0.7c-0.3,0-0.8,0.3-1.3,0.8c-0.1,0.2-0.1,0.4-0.1,0.6v4.3c0,0.7,0,1.1,0.9,1.1c0.7,0,0.8,0,0.8,0.2
		c0,0.2-0.1,0.3-0.3,0.3c-0.7,0-1.3,0-2.2,0c-1.5,0-1.8,0-2.2,0c-0.1,0-0.2-0.1-0.2-0.2c0-0.2,0.2-0.2,0.6-0.2c0.8,0,1-0.2,1-1V28.2
		z"/>
	<path fill="#F1B82D" d="M181.7,32.7c0,1.1,0,1.3,0.9,1.3c0.4,0,0.5,0,0.5,0.2c0,0.1,0,0.2-0.2,0.2c-0.1,0-0.3,0-1.6,0
		c-1.8,0-2.3,0-2.6,0c-0.2,0-0.2-0.1-0.2-0.2c0-0.2,0-0.3,0.7-0.3c0.5,0,0.7-0.2,0.8-0.5c0.1-0.2,0.1-1.5,0.1-2.7v-2.6
		c0-0.7-0.2-1-1.1-1.1c-0.2,0-0.2-0.1-0.2-0.2c0-0.2,0.1-0.2,0.2-0.3c2.2-0.4,2.4-0.9,2.7-0.9c0.1,0,0.1,0.1,0.1,0.2
		c0,0.1-0.1,0.3-0.1,2.7V32.7z M179.9,22c0-0.5,0.4-1,1-1c0.6,0,1,0.5,1,1c0,0.5-0.4,1-1,1C180.3,23,179.9,22.5,179.9,22z"/>
</g>
<g>
</g>
<g>
</g>
<g>
</g>
<g>
</g>
<g>
</g>
<g>
</g>
<g>
</g>
<g>
</g>
<g>
</g>
<g>
</g>
<g>
</g>
<g>
</g>
<g>
</g>
<g>
</g>
<g>
</g>
</svg>
