<?xml version="1.0" encoding="utf-8"?>
<!-- Generator: Adobe Illustrator 18.1.0, SVG Export Plug-In . SVG Version: 6.00 Build 0)  -->
<!DOCTYPE svg PUBLIC "-//W3C//DTD SVG 1.0//EN" "http://www.w3.org/TR/2001/REC-SVG-20010904/DTD/svg10.dtd">
<svg version="1.0" id="Layer_1" xmlns="http://www.w3.org/2000/svg" xmlns:xlink="http://www.w3.org/1999/xlink" x="0px" y="0px"
	 width="284px" height="80px" viewBox="0 0 284 80" enable-background="new 0 0 284 80" xml:space="preserve">
<g>
	<path fill="#FFFFFF" d="M15.1,29.5c-9.4,0-13-7.5-13-12.2c0-8.4,6.3-13.6,13-13.6c7.4,0,13,4.4,13,13.4C28,22,24.5,29.5,15.1,29.5z
		 M15.1,4.7c-8.2,0-8.8,9.1-8.8,12c0,4.8,2.3,11.9,8.8,11.9c8.3,0,8.8-7.8,8.8-12C23.9,11.7,21.5,4.7,15.1,4.7z"/>
	<path fill="#FFFFFF" d="M36.4,26.1c0,1.3,0,2.1,1.8,2.1c1.3,0,1.4,0,1.4,0.4c0,0.5-0.1,0.5-0.5,0.5c-1.3,0-2.4-0.1-4-0.1
		c-2.8,0-3.4,0.1-3.7,0.1c-0.2,0-0.3-0.2-0.3-0.5c0-0.3,0.1-0.5,0.7-0.5c1.5,0,1.8-0.3,1.8-1.8v-9.8c0-0.4,0-1.1-0.7-1.1H31
		c-0.2,0-0.4,0-0.4-0.5c0-0.3,0.2-0.4,1.1-0.6c1.4-0.3,1.7-0.4,1.8-2c0.4-5.3,1.9-8.3,6.1-9.3C40.1,3,41,2.9,41.6,2.9
		c0.9,0,2.2,0.4,2.2,1.5c0,1-0.6,1.7-1.6,1.7c-0.3,0-1.1-0.1-1.9-0.8c-0.6-0.5-1.2-0.8-1.5-0.8c-2,0-2.3,2.9-2.3,5.1v4.5h4.3
		c0.2,0,0.4,0.2,0.4,0.7c0,0.5-0.2,0.9-0.9,0.9c-0.2,0-2.9-0.2-3.7-0.2V26.1z"/>
	<path fill="#FFFFFF" d="M47.4,26.1c0,1.3,0,2.1,1.8,2.1c0.8,0,0.9,0,0.9,0.4c0,0.5-0.1,0.5-0.5,0.5c-0.7,0-1.9-0.1-3.5-0.1
		c-2.8,0-3.4,0.1-3.7,0.1c-0.2,0-0.3-0.2-0.3-0.5c0-0.3,0.1-0.5,0.7-0.5c1.5,0,1.8-0.3,1.8-1.8v-9.8c0-0.4,0-1.1-0.7-1.1H42
		c-0.2,0-0.4,0-0.4-0.5c0-0.3,0.2-0.4,1.1-0.6c1.4-0.3,1.7-0.4,1.8-2c0.4-5.1,4.1-9.6,9.7-9.6c0.9,0,3.3,0.4,3.3,1.9
		c0,1.2-0.9,1.7-1.8,1.7c-2.5,0-3-2-4.2-2c-1.3,0-4,0.7-4,7.5v2.1h6c2,0,3.5-1.3,3.9-1.3c0.1,0,0.2,0.2,0.2,0.4c0,0.1-0.2,0.5-0.2,5
		v7.6c0,2,0.1,2.4,1.6,2.4c0.8,0,0.8,0,0.8,0.5c0,0.2,0,0.5-0.4,0.5c-0.2,0-0.6-0.1-2.9-0.1c-3.3,0-4.2,0.1-4.7,0.1
		c-0.3,0-0.3-0.2-0.3-0.4c0-0.5,0-0.5,1.3-0.5c0.9,0,1.2-0.4,1.4-0.8c0.1-0.3,0.2-2.8,0.2-5v-4.8c0-1.8-1.3-2.2-2-2.2h-5.1V26.1z"/>
	<path fill="#FFFFFF" d="M74.6,26.1c0.3-0.2,0.4-0.6,0.6-0.6c0.1,0,0.5,0.2,0.5,0.5c0,0.1-0.1,0.3-0.3,0.5c-1.8,2-3.8,3-6.1,3
		c-4.1,0-7.2-2.9-7.2-7.9c0-5.2,3.4-8.3,7.9-8.3c4.8,0,5.7,2.6,5.7,3.3c0,0.4-0.6,1.5-1.9,1.5c-1.1,0-1.3-0.4-1.6-2.3
		c-0.1-0.5-0.4-1.6-2.2-1.6c-2.2,0-4.9,1.7-4.9,7.4c0,1.6,0.6,6,6,6C72.3,27.6,73.9,26.7,74.6,26.1z"/>
	<path fill="#FFFFFF" d="M80.6,19.6c-0.1,0.7-0.1,1.3-0.1,2c0,2.3,1.9,5.8,5.7,5.8c1.6,0,3-0.5,4.1-2.1c0.2-0.3,0.4-0.6,0.5-0.6
		c0.2,0,0.6,0.3,0.6,0.4s-1.4,4.4-6,4.4c-5,0-7.6-3.1-7.6-8c0-5,3.4-8.4,7-8.4c5.8,0,6.3,5,6.3,6.1c0,0.4-0.1,0.4-0.4,0.4H80.6z
		 M86.7,18.5c0.7,0,1.2-0.2,1.2-1.2c0-2.7-1.9-3.3-3.1-3.3c-2.5,0-3.6,2.1-3.9,4.5H86.7z"/>
	<path fill="#FFFFFF" d="M111,29.5c-4.8,0-8.1-3.5-8.1-8.1c0-4.6,3.5-8.1,8.1-8.1c4.7,0,8.2,3.4,8.2,8.1
		C119.1,26.3,115.9,29.5,111,29.5z M111,14.2c-3.6,0-4.8,3.8-4.8,7.2c0,3,0.7,7.2,4.8,7.2c4.1,0,4.8-4.2,4.8-7.2
		C115.8,18,114.6,14.2,111,14.2z"/>
	<path fill="#FFFFFF" d="M127.1,26.1c0,1.3,0,2.1,1.8,2.1c1.3,0,1.4,0,1.4,0.4c0,0.5-0.1,0.5-0.5,0.5c-1.3,0-2.4-0.1-4-0.1
		c-2.8,0-3.4,0.1-3.7,0.1c-0.2,0-0.3-0.2-0.3-0.5c0-0.3,0.1-0.5,0.7-0.5c1.5,0,1.8-0.3,1.8-1.8v-9.8c0-0.4,0-1.1-0.7-1.1h-1.9
		c-0.2,0-0.4,0-0.4-0.5c0-0.3,0.2-0.4,1.1-0.6c1.4-0.3,1.7-0.4,1.8-2c0.4-5.3,1.9-8.3,6.1-9.3c0.6-0.1,1.5-0.3,2.1-0.3
		c0.9,0,2.2,0.4,2.2,1.5c0,1-0.6,1.7-1.6,1.7c-0.3,0-1.1-0.1-1.9-0.8c-0.6-0.5-1.2-0.8-1.5-0.8c-2,0-2.3,2.9-2.3,5.1v4.5h4.3
		c0.2,0,0.3,0.2,0.3,0.7c0,0.5-0.2,0.9-0.9,0.9c-0.2,0-2.9-0.2-3.7-0.2V26.1z"/>
	<path fill="#FFFFFF" d="M145.3,12.4c0-2.5,0-3.3-0.1-4.9c0-2.1-0.6-2.3-3.2-2.3c-0.4,0-0.4-0.3-0.4-0.6c0-0.2,0.1-0.5,0.3-0.5
		c0.3,0,2.8,0.1,5,0.1c0.3,0,3.2-0.1,5-0.1c8.4,0,9.2,5.5,9.2,6.9c0,5-3.5,7.6-8.2,7.6c-1.4,0-2.8-0.1-4.2-0.3c0,5.6,0,6.5,0.1,7.6
		c0.1,1.4,0.3,2.2,3.9,2.2c1,0,1,0.2,1,0.6c0,0.3,0,0.5-0.3,0.5c-0.2,0-1.2-0.1-6.4-0.1c-5.1,0-5.3,0.1-5.5,0.1
		c-0.3,0-0.3-0.1-0.3-0.5c0-0.4,0-0.6,1-0.6c2.8,0,3-0.6,3-1.5c0.1-1.8,0.1-4,0.1-5.5V12.4z M148.7,16.2c0,0.8,0.2,1.3,2,1.3
		c3.8,0,6.7-2.2,6.7-6.2c0-3.6-2.3-6.2-5.7-6.2c-2.7,0-3,0-2.9,2.9V16.2z"/>
	<path fill="#FFFFFF" d="M165.9,17.5c0-1.2-0.3-1.9-2.1-2.1c-0.3,0-0.3-0.2-0.3-0.4c0-0.3,0.1-0.5,0.3-0.5c4-0.8,4.5-1.7,4.9-1.7
		c0.1,0,0.1,0.2,0.1,0.4c0,0.4-0.2,1.3-0.2,3.2c1.2-1.3,3-3,4.9-3c1.2,0,2.2,0.7,2.2,2c0,0.9-0.7,1.8-1.7,1.8
		c-1.4,0-1.6-1.3-2.7-1.3c-0.6,0-1.5,0.5-2.4,1.5c-0.2,0.3-0.2,0.7-0.2,1v7.9c0,1.3,0,2.1,1.8,2.1c1.3,0,1.4,0,1.4,0.4
		c0,0.5-0.1,0.5-0.5,0.5c-1.3,0-2.4-0.1-4-0.1c-2.8,0-3.4,0.1-4.1,0.1c-0.2,0-0.3-0.2-0.3-0.5c0-0.3,0.4-0.5,1.1-0.5
		c1.5,0,1.8-0.3,1.8-1.8V17.5z"/>
	<path fill="#FFFFFF" d="M185.5,29.5c-4.8,0-8.1-3.5-8.1-8.1c0-4.6,3.5-8.1,8.1-8.1c4.7,0,8.2,3.4,8.2,8.1
		C193.7,26.3,190.4,29.5,185.5,29.5z M185.5,14.2c-3.6,0-4.8,3.8-4.8,7.2c0,3,0.7,7.2,4.8,7.2c4.1,0,4.8-4.2,4.8-7.2
		C190.3,18,189.2,14.2,185.5,14.2z"/>
	<path fill="#FFFFFF" d="M206.1,27.6c4.8,0,4.8,3.1,4.8,4.2c0,5.3-5.8,6.8-10.1,6.8c-2.3,0-4.5-0.6-4.5-3.3c0-2.2,1.6-3.7,3-5.1
		c-1.1-0.1-2.1-1-2.1-2.1c0-2.1,1.1-3,2.7-4.1c-2-1.1-2.7-2.8-2.7-5c0-3.3,3-5.7,6.2-5.7c1.4,0,3.1,0.5,4.2,1.4c1.4-0.9,2.2-1,3-1
		c2.2,0,2.6,1.2,2.6,2c0,0.5-0.6,1.2-1.3,1.2c-0.9,0-1.8-2-2.4-2c-0.6,0-0.8,0.2-1.3,0.5c0.7,0.7,1.3,2.5,1.3,3.4c0,3.8-2.4,6-6.2,6
		c-0.4,0-1.8-0.1-2.5-0.4c-0.6,0.3-1.4,1.1-1.4,2.2c0,1,0.8,1.2,1.6,1.2H206.1z M200.5,30.2c-0.2,0-2.3,1.6-2.3,3.5
		c0,0.5,0.1,3.2,5,3.2c4,0,5.8-1.2,5.8-4c0-2.1-1.3-2.8-3.6-2.8H200.5z M206.4,18.3c0-0.5,0-4.2-2.9-4.2c-3.3,0-3.3,4.2-3.3,5.4
		c0,2.1,0.7,4.2,3.2,4.2C206.2,23.7,206.4,19.8,206.4,18.3z"/>
	<path fill="#FFFFFF" d="M216.5,17.5c0-1.2-0.3-1.9-2.1-2.1c-0.3,0-0.3-0.2-0.3-0.4c0-0.3,0.1-0.5,0.3-0.5c4-0.8,4.5-1.7,4.9-1.7
		c0.1,0,0.1,0.2,0.1,0.4c0,0.4-0.2,1.3-0.2,3.2c1.2-1.3,3-3,4.9-3c1.2,0,2.2,0.7,2.2,2c0,0.9-0.7,1.8-1.7,1.8
		c-1.4,0-1.6-1.3-2.7-1.3c-0.6,0-1.5,0.5-2.4,1.5c-0.2,0.3-0.2,0.7-0.2,1v7.9c0,1.3,0,2.1,1.8,2.1c1.3,0,1.4,0,1.4,0.4
		c0,0.5-0.1,0.5-0.5,0.5c-1.3,0-2.4-0.1-4-0.1c-2.8,0-3.4,0.1-4.1,0.1c-0.2,0-0.3-0.2-0.3-0.5c0-0.3,0.4-0.5,1.1-0.5
		c1.5,0,1.8-0.3,1.8-1.8V17.5z"/>
	<path fill="#FFFFFF" d="M239,27.2c0,0.6,0.2,0.7,0.6,0.7c0.7,0,1.2-0.8,1.5-0.8c0.2,0,0.5,0.2,0.5,0.4c0,0.4-2.3,2.1-3.5,2.1
		c-1.3,0-1.5-0.8-1.9-2c-2.1,1.6-3,2-4.5,2c-2.7,0-3.4-2-3.4-3.1c0-1.8,1.1-3.3,7.9-5.8v-3.2c0-1.8-2.1-2.8-2.9-2.8
		c-0.8,0-2.5,1.3-2.5,1.6c0,0.5,0.5,1,0.5,1.8c0,0.4-0.3,1.3-1.7,1.3c-1.2,0-1.5-0.9-1.5-1.3c0-0.9,0.2-1.4,2.9-3.2
		c2.6-1.7,3-1.8,3.8-1.8c1.1,0,4.3,0.8,4.3,4V27.2z M236.1,22c0-0.2-0.1-0.4-0.2-0.4c-0.2,0-2.8,1.2-3.5,1.7c-1,0.7-1.2,1.3-1.2,2.6
		c0,1.1,0.5,2.2,1.6,2.2c1.3,0,3.2-1.2,3.2-1.9V22z"/>
	<path fill="#FFFFFF" d="M245.4,17.5c0-1.2-0.3-1.9-2.1-2.1c-0.3,0-0.3-0.2-0.3-0.4c0-0.3,0.1-0.5,0.3-0.5c4-0.8,4.5-1.7,4.9-1.7
		c0.1,0,0.1,0.1,0.1,0.4c0,0.2-0.1,1-0.1,2.3c0.9-0.7,4.2-2.2,6.2-2.2c1.7,0,2.9,0.8,3.8,2.3c1.9-1.1,3.3-2.3,5.4-2.3
		c1.2,0,4.6,0.2,4.6,4.3v9.3c0,0.6,0.1,1.3,2.3,1.3c0.3,0,0.3,0.2,0.3,0.5c0,0.2,0,0.5-0.5,0.5c-1.1,0-1.7-0.1-3.5-0.1
		c-2.8,0-3.4,0.1-3.7,0.1c-0.2,0-0.2-0.2-0.2-0.4c0-0.2,0.1-0.5,0.5-0.5c1.7,0,2-0.1,2-1.3v-9.1c0-0.5-0.3-2.9-3.6-2.9
		c-1.5,0-3.6,1.5-3.6,1.9v9c0,2,0.1,2.4,1.6,2.4c0.9,0,1,0,1,0.5c0,0.2,0,0.5-0.4,0.5c-0.2,0-0.6-0.1-3.7-0.1
		c-2.8,0-3.4,0.1-3.7,0.1c-0.2,0-0.2-0.2-0.2-0.4c0-0.2,0.1-0.5,0.5-0.5c1.7,0,2-0.1,2-1.4v-9.1c0-1.3-0.3-2.9-3.6-2.9
		c-1.5,0-3.6,1.5-3.6,1.9v9c0,2,0.1,2.4,1.6,2.4c0.9,0,1,0,1,0.5c0,0.2,0,0.5-0.3,0.5c-0.2,0-0.6-0.1-3.1-0.1
		c-3.3,0-3.9,0.1-4.4,0.1c-0.3,0-0.3-0.2-0.3-0.4c0-0.5,0-0.5,1-0.5c0.9,0,1.2-0.4,1.4-0.8c0.1-0.3,0.2-2.8,0.2-5V17.5z"/>
	<path fill="#FFFFFF" d="M283.1,24.8c0,1.7-0.9,4.8-5.7,4.8c-0.6,0-2.7-0.3-4-0.3c-0.1,0-0.2-0.1-0.2-0.2c0-0.4-0.8-3.4-0.8-3.8
		c0-0.2,0.5-0.2,0.6-0.2c0.8,0,1,3.5,4.4,3.5c2.5,0,3.2-1.9,3.2-3.1c0-3.7-7.8-2.5-7.8-7.5c0-2.9,2.4-4.8,5.3-4.8
		c1.6,0,3.6,0.3,3.8,0.3c0.5,0.1,0.5,0.8,0.5,1c0.1,1.4,0.4,2.3,0.4,2.8c0,0.2-0.2,0.3-0.4,0.3c-0.3,0-0.5,0-0.7-0.5
		c-0.2-0.6-1.2-3-3.6-3c-1.6,0-2.8,0.9-2.8,2.6c0,1.2,0.9,2,1.6,2.3C280.5,20.9,283.1,20.8,283.1,24.8z"/>
</g>
<g>
	<path fill="#F1B82D" d="M15.1,69.5c-9.4,0-13-7.5-13-12.2c0-8.4,6.3-13.6,13-13.6c7.4,0,13,4.4,13,13.4C28,62,24.5,69.5,15.1,69.5z
		 M15.1,44.7c-8.2,0-8.8,9.1-8.8,12c0,4.8,2.3,11.9,8.8,11.9c8.3,0,8.8-7.8,8.8-12C23.9,51.7,21.5,44.7,15.1,44.7z"/>
	<path fill="#F1B82D" d="M36.4,66.1c0,1.3,0,2.1,1.8,2.1c1.3,0,1.4,0,1.4,0.4c0,0.5-0.1,0.5-0.5,0.5c-1.3,0-2.4-0.1-4-0.1
		c-2.8,0-3.4,0.1-3.7,0.1c-0.2,0-0.3-0.2-0.3-0.5c0-0.3,0.1-0.5,0.7-0.5c1.5,0,1.8-0.3,1.8-1.8v-9.8c0-0.4,0-1.1-0.7-1.1h-1.9
		c-0.2,0-0.4,0-0.4-0.5c0-0.3,0.2-0.4,1.1-0.6c1.4-0.3,1.7-0.4,1.8-2c0.4-5.3,1.9-8.3,6.1-9.3c0.6-0.1,1.5-0.3,2.1-0.3
		c0.9,0,2.2,0.3,2.2,1.5c0,1-0.6,1.7-1.6,1.7c-0.3,0-1.1-0.1-1.9-0.8c-0.6-0.5-1.2-0.8-1.5-0.8c-2,0-2.3,2.9-2.3,5.1v4.5h4.3
		c0.2,0,0.4,0.2,0.4,0.7c0,0.5-0.2,0.9-0.9,0.9c-0.2,0-2.9-0.2-3.7-0.2V66.1z"/>
	<path fill="#F1B82D" d="M47.4,66.1c0,1.3,0,2.1,1.8,2.1c0.8,0,0.9,0,0.9,0.4c0,0.5-0.1,0.5-0.5,0.5c-0.7,0-1.9-0.1-3.5-0.1
		c-2.8,0-3.4,0.1-3.7,0.1c-0.2,0-0.3-0.2-0.3-0.5c0-0.3,0.1-0.5,0.7-0.5c1.5,0,1.8-0.3,1.8-1.8v-9.8c0-0.4,0-1.1-0.7-1.1H42
		c-0.2,0-0.4,0-0.4-0.5c0-0.3,0.2-0.4,1.1-0.6c1.4-0.3,1.7-0.4,1.8-2c0.4-5.1,4.1-9.6,9.7-9.6c0.9,0,3.3,0.3,3.3,1.9
		c0,1.2-0.9,1.7-1.8,1.7c-2.5,0-3-2-4.2-2c-1.3,0-4,0.7-4,7.5v2.1h6c2,0,3.5-1.3,3.9-1.3c0.1,0,0.2,0.2,0.2,0.4c0,0.1-0.2,0.5-0.2,5
		v7.6c0,2,0.1,2.4,1.6,2.4c0.8,0,0.8,0,0.8,0.5c0,0.2,0,0.5-0.4,0.5c-0.2,0-0.6-0.1-2.9-0.1c-3.3,0-4.2,0.1-4.7,0.1
		c-0.3,0-0.3-0.2-0.3-0.4c0-0.5,0-0.5,1.3-0.5c0.9,0,1.2-0.3,1.4-0.8c0.1-0.3,0.2-2.8,0.2-5v-4.8c0-1.8-1.3-2.2-2-2.2h-5.1V66.1z"/>
	<path fill="#F1B82D" d="M74.6,66.1c0.3-0.2,0.4-0.6,0.6-0.6c0.1,0,0.5,0.2,0.5,0.5c0,0.1-0.1,0.3-0.3,0.5c-1.8,2-3.8,3-6.1,3
		c-4.1,0-7.2-2.9-7.2-7.9c0-5.2,3.4-8.3,7.9-8.3c4.8,0,5.7,2.6,5.7,3.3c0,0.4-0.6,1.5-1.9,1.5c-1.1,0-1.3-0.3-1.6-2.3
		c-0.1-0.5-0.4-1.6-2.2-1.6c-2.2,0-4.9,1.7-4.9,7.4c0,1.6,0.6,6,6,6C72.3,67.6,73.9,66.7,74.6,66.1z"/>
	<path fill="#F1B82D" d="M80.6,59.6c-0.1,0.7-0.1,1.3-0.1,2c0,2.3,1.9,5.8,5.7,5.8c1.6,0,3-0.5,4.1-2.1c0.2-0.3,0.4-0.6,0.5-0.6
		c0.2,0,0.6,0.3,0.6,0.4c0,0.1-1.4,4.4-6,4.4c-5,0-7.6-3.1-7.6-8c0-5,3.4-8.4,7-8.4c5.8,0,6.3,5,6.3,6.1c0,0.4-0.1,0.4-0.4,0.4H80.6
		z M86.7,58.5c0.7,0,1.2-0.2,1.2-1.2c0-2.7-1.9-3.3-3.1-3.3c-2.5,0-3.6,2.1-3.9,4.5H86.7z"/>
	<path fill="#F1B82D" d="M111,69.5c-4.8,0-8.1-3.5-8.1-8.1c0-4.6,3.5-8.1,8.1-8.1c4.7,0,8.2,3.4,8.2,8.1
		C119.1,66.3,115.9,69.5,111,69.5z M111,54.2c-3.6,0-4.8,3.8-4.8,7.2c0,3,0.7,7.2,4.8,7.2c4.1,0,4.8-4.2,4.8-7.2
		C115.8,58,114.6,54.2,111,54.2z"/>
	<path fill="#F1B82D" d="M127.1,66.1c0,1.3,0,2.1,1.8,2.1c1.3,0,1.4,0,1.4,0.4c0,0.5-0.1,0.5-0.5,0.5c-1.3,0-2.4-0.1-4-0.1
		c-2.8,0-3.4,0.1-3.7,0.1c-0.2,0-0.3-0.2-0.3-0.5c0-0.3,0.1-0.5,0.7-0.5c1.5,0,1.8-0.3,1.8-1.8v-9.8c0-0.4,0-1.1-0.7-1.1h-1.9
		c-0.2,0-0.4,0-0.4-0.5c0-0.3,0.2-0.4,1.1-0.6c1.4-0.3,1.7-0.4,1.8-2c0.4-5.3,1.9-8.3,6.1-9.3c0.6-0.1,1.5-0.3,2.1-0.3
		c0.9,0,2.2,0.3,2.2,1.5c0,1-0.6,1.7-1.6,1.7c-0.3,0-1.1-0.1-1.9-0.8c-0.6-0.5-1.2-0.8-1.5-0.8c-2,0-2.3,2.9-2.3,5.1v4.5h4.3
		c0.2,0,0.3,0.2,0.3,0.7c0,0.5-0.2,0.9-0.9,0.9c-0.2,0-2.9-0.2-3.7-0.2V66.1z"/>
	<path fill="#F1B82D" d="M145.3,52.4c0-2.5,0-3.3-0.1-4.9c0-2.1-0.6-2.3-3.2-2.3c-0.4,0-0.4-0.3-0.4-0.6c0-0.2,0.1-0.5,0.3-0.5
		c0.3,0,2.8,0.1,5,0.1c0.3,0,3.2-0.1,5-0.1c8.4,0,9.2,5.5,9.2,6.9c0,5-3.5,7.6-8.2,7.6c-1.4,0-2.8-0.1-4.2-0.3c0,5.6,0,6.5,0.1,7.6
		c0.1,1.4,0.3,2.2,3.9,2.2c1,0,1,0.2,1,0.6c0,0.3,0,0.5-0.3,0.5c-0.2,0-1.2-0.1-6.4-0.1c-5.1,0-5.3,0.1-5.5,0.1
		c-0.3,0-0.3-0.1-0.3-0.5c0-0.4,0-0.6,1-0.6c2.8,0,3-0.6,3-1.5c0.1-1.8,0.1-4,0.1-5.5V52.4z M148.7,56.2c0,0.8,0.2,1.3,2,1.3
		c3.8,0,6.7-2.2,6.7-6.2c0-3.6-2.3-6.2-5.7-6.2c-2.7,0-3,0-2.9,2.9V56.2z"/>
	<path fill="#F1B82D" d="M165.9,57.5c0-1.2-0.3-1.9-2.1-2.1c-0.3,0-0.3-0.2-0.3-0.4c0-0.3,0.1-0.5,0.3-0.5c4-0.8,4.5-1.7,4.9-1.7
		c0.1,0,0.1,0.2,0.1,0.3c0,0.4-0.2,1.3-0.2,3.2c1.2-1.3,3-3,4.9-3c1.2,0,2.2,0.7,2.2,2c0,0.9-0.7,1.8-1.7,1.8
		c-1.4,0-1.6-1.3-2.7-1.3c-0.6,0-1.5,0.5-2.4,1.5c-0.2,0.3-0.2,0.7-0.2,1v7.9c0,1.3,0,2.1,1.8,2.1c1.3,0,1.4,0,1.4,0.4
		c0,0.5-0.1,0.5-0.5,0.5c-1.3,0-2.4-0.1-4-0.1c-2.8,0-3.4,0.1-4.1,0.1c-0.2,0-0.3-0.2-0.3-0.5c0-0.3,0.4-0.5,1.1-0.5
		c1.5,0,1.8-0.3,1.8-1.8V57.5z"/>
	<path fill="#F1B82D" d="M185.5,69.5c-4.8,0-8.1-3.5-8.1-8.1c0-4.6,3.5-8.1,8.1-8.1c4.7,0,8.2,3.4,8.2,8.1
		C193.7,66.3,190.4,69.5,185.5,69.5z M185.5,54.2c-3.6,0-4.8,3.8-4.8,7.2c0,3,0.7,7.2,4.8,7.2c4.1,0,4.8-4.2,4.8-7.2
		C190.3,58,189.2,54.2,185.5,54.2z"/>
	<path fill="#F1B82D" d="M206.1,67.6c4.8,0,4.8,3.1,4.8,4.2c0,5.3-5.8,6.8-10.1,6.8c-2.3,0-4.5-0.6-4.5-3.3c0-2.2,1.6-3.7,3-5.1
		c-1.1-0.1-2.1-1-2.1-2.1c0-2.1,1.1-3,2.7-4.1c-2-1-2.7-2.8-2.7-5c0-3.3,3-5.7,6.2-5.7c1.4,0,3.1,0.5,4.2,1.4c1.4-0.9,2.2-1,3-1
		c2.2,0,2.6,1.2,2.6,2c0,0.5-0.6,1.2-1.3,1.2c-0.9,0-1.8-2-2.4-2c-0.6,0-0.8,0.2-1.3,0.5c0.7,0.7,1.3,2.5,1.3,3.4c0,3.8-2.4,6-6.2,6
		c-0.4,0-1.8-0.1-2.5-0.4c-0.6,0.3-1.4,1-1.4,2.2c0,1,0.8,1.2,1.6,1.2H206.1z M200.5,70.2c-0.2,0-2.3,1.6-2.3,3.5
		c0,0.5,0.1,3.2,5,3.2c4,0,5.8-1.2,5.8-4c0-2.1-1.3-2.8-3.6-2.8H200.5z M206.4,58.3c0-0.5,0-4.2-2.9-4.2c-3.3,0-3.3,4.2-3.3,5.4
		c0,2.1,0.7,4.2,3.2,4.2C206.2,63.7,206.4,59.8,206.4,58.3z"/>
	<path fill="#F1B82D" d="M216.5,57.5c0-1.2-0.3-1.9-2.1-2.1c-0.3,0-0.3-0.2-0.3-0.4c0-0.3,0.1-0.5,0.3-0.5c4-0.8,4.5-1.7,4.9-1.7
		c0.1,0,0.1,0.2,0.1,0.3c0,0.4-0.2,1.3-0.2,3.2c1.2-1.3,3-3,4.9-3c1.2,0,2.2,0.7,2.2,2c0,0.9-0.7,1.8-1.7,1.8
		c-1.4,0-1.6-1.3-2.7-1.3c-0.6,0-1.5,0.5-2.4,1.5c-0.2,0.3-0.2,0.7-0.2,1v7.9c0,1.3,0,2.1,1.8,2.1c1.3,0,1.4,0,1.4,0.4
		c0,0.5-0.1,0.5-0.5,0.5c-1.3,0-2.4-0.1-4-0.1c-2.8,0-3.4,0.1-4.1,0.1c-0.2,0-0.3-0.2-0.3-0.5c0-0.3,0.4-0.5,1.1-0.5
		c1.5,0,1.8-0.3,1.8-1.8V57.5z"/>
	<path fill="#F1B82D" d="M239,67.2c0,0.6,0.2,0.7,0.6,0.7c0.7,0,1.2-0.8,1.5-0.8c0.2,0,0.5,0.2,0.5,0.4c0,0.4-2.3,2.1-3.5,2.1
		c-1.3,0-1.5-0.8-1.9-2c-2.1,1.6-3,2-4.5,2c-2.7,0-3.4-2-3.4-3.1c0-1.8,1.1-3.3,7.9-5.8v-3.2c0-1.8-2.1-2.8-2.9-2.8
		c-0.8,0-2.5,1.3-2.5,1.6c0,0.5,0.5,1,0.5,1.8c0,0.4-0.3,1.3-1.7,1.3c-1.2,0-1.5-0.9-1.5-1.3c0-0.9,0.2-1.4,2.9-3.2
		c2.6-1.7,3-1.8,3.8-1.8c1.1,0,4.3,0.8,4.3,4V67.2z M236.1,62c0-0.2-0.1-0.4-0.2-0.4c-0.2,0-2.8,1.2-3.5,1.7c-1,0.7-1.2,1.3-1.2,2.6
		c0,1.1,0.5,2.2,1.6,2.2c1.3,0,3.2-1.2,3.2-1.9V62z"/>
	<path fill="#F1B82D" d="M245.4,57.5c0-1.2-0.3-1.9-2.1-2.1c-0.3,0-0.3-0.2-0.3-0.4c0-0.3,0.1-0.5,0.3-0.5c4-0.8,4.5-1.7,4.9-1.7
		c0.1,0,0.1,0.1,0.1,0.4c0,0.2-0.1,1-0.1,2.3c0.9-0.7,4.2-2.2,6.2-2.2c1.7,0,2.9,0.8,3.8,2.3c1.9-1.1,3.3-2.3,5.4-2.3
		c1.2,0,4.6,0.2,4.6,4.3v9.3c0,0.6,0.1,1.3,2.3,1.3c0.3,0,0.3,0.2,0.3,0.5c0,0.2,0,0.5-0.5,0.5c-1.1,0-1.7-0.1-3.5-0.1
		c-2.8,0-3.4,0.1-3.7,0.1c-0.2,0-0.2-0.2-0.2-0.4s0.1-0.5,0.5-0.5c1.7,0,2-0.1,2-1.3v-9.1c0-0.5-0.3-2.9-3.6-2.9
		c-1.5,0-3.6,1.5-3.6,1.9v9c0,2,0.1,2.4,1.6,2.4c0.9,0,1,0,1,0.5c0,0.2,0,0.5-0.4,0.5c-0.2,0-0.6-0.1-3.7-0.1
		c-2.8,0-3.4,0.1-3.7,0.1c-0.2,0-0.2-0.2-0.2-0.4s0.1-0.5,0.5-0.5c1.7,0,2-0.1,2-1.4v-9.1c0-1.3-0.3-2.9-3.6-2.9
		c-1.5,0-3.6,1.5-3.6,1.9v9c0,2,0.1,2.4,1.6,2.4c0.9,0,1,0,1,0.5c0,0.2,0,0.5-0.3,0.5c-0.2,0-0.6-0.1-3.1-0.1
		c-3.3,0-3.9,0.1-4.4,0.1c-0.3,0-0.3-0.2-0.3-0.4c0-0.5,0-0.5,1-0.5c0.9,0,1.2-0.3,1.4-0.8c0.1-0.3,0.2-2.8,0.2-5V57.5z"/>
	<path fill="#F1B82D" d="M283.1,64.8c0,1.7-0.9,4.8-5.7,4.8c-0.6,0-2.7-0.3-4-0.3c-0.1,0-0.2-0.1-0.2-0.2c0-0.3-0.8-3.4-0.8-3.8
		c0-0.2,0.5-0.2,0.6-0.2c0.8,0,1,3.5,4.4,3.5c2.5,0,3.2-1.9,3.2-3.1c0-3.7-7.8-2.5-7.8-7.5c0-2.9,2.4-4.8,5.3-4.8
		c1.6,0,3.6,0.3,3.8,0.3c0.5,0.1,0.5,0.8,0.5,1c0.1,1.4,0.4,2.3,0.4,2.8c0,0.2-0.2,0.3-0.4,0.3c-0.3,0-0.5,0-0.7-0.5
		c-0.2-0.6-1.2-3-3.6-3c-1.6,0-2.8,0.9-2.8,2.6c0,1.2,0.9,2,1.6,2.3C280.5,60.9,283.1,60.8,283.1,64.8z"/>
</g>
</svg>
