<?xml version="1.0" encoding="utf-8"?>
<!-- Generator: Adobe Illustrator 18.1.0, SVG Export Plug-In . SVG Version: 6.00 Build 0)  -->
<!DOCTYPE svg PUBLIC "-//W3C//DTD SVG 1.0//EN" "http://www.w3.org/TR/2001/REC-SVG-20010904/DTD/svg10.dtd">
<svg version="1.0" id="Layer_1" xmlns="http://www.w3.org/2000/svg" xmlns:xlink="http://www.w3.org/1999/xlink" x="0px" y="0px"
	 width="404px" height="114px" viewBox="0 0 404 114" enable-background="new 0 0 404 114" xml:space="preserve">
<g>
	<path d="M20.8,42.2C7.4,42.2,2.3,31.5,2.3,24.8c0-12.1,9-19.4,18.5-19.4c10.6,0,18.6,6.4,18.6,19.2C39.4,31.5,34.3,42.2,20.8,42.2z
		 M20.8,6.7C9.2,6.7,8.3,19.7,8.3,23.8c0,6.9,3.4,17.1,12.6,17.1c11.8,0,12.6-11.2,12.6-17.1C33.4,16.6,30.1,6.7,20.8,6.7z"/>
	<path d="M51.2,37.3c0,1.9,0,3,2.5,3c1.9,0,2.1,0.1,2.1,0.6c0,0.6-0.2,0.7-0.8,0.7c-1.8,0-3.4-0.1-5.7-0.1c-4,0-4.9,0.1-5.3,0.1
		c-0.3,0-0.4-0.3-0.4-0.6c0-0.5,0.1-0.7,1-0.7c2.2,0,2.6-0.4,2.6-2.5v-14c0-0.6,0-1.6-1-1.6h-2.8c-0.4,0-0.6,0-0.6-0.6
		c0-0.4,0.4-0.6,1.6-0.9c2-0.5,2.5-0.5,2.6-2.8c0.5-7.6,2.8-11.8,8.7-13.4c0.8-0.2,2.2-0.4,3.1-0.4c1.3,0,3.2,0.5,3.2,2.1
		c0,1.5-0.9,2.5-2.4,2.5c-0.4,0-1.5-0.1-2.8-1.1c-0.9-0.7-1.8-1.2-2.2-1.2c-2.9,0-3.4,4.2-3.4,7.3v6.5h6.2c0.4,0,0.5,0.3,0.5,1
		c0,0.6-0.3,1.2-1.4,1.2c-0.3,0-4.2-0.2-5.4-0.2V37.3z"/>
	<path d="M67,37.3c0,1.9,0,3,2.5,3c1.1,0,1.3,0.1,1.3,0.6c0,0.6-0.2,0.7-0.8,0.7c-1.1,0-2.7-0.1-5-0.1c-4,0-4.9,0.1-5.3,0.1
		c-0.4,0-0.5-0.3-0.5-0.6c0-0.5,0.1-0.7,1-0.7c2.2,0,2.6-0.4,2.6-2.5v-14c0-0.6,0-1.6-1-1.6h-2.8c-0.4,0-0.6,0-0.6-0.6
		c0-0.4,0.4-0.6,1.6-0.9c2-0.5,2.5-0.5,2.6-2.8c0.5-7.4,5.8-13.8,13.9-13.8c1.3,0,4.7,0.5,4.7,2.7c0,1.7-1.2,2.5-2.6,2.5
		c-3.6,0-4.3-2.9-6.1-2.9c-1.9,0-5.7,1-5.7,10.8v3h8.5c2.8,0,5.1-1.9,5.6-1.9c0.2,0,0.3,0.2,0.3,0.5c0,0.2-0.2,0.7-0.2,7.2v10.8
		c0,2.9,0.1,3.5,2.3,3.5c1.1,0,1.2,0.1,1.2,0.7c0,0.3,0,0.6-0.5,0.6c-0.2,0-0.9-0.1-4.1-0.1c-4.7,0-6,0.1-6.8,0.1
		c-0.4,0-0.4-0.3-0.4-0.6c0-0.6,0-0.8,1.9-0.8c1.3,0,1.8-0.5,2.1-1.2c0.2-0.4,0.3-4,0.3-7.2V25c0-2.5-1.9-3.1-2.9-3.1H67V37.3z"/>
	<path d="M105.8,37.3c0.4-0.4,0.6-0.8,0.8-0.8c0.2,0,0.8,0.4,0.8,0.7c0,0.2-0.1,0.5-0.4,0.8c-2.5,2.9-5.5,4.3-8.7,4.3
		c-5.8,0-10.4-4.2-10.4-11.3c0-7.4,4.9-11.9,11.4-11.9c6.9,0,8.1,3.7,8.1,4.8c0,0.6-0.8,2.1-2.7,2.1c-1.6,0-1.8-0.5-2.3-3.2
		c-0.2-0.8-0.5-2.4-3.1-2.4c-3.1,0-7.1,2.4-7.1,10.6c0,2.2,0.9,8.5,8.5,8.5C102.6,39.4,104.8,38.1,105.8,37.3z"/>
	<path d="M114.5,28c-0.1,1-0.2,1.9-0.2,2.9c0,3.3,2.8,8.3,8.2,8.3c2.3,0,4.2-0.7,5.8-3c0.3-0.4,0.5-0.9,0.8-0.9
		c0.4,0,0.8,0.5,0.8,0.6s-2,6.4-8.6,6.4c-7.2,0-10.9-4.4-10.9-11.4c0-7.2,4.8-12,10-12c8.3,0,9,7.2,9,8.7c0,0.5-0.2,0.5-0.6,0.5
		H114.5z M123.1,26.5c1,0,1.7-0.3,1.7-1.6c0-3.9-2.7-4.8-4.4-4.8c-3.6,0-5.1,3-5.6,6.4H123.1z"/>
	<path d="M157.8,42.2c-6.8,0-11.6-5-11.6-11.6c0-6.6,5-11.6,11.6-11.6c6.7,0,11.7,4.9,11.7,11.6C169.4,37.6,164.8,42.2,157.8,42.2z
		 M157.8,20.3c-5.2,0-6.8,5.4-6.8,10.3c0,4.3,1,10.3,6.8,10.3c5.9,0,6.9-6.1,6.9-10.3C164.7,25.7,163,20.3,157.8,20.3z"/>
	<path d="M180.8,37.3c0,1.9,0,3,2.5,3c1.9,0,2,0.1,2,0.6c0,0.6-0.2,0.7-0.8,0.7c-1.8,0-3.4-0.1-5.7-0.1c-4,0-4.8,0.1-5.3,0.1
		c-0.4,0-0.5-0.3-0.5-0.6c0-0.5,0.1-0.7,1-0.7c2.2,0,2.6-0.4,2.6-2.5v-14c0-0.6,0-1.6-1-1.6h-2.8c-0.4,0-0.6,0-0.6-0.6
		c0-0.4,0.4-0.6,1.5-0.9c2-0.5,2.5-0.5,2.6-2.8c0.5-7.6,2.8-11.8,8.7-13.4c0.8-0.2,2.2-0.4,3-0.4c1.3,0,3.2,0.5,3.2,2.1
		c0,1.5-0.8,2.5-2.3,2.5c-0.5,0-1.6-0.1-2.8-1.1c-0.9-0.7-1.8-1.2-2.2-1.2c-2.9,0-3.4,4.2-3.4,7.3v6.5h6.2c0.4,0,0.5,0.3,0.5,1
		c0,0.6-0.3,1.2-1.3,1.2c-0.4,0-4.2-0.2-5.4-0.2V37.3z"/>
	<path d="M206.8,17.7c0-3.6,0-4.8-0.1-7.1c0-3-0.9-3.4-4.5-3.4c-0.5,0-0.5-0.4-0.5-0.9c0-0.3,0.1-0.7,0.5-0.7c0.4,0,4,0.2,7.2,0.2
		c0.5,0,4.5-0.2,7.1-0.2c12,0,13.2,7.9,13.2,9.9c0,7.2-5,10.8-11.8,10.8c-2,0-4-0.1-6.1-0.5c0,8,0,9.4,0.1,10.9
		c0.1,2,0.4,3.2,5.6,3.2c1.4,0,1.4,0.3,1.4,0.9c0,0.4,0,0.6-0.4,0.6c-0.3,0-1.8-0.1-9.2-0.1c-7.4,0-7.6,0.1-7.9,0.1
		c-0.4,0-0.4-0.2-0.4-0.6c0-0.6,0-0.9,1.4-0.9c4,0,4.2-0.9,4.3-2.2c0.1-2.5,0.2-5.8,0.2-7.9V17.7z M211.7,23.1
		c0,1.1,0.3,1.9,2.9,1.9c5.5,0,9.5-3.1,9.5-8.9c0-5.2-3.3-8.8-8.2-8.8c-3.8,0-4.2,0-4.2,4.1V23.1z"/>
	<path d="M236.3,25c0-1.8-0.5-2.8-3-3c-0.4,0-0.5-0.2-0.5-0.6c0-0.4,0.2-0.6,0.4-0.7c5.7-1.1,6.4-2.4,7-2.4c0.1,0,0.2,0.3,0.2,0.5
		c0,0.6-0.2,1.9-0.2,4.6c1.7-1.9,4.4-4.4,7-4.4c1.8,0,3.2,1,3.2,2.8c0,1.3-1,2.5-2.5,2.5c-2,0-2.3-1.9-3.8-1.9
		c-0.9,0-2.2,0.8-3.5,2.1c-0.4,0.4-0.4,1-0.4,1.5v11.4c0,1.9,0,3,2.5,3c1.8,0,2,0.1,2,0.6c0,0.6-0.2,0.7-0.8,0.7
		c-1.8,0-3.4-0.1-5.7-0.1c-4,0-4.9,0.1-5.8,0.1c-0.3,0-0.5-0.3-0.5-0.6c0-0.5,0.6-0.7,1.6-0.7c2.1,0,2.5-0.4,2.5-2.5V25z"/>
	<path d="M264.3,42.2c-6.8,0-11.6-5-11.6-11.6c0-6.6,5-11.6,11.6-11.6c6.7,0,11.7,4.9,11.7,11.6C275.9,37.6,271.3,42.2,264.3,42.2z
		 M264.3,20.3c-5.2,0-6.8,5.4-6.8,10.3c0,4.3,1,10.3,6.8,10.3c5.9,0,6.9-6.1,6.9-10.3C271.2,25.7,269.5,20.3,264.3,20.3z"/>
	<path d="M293.7,39.4c6.9,0,6.8,4.5,6.8,6c0,7.5-8.4,9.8-14.5,9.8c-3.2,0-6.5-0.8-6.5-4.7c0-3.1,2.3-5.4,4.3-7.4
		c-1.5-0.2-3-1.5-3-3.1c0-3,1.6-4.3,3.9-5.9c-2.9-1.5-3.9-4-3.9-7.1c0-4.7,4.4-8.2,8.9-8.2c2,0,4.4,0.7,6.1,2c2-1.3,3.1-1.5,4.2-1.5
		c3.2,0,3.8,1.8,3.8,2.8c0,0.8-0.8,1.8-1.9,1.8c-1.3,0-2.5-2.9-3.4-2.9c-0.9,0-1.2,0.3-1.9,0.7c1,1,1.9,3.6,1.9,4.9
		c0,5.4-3.4,8.6-8.9,8.6c-0.6,0-2.6-0.1-3.6-0.5c-0.8,0.4-2.1,1.5-2.1,3.2c0,1.4,1.2,1.6,2.4,1.6H293.7z M285.7,43.2
		c-0.3,0-3.3,2.2-3.3,5c0,0.7,0.2,4.6,7.2,4.6c5.7,0,8.3-1.8,8.3-5.7c0-3.1-1.8-4-5.1-4H285.7z M294.2,26.2c0-0.8,0-6.1-4.2-6.1
		c-4.7,0-4.7,6-4.7,7.7c0,3,1,6,4.5,6C293.9,33.8,294.2,28.3,294.2,26.2z"/>
	<path d="M308.6,25c0-1.8-0.5-2.8-3-3c-0.4,0-0.5-0.2-0.5-0.6c0-0.4,0.2-0.6,0.4-0.7c5.7-1.1,6.4-2.4,7-2.4c0.1,0,0.2,0.3,0.2,0.5
		c0,0.6-0.2,1.9-0.2,4.6c1.7-1.9,4.4-4.4,7-4.4c1.8,0,3.2,1,3.2,2.8c0,1.3-1,2.5-2.5,2.5c-2,0-2.3-1.9-3.8-1.9
		c-0.9,0-2.2,0.8-3.5,2.1c-0.4,0.4-0.4,1-0.4,1.5v11.4c0,1.9,0,3,2.5,3c1.8,0,2,0.1,2,0.6c0,0.6-0.2,0.7-0.8,0.7
		c-1.8,0-3.4-0.1-5.7-0.1c-4,0-4.9,0.1-5.8,0.1c-0.3,0-0.5-0.3-0.5-0.6c0-0.5,0.6-0.7,1.6-0.7c2.1,0,2.5-0.4,2.5-2.5V25z"/>
	<path d="M340.6,38.8c0,0.8,0.4,1,0.9,1c1,0,1.8-1.1,2.1-1.1c0.2,0,0.7,0.4,0.7,0.5c0,0.6-3.2,3-5,3c-1.8,0-2.2-1.2-2.8-2.9
		c-3,2.3-4.3,2.9-6.5,2.9c-3.9,0-4.8-2.9-4.8-4.5c0-2.6,1.5-4.7,11.3-8.3v-4.6c0-2.6-3-4-4.2-4c-1.2,0-3.6,1.8-3.6,2.3
		c0,0.7,0.7,1.4,0.7,2.5c0,0.5-0.5,1.9-2.5,1.9c-1.7,0-2.1-1.3-2.1-1.9c0-1.4,0.4-2,4.1-4.5c3.8-2.5,4.3-2.5,5.4-2.5
		c1.6,0,6.2,1.2,6.2,5.8V38.8z M336.6,31.4c0-0.2-0.2-0.5-0.4-0.5c-0.2,0-4,1.6-5,2.5c-1.4,1-1.7,1.8-1.7,3.6c0,1.6,0.7,3.1,2.4,3.1
		c1.9,0,4.6-1.8,4.6-2.7V31.4z"/>
	<path d="M349.9,25c0-1.8-0.4-2.8-3-3c-0.4,0-0.4-0.2-0.4-0.6c0-0.4,0.1-0.6,0.4-0.7c5.7-1.1,6.4-2.4,7-2.4c0.1,0,0.1,0.1,0.1,0.5
		c0,0.3-0.1,1.4-0.1,3.4c1.3-1,6.1-3.2,8.8-3.2c2.5,0,4.2,1.2,5.5,3.3c2.7-1.6,4.7-3.3,7.7-3.3c1.7,0,6.6,0.2,6.6,6.1v13.3
		c0,0.9,0.1,1.8,3.2,1.8c0.5,0,0.5,0.3,0.5,0.7c0,0.3,0,0.6-0.7,0.6c-1.5,0-2.4-0.1-5-0.1c-4.1,0-4.9,0.1-5.3,0.1
		c-0.3,0-0.3-0.4-0.3-0.6s0.1-0.7,0.7-0.7c2.4,0,2.8-0.2,2.8-1.9v-13c0-0.6-0.4-4.1-5.1-4.1c-2.2,0-5.1,2.2-5.1,2.8v12.8
		c0,2.9,0.1,3.5,2.3,3.5c1.4,0,1.5,0.1,1.5,0.7c0,0.3,0,0.6-0.5,0.6c-0.2,0-0.9-0.1-5.2-0.1c-4.1,0-4.9,0.1-5.3,0.1
		c-0.3,0-0.3-0.4-0.3-0.6s0.1-0.7,0.7-0.7c2.4,0,2.8-0.2,2.8-2v-13c0-1.9-0.4-4.1-5.1-4.1c-2.2,0-5.1,2.2-5.1,2.8v12.8
		c0,2.9,0.1,3.5,2.3,3.5c1.4,0,1.5,0.1,1.5,0.7c0,0.3,0,0.6-0.5,0.6c-0.2,0-0.9-0.1-4.4-0.1c-4.7,0-5.5,0.1-6.2,0.1
		c-0.4,0-0.4-0.3-0.4-0.6c0-0.6,0-0.8,1.4-0.8c1.3,0,1.8-0.5,2-1.2c0.2-0.4,0.3-4,0.3-7.2V25z"/>
	<path d="M403.6,35.4c0,2.5-1.3,6.8-8.2,6.8c-0.9,0-3.8-0.4-5.8-0.4c-0.1,0-0.2-0.1-0.2-0.2c0-0.5-1.2-4.9-1.2-5.4
		c0-0.3,0.7-0.3,0.9-0.3c1.2,0,1.5,5.1,6.3,5.1c3.5,0,4.5-2.7,4.5-4.5c0-5.3-11.2-3.6-11.2-10.7c0-4.1,3.4-6.8,7.6-6.8
		c2.3,0,5.2,0.4,5.4,0.5c0.6,0.1,0.8,1.1,0.8,1.4c0.1,2.1,0.5,3.4,0.5,4c0,0.3-0.3,0.4-0.5,0.4c-0.5,0-0.8,0-1-0.7
		c-0.4-0.9-1.7-4.2-5.2-4.2c-2.3,0-4,1.4-4,3.8c0,1.8,1.2,2.8,2.4,3.4C400,29.9,403.6,29.7,403.6,35.4z"/>
</g>
<g>
	<path fill="#900000" d="M20.8,99.2C7.4,99.2,2.3,88.5,2.3,81.8c0-12.1,9-19.4,18.5-19.4c10.6,0,18.6,6.4,18.6,19.2
		C39.4,88.5,34.3,99.2,20.8,99.2z M20.8,63.7C9.2,63.7,8.3,76.7,8.3,80.8c0,6.9,3.4,17.1,12.6,17.1c11.8,0,12.6-11.2,12.6-17.1
		C33.4,73.6,30.1,63.7,20.8,63.7z"/>
	<path fill="#900000" d="M51.2,94.3c0,1.9,0,3,2.5,3c1.9,0,2.1,0.1,2.1,0.6c0,0.6-0.2,0.7-0.8,0.7c-1.8,0-3.4-0.1-5.7-0.1
		c-4,0-4.9,0.1-5.3,0.1c-0.3,0-0.4-0.3-0.4-0.6c0-0.5,0.1-0.7,1-0.7c2.2,0,2.6-0.4,2.6-2.5v-14c0-0.6,0-1.6-1-1.6h-2.8
		c-0.4,0-0.6,0-0.6-0.6c0-0.4,0.4-0.6,1.6-0.9c2-0.5,2.5-0.5,2.6-2.8c0.5-7.6,2.8-11.8,8.7-13.4c0.8-0.2,2.2-0.4,3.1-0.4
		c1.3,0,3.2,0.5,3.2,2.1c0,1.5-0.9,2.5-2.4,2.5c-0.4,0-1.5-0.1-2.8-1.1c-0.9-0.7-1.8-1.2-2.2-1.2c-2.9,0-3.4,4.2-3.4,7.3v6.5h6.2
		c0.4,0,0.5,0.3,0.5,1c0,0.6-0.3,1.2-1.4,1.2c-0.3,0-4.2-0.2-5.4-0.2V94.3z"/>
	<path fill="#900000" d="M67,94.3c0,1.9,0,3,2.5,3c1.1,0,1.3,0.1,1.3,0.6c0,0.6-0.2,0.7-0.8,0.7c-1.1,0-2.7-0.1-5-0.1
		c-4,0-4.9,0.1-5.3,0.1c-0.4,0-0.5-0.3-0.5-0.6c0-0.5,0.1-0.7,1-0.7c2.2,0,2.6-0.4,2.6-2.5v-14c0-0.6,0-1.6-1-1.6h-2.8
		c-0.4,0-0.6,0-0.6-0.6c0-0.4,0.4-0.6,1.6-0.9c2-0.5,2.5-0.5,2.6-2.8c0.5-7.4,5.8-13.8,13.9-13.8c1.3,0,4.7,0.5,4.7,2.7
		c0,1.7-1.2,2.5-2.6,2.5c-3.6,0-4.3-2.9-6.1-2.9c-1.9,0-5.7,1-5.7,10.8v3h8.5c2.8,0,5.1-1.9,5.6-1.9c0.2,0,0.3,0.2,0.3,0.5
		c0,0.2-0.2,0.7-0.2,7.2v10.8c0,2.9,0.1,3.5,2.3,3.5c1.1,0,1.2,0.1,1.2,0.7c0,0.3,0,0.6-0.5,0.6c-0.2,0-0.9-0.1-4.1-0.1
		c-4.7,0-6,0.1-6.8,0.1c-0.4,0-0.4-0.3-0.4-0.6c0-0.6,0-0.8,1.9-0.8c1.3,0,1.8-0.5,2.1-1.2c0.2-0.4,0.3-4,0.3-7.2V82
		c0-2.5-1.9-3.1-2.9-3.1H67V94.3z"/>
	<path fill="#900000" d="M105.8,94.3c0.4-0.4,0.6-0.8,0.8-0.8c0.2,0,0.8,0.4,0.8,0.7c0,0.2-0.1,0.5-0.4,0.8
		c-2.5,2.9-5.5,4.3-8.7,4.3c-5.8,0-10.4-4.2-10.4-11.3c0-7.4,4.9-11.9,11.4-11.9c6.9,0,8.1,3.7,8.1,4.8c0,0.6-0.8,2.1-2.7,2.1
		c-1.6,0-1.8-0.5-2.3-3.2c-0.2-0.8-0.5-2.4-3.1-2.4c-3.1,0-7.1,2.4-7.1,10.6c0,2.2,0.9,8.5,8.5,8.5
		C102.6,96.4,104.8,95.1,105.8,94.3z"/>
	<path fill="#900000" d="M114.5,85c-0.1,1-0.2,1.9-0.2,2.9c0,3.3,2.8,8.3,8.2,8.3c2.3,0,4.2-0.7,5.8-3c0.3-0.4,0.5-0.9,0.8-0.9
		c0.3,0,0.8,0.5,0.8,0.6s-2,6.4-8.6,6.4c-7.2,0-10.9-4.4-10.9-11.4c0-7.2,4.8-12,10-12c8.3,0,9,7.2,9,8.7c0,0.5-0.2,0.5-0.6,0.5
		H114.5z M123.1,83.5c1,0,1.7-0.3,1.7-1.6c0-3.9-2.7-4.8-4.4-4.8c-3.6,0-5.1,3-5.6,6.4H123.1z"/>
	<path fill="#900000" d="M157.8,99.2c-6.8,0-11.6-5-11.6-11.6c0-6.6,5-11.6,11.6-11.6c6.7,0,11.7,4.9,11.7,11.6
		C169.4,94.6,164.8,99.2,157.8,99.2z M157.8,77.3c-5.2,0-6.8,5.4-6.8,10.3c0,4.3,1,10.3,6.8,10.3c5.9,0,6.9-6.1,6.9-10.3
		C164.7,82.7,163,77.3,157.8,77.3z"/>
	<path fill="#900000" d="M180.8,94.3c0,1.9,0,3,2.5,3c1.9,0,2,0.1,2,0.6c0,0.6-0.2,0.7-0.8,0.7c-1.8,0-3.4-0.1-5.7-0.1
		c-4,0-4.8,0.1-5.3,0.1c-0.4,0-0.5-0.3-0.5-0.6c0-0.5,0.1-0.7,1-0.7c2.2,0,2.6-0.4,2.6-2.5v-14c0-0.6,0-1.6-1-1.6h-2.8
		c-0.4,0-0.6,0-0.6-0.6c0-0.4,0.4-0.6,1.5-0.9c2-0.5,2.5-0.5,2.6-2.8c0.5-7.6,2.8-11.8,8.7-13.4c0.8-0.2,2.2-0.4,3-0.4
		c1.3,0,3.2,0.5,3.2,2.1c0,1.5-0.8,2.5-2.3,2.5c-0.5,0-1.6-0.1-2.8-1.1c-0.9-0.7-1.8-1.2-2.2-1.2c-2.9,0-3.4,4.2-3.4,7.3v6.5h6.2
		c0.4,0,0.5,0.3,0.5,1c0,0.6-0.3,1.2-1.3,1.2c-0.4,0-4.2-0.2-5.4-0.2V94.3z"/>
	<path fill="#900000" d="M206.8,74.7c0-3.6,0-4.8-0.1-7.1c0-3-0.9-3.4-4.5-3.4c-0.5,0-0.5-0.4-0.5-0.9c0-0.3,0.1-0.7,0.5-0.7
		c0.4,0,4,0.2,7.2,0.2c0.5,0,4.5-0.2,7.1-0.2c12,0,13.2,7.9,13.2,9.9c0,7.2-5,10.8-11.8,10.8c-2,0-4-0.1-6.1-0.5c0,8,0,9.4,0.1,10.9
		c0.1,2,0.4,3.2,5.6,3.2c1.4,0,1.4,0.3,1.4,0.9c0,0.4,0,0.6-0.4,0.6c-0.3,0-1.8-0.1-9.2-0.1c-7.4,0-7.6,0.1-7.9,0.1
		c-0.4,0-0.4-0.2-0.4-0.6c0-0.6,0-0.9,1.4-0.9c4,0,4.2-0.9,4.3-2.2c0.1-2.5,0.2-5.8,0.2-7.9V74.7z M211.7,80.1
		c0,1.1,0.3,1.9,2.9,1.9c5.5,0,9.5-3.1,9.5-8.9c0-5.2-3.3-8.8-8.2-8.8c-3.8,0-4.2,0-4.2,4.1V80.1z"/>
	<path fill="#900000" d="M236.3,82c0-1.8-0.5-2.8-3-3c-0.4,0-0.5-0.2-0.5-0.6c0-0.4,0.2-0.6,0.4-0.7c5.7-1.1,6.4-2.4,7-2.4
		c0.1,0,0.2,0.3,0.2,0.5c0,0.6-0.2,1.9-0.2,4.6c1.7-1.9,4.4-4.4,7-4.4c1.8,0,3.2,1,3.2,2.8c0,1.3-1,2.5-2.5,2.5
		c-2,0-2.3-1.9-3.8-1.9c-0.9,0-2.2,0.8-3.5,2.1c-0.4,0.4-0.4,1-0.4,1.5v11.4c0,1.9,0,3,2.5,3c1.8,0,2,0.1,2,0.6
		c0,0.6-0.2,0.7-0.8,0.7c-1.8,0-3.4-0.1-5.7-0.1c-4,0-4.9,0.1-5.8,0.1c-0.3,0-0.5-0.3-0.5-0.6c0-0.5,0.6-0.7,1.6-0.7
		c2.1,0,2.5-0.4,2.5-2.5V82z"/>
	<path fill="#900000" d="M264.3,99.2c-6.8,0-11.6-5-11.6-11.6c0-6.6,5-11.6,11.6-11.6c6.7,0,11.7,4.9,11.7,11.6
		C275.9,94.6,271.3,99.2,264.3,99.2z M264.3,77.3c-5.2,0-6.8,5.4-6.8,10.3c0,4.3,1,10.3,6.8,10.3c5.9,0,6.9-6.1,6.9-10.3
		C271.2,82.7,269.5,77.3,264.3,77.3z"/>
	<path fill="#900000" d="M293.7,96.4c6.9,0,6.8,4.5,6.8,6c0,7.5-8.4,9.8-14.5,9.8c-3.2,0-6.5-0.8-6.5-4.7c0-3.1,2.3-5.4,4.3-7.4
		c-1.5-0.2-3-1.5-3-3.1c0-3,1.6-4.3,3.9-5.9c-2.9-1.5-3.9-4-3.9-7.1c0-4.7,4.4-8.2,8.9-8.2c2,0,4.4,0.7,6.1,2c2-1.3,3.1-1.5,4.2-1.5
		c3.2,0,3.8,1.8,3.8,2.8c0,0.8-0.8,1.8-1.9,1.8c-1.3,0-2.5-2.9-3.4-2.9c-0.8,0-1.1,0.3-1.9,0.7c1,1,1.9,3.6,1.9,4.9
		c0,5.4-3.4,8.6-8.9,8.6c-0.6,0-2.6-0.1-3.6-0.5c-0.8,0.4-2.1,1.5-2.1,3.2c0,1.4,1.2,1.6,2.4,1.6H293.7z M285.7,100.2
		c-0.3,0-3.2,2.2-3.2,5c0,0.7,0.2,4.6,7.2,4.6c5.7,0,8.3-1.8,8.3-5.7c0-3.1-1.8-4-5.1-4H285.7z M294.2,83.2c0-0.8,0-6.1-4.2-6.1
		c-4.7,0-4.7,6-4.7,7.7c0,3,1,6,4.5,6C293.9,90.8,294.2,85.3,294.2,83.2z"/>
	<path fill="#900000" d="M308.6,82c0-1.8-0.5-2.8-3-3c-0.4,0-0.5-0.2-0.5-0.6c0-0.4,0.2-0.6,0.4-0.7c5.7-1.1,6.4-2.4,7-2.4
		c0.1,0,0.2,0.3,0.2,0.5c0,0.6-0.2,1.9-0.2,4.6c1.7-1.9,4.4-4.4,7-4.4c1.8,0,3.2,1,3.2,2.8c0,1.3-1,2.5-2.5,2.5
		c-2,0-2.3-1.9-3.8-1.9c-0.9,0-2.2,0.8-3.5,2.1c-0.4,0.4-0.4,1-0.4,1.5v11.4c0,1.9,0,3,2.5,3c1.8,0,2,0.1,2,0.6
		c0,0.6-0.2,0.7-0.8,0.7c-1.8,0-3.4-0.1-5.7-0.1c-4,0-4.9,0.1-5.8,0.1c-0.3,0-0.5-0.3-0.5-0.6c0-0.5,0.6-0.7,1.6-0.7
		c2.1,0,2.5-0.4,2.5-2.5V82z"/>
	<path fill="#900000" d="M340.6,95.8c0,0.8,0.4,1,0.9,1c1,0,1.8-1.1,2.1-1.1c0.2,0,0.7,0.4,0.7,0.5c0,0.6-3.2,3-5,3
		c-1.8,0-2.2-1.2-2.8-2.9c-3,2.3-4.3,2.9-6.5,2.9c-3.9,0-4.8-2.9-4.8-4.5c0-2.6,1.5-4.7,11.3-8.3v-4.6c0-2.6-3-4-4.2-4
		c-1.2,0-3.6,1.8-3.6,2.3c0,0.7,0.7,1.4,0.7,2.5c0,0.5-0.5,1.9-2.5,1.9c-1.7,0-2.1-1.3-2.1-1.9c0-1.4,0.4-2,4.1-4.5
		c3.8-2.5,4.3-2.5,5.4-2.5c1.6,0,6.2,1.2,6.2,5.8V95.8z M336.6,88.4c0-0.2-0.2-0.5-0.4-0.5c-0.2,0-4,1.6-5,2.5
		c-1.4,1-1.7,1.8-1.7,3.6c0,1.6,0.7,3.1,2.4,3.1c1.9,0,4.6-1.8,4.6-2.7V88.4z"/>
	<path fill="#900000" d="M349.9,82c0-1.8-0.4-2.8-2.9-3c-0.4,0-0.5-0.2-0.5-0.6c0-0.4,0.1-0.6,0.4-0.7c5.7-1.1,6.4-2.4,7-2.4
		c0.1,0,0.1,0.1,0.1,0.5c0,0.3-0.1,1.4-0.1,3.4c1.3-1,6.1-3.2,8.8-3.2c2.5,0,4.2,1.2,5.5,3.3c2.7-1.6,4.7-3.3,7.7-3.3
		c1.7,0,6.6,0.2,6.6,6.1v13.3c0,0.9,0.1,1.8,3.2,1.8c0.5,0,0.5,0.3,0.5,0.7c0,0.3,0,0.6-0.7,0.6c-1.5,0-2.4-0.1-5-0.1
		c-4.1,0-4.9,0.1-5.3,0.1c-0.3,0-0.3-0.4-0.3-0.6s0.1-0.7,0.7-0.7c2.4,0,2.8-0.2,2.8-1.9v-13c0-0.6-0.4-4.1-5.1-4.1
		c-2.2,0-5.1,2.2-5.1,2.8v12.8c0,2.9,0.1,3.5,2.3,3.5c1.4,0,1.5,0.1,1.5,0.7c0,0.3,0,0.6-0.5,0.6c-0.2,0-0.9-0.1-5.2-0.1
		c-4.1,0-4.9,0.1-5.3,0.1c-0.3,0-0.3-0.4-0.3-0.6s0.1-0.7,0.7-0.7c2.4,0,2.8-0.2,2.8-2v-13c0-1.9-0.4-4.1-5.1-4.1
		c-2.2,0-5.1,2.2-5.1,2.8v12.8c0,2.9,0.1,3.5,2.3,3.5c1.4,0,1.5,0.1,1.5,0.7c0,0.3,0,0.6-0.5,0.6c-0.2,0-0.9-0.1-4.4-0.1
		c-4.7,0-5.5,0.1-6.2,0.1c-0.4,0-0.4-0.3-0.4-0.6c0-0.6,0-0.8,1.4-0.8c1.3,0,1.8-0.5,2-1.2c0.2-0.4,0.3-4,0.3-7.2V82z"/>
	<path fill="#900000" d="M403.6,92.4c0,2.5-1.3,6.8-8.2,6.8c-0.9,0-3.8-0.4-5.8-0.4c-0.1,0-0.2-0.1-0.2-0.2c0-0.5-1.2-4.9-1.2-5.4
		c0-0.3,0.7-0.3,0.9-0.3c1.2,0,1.5,5.1,6.3,5.1c3.5,0,4.5-2.7,4.5-4.5c0-5.3-11.2-3.6-11.2-10.7c0-4.1,3.4-6.8,7.6-6.8
		c2.3,0,5.2,0.4,5.4,0.5c0.6,0.1,0.8,1.1,0.8,1.4c0.1,2.1,0.5,3.4,0.5,4c0,0.3-0.3,0.4-0.5,0.4c-0.5,0-0.8,0-1-0.7
		c-0.4-0.9-1.7-4.2-5.2-4.2c-2.3,0-4,1.4-4,3.8c0,1.8,1.2,2.8,2.4,3.4C400,86.9,403.6,86.7,403.6,92.4z"/>
</g>
</svg>
